%TF.GenerationSoftware,KiCad,Pcbnew,5.1.12-84ad8e8a86~92~ubuntu18.04.1*%
%TF.CreationDate,2022-01-27T22:07:28+11:00*%
%TF.ProjectId,bbb,6262622e-6b69-4636-9164-5f7063625858,rev?*%
%TF.SameCoordinates,Original*%
%TF.FileFunction,Copper,L2,Inr*%
%TF.FilePolarity,Positive*%
%FSLAX46Y46*%
G04 Gerber Fmt 4.6, Leading zero omitted, Abs format (unit mm)*
G04 Created by KiCad (PCBNEW 5.1.12-84ad8e8a86~92~ubuntu18.04.1) date 2022-01-27 22:07:28*
%MOMM*%
%LPD*%
G01*
G04 APERTURE LIST*
%TA.AperFunction,ComponentPad*%
%ADD10C,1.727200*%
%TD*%
%TA.AperFunction,ComponentPad*%
%ADD11C,2.006600*%
%TD*%
%TA.AperFunction,ComponentPad*%
%ADD12O,1.700000X1.700000*%
%TD*%
%TA.AperFunction,ComponentPad*%
%ADD13R,1.700000X1.700000*%
%TD*%
%TA.AperFunction,ViaPad*%
%ADD14C,1.727200*%
%TD*%
%TA.AperFunction,ViaPad*%
%ADD15C,0.457200*%
%TD*%
%TA.AperFunction,Conductor*%
%ADD16C,0.762000*%
%TD*%
%TA.AperFunction,Conductor*%
%ADD17C,0.508000*%
%TD*%
%TA.AperFunction,Conductor*%
%ADD18C,0.254000*%
%TD*%
%TA.AperFunction,Conductor*%
%ADD19C,0.100000*%
%TD*%
G04 APERTURE END LIST*
D10*
%TO.N,Net-(C29-Pad1)*%
%TO.C,L3*%
X140741400Y-126250700D03*
%TO.N,Net-(C25-Pad2)*%
X145313400Y-126250700D03*
%TD*%
%TO.N,Net-(C20-Pad1)*%
%TO.C,L1*%
X151841200Y-101714300D03*
%TO.N,Net-(C22-Pad1)*%
X151841200Y-97142300D03*
%TD*%
%TO.N,Net-(C25-Pad1)*%
%TO.C,L2*%
X151231600Y-120002300D03*
%TO.N,Net-(C20-Pad2)*%
X151231600Y-115430300D03*
%TD*%
D11*
%TO.N,GND*%
%TO.C,J3*%
X128629400Y-65415800D03*
%TO.N,Iout*%
X133629400Y-70415800D03*
%TO.N,Qout*%
X123629400Y-70415800D03*
%TD*%
D12*
%TO.N,Net-(J2-Pad40)*%
%TO.C,J2*%
X114947700Y-86690200D03*
%TO.N,GND*%
X117487700Y-86690200D03*
%TO.N,Net-(J2-Pad38)*%
X114947700Y-89230200D03*
%TO.N,Net-(J2-Pad37)*%
X117487700Y-89230200D03*
%TO.N,Net-(J2-Pad36)*%
X114947700Y-91770200D03*
%TO.N,Net-(J2-Pad35)*%
X117487700Y-91770200D03*
%TO.N,GND*%
X114947700Y-94310200D03*
%TO.N,Net-(J2-Pad33)*%
X117487700Y-94310200D03*
%TO.N,Net-(J2-Pad32)*%
X114947700Y-96850200D03*
%TO.N,Net-(J2-Pad31)*%
X117487700Y-96850200D03*
%TO.N,Net-(J2-Pad30)*%
X114947700Y-99390200D03*
%TO.N,Net-(J2-Pad29)*%
X117487700Y-99390200D03*
%TO.N,Net-(J2-Pad28)*%
X114947700Y-101930200D03*
%TO.N,Net-(J2-Pad27)*%
X117487700Y-101930200D03*
%TO.N,Net-(J2-Pad26)*%
X114947700Y-104470200D03*
%TO.N,GND*%
X117487700Y-104470200D03*
%TO.N,Net-(J2-Pad24)*%
X114947700Y-107010200D03*
%TO.N,Net-(J2-Pad23)*%
X117487700Y-107010200D03*
%TO.N,Net-(J2-Pad22)*%
X114947700Y-109550200D03*
%TO.N,Net-(J2-Pad21)*%
X117487700Y-109550200D03*
%TO.N,GND*%
X114947700Y-112090200D03*
%TO.N,Net-(J2-Pad19)*%
X117487700Y-112090200D03*
%TO.N,Net-(J2-Pad18)*%
X114947700Y-114630200D03*
%TO.N,Net-(J2-Pad17)*%
X117487700Y-114630200D03*
%TO.N,Net-(J2-Pad16)*%
X114947700Y-117170200D03*
%TO.N,Net-(J2-Pad15)*%
X117487700Y-117170200D03*
%TO.N,GND*%
X114947700Y-119710200D03*
%TO.N,Net-(J2-Pad13)*%
X117487700Y-119710200D03*
%TO.N,Net-(J2-Pad12)*%
X114947700Y-122250200D03*
%TO.N,Net-(J2-Pad11)*%
X117487700Y-122250200D03*
%TO.N,Net-(J2-Pad10)*%
X114947700Y-124790200D03*
%TO.N,GND*%
X117487700Y-124790200D03*
%TO.N,Net-(J2-Pad8)*%
X114947700Y-127330200D03*
%TO.N,P5_SCL*%
X117487700Y-127330200D03*
%TO.N,GND*%
X114947700Y-129870200D03*
%TO.N,P3_SDA*%
X117487700Y-129870200D03*
%TO.N,Net-(C13-Pad1)*%
X114947700Y-132410200D03*
%TO.N,Net-(J2-Pad3)*%
X117487700Y-132410200D03*
%TO.N,Net-(C13-Pad1)*%
X114947700Y-134950200D03*
D13*
%TO.N,Net-(J2-Pad1)*%
X117487700Y-134950200D03*
%TD*%
%TO.N,GND*%
%TO.C,J1*%
X141630400Y-111048800D03*
D12*
%TO.N,+3V3*%
X139090400Y-111048800D03*
%TO.N,BPFIN*%
X141630400Y-108508800D03*
%TO.N,BPFOUT*%
X139090400Y-108508800D03*
%TO.N,RFOUT*%
X141630400Y-105968800D03*
%TO.N,RFIN*%
X139090400Y-105968800D03*
%TO.N,RFOUT*%
X141630400Y-103428800D03*
%TO.N,MIXIN*%
X139090400Y-103428800D03*
%TO.N,P3_SDA*%
X141630400Y-100888800D03*
%TO.N,I2C_SCL*%
X139090400Y-100888800D03*
%TO.N,P5_SCL*%
X141630400Y-98348800D03*
%TO.N,I2C_SDA*%
X139090400Y-98348800D03*
%TO.N,CLK0*%
X141630400Y-95808800D03*
%TO.N,MIXCLK0*%
X139090400Y-95808800D03*
%TO.N,CLK1*%
X141630400Y-93268800D03*
%TO.N,MIXCLK90*%
X139090400Y-93268800D03*
%TO.N,CLK2*%
X141630400Y-90728800D03*
%TO.N,GND*%
X139090400Y-90728800D03*
%TO.N,MIXI+*%
X141630400Y-88188800D03*
%TO.N,I+*%
X139090400Y-88188800D03*
%TO.N,MIXI-*%
X141630400Y-85648800D03*
%TO.N,I-*%
X139090400Y-85648800D03*
%TO.N,MIXQ+*%
X141630400Y-83108800D03*
%TO.N,Q+*%
X139090400Y-83108800D03*
%TO.N,MIXQ-*%
X141630400Y-80568800D03*
%TO.N,Q-*%
X139090400Y-80568800D03*
%TO.N,Net-(J1-Pad27)*%
X141630400Y-78028800D03*
%TO.N,Net-(J1-Pad28)*%
X139090400Y-78028800D03*
%TD*%
D14*
%TO.N,*%
X151790400Y-72440800D03*
X154330400Y-72440800D03*
X141630400Y-72440800D03*
X154330400Y-64820800D03*
X149250400Y-67360800D03*
X151790400Y-69900800D03*
X144170400Y-72440800D03*
X151790400Y-64820800D03*
X159410400Y-64820800D03*
X154330400Y-69900800D03*
X156870400Y-67360800D03*
X154330400Y-67360800D03*
X144170400Y-64820800D03*
X159410400Y-72440800D03*
X146710400Y-64820800D03*
X144170400Y-69900800D03*
X149250400Y-69900800D03*
X156870400Y-69900800D03*
X156870400Y-72440800D03*
X144170400Y-67360800D03*
X159410400Y-67360800D03*
X159410400Y-69900800D03*
X161950400Y-69900800D03*
X151790400Y-67360800D03*
X141630400Y-64820800D03*
X141630400Y-67360800D03*
X161950400Y-64820800D03*
X161950400Y-67360800D03*
X139090400Y-69900800D03*
X139090400Y-64820800D03*
X146710400Y-72440800D03*
X146710400Y-69900800D03*
X146710400Y-67360800D03*
X156870400Y-64820800D03*
X139090400Y-72440800D03*
X139090400Y-67360800D03*
X141630400Y-69900800D03*
X149250400Y-64820800D03*
X149250400Y-59867800D03*
X159410400Y-59867800D03*
X139090400Y-59867800D03*
X144170400Y-62407800D03*
X149250400Y-62407800D03*
X156870400Y-62407800D03*
X141630400Y-62407800D03*
X151790400Y-59867800D03*
X161950400Y-62407800D03*
X141630400Y-59867800D03*
X146710400Y-59867800D03*
X161950400Y-59867800D03*
X156870400Y-59867800D03*
X139090400Y-62407800D03*
X159410400Y-62407800D03*
X154330400Y-62407800D03*
X151790400Y-62407800D03*
X146710400Y-62407800D03*
X144170400Y-59867800D03*
X154330400Y-59867800D03*
X149250400Y-72440800D03*
%TO.N,+3V3*%
X125285500Y-135051800D03*
D15*
X128930400Y-107238800D03*
X125450600Y-110845600D03*
X136550400Y-100888800D03*
X126390400Y-98348800D03*
X120040400Y-83743800D03*
X156006800Y-86144100D03*
X156006800Y-83604100D03*
X156006800Y-81064100D03*
X151561800Y-88049100D03*
X145211800Y-85509100D03*
%TO.N,GND*%
X160845500Y-82562700D03*
D14*
X131114800Y-135128000D03*
D15*
X126390400Y-107238800D03*
X131709709Y-104459491D03*
X130200400Y-102158800D03*
X128930400Y-99618800D03*
X131470400Y-98348800D03*
X131470400Y-88188800D03*
X125120400Y-97078800D03*
X122580400Y-98348800D03*
X120370600Y-110845600D03*
X119405400Y-85648800D03*
X120675400Y-88188800D03*
X120675400Y-90728800D03*
X120675400Y-93268800D03*
X120675400Y-95808800D03*
X127660400Y-79933800D03*
X153466800Y-79794100D03*
X151561800Y-81699100D03*
X148386800Y-79159100D03*
X148272490Y-86258410D03*
X127241300Y-114185700D03*
X146964400Y-106083100D03*
X136690100Y-118605300D03*
D14*
X115481100Y-75349100D03*
X154520900Y-135826500D03*
X159664400Y-135648700D03*
D15*
%TO.N,Q+*%
X123850400Y-79298800D03*
%TO.N,Iout*%
X135915400Y-83362800D03*
X135915400Y-72694800D03*
%TO.N,MIXIN*%
X128930400Y-88188800D03*
X135280400Y-99618800D03*
%TO.N,I2C_SDA*%
X151231600Y-83947000D03*
%TO.N,MIXI+*%
X134010400Y-91998800D03*
%TO.N,MIXQ+*%
X136550400Y-86918800D03*
%TO.N,Q-*%
X128930400Y-83108800D03*
D14*
%TO.N,LED_IN*%
X161950400Y-72440800D03*
D15*
%TO.N,BPFIN*%
X157187900Y-134645400D03*
%TD*%
D16*
%TO.N,GND*%
X128629400Y-65415800D02*
X131064000Y-67850400D01*
X131064000Y-67850400D02*
X131064000Y-74218800D01*
X117487700Y-86690200D02*
X117487700Y-85204300D01*
X117487700Y-104470200D02*
X119087900Y-104470200D01*
X141630400Y-111048800D02*
X143268700Y-111048800D01*
D17*
X116204101Y-118453799D02*
X118515501Y-118453799D01*
X114947700Y-119710200D02*
X116204101Y-118453799D01*
X116204101Y-110833799D02*
X118452001Y-110833799D01*
X114947700Y-112090200D02*
X116204101Y-110833799D01*
X114947700Y-129870200D02*
X116204101Y-131126601D01*
X116204101Y-131126601D02*
X118947301Y-131126601D01*
X116204101Y-93053799D02*
X118783999Y-93053799D01*
X114947700Y-94310200D02*
X116204101Y-93053799D01*
%TD*%
D18*
%TO.N,GND*%
X163194848Y-137541240D02*
X113488470Y-137635417D01*
X113488470Y-135226014D01*
X113519768Y-135383358D01*
X113631710Y-135653611D01*
X113794225Y-135896832D01*
X114001068Y-136103675D01*
X114244289Y-136266190D01*
X114514542Y-136378132D01*
X114801440Y-136435200D01*
X115093960Y-136435200D01*
X115380858Y-136378132D01*
X115651111Y-136266190D01*
X115894332Y-136103675D01*
X116026187Y-135971820D01*
X116048198Y-136044380D01*
X116107163Y-136154694D01*
X116186515Y-136251385D01*
X116283206Y-136330737D01*
X116393520Y-136389702D01*
X116513218Y-136426012D01*
X116637700Y-136438272D01*
X118337700Y-136438272D01*
X118462182Y-136426012D01*
X118581880Y-136389702D01*
X118692194Y-136330737D01*
X118788885Y-136251385D01*
X118868237Y-136154694D01*
X118927202Y-136044380D01*
X118963512Y-135924682D01*
X118975772Y-135800200D01*
X118975772Y-134904201D01*
X123786900Y-134904201D01*
X123786900Y-135199399D01*
X123844490Y-135488925D01*
X123957458Y-135761653D01*
X124121461Y-136007102D01*
X124330198Y-136215839D01*
X124575647Y-136379842D01*
X124848375Y-136492810D01*
X125137901Y-136550400D01*
X125433099Y-136550400D01*
X125722625Y-136492810D01*
X125995353Y-136379842D01*
X126240802Y-136215839D01*
X126449539Y-136007102D01*
X126613542Y-135761653D01*
X126726510Y-135488925D01*
X126784100Y-135199399D01*
X126784100Y-134904201D01*
X126726510Y-134614675D01*
X126704005Y-134560343D01*
X156324300Y-134560343D01*
X156324300Y-134730457D01*
X156357487Y-134897303D01*
X156422587Y-135054468D01*
X156517098Y-135195913D01*
X156637387Y-135316202D01*
X156778832Y-135410713D01*
X156935997Y-135475813D01*
X157102843Y-135509000D01*
X157272957Y-135509000D01*
X157439803Y-135475813D01*
X157596968Y-135410713D01*
X157738413Y-135316202D01*
X157858702Y-135195913D01*
X157953213Y-135054468D01*
X158018313Y-134897303D01*
X158051500Y-134730457D01*
X158051500Y-134560343D01*
X158018313Y-134393497D01*
X157953213Y-134236332D01*
X157858702Y-134094887D01*
X157738413Y-133974598D01*
X157596968Y-133880087D01*
X157439803Y-133814987D01*
X157272957Y-133781800D01*
X157102843Y-133781800D01*
X156935997Y-133814987D01*
X156778832Y-133880087D01*
X156637387Y-133974598D01*
X156517098Y-134094887D01*
X156422587Y-134236332D01*
X156357487Y-134393497D01*
X156324300Y-134560343D01*
X126704005Y-134560343D01*
X126613542Y-134341947D01*
X126449539Y-134096498D01*
X126240802Y-133887761D01*
X125995353Y-133723758D01*
X125722625Y-133610790D01*
X125433099Y-133553200D01*
X125137901Y-133553200D01*
X124848375Y-133610790D01*
X124575647Y-133723758D01*
X124330198Y-133887761D01*
X124121461Y-134096498D01*
X123957458Y-134341947D01*
X123844490Y-134614675D01*
X123786900Y-134904201D01*
X118975772Y-134904201D01*
X118975772Y-134100200D01*
X118963512Y-133975718D01*
X118927202Y-133856020D01*
X118868237Y-133745706D01*
X118788885Y-133649015D01*
X118692194Y-133569663D01*
X118581880Y-133510698D01*
X118509320Y-133488687D01*
X118641175Y-133356832D01*
X118803690Y-133113611D01*
X118915632Y-132843358D01*
X118972700Y-132556460D01*
X118972700Y-132263940D01*
X118915632Y-131977042D01*
X118803690Y-131706789D01*
X118641175Y-131463568D01*
X118434332Y-131256725D01*
X118259940Y-131140200D01*
X118434332Y-131023675D01*
X118641175Y-130816832D01*
X118803690Y-130573611D01*
X118915632Y-130303358D01*
X118972700Y-130016460D01*
X118972700Y-129723940D01*
X118915632Y-129437042D01*
X118803690Y-129166789D01*
X118641175Y-128923568D01*
X118434332Y-128716725D01*
X118259940Y-128600200D01*
X118434332Y-128483675D01*
X118641175Y-128276832D01*
X118803690Y-128033611D01*
X118915632Y-127763358D01*
X118972700Y-127476460D01*
X118972700Y-127183940D01*
X118915632Y-126897042D01*
X118803690Y-126626789D01*
X118641175Y-126383568D01*
X118434332Y-126176725D01*
X118324147Y-126103101D01*
X139242800Y-126103101D01*
X139242800Y-126398299D01*
X139300390Y-126687825D01*
X139413358Y-126960553D01*
X139577361Y-127206002D01*
X139786098Y-127414739D01*
X140031547Y-127578742D01*
X140304275Y-127691710D01*
X140593801Y-127749300D01*
X140888999Y-127749300D01*
X141178525Y-127691710D01*
X141451253Y-127578742D01*
X141696702Y-127414739D01*
X141905439Y-127206002D01*
X142069442Y-126960553D01*
X142182410Y-126687825D01*
X142240000Y-126398299D01*
X142240000Y-126103101D01*
X143814800Y-126103101D01*
X143814800Y-126398299D01*
X143872390Y-126687825D01*
X143985358Y-126960553D01*
X144149361Y-127206002D01*
X144358098Y-127414739D01*
X144603547Y-127578742D01*
X144876275Y-127691710D01*
X145165801Y-127749300D01*
X145460999Y-127749300D01*
X145750525Y-127691710D01*
X146023253Y-127578742D01*
X146268702Y-127414739D01*
X146477439Y-127206002D01*
X146641442Y-126960553D01*
X146754410Y-126687825D01*
X146812000Y-126398299D01*
X146812000Y-126103101D01*
X146754410Y-125813575D01*
X146641442Y-125540847D01*
X146477439Y-125295398D01*
X146268702Y-125086661D01*
X146023253Y-124922658D01*
X145750525Y-124809690D01*
X145460999Y-124752100D01*
X145165801Y-124752100D01*
X144876275Y-124809690D01*
X144603547Y-124922658D01*
X144358098Y-125086661D01*
X144149361Y-125295398D01*
X143985358Y-125540847D01*
X143872390Y-125813575D01*
X143814800Y-126103101D01*
X142240000Y-126103101D01*
X142182410Y-125813575D01*
X142069442Y-125540847D01*
X141905439Y-125295398D01*
X141696702Y-125086661D01*
X141451253Y-124922658D01*
X141178525Y-124809690D01*
X140888999Y-124752100D01*
X140593801Y-124752100D01*
X140304275Y-124809690D01*
X140031547Y-124922658D01*
X139786098Y-125086661D01*
X139577361Y-125295398D01*
X139413358Y-125540847D01*
X139300390Y-125813575D01*
X139242800Y-126103101D01*
X118324147Y-126103101D01*
X118252166Y-126055005D01*
X118369055Y-125985378D01*
X118585288Y-125790469D01*
X118759341Y-125557120D01*
X118884525Y-125294299D01*
X118929176Y-125147090D01*
X118807855Y-124917200D01*
X117614700Y-124917200D01*
X117614700Y-124937200D01*
X117360700Y-124937200D01*
X117360700Y-124917200D01*
X117340700Y-124917200D01*
X117340700Y-124663200D01*
X117360700Y-124663200D01*
X117360700Y-124643200D01*
X117614700Y-124643200D01*
X117614700Y-124663200D01*
X118807855Y-124663200D01*
X118929176Y-124433310D01*
X118884525Y-124286101D01*
X118759341Y-124023280D01*
X118585288Y-123789931D01*
X118369055Y-123595022D01*
X118252166Y-123525395D01*
X118434332Y-123403675D01*
X118641175Y-123196832D01*
X118803690Y-122953611D01*
X118915632Y-122683358D01*
X118972700Y-122396460D01*
X118972700Y-122103940D01*
X118915632Y-121817042D01*
X118803690Y-121546789D01*
X118641175Y-121303568D01*
X118434332Y-121096725D01*
X118259940Y-120980200D01*
X118434332Y-120863675D01*
X118641175Y-120656832D01*
X118803690Y-120413611D01*
X118915632Y-120143358D01*
X118972700Y-119856460D01*
X118972700Y-119854701D01*
X149733000Y-119854701D01*
X149733000Y-120149899D01*
X149790590Y-120439425D01*
X149903558Y-120712153D01*
X150067561Y-120957602D01*
X150276298Y-121166339D01*
X150521747Y-121330342D01*
X150794475Y-121443310D01*
X151084001Y-121500900D01*
X151379199Y-121500900D01*
X151668725Y-121443310D01*
X151941453Y-121330342D01*
X152186902Y-121166339D01*
X152395639Y-120957602D01*
X152559642Y-120712153D01*
X152672610Y-120439425D01*
X152730200Y-120149899D01*
X152730200Y-119854701D01*
X152672610Y-119565175D01*
X152559642Y-119292447D01*
X152395639Y-119046998D01*
X152186902Y-118838261D01*
X151941453Y-118674258D01*
X151668725Y-118561290D01*
X151379199Y-118503700D01*
X151084001Y-118503700D01*
X150794475Y-118561290D01*
X150521747Y-118674258D01*
X150276298Y-118838261D01*
X150067561Y-119046998D01*
X149903558Y-119292447D01*
X149790590Y-119565175D01*
X149733000Y-119854701D01*
X118972700Y-119854701D01*
X118972700Y-119563940D01*
X118915632Y-119277042D01*
X118803690Y-119006789D01*
X118641175Y-118763568D01*
X118434332Y-118556725D01*
X118259940Y-118440200D01*
X118434332Y-118323675D01*
X118641175Y-118116832D01*
X118803690Y-117873611D01*
X118915632Y-117603358D01*
X118972700Y-117316460D01*
X118972700Y-117023940D01*
X118915632Y-116737042D01*
X118803690Y-116466789D01*
X118641175Y-116223568D01*
X118434332Y-116016725D01*
X118259940Y-115900200D01*
X118434332Y-115783675D01*
X118641175Y-115576832D01*
X118803690Y-115333611D01*
X118824777Y-115282701D01*
X149733000Y-115282701D01*
X149733000Y-115577899D01*
X149790590Y-115867425D01*
X149903558Y-116140153D01*
X150067561Y-116385602D01*
X150276298Y-116594339D01*
X150521747Y-116758342D01*
X150794475Y-116871310D01*
X151084001Y-116928900D01*
X151379199Y-116928900D01*
X151668725Y-116871310D01*
X151941453Y-116758342D01*
X152186902Y-116594339D01*
X152395639Y-116385602D01*
X152559642Y-116140153D01*
X152672610Y-115867425D01*
X152730200Y-115577899D01*
X152730200Y-115282701D01*
X152672610Y-114993175D01*
X152559642Y-114720447D01*
X152395639Y-114474998D01*
X152186902Y-114266261D01*
X151941453Y-114102258D01*
X151668725Y-113989290D01*
X151379199Y-113931700D01*
X151084001Y-113931700D01*
X150794475Y-113989290D01*
X150521747Y-114102258D01*
X150276298Y-114266261D01*
X150067561Y-114474998D01*
X149903558Y-114720447D01*
X149790590Y-114993175D01*
X149733000Y-115282701D01*
X118824777Y-115282701D01*
X118915632Y-115063358D01*
X118972700Y-114776460D01*
X118972700Y-114483940D01*
X118915632Y-114197042D01*
X118803690Y-113926789D01*
X118641175Y-113683568D01*
X118434332Y-113476725D01*
X118259940Y-113360200D01*
X118434332Y-113243675D01*
X118641175Y-113036832D01*
X118803690Y-112793611D01*
X118915632Y-112523358D01*
X118972700Y-112236460D01*
X118972700Y-111943940D01*
X118915632Y-111657042D01*
X118803690Y-111386789D01*
X118641175Y-111143568D01*
X118434332Y-110936725D01*
X118259940Y-110820200D01*
X118349223Y-110760543D01*
X124587000Y-110760543D01*
X124587000Y-110930657D01*
X124620187Y-111097503D01*
X124685287Y-111254668D01*
X124779798Y-111396113D01*
X124900087Y-111516402D01*
X125041532Y-111610913D01*
X125198697Y-111676013D01*
X125365543Y-111709200D01*
X125535657Y-111709200D01*
X125702503Y-111676013D01*
X125859668Y-111610913D01*
X126001113Y-111516402D01*
X126121402Y-111396113D01*
X126215913Y-111254668D01*
X126281013Y-111097503D01*
X126314200Y-110930657D01*
X126314200Y-110760543D01*
X126281013Y-110593697D01*
X126215913Y-110436532D01*
X126121402Y-110295087D01*
X126001113Y-110174798D01*
X125859668Y-110080287D01*
X125702503Y-110015187D01*
X125535657Y-109982000D01*
X125365543Y-109982000D01*
X125198697Y-110015187D01*
X125041532Y-110080287D01*
X124900087Y-110174798D01*
X124779798Y-110295087D01*
X124685287Y-110436532D01*
X124620187Y-110593697D01*
X124587000Y-110760543D01*
X118349223Y-110760543D01*
X118434332Y-110703675D01*
X118641175Y-110496832D01*
X118803690Y-110253611D01*
X118915632Y-109983358D01*
X118972700Y-109696460D01*
X118972700Y-109403940D01*
X118915632Y-109117042D01*
X118803690Y-108846789D01*
X118641175Y-108603568D01*
X118434332Y-108396725D01*
X118259940Y-108280200D01*
X118434332Y-108163675D01*
X118641175Y-107956832D01*
X118803690Y-107713611D01*
X118915632Y-107443358D01*
X118972700Y-107156460D01*
X118972700Y-107153743D01*
X128066800Y-107153743D01*
X128066800Y-107323857D01*
X128099987Y-107490703D01*
X128165087Y-107647868D01*
X128259598Y-107789313D01*
X128379887Y-107909602D01*
X128521332Y-108004113D01*
X128678497Y-108069213D01*
X128845343Y-108102400D01*
X129015457Y-108102400D01*
X129182303Y-108069213D01*
X129339468Y-108004113D01*
X129480913Y-107909602D01*
X129601202Y-107789313D01*
X129695713Y-107647868D01*
X129760813Y-107490703D01*
X129794000Y-107323857D01*
X129794000Y-107153743D01*
X129760813Y-106986897D01*
X129695713Y-106829732D01*
X129601202Y-106688287D01*
X129480913Y-106567998D01*
X129339468Y-106473487D01*
X129182303Y-106408387D01*
X129015457Y-106375200D01*
X128845343Y-106375200D01*
X128678497Y-106408387D01*
X128521332Y-106473487D01*
X128379887Y-106567998D01*
X128259598Y-106688287D01*
X128165087Y-106829732D01*
X128099987Y-106986897D01*
X128066800Y-107153743D01*
X118972700Y-107153743D01*
X118972700Y-106863940D01*
X118915632Y-106577042D01*
X118803690Y-106306789D01*
X118641175Y-106063568D01*
X118434332Y-105856725D01*
X118252166Y-105735005D01*
X118369055Y-105665378D01*
X118585288Y-105470469D01*
X118759341Y-105237120D01*
X118884525Y-104974299D01*
X118929176Y-104827090D01*
X118807855Y-104597200D01*
X117614700Y-104597200D01*
X117614700Y-104617200D01*
X117360700Y-104617200D01*
X117360700Y-104597200D01*
X117340700Y-104597200D01*
X117340700Y-104343200D01*
X117360700Y-104343200D01*
X117360700Y-104323200D01*
X117614700Y-104323200D01*
X117614700Y-104343200D01*
X118807855Y-104343200D01*
X118929176Y-104113310D01*
X118884525Y-103966101D01*
X118759341Y-103703280D01*
X118585288Y-103469931D01*
X118369055Y-103275022D01*
X118252166Y-103205395D01*
X118434332Y-103083675D01*
X118641175Y-102876832D01*
X118803690Y-102633611D01*
X118915632Y-102363358D01*
X118972700Y-102076460D01*
X118972700Y-101783940D01*
X118915632Y-101497042D01*
X118803690Y-101226789D01*
X118641175Y-100983568D01*
X118461350Y-100803743D01*
X135686800Y-100803743D01*
X135686800Y-100973857D01*
X135719987Y-101140703D01*
X135785087Y-101297868D01*
X135879598Y-101439313D01*
X135999887Y-101559602D01*
X136141332Y-101654113D01*
X136298497Y-101719213D01*
X136465343Y-101752400D01*
X136635457Y-101752400D01*
X136802303Y-101719213D01*
X136959468Y-101654113D01*
X137100913Y-101559602D01*
X137221202Y-101439313D01*
X137315713Y-101297868D01*
X137380813Y-101140703D01*
X137414000Y-100973857D01*
X137414000Y-100803743D01*
X137380813Y-100636897D01*
X137315713Y-100479732D01*
X137221202Y-100338287D01*
X137100913Y-100217998D01*
X136959468Y-100123487D01*
X136802303Y-100058387D01*
X136635457Y-100025200D01*
X136465343Y-100025200D01*
X136298497Y-100058387D01*
X136141332Y-100123487D01*
X135999887Y-100217998D01*
X135879598Y-100338287D01*
X135785087Y-100479732D01*
X135719987Y-100636897D01*
X135686800Y-100803743D01*
X118461350Y-100803743D01*
X118434332Y-100776725D01*
X118259940Y-100660200D01*
X118434332Y-100543675D01*
X118641175Y-100336832D01*
X118803690Y-100093611D01*
X118915632Y-99823358D01*
X118972700Y-99536460D01*
X118972700Y-99533743D01*
X134416800Y-99533743D01*
X134416800Y-99703857D01*
X134449987Y-99870703D01*
X134515087Y-100027868D01*
X134609598Y-100169313D01*
X134729887Y-100289602D01*
X134871332Y-100384113D01*
X135028497Y-100449213D01*
X135195343Y-100482400D01*
X135365457Y-100482400D01*
X135532303Y-100449213D01*
X135689468Y-100384113D01*
X135830913Y-100289602D01*
X135951202Y-100169313D01*
X136045713Y-100027868D01*
X136110813Y-99870703D01*
X136144000Y-99703857D01*
X136144000Y-99533743D01*
X136110813Y-99366897D01*
X136045713Y-99209732D01*
X135951202Y-99068287D01*
X135830913Y-98947998D01*
X135689468Y-98853487D01*
X135532303Y-98788387D01*
X135365457Y-98755200D01*
X135195343Y-98755200D01*
X135028497Y-98788387D01*
X134871332Y-98853487D01*
X134729887Y-98947998D01*
X134609598Y-99068287D01*
X134515087Y-99209732D01*
X134449987Y-99366897D01*
X134416800Y-99533743D01*
X118972700Y-99533743D01*
X118972700Y-99243940D01*
X118915632Y-98957042D01*
X118803690Y-98686789D01*
X118641175Y-98443568D01*
X118461350Y-98263743D01*
X125526800Y-98263743D01*
X125526800Y-98433857D01*
X125559987Y-98600703D01*
X125625087Y-98757868D01*
X125719598Y-98899313D01*
X125839887Y-99019602D01*
X125981332Y-99114113D01*
X126138497Y-99179213D01*
X126305343Y-99212400D01*
X126475457Y-99212400D01*
X126642303Y-99179213D01*
X126799468Y-99114113D01*
X126940913Y-99019602D01*
X127061202Y-98899313D01*
X127155713Y-98757868D01*
X127220813Y-98600703D01*
X127254000Y-98433857D01*
X127254000Y-98263743D01*
X127220813Y-98096897D01*
X127155713Y-97939732D01*
X127061202Y-97798287D01*
X126940913Y-97677998D01*
X126799468Y-97583487D01*
X126642303Y-97518387D01*
X126475457Y-97485200D01*
X126305343Y-97485200D01*
X126138497Y-97518387D01*
X125981332Y-97583487D01*
X125839887Y-97677998D01*
X125719598Y-97798287D01*
X125625087Y-97939732D01*
X125559987Y-98096897D01*
X125526800Y-98263743D01*
X118461350Y-98263743D01*
X118434332Y-98236725D01*
X118259940Y-98120200D01*
X118434332Y-98003675D01*
X118641175Y-97796832D01*
X118803690Y-97553611D01*
X118915632Y-97283358D01*
X118972700Y-96996460D01*
X118972700Y-96703940D01*
X118915632Y-96417042D01*
X118803690Y-96146789D01*
X118641175Y-95903568D01*
X118434332Y-95696725D01*
X118259940Y-95580200D01*
X118434332Y-95463675D01*
X118641175Y-95256832D01*
X118803690Y-95013611D01*
X118915632Y-94743358D01*
X118972700Y-94456460D01*
X118972700Y-94163940D01*
X118915632Y-93877042D01*
X118803690Y-93606789D01*
X118641175Y-93363568D01*
X118434332Y-93156725D01*
X118259940Y-93040200D01*
X118434332Y-92923675D01*
X118641175Y-92716832D01*
X118803690Y-92473611D01*
X118915632Y-92203358D01*
X118972700Y-91916460D01*
X118972700Y-91913743D01*
X133146800Y-91913743D01*
X133146800Y-92083857D01*
X133179987Y-92250703D01*
X133245087Y-92407868D01*
X133339598Y-92549313D01*
X133459887Y-92669602D01*
X133601332Y-92764113D01*
X133758497Y-92829213D01*
X133925343Y-92862400D01*
X134095457Y-92862400D01*
X134262303Y-92829213D01*
X134419468Y-92764113D01*
X134560913Y-92669602D01*
X134681202Y-92549313D01*
X134775713Y-92407868D01*
X134840813Y-92250703D01*
X134874000Y-92083857D01*
X134874000Y-91913743D01*
X134840813Y-91746897D01*
X134775713Y-91589732D01*
X134681202Y-91448287D01*
X134560913Y-91327998D01*
X134419468Y-91233487D01*
X134262303Y-91168387D01*
X134095457Y-91135200D01*
X133925343Y-91135200D01*
X133758497Y-91168387D01*
X133601332Y-91233487D01*
X133459887Y-91327998D01*
X133339598Y-91448287D01*
X133245087Y-91589732D01*
X133179987Y-91746897D01*
X133146800Y-91913743D01*
X118972700Y-91913743D01*
X118972700Y-91623940D01*
X118915632Y-91337042D01*
X118803690Y-91066789D01*
X118641175Y-90823568D01*
X118434332Y-90616725D01*
X118259940Y-90500200D01*
X118434332Y-90383675D01*
X118641175Y-90176832D01*
X118803690Y-89933611D01*
X118915632Y-89663358D01*
X118972700Y-89376460D01*
X118972700Y-89083940D01*
X118915632Y-88797042D01*
X118803690Y-88526789D01*
X118641175Y-88283568D01*
X118461350Y-88103743D01*
X128066800Y-88103743D01*
X128066800Y-88273857D01*
X128099987Y-88440703D01*
X128165087Y-88597868D01*
X128259598Y-88739313D01*
X128379887Y-88859602D01*
X128521332Y-88954113D01*
X128678497Y-89019213D01*
X128845343Y-89052400D01*
X129015457Y-89052400D01*
X129182303Y-89019213D01*
X129339468Y-88954113D01*
X129480913Y-88859602D01*
X129601202Y-88739313D01*
X129695713Y-88597868D01*
X129760813Y-88440703D01*
X129794000Y-88273857D01*
X129794000Y-88103743D01*
X129760813Y-87936897D01*
X129695713Y-87779732D01*
X129601202Y-87638287D01*
X129480913Y-87517998D01*
X129339468Y-87423487D01*
X129182303Y-87358387D01*
X129015457Y-87325200D01*
X128845343Y-87325200D01*
X128678497Y-87358387D01*
X128521332Y-87423487D01*
X128379887Y-87517998D01*
X128259598Y-87638287D01*
X128165087Y-87779732D01*
X128099987Y-87936897D01*
X128066800Y-88103743D01*
X118461350Y-88103743D01*
X118434332Y-88076725D01*
X118252166Y-87955005D01*
X118369055Y-87885378D01*
X118585288Y-87690469D01*
X118759341Y-87457120D01*
X118884525Y-87194299D01*
X118929176Y-87047090D01*
X118816586Y-86833743D01*
X135686800Y-86833743D01*
X135686800Y-87003857D01*
X135719987Y-87170703D01*
X135785087Y-87327868D01*
X135879598Y-87469313D01*
X135999887Y-87589602D01*
X136141332Y-87684113D01*
X136298497Y-87749213D01*
X136465343Y-87782400D01*
X136635457Y-87782400D01*
X136802303Y-87749213D01*
X136959468Y-87684113D01*
X137100913Y-87589602D01*
X137221202Y-87469313D01*
X137315713Y-87327868D01*
X137380813Y-87170703D01*
X137414000Y-87003857D01*
X137414000Y-86833743D01*
X137380813Y-86666897D01*
X137315713Y-86509732D01*
X137221202Y-86368287D01*
X137100913Y-86247998D01*
X136959468Y-86153487D01*
X136802303Y-86088387D01*
X136635457Y-86055200D01*
X136465343Y-86055200D01*
X136298497Y-86088387D01*
X136141332Y-86153487D01*
X135999887Y-86247998D01*
X135879598Y-86368287D01*
X135785087Y-86509732D01*
X135719987Y-86666897D01*
X135686800Y-86833743D01*
X118816586Y-86833743D01*
X118807855Y-86817200D01*
X117614700Y-86817200D01*
X117614700Y-86837200D01*
X117360700Y-86837200D01*
X117360700Y-86817200D01*
X117340700Y-86817200D01*
X117340700Y-86563200D01*
X117360700Y-86563200D01*
X117360700Y-85369386D01*
X117614700Y-85369386D01*
X117614700Y-86563200D01*
X118807855Y-86563200D01*
X118929176Y-86333310D01*
X118884525Y-86186101D01*
X118759341Y-85923280D01*
X118585288Y-85689931D01*
X118369055Y-85495022D01*
X118118952Y-85346043D01*
X117844591Y-85248719D01*
X117614700Y-85369386D01*
X117360700Y-85369386D01*
X117130809Y-85248719D01*
X116856448Y-85346043D01*
X116606345Y-85495022D01*
X116390112Y-85689931D01*
X116218800Y-85919606D01*
X116101175Y-85743568D01*
X115894332Y-85536725D01*
X115651111Y-85374210D01*
X115380858Y-85262268D01*
X115093960Y-85205200D01*
X114801440Y-85205200D01*
X114514542Y-85262268D01*
X114244289Y-85374210D01*
X114001068Y-85536725D01*
X113794225Y-85743568D01*
X113631710Y-85986789D01*
X113519768Y-86257042D01*
X113488470Y-86414386D01*
X113488470Y-81634932D01*
X114195000Y-81634932D01*
X114195000Y-82030868D01*
X114272243Y-82419196D01*
X114423761Y-82784992D01*
X114643731Y-83114201D01*
X114923699Y-83394169D01*
X115252908Y-83614139D01*
X115618704Y-83765657D01*
X116007032Y-83842900D01*
X116402968Y-83842900D01*
X116791296Y-83765657D01*
X117049408Y-83658743D01*
X119176800Y-83658743D01*
X119176800Y-83828857D01*
X119209987Y-83995703D01*
X119275087Y-84152868D01*
X119369598Y-84294313D01*
X119489887Y-84414602D01*
X119631332Y-84509113D01*
X119788497Y-84574213D01*
X119955343Y-84607400D01*
X120125457Y-84607400D01*
X120292303Y-84574213D01*
X120449468Y-84509113D01*
X120590913Y-84414602D01*
X120711202Y-84294313D01*
X120805713Y-84152868D01*
X120870813Y-83995703D01*
X120904000Y-83828857D01*
X120904000Y-83658743D01*
X120870813Y-83491897D01*
X120805713Y-83334732D01*
X120711202Y-83193287D01*
X120590913Y-83072998D01*
X120517199Y-83023743D01*
X128066800Y-83023743D01*
X128066800Y-83193857D01*
X128099987Y-83360703D01*
X128165087Y-83517868D01*
X128259598Y-83659313D01*
X128379887Y-83779602D01*
X128521332Y-83874113D01*
X128678497Y-83939213D01*
X128845343Y-83972400D01*
X129015457Y-83972400D01*
X129182303Y-83939213D01*
X129339468Y-83874113D01*
X129480913Y-83779602D01*
X129601202Y-83659313D01*
X129695713Y-83517868D01*
X129760813Y-83360703D01*
X129777314Y-83277743D01*
X135051800Y-83277743D01*
X135051800Y-83447857D01*
X135084987Y-83614703D01*
X135150087Y-83771868D01*
X135244598Y-83913313D01*
X135364887Y-84033602D01*
X135506332Y-84128113D01*
X135663497Y-84193213D01*
X135830343Y-84226400D01*
X136000457Y-84226400D01*
X136167303Y-84193213D01*
X136324468Y-84128113D01*
X136465913Y-84033602D01*
X136586202Y-83913313D01*
X136680713Y-83771868D01*
X136745813Y-83614703D01*
X136779000Y-83447857D01*
X136779000Y-83277743D01*
X136745813Y-83110897D01*
X136680713Y-82953732D01*
X136586202Y-82812287D01*
X136465913Y-82691998D01*
X136324468Y-82597487D01*
X136167303Y-82532387D01*
X136000457Y-82499200D01*
X135830343Y-82499200D01*
X135663497Y-82532387D01*
X135506332Y-82597487D01*
X135364887Y-82691998D01*
X135244598Y-82812287D01*
X135150087Y-82953732D01*
X135084987Y-83110897D01*
X135051800Y-83277743D01*
X129777314Y-83277743D01*
X129794000Y-83193857D01*
X129794000Y-83023743D01*
X129760813Y-82856897D01*
X129695713Y-82699732D01*
X129601202Y-82558287D01*
X129480913Y-82437998D01*
X129339468Y-82343487D01*
X129182303Y-82278387D01*
X129015457Y-82245200D01*
X128845343Y-82245200D01*
X128678497Y-82278387D01*
X128521332Y-82343487D01*
X128379887Y-82437998D01*
X128259598Y-82558287D01*
X128165087Y-82699732D01*
X128099987Y-82856897D01*
X128066800Y-83023743D01*
X120517199Y-83023743D01*
X120449468Y-82978487D01*
X120292303Y-82913387D01*
X120125457Y-82880200D01*
X119955343Y-82880200D01*
X119788497Y-82913387D01*
X119631332Y-82978487D01*
X119489887Y-83072998D01*
X119369598Y-83193287D01*
X119275087Y-83334732D01*
X119209987Y-83491897D01*
X119176800Y-83658743D01*
X117049408Y-83658743D01*
X117157092Y-83614139D01*
X117486301Y-83394169D01*
X117766269Y-83114201D01*
X117986239Y-82784992D01*
X118137757Y-82419196D01*
X118215000Y-82030868D01*
X118215000Y-81634932D01*
X118137757Y-81246604D01*
X117986239Y-80880808D01*
X117766269Y-80551599D01*
X117486301Y-80271631D01*
X117157092Y-80051661D01*
X116791296Y-79900143D01*
X116402968Y-79822900D01*
X116007032Y-79822900D01*
X115618704Y-79900143D01*
X115252908Y-80051661D01*
X114923699Y-80271631D01*
X114643731Y-80551599D01*
X114423761Y-80880808D01*
X114272243Y-81246604D01*
X114195000Y-81634932D01*
X113488470Y-81634932D01*
X113488470Y-79213743D01*
X122986800Y-79213743D01*
X122986800Y-79383857D01*
X123019987Y-79550703D01*
X123085087Y-79707868D01*
X123179598Y-79849313D01*
X123299887Y-79969602D01*
X123441332Y-80064113D01*
X123598497Y-80129213D01*
X123765343Y-80162400D01*
X123935457Y-80162400D01*
X124102303Y-80129213D01*
X124259468Y-80064113D01*
X124400913Y-79969602D01*
X124521202Y-79849313D01*
X124615713Y-79707868D01*
X124680813Y-79550703D01*
X124714000Y-79383857D01*
X124714000Y-79213743D01*
X124680813Y-79046897D01*
X124615713Y-78889732D01*
X124521202Y-78748287D01*
X124400913Y-78627998D01*
X124259468Y-78533487D01*
X124102303Y-78468387D01*
X123935457Y-78435200D01*
X123765343Y-78435200D01*
X123598497Y-78468387D01*
X123441332Y-78533487D01*
X123299887Y-78627998D01*
X123179598Y-78748287D01*
X123085087Y-78889732D01*
X123019987Y-79046897D01*
X122986800Y-79213743D01*
X113488470Y-79213743D01*
X113488470Y-77882540D01*
X137605400Y-77882540D01*
X137605400Y-78175060D01*
X137662468Y-78461958D01*
X137774410Y-78732211D01*
X137936925Y-78975432D01*
X138143768Y-79182275D01*
X138318160Y-79298800D01*
X138143768Y-79415325D01*
X137936925Y-79622168D01*
X137774410Y-79865389D01*
X137662468Y-80135642D01*
X137605400Y-80422540D01*
X137605400Y-80715060D01*
X137662468Y-81001958D01*
X137774410Y-81272211D01*
X137936925Y-81515432D01*
X138143768Y-81722275D01*
X138318160Y-81838800D01*
X138143768Y-81955325D01*
X137936925Y-82162168D01*
X137774410Y-82405389D01*
X137662468Y-82675642D01*
X137605400Y-82962540D01*
X137605400Y-83255060D01*
X137662468Y-83541958D01*
X137774410Y-83812211D01*
X137936925Y-84055432D01*
X138143768Y-84262275D01*
X138318160Y-84378800D01*
X138143768Y-84495325D01*
X137936925Y-84702168D01*
X137774410Y-84945389D01*
X137662468Y-85215642D01*
X137605400Y-85502540D01*
X137605400Y-85795060D01*
X137662468Y-86081958D01*
X137774410Y-86352211D01*
X137936925Y-86595432D01*
X138143768Y-86802275D01*
X138318160Y-86918800D01*
X138143768Y-87035325D01*
X137936925Y-87242168D01*
X137774410Y-87485389D01*
X137662468Y-87755642D01*
X137605400Y-88042540D01*
X137605400Y-88335060D01*
X137662468Y-88621958D01*
X137774410Y-88892211D01*
X137936925Y-89135432D01*
X138143768Y-89342275D01*
X138325934Y-89463995D01*
X138209045Y-89533622D01*
X137992812Y-89728531D01*
X137818759Y-89961880D01*
X137693575Y-90224701D01*
X137648924Y-90371910D01*
X137770245Y-90601800D01*
X138963400Y-90601800D01*
X138963400Y-90581800D01*
X139217400Y-90581800D01*
X139217400Y-90601800D01*
X139237400Y-90601800D01*
X139237400Y-90855800D01*
X139217400Y-90855800D01*
X139217400Y-90875800D01*
X138963400Y-90875800D01*
X138963400Y-90855800D01*
X137770245Y-90855800D01*
X137648924Y-91085690D01*
X137693575Y-91232899D01*
X137818759Y-91495720D01*
X137992812Y-91729069D01*
X138209045Y-91923978D01*
X138325934Y-91993605D01*
X138143768Y-92115325D01*
X137936925Y-92322168D01*
X137774410Y-92565389D01*
X137662468Y-92835642D01*
X137605400Y-93122540D01*
X137605400Y-93415060D01*
X137662468Y-93701958D01*
X137774410Y-93972211D01*
X137936925Y-94215432D01*
X138143768Y-94422275D01*
X138318160Y-94538800D01*
X138143768Y-94655325D01*
X137936925Y-94862168D01*
X137774410Y-95105389D01*
X137662468Y-95375642D01*
X137605400Y-95662540D01*
X137605400Y-95955060D01*
X137662468Y-96241958D01*
X137774410Y-96512211D01*
X137936925Y-96755432D01*
X138143768Y-96962275D01*
X138318160Y-97078800D01*
X138143768Y-97195325D01*
X137936925Y-97402168D01*
X137774410Y-97645389D01*
X137662468Y-97915642D01*
X137605400Y-98202540D01*
X137605400Y-98495060D01*
X137662468Y-98781958D01*
X137774410Y-99052211D01*
X137936925Y-99295432D01*
X138143768Y-99502275D01*
X138318160Y-99618800D01*
X138143768Y-99735325D01*
X137936925Y-99942168D01*
X137774410Y-100185389D01*
X137662468Y-100455642D01*
X137605400Y-100742540D01*
X137605400Y-101035060D01*
X137662468Y-101321958D01*
X137774410Y-101592211D01*
X137936925Y-101835432D01*
X138143768Y-102042275D01*
X138318160Y-102158800D01*
X138143768Y-102275325D01*
X137936925Y-102482168D01*
X137774410Y-102725389D01*
X137662468Y-102995642D01*
X137605400Y-103282540D01*
X137605400Y-103575060D01*
X137662468Y-103861958D01*
X137774410Y-104132211D01*
X137936925Y-104375432D01*
X138143768Y-104582275D01*
X138318160Y-104698800D01*
X138143768Y-104815325D01*
X137936925Y-105022168D01*
X137774410Y-105265389D01*
X137662468Y-105535642D01*
X137605400Y-105822540D01*
X137605400Y-106115060D01*
X137662468Y-106401958D01*
X137774410Y-106672211D01*
X137936925Y-106915432D01*
X138143768Y-107122275D01*
X138318160Y-107238800D01*
X138143768Y-107355325D01*
X137936925Y-107562168D01*
X137774410Y-107805389D01*
X137662468Y-108075642D01*
X137605400Y-108362540D01*
X137605400Y-108655060D01*
X137662468Y-108941958D01*
X137774410Y-109212211D01*
X137936925Y-109455432D01*
X138143768Y-109662275D01*
X138318160Y-109778800D01*
X138143768Y-109895325D01*
X137936925Y-110102168D01*
X137774410Y-110345389D01*
X137662468Y-110615642D01*
X137605400Y-110902540D01*
X137605400Y-111195060D01*
X137662468Y-111481958D01*
X137774410Y-111752211D01*
X137936925Y-111995432D01*
X138143768Y-112202275D01*
X138386989Y-112364790D01*
X138657242Y-112476732D01*
X138944140Y-112533800D01*
X139236660Y-112533800D01*
X139523558Y-112476732D01*
X139793811Y-112364790D01*
X140037032Y-112202275D01*
X140168887Y-112070420D01*
X140190898Y-112142980D01*
X140249863Y-112253294D01*
X140329215Y-112349985D01*
X140425906Y-112429337D01*
X140536220Y-112488302D01*
X140655918Y-112524612D01*
X140780400Y-112536872D01*
X141344650Y-112533800D01*
X141503400Y-112375050D01*
X141503400Y-111175800D01*
X141757400Y-111175800D01*
X141757400Y-112375050D01*
X141916150Y-112533800D01*
X142480400Y-112536872D01*
X142604882Y-112524612D01*
X142724580Y-112488302D01*
X142834894Y-112429337D01*
X142931585Y-112349985D01*
X143010937Y-112253294D01*
X143069902Y-112142980D01*
X143106212Y-112023282D01*
X143118472Y-111898800D01*
X143115400Y-111334550D01*
X142956650Y-111175800D01*
X141757400Y-111175800D01*
X141503400Y-111175800D01*
X141483400Y-111175800D01*
X141483400Y-110921800D01*
X141503400Y-110921800D01*
X141503400Y-110901800D01*
X141757400Y-110901800D01*
X141757400Y-110921800D01*
X142956650Y-110921800D01*
X143115400Y-110763050D01*
X143118472Y-110198800D01*
X143106212Y-110074318D01*
X143069902Y-109954620D01*
X143010937Y-109844306D01*
X142931585Y-109747615D01*
X142834894Y-109668263D01*
X142724580Y-109609298D01*
X142652020Y-109587287D01*
X142783875Y-109455432D01*
X142946390Y-109212211D01*
X143058332Y-108941958D01*
X143115400Y-108655060D01*
X143115400Y-108362540D01*
X143058332Y-108075642D01*
X142946390Y-107805389D01*
X142783875Y-107562168D01*
X142577032Y-107355325D01*
X142402640Y-107238800D01*
X142577032Y-107122275D01*
X142783875Y-106915432D01*
X142946390Y-106672211D01*
X143058332Y-106401958D01*
X143115400Y-106115060D01*
X143115400Y-105822540D01*
X143058332Y-105535642D01*
X142946390Y-105265389D01*
X142783875Y-105022168D01*
X142577032Y-104815325D01*
X142402640Y-104698800D01*
X142577032Y-104582275D01*
X142783875Y-104375432D01*
X142946390Y-104132211D01*
X143058332Y-103861958D01*
X143115400Y-103575060D01*
X143115400Y-103282540D01*
X143058332Y-102995642D01*
X142946390Y-102725389D01*
X142783875Y-102482168D01*
X142577032Y-102275325D01*
X142402640Y-102158800D01*
X142577032Y-102042275D01*
X142783875Y-101835432D01*
X142946390Y-101592211D01*
X142956956Y-101566701D01*
X150342600Y-101566701D01*
X150342600Y-101861899D01*
X150400190Y-102151425D01*
X150513158Y-102424153D01*
X150677161Y-102669602D01*
X150885898Y-102878339D01*
X151131347Y-103042342D01*
X151404075Y-103155310D01*
X151693601Y-103212900D01*
X151988799Y-103212900D01*
X152278325Y-103155310D01*
X152551053Y-103042342D01*
X152796502Y-102878339D01*
X153005239Y-102669602D01*
X153169242Y-102424153D01*
X153282210Y-102151425D01*
X153339800Y-101861899D01*
X153339800Y-101566701D01*
X153282210Y-101277175D01*
X153169242Y-101004447D01*
X153005239Y-100758998D01*
X152796502Y-100550261D01*
X152551053Y-100386258D01*
X152278325Y-100273290D01*
X151988799Y-100215700D01*
X151693601Y-100215700D01*
X151404075Y-100273290D01*
X151131347Y-100386258D01*
X150885898Y-100550261D01*
X150677161Y-100758998D01*
X150513158Y-101004447D01*
X150400190Y-101277175D01*
X150342600Y-101566701D01*
X142956956Y-101566701D01*
X143058332Y-101321958D01*
X143115400Y-101035060D01*
X143115400Y-100742540D01*
X143058332Y-100455642D01*
X142946390Y-100185389D01*
X142783875Y-99942168D01*
X142577032Y-99735325D01*
X142402640Y-99618800D01*
X142577032Y-99502275D01*
X142783875Y-99295432D01*
X142946390Y-99052211D01*
X143058332Y-98781958D01*
X143115400Y-98495060D01*
X143115400Y-98202540D01*
X143058332Y-97915642D01*
X142946390Y-97645389D01*
X142783875Y-97402168D01*
X142577032Y-97195325D01*
X142402640Y-97078800D01*
X142528503Y-96994701D01*
X150342600Y-96994701D01*
X150342600Y-97289899D01*
X150400190Y-97579425D01*
X150513158Y-97852153D01*
X150677161Y-98097602D01*
X150885898Y-98306339D01*
X151131347Y-98470342D01*
X151404075Y-98583310D01*
X151693601Y-98640900D01*
X151988799Y-98640900D01*
X152278325Y-98583310D01*
X152551053Y-98470342D01*
X152796502Y-98306339D01*
X153005239Y-98097602D01*
X153169242Y-97852153D01*
X153282210Y-97579425D01*
X153339800Y-97289899D01*
X153339800Y-96994701D01*
X153282210Y-96705175D01*
X153169242Y-96432447D01*
X153005239Y-96186998D01*
X152796502Y-95978261D01*
X152551053Y-95814258D01*
X152278325Y-95701290D01*
X151988799Y-95643700D01*
X151693601Y-95643700D01*
X151404075Y-95701290D01*
X151131347Y-95814258D01*
X150885898Y-95978261D01*
X150677161Y-96186998D01*
X150513158Y-96432447D01*
X150400190Y-96705175D01*
X150342600Y-96994701D01*
X142528503Y-96994701D01*
X142577032Y-96962275D01*
X142783875Y-96755432D01*
X142946390Y-96512211D01*
X143058332Y-96241958D01*
X143115400Y-95955060D01*
X143115400Y-95662540D01*
X143058332Y-95375642D01*
X142946390Y-95105389D01*
X142783875Y-94862168D01*
X142577032Y-94655325D01*
X142402640Y-94538800D01*
X142577032Y-94422275D01*
X142783875Y-94215432D01*
X142946390Y-93972211D01*
X143058332Y-93701958D01*
X143115400Y-93415060D01*
X143115400Y-93122540D01*
X143058332Y-92835642D01*
X142946390Y-92565389D01*
X142783875Y-92322168D01*
X142577032Y-92115325D01*
X142402640Y-91998800D01*
X142577032Y-91882275D01*
X142783875Y-91675432D01*
X142946390Y-91432211D01*
X143058332Y-91161958D01*
X143115400Y-90875060D01*
X143115400Y-90582540D01*
X143058332Y-90295642D01*
X142946390Y-90025389D01*
X142783875Y-89782168D01*
X142577032Y-89575325D01*
X142402640Y-89458800D01*
X142577032Y-89342275D01*
X142783875Y-89135432D01*
X142946390Y-88892211D01*
X143058332Y-88621958D01*
X143115400Y-88335060D01*
X143115400Y-88042540D01*
X143099786Y-87964043D01*
X150698200Y-87964043D01*
X150698200Y-88134157D01*
X150731387Y-88301003D01*
X150796487Y-88458168D01*
X150890998Y-88599613D01*
X151011287Y-88719902D01*
X151152732Y-88814413D01*
X151309897Y-88879513D01*
X151476743Y-88912700D01*
X151646857Y-88912700D01*
X151813703Y-88879513D01*
X151970868Y-88814413D01*
X152112313Y-88719902D01*
X152232602Y-88599613D01*
X152327113Y-88458168D01*
X152392213Y-88301003D01*
X152425400Y-88134157D01*
X152425400Y-87964043D01*
X152392213Y-87797197D01*
X152327113Y-87640032D01*
X152232602Y-87498587D01*
X152112313Y-87378298D01*
X151970868Y-87283787D01*
X151813703Y-87218687D01*
X151646857Y-87185500D01*
X151476743Y-87185500D01*
X151309897Y-87218687D01*
X151152732Y-87283787D01*
X151011287Y-87378298D01*
X150890998Y-87498587D01*
X150796487Y-87640032D01*
X150731387Y-87797197D01*
X150698200Y-87964043D01*
X143099786Y-87964043D01*
X143058332Y-87755642D01*
X142946390Y-87485389D01*
X142783875Y-87242168D01*
X142577032Y-87035325D01*
X142402640Y-86918800D01*
X142577032Y-86802275D01*
X142783875Y-86595432D01*
X142946390Y-86352211D01*
X143058332Y-86081958D01*
X143115400Y-85795060D01*
X143115400Y-85502540D01*
X143099786Y-85424043D01*
X144348200Y-85424043D01*
X144348200Y-85594157D01*
X144381387Y-85761003D01*
X144446487Y-85918168D01*
X144540998Y-86059613D01*
X144661287Y-86179902D01*
X144802732Y-86274413D01*
X144959897Y-86339513D01*
X145126743Y-86372700D01*
X145296857Y-86372700D01*
X145463703Y-86339513D01*
X145620868Y-86274413D01*
X145762313Y-86179902D01*
X145882602Y-86059613D01*
X145882982Y-86059043D01*
X155143200Y-86059043D01*
X155143200Y-86229157D01*
X155176387Y-86396003D01*
X155241487Y-86553168D01*
X155335998Y-86694613D01*
X155456287Y-86814902D01*
X155597732Y-86909413D01*
X155754897Y-86974513D01*
X155921743Y-87007700D01*
X156091857Y-87007700D01*
X156258703Y-86974513D01*
X156415868Y-86909413D01*
X156557313Y-86814902D01*
X156677602Y-86694613D01*
X156772113Y-86553168D01*
X156837213Y-86396003D01*
X156870400Y-86229157D01*
X156870400Y-86059043D01*
X156837213Y-85892197D01*
X156772113Y-85735032D01*
X156677602Y-85593587D01*
X156557313Y-85473298D01*
X156415868Y-85378787D01*
X156258703Y-85313687D01*
X156091857Y-85280500D01*
X155921743Y-85280500D01*
X155754897Y-85313687D01*
X155597732Y-85378787D01*
X155456287Y-85473298D01*
X155335998Y-85593587D01*
X155241487Y-85735032D01*
X155176387Y-85892197D01*
X155143200Y-86059043D01*
X145882982Y-86059043D01*
X145977113Y-85918168D01*
X146042213Y-85761003D01*
X146075400Y-85594157D01*
X146075400Y-85424043D01*
X146042213Y-85257197D01*
X145977113Y-85100032D01*
X145882602Y-84958587D01*
X145762313Y-84838298D01*
X145620868Y-84743787D01*
X145463703Y-84678687D01*
X145296857Y-84645500D01*
X145126743Y-84645500D01*
X144959897Y-84678687D01*
X144802732Y-84743787D01*
X144661287Y-84838298D01*
X144540998Y-84958587D01*
X144446487Y-85100032D01*
X144381387Y-85257197D01*
X144348200Y-85424043D01*
X143099786Y-85424043D01*
X143058332Y-85215642D01*
X142946390Y-84945389D01*
X142783875Y-84702168D01*
X142577032Y-84495325D01*
X142402640Y-84378800D01*
X142577032Y-84262275D01*
X142783875Y-84055432D01*
X142913160Y-83861943D01*
X150368000Y-83861943D01*
X150368000Y-84032057D01*
X150401187Y-84198903D01*
X150466287Y-84356068D01*
X150560798Y-84497513D01*
X150681087Y-84617802D01*
X150822532Y-84712313D01*
X150979697Y-84777413D01*
X151146543Y-84810600D01*
X151316657Y-84810600D01*
X151483503Y-84777413D01*
X151640668Y-84712313D01*
X151782113Y-84617802D01*
X151902402Y-84497513D01*
X151996913Y-84356068D01*
X152062013Y-84198903D01*
X152095200Y-84032057D01*
X152095200Y-83861943D01*
X152062013Y-83695097D01*
X151996913Y-83537932D01*
X151984292Y-83519043D01*
X155143200Y-83519043D01*
X155143200Y-83689157D01*
X155176387Y-83856003D01*
X155241487Y-84013168D01*
X155335998Y-84154613D01*
X155456287Y-84274902D01*
X155597732Y-84369413D01*
X155754897Y-84434513D01*
X155921743Y-84467700D01*
X156091857Y-84467700D01*
X156258703Y-84434513D01*
X156415868Y-84369413D01*
X156557313Y-84274902D01*
X156677602Y-84154613D01*
X156772113Y-84013168D01*
X156837213Y-83856003D01*
X156870400Y-83689157D01*
X156870400Y-83519043D01*
X156837213Y-83352197D01*
X156772113Y-83195032D01*
X156677602Y-83053587D01*
X156557313Y-82933298D01*
X156415868Y-82838787D01*
X156258703Y-82773687D01*
X156091857Y-82740500D01*
X155921743Y-82740500D01*
X155754897Y-82773687D01*
X155597732Y-82838787D01*
X155456287Y-82933298D01*
X155335998Y-83053587D01*
X155241487Y-83195032D01*
X155176387Y-83352197D01*
X155143200Y-83519043D01*
X151984292Y-83519043D01*
X151902402Y-83396487D01*
X151782113Y-83276198D01*
X151640668Y-83181687D01*
X151483503Y-83116587D01*
X151316657Y-83083400D01*
X151146543Y-83083400D01*
X150979697Y-83116587D01*
X150822532Y-83181687D01*
X150681087Y-83276198D01*
X150560798Y-83396487D01*
X150466287Y-83537932D01*
X150401187Y-83695097D01*
X150368000Y-83861943D01*
X142913160Y-83861943D01*
X142946390Y-83812211D01*
X143058332Y-83541958D01*
X143115400Y-83255060D01*
X143115400Y-82962540D01*
X143058332Y-82675642D01*
X142946390Y-82405389D01*
X142783875Y-82162168D01*
X142577032Y-81955325D01*
X142402640Y-81838800D01*
X142577032Y-81722275D01*
X142783875Y-81515432D01*
X142946390Y-81272211D01*
X143058332Y-81001958D01*
X143062890Y-80979043D01*
X155143200Y-80979043D01*
X155143200Y-81149157D01*
X155176387Y-81316003D01*
X155241487Y-81473168D01*
X155335998Y-81614613D01*
X155456287Y-81734902D01*
X155597732Y-81829413D01*
X155754897Y-81894513D01*
X155921743Y-81927700D01*
X156091857Y-81927700D01*
X156258703Y-81894513D01*
X156415868Y-81829413D01*
X156557313Y-81734902D01*
X156677602Y-81614613D01*
X156772113Y-81473168D01*
X156837213Y-81316003D01*
X156870400Y-81149157D01*
X156870400Y-80979043D01*
X156837213Y-80812197D01*
X156772113Y-80655032D01*
X156677602Y-80513587D01*
X156557313Y-80393298D01*
X156415868Y-80298787D01*
X156258703Y-80233687D01*
X156091857Y-80200500D01*
X155921743Y-80200500D01*
X155754897Y-80233687D01*
X155597732Y-80298787D01*
X155456287Y-80393298D01*
X155335998Y-80513587D01*
X155241487Y-80655032D01*
X155176387Y-80812197D01*
X155143200Y-80979043D01*
X143062890Y-80979043D01*
X143115400Y-80715060D01*
X143115400Y-80422540D01*
X143058332Y-80135642D01*
X142946390Y-79865389D01*
X142783875Y-79622168D01*
X142577032Y-79415325D01*
X142402640Y-79298800D01*
X142577032Y-79182275D01*
X142783875Y-78975432D01*
X142946390Y-78732211D01*
X143058332Y-78461958D01*
X143115400Y-78175060D01*
X143115400Y-77882540D01*
X143058332Y-77595642D01*
X142946390Y-77325389D01*
X142783875Y-77082168D01*
X142577032Y-76875325D01*
X142333811Y-76712810D01*
X142063558Y-76600868D01*
X141776660Y-76543800D01*
X141484140Y-76543800D01*
X141197242Y-76600868D01*
X140926989Y-76712810D01*
X140683768Y-76875325D01*
X140476925Y-77082168D01*
X140360400Y-77256560D01*
X140243875Y-77082168D01*
X140037032Y-76875325D01*
X139793811Y-76712810D01*
X139523558Y-76600868D01*
X139236660Y-76543800D01*
X138944140Y-76543800D01*
X138657242Y-76600868D01*
X138386989Y-76712810D01*
X138143768Y-76875325D01*
X137936925Y-77082168D01*
X137774410Y-77325389D01*
X137662468Y-77595642D01*
X137605400Y-77882540D01*
X113488470Y-77882540D01*
X113488470Y-74180088D01*
X163118952Y-74066690D01*
X163194848Y-137541240D01*
%TA.AperFunction,Conductor*%
D19*
G36*
X163194848Y-137541240D02*
G01*
X113488470Y-137635417D01*
X113488470Y-135226014D01*
X113519768Y-135383358D01*
X113631710Y-135653611D01*
X113794225Y-135896832D01*
X114001068Y-136103675D01*
X114244289Y-136266190D01*
X114514542Y-136378132D01*
X114801440Y-136435200D01*
X115093960Y-136435200D01*
X115380858Y-136378132D01*
X115651111Y-136266190D01*
X115894332Y-136103675D01*
X116026187Y-135971820D01*
X116048198Y-136044380D01*
X116107163Y-136154694D01*
X116186515Y-136251385D01*
X116283206Y-136330737D01*
X116393520Y-136389702D01*
X116513218Y-136426012D01*
X116637700Y-136438272D01*
X118337700Y-136438272D01*
X118462182Y-136426012D01*
X118581880Y-136389702D01*
X118692194Y-136330737D01*
X118788885Y-136251385D01*
X118868237Y-136154694D01*
X118927202Y-136044380D01*
X118963512Y-135924682D01*
X118975772Y-135800200D01*
X118975772Y-134904201D01*
X123786900Y-134904201D01*
X123786900Y-135199399D01*
X123844490Y-135488925D01*
X123957458Y-135761653D01*
X124121461Y-136007102D01*
X124330198Y-136215839D01*
X124575647Y-136379842D01*
X124848375Y-136492810D01*
X125137901Y-136550400D01*
X125433099Y-136550400D01*
X125722625Y-136492810D01*
X125995353Y-136379842D01*
X126240802Y-136215839D01*
X126449539Y-136007102D01*
X126613542Y-135761653D01*
X126726510Y-135488925D01*
X126784100Y-135199399D01*
X126784100Y-134904201D01*
X126726510Y-134614675D01*
X126704005Y-134560343D01*
X156324300Y-134560343D01*
X156324300Y-134730457D01*
X156357487Y-134897303D01*
X156422587Y-135054468D01*
X156517098Y-135195913D01*
X156637387Y-135316202D01*
X156778832Y-135410713D01*
X156935997Y-135475813D01*
X157102843Y-135509000D01*
X157272957Y-135509000D01*
X157439803Y-135475813D01*
X157596968Y-135410713D01*
X157738413Y-135316202D01*
X157858702Y-135195913D01*
X157953213Y-135054468D01*
X158018313Y-134897303D01*
X158051500Y-134730457D01*
X158051500Y-134560343D01*
X158018313Y-134393497D01*
X157953213Y-134236332D01*
X157858702Y-134094887D01*
X157738413Y-133974598D01*
X157596968Y-133880087D01*
X157439803Y-133814987D01*
X157272957Y-133781800D01*
X157102843Y-133781800D01*
X156935997Y-133814987D01*
X156778832Y-133880087D01*
X156637387Y-133974598D01*
X156517098Y-134094887D01*
X156422587Y-134236332D01*
X156357487Y-134393497D01*
X156324300Y-134560343D01*
X126704005Y-134560343D01*
X126613542Y-134341947D01*
X126449539Y-134096498D01*
X126240802Y-133887761D01*
X125995353Y-133723758D01*
X125722625Y-133610790D01*
X125433099Y-133553200D01*
X125137901Y-133553200D01*
X124848375Y-133610790D01*
X124575647Y-133723758D01*
X124330198Y-133887761D01*
X124121461Y-134096498D01*
X123957458Y-134341947D01*
X123844490Y-134614675D01*
X123786900Y-134904201D01*
X118975772Y-134904201D01*
X118975772Y-134100200D01*
X118963512Y-133975718D01*
X118927202Y-133856020D01*
X118868237Y-133745706D01*
X118788885Y-133649015D01*
X118692194Y-133569663D01*
X118581880Y-133510698D01*
X118509320Y-133488687D01*
X118641175Y-133356832D01*
X118803690Y-133113611D01*
X118915632Y-132843358D01*
X118972700Y-132556460D01*
X118972700Y-132263940D01*
X118915632Y-131977042D01*
X118803690Y-131706789D01*
X118641175Y-131463568D01*
X118434332Y-131256725D01*
X118259940Y-131140200D01*
X118434332Y-131023675D01*
X118641175Y-130816832D01*
X118803690Y-130573611D01*
X118915632Y-130303358D01*
X118972700Y-130016460D01*
X118972700Y-129723940D01*
X118915632Y-129437042D01*
X118803690Y-129166789D01*
X118641175Y-128923568D01*
X118434332Y-128716725D01*
X118259940Y-128600200D01*
X118434332Y-128483675D01*
X118641175Y-128276832D01*
X118803690Y-128033611D01*
X118915632Y-127763358D01*
X118972700Y-127476460D01*
X118972700Y-127183940D01*
X118915632Y-126897042D01*
X118803690Y-126626789D01*
X118641175Y-126383568D01*
X118434332Y-126176725D01*
X118324147Y-126103101D01*
X139242800Y-126103101D01*
X139242800Y-126398299D01*
X139300390Y-126687825D01*
X139413358Y-126960553D01*
X139577361Y-127206002D01*
X139786098Y-127414739D01*
X140031547Y-127578742D01*
X140304275Y-127691710D01*
X140593801Y-127749300D01*
X140888999Y-127749300D01*
X141178525Y-127691710D01*
X141451253Y-127578742D01*
X141696702Y-127414739D01*
X141905439Y-127206002D01*
X142069442Y-126960553D01*
X142182410Y-126687825D01*
X142240000Y-126398299D01*
X142240000Y-126103101D01*
X143814800Y-126103101D01*
X143814800Y-126398299D01*
X143872390Y-126687825D01*
X143985358Y-126960553D01*
X144149361Y-127206002D01*
X144358098Y-127414739D01*
X144603547Y-127578742D01*
X144876275Y-127691710D01*
X145165801Y-127749300D01*
X145460999Y-127749300D01*
X145750525Y-127691710D01*
X146023253Y-127578742D01*
X146268702Y-127414739D01*
X146477439Y-127206002D01*
X146641442Y-126960553D01*
X146754410Y-126687825D01*
X146812000Y-126398299D01*
X146812000Y-126103101D01*
X146754410Y-125813575D01*
X146641442Y-125540847D01*
X146477439Y-125295398D01*
X146268702Y-125086661D01*
X146023253Y-124922658D01*
X145750525Y-124809690D01*
X145460999Y-124752100D01*
X145165801Y-124752100D01*
X144876275Y-124809690D01*
X144603547Y-124922658D01*
X144358098Y-125086661D01*
X144149361Y-125295398D01*
X143985358Y-125540847D01*
X143872390Y-125813575D01*
X143814800Y-126103101D01*
X142240000Y-126103101D01*
X142182410Y-125813575D01*
X142069442Y-125540847D01*
X141905439Y-125295398D01*
X141696702Y-125086661D01*
X141451253Y-124922658D01*
X141178525Y-124809690D01*
X140888999Y-124752100D01*
X140593801Y-124752100D01*
X140304275Y-124809690D01*
X140031547Y-124922658D01*
X139786098Y-125086661D01*
X139577361Y-125295398D01*
X139413358Y-125540847D01*
X139300390Y-125813575D01*
X139242800Y-126103101D01*
X118324147Y-126103101D01*
X118252166Y-126055005D01*
X118369055Y-125985378D01*
X118585288Y-125790469D01*
X118759341Y-125557120D01*
X118884525Y-125294299D01*
X118929176Y-125147090D01*
X118807855Y-124917200D01*
X117614700Y-124917200D01*
X117614700Y-124937200D01*
X117360700Y-124937200D01*
X117360700Y-124917200D01*
X117340700Y-124917200D01*
X117340700Y-124663200D01*
X117360700Y-124663200D01*
X117360700Y-124643200D01*
X117614700Y-124643200D01*
X117614700Y-124663200D01*
X118807855Y-124663200D01*
X118929176Y-124433310D01*
X118884525Y-124286101D01*
X118759341Y-124023280D01*
X118585288Y-123789931D01*
X118369055Y-123595022D01*
X118252166Y-123525395D01*
X118434332Y-123403675D01*
X118641175Y-123196832D01*
X118803690Y-122953611D01*
X118915632Y-122683358D01*
X118972700Y-122396460D01*
X118972700Y-122103940D01*
X118915632Y-121817042D01*
X118803690Y-121546789D01*
X118641175Y-121303568D01*
X118434332Y-121096725D01*
X118259940Y-120980200D01*
X118434332Y-120863675D01*
X118641175Y-120656832D01*
X118803690Y-120413611D01*
X118915632Y-120143358D01*
X118972700Y-119856460D01*
X118972700Y-119854701D01*
X149733000Y-119854701D01*
X149733000Y-120149899D01*
X149790590Y-120439425D01*
X149903558Y-120712153D01*
X150067561Y-120957602D01*
X150276298Y-121166339D01*
X150521747Y-121330342D01*
X150794475Y-121443310D01*
X151084001Y-121500900D01*
X151379199Y-121500900D01*
X151668725Y-121443310D01*
X151941453Y-121330342D01*
X152186902Y-121166339D01*
X152395639Y-120957602D01*
X152559642Y-120712153D01*
X152672610Y-120439425D01*
X152730200Y-120149899D01*
X152730200Y-119854701D01*
X152672610Y-119565175D01*
X152559642Y-119292447D01*
X152395639Y-119046998D01*
X152186902Y-118838261D01*
X151941453Y-118674258D01*
X151668725Y-118561290D01*
X151379199Y-118503700D01*
X151084001Y-118503700D01*
X150794475Y-118561290D01*
X150521747Y-118674258D01*
X150276298Y-118838261D01*
X150067561Y-119046998D01*
X149903558Y-119292447D01*
X149790590Y-119565175D01*
X149733000Y-119854701D01*
X118972700Y-119854701D01*
X118972700Y-119563940D01*
X118915632Y-119277042D01*
X118803690Y-119006789D01*
X118641175Y-118763568D01*
X118434332Y-118556725D01*
X118259940Y-118440200D01*
X118434332Y-118323675D01*
X118641175Y-118116832D01*
X118803690Y-117873611D01*
X118915632Y-117603358D01*
X118972700Y-117316460D01*
X118972700Y-117023940D01*
X118915632Y-116737042D01*
X118803690Y-116466789D01*
X118641175Y-116223568D01*
X118434332Y-116016725D01*
X118259940Y-115900200D01*
X118434332Y-115783675D01*
X118641175Y-115576832D01*
X118803690Y-115333611D01*
X118824777Y-115282701D01*
X149733000Y-115282701D01*
X149733000Y-115577899D01*
X149790590Y-115867425D01*
X149903558Y-116140153D01*
X150067561Y-116385602D01*
X150276298Y-116594339D01*
X150521747Y-116758342D01*
X150794475Y-116871310D01*
X151084001Y-116928900D01*
X151379199Y-116928900D01*
X151668725Y-116871310D01*
X151941453Y-116758342D01*
X152186902Y-116594339D01*
X152395639Y-116385602D01*
X152559642Y-116140153D01*
X152672610Y-115867425D01*
X152730200Y-115577899D01*
X152730200Y-115282701D01*
X152672610Y-114993175D01*
X152559642Y-114720447D01*
X152395639Y-114474998D01*
X152186902Y-114266261D01*
X151941453Y-114102258D01*
X151668725Y-113989290D01*
X151379199Y-113931700D01*
X151084001Y-113931700D01*
X150794475Y-113989290D01*
X150521747Y-114102258D01*
X150276298Y-114266261D01*
X150067561Y-114474998D01*
X149903558Y-114720447D01*
X149790590Y-114993175D01*
X149733000Y-115282701D01*
X118824777Y-115282701D01*
X118915632Y-115063358D01*
X118972700Y-114776460D01*
X118972700Y-114483940D01*
X118915632Y-114197042D01*
X118803690Y-113926789D01*
X118641175Y-113683568D01*
X118434332Y-113476725D01*
X118259940Y-113360200D01*
X118434332Y-113243675D01*
X118641175Y-113036832D01*
X118803690Y-112793611D01*
X118915632Y-112523358D01*
X118972700Y-112236460D01*
X118972700Y-111943940D01*
X118915632Y-111657042D01*
X118803690Y-111386789D01*
X118641175Y-111143568D01*
X118434332Y-110936725D01*
X118259940Y-110820200D01*
X118349223Y-110760543D01*
X124587000Y-110760543D01*
X124587000Y-110930657D01*
X124620187Y-111097503D01*
X124685287Y-111254668D01*
X124779798Y-111396113D01*
X124900087Y-111516402D01*
X125041532Y-111610913D01*
X125198697Y-111676013D01*
X125365543Y-111709200D01*
X125535657Y-111709200D01*
X125702503Y-111676013D01*
X125859668Y-111610913D01*
X126001113Y-111516402D01*
X126121402Y-111396113D01*
X126215913Y-111254668D01*
X126281013Y-111097503D01*
X126314200Y-110930657D01*
X126314200Y-110760543D01*
X126281013Y-110593697D01*
X126215913Y-110436532D01*
X126121402Y-110295087D01*
X126001113Y-110174798D01*
X125859668Y-110080287D01*
X125702503Y-110015187D01*
X125535657Y-109982000D01*
X125365543Y-109982000D01*
X125198697Y-110015187D01*
X125041532Y-110080287D01*
X124900087Y-110174798D01*
X124779798Y-110295087D01*
X124685287Y-110436532D01*
X124620187Y-110593697D01*
X124587000Y-110760543D01*
X118349223Y-110760543D01*
X118434332Y-110703675D01*
X118641175Y-110496832D01*
X118803690Y-110253611D01*
X118915632Y-109983358D01*
X118972700Y-109696460D01*
X118972700Y-109403940D01*
X118915632Y-109117042D01*
X118803690Y-108846789D01*
X118641175Y-108603568D01*
X118434332Y-108396725D01*
X118259940Y-108280200D01*
X118434332Y-108163675D01*
X118641175Y-107956832D01*
X118803690Y-107713611D01*
X118915632Y-107443358D01*
X118972700Y-107156460D01*
X118972700Y-107153743D01*
X128066800Y-107153743D01*
X128066800Y-107323857D01*
X128099987Y-107490703D01*
X128165087Y-107647868D01*
X128259598Y-107789313D01*
X128379887Y-107909602D01*
X128521332Y-108004113D01*
X128678497Y-108069213D01*
X128845343Y-108102400D01*
X129015457Y-108102400D01*
X129182303Y-108069213D01*
X129339468Y-108004113D01*
X129480913Y-107909602D01*
X129601202Y-107789313D01*
X129695713Y-107647868D01*
X129760813Y-107490703D01*
X129794000Y-107323857D01*
X129794000Y-107153743D01*
X129760813Y-106986897D01*
X129695713Y-106829732D01*
X129601202Y-106688287D01*
X129480913Y-106567998D01*
X129339468Y-106473487D01*
X129182303Y-106408387D01*
X129015457Y-106375200D01*
X128845343Y-106375200D01*
X128678497Y-106408387D01*
X128521332Y-106473487D01*
X128379887Y-106567998D01*
X128259598Y-106688287D01*
X128165087Y-106829732D01*
X128099987Y-106986897D01*
X128066800Y-107153743D01*
X118972700Y-107153743D01*
X118972700Y-106863940D01*
X118915632Y-106577042D01*
X118803690Y-106306789D01*
X118641175Y-106063568D01*
X118434332Y-105856725D01*
X118252166Y-105735005D01*
X118369055Y-105665378D01*
X118585288Y-105470469D01*
X118759341Y-105237120D01*
X118884525Y-104974299D01*
X118929176Y-104827090D01*
X118807855Y-104597200D01*
X117614700Y-104597200D01*
X117614700Y-104617200D01*
X117360700Y-104617200D01*
X117360700Y-104597200D01*
X117340700Y-104597200D01*
X117340700Y-104343200D01*
X117360700Y-104343200D01*
X117360700Y-104323200D01*
X117614700Y-104323200D01*
X117614700Y-104343200D01*
X118807855Y-104343200D01*
X118929176Y-104113310D01*
X118884525Y-103966101D01*
X118759341Y-103703280D01*
X118585288Y-103469931D01*
X118369055Y-103275022D01*
X118252166Y-103205395D01*
X118434332Y-103083675D01*
X118641175Y-102876832D01*
X118803690Y-102633611D01*
X118915632Y-102363358D01*
X118972700Y-102076460D01*
X118972700Y-101783940D01*
X118915632Y-101497042D01*
X118803690Y-101226789D01*
X118641175Y-100983568D01*
X118461350Y-100803743D01*
X135686800Y-100803743D01*
X135686800Y-100973857D01*
X135719987Y-101140703D01*
X135785087Y-101297868D01*
X135879598Y-101439313D01*
X135999887Y-101559602D01*
X136141332Y-101654113D01*
X136298497Y-101719213D01*
X136465343Y-101752400D01*
X136635457Y-101752400D01*
X136802303Y-101719213D01*
X136959468Y-101654113D01*
X137100913Y-101559602D01*
X137221202Y-101439313D01*
X137315713Y-101297868D01*
X137380813Y-101140703D01*
X137414000Y-100973857D01*
X137414000Y-100803743D01*
X137380813Y-100636897D01*
X137315713Y-100479732D01*
X137221202Y-100338287D01*
X137100913Y-100217998D01*
X136959468Y-100123487D01*
X136802303Y-100058387D01*
X136635457Y-100025200D01*
X136465343Y-100025200D01*
X136298497Y-100058387D01*
X136141332Y-100123487D01*
X135999887Y-100217998D01*
X135879598Y-100338287D01*
X135785087Y-100479732D01*
X135719987Y-100636897D01*
X135686800Y-100803743D01*
X118461350Y-100803743D01*
X118434332Y-100776725D01*
X118259940Y-100660200D01*
X118434332Y-100543675D01*
X118641175Y-100336832D01*
X118803690Y-100093611D01*
X118915632Y-99823358D01*
X118972700Y-99536460D01*
X118972700Y-99533743D01*
X134416800Y-99533743D01*
X134416800Y-99703857D01*
X134449987Y-99870703D01*
X134515087Y-100027868D01*
X134609598Y-100169313D01*
X134729887Y-100289602D01*
X134871332Y-100384113D01*
X135028497Y-100449213D01*
X135195343Y-100482400D01*
X135365457Y-100482400D01*
X135532303Y-100449213D01*
X135689468Y-100384113D01*
X135830913Y-100289602D01*
X135951202Y-100169313D01*
X136045713Y-100027868D01*
X136110813Y-99870703D01*
X136144000Y-99703857D01*
X136144000Y-99533743D01*
X136110813Y-99366897D01*
X136045713Y-99209732D01*
X135951202Y-99068287D01*
X135830913Y-98947998D01*
X135689468Y-98853487D01*
X135532303Y-98788387D01*
X135365457Y-98755200D01*
X135195343Y-98755200D01*
X135028497Y-98788387D01*
X134871332Y-98853487D01*
X134729887Y-98947998D01*
X134609598Y-99068287D01*
X134515087Y-99209732D01*
X134449987Y-99366897D01*
X134416800Y-99533743D01*
X118972700Y-99533743D01*
X118972700Y-99243940D01*
X118915632Y-98957042D01*
X118803690Y-98686789D01*
X118641175Y-98443568D01*
X118461350Y-98263743D01*
X125526800Y-98263743D01*
X125526800Y-98433857D01*
X125559987Y-98600703D01*
X125625087Y-98757868D01*
X125719598Y-98899313D01*
X125839887Y-99019602D01*
X125981332Y-99114113D01*
X126138497Y-99179213D01*
X126305343Y-99212400D01*
X126475457Y-99212400D01*
X126642303Y-99179213D01*
X126799468Y-99114113D01*
X126940913Y-99019602D01*
X127061202Y-98899313D01*
X127155713Y-98757868D01*
X127220813Y-98600703D01*
X127254000Y-98433857D01*
X127254000Y-98263743D01*
X127220813Y-98096897D01*
X127155713Y-97939732D01*
X127061202Y-97798287D01*
X126940913Y-97677998D01*
X126799468Y-97583487D01*
X126642303Y-97518387D01*
X126475457Y-97485200D01*
X126305343Y-97485200D01*
X126138497Y-97518387D01*
X125981332Y-97583487D01*
X125839887Y-97677998D01*
X125719598Y-97798287D01*
X125625087Y-97939732D01*
X125559987Y-98096897D01*
X125526800Y-98263743D01*
X118461350Y-98263743D01*
X118434332Y-98236725D01*
X118259940Y-98120200D01*
X118434332Y-98003675D01*
X118641175Y-97796832D01*
X118803690Y-97553611D01*
X118915632Y-97283358D01*
X118972700Y-96996460D01*
X118972700Y-96703940D01*
X118915632Y-96417042D01*
X118803690Y-96146789D01*
X118641175Y-95903568D01*
X118434332Y-95696725D01*
X118259940Y-95580200D01*
X118434332Y-95463675D01*
X118641175Y-95256832D01*
X118803690Y-95013611D01*
X118915632Y-94743358D01*
X118972700Y-94456460D01*
X118972700Y-94163940D01*
X118915632Y-93877042D01*
X118803690Y-93606789D01*
X118641175Y-93363568D01*
X118434332Y-93156725D01*
X118259940Y-93040200D01*
X118434332Y-92923675D01*
X118641175Y-92716832D01*
X118803690Y-92473611D01*
X118915632Y-92203358D01*
X118972700Y-91916460D01*
X118972700Y-91913743D01*
X133146800Y-91913743D01*
X133146800Y-92083857D01*
X133179987Y-92250703D01*
X133245087Y-92407868D01*
X133339598Y-92549313D01*
X133459887Y-92669602D01*
X133601332Y-92764113D01*
X133758497Y-92829213D01*
X133925343Y-92862400D01*
X134095457Y-92862400D01*
X134262303Y-92829213D01*
X134419468Y-92764113D01*
X134560913Y-92669602D01*
X134681202Y-92549313D01*
X134775713Y-92407868D01*
X134840813Y-92250703D01*
X134874000Y-92083857D01*
X134874000Y-91913743D01*
X134840813Y-91746897D01*
X134775713Y-91589732D01*
X134681202Y-91448287D01*
X134560913Y-91327998D01*
X134419468Y-91233487D01*
X134262303Y-91168387D01*
X134095457Y-91135200D01*
X133925343Y-91135200D01*
X133758497Y-91168387D01*
X133601332Y-91233487D01*
X133459887Y-91327998D01*
X133339598Y-91448287D01*
X133245087Y-91589732D01*
X133179987Y-91746897D01*
X133146800Y-91913743D01*
X118972700Y-91913743D01*
X118972700Y-91623940D01*
X118915632Y-91337042D01*
X118803690Y-91066789D01*
X118641175Y-90823568D01*
X118434332Y-90616725D01*
X118259940Y-90500200D01*
X118434332Y-90383675D01*
X118641175Y-90176832D01*
X118803690Y-89933611D01*
X118915632Y-89663358D01*
X118972700Y-89376460D01*
X118972700Y-89083940D01*
X118915632Y-88797042D01*
X118803690Y-88526789D01*
X118641175Y-88283568D01*
X118461350Y-88103743D01*
X128066800Y-88103743D01*
X128066800Y-88273857D01*
X128099987Y-88440703D01*
X128165087Y-88597868D01*
X128259598Y-88739313D01*
X128379887Y-88859602D01*
X128521332Y-88954113D01*
X128678497Y-89019213D01*
X128845343Y-89052400D01*
X129015457Y-89052400D01*
X129182303Y-89019213D01*
X129339468Y-88954113D01*
X129480913Y-88859602D01*
X129601202Y-88739313D01*
X129695713Y-88597868D01*
X129760813Y-88440703D01*
X129794000Y-88273857D01*
X129794000Y-88103743D01*
X129760813Y-87936897D01*
X129695713Y-87779732D01*
X129601202Y-87638287D01*
X129480913Y-87517998D01*
X129339468Y-87423487D01*
X129182303Y-87358387D01*
X129015457Y-87325200D01*
X128845343Y-87325200D01*
X128678497Y-87358387D01*
X128521332Y-87423487D01*
X128379887Y-87517998D01*
X128259598Y-87638287D01*
X128165087Y-87779732D01*
X128099987Y-87936897D01*
X128066800Y-88103743D01*
X118461350Y-88103743D01*
X118434332Y-88076725D01*
X118252166Y-87955005D01*
X118369055Y-87885378D01*
X118585288Y-87690469D01*
X118759341Y-87457120D01*
X118884525Y-87194299D01*
X118929176Y-87047090D01*
X118816586Y-86833743D01*
X135686800Y-86833743D01*
X135686800Y-87003857D01*
X135719987Y-87170703D01*
X135785087Y-87327868D01*
X135879598Y-87469313D01*
X135999887Y-87589602D01*
X136141332Y-87684113D01*
X136298497Y-87749213D01*
X136465343Y-87782400D01*
X136635457Y-87782400D01*
X136802303Y-87749213D01*
X136959468Y-87684113D01*
X137100913Y-87589602D01*
X137221202Y-87469313D01*
X137315713Y-87327868D01*
X137380813Y-87170703D01*
X137414000Y-87003857D01*
X137414000Y-86833743D01*
X137380813Y-86666897D01*
X137315713Y-86509732D01*
X137221202Y-86368287D01*
X137100913Y-86247998D01*
X136959468Y-86153487D01*
X136802303Y-86088387D01*
X136635457Y-86055200D01*
X136465343Y-86055200D01*
X136298497Y-86088387D01*
X136141332Y-86153487D01*
X135999887Y-86247998D01*
X135879598Y-86368287D01*
X135785087Y-86509732D01*
X135719987Y-86666897D01*
X135686800Y-86833743D01*
X118816586Y-86833743D01*
X118807855Y-86817200D01*
X117614700Y-86817200D01*
X117614700Y-86837200D01*
X117360700Y-86837200D01*
X117360700Y-86817200D01*
X117340700Y-86817200D01*
X117340700Y-86563200D01*
X117360700Y-86563200D01*
X117360700Y-85369386D01*
X117614700Y-85369386D01*
X117614700Y-86563200D01*
X118807855Y-86563200D01*
X118929176Y-86333310D01*
X118884525Y-86186101D01*
X118759341Y-85923280D01*
X118585288Y-85689931D01*
X118369055Y-85495022D01*
X118118952Y-85346043D01*
X117844591Y-85248719D01*
X117614700Y-85369386D01*
X117360700Y-85369386D01*
X117130809Y-85248719D01*
X116856448Y-85346043D01*
X116606345Y-85495022D01*
X116390112Y-85689931D01*
X116218800Y-85919606D01*
X116101175Y-85743568D01*
X115894332Y-85536725D01*
X115651111Y-85374210D01*
X115380858Y-85262268D01*
X115093960Y-85205200D01*
X114801440Y-85205200D01*
X114514542Y-85262268D01*
X114244289Y-85374210D01*
X114001068Y-85536725D01*
X113794225Y-85743568D01*
X113631710Y-85986789D01*
X113519768Y-86257042D01*
X113488470Y-86414386D01*
X113488470Y-81634932D01*
X114195000Y-81634932D01*
X114195000Y-82030868D01*
X114272243Y-82419196D01*
X114423761Y-82784992D01*
X114643731Y-83114201D01*
X114923699Y-83394169D01*
X115252908Y-83614139D01*
X115618704Y-83765657D01*
X116007032Y-83842900D01*
X116402968Y-83842900D01*
X116791296Y-83765657D01*
X117049408Y-83658743D01*
X119176800Y-83658743D01*
X119176800Y-83828857D01*
X119209987Y-83995703D01*
X119275087Y-84152868D01*
X119369598Y-84294313D01*
X119489887Y-84414602D01*
X119631332Y-84509113D01*
X119788497Y-84574213D01*
X119955343Y-84607400D01*
X120125457Y-84607400D01*
X120292303Y-84574213D01*
X120449468Y-84509113D01*
X120590913Y-84414602D01*
X120711202Y-84294313D01*
X120805713Y-84152868D01*
X120870813Y-83995703D01*
X120904000Y-83828857D01*
X120904000Y-83658743D01*
X120870813Y-83491897D01*
X120805713Y-83334732D01*
X120711202Y-83193287D01*
X120590913Y-83072998D01*
X120517199Y-83023743D01*
X128066800Y-83023743D01*
X128066800Y-83193857D01*
X128099987Y-83360703D01*
X128165087Y-83517868D01*
X128259598Y-83659313D01*
X128379887Y-83779602D01*
X128521332Y-83874113D01*
X128678497Y-83939213D01*
X128845343Y-83972400D01*
X129015457Y-83972400D01*
X129182303Y-83939213D01*
X129339468Y-83874113D01*
X129480913Y-83779602D01*
X129601202Y-83659313D01*
X129695713Y-83517868D01*
X129760813Y-83360703D01*
X129777314Y-83277743D01*
X135051800Y-83277743D01*
X135051800Y-83447857D01*
X135084987Y-83614703D01*
X135150087Y-83771868D01*
X135244598Y-83913313D01*
X135364887Y-84033602D01*
X135506332Y-84128113D01*
X135663497Y-84193213D01*
X135830343Y-84226400D01*
X136000457Y-84226400D01*
X136167303Y-84193213D01*
X136324468Y-84128113D01*
X136465913Y-84033602D01*
X136586202Y-83913313D01*
X136680713Y-83771868D01*
X136745813Y-83614703D01*
X136779000Y-83447857D01*
X136779000Y-83277743D01*
X136745813Y-83110897D01*
X136680713Y-82953732D01*
X136586202Y-82812287D01*
X136465913Y-82691998D01*
X136324468Y-82597487D01*
X136167303Y-82532387D01*
X136000457Y-82499200D01*
X135830343Y-82499200D01*
X135663497Y-82532387D01*
X135506332Y-82597487D01*
X135364887Y-82691998D01*
X135244598Y-82812287D01*
X135150087Y-82953732D01*
X135084987Y-83110897D01*
X135051800Y-83277743D01*
X129777314Y-83277743D01*
X129794000Y-83193857D01*
X129794000Y-83023743D01*
X129760813Y-82856897D01*
X129695713Y-82699732D01*
X129601202Y-82558287D01*
X129480913Y-82437998D01*
X129339468Y-82343487D01*
X129182303Y-82278387D01*
X129015457Y-82245200D01*
X128845343Y-82245200D01*
X128678497Y-82278387D01*
X128521332Y-82343487D01*
X128379887Y-82437998D01*
X128259598Y-82558287D01*
X128165087Y-82699732D01*
X128099987Y-82856897D01*
X128066800Y-83023743D01*
X120517199Y-83023743D01*
X120449468Y-82978487D01*
X120292303Y-82913387D01*
X120125457Y-82880200D01*
X119955343Y-82880200D01*
X119788497Y-82913387D01*
X119631332Y-82978487D01*
X119489887Y-83072998D01*
X119369598Y-83193287D01*
X119275087Y-83334732D01*
X119209987Y-83491897D01*
X119176800Y-83658743D01*
X117049408Y-83658743D01*
X117157092Y-83614139D01*
X117486301Y-83394169D01*
X117766269Y-83114201D01*
X117986239Y-82784992D01*
X118137757Y-82419196D01*
X118215000Y-82030868D01*
X118215000Y-81634932D01*
X118137757Y-81246604D01*
X117986239Y-80880808D01*
X117766269Y-80551599D01*
X117486301Y-80271631D01*
X117157092Y-80051661D01*
X116791296Y-79900143D01*
X116402968Y-79822900D01*
X116007032Y-79822900D01*
X115618704Y-79900143D01*
X115252908Y-80051661D01*
X114923699Y-80271631D01*
X114643731Y-80551599D01*
X114423761Y-80880808D01*
X114272243Y-81246604D01*
X114195000Y-81634932D01*
X113488470Y-81634932D01*
X113488470Y-79213743D01*
X122986800Y-79213743D01*
X122986800Y-79383857D01*
X123019987Y-79550703D01*
X123085087Y-79707868D01*
X123179598Y-79849313D01*
X123299887Y-79969602D01*
X123441332Y-80064113D01*
X123598497Y-80129213D01*
X123765343Y-80162400D01*
X123935457Y-80162400D01*
X124102303Y-80129213D01*
X124259468Y-80064113D01*
X124400913Y-79969602D01*
X124521202Y-79849313D01*
X124615713Y-79707868D01*
X124680813Y-79550703D01*
X124714000Y-79383857D01*
X124714000Y-79213743D01*
X124680813Y-79046897D01*
X124615713Y-78889732D01*
X124521202Y-78748287D01*
X124400913Y-78627998D01*
X124259468Y-78533487D01*
X124102303Y-78468387D01*
X123935457Y-78435200D01*
X123765343Y-78435200D01*
X123598497Y-78468387D01*
X123441332Y-78533487D01*
X123299887Y-78627998D01*
X123179598Y-78748287D01*
X123085087Y-78889732D01*
X123019987Y-79046897D01*
X122986800Y-79213743D01*
X113488470Y-79213743D01*
X113488470Y-77882540D01*
X137605400Y-77882540D01*
X137605400Y-78175060D01*
X137662468Y-78461958D01*
X137774410Y-78732211D01*
X137936925Y-78975432D01*
X138143768Y-79182275D01*
X138318160Y-79298800D01*
X138143768Y-79415325D01*
X137936925Y-79622168D01*
X137774410Y-79865389D01*
X137662468Y-80135642D01*
X137605400Y-80422540D01*
X137605400Y-80715060D01*
X137662468Y-81001958D01*
X137774410Y-81272211D01*
X137936925Y-81515432D01*
X138143768Y-81722275D01*
X138318160Y-81838800D01*
X138143768Y-81955325D01*
X137936925Y-82162168D01*
X137774410Y-82405389D01*
X137662468Y-82675642D01*
X137605400Y-82962540D01*
X137605400Y-83255060D01*
X137662468Y-83541958D01*
X137774410Y-83812211D01*
X137936925Y-84055432D01*
X138143768Y-84262275D01*
X138318160Y-84378800D01*
X138143768Y-84495325D01*
X137936925Y-84702168D01*
X137774410Y-84945389D01*
X137662468Y-85215642D01*
X137605400Y-85502540D01*
X137605400Y-85795060D01*
X137662468Y-86081958D01*
X137774410Y-86352211D01*
X137936925Y-86595432D01*
X138143768Y-86802275D01*
X138318160Y-86918800D01*
X138143768Y-87035325D01*
X137936925Y-87242168D01*
X137774410Y-87485389D01*
X137662468Y-87755642D01*
X137605400Y-88042540D01*
X137605400Y-88335060D01*
X137662468Y-88621958D01*
X137774410Y-88892211D01*
X137936925Y-89135432D01*
X138143768Y-89342275D01*
X138325934Y-89463995D01*
X138209045Y-89533622D01*
X137992812Y-89728531D01*
X137818759Y-89961880D01*
X137693575Y-90224701D01*
X137648924Y-90371910D01*
X137770245Y-90601800D01*
X138963400Y-90601800D01*
X138963400Y-90581800D01*
X139217400Y-90581800D01*
X139217400Y-90601800D01*
X139237400Y-90601800D01*
X139237400Y-90855800D01*
X139217400Y-90855800D01*
X139217400Y-90875800D01*
X138963400Y-90875800D01*
X138963400Y-90855800D01*
X137770245Y-90855800D01*
X137648924Y-91085690D01*
X137693575Y-91232899D01*
X137818759Y-91495720D01*
X137992812Y-91729069D01*
X138209045Y-91923978D01*
X138325934Y-91993605D01*
X138143768Y-92115325D01*
X137936925Y-92322168D01*
X137774410Y-92565389D01*
X137662468Y-92835642D01*
X137605400Y-93122540D01*
X137605400Y-93415060D01*
X137662468Y-93701958D01*
X137774410Y-93972211D01*
X137936925Y-94215432D01*
X138143768Y-94422275D01*
X138318160Y-94538800D01*
X138143768Y-94655325D01*
X137936925Y-94862168D01*
X137774410Y-95105389D01*
X137662468Y-95375642D01*
X137605400Y-95662540D01*
X137605400Y-95955060D01*
X137662468Y-96241958D01*
X137774410Y-96512211D01*
X137936925Y-96755432D01*
X138143768Y-96962275D01*
X138318160Y-97078800D01*
X138143768Y-97195325D01*
X137936925Y-97402168D01*
X137774410Y-97645389D01*
X137662468Y-97915642D01*
X137605400Y-98202540D01*
X137605400Y-98495060D01*
X137662468Y-98781958D01*
X137774410Y-99052211D01*
X137936925Y-99295432D01*
X138143768Y-99502275D01*
X138318160Y-99618800D01*
X138143768Y-99735325D01*
X137936925Y-99942168D01*
X137774410Y-100185389D01*
X137662468Y-100455642D01*
X137605400Y-100742540D01*
X137605400Y-101035060D01*
X137662468Y-101321958D01*
X137774410Y-101592211D01*
X137936925Y-101835432D01*
X138143768Y-102042275D01*
X138318160Y-102158800D01*
X138143768Y-102275325D01*
X137936925Y-102482168D01*
X137774410Y-102725389D01*
X137662468Y-102995642D01*
X137605400Y-103282540D01*
X137605400Y-103575060D01*
X137662468Y-103861958D01*
X137774410Y-104132211D01*
X137936925Y-104375432D01*
X138143768Y-104582275D01*
X138318160Y-104698800D01*
X138143768Y-104815325D01*
X137936925Y-105022168D01*
X137774410Y-105265389D01*
X137662468Y-105535642D01*
X137605400Y-105822540D01*
X137605400Y-106115060D01*
X137662468Y-106401958D01*
X137774410Y-106672211D01*
X137936925Y-106915432D01*
X138143768Y-107122275D01*
X138318160Y-107238800D01*
X138143768Y-107355325D01*
X137936925Y-107562168D01*
X137774410Y-107805389D01*
X137662468Y-108075642D01*
X137605400Y-108362540D01*
X137605400Y-108655060D01*
X137662468Y-108941958D01*
X137774410Y-109212211D01*
X137936925Y-109455432D01*
X138143768Y-109662275D01*
X138318160Y-109778800D01*
X138143768Y-109895325D01*
X137936925Y-110102168D01*
X137774410Y-110345389D01*
X137662468Y-110615642D01*
X137605400Y-110902540D01*
X137605400Y-111195060D01*
X137662468Y-111481958D01*
X137774410Y-111752211D01*
X137936925Y-111995432D01*
X138143768Y-112202275D01*
X138386989Y-112364790D01*
X138657242Y-112476732D01*
X138944140Y-112533800D01*
X139236660Y-112533800D01*
X139523558Y-112476732D01*
X139793811Y-112364790D01*
X140037032Y-112202275D01*
X140168887Y-112070420D01*
X140190898Y-112142980D01*
X140249863Y-112253294D01*
X140329215Y-112349985D01*
X140425906Y-112429337D01*
X140536220Y-112488302D01*
X140655918Y-112524612D01*
X140780400Y-112536872D01*
X141344650Y-112533800D01*
X141503400Y-112375050D01*
X141503400Y-111175800D01*
X141757400Y-111175800D01*
X141757400Y-112375050D01*
X141916150Y-112533800D01*
X142480400Y-112536872D01*
X142604882Y-112524612D01*
X142724580Y-112488302D01*
X142834894Y-112429337D01*
X142931585Y-112349985D01*
X143010937Y-112253294D01*
X143069902Y-112142980D01*
X143106212Y-112023282D01*
X143118472Y-111898800D01*
X143115400Y-111334550D01*
X142956650Y-111175800D01*
X141757400Y-111175800D01*
X141503400Y-111175800D01*
X141483400Y-111175800D01*
X141483400Y-110921800D01*
X141503400Y-110921800D01*
X141503400Y-110901800D01*
X141757400Y-110901800D01*
X141757400Y-110921800D01*
X142956650Y-110921800D01*
X143115400Y-110763050D01*
X143118472Y-110198800D01*
X143106212Y-110074318D01*
X143069902Y-109954620D01*
X143010937Y-109844306D01*
X142931585Y-109747615D01*
X142834894Y-109668263D01*
X142724580Y-109609298D01*
X142652020Y-109587287D01*
X142783875Y-109455432D01*
X142946390Y-109212211D01*
X143058332Y-108941958D01*
X143115400Y-108655060D01*
X143115400Y-108362540D01*
X143058332Y-108075642D01*
X142946390Y-107805389D01*
X142783875Y-107562168D01*
X142577032Y-107355325D01*
X142402640Y-107238800D01*
X142577032Y-107122275D01*
X142783875Y-106915432D01*
X142946390Y-106672211D01*
X143058332Y-106401958D01*
X143115400Y-106115060D01*
X143115400Y-105822540D01*
X143058332Y-105535642D01*
X142946390Y-105265389D01*
X142783875Y-105022168D01*
X142577032Y-104815325D01*
X142402640Y-104698800D01*
X142577032Y-104582275D01*
X142783875Y-104375432D01*
X142946390Y-104132211D01*
X143058332Y-103861958D01*
X143115400Y-103575060D01*
X143115400Y-103282540D01*
X143058332Y-102995642D01*
X142946390Y-102725389D01*
X142783875Y-102482168D01*
X142577032Y-102275325D01*
X142402640Y-102158800D01*
X142577032Y-102042275D01*
X142783875Y-101835432D01*
X142946390Y-101592211D01*
X142956956Y-101566701D01*
X150342600Y-101566701D01*
X150342600Y-101861899D01*
X150400190Y-102151425D01*
X150513158Y-102424153D01*
X150677161Y-102669602D01*
X150885898Y-102878339D01*
X151131347Y-103042342D01*
X151404075Y-103155310D01*
X151693601Y-103212900D01*
X151988799Y-103212900D01*
X152278325Y-103155310D01*
X152551053Y-103042342D01*
X152796502Y-102878339D01*
X153005239Y-102669602D01*
X153169242Y-102424153D01*
X153282210Y-102151425D01*
X153339800Y-101861899D01*
X153339800Y-101566701D01*
X153282210Y-101277175D01*
X153169242Y-101004447D01*
X153005239Y-100758998D01*
X152796502Y-100550261D01*
X152551053Y-100386258D01*
X152278325Y-100273290D01*
X151988799Y-100215700D01*
X151693601Y-100215700D01*
X151404075Y-100273290D01*
X151131347Y-100386258D01*
X150885898Y-100550261D01*
X150677161Y-100758998D01*
X150513158Y-101004447D01*
X150400190Y-101277175D01*
X150342600Y-101566701D01*
X142956956Y-101566701D01*
X143058332Y-101321958D01*
X143115400Y-101035060D01*
X143115400Y-100742540D01*
X143058332Y-100455642D01*
X142946390Y-100185389D01*
X142783875Y-99942168D01*
X142577032Y-99735325D01*
X142402640Y-99618800D01*
X142577032Y-99502275D01*
X142783875Y-99295432D01*
X142946390Y-99052211D01*
X143058332Y-98781958D01*
X143115400Y-98495060D01*
X143115400Y-98202540D01*
X143058332Y-97915642D01*
X142946390Y-97645389D01*
X142783875Y-97402168D01*
X142577032Y-97195325D01*
X142402640Y-97078800D01*
X142528503Y-96994701D01*
X150342600Y-96994701D01*
X150342600Y-97289899D01*
X150400190Y-97579425D01*
X150513158Y-97852153D01*
X150677161Y-98097602D01*
X150885898Y-98306339D01*
X151131347Y-98470342D01*
X151404075Y-98583310D01*
X151693601Y-98640900D01*
X151988799Y-98640900D01*
X152278325Y-98583310D01*
X152551053Y-98470342D01*
X152796502Y-98306339D01*
X153005239Y-98097602D01*
X153169242Y-97852153D01*
X153282210Y-97579425D01*
X153339800Y-97289899D01*
X153339800Y-96994701D01*
X153282210Y-96705175D01*
X153169242Y-96432447D01*
X153005239Y-96186998D01*
X152796502Y-95978261D01*
X152551053Y-95814258D01*
X152278325Y-95701290D01*
X151988799Y-95643700D01*
X151693601Y-95643700D01*
X151404075Y-95701290D01*
X151131347Y-95814258D01*
X150885898Y-95978261D01*
X150677161Y-96186998D01*
X150513158Y-96432447D01*
X150400190Y-96705175D01*
X150342600Y-96994701D01*
X142528503Y-96994701D01*
X142577032Y-96962275D01*
X142783875Y-96755432D01*
X142946390Y-96512211D01*
X143058332Y-96241958D01*
X143115400Y-95955060D01*
X143115400Y-95662540D01*
X143058332Y-95375642D01*
X142946390Y-95105389D01*
X142783875Y-94862168D01*
X142577032Y-94655325D01*
X142402640Y-94538800D01*
X142577032Y-94422275D01*
X142783875Y-94215432D01*
X142946390Y-93972211D01*
X143058332Y-93701958D01*
X143115400Y-93415060D01*
X143115400Y-93122540D01*
X143058332Y-92835642D01*
X142946390Y-92565389D01*
X142783875Y-92322168D01*
X142577032Y-92115325D01*
X142402640Y-91998800D01*
X142577032Y-91882275D01*
X142783875Y-91675432D01*
X142946390Y-91432211D01*
X143058332Y-91161958D01*
X143115400Y-90875060D01*
X143115400Y-90582540D01*
X143058332Y-90295642D01*
X142946390Y-90025389D01*
X142783875Y-89782168D01*
X142577032Y-89575325D01*
X142402640Y-89458800D01*
X142577032Y-89342275D01*
X142783875Y-89135432D01*
X142946390Y-88892211D01*
X143058332Y-88621958D01*
X143115400Y-88335060D01*
X143115400Y-88042540D01*
X143099786Y-87964043D01*
X150698200Y-87964043D01*
X150698200Y-88134157D01*
X150731387Y-88301003D01*
X150796487Y-88458168D01*
X150890998Y-88599613D01*
X151011287Y-88719902D01*
X151152732Y-88814413D01*
X151309897Y-88879513D01*
X151476743Y-88912700D01*
X151646857Y-88912700D01*
X151813703Y-88879513D01*
X151970868Y-88814413D01*
X152112313Y-88719902D01*
X152232602Y-88599613D01*
X152327113Y-88458168D01*
X152392213Y-88301003D01*
X152425400Y-88134157D01*
X152425400Y-87964043D01*
X152392213Y-87797197D01*
X152327113Y-87640032D01*
X152232602Y-87498587D01*
X152112313Y-87378298D01*
X151970868Y-87283787D01*
X151813703Y-87218687D01*
X151646857Y-87185500D01*
X151476743Y-87185500D01*
X151309897Y-87218687D01*
X151152732Y-87283787D01*
X151011287Y-87378298D01*
X150890998Y-87498587D01*
X150796487Y-87640032D01*
X150731387Y-87797197D01*
X150698200Y-87964043D01*
X143099786Y-87964043D01*
X143058332Y-87755642D01*
X142946390Y-87485389D01*
X142783875Y-87242168D01*
X142577032Y-87035325D01*
X142402640Y-86918800D01*
X142577032Y-86802275D01*
X142783875Y-86595432D01*
X142946390Y-86352211D01*
X143058332Y-86081958D01*
X143115400Y-85795060D01*
X143115400Y-85502540D01*
X143099786Y-85424043D01*
X144348200Y-85424043D01*
X144348200Y-85594157D01*
X144381387Y-85761003D01*
X144446487Y-85918168D01*
X144540998Y-86059613D01*
X144661287Y-86179902D01*
X144802732Y-86274413D01*
X144959897Y-86339513D01*
X145126743Y-86372700D01*
X145296857Y-86372700D01*
X145463703Y-86339513D01*
X145620868Y-86274413D01*
X145762313Y-86179902D01*
X145882602Y-86059613D01*
X145882982Y-86059043D01*
X155143200Y-86059043D01*
X155143200Y-86229157D01*
X155176387Y-86396003D01*
X155241487Y-86553168D01*
X155335998Y-86694613D01*
X155456287Y-86814902D01*
X155597732Y-86909413D01*
X155754897Y-86974513D01*
X155921743Y-87007700D01*
X156091857Y-87007700D01*
X156258703Y-86974513D01*
X156415868Y-86909413D01*
X156557313Y-86814902D01*
X156677602Y-86694613D01*
X156772113Y-86553168D01*
X156837213Y-86396003D01*
X156870400Y-86229157D01*
X156870400Y-86059043D01*
X156837213Y-85892197D01*
X156772113Y-85735032D01*
X156677602Y-85593587D01*
X156557313Y-85473298D01*
X156415868Y-85378787D01*
X156258703Y-85313687D01*
X156091857Y-85280500D01*
X155921743Y-85280500D01*
X155754897Y-85313687D01*
X155597732Y-85378787D01*
X155456287Y-85473298D01*
X155335998Y-85593587D01*
X155241487Y-85735032D01*
X155176387Y-85892197D01*
X155143200Y-86059043D01*
X145882982Y-86059043D01*
X145977113Y-85918168D01*
X146042213Y-85761003D01*
X146075400Y-85594157D01*
X146075400Y-85424043D01*
X146042213Y-85257197D01*
X145977113Y-85100032D01*
X145882602Y-84958587D01*
X145762313Y-84838298D01*
X145620868Y-84743787D01*
X145463703Y-84678687D01*
X145296857Y-84645500D01*
X145126743Y-84645500D01*
X144959897Y-84678687D01*
X144802732Y-84743787D01*
X144661287Y-84838298D01*
X144540998Y-84958587D01*
X144446487Y-85100032D01*
X144381387Y-85257197D01*
X144348200Y-85424043D01*
X143099786Y-85424043D01*
X143058332Y-85215642D01*
X142946390Y-84945389D01*
X142783875Y-84702168D01*
X142577032Y-84495325D01*
X142402640Y-84378800D01*
X142577032Y-84262275D01*
X142783875Y-84055432D01*
X142913160Y-83861943D01*
X150368000Y-83861943D01*
X150368000Y-84032057D01*
X150401187Y-84198903D01*
X150466287Y-84356068D01*
X150560798Y-84497513D01*
X150681087Y-84617802D01*
X150822532Y-84712313D01*
X150979697Y-84777413D01*
X151146543Y-84810600D01*
X151316657Y-84810600D01*
X151483503Y-84777413D01*
X151640668Y-84712313D01*
X151782113Y-84617802D01*
X151902402Y-84497513D01*
X151996913Y-84356068D01*
X152062013Y-84198903D01*
X152095200Y-84032057D01*
X152095200Y-83861943D01*
X152062013Y-83695097D01*
X151996913Y-83537932D01*
X151984292Y-83519043D01*
X155143200Y-83519043D01*
X155143200Y-83689157D01*
X155176387Y-83856003D01*
X155241487Y-84013168D01*
X155335998Y-84154613D01*
X155456287Y-84274902D01*
X155597732Y-84369413D01*
X155754897Y-84434513D01*
X155921743Y-84467700D01*
X156091857Y-84467700D01*
X156258703Y-84434513D01*
X156415868Y-84369413D01*
X156557313Y-84274902D01*
X156677602Y-84154613D01*
X156772113Y-84013168D01*
X156837213Y-83856003D01*
X156870400Y-83689157D01*
X156870400Y-83519043D01*
X156837213Y-83352197D01*
X156772113Y-83195032D01*
X156677602Y-83053587D01*
X156557313Y-82933298D01*
X156415868Y-82838787D01*
X156258703Y-82773687D01*
X156091857Y-82740500D01*
X155921743Y-82740500D01*
X155754897Y-82773687D01*
X155597732Y-82838787D01*
X155456287Y-82933298D01*
X155335998Y-83053587D01*
X155241487Y-83195032D01*
X155176387Y-83352197D01*
X155143200Y-83519043D01*
X151984292Y-83519043D01*
X151902402Y-83396487D01*
X151782113Y-83276198D01*
X151640668Y-83181687D01*
X151483503Y-83116587D01*
X151316657Y-83083400D01*
X151146543Y-83083400D01*
X150979697Y-83116587D01*
X150822532Y-83181687D01*
X150681087Y-83276198D01*
X150560798Y-83396487D01*
X150466287Y-83537932D01*
X150401187Y-83695097D01*
X150368000Y-83861943D01*
X142913160Y-83861943D01*
X142946390Y-83812211D01*
X143058332Y-83541958D01*
X143115400Y-83255060D01*
X143115400Y-82962540D01*
X143058332Y-82675642D01*
X142946390Y-82405389D01*
X142783875Y-82162168D01*
X142577032Y-81955325D01*
X142402640Y-81838800D01*
X142577032Y-81722275D01*
X142783875Y-81515432D01*
X142946390Y-81272211D01*
X143058332Y-81001958D01*
X143062890Y-80979043D01*
X155143200Y-80979043D01*
X155143200Y-81149157D01*
X155176387Y-81316003D01*
X155241487Y-81473168D01*
X155335998Y-81614613D01*
X155456287Y-81734902D01*
X155597732Y-81829413D01*
X155754897Y-81894513D01*
X155921743Y-81927700D01*
X156091857Y-81927700D01*
X156258703Y-81894513D01*
X156415868Y-81829413D01*
X156557313Y-81734902D01*
X156677602Y-81614613D01*
X156772113Y-81473168D01*
X156837213Y-81316003D01*
X156870400Y-81149157D01*
X156870400Y-80979043D01*
X156837213Y-80812197D01*
X156772113Y-80655032D01*
X156677602Y-80513587D01*
X156557313Y-80393298D01*
X156415868Y-80298787D01*
X156258703Y-80233687D01*
X156091857Y-80200500D01*
X155921743Y-80200500D01*
X155754897Y-80233687D01*
X155597732Y-80298787D01*
X155456287Y-80393298D01*
X155335998Y-80513587D01*
X155241487Y-80655032D01*
X155176387Y-80812197D01*
X155143200Y-80979043D01*
X143062890Y-80979043D01*
X143115400Y-80715060D01*
X143115400Y-80422540D01*
X143058332Y-80135642D01*
X142946390Y-79865389D01*
X142783875Y-79622168D01*
X142577032Y-79415325D01*
X142402640Y-79298800D01*
X142577032Y-79182275D01*
X142783875Y-78975432D01*
X142946390Y-78732211D01*
X143058332Y-78461958D01*
X143115400Y-78175060D01*
X143115400Y-77882540D01*
X143058332Y-77595642D01*
X142946390Y-77325389D01*
X142783875Y-77082168D01*
X142577032Y-76875325D01*
X142333811Y-76712810D01*
X142063558Y-76600868D01*
X141776660Y-76543800D01*
X141484140Y-76543800D01*
X141197242Y-76600868D01*
X140926989Y-76712810D01*
X140683768Y-76875325D01*
X140476925Y-77082168D01*
X140360400Y-77256560D01*
X140243875Y-77082168D01*
X140037032Y-76875325D01*
X139793811Y-76712810D01*
X139523558Y-76600868D01*
X139236660Y-76543800D01*
X138944140Y-76543800D01*
X138657242Y-76600868D01*
X138386989Y-76712810D01*
X138143768Y-76875325D01*
X137936925Y-77082168D01*
X137774410Y-77325389D01*
X137662468Y-77595642D01*
X137605400Y-77882540D01*
X113488470Y-77882540D01*
X113488470Y-74180088D01*
X163118952Y-74066690D01*
X163194848Y-137541240D01*
G37*
%TD.AperFunction*%
D18*
X116334225Y-130816832D02*
X116541068Y-131023675D01*
X116715460Y-131140200D01*
X116541068Y-131256725D01*
X116334225Y-131463568D01*
X116217700Y-131637960D01*
X116101175Y-131463568D01*
X115894332Y-131256725D01*
X115712166Y-131135005D01*
X115829055Y-131065378D01*
X116045288Y-130870469D01*
X116216600Y-130640794D01*
X116334225Y-130816832D01*
%TA.AperFunction,Conductor*%
D19*
G36*
X116334225Y-130816832D02*
G01*
X116541068Y-131023675D01*
X116715460Y-131140200D01*
X116541068Y-131256725D01*
X116334225Y-131463568D01*
X116217700Y-131637960D01*
X116101175Y-131463568D01*
X115894332Y-131256725D01*
X115712166Y-131135005D01*
X115829055Y-131065378D01*
X116045288Y-130870469D01*
X116216600Y-130640794D01*
X116334225Y-130816832D01*
G37*
%TD.AperFunction*%
D18*
X115074700Y-129743200D02*
X115094700Y-129743200D01*
X115094700Y-129997200D01*
X115074700Y-129997200D01*
X115074700Y-130017200D01*
X114820700Y-130017200D01*
X114820700Y-129997200D01*
X114800700Y-129997200D01*
X114800700Y-129743200D01*
X114820700Y-129743200D01*
X114820700Y-129723200D01*
X115074700Y-129723200D01*
X115074700Y-129743200D01*
%TA.AperFunction,Conductor*%
D19*
G36*
X115074700Y-129743200D02*
G01*
X115094700Y-129743200D01*
X115094700Y-129997200D01*
X115074700Y-129997200D01*
X115074700Y-130017200D01*
X114820700Y-130017200D01*
X114820700Y-129997200D01*
X114800700Y-129997200D01*
X114800700Y-129743200D01*
X114820700Y-129743200D01*
X114820700Y-129723200D01*
X115074700Y-129723200D01*
X115074700Y-129743200D01*
G37*
%TD.AperFunction*%
D18*
X115074700Y-119583200D02*
X115094700Y-119583200D01*
X115094700Y-119837200D01*
X115074700Y-119837200D01*
X115074700Y-119857200D01*
X114820700Y-119857200D01*
X114820700Y-119837200D01*
X114800700Y-119837200D01*
X114800700Y-119583200D01*
X114820700Y-119583200D01*
X114820700Y-119563200D01*
X115074700Y-119563200D01*
X115074700Y-119583200D01*
%TA.AperFunction,Conductor*%
D19*
G36*
X115074700Y-119583200D02*
G01*
X115094700Y-119583200D01*
X115094700Y-119837200D01*
X115074700Y-119837200D01*
X115074700Y-119857200D01*
X114820700Y-119857200D01*
X114820700Y-119837200D01*
X114800700Y-119837200D01*
X114800700Y-119583200D01*
X114820700Y-119583200D01*
X114820700Y-119563200D01*
X115074700Y-119563200D01*
X115074700Y-119583200D01*
G37*
%TD.AperFunction*%
D18*
X116334225Y-118116832D02*
X116541068Y-118323675D01*
X116715460Y-118440200D01*
X116541068Y-118556725D01*
X116334225Y-118763568D01*
X116216600Y-118939606D01*
X116045288Y-118709931D01*
X115829055Y-118515022D01*
X115712166Y-118445395D01*
X115894332Y-118323675D01*
X116101175Y-118116832D01*
X116217700Y-117942440D01*
X116334225Y-118116832D01*
%TA.AperFunction,Conductor*%
D19*
G36*
X116334225Y-118116832D02*
G01*
X116541068Y-118323675D01*
X116715460Y-118440200D01*
X116541068Y-118556725D01*
X116334225Y-118763568D01*
X116216600Y-118939606D01*
X116045288Y-118709931D01*
X115829055Y-118515022D01*
X115712166Y-118445395D01*
X115894332Y-118323675D01*
X116101175Y-118116832D01*
X116217700Y-117942440D01*
X116334225Y-118116832D01*
G37*
%TD.AperFunction*%
D18*
X115074700Y-111963200D02*
X115094700Y-111963200D01*
X115094700Y-112217200D01*
X115074700Y-112217200D01*
X115074700Y-112237200D01*
X114820700Y-112237200D01*
X114820700Y-112217200D01*
X114800700Y-112217200D01*
X114800700Y-111963200D01*
X114820700Y-111963200D01*
X114820700Y-111943200D01*
X115074700Y-111943200D01*
X115074700Y-111963200D01*
%TA.AperFunction,Conductor*%
D19*
G36*
X115074700Y-111963200D02*
G01*
X115094700Y-111963200D01*
X115094700Y-112217200D01*
X115074700Y-112217200D01*
X115074700Y-112237200D01*
X114820700Y-112237200D01*
X114820700Y-112217200D01*
X114800700Y-112217200D01*
X114800700Y-111963200D01*
X114820700Y-111963200D01*
X114820700Y-111943200D01*
X115074700Y-111943200D01*
X115074700Y-111963200D01*
G37*
%TD.AperFunction*%
D18*
X116334225Y-110496832D02*
X116541068Y-110703675D01*
X116715460Y-110820200D01*
X116541068Y-110936725D01*
X116334225Y-111143568D01*
X116216600Y-111319606D01*
X116045288Y-111089931D01*
X115829055Y-110895022D01*
X115712166Y-110825395D01*
X115894332Y-110703675D01*
X116101175Y-110496832D01*
X116217700Y-110322440D01*
X116334225Y-110496832D01*
%TA.AperFunction,Conductor*%
D19*
G36*
X116334225Y-110496832D02*
G01*
X116541068Y-110703675D01*
X116715460Y-110820200D01*
X116541068Y-110936725D01*
X116334225Y-111143568D01*
X116216600Y-111319606D01*
X116045288Y-111089931D01*
X115829055Y-110895022D01*
X115712166Y-110825395D01*
X115894332Y-110703675D01*
X116101175Y-110496832D01*
X116217700Y-110322440D01*
X116334225Y-110496832D01*
G37*
%TD.AperFunction*%
D18*
X115074700Y-94183200D02*
X115094700Y-94183200D01*
X115094700Y-94437200D01*
X115074700Y-94437200D01*
X115074700Y-94457200D01*
X114820700Y-94457200D01*
X114820700Y-94437200D01*
X114800700Y-94437200D01*
X114800700Y-94183200D01*
X114820700Y-94183200D01*
X114820700Y-94163200D01*
X115074700Y-94163200D01*
X115074700Y-94183200D01*
%TA.AperFunction,Conductor*%
D19*
G36*
X115074700Y-94183200D02*
G01*
X115094700Y-94183200D01*
X115094700Y-94437200D01*
X115074700Y-94437200D01*
X115074700Y-94457200D01*
X114820700Y-94457200D01*
X114820700Y-94437200D01*
X114800700Y-94437200D01*
X114800700Y-94183200D01*
X114820700Y-94183200D01*
X114820700Y-94163200D01*
X115074700Y-94163200D01*
X115074700Y-94183200D01*
G37*
%TD.AperFunction*%
D18*
X116334225Y-92716832D02*
X116541068Y-92923675D01*
X116715460Y-93040200D01*
X116541068Y-93156725D01*
X116334225Y-93363568D01*
X116216600Y-93539606D01*
X116045288Y-93309931D01*
X115829055Y-93115022D01*
X115712166Y-93045395D01*
X115894332Y-92923675D01*
X116101175Y-92716832D01*
X116217700Y-92542440D01*
X116334225Y-92716832D01*
%TA.AperFunction,Conductor*%
D19*
G36*
X116334225Y-92716832D02*
G01*
X116541068Y-92923675D01*
X116715460Y-93040200D01*
X116541068Y-93156725D01*
X116334225Y-93363568D01*
X116216600Y-93539606D01*
X116045288Y-93309931D01*
X115829055Y-93115022D01*
X115712166Y-93045395D01*
X115894332Y-92923675D01*
X116101175Y-92716832D01*
X116217700Y-92542440D01*
X116334225Y-92716832D01*
G37*
%TD.AperFunction*%
%TD*%
M02*
