%TF.GenerationSoftware,KiCad,Pcbnew,(6.0.11)*%
%TF.CreationDate,2025-01-10T09:32:41+11:00*%
%TF.ProjectId,bbb,6262622e-6b69-4636-9164-5f7063625858,rev?*%
%TF.SameCoordinates,Original*%
%TF.FileFunction,Drillmap*%
%TF.FilePolarity,Positive*%
%FSLAX45Y45*%
G04 Gerber Fmt 4.5, Leading zero omitted, Abs format (unit mm)*
G04 Created by KiCad (PCBNEW (6.0.11)) date 2025-01-10 09:32:41*
%MOMM*%
%LPD*%
G01*
G04 APERTURE LIST*
%ADD10C,0.002540*%
%ADD11C,0.200000*%
G04 APERTURE END LIST*
D10*
X16551913Y-14325585D02*
G75*
G03*
X16873213Y-14001750I0J321310D01*
G01*
X16874490Y-6083300D02*
G75*
G03*
X16629230Y-5835649I-246380J1270D01*
G01*
X11564620Y-5835650D02*
G75*
G03*
X11285220Y-6115050I0J-279400D01*
G01*
X11285220Y-13995400D02*
G75*
G03*
X11615420Y-14325600I330200J0D01*
G01*
X16629230Y-5835649D02*
X11564620Y-5835650D01*
X16551913Y-14325585D02*
X11615420Y-14325600D01*
X16873220Y-14001750D02*
X16874490Y-6083300D01*
X11285220Y-13995400D02*
X11285220Y-6115050D01*
D11*
X11542712Y-14636203D02*
X11542712Y-14436203D01*
X11590331Y-14436203D01*
X11618902Y-14445727D01*
X11637950Y-14464775D01*
X11647474Y-14483822D01*
X11656998Y-14521917D01*
X11656998Y-14550489D01*
X11647474Y-14588584D01*
X11637950Y-14607632D01*
X11618902Y-14626679D01*
X11590331Y-14636203D01*
X11542712Y-14636203D01*
X11742712Y-14636203D02*
X11742712Y-14502870D01*
X11742712Y-14540965D02*
X11752236Y-14521917D01*
X11761760Y-14512394D01*
X11780807Y-14502870D01*
X11799855Y-14502870D01*
X11866521Y-14636203D02*
X11866521Y-14502870D01*
X11866521Y-14436203D02*
X11856998Y-14445727D01*
X11866521Y-14455251D01*
X11876045Y-14445727D01*
X11866521Y-14436203D01*
X11866521Y-14455251D01*
X11990331Y-14636203D02*
X11971283Y-14626679D01*
X11961760Y-14607632D01*
X11961760Y-14436203D01*
X12095093Y-14636203D02*
X12076045Y-14626679D01*
X12066521Y-14607632D01*
X12066521Y-14436203D01*
X12323664Y-14636203D02*
X12323664Y-14436203D01*
X12390331Y-14579060D01*
X12456998Y-14436203D01*
X12456998Y-14636203D01*
X12637950Y-14636203D02*
X12637950Y-14531441D01*
X12628426Y-14512394D01*
X12609379Y-14502870D01*
X12571283Y-14502870D01*
X12552236Y-14512394D01*
X12637950Y-14626679D02*
X12618902Y-14636203D01*
X12571283Y-14636203D01*
X12552236Y-14626679D01*
X12542712Y-14607632D01*
X12542712Y-14588584D01*
X12552236Y-14569536D01*
X12571283Y-14560013D01*
X12618902Y-14560013D01*
X12637950Y-14550489D01*
X12733188Y-14502870D02*
X12733188Y-14702870D01*
X12733188Y-14512394D02*
X12752236Y-14502870D01*
X12790331Y-14502870D01*
X12809379Y-14512394D01*
X12818902Y-14521917D01*
X12828426Y-14540965D01*
X12828426Y-14598108D01*
X12818902Y-14617155D01*
X12809379Y-14626679D01*
X12790331Y-14636203D01*
X12752236Y-14636203D01*
X12733188Y-14626679D01*
X12914141Y-14617155D02*
X12923664Y-14626679D01*
X12914141Y-14636203D01*
X12904617Y-14626679D01*
X12914141Y-14617155D01*
X12914141Y-14636203D01*
X12914141Y-14512394D02*
X12923664Y-14521917D01*
X12914141Y-14531441D01*
X12904617Y-14521917D01*
X12914141Y-14512394D01*
X12914141Y-14531441D01*
M02*
