G04 #@! TF.GenerationSoftware,KiCad,Pcbnew,(6.0.11)*
G04 #@! TF.CreationDate,2025-01-10T09:31:50+11:00*
G04 #@! TF.ProjectId,bbb,6262622e-6b69-4636-9164-5f7063625858,rev?*
G04 #@! TF.SameCoordinates,Original*
G04 #@! TF.FileFunction,Copper,L3,Inr*
G04 #@! TF.FilePolarity,Positive*
%FSLAX46Y46*%
G04 Gerber Fmt 4.6, Leading zero omitted, Abs format (unit mm)*
G04 Created by KiCad (PCBNEW (6.0.11)) date 2025-01-10 09:31:50*
%MOMM*%
%LPD*%
G01*
G04 APERTURE LIST*
G04 #@! TA.AperFunction,ComponentPad*
%ADD10C,1.727200*%
G04 #@! TD*
G04 #@! TA.AperFunction,ComponentPad*
%ADD11C,2.006600*%
G04 #@! TD*
G04 #@! TA.AperFunction,ComponentPad*
%ADD12O,1.700000X1.700000*%
G04 #@! TD*
G04 #@! TA.AperFunction,ComponentPad*
%ADD13R,1.700000X1.700000*%
G04 #@! TD*
G04 #@! TA.AperFunction,ViaPad*
%ADD14C,1.727200*%
G04 #@! TD*
G04 #@! TA.AperFunction,ViaPad*
%ADD15C,0.457200*%
G04 #@! TD*
G04 APERTURE END LIST*
D10*
X140741400Y-126250700D03*
X145313400Y-126250700D03*
X151841200Y-101714300D03*
X151841200Y-97142300D03*
X151231600Y-120002300D03*
X151231600Y-115430300D03*
D11*
X128629400Y-65415800D03*
X133629400Y-70415800D03*
X123629400Y-70415800D03*
D12*
X114947700Y-86690200D03*
X117487700Y-86690200D03*
X114947700Y-89230200D03*
X117487700Y-89230200D03*
X114947700Y-91770200D03*
X117487700Y-91770200D03*
X114947700Y-94310200D03*
X117487700Y-94310200D03*
X114947700Y-96850200D03*
X117487700Y-96850200D03*
X114947700Y-99390200D03*
X117487700Y-99390200D03*
X114947700Y-101930200D03*
X117487700Y-101930200D03*
X114947700Y-104470200D03*
X117487700Y-104470200D03*
X114947700Y-107010200D03*
X117487700Y-107010200D03*
X114947700Y-109550200D03*
X117487700Y-109550200D03*
X114947700Y-112090200D03*
X117487700Y-112090200D03*
X114947700Y-114630200D03*
X117487700Y-114630200D03*
X114947700Y-117170200D03*
X117487700Y-117170200D03*
X114947700Y-119710200D03*
X117487700Y-119710200D03*
X114947700Y-122250200D03*
X117487700Y-122250200D03*
X114947700Y-124790200D03*
X117487700Y-124790200D03*
X114947700Y-127330200D03*
X117487700Y-127330200D03*
X114947700Y-129870200D03*
X117487700Y-129870200D03*
X114947700Y-132410200D03*
X117487700Y-132410200D03*
X114947700Y-134950200D03*
D13*
X117487700Y-134950200D03*
X141630400Y-111048800D03*
D12*
X139090400Y-111048800D03*
X141630400Y-108508800D03*
X139090400Y-108508800D03*
X141630400Y-105968800D03*
X139090400Y-105968800D03*
X141630400Y-103428800D03*
X139090400Y-103428800D03*
X141630400Y-100888800D03*
X139090400Y-100888800D03*
X141630400Y-98348800D03*
X139090400Y-98348800D03*
X141630400Y-95808800D03*
X139090400Y-95808800D03*
X141630400Y-93268800D03*
X139090400Y-93268800D03*
X141630400Y-90728800D03*
X139090400Y-90728800D03*
X141630400Y-88188800D03*
X139090400Y-88188800D03*
X141630400Y-85648800D03*
X139090400Y-85648800D03*
X141630400Y-83108800D03*
X139090400Y-83108800D03*
X141630400Y-80568800D03*
X139090400Y-80568800D03*
X141630400Y-78028800D03*
X139090400Y-78028800D03*
D14*
X151790400Y-72440800D03*
X154330400Y-72440800D03*
X141630400Y-72440800D03*
X154330400Y-64820800D03*
X149250400Y-67360800D03*
X151790400Y-69900800D03*
X144170400Y-72440800D03*
X151790400Y-64820800D03*
X159410400Y-64820800D03*
X154330400Y-69900800D03*
X156870400Y-67360800D03*
X154330400Y-67360800D03*
X144170400Y-64820800D03*
X159410400Y-72440800D03*
X146710400Y-64820800D03*
X144170400Y-69900800D03*
X149250400Y-69900800D03*
X156870400Y-69900800D03*
X156870400Y-72440800D03*
X144170400Y-67360800D03*
X159410400Y-67360800D03*
X159410400Y-69900800D03*
X161950400Y-69900800D03*
X151790400Y-67360800D03*
X141630400Y-64820800D03*
X141630400Y-67360800D03*
X161950400Y-64820800D03*
X161950400Y-67360800D03*
X139090400Y-69900800D03*
X139090400Y-64820800D03*
X146710400Y-72440800D03*
X146710400Y-69900800D03*
X146710400Y-67360800D03*
X156870400Y-64820800D03*
X139090400Y-72440800D03*
X139090400Y-67360800D03*
X141630400Y-69900800D03*
X149250400Y-64820800D03*
X149250400Y-59867800D03*
X159410400Y-59867800D03*
X139090400Y-59867800D03*
X144170400Y-62407800D03*
X149250400Y-62407800D03*
X156870400Y-62407800D03*
X141630400Y-62407800D03*
X151790400Y-59867800D03*
X161950400Y-62407800D03*
X141630400Y-59867800D03*
X146710400Y-59867800D03*
X161950400Y-59867800D03*
X156870400Y-59867800D03*
X139090400Y-62407800D03*
X159410400Y-62407800D03*
X154330400Y-62407800D03*
X151790400Y-62407800D03*
X146710400Y-62407800D03*
X144170400Y-59867800D03*
X154330400Y-59867800D03*
X149250400Y-72440800D03*
X125285500Y-135051800D03*
D15*
X128930400Y-107238800D03*
X125450600Y-110845600D03*
X136192900Y-101246300D03*
X126390400Y-98348800D03*
X120040400Y-83743800D03*
X156006800Y-86144100D03*
X156006800Y-83604100D03*
X156006800Y-81064100D03*
X151561800Y-88049100D03*
X145211800Y-85509100D03*
X160845500Y-82562700D03*
D14*
X131114800Y-135128000D03*
D15*
X126390400Y-107238800D03*
X131709709Y-104459491D03*
X130200400Y-102158800D03*
X128930400Y-99618800D03*
X131470400Y-98348800D03*
X131470400Y-88188800D03*
X125120400Y-97078800D03*
X122580400Y-98348800D03*
X120370600Y-110845600D03*
X119405400Y-85648800D03*
X120675400Y-88188800D03*
X120675400Y-90728800D03*
X120675400Y-93268800D03*
X120675400Y-95808800D03*
X127660400Y-79933800D03*
X153466800Y-79794100D03*
X151561800Y-81699100D03*
X148386800Y-79159100D03*
X148272490Y-86258410D03*
X127241300Y-114185700D03*
X146964400Y-106083100D03*
X136690100Y-118605300D03*
D14*
X115481100Y-75349100D03*
X154520900Y-135826500D03*
X159664400Y-135648700D03*
D15*
X123850400Y-79298800D03*
X135915400Y-83362800D03*
X135915400Y-72694800D03*
X128930400Y-88188800D03*
X135280400Y-99618800D03*
X151231600Y-83947000D03*
X134010400Y-91998800D03*
X136550400Y-86918800D03*
X128930400Y-83108800D03*
D14*
X161950400Y-72440800D03*
D15*
X157187900Y-134645400D03*
G04 #@! TA.AperFunction,Conductor*
G36*
X114797697Y-73889913D02*
G01*
X114865797Y-73909985D01*
X114912235Y-73963688D01*
X114922267Y-74033972D01*
X114892708Y-74098523D01*
X114855749Y-74127675D01*
X114747435Y-74184060D01*
X114743302Y-74187163D01*
X114743299Y-74187165D01*
X114718834Y-74205534D01*
X114567005Y-74319530D01*
X114411124Y-74482650D01*
X114283978Y-74669040D01*
X114281804Y-74673724D01*
X114281802Y-74673727D01*
X114272326Y-74694143D01*
X114188981Y-74873693D01*
X114128685Y-75091113D01*
X114104709Y-75315462D01*
X114105006Y-75320614D01*
X114105006Y-75320618D01*
X114110718Y-75419678D01*
X114117697Y-75540714D01*
X114118834Y-75545760D01*
X114118835Y-75545766D01*
X114140084Y-75640052D01*
X114167300Y-75760820D01*
X114169242Y-75765602D01*
X114169243Y-75765606D01*
X114205922Y-75855935D01*
X114252186Y-75969869D01*
X114370075Y-76162247D01*
X114517802Y-76332787D01*
X114691399Y-76476910D01*
X114695851Y-76479512D01*
X114695856Y-76479515D01*
X114785191Y-76531718D01*
X114886203Y-76590745D01*
X115096984Y-76671234D01*
X115102052Y-76672265D01*
X115102055Y-76672266D01*
X115210504Y-76694330D01*
X115318081Y-76716217D01*
X115323256Y-76716407D01*
X115323258Y-76716407D01*
X115538392Y-76724296D01*
X115538396Y-76724296D01*
X115543556Y-76724485D01*
X115548676Y-76723829D01*
X115548678Y-76723829D01*
X115636372Y-76712595D01*
X115767353Y-76695816D01*
X115772302Y-76694331D01*
X115772308Y-76694330D01*
X115978513Y-76632465D01*
X115978512Y-76632465D01*
X115983463Y-76630980D01*
X116078519Y-76584412D01*
X116181431Y-76533997D01*
X116181436Y-76533994D01*
X116186082Y-76531718D01*
X116190292Y-76528715D01*
X116190297Y-76528712D01*
X116365555Y-76403701D01*
X116365559Y-76403697D01*
X116369767Y-76400696D01*
X116529587Y-76241433D01*
X116661250Y-76058205D01*
X116761218Y-75855935D01*
X116826808Y-75640052D01*
X116856258Y-75416356D01*
X116857902Y-75349100D01*
X116839415Y-75124232D01*
X116784449Y-74905404D01*
X116694480Y-74698491D01*
X116571926Y-74509051D01*
X116420077Y-74342171D01*
X116416026Y-74338972D01*
X116416022Y-74338968D01*
X116247066Y-74205534D01*
X116247062Y-74205532D01*
X116243011Y-74202332D01*
X116107672Y-74127621D01*
X116057703Y-74077189D01*
X116042931Y-74007746D01*
X116068047Y-73941341D01*
X116125078Y-73899056D01*
X116168696Y-73891313D01*
X122026996Y-73897297D01*
X163120004Y-73939272D01*
X163188104Y-73959344D01*
X163234542Y-74013047D01*
X163245875Y-74065197D01*
X163258800Y-95691997D01*
X163283602Y-137193807D01*
X163283825Y-137567357D01*
X163263864Y-137635489D01*
X163210236Y-137682014D01*
X163157857Y-137693432D01*
X144210933Y-137698256D01*
X113524558Y-137706068D01*
X113456432Y-137686083D01*
X113409926Y-137632439D01*
X113398526Y-137579842D01*
X113399204Y-137201229D01*
X113402431Y-135399439D01*
X113422555Y-135331356D01*
X113476294Y-135284959D01*
X113546586Y-135274981D01*
X113611114Y-135304589D01*
X113646157Y-135358150D01*
X113646922Y-135357839D01*
X113648866Y-135362626D01*
X113648867Y-135362630D01*
X113722719Y-135544506D01*
X113730966Y-135564816D01*
X113758611Y-135609929D01*
X113840759Y-135743982D01*
X113847687Y-135755288D01*
X113993950Y-135924138D01*
X114165826Y-136066832D01*
X114358700Y-136179538D01*
X114567392Y-136259230D01*
X114572460Y-136260261D01*
X114572463Y-136260262D01*
X114639364Y-136273873D01*
X114786297Y-136303767D01*
X114791472Y-136303957D01*
X114791474Y-136303957D01*
X115004373Y-136311764D01*
X115004377Y-136311764D01*
X115009537Y-136311953D01*
X115014657Y-136311297D01*
X115014659Y-136311297D01*
X115225988Y-136284225D01*
X115225989Y-136284225D01*
X115231116Y-136283568D01*
X115263431Y-136273873D01*
X115440129Y-136220861D01*
X115440134Y-136220859D01*
X115445084Y-136219374D01*
X115645694Y-136121096D01*
X115827560Y-135991373D01*
X115935791Y-135883519D01*
X115998162Y-135849604D01*
X116068968Y-135854792D01*
X116125730Y-135897438D01*
X116142712Y-135928541D01*
X116147438Y-135941147D01*
X116187085Y-136046905D01*
X116274439Y-136163461D01*
X116390995Y-136250815D01*
X116527384Y-136301945D01*
X116589566Y-136308700D01*
X118385834Y-136308700D01*
X118448016Y-136301945D01*
X118584405Y-136250815D01*
X118700961Y-136163461D01*
X118788315Y-136046905D01*
X118839445Y-135910516D01*
X118846200Y-135848334D01*
X118846200Y-135094362D01*
X129738409Y-135094362D01*
X129738706Y-135099514D01*
X129738706Y-135099518D01*
X129748823Y-135274981D01*
X129751397Y-135319614D01*
X129752534Y-135324660D01*
X129752535Y-135324666D01*
X129783895Y-135463821D01*
X129801000Y-135539720D01*
X129802942Y-135544502D01*
X129802943Y-135544506D01*
X129872562Y-135715956D01*
X129885886Y-135748769D01*
X129888585Y-135753173D01*
X129999718Y-135934526D01*
X130003775Y-135941147D01*
X130151502Y-136111687D01*
X130278467Y-136217095D01*
X130309677Y-136243006D01*
X130325099Y-136255810D01*
X130329551Y-136258412D01*
X130329556Y-136258415D01*
X130515445Y-136367040D01*
X130519903Y-136369645D01*
X130730684Y-136450134D01*
X130735752Y-136451165D01*
X130735755Y-136451166D01*
X130844204Y-136473230D01*
X130951781Y-136495117D01*
X130956956Y-136495307D01*
X130956958Y-136495307D01*
X131172092Y-136503196D01*
X131172096Y-136503196D01*
X131177256Y-136503385D01*
X131182376Y-136502729D01*
X131182378Y-136502729D01*
X131251785Y-136493838D01*
X131401053Y-136474716D01*
X131406002Y-136473231D01*
X131406008Y-136473230D01*
X131612213Y-136411365D01*
X131612212Y-136411365D01*
X131617163Y-136409880D01*
X131732925Y-136353169D01*
X131815131Y-136312897D01*
X131815136Y-136312894D01*
X131819782Y-136310618D01*
X131823992Y-136307615D01*
X131823997Y-136307612D01*
X131999255Y-136182601D01*
X131999259Y-136182597D01*
X132003467Y-136179596D01*
X132163287Y-136020333D01*
X132294950Y-135837105D01*
X132316816Y-135792862D01*
X153144509Y-135792862D01*
X153144806Y-135798014D01*
X153144806Y-135798018D01*
X153151853Y-135920231D01*
X153157497Y-136018114D01*
X153158634Y-136023160D01*
X153158635Y-136023166D01*
X153179329Y-136114989D01*
X153207100Y-136238220D01*
X153209042Y-136243002D01*
X153209043Y-136243006D01*
X153276804Y-136409880D01*
X153291986Y-136447269D01*
X153409875Y-136639647D01*
X153557602Y-136810187D01*
X153731199Y-136954310D01*
X153735651Y-136956912D01*
X153735656Y-136956915D01*
X153921545Y-137065540D01*
X153926003Y-137068145D01*
X154136784Y-137148634D01*
X154141852Y-137149665D01*
X154141855Y-137149666D01*
X154250304Y-137171730D01*
X154357881Y-137193617D01*
X154363056Y-137193807D01*
X154363058Y-137193807D01*
X154578192Y-137201696D01*
X154578196Y-137201696D01*
X154583356Y-137201885D01*
X154588476Y-137201229D01*
X154588478Y-137201229D01*
X154657885Y-137192338D01*
X154807153Y-137173216D01*
X154812102Y-137171731D01*
X154812108Y-137171730D01*
X155018313Y-137109865D01*
X155018312Y-137109865D01*
X155023263Y-137108380D01*
X155195331Y-137024085D01*
X155221231Y-137011397D01*
X155221236Y-137011394D01*
X155225882Y-137009118D01*
X155230092Y-137006115D01*
X155230097Y-137006112D01*
X155405355Y-136881101D01*
X155405359Y-136881097D01*
X155409567Y-136878096D01*
X155569387Y-136718833D01*
X155701050Y-136535605D01*
X155782162Y-136371487D01*
X155798724Y-136337977D01*
X155798725Y-136337975D01*
X155801018Y-136333335D01*
X155866608Y-136117452D01*
X155873486Y-136065206D01*
X155895621Y-135897078D01*
X155895622Y-135897072D01*
X155896058Y-135893756D01*
X155896308Y-135883520D01*
X155897620Y-135829864D01*
X155897620Y-135829860D01*
X155897702Y-135826500D01*
X155880319Y-135615062D01*
X158288009Y-135615062D01*
X158288306Y-135620214D01*
X158288306Y-135620218D01*
X158295841Y-135750889D01*
X158300997Y-135840314D01*
X158302134Y-135845360D01*
X158302135Y-135845366D01*
X158322729Y-135936748D01*
X158350600Y-136060420D01*
X158352542Y-136065202D01*
X158352543Y-136065206D01*
X158430579Y-136257385D01*
X158435486Y-136269469D01*
X158455387Y-136301945D01*
X158546830Y-136451166D01*
X158553375Y-136461847D01*
X158701102Y-136632387D01*
X158874699Y-136776510D01*
X158879151Y-136779112D01*
X158879156Y-136779115D01*
X159048541Y-136878096D01*
X159069503Y-136890345D01*
X159280284Y-136970834D01*
X159285352Y-136971865D01*
X159285355Y-136971866D01*
X159393804Y-136993930D01*
X159501381Y-137015817D01*
X159506556Y-137016007D01*
X159506558Y-137016007D01*
X159721692Y-137023896D01*
X159721696Y-137023896D01*
X159726856Y-137024085D01*
X159731976Y-137023429D01*
X159731978Y-137023429D01*
X159801385Y-137014538D01*
X159950653Y-136995416D01*
X159955602Y-136993931D01*
X159955608Y-136993930D01*
X160161813Y-136932065D01*
X160161812Y-136932065D01*
X160166763Y-136930580D01*
X160281349Y-136874445D01*
X160364731Y-136833597D01*
X160364736Y-136833594D01*
X160369382Y-136831318D01*
X160373592Y-136828315D01*
X160373597Y-136828312D01*
X160548855Y-136703301D01*
X160548859Y-136703297D01*
X160553067Y-136700296D01*
X160712887Y-136541033D01*
X160844550Y-136357805D01*
X160903653Y-136238220D01*
X160942224Y-136160177D01*
X160942225Y-136160175D01*
X160944518Y-136155535D01*
X161010108Y-135939652D01*
X161011716Y-135927440D01*
X161039121Y-135719278D01*
X161039122Y-135719272D01*
X161039558Y-135715956D01*
X161041202Y-135648700D01*
X161022715Y-135423832D01*
X160967749Y-135205004D01*
X160877780Y-134998091D01*
X160816348Y-134903132D01*
X160758034Y-134812991D01*
X160758032Y-134812988D01*
X160755226Y-134808651D01*
X160603377Y-134641771D01*
X160599326Y-134638572D01*
X160599322Y-134638568D01*
X160430366Y-134505134D01*
X160430362Y-134505132D01*
X160426311Y-134501932D01*
X160417562Y-134497102D01*
X160320778Y-134443675D01*
X160228783Y-134392891D01*
X160016098Y-134317576D01*
X159965697Y-134308598D01*
X159799057Y-134278914D01*
X159799053Y-134278914D01*
X159793969Y-134278008D01*
X159721974Y-134277129D01*
X159573529Y-134275315D01*
X159573527Y-134275315D01*
X159568359Y-134275252D01*
X159345329Y-134309380D01*
X159130868Y-134379477D01*
X159126276Y-134381867D01*
X159126277Y-134381867D01*
X158938717Y-134479505D01*
X158930735Y-134483660D01*
X158926602Y-134486763D01*
X158926599Y-134486765D01*
X158754440Y-134616025D01*
X158750305Y-134619130D01*
X158594424Y-134782250D01*
X158467278Y-134968640D01*
X158465104Y-134973324D01*
X158465102Y-134973327D01*
X158384746Y-135146440D01*
X158372281Y-135173293D01*
X158311985Y-135390713D01*
X158288009Y-135615062D01*
X155880319Y-135615062D01*
X155879215Y-135601632D01*
X155824249Y-135382804D01*
X155734280Y-135175891D01*
X155622329Y-135002841D01*
X155614534Y-134990791D01*
X155614532Y-134990788D01*
X155611726Y-134986451D01*
X155459877Y-134819571D01*
X155455826Y-134816372D01*
X155455822Y-134816368D01*
X155286866Y-134682934D01*
X155286862Y-134682932D01*
X155282811Y-134679732D01*
X155201857Y-134635043D01*
X156446208Y-134635043D01*
X156462345Y-134799621D01*
X156514543Y-134956534D01*
X156518190Y-134962556D01*
X156518191Y-134962558D01*
X156594906Y-135089229D01*
X156600208Y-135097984D01*
X156605097Y-135103047D01*
X156605098Y-135103048D01*
X156629194Y-135128000D01*
X156715082Y-135216939D01*
X156720974Y-135220794D01*
X156720978Y-135220798D01*
X156800529Y-135272854D01*
X156853455Y-135307488D01*
X157008451Y-135365130D01*
X157015432Y-135366061D01*
X157015434Y-135366062D01*
X157165385Y-135386070D01*
X157165389Y-135386070D01*
X157172366Y-135387001D01*
X157179378Y-135386363D01*
X157179381Y-135386363D01*
X157330034Y-135372653D01*
X157330037Y-135372652D01*
X157337052Y-135372014D01*
X157380678Y-135357839D01*
X157487630Y-135323088D01*
X157487632Y-135323087D01*
X157494326Y-135320912D01*
X157636370Y-135236237D01*
X157756124Y-135122197D01*
X157847637Y-134984459D01*
X157906360Y-134829869D01*
X157927461Y-134679732D01*
X157928824Y-134670033D01*
X157928824Y-134670030D01*
X157929375Y-134666111D01*
X157929664Y-134645400D01*
X157911231Y-134481063D01*
X157901499Y-134453115D01*
X157859165Y-134331551D01*
X157856847Y-134324894D01*
X157769216Y-134184655D01*
X157703498Y-134118477D01*
X157657655Y-134072312D01*
X157657651Y-134072309D01*
X157652692Y-134067315D01*
X157642556Y-134060882D01*
X157592114Y-134028871D01*
X157513068Y-133978707D01*
X157452318Y-133957075D01*
X157363916Y-133925596D01*
X157363914Y-133925595D01*
X157357282Y-133923234D01*
X157350296Y-133922401D01*
X157350292Y-133922400D01*
X157233215Y-133908440D01*
X157193078Y-133903654D01*
X157186076Y-133904390D01*
X157186074Y-133904390D01*
X157035617Y-133920204D01*
X157035615Y-133920204D01*
X157028617Y-133920940D01*
X156946331Y-133948952D01*
X156878742Y-133971961D01*
X156878739Y-133971962D01*
X156872072Y-133974232D01*
X156866073Y-133977922D01*
X156866072Y-133977923D01*
X156846630Y-133989884D01*
X156731224Y-134060882D01*
X156613074Y-134176583D01*
X156523493Y-134315586D01*
X156521084Y-134322206D01*
X156521083Y-134322207D01*
X156495985Y-134391164D01*
X156466934Y-134470980D01*
X156446208Y-134635043D01*
X155201857Y-134635043D01*
X155085283Y-134570691D01*
X154872598Y-134495376D01*
X154783501Y-134479505D01*
X154655557Y-134456714D01*
X154655553Y-134456714D01*
X154650469Y-134455808D01*
X154578474Y-134454929D01*
X154430029Y-134453115D01*
X154430027Y-134453115D01*
X154424859Y-134453052D01*
X154201829Y-134487180D01*
X153987368Y-134557277D01*
X153982776Y-134559667D01*
X153982777Y-134559667D01*
X153813280Y-134647902D01*
X153787235Y-134661460D01*
X153783102Y-134664563D01*
X153783099Y-134664565D01*
X153758634Y-134682934D01*
X153606805Y-134796930D01*
X153450924Y-134960050D01*
X153323778Y-135146440D01*
X153321604Y-135151124D01*
X153321602Y-135151127D01*
X153237943Y-135331356D01*
X153228781Y-135351093D01*
X153168485Y-135568513D01*
X153144509Y-135792862D01*
X132316816Y-135792862D01*
X132386403Y-135652064D01*
X132392624Y-135639477D01*
X132392625Y-135639475D01*
X132394918Y-135634835D01*
X132460508Y-135418952D01*
X132463077Y-135399439D01*
X132489521Y-135198578D01*
X132489522Y-135198572D01*
X132489958Y-135195256D01*
X132491602Y-135128000D01*
X132473115Y-134903132D01*
X132418149Y-134684304D01*
X132328180Y-134477391D01*
X132233832Y-134331551D01*
X132208434Y-134292291D01*
X132208432Y-134292288D01*
X132205626Y-134287951D01*
X132053777Y-134121071D01*
X132049726Y-134117872D01*
X132049722Y-134117868D01*
X131880766Y-133984434D01*
X131880762Y-133984432D01*
X131876711Y-133981232D01*
X131864031Y-133974232D01*
X131775926Y-133925596D01*
X131679183Y-133872191D01*
X131466498Y-133796876D01*
X131429508Y-133790287D01*
X131249457Y-133758214D01*
X131249453Y-133758214D01*
X131244369Y-133757308D01*
X131172374Y-133756429D01*
X131023929Y-133754615D01*
X131023927Y-133754615D01*
X131018759Y-133754552D01*
X130795729Y-133788680D01*
X130581268Y-133858777D01*
X130576676Y-133861167D01*
X130576677Y-133861167D01*
X130405939Y-133950048D01*
X130381135Y-133962960D01*
X130377002Y-133966063D01*
X130376999Y-133966065D01*
X130204840Y-134095325D01*
X130200705Y-134098430D01*
X130197133Y-134102168D01*
X130118307Y-134184655D01*
X130044824Y-134261550D01*
X129917678Y-134447940D01*
X129915504Y-134452624D01*
X129915502Y-134452627D01*
X129825932Y-134645590D01*
X129822681Y-134652593D01*
X129762385Y-134870013D01*
X129738409Y-135094362D01*
X118846200Y-135094362D01*
X118846200Y-134052066D01*
X118839445Y-133989884D01*
X118788315Y-133853495D01*
X118700961Y-133736939D01*
X118584405Y-133649585D01*
X118557605Y-133639538D01*
X118465903Y-133605160D01*
X118409139Y-133562518D01*
X118384439Y-133495956D01*
X118399647Y-133426608D01*
X118421193Y-133397927D01*
X118522135Y-133297337D01*
X118525796Y-133293689D01*
X118585294Y-133210889D01*
X118653135Y-133116477D01*
X118656153Y-133112277D01*
X118677020Y-133070057D01*
X118752836Y-132916653D01*
X118752837Y-132916651D01*
X118755130Y-132912011D01*
X118820070Y-132698269D01*
X118849229Y-132476790D01*
X118850856Y-132410200D01*
X118832552Y-132187561D01*
X118778131Y-131970902D01*
X118689054Y-131766040D01*
X118567714Y-131578477D01*
X118417370Y-131413251D01*
X118413319Y-131410052D01*
X118413315Y-131410048D01*
X118246114Y-131278000D01*
X118246110Y-131277998D01*
X118242059Y-131274798D01*
X118200753Y-131251996D01*
X118150784Y-131201564D01*
X118136012Y-131132121D01*
X118161128Y-131065716D01*
X118188480Y-131039109D01*
X118232303Y-131007850D01*
X118367560Y-130911373D01*
X118525796Y-130753689D01*
X118585294Y-130670889D01*
X118653135Y-130576477D01*
X118656153Y-130572277D01*
X118677020Y-130530057D01*
X118752836Y-130376653D01*
X118752837Y-130376651D01*
X118755130Y-130372011D01*
X118792757Y-130248166D01*
X118818565Y-130163223D01*
X118818565Y-130163221D01*
X118820070Y-130158269D01*
X118849229Y-129936790D01*
X118850856Y-129870200D01*
X118832552Y-129647561D01*
X118778131Y-129430902D01*
X118689054Y-129226040D01*
X118567714Y-129038477D01*
X118417370Y-128873251D01*
X118413319Y-128870052D01*
X118413315Y-128870048D01*
X118246114Y-128738000D01*
X118246110Y-128737998D01*
X118242059Y-128734798D01*
X118200753Y-128711996D01*
X118150784Y-128661564D01*
X118136012Y-128592121D01*
X118161128Y-128525716D01*
X118188480Y-128499109D01*
X118232303Y-128467850D01*
X118367560Y-128371373D01*
X118525796Y-128213689D01*
X118585294Y-128130889D01*
X118653135Y-128036477D01*
X118656153Y-128032277D01*
X118677020Y-127990057D01*
X118752836Y-127836653D01*
X118752837Y-127836651D01*
X118755130Y-127832011D01*
X118820070Y-127618269D01*
X118849229Y-127396790D01*
X118850856Y-127330200D01*
X118832552Y-127107561D01*
X118778131Y-126890902D01*
X118689054Y-126686040D01*
X118567714Y-126498477D01*
X118417370Y-126333251D01*
X118413319Y-126330052D01*
X118413315Y-126330048D01*
X118270251Y-126217062D01*
X139365009Y-126217062D01*
X139365306Y-126222214D01*
X139365306Y-126222218D01*
X139371018Y-126321278D01*
X139377997Y-126442314D01*
X139379134Y-126447360D01*
X139379135Y-126447366D01*
X139400384Y-126541652D01*
X139427600Y-126662420D01*
X139429542Y-126667202D01*
X139429543Y-126667206D01*
X139510542Y-126866682D01*
X139512486Y-126871469D01*
X139630375Y-127063847D01*
X139778102Y-127234387D01*
X139951699Y-127378510D01*
X139956151Y-127381112D01*
X139956156Y-127381115D01*
X140045491Y-127433318D01*
X140146503Y-127492345D01*
X140357284Y-127572834D01*
X140362352Y-127573865D01*
X140362355Y-127573866D01*
X140470804Y-127595930D01*
X140578381Y-127617817D01*
X140583556Y-127618007D01*
X140583558Y-127618007D01*
X140798692Y-127625896D01*
X140798696Y-127625896D01*
X140803856Y-127626085D01*
X140808976Y-127625429D01*
X140808978Y-127625429D01*
X140878385Y-127616538D01*
X141027653Y-127597416D01*
X141032602Y-127595931D01*
X141032608Y-127595930D01*
X141238813Y-127534065D01*
X141238812Y-127534065D01*
X141243763Y-127532580D01*
X141338819Y-127486012D01*
X141441731Y-127435597D01*
X141441736Y-127435594D01*
X141446382Y-127433318D01*
X141450592Y-127430315D01*
X141450597Y-127430312D01*
X141625855Y-127305301D01*
X141625859Y-127305297D01*
X141630067Y-127302296D01*
X141789887Y-127143033D01*
X141921550Y-126959805D01*
X142021518Y-126757535D01*
X142087108Y-126541652D01*
X142095672Y-126476603D01*
X142116121Y-126321278D01*
X142116122Y-126321272D01*
X142116558Y-126317956D01*
X142118202Y-126250700D01*
X142115437Y-126217062D01*
X143937009Y-126217062D01*
X143937306Y-126222214D01*
X143937306Y-126222218D01*
X143943018Y-126321278D01*
X143949997Y-126442314D01*
X143951134Y-126447360D01*
X143951135Y-126447366D01*
X143972384Y-126541652D01*
X143999600Y-126662420D01*
X144001542Y-126667202D01*
X144001543Y-126667206D01*
X144082542Y-126866682D01*
X144084486Y-126871469D01*
X144202375Y-127063847D01*
X144350102Y-127234387D01*
X144523699Y-127378510D01*
X144528151Y-127381112D01*
X144528156Y-127381115D01*
X144617491Y-127433318D01*
X144718503Y-127492345D01*
X144929284Y-127572834D01*
X144934352Y-127573865D01*
X144934355Y-127573866D01*
X145042804Y-127595930D01*
X145150381Y-127617817D01*
X145155556Y-127618007D01*
X145155558Y-127618007D01*
X145370692Y-127625896D01*
X145370696Y-127625896D01*
X145375856Y-127626085D01*
X145380976Y-127625429D01*
X145380978Y-127625429D01*
X145450385Y-127616538D01*
X145599653Y-127597416D01*
X145604602Y-127595931D01*
X145604608Y-127595930D01*
X145810813Y-127534065D01*
X145810812Y-127534065D01*
X145815763Y-127532580D01*
X145910819Y-127486012D01*
X146013731Y-127435597D01*
X146013736Y-127435594D01*
X146018382Y-127433318D01*
X146022592Y-127430315D01*
X146022597Y-127430312D01*
X146197855Y-127305301D01*
X146197859Y-127305297D01*
X146202067Y-127302296D01*
X146361887Y-127143033D01*
X146493550Y-126959805D01*
X146593518Y-126757535D01*
X146659108Y-126541652D01*
X146667672Y-126476603D01*
X146688121Y-126321278D01*
X146688122Y-126321272D01*
X146688558Y-126317956D01*
X146690202Y-126250700D01*
X146671715Y-126025832D01*
X146616749Y-125807004D01*
X146526780Y-125600091D01*
X146454031Y-125487638D01*
X146407034Y-125414991D01*
X146407032Y-125414988D01*
X146404226Y-125410651D01*
X146252377Y-125243771D01*
X146248326Y-125240572D01*
X146248322Y-125240568D01*
X146079366Y-125107134D01*
X146079362Y-125107132D01*
X146075311Y-125103932D01*
X146028823Y-125078269D01*
X146014606Y-125070421D01*
X145877783Y-124994891D01*
X145665098Y-124919576D01*
X145614697Y-124910598D01*
X145448057Y-124880914D01*
X145448053Y-124880914D01*
X145442969Y-124880008D01*
X145370974Y-124879129D01*
X145222529Y-124877315D01*
X145222527Y-124877315D01*
X145217359Y-124877252D01*
X144994329Y-124911380D01*
X144779868Y-124981477D01*
X144775276Y-124983867D01*
X144775277Y-124983867D01*
X144603788Y-125073139D01*
X144579735Y-125085660D01*
X144575602Y-125088763D01*
X144575599Y-125088765D01*
X144403440Y-125218025D01*
X144399305Y-125221130D01*
X144243424Y-125384250D01*
X144116278Y-125570640D01*
X144114104Y-125575324D01*
X144114102Y-125575327D01*
X144028273Y-125760231D01*
X144021281Y-125775293D01*
X143960985Y-125992713D01*
X143937009Y-126217062D01*
X142115437Y-126217062D01*
X142099715Y-126025832D01*
X142044749Y-125807004D01*
X141954780Y-125600091D01*
X141882031Y-125487638D01*
X141835034Y-125414991D01*
X141835032Y-125414988D01*
X141832226Y-125410651D01*
X141680377Y-125243771D01*
X141676326Y-125240572D01*
X141676322Y-125240568D01*
X141507366Y-125107134D01*
X141507362Y-125107132D01*
X141503311Y-125103932D01*
X141456823Y-125078269D01*
X141442606Y-125070421D01*
X141305783Y-124994891D01*
X141093098Y-124919576D01*
X141042697Y-124910598D01*
X140876057Y-124880914D01*
X140876053Y-124880914D01*
X140870969Y-124880008D01*
X140798974Y-124879129D01*
X140650529Y-124877315D01*
X140650527Y-124877315D01*
X140645359Y-124877252D01*
X140422329Y-124911380D01*
X140207868Y-124981477D01*
X140203276Y-124983867D01*
X140203277Y-124983867D01*
X140031788Y-125073139D01*
X140007735Y-125085660D01*
X140003602Y-125088763D01*
X140003599Y-125088765D01*
X139831440Y-125218025D01*
X139827305Y-125221130D01*
X139671424Y-125384250D01*
X139544278Y-125570640D01*
X139542104Y-125575324D01*
X139542102Y-125575327D01*
X139456273Y-125760231D01*
X139449281Y-125775293D01*
X139388985Y-125992713D01*
X139365009Y-126217062D01*
X118270251Y-126217062D01*
X118246114Y-126198000D01*
X118246110Y-126197998D01*
X118242059Y-126194798D01*
X118200753Y-126171996D01*
X118150784Y-126121564D01*
X118136012Y-126052121D01*
X118161128Y-125985716D01*
X118188480Y-125959109D01*
X118232303Y-125927850D01*
X118367560Y-125831373D01*
X118525796Y-125673689D01*
X118585294Y-125590889D01*
X118653135Y-125496477D01*
X118656153Y-125492277D01*
X118677020Y-125450057D01*
X118752836Y-125296653D01*
X118752837Y-125296651D01*
X118755130Y-125292011D01*
X118816881Y-125088765D01*
X118818565Y-125083223D01*
X118818565Y-125083221D01*
X118820070Y-125078269D01*
X118849229Y-124856790D01*
X118850856Y-124790200D01*
X118832552Y-124567561D01*
X118778131Y-124350902D01*
X118689054Y-124146040D01*
X118567714Y-123958477D01*
X118417370Y-123793251D01*
X118413319Y-123790052D01*
X118413315Y-123790048D01*
X118246114Y-123658000D01*
X118246110Y-123657998D01*
X118242059Y-123654798D01*
X118200753Y-123631996D01*
X118150784Y-123581564D01*
X118136012Y-123512121D01*
X118161128Y-123445716D01*
X118188480Y-123419109D01*
X118232303Y-123387850D01*
X118367560Y-123291373D01*
X118525796Y-123133689D01*
X118585294Y-123050889D01*
X118653135Y-122956477D01*
X118656153Y-122952277D01*
X118677020Y-122910057D01*
X118752836Y-122756653D01*
X118752837Y-122756651D01*
X118755130Y-122752011D01*
X118820070Y-122538269D01*
X118849229Y-122316790D01*
X118850856Y-122250200D01*
X118832552Y-122027561D01*
X118778131Y-121810902D01*
X118689054Y-121606040D01*
X118567714Y-121418477D01*
X118417370Y-121253251D01*
X118413319Y-121250052D01*
X118413315Y-121250048D01*
X118246114Y-121118000D01*
X118246110Y-121117998D01*
X118242059Y-121114798D01*
X118200753Y-121091996D01*
X118150784Y-121041564D01*
X118136012Y-120972121D01*
X118161128Y-120905716D01*
X118188480Y-120879109D01*
X118232303Y-120847850D01*
X118367560Y-120751373D01*
X118525796Y-120593689D01*
X118585294Y-120510889D01*
X118653135Y-120416477D01*
X118656153Y-120412277D01*
X118677020Y-120370057D01*
X118752836Y-120216653D01*
X118752837Y-120216651D01*
X118755130Y-120212011D01*
X118820070Y-119998269D01*
X118823968Y-119968662D01*
X149855209Y-119968662D01*
X149855506Y-119973814D01*
X149855506Y-119973818D01*
X149864672Y-120132782D01*
X149868197Y-120193914D01*
X149869334Y-120198960D01*
X149869335Y-120198966D01*
X149900695Y-120338121D01*
X149917800Y-120414020D01*
X149919742Y-120418802D01*
X149919743Y-120418806D01*
X149960505Y-120519190D01*
X150002686Y-120623069D01*
X150053977Y-120706769D01*
X150081311Y-120751373D01*
X150120575Y-120815447D01*
X150268302Y-120985987D01*
X150441899Y-121130110D01*
X150446351Y-121132712D01*
X150446356Y-121132715D01*
X150614268Y-121230835D01*
X150636703Y-121243945D01*
X150847484Y-121324434D01*
X150852552Y-121325465D01*
X150852555Y-121325466D01*
X150961004Y-121347530D01*
X151068581Y-121369417D01*
X151073756Y-121369607D01*
X151073758Y-121369607D01*
X151288892Y-121377496D01*
X151288896Y-121377496D01*
X151294056Y-121377685D01*
X151299176Y-121377029D01*
X151299178Y-121377029D01*
X151368585Y-121368138D01*
X151517853Y-121349016D01*
X151522802Y-121347531D01*
X151522808Y-121347530D01*
X151729013Y-121285665D01*
X151729012Y-121285665D01*
X151733963Y-121284180D01*
X151849192Y-121227730D01*
X151931931Y-121187197D01*
X151931936Y-121187194D01*
X151936582Y-121184918D01*
X151940792Y-121181915D01*
X151940797Y-121181912D01*
X152116055Y-121056901D01*
X152116059Y-121056897D01*
X152120267Y-121053896D01*
X152280087Y-120894633D01*
X152411750Y-120711405D01*
X152511718Y-120509135D01*
X152577308Y-120293252D01*
X152585947Y-120227633D01*
X152606321Y-120072878D01*
X152606322Y-120072872D01*
X152606758Y-120069556D01*
X152608402Y-120002300D01*
X152589915Y-119777432D01*
X152534949Y-119558604D01*
X152444980Y-119351691D01*
X152366772Y-119230799D01*
X152325234Y-119166591D01*
X152325232Y-119166588D01*
X152322426Y-119162251D01*
X152170577Y-118995371D01*
X152166526Y-118992172D01*
X152166522Y-118992168D01*
X151997566Y-118858734D01*
X151997562Y-118858732D01*
X151993511Y-118855532D01*
X151980956Y-118848601D01*
X151932806Y-118822021D01*
X151795983Y-118746491D01*
X151583298Y-118671176D01*
X151532897Y-118662198D01*
X151366257Y-118632514D01*
X151366253Y-118632514D01*
X151361169Y-118631608D01*
X151289174Y-118630729D01*
X151140729Y-118628915D01*
X151140727Y-118628915D01*
X151135559Y-118628852D01*
X150912529Y-118662980D01*
X150698068Y-118733077D01*
X150693476Y-118735467D01*
X150693477Y-118735467D01*
X150576513Y-118796355D01*
X150497935Y-118837260D01*
X150493802Y-118840363D01*
X150493799Y-118840365D01*
X150347471Y-118950231D01*
X150317505Y-118972730D01*
X150313933Y-118976468D01*
X150212992Y-119082097D01*
X150161624Y-119135850D01*
X150034478Y-119322240D01*
X150032304Y-119326924D01*
X150032302Y-119326927D01*
X149955343Y-119492722D01*
X149939481Y-119526893D01*
X149879185Y-119744313D01*
X149855209Y-119968662D01*
X118823968Y-119968662D01*
X118849229Y-119776790D01*
X118850856Y-119710200D01*
X118832552Y-119487561D01*
X118778131Y-119270902D01*
X118689054Y-119066040D01*
X118596167Y-118922458D01*
X118570522Y-118882817D01*
X118570520Y-118882814D01*
X118567714Y-118878477D01*
X118417370Y-118713251D01*
X118413319Y-118710052D01*
X118413315Y-118710048D01*
X118267567Y-118594943D01*
X135948408Y-118594943D01*
X135964545Y-118759521D01*
X136016743Y-118916434D01*
X136020390Y-118922456D01*
X136020391Y-118922458D01*
X136089688Y-119036880D01*
X136102408Y-119057884D01*
X136107297Y-119062947D01*
X136107298Y-119062948D01*
X136174090Y-119132113D01*
X136217282Y-119176839D01*
X136223174Y-119180694D01*
X136223178Y-119180698D01*
X136285693Y-119221606D01*
X136355655Y-119267388D01*
X136510651Y-119325030D01*
X136517632Y-119325961D01*
X136517634Y-119325962D01*
X136667585Y-119345970D01*
X136667589Y-119345970D01*
X136674566Y-119346901D01*
X136681578Y-119346263D01*
X136681581Y-119346263D01*
X136832234Y-119332553D01*
X136832237Y-119332552D01*
X136839252Y-119331914D01*
X136869025Y-119322240D01*
X136989830Y-119282988D01*
X136989832Y-119282987D01*
X136996526Y-119280812D01*
X137080424Y-119230799D01*
X137132518Y-119199745D01*
X137132520Y-119199744D01*
X137138570Y-119196137D01*
X137258324Y-119082097D01*
X137262225Y-119076226D01*
X137345936Y-118950231D01*
X137345937Y-118950229D01*
X137349837Y-118944359D01*
X137408560Y-118789769D01*
X137425355Y-118670269D01*
X137431024Y-118629933D01*
X137431024Y-118629930D01*
X137431575Y-118626011D01*
X137431864Y-118605300D01*
X137413431Y-118440963D01*
X137359047Y-118284794D01*
X137271416Y-118144555D01*
X137181182Y-118053689D01*
X137159855Y-118032212D01*
X137159851Y-118032209D01*
X137154892Y-118027215D01*
X137144756Y-118020782D01*
X137101065Y-117993055D01*
X137015268Y-117938607D01*
X136965781Y-117920985D01*
X136866116Y-117885496D01*
X136866114Y-117885495D01*
X136859482Y-117883134D01*
X136852496Y-117882301D01*
X136852492Y-117882300D01*
X136735415Y-117868340D01*
X136695278Y-117863554D01*
X136688276Y-117864290D01*
X136688274Y-117864290D01*
X136537817Y-117880104D01*
X136537815Y-117880104D01*
X136530817Y-117880840D01*
X136448531Y-117908852D01*
X136380942Y-117931861D01*
X136380939Y-117931862D01*
X136374272Y-117934132D01*
X136368273Y-117937822D01*
X136368272Y-117937823D01*
X136301031Y-117979190D01*
X136233424Y-118020782D01*
X136115274Y-118136483D01*
X136025693Y-118275486D01*
X136023284Y-118282106D01*
X136023283Y-118282107D01*
X135971543Y-118424261D01*
X135969134Y-118430880D01*
X135948408Y-118594943D01*
X118267567Y-118594943D01*
X118246114Y-118578000D01*
X118246110Y-118577998D01*
X118242059Y-118574798D01*
X118200753Y-118551996D01*
X118150784Y-118501564D01*
X118136012Y-118432121D01*
X118161128Y-118365716D01*
X118188480Y-118339109D01*
X118255294Y-118291451D01*
X118367560Y-118211373D01*
X118525796Y-118053689D01*
X118544820Y-118027215D01*
X118653135Y-117876477D01*
X118656153Y-117872277D01*
X118660101Y-117864290D01*
X118752836Y-117676653D01*
X118752837Y-117676651D01*
X118755130Y-117672011D01*
X118820070Y-117458269D01*
X118849229Y-117236790D01*
X118850856Y-117170200D01*
X118832552Y-116947561D01*
X118778131Y-116730902D01*
X118689054Y-116526040D01*
X118567714Y-116338477D01*
X118417370Y-116173251D01*
X118413319Y-116170052D01*
X118413315Y-116170048D01*
X118246114Y-116038000D01*
X118246110Y-116037998D01*
X118242059Y-116034798D01*
X118200753Y-116011996D01*
X118150784Y-115961564D01*
X118136012Y-115892121D01*
X118161128Y-115825716D01*
X118188480Y-115799109D01*
X118232303Y-115767850D01*
X118367560Y-115671373D01*
X118412123Y-115626966D01*
X118522135Y-115517337D01*
X118525796Y-115513689D01*
X118583300Y-115433664D01*
X118609888Y-115396662D01*
X149855209Y-115396662D01*
X149855506Y-115401814D01*
X149855506Y-115401818D01*
X149861218Y-115500878D01*
X149868197Y-115621914D01*
X149869334Y-115626960D01*
X149869335Y-115626966D01*
X149890584Y-115721252D01*
X149917800Y-115842020D01*
X149919742Y-115846802D01*
X149919743Y-115846806D01*
X149987763Y-116014318D01*
X150002686Y-116051069D01*
X150120575Y-116243447D01*
X150268302Y-116413987D01*
X150441899Y-116558110D01*
X150446351Y-116560712D01*
X150446356Y-116560715D01*
X150535691Y-116612918D01*
X150636703Y-116671945D01*
X150847484Y-116752434D01*
X150852552Y-116753465D01*
X150852555Y-116753466D01*
X150961004Y-116775530D01*
X151068581Y-116797417D01*
X151073756Y-116797607D01*
X151073758Y-116797607D01*
X151288892Y-116805496D01*
X151288896Y-116805496D01*
X151294056Y-116805685D01*
X151299176Y-116805029D01*
X151299178Y-116805029D01*
X151368585Y-116796138D01*
X151517853Y-116777016D01*
X151522802Y-116775531D01*
X151522808Y-116775530D01*
X151729013Y-116713665D01*
X151729012Y-116713665D01*
X151733963Y-116712180D01*
X151829019Y-116665612D01*
X151931931Y-116615197D01*
X151931936Y-116615194D01*
X151936582Y-116612918D01*
X151940792Y-116609915D01*
X151940797Y-116609912D01*
X152116055Y-116484901D01*
X152116059Y-116484897D01*
X152120267Y-116481896D01*
X152280087Y-116322633D01*
X152411750Y-116139405D01*
X152492080Y-115976869D01*
X152509424Y-115941777D01*
X152509425Y-115941775D01*
X152511718Y-115937135D01*
X152577308Y-115721252D01*
X152583875Y-115671373D01*
X152606321Y-115500878D01*
X152606322Y-115500872D01*
X152606758Y-115497556D01*
X152608402Y-115430300D01*
X152589915Y-115205432D01*
X152534949Y-114986604D01*
X152444980Y-114779691D01*
X152389182Y-114693440D01*
X152325234Y-114594591D01*
X152325232Y-114594588D01*
X152322426Y-114590251D01*
X152170577Y-114423371D01*
X152166526Y-114420172D01*
X152166522Y-114420168D01*
X151997566Y-114286734D01*
X151997562Y-114286732D01*
X151993511Y-114283532D01*
X151795983Y-114174491D01*
X151583298Y-114099176D01*
X151532897Y-114090198D01*
X151366257Y-114060514D01*
X151366253Y-114060514D01*
X151361169Y-114059608D01*
X151289174Y-114058729D01*
X151140729Y-114056915D01*
X151140727Y-114056915D01*
X151135559Y-114056852D01*
X150912529Y-114090980D01*
X150698068Y-114161077D01*
X150497935Y-114265260D01*
X150493802Y-114268363D01*
X150493799Y-114268365D01*
X150321640Y-114397625D01*
X150317505Y-114400730D01*
X150161624Y-114563850D01*
X150034478Y-114750240D01*
X150032304Y-114754924D01*
X150032302Y-114754927D01*
X149952289Y-114927301D01*
X149939481Y-114954893D01*
X149879185Y-115172313D01*
X149855209Y-115396662D01*
X118609888Y-115396662D01*
X118653135Y-115336477D01*
X118656153Y-115332277D01*
X118677020Y-115290057D01*
X118752836Y-115136653D01*
X118752837Y-115136651D01*
X118755130Y-115132011D01*
X118800751Y-114981856D01*
X118818565Y-114923223D01*
X118818565Y-114923221D01*
X118820070Y-114918269D01*
X118849229Y-114696790D01*
X118850067Y-114662497D01*
X118850774Y-114633565D01*
X118850774Y-114633561D01*
X118850856Y-114630200D01*
X118832552Y-114407561D01*
X118778131Y-114190902D01*
X118771366Y-114175343D01*
X126499608Y-114175343D01*
X126515745Y-114339921D01*
X126567943Y-114496834D01*
X126571590Y-114502856D01*
X126571591Y-114502858D01*
X126627147Y-114594591D01*
X126653608Y-114638284D01*
X126658497Y-114643347D01*
X126658498Y-114643348D01*
X126706872Y-114693440D01*
X126768482Y-114757239D01*
X126774374Y-114761094D01*
X126774378Y-114761098D01*
X126853929Y-114813154D01*
X126906855Y-114847788D01*
X127061851Y-114905430D01*
X127068832Y-114906361D01*
X127068834Y-114906362D01*
X127218785Y-114926370D01*
X127218789Y-114926370D01*
X127225766Y-114927301D01*
X127232778Y-114926663D01*
X127232781Y-114926663D01*
X127383434Y-114912953D01*
X127383437Y-114912952D01*
X127390452Y-114912314D01*
X127419194Y-114902975D01*
X127541030Y-114863388D01*
X127541032Y-114863387D01*
X127547726Y-114861212D01*
X127689770Y-114776537D01*
X127809524Y-114662497D01*
X127825611Y-114638284D01*
X127897136Y-114530631D01*
X127897137Y-114530629D01*
X127901037Y-114524759D01*
X127959760Y-114370169D01*
X127982775Y-114206411D01*
X127982921Y-114195920D01*
X127983009Y-114189662D01*
X127983009Y-114189657D01*
X127983064Y-114185700D01*
X127964631Y-114021363D01*
X127910247Y-113865194D01*
X127822616Y-113724955D01*
X127764108Y-113666037D01*
X127711055Y-113612612D01*
X127711051Y-113612609D01*
X127706092Y-113607615D01*
X127695956Y-113601182D01*
X127652265Y-113573455D01*
X127566468Y-113519007D01*
X127498481Y-113494798D01*
X127417316Y-113465896D01*
X127417314Y-113465895D01*
X127410682Y-113463534D01*
X127403696Y-113462701D01*
X127403692Y-113462700D01*
X127286615Y-113448740D01*
X127246478Y-113443954D01*
X127239476Y-113444690D01*
X127239474Y-113444690D01*
X127089017Y-113460504D01*
X127089015Y-113460504D01*
X127082017Y-113461240D01*
X127036583Y-113476707D01*
X126932142Y-113512261D01*
X126932139Y-113512262D01*
X126925472Y-113514532D01*
X126784624Y-113601182D01*
X126666474Y-113716883D01*
X126576893Y-113855886D01*
X126574484Y-113862506D01*
X126574483Y-113862507D01*
X126541691Y-113952601D01*
X126520334Y-114011280D01*
X126499608Y-114175343D01*
X118771366Y-114175343D01*
X118689054Y-113986040D01*
X118567714Y-113798477D01*
X118417370Y-113633251D01*
X118413319Y-113630052D01*
X118413315Y-113630048D01*
X118246114Y-113498000D01*
X118246110Y-113497998D01*
X118242059Y-113494798D01*
X118200753Y-113471996D01*
X118150784Y-113421564D01*
X118136012Y-113352121D01*
X118161128Y-113285716D01*
X118188480Y-113259109D01*
X118232303Y-113227850D01*
X118367560Y-113131373D01*
X118525796Y-112973689D01*
X118585294Y-112890889D01*
X118653135Y-112796477D01*
X118656153Y-112792277D01*
X118677020Y-112750057D01*
X118752836Y-112596653D01*
X118752837Y-112596651D01*
X118755130Y-112592011D01*
X118820070Y-112378269D01*
X118849229Y-112156790D01*
X118850856Y-112090200D01*
X118832552Y-111867561D01*
X118778131Y-111650902D01*
X118689054Y-111446040D01*
X118598958Y-111306773D01*
X118570522Y-111262817D01*
X118570520Y-111262814D01*
X118567714Y-111258477D01*
X118417370Y-111093251D01*
X118413319Y-111090052D01*
X118413315Y-111090048D01*
X118246114Y-110958000D01*
X118246110Y-110957998D01*
X118242059Y-110954798D01*
X118200753Y-110931996D01*
X118150784Y-110881564D01*
X118140931Y-110835243D01*
X119628908Y-110835243D01*
X119645045Y-110999821D01*
X119697243Y-111156734D01*
X119700890Y-111162756D01*
X119700891Y-111162758D01*
X119758861Y-111258477D01*
X119782908Y-111298184D01*
X119787797Y-111303247D01*
X119787798Y-111303248D01*
X119858345Y-111376301D01*
X119897782Y-111417139D01*
X119903674Y-111420994D01*
X119903678Y-111420998D01*
X119964923Y-111461075D01*
X120036155Y-111507688D01*
X120191151Y-111565330D01*
X120198132Y-111566261D01*
X120198134Y-111566262D01*
X120348085Y-111586270D01*
X120348089Y-111586270D01*
X120355066Y-111587201D01*
X120362078Y-111586563D01*
X120362081Y-111586563D01*
X120512734Y-111572853D01*
X120512737Y-111572852D01*
X120519752Y-111572214D01*
X120651442Y-111529425D01*
X120670330Y-111523288D01*
X120670332Y-111523287D01*
X120677026Y-111521112D01*
X120711360Y-111500645D01*
X120813018Y-111440045D01*
X120813020Y-111440044D01*
X120819070Y-111436437D01*
X120938824Y-111322397D01*
X120942565Y-111316766D01*
X137758657Y-111316766D01*
X137788965Y-111451246D01*
X137792045Y-111461075D01*
X137872170Y-111658403D01*
X137876813Y-111667594D01*
X137988094Y-111849188D01*
X137994177Y-111857499D01*
X138133613Y-112018467D01*
X138140980Y-112025683D01*
X138304834Y-112161716D01*
X138313281Y-112167631D01*
X138497156Y-112275079D01*
X138506442Y-112279529D01*
X138705401Y-112355503D01*
X138715299Y-112358379D01*
X138818650Y-112379406D01*
X138832699Y-112378210D01*
X138836400Y-112367865D01*
X138836400Y-111320915D01*
X138831925Y-111305676D01*
X138830535Y-111304471D01*
X138822852Y-111302800D01*
X137773625Y-111302800D01*
X137760094Y-111306773D01*
X137758657Y-111316766D01*
X120942565Y-111316766D01*
X120949205Y-111306773D01*
X121026436Y-111190531D01*
X121026437Y-111190529D01*
X121030337Y-111184659D01*
X121089060Y-111030069D01*
X121112075Y-110866311D01*
X121112364Y-110845600D01*
X121093931Y-110681263D01*
X121089815Y-110669442D01*
X121041865Y-110531751D01*
X121039547Y-110525094D01*
X120951916Y-110384855D01*
X120893408Y-110325937D01*
X120840355Y-110272512D01*
X120840351Y-110272509D01*
X120835392Y-110267515D01*
X120825256Y-110261082D01*
X120768941Y-110225344D01*
X120695768Y-110178907D01*
X120616458Y-110150666D01*
X120546616Y-110125796D01*
X120546614Y-110125795D01*
X120539982Y-110123434D01*
X120532996Y-110122601D01*
X120532992Y-110122600D01*
X120415915Y-110108640D01*
X120375778Y-110103854D01*
X120368776Y-110104590D01*
X120368774Y-110104590D01*
X120218317Y-110120404D01*
X120218315Y-110120404D01*
X120211317Y-110121140D01*
X120134563Y-110147269D01*
X120061442Y-110172161D01*
X120061439Y-110172162D01*
X120054772Y-110174432D01*
X120048773Y-110178122D01*
X120048772Y-110178123D01*
X119921409Y-110256477D01*
X119913924Y-110261082D01*
X119795774Y-110376783D01*
X119706193Y-110515786D01*
X119703784Y-110522406D01*
X119703783Y-110522407D01*
X119681631Y-110583270D01*
X119649634Y-110671180D01*
X119628908Y-110835243D01*
X118140931Y-110835243D01*
X118136012Y-110812121D01*
X118161128Y-110745716D01*
X118188480Y-110719109D01*
X118255674Y-110671180D01*
X118367560Y-110591373D01*
X118375692Y-110583270D01*
X118522135Y-110437337D01*
X118525796Y-110433689D01*
X118585294Y-110350889D01*
X118653135Y-110256477D01*
X118656153Y-110252277D01*
X118677020Y-110210057D01*
X118752836Y-110056653D01*
X118752837Y-110056651D01*
X118755130Y-110052011D01*
X118810261Y-109870553D01*
X118818565Y-109843223D01*
X118818565Y-109843221D01*
X118820070Y-109838269D01*
X118849229Y-109616790D01*
X118850856Y-109550200D01*
X118832552Y-109327561D01*
X118778131Y-109110902D01*
X118689054Y-108906040D01*
X118567714Y-108718477D01*
X118417370Y-108553251D01*
X118413319Y-108550052D01*
X118413315Y-108550048D01*
X118318915Y-108475495D01*
X137727651Y-108475495D01*
X137727948Y-108480648D01*
X137727948Y-108480651D01*
X137733411Y-108575390D01*
X137740510Y-108698515D01*
X137741647Y-108703561D01*
X137741648Y-108703567D01*
X137761519Y-108791739D01*
X137789622Y-108916439D01*
X137827861Y-109010611D01*
X137868585Y-109110902D01*
X137873666Y-109123416D01*
X137924419Y-109206238D01*
X137987691Y-109309488D01*
X137990387Y-109313888D01*
X138136650Y-109482738D01*
X138221246Y-109552971D01*
X138294082Y-109613440D01*
X138308526Y-109625432D01*
X138369596Y-109661118D01*
X138382355Y-109668574D01*
X138431079Y-109720212D01*
X138444150Y-109789995D01*
X138417419Y-109855767D01*
X138376962Y-109889127D01*
X138368857Y-109893346D01*
X138360138Y-109898836D01*
X138189833Y-110026705D01*
X138182126Y-110033548D01*
X138034990Y-110187517D01*
X138028504Y-110195527D01*
X137908498Y-110371449D01*
X137903400Y-110380423D01*
X137813738Y-110573583D01*
X137810175Y-110583270D01*
X137754789Y-110782983D01*
X137756312Y-110791407D01*
X137768692Y-110794800D01*
X139218400Y-110794800D01*
X139286521Y-110814802D01*
X139333014Y-110868458D01*
X139344400Y-110920800D01*
X139344400Y-112367317D01*
X139348464Y-112381159D01*
X139361878Y-112383193D01*
X139368584Y-112382334D01*
X139378662Y-112380192D01*
X139582655Y-112318991D01*
X139592242Y-112315233D01*
X139783495Y-112221539D01*
X139792345Y-112216264D01*
X139965728Y-112092592D01*
X139973593Y-112085945D01*
X140078297Y-111981605D01*
X140140668Y-111947689D01*
X140211475Y-111952877D01*
X140268237Y-111995523D01*
X140285219Y-112026626D01*
X140322843Y-112126986D01*
X140329785Y-112145505D01*
X140417139Y-112262061D01*
X140533695Y-112349415D01*
X140670084Y-112400545D01*
X140732266Y-112407300D01*
X142528534Y-112407300D01*
X142590716Y-112400545D01*
X142727105Y-112349415D01*
X142843661Y-112262061D01*
X142931015Y-112145505D01*
X142982145Y-112009116D01*
X142988900Y-111946934D01*
X142988900Y-110150666D01*
X142982145Y-110088484D01*
X142931015Y-109952095D01*
X142843661Y-109835539D01*
X142727105Y-109748185D01*
X142700305Y-109738138D01*
X142608603Y-109703760D01*
X142551839Y-109661118D01*
X142527139Y-109594556D01*
X142542347Y-109525208D01*
X142563893Y-109496527D01*
X142664835Y-109395937D01*
X142668496Y-109392289D01*
X142727994Y-109309489D01*
X142795835Y-109215077D01*
X142798853Y-109210877D01*
X142819720Y-109168657D01*
X142895536Y-109015253D01*
X142895537Y-109015251D01*
X142897830Y-109010611D01*
X142933010Y-108894821D01*
X142961265Y-108801823D01*
X142961265Y-108801821D01*
X142962770Y-108796869D01*
X142991929Y-108575390D01*
X142993018Y-108530835D01*
X142993474Y-108512165D01*
X142993474Y-108512161D01*
X142993556Y-108508800D01*
X142975252Y-108286161D01*
X142920831Y-108069502D01*
X142831754Y-107864640D01*
X142710414Y-107677077D01*
X142560070Y-107511851D01*
X142556019Y-107508652D01*
X142556015Y-107508648D01*
X142388814Y-107376600D01*
X142388810Y-107376598D01*
X142384759Y-107373398D01*
X142343453Y-107350596D01*
X142293484Y-107300164D01*
X142278712Y-107230721D01*
X142303828Y-107164316D01*
X142331180Y-107137709D01*
X142375003Y-107106450D01*
X142510260Y-107009973D01*
X142668496Y-106852289D01*
X142700654Y-106807537D01*
X142795835Y-106675077D01*
X142798853Y-106670877D01*
X142803876Y-106660715D01*
X142895536Y-106475253D01*
X142895537Y-106475251D01*
X142897830Y-106470611D01*
X142962770Y-106256869D01*
X142987011Y-106072743D01*
X146222708Y-106072743D01*
X146238845Y-106237321D01*
X146291043Y-106394234D01*
X146294690Y-106400256D01*
X146294691Y-106400258D01*
X146365156Y-106516609D01*
X146376708Y-106535684D01*
X146381597Y-106540747D01*
X146381598Y-106540748D01*
X146418180Y-106578629D01*
X146491582Y-106654639D01*
X146497474Y-106658494D01*
X146497478Y-106658498D01*
X146577029Y-106710554D01*
X146629955Y-106745188D01*
X146784951Y-106802830D01*
X146791932Y-106803761D01*
X146791934Y-106803762D01*
X146941885Y-106823770D01*
X146941889Y-106823770D01*
X146948866Y-106824701D01*
X146955878Y-106824063D01*
X146955881Y-106824063D01*
X147106534Y-106810353D01*
X147106537Y-106810352D01*
X147113552Y-106809714D01*
X147142294Y-106800375D01*
X147264130Y-106760788D01*
X147264132Y-106760787D01*
X147270826Y-106758612D01*
X147412870Y-106673937D01*
X147532624Y-106559897D01*
X147545347Y-106540748D01*
X147620236Y-106428031D01*
X147620237Y-106428029D01*
X147624137Y-106422159D01*
X147682860Y-106267569D01*
X147698454Y-106156611D01*
X147705324Y-106107733D01*
X147705324Y-106107730D01*
X147705875Y-106103811D01*
X147706164Y-106083100D01*
X147687731Y-105918763D01*
X147633347Y-105762594D01*
X147545716Y-105622355D01*
X147448794Y-105524754D01*
X147434155Y-105510012D01*
X147434151Y-105510009D01*
X147429192Y-105505015D01*
X147419056Y-105498582D01*
X147333265Y-105444138D01*
X147289568Y-105416407D01*
X147240081Y-105398785D01*
X147140416Y-105363296D01*
X147140414Y-105363295D01*
X147133782Y-105360934D01*
X147126796Y-105360101D01*
X147126792Y-105360100D01*
X147009715Y-105346140D01*
X146969578Y-105341354D01*
X146962576Y-105342090D01*
X146962574Y-105342090D01*
X146812117Y-105357904D01*
X146812115Y-105357904D01*
X146805117Y-105358640D01*
X146722831Y-105386652D01*
X146655242Y-105409661D01*
X146655239Y-105409662D01*
X146648572Y-105411932D01*
X146642573Y-105415622D01*
X146642572Y-105415623D01*
X146590854Y-105447440D01*
X146507724Y-105498582D01*
X146389574Y-105614283D01*
X146299993Y-105753286D01*
X146297584Y-105759906D01*
X146297583Y-105759907D01*
X146256674Y-105872304D01*
X146243434Y-105908680D01*
X146222708Y-106072743D01*
X142987011Y-106072743D01*
X142991929Y-106035390D01*
X142993018Y-105990835D01*
X142993474Y-105972165D01*
X142993474Y-105972161D01*
X142993556Y-105968800D01*
X142975252Y-105746161D01*
X142920831Y-105529502D01*
X142831754Y-105324640D01*
X142751827Y-105201092D01*
X142713222Y-105141417D01*
X142713220Y-105141414D01*
X142710414Y-105137077D01*
X142560070Y-104971851D01*
X142556019Y-104968652D01*
X142556015Y-104968648D01*
X142388814Y-104836600D01*
X142388810Y-104836598D01*
X142384759Y-104833398D01*
X142343453Y-104810596D01*
X142293484Y-104760164D01*
X142278712Y-104690721D01*
X142303828Y-104624316D01*
X142331180Y-104597709D01*
X142375003Y-104566450D01*
X142510260Y-104469973D01*
X142524135Y-104456147D01*
X142664835Y-104315937D01*
X142668496Y-104312289D01*
X142675780Y-104302153D01*
X142795835Y-104135077D01*
X142798853Y-104130877D01*
X142802373Y-104123756D01*
X142895536Y-103935253D01*
X142895537Y-103935251D01*
X142897830Y-103930611D01*
X142940023Y-103791738D01*
X142961265Y-103721823D01*
X142961265Y-103721821D01*
X142962770Y-103716869D01*
X142991929Y-103495390D01*
X142993018Y-103450835D01*
X142993474Y-103432165D01*
X142993474Y-103432161D01*
X142993556Y-103428800D01*
X142975252Y-103206161D01*
X142920831Y-102989502D01*
X142831754Y-102784640D01*
X142719670Y-102611384D01*
X142713222Y-102601417D01*
X142713220Y-102601414D01*
X142710414Y-102597077D01*
X142560070Y-102431851D01*
X142556019Y-102428652D01*
X142556015Y-102428648D01*
X142388814Y-102296600D01*
X142388810Y-102296598D01*
X142384759Y-102293398D01*
X142343453Y-102270596D01*
X142293484Y-102220164D01*
X142278712Y-102150721D01*
X142303828Y-102084316D01*
X142331180Y-102057709D01*
X142397791Y-102010196D01*
X142510260Y-101929973D01*
X142668496Y-101772289D01*
X142727994Y-101689489D01*
X142734337Y-101680662D01*
X150464809Y-101680662D01*
X150465106Y-101685814D01*
X150465106Y-101685818D01*
X150470818Y-101784878D01*
X150477797Y-101905914D01*
X150478934Y-101910960D01*
X150478935Y-101910966D01*
X150501298Y-102010196D01*
X150527400Y-102126020D01*
X150529342Y-102130802D01*
X150529343Y-102130806D01*
X150587049Y-102272918D01*
X150612286Y-102335069D01*
X150614985Y-102339473D01*
X150712044Y-102497859D01*
X150730175Y-102527447D01*
X150877902Y-102697987D01*
X151051499Y-102842110D01*
X151055951Y-102844712D01*
X151055956Y-102844715D01*
X151163297Y-102907440D01*
X151246303Y-102955945D01*
X151457084Y-103036434D01*
X151462152Y-103037465D01*
X151462155Y-103037466D01*
X151570604Y-103059530D01*
X151678181Y-103081417D01*
X151683356Y-103081607D01*
X151683358Y-103081607D01*
X151898492Y-103089496D01*
X151898496Y-103089496D01*
X151903656Y-103089685D01*
X151908776Y-103089029D01*
X151908778Y-103089029D01*
X151978185Y-103080138D01*
X152127453Y-103061016D01*
X152132402Y-103059531D01*
X152132408Y-103059530D01*
X152338613Y-102997665D01*
X152338612Y-102997665D01*
X152343563Y-102996180D01*
X152457820Y-102940206D01*
X152541531Y-102899197D01*
X152541536Y-102899194D01*
X152546182Y-102896918D01*
X152550392Y-102893915D01*
X152550397Y-102893912D01*
X152725655Y-102768901D01*
X152725659Y-102768897D01*
X152729867Y-102765896D01*
X152889687Y-102606633D01*
X153021350Y-102423405D01*
X153121318Y-102221135D01*
X153186908Y-102005252D01*
X153188022Y-101996790D01*
X153215921Y-101784878D01*
X153215922Y-101784872D01*
X153216358Y-101781556D01*
X153218002Y-101714300D01*
X153199515Y-101489432D01*
X153144549Y-101270604D01*
X153054580Y-101063691D01*
X152982350Y-100952040D01*
X152934834Y-100878591D01*
X152934832Y-100878588D01*
X152932026Y-100874251D01*
X152780177Y-100707371D01*
X152776126Y-100704172D01*
X152776122Y-100704168D01*
X152607166Y-100570734D01*
X152607162Y-100570732D01*
X152603111Y-100567532D01*
X152405583Y-100458491D01*
X152192898Y-100383176D01*
X152142497Y-100374198D01*
X151975857Y-100344514D01*
X151975853Y-100344514D01*
X151970769Y-100343608D01*
X151898774Y-100342729D01*
X151750329Y-100340915D01*
X151750327Y-100340915D01*
X151745159Y-100340852D01*
X151522129Y-100374980D01*
X151307668Y-100445077D01*
X151107535Y-100549260D01*
X151103402Y-100552363D01*
X151103399Y-100552365D01*
X150941986Y-100673557D01*
X150927105Y-100684730D01*
X150771224Y-100847850D01*
X150644078Y-101034240D01*
X150641904Y-101038924D01*
X150641902Y-101038927D01*
X150554484Y-101227254D01*
X150549081Y-101238893D01*
X150488785Y-101456313D01*
X150464809Y-101680662D01*
X142734337Y-101680662D01*
X142795835Y-101595077D01*
X142798853Y-101590877D01*
X142803876Y-101580715D01*
X142895536Y-101395253D01*
X142895537Y-101395251D01*
X142897830Y-101390611D01*
X142962770Y-101176869D01*
X142991929Y-100955390D01*
X142993018Y-100910835D01*
X142993474Y-100892165D01*
X142993474Y-100892161D01*
X142993556Y-100888800D01*
X142975252Y-100666161D01*
X142920831Y-100449502D01*
X142831754Y-100244640D01*
X142710414Y-100057077D01*
X142560070Y-99891851D01*
X142556019Y-99888652D01*
X142556015Y-99888648D01*
X142388814Y-99756600D01*
X142388810Y-99756598D01*
X142384759Y-99753398D01*
X142343453Y-99730596D01*
X142293484Y-99680164D01*
X142278712Y-99610721D01*
X142303828Y-99544316D01*
X142331180Y-99517709D01*
X142375003Y-99486450D01*
X142510260Y-99389973D01*
X142668496Y-99232289D01*
X142727994Y-99149489D01*
X142795835Y-99055077D01*
X142798853Y-99050877D01*
X142803876Y-99040715D01*
X142895536Y-98855253D01*
X142895537Y-98855251D01*
X142897830Y-98850611D01*
X142962770Y-98636869D01*
X142991929Y-98415390D01*
X142993050Y-98369511D01*
X142993474Y-98352165D01*
X142993474Y-98352161D01*
X142993556Y-98348800D01*
X142975252Y-98126161D01*
X142920831Y-97909502D01*
X142831754Y-97704640D01*
X142781290Y-97626634D01*
X142713222Y-97521417D01*
X142713220Y-97521414D01*
X142710414Y-97517077D01*
X142560070Y-97351851D01*
X142556019Y-97348652D01*
X142556015Y-97348648D01*
X142388814Y-97216600D01*
X142388810Y-97216598D01*
X142384759Y-97213398D01*
X142343453Y-97190596D01*
X142293484Y-97140164D01*
X142286783Y-97108662D01*
X150464809Y-97108662D01*
X150465106Y-97113814D01*
X150465106Y-97113818D01*
X150473724Y-97263269D01*
X150477797Y-97333914D01*
X150478934Y-97338960D01*
X150478935Y-97338966D01*
X150510295Y-97478121D01*
X150527400Y-97554020D01*
X150529342Y-97558802D01*
X150529343Y-97558806D01*
X150607266Y-97750706D01*
X150612286Y-97763069D01*
X150663577Y-97846769D01*
X150690911Y-97891373D01*
X150730175Y-97955447D01*
X150877902Y-98125987D01*
X151051499Y-98270110D01*
X151055951Y-98272712D01*
X151055956Y-98272715D01*
X151221602Y-98369511D01*
X151246303Y-98383945D01*
X151457084Y-98464434D01*
X151462152Y-98465465D01*
X151462155Y-98465466D01*
X151570604Y-98487530D01*
X151678181Y-98509417D01*
X151683356Y-98509607D01*
X151683358Y-98509607D01*
X151898492Y-98517496D01*
X151898496Y-98517496D01*
X151903656Y-98517685D01*
X151908776Y-98517029D01*
X151908778Y-98517029D01*
X151978185Y-98508138D01*
X152127453Y-98489016D01*
X152132402Y-98487531D01*
X152132408Y-98487530D01*
X152338613Y-98425665D01*
X152338612Y-98425665D01*
X152343563Y-98424180D01*
X152452454Y-98370835D01*
X152541531Y-98327197D01*
X152541536Y-98327194D01*
X152546182Y-98324918D01*
X152550392Y-98321915D01*
X152550397Y-98321912D01*
X152725655Y-98196901D01*
X152725659Y-98196897D01*
X152729867Y-98193896D01*
X152889687Y-98034633D01*
X153021350Y-97851405D01*
X153107234Y-97677632D01*
X153119024Y-97653777D01*
X153119025Y-97653775D01*
X153121318Y-97649135D01*
X153167289Y-97497825D01*
X153185406Y-97438196D01*
X153185406Y-97438195D01*
X153186908Y-97433252D01*
X153187583Y-97428126D01*
X153215921Y-97212878D01*
X153215922Y-97212872D01*
X153216358Y-97209556D01*
X153216765Y-97192918D01*
X153217920Y-97145664D01*
X153217920Y-97145660D01*
X153218002Y-97142300D01*
X153199515Y-96917432D01*
X153144549Y-96698604D01*
X153054580Y-96491691D01*
X152979265Y-96375271D01*
X152934834Y-96306591D01*
X152934832Y-96306588D01*
X152932026Y-96302251D01*
X152780177Y-96135371D01*
X152776126Y-96132172D01*
X152776122Y-96132168D01*
X152607166Y-95998734D01*
X152607162Y-95998732D01*
X152603111Y-95995532D01*
X152590556Y-95988601D01*
X152531520Y-95956012D01*
X152405583Y-95886491D01*
X152192898Y-95811176D01*
X152121417Y-95798443D01*
X151975857Y-95772514D01*
X151975853Y-95772514D01*
X151970769Y-95771608D01*
X151898774Y-95770729D01*
X151750329Y-95768915D01*
X151750327Y-95768915D01*
X151745159Y-95768852D01*
X151522129Y-95802980D01*
X151307668Y-95873077D01*
X151107535Y-95977260D01*
X151103402Y-95980363D01*
X151103399Y-95980365D01*
X150931240Y-96109625D01*
X150927105Y-96112730D01*
X150771224Y-96275850D01*
X150644078Y-96462240D01*
X150641904Y-96466924D01*
X150641902Y-96466927D01*
X150564943Y-96632722D01*
X150549081Y-96666893D01*
X150488785Y-96884313D01*
X150464809Y-97108662D01*
X142286783Y-97108662D01*
X142278712Y-97070721D01*
X142303828Y-97004316D01*
X142331180Y-96977709D01*
X142375003Y-96946450D01*
X142510260Y-96849973D01*
X142668496Y-96692289D01*
X142683164Y-96671877D01*
X142795835Y-96515077D01*
X142798853Y-96510877D01*
X142803876Y-96500715D01*
X142895536Y-96315253D01*
X142895537Y-96315251D01*
X142897830Y-96310611D01*
X142957951Y-96112730D01*
X142961265Y-96101823D01*
X142961265Y-96101821D01*
X142962770Y-96096869D01*
X142991929Y-95875390D01*
X142993050Y-95829511D01*
X142993474Y-95812165D01*
X142993474Y-95812161D01*
X142993556Y-95808800D01*
X142975252Y-95586161D01*
X142920831Y-95369502D01*
X142831754Y-95164640D01*
X142781290Y-95086634D01*
X142713222Y-94981417D01*
X142713220Y-94981414D01*
X142710414Y-94977077D01*
X142560070Y-94811851D01*
X142556019Y-94808652D01*
X142556015Y-94808648D01*
X142388814Y-94676600D01*
X142388810Y-94676598D01*
X142384759Y-94673398D01*
X142343453Y-94650596D01*
X142293484Y-94600164D01*
X142278712Y-94530721D01*
X142303828Y-94464316D01*
X142331180Y-94437709D01*
X142375003Y-94406450D01*
X142510260Y-94309973D01*
X142668496Y-94152289D01*
X142727994Y-94069489D01*
X142795835Y-93975077D01*
X142798853Y-93970877D01*
X142813765Y-93940706D01*
X142895536Y-93775253D01*
X142895537Y-93775251D01*
X142897830Y-93770611D01*
X142962770Y-93556869D01*
X142991929Y-93335390D01*
X142993050Y-93289511D01*
X142993474Y-93272165D01*
X142993474Y-93272161D01*
X142993556Y-93268800D01*
X142975252Y-93046161D01*
X142920831Y-92829502D01*
X142831754Y-92624640D01*
X142781290Y-92546634D01*
X142713222Y-92441417D01*
X142713220Y-92441414D01*
X142710414Y-92437077D01*
X142560070Y-92271851D01*
X142556019Y-92268652D01*
X142556015Y-92268648D01*
X142388814Y-92136600D01*
X142388810Y-92136598D01*
X142384759Y-92133398D01*
X142343453Y-92110596D01*
X142293484Y-92060164D01*
X142278712Y-91990721D01*
X142303828Y-91924316D01*
X142331180Y-91897709D01*
X142375003Y-91866450D01*
X142510260Y-91769973D01*
X142668496Y-91612289D01*
X142727994Y-91529489D01*
X142795835Y-91435077D01*
X142798853Y-91430877D01*
X142803876Y-91420715D01*
X142895536Y-91235253D01*
X142895537Y-91235251D01*
X142897830Y-91230611D01*
X142962770Y-91016869D01*
X142991929Y-90795390D01*
X142993050Y-90749511D01*
X142993474Y-90732165D01*
X142993474Y-90732161D01*
X142993556Y-90728800D01*
X142975252Y-90506161D01*
X142920831Y-90289502D01*
X142831754Y-90084640D01*
X142781290Y-90006634D01*
X142713222Y-89901417D01*
X142713220Y-89901414D01*
X142710414Y-89897077D01*
X142560070Y-89731851D01*
X142556019Y-89728652D01*
X142556015Y-89728648D01*
X142388814Y-89596600D01*
X142388810Y-89596598D01*
X142384759Y-89593398D01*
X142343453Y-89570596D01*
X142293484Y-89520164D01*
X142278712Y-89450721D01*
X142303828Y-89384316D01*
X142331180Y-89357709D01*
X142375003Y-89326450D01*
X142510260Y-89229973D01*
X142668496Y-89072289D01*
X142727994Y-88989489D01*
X142795835Y-88895077D01*
X142798853Y-88890877D01*
X142813765Y-88860706D01*
X142895536Y-88695253D01*
X142895537Y-88695251D01*
X142897830Y-88690611D01*
X142962770Y-88476869D01*
X142991929Y-88255390D01*
X142993050Y-88209511D01*
X142993474Y-88192165D01*
X142993474Y-88192161D01*
X142993556Y-88188800D01*
X142975252Y-87966161D01*
X142920831Y-87749502D01*
X142831754Y-87544640D01*
X142781290Y-87466634D01*
X142713222Y-87361417D01*
X142713220Y-87361414D01*
X142710414Y-87357077D01*
X142560070Y-87191851D01*
X142556019Y-87188652D01*
X142556015Y-87188648D01*
X142388814Y-87056600D01*
X142388810Y-87056598D01*
X142384759Y-87053398D01*
X142343453Y-87030596D01*
X142293484Y-86980164D01*
X142278712Y-86910721D01*
X142303828Y-86844316D01*
X142331180Y-86817709D01*
X142375003Y-86786450D01*
X142510260Y-86689973D01*
X142668496Y-86532289D01*
X142727994Y-86449489D01*
X142795835Y-86355077D01*
X142798853Y-86350877D01*
X142803876Y-86340715D01*
X142849672Y-86248053D01*
X147530798Y-86248053D01*
X147546935Y-86412631D01*
X147599133Y-86569544D01*
X147602780Y-86575566D01*
X147602781Y-86575568D01*
X147674243Y-86693565D01*
X147684798Y-86710994D01*
X147689687Y-86716057D01*
X147689688Y-86716058D01*
X147734177Y-86762127D01*
X147799672Y-86829949D01*
X147805564Y-86833804D01*
X147805568Y-86833808D01*
X147845463Y-86859914D01*
X147938045Y-86920498D01*
X148093041Y-86978140D01*
X148100022Y-86979071D01*
X148100024Y-86979072D01*
X148249975Y-86999080D01*
X148249979Y-86999080D01*
X148256956Y-87000011D01*
X148263968Y-86999373D01*
X148263971Y-86999373D01*
X148414624Y-86985663D01*
X148414627Y-86985662D01*
X148421642Y-86985024D01*
X148458220Y-86973139D01*
X148572220Y-86936098D01*
X148572222Y-86936097D01*
X148578916Y-86933922D01*
X148720960Y-86849247D01*
X148840714Y-86735207D01*
X148870617Y-86690200D01*
X148928326Y-86603341D01*
X148928327Y-86603339D01*
X148932227Y-86597469D01*
X148990950Y-86442879D01*
X149007614Y-86324312D01*
X149013414Y-86283043D01*
X149013414Y-86283040D01*
X149013965Y-86279121D01*
X149014254Y-86258410D01*
X148995821Y-86094073D01*
X148991930Y-86082898D01*
X148958833Y-85987859D01*
X148941437Y-85937904D01*
X148853806Y-85797665D01*
X148772103Y-85715390D01*
X148742245Y-85685322D01*
X148742241Y-85685319D01*
X148737282Y-85680325D01*
X148728219Y-85674573D01*
X148681401Y-85644862D01*
X148597658Y-85591717D01*
X148493978Y-85554798D01*
X148448506Y-85538606D01*
X148448504Y-85538605D01*
X148441872Y-85536244D01*
X148434886Y-85535411D01*
X148434882Y-85535410D01*
X148317805Y-85521450D01*
X148277668Y-85516664D01*
X148270666Y-85517400D01*
X148270664Y-85517400D01*
X148120207Y-85533214D01*
X148120205Y-85533214D01*
X148113207Y-85533950D01*
X148059301Y-85552301D01*
X147963332Y-85584971D01*
X147963329Y-85584972D01*
X147956662Y-85587242D01*
X147950663Y-85590932D01*
X147950662Y-85590933D01*
X147851131Y-85652165D01*
X147815814Y-85673892D01*
X147697664Y-85789593D01*
X147693849Y-85795513D01*
X147693848Y-85795514D01*
X147667368Y-85836603D01*
X147608083Y-85928596D01*
X147605674Y-85935216D01*
X147605673Y-85935217D01*
X147575950Y-86016880D01*
X147551524Y-86083990D01*
X147530798Y-86248053D01*
X142849672Y-86248053D01*
X142895536Y-86155253D01*
X142895537Y-86155251D01*
X142897830Y-86150611D01*
X142962770Y-85936869D01*
X142991929Y-85715390D01*
X142992092Y-85708715D01*
X142993474Y-85652165D01*
X142993474Y-85652161D01*
X142993556Y-85648800D01*
X142975252Y-85426161D01*
X142920831Y-85209502D01*
X142831754Y-85004640D01*
X142781290Y-84926634D01*
X142713222Y-84821417D01*
X142713220Y-84821414D01*
X142710414Y-84817077D01*
X142560070Y-84651851D01*
X142556019Y-84648652D01*
X142556015Y-84648648D01*
X142388814Y-84516600D01*
X142388810Y-84516598D01*
X142384759Y-84513398D01*
X142343453Y-84490596D01*
X142293484Y-84440164D01*
X142278712Y-84370721D01*
X142303828Y-84304316D01*
X142331180Y-84277709D01*
X142375003Y-84246450D01*
X142510260Y-84149973D01*
X142668496Y-83992289D01*
X142708482Y-83936643D01*
X150489908Y-83936643D01*
X150506045Y-84101221D01*
X150558243Y-84258134D01*
X150561890Y-84264156D01*
X150561891Y-84264158D01*
X150630821Y-84377974D01*
X150643908Y-84399584D01*
X150648797Y-84404647D01*
X150648798Y-84404648D01*
X150683096Y-84440164D01*
X150758782Y-84518539D01*
X150764674Y-84522394D01*
X150764678Y-84522398D01*
X150844229Y-84574454D01*
X150897155Y-84609088D01*
X151052151Y-84666730D01*
X151059132Y-84667661D01*
X151059134Y-84667662D01*
X151209085Y-84687670D01*
X151209089Y-84687670D01*
X151216066Y-84688601D01*
X151223078Y-84687963D01*
X151223081Y-84687963D01*
X151373734Y-84674253D01*
X151373737Y-84674252D01*
X151380752Y-84673614D01*
X151409494Y-84664275D01*
X151531330Y-84624688D01*
X151531332Y-84624687D01*
X151538026Y-84622512D01*
X151680070Y-84537837D01*
X151799824Y-84423797D01*
X151891337Y-84286059D01*
X151950060Y-84131469D01*
X151973075Y-83967711D01*
X151973221Y-83957245D01*
X151973309Y-83950962D01*
X151973309Y-83950957D01*
X151973364Y-83947000D01*
X151954931Y-83782663D01*
X151950831Y-83770888D01*
X151902865Y-83633151D01*
X151900547Y-83626494D01*
X151812916Y-83486255D01*
X151740420Y-83413251D01*
X151701355Y-83373912D01*
X151701351Y-83373909D01*
X151696392Y-83368915D01*
X151686757Y-83362800D01*
X151642565Y-83334755D01*
X151556768Y-83280307D01*
X151438552Y-83238212D01*
X151407616Y-83227196D01*
X151407614Y-83227195D01*
X151400982Y-83224834D01*
X151393996Y-83224001D01*
X151393992Y-83224000D01*
X151276915Y-83210040D01*
X151236778Y-83205254D01*
X151229776Y-83205990D01*
X151229774Y-83205990D01*
X151079317Y-83221804D01*
X151079315Y-83221804D01*
X151072317Y-83222540D01*
X151026281Y-83238212D01*
X150922442Y-83273561D01*
X150922439Y-83273562D01*
X150915772Y-83275832D01*
X150909773Y-83279522D01*
X150909772Y-83279523D01*
X150878901Y-83298515D01*
X150774924Y-83362482D01*
X150769891Y-83367411D01*
X150681744Y-83453731D01*
X150656774Y-83478183D01*
X150652959Y-83484103D01*
X150652958Y-83484104D01*
X150616746Y-83540294D01*
X150567193Y-83617186D01*
X150564784Y-83623806D01*
X150564783Y-83623807D01*
X150528528Y-83723416D01*
X150510634Y-83772580D01*
X150489908Y-83936643D01*
X142708482Y-83936643D01*
X142795835Y-83815077D01*
X142798853Y-83810877D01*
X142813765Y-83780706D01*
X142895536Y-83615253D01*
X142895537Y-83615251D01*
X142897830Y-83610611D01*
X142962770Y-83396869D01*
X142991929Y-83175390D01*
X142992840Y-83138098D01*
X142993474Y-83112165D01*
X142993474Y-83112161D01*
X142993556Y-83108800D01*
X142975252Y-82886161D01*
X142920831Y-82669502D01*
X142869889Y-82552343D01*
X160103808Y-82552343D01*
X160119945Y-82716921D01*
X160172143Y-82873834D01*
X160175790Y-82879856D01*
X160175791Y-82879858D01*
X160210888Y-82937809D01*
X160257808Y-83015284D01*
X160262697Y-83020347D01*
X160262698Y-83020348D01*
X160290320Y-83048951D01*
X160372682Y-83134239D01*
X160378574Y-83138094D01*
X160378578Y-83138098D01*
X160445303Y-83181761D01*
X160511055Y-83224788D01*
X160666051Y-83282430D01*
X160673032Y-83283361D01*
X160673034Y-83283362D01*
X160822985Y-83303370D01*
X160822989Y-83303370D01*
X160829966Y-83304301D01*
X160836978Y-83303663D01*
X160836981Y-83303663D01*
X160987634Y-83289953D01*
X160987637Y-83289952D01*
X160994652Y-83289314D01*
X161097144Y-83256012D01*
X161145230Y-83240388D01*
X161145232Y-83240387D01*
X161151926Y-83238212D01*
X161251745Y-83178708D01*
X161287918Y-83157145D01*
X161287920Y-83157144D01*
X161293970Y-83153537D01*
X161413724Y-83039497D01*
X161433813Y-83009261D01*
X161501336Y-82907631D01*
X161501337Y-82907629D01*
X161505237Y-82901759D01*
X161563960Y-82747169D01*
X161586975Y-82583411D01*
X161587264Y-82562700D01*
X161568831Y-82398363D01*
X161563692Y-82383604D01*
X161528106Y-82281417D01*
X161514447Y-82242194D01*
X161426816Y-82101955D01*
X161363464Y-82038159D01*
X161315255Y-81989612D01*
X161315251Y-81989609D01*
X161310292Y-81984615D01*
X161300156Y-81978182D01*
X161177218Y-81900164D01*
X161170668Y-81896007D01*
X161116150Y-81876594D01*
X161021516Y-81842896D01*
X161021514Y-81842895D01*
X161014882Y-81840534D01*
X161007896Y-81839701D01*
X161007892Y-81839700D01*
X160890815Y-81825740D01*
X160850678Y-81820954D01*
X160843676Y-81821690D01*
X160843674Y-81821690D01*
X160693217Y-81837504D01*
X160693215Y-81837504D01*
X160686217Y-81838240D01*
X160606323Y-81865438D01*
X160536342Y-81889261D01*
X160536339Y-81889262D01*
X160529672Y-81891532D01*
X160523673Y-81895222D01*
X160523672Y-81895223D01*
X160400654Y-81970904D01*
X160388824Y-81978182D01*
X160270674Y-82093883D01*
X160266859Y-82099803D01*
X160266858Y-82099804D01*
X160259094Y-82111851D01*
X160181093Y-82232886D01*
X160178684Y-82239506D01*
X160178683Y-82239507D01*
X160167352Y-82270639D01*
X160124534Y-82388280D01*
X160103808Y-82552343D01*
X142869889Y-82552343D01*
X142831754Y-82464640D01*
X142782818Y-82388996D01*
X142713222Y-82281417D01*
X142713220Y-82281414D01*
X142710414Y-82277077D01*
X142560070Y-82111851D01*
X142556019Y-82108652D01*
X142556015Y-82108648D01*
X142388814Y-81976600D01*
X142388810Y-81976598D01*
X142384759Y-81973398D01*
X142343453Y-81950596D01*
X142293484Y-81900164D01*
X142278712Y-81830721D01*
X142303828Y-81764316D01*
X142331180Y-81737709D01*
X142399828Y-81688743D01*
X150820108Y-81688743D01*
X150836245Y-81853321D01*
X150888443Y-82010234D01*
X150892090Y-82016256D01*
X150892091Y-82016258D01*
X150948045Y-82108648D01*
X150974108Y-82151684D01*
X150978997Y-82156747D01*
X150978998Y-82156748D01*
X151046806Y-82226965D01*
X151088982Y-82270639D01*
X151094874Y-82274494D01*
X151094878Y-82274498D01*
X151174429Y-82326554D01*
X151227355Y-82361188D01*
X151382351Y-82418830D01*
X151389332Y-82419761D01*
X151389334Y-82419762D01*
X151539285Y-82439770D01*
X151539289Y-82439770D01*
X151546266Y-82440701D01*
X151553278Y-82440063D01*
X151553281Y-82440063D01*
X151703934Y-82426353D01*
X151703937Y-82426352D01*
X151710952Y-82425714D01*
X151772074Y-82405854D01*
X151861530Y-82376788D01*
X151861532Y-82376787D01*
X151868226Y-82374612D01*
X152010270Y-82289937D01*
X152130024Y-82175897D01*
X152172576Y-82111851D01*
X152217636Y-82044031D01*
X152217637Y-82044029D01*
X152221537Y-82038159D01*
X152280260Y-81883569D01*
X152303275Y-81719811D01*
X152303564Y-81699100D01*
X152285131Y-81534763D01*
X152230747Y-81378594D01*
X152143116Y-81238355D01*
X152083805Y-81178629D01*
X152031555Y-81126012D01*
X152031551Y-81126009D01*
X152026592Y-81121015D01*
X152016456Y-81114582D01*
X151972765Y-81086855D01*
X151886968Y-81032407D01*
X151743233Y-80981225D01*
X151737816Y-80979296D01*
X151737814Y-80979295D01*
X151731182Y-80976934D01*
X151724196Y-80976101D01*
X151724192Y-80976100D01*
X151607115Y-80962140D01*
X151566978Y-80957354D01*
X151559976Y-80958090D01*
X151559974Y-80958090D01*
X151409517Y-80973904D01*
X151409515Y-80973904D01*
X151402517Y-80974640D01*
X151320231Y-81002652D01*
X151252642Y-81025661D01*
X151252639Y-81025662D01*
X151245972Y-81027932D01*
X151239973Y-81031622D01*
X151239972Y-81031623D01*
X151111125Y-81110890D01*
X151105124Y-81114582D01*
X150986974Y-81230283D01*
X150897393Y-81369286D01*
X150840834Y-81524680D01*
X150820108Y-81688743D01*
X142399828Y-81688743D01*
X142510260Y-81609973D01*
X142668496Y-81452289D01*
X142716668Y-81385251D01*
X142795835Y-81275077D01*
X142798853Y-81270877D01*
X142814927Y-81238355D01*
X142895536Y-81075253D01*
X142895537Y-81075251D01*
X142897830Y-81070611D01*
X142962770Y-80856869D01*
X142991929Y-80635390D01*
X142992894Y-80595888D01*
X142993474Y-80572165D01*
X142993474Y-80572161D01*
X142993556Y-80568800D01*
X142975252Y-80346161D01*
X142920831Y-80129502D01*
X142831754Y-79924640D01*
X142773512Y-79834612D01*
X142713222Y-79741417D01*
X142713220Y-79741414D01*
X142710414Y-79737077D01*
X142560070Y-79571851D01*
X142556019Y-79568652D01*
X142556015Y-79568648D01*
X142388814Y-79436600D01*
X142388810Y-79436598D01*
X142384759Y-79433398D01*
X142343453Y-79410596D01*
X142293484Y-79360164D01*
X142278712Y-79290721D01*
X142303828Y-79224316D01*
X142331180Y-79197709D01*
X142399828Y-79148743D01*
X147645108Y-79148743D01*
X147661245Y-79313321D01*
X147713443Y-79470234D01*
X147717090Y-79476256D01*
X147717091Y-79476258D01*
X147794001Y-79603251D01*
X147799108Y-79611684D01*
X147803997Y-79616747D01*
X147803998Y-79616748D01*
X147874545Y-79689801D01*
X147913982Y-79730639D01*
X147919874Y-79734494D01*
X147919878Y-79734498D01*
X147984445Y-79776749D01*
X148052355Y-79821188D01*
X148207351Y-79878830D01*
X148214332Y-79879761D01*
X148214334Y-79879762D01*
X148364285Y-79899770D01*
X148364289Y-79899770D01*
X148371266Y-79900701D01*
X148378278Y-79900063D01*
X148378281Y-79900063D01*
X148528934Y-79886353D01*
X148528937Y-79886352D01*
X148535952Y-79885714D01*
X148597074Y-79865854D01*
X148686530Y-79836788D01*
X148686532Y-79836787D01*
X148693226Y-79834612D01*
X148761186Y-79794100D01*
X148778560Y-79783743D01*
X152725108Y-79783743D01*
X152741245Y-79948321D01*
X152793443Y-80105234D01*
X152797090Y-80111256D01*
X152797091Y-80111258D01*
X152874001Y-80238251D01*
X152879108Y-80246684D01*
X152883997Y-80251747D01*
X152883998Y-80251748D01*
X152938695Y-80308388D01*
X152993982Y-80365639D01*
X152999874Y-80369494D01*
X152999878Y-80369498D01*
X153033422Y-80391448D01*
X153132355Y-80456188D01*
X153287351Y-80513830D01*
X153294332Y-80514761D01*
X153294334Y-80514762D01*
X153444285Y-80534770D01*
X153444289Y-80534770D01*
X153451266Y-80535701D01*
X153458278Y-80535063D01*
X153458281Y-80535063D01*
X153608934Y-80521353D01*
X153608937Y-80521352D01*
X153615952Y-80520714D01*
X153663271Y-80505339D01*
X153766530Y-80471788D01*
X153766532Y-80471787D01*
X153773226Y-80469612D01*
X153915270Y-80384937D01*
X154035024Y-80270897D01*
X154047747Y-80251748D01*
X154122636Y-80139031D01*
X154122637Y-80139029D01*
X154126537Y-80133159D01*
X154185260Y-79978569D01*
X154208275Y-79814811D01*
X154208564Y-79794100D01*
X154190131Y-79629763D01*
X154181155Y-79603986D01*
X154144301Y-79498159D01*
X154135747Y-79473594D01*
X154048116Y-79333355D01*
X153955325Y-79239914D01*
X153936555Y-79221012D01*
X153936551Y-79221009D01*
X153931592Y-79216015D01*
X153924650Y-79211609D01*
X153825588Y-79148743D01*
X153791968Y-79127407D01*
X153742481Y-79109785D01*
X153642816Y-79074296D01*
X153642814Y-79074295D01*
X153636182Y-79071934D01*
X153629196Y-79071101D01*
X153629192Y-79071100D01*
X153512115Y-79057140D01*
X153471978Y-79052354D01*
X153464976Y-79053090D01*
X153464974Y-79053090D01*
X153314517Y-79068904D01*
X153314515Y-79068904D01*
X153307517Y-79069640D01*
X153225231Y-79097652D01*
X153157642Y-79120661D01*
X153157639Y-79120662D01*
X153150972Y-79122932D01*
X153144973Y-79126622D01*
X153144972Y-79126623D01*
X153016125Y-79205890D01*
X153010124Y-79209582D01*
X153005091Y-79214511D01*
X152897363Y-79320006D01*
X152891974Y-79325283D01*
X152888159Y-79331203D01*
X152888158Y-79331204D01*
X152878887Y-79345590D01*
X152802393Y-79464286D01*
X152799984Y-79470904D01*
X152799983Y-79470907D01*
X152750333Y-79607318D01*
X152745834Y-79619680D01*
X152725108Y-79783743D01*
X148778560Y-79783743D01*
X148829218Y-79753545D01*
X148829220Y-79753544D01*
X148835270Y-79749937D01*
X148955024Y-79635897D01*
X148958925Y-79630026D01*
X149042636Y-79504031D01*
X149042637Y-79504029D01*
X149046537Y-79498159D01*
X149105260Y-79343569D01*
X149122020Y-79224316D01*
X149127724Y-79183733D01*
X149127724Y-79183730D01*
X149128275Y-79179811D01*
X149128564Y-79159100D01*
X149110131Y-78994763D01*
X149101155Y-78968986D01*
X149058065Y-78845251D01*
X149055747Y-78838594D01*
X148968116Y-78698355D01*
X148895630Y-78625361D01*
X148856555Y-78586012D01*
X148856551Y-78586009D01*
X148851592Y-78581015D01*
X148844650Y-78576609D01*
X148797765Y-78546855D01*
X148711968Y-78492407D01*
X148568233Y-78441225D01*
X148562816Y-78439296D01*
X148562814Y-78439295D01*
X148556182Y-78436934D01*
X148549196Y-78436101D01*
X148549192Y-78436100D01*
X148432115Y-78422140D01*
X148391978Y-78417354D01*
X148384976Y-78418090D01*
X148384974Y-78418090D01*
X148234517Y-78433904D01*
X148234515Y-78433904D01*
X148227517Y-78434640D01*
X148145231Y-78462652D01*
X148077642Y-78485661D01*
X148077639Y-78485662D01*
X148070972Y-78487932D01*
X148064973Y-78491622D01*
X148064972Y-78491623D01*
X147958615Y-78557054D01*
X147930124Y-78574582D01*
X147811974Y-78690283D01*
X147722393Y-78829286D01*
X147665834Y-78984680D01*
X147645108Y-79148743D01*
X142399828Y-79148743D01*
X142510260Y-79069973D01*
X142668496Y-78912289D01*
X142716668Y-78845251D01*
X142795835Y-78735077D01*
X142798853Y-78730877D01*
X142803876Y-78720715D01*
X142895536Y-78535253D01*
X142895537Y-78535251D01*
X142897830Y-78530611D01*
X142962770Y-78316869D01*
X142991929Y-78095390D01*
X142993556Y-78028800D01*
X142975252Y-77806161D01*
X142920831Y-77589502D01*
X142831754Y-77384640D01*
X142710414Y-77197077D01*
X142560070Y-77031851D01*
X142556019Y-77028652D01*
X142556015Y-77028648D01*
X142388814Y-76896600D01*
X142388810Y-76896598D01*
X142384759Y-76893398D01*
X142189189Y-76785438D01*
X142184320Y-76783714D01*
X142184316Y-76783712D01*
X141983487Y-76712595D01*
X141983483Y-76712594D01*
X141978612Y-76710869D01*
X141973519Y-76709962D01*
X141973516Y-76709961D01*
X141763773Y-76672600D01*
X141763767Y-76672599D01*
X141758684Y-76671694D01*
X141684852Y-76670792D01*
X141540481Y-76669028D01*
X141540479Y-76669028D01*
X141535311Y-76668965D01*
X141314491Y-76702755D01*
X141102156Y-76772157D01*
X140904007Y-76875307D01*
X140899874Y-76878410D01*
X140899871Y-76878412D01*
X140875647Y-76896600D01*
X140725365Y-77009435D01*
X140571029Y-77170938D01*
X140463601Y-77328421D01*
X140408693Y-77373421D01*
X140338168Y-77381592D01*
X140274421Y-77350338D01*
X140253724Y-77325854D01*
X140173222Y-77201417D01*
X140173220Y-77201414D01*
X140170414Y-77197077D01*
X140020070Y-77031851D01*
X140016019Y-77028652D01*
X140016015Y-77028648D01*
X139848814Y-76896600D01*
X139848810Y-76896598D01*
X139844759Y-76893398D01*
X139649189Y-76785438D01*
X139644320Y-76783714D01*
X139644316Y-76783712D01*
X139443487Y-76712595D01*
X139443483Y-76712594D01*
X139438612Y-76710869D01*
X139433519Y-76709962D01*
X139433516Y-76709961D01*
X139223773Y-76672600D01*
X139223767Y-76672599D01*
X139218684Y-76671694D01*
X139144852Y-76670792D01*
X139000481Y-76669028D01*
X139000479Y-76669028D01*
X138995311Y-76668965D01*
X138774491Y-76702755D01*
X138562156Y-76772157D01*
X138364007Y-76875307D01*
X138359874Y-76878410D01*
X138359871Y-76878412D01*
X138335647Y-76896600D01*
X138185365Y-77009435D01*
X138031029Y-77170938D01*
X137905143Y-77355480D01*
X137811088Y-77558105D01*
X137751389Y-77773370D01*
X137727651Y-77995495D01*
X137727948Y-78000648D01*
X137727948Y-78000651D01*
X137733411Y-78095390D01*
X137740510Y-78218515D01*
X137741647Y-78223561D01*
X137741648Y-78223567D01*
X137761519Y-78311739D01*
X137789622Y-78436439D01*
X137845319Y-78573604D01*
X137868756Y-78631323D01*
X137873666Y-78643416D01*
X137910993Y-78704329D01*
X137987691Y-78829488D01*
X137990387Y-78833888D01*
X138136650Y-79002738D01*
X138308526Y-79145432D01*
X138360582Y-79175851D01*
X138381845Y-79188276D01*
X138430569Y-79239914D01*
X138443640Y-79309697D01*
X138416909Y-79375469D01*
X138376455Y-79408827D01*
X138364007Y-79415307D01*
X138359874Y-79418410D01*
X138359871Y-79418412D01*
X138189500Y-79546330D01*
X138185365Y-79549435D01*
X138181793Y-79553173D01*
X138098097Y-79640756D01*
X138031029Y-79710938D01*
X138028120Y-79715203D01*
X138028114Y-79715211D01*
X137986136Y-79776749D01*
X137905143Y-79895480D01*
X137866575Y-79978569D01*
X137815769Y-80088021D01*
X137811088Y-80098105D01*
X137751389Y-80313370D01*
X137727651Y-80535495D01*
X137727948Y-80540648D01*
X137727948Y-80540651D01*
X137733411Y-80635390D01*
X137740510Y-80758515D01*
X137741647Y-80763561D01*
X137741648Y-80763567D01*
X137761519Y-80851739D01*
X137789622Y-80976439D01*
X137873666Y-81183416D01*
X137910993Y-81244329D01*
X137987691Y-81369488D01*
X137990387Y-81373888D01*
X138136650Y-81542738D01*
X138308526Y-81685432D01*
X138360582Y-81715851D01*
X138381845Y-81728276D01*
X138430569Y-81779914D01*
X138443640Y-81849697D01*
X138416909Y-81915469D01*
X138376455Y-81948827D01*
X138364007Y-81955307D01*
X138359874Y-81958410D01*
X138359871Y-81958412D01*
X138189500Y-82086330D01*
X138185365Y-82089435D01*
X138178177Y-82096957D01*
X138098097Y-82180756D01*
X138031029Y-82250938D01*
X138028120Y-82255203D01*
X138028114Y-82255211D01*
X138004426Y-82289937D01*
X137905143Y-82435480D01*
X137889403Y-82469390D01*
X137818616Y-82621888D01*
X137811088Y-82638105D01*
X137751389Y-82853370D01*
X137727651Y-83075495D01*
X137727948Y-83080648D01*
X137727948Y-83080651D01*
X137736259Y-83224788D01*
X137740510Y-83298515D01*
X137741647Y-83303561D01*
X137741648Y-83303567D01*
X137759665Y-83383511D01*
X137789622Y-83516439D01*
X137873666Y-83723416D01*
X137924419Y-83806238D01*
X137987691Y-83909488D01*
X137990387Y-83913888D01*
X138136650Y-84082738D01*
X138308526Y-84225432D01*
X138364489Y-84258134D01*
X138381845Y-84268276D01*
X138430569Y-84319914D01*
X138443640Y-84389697D01*
X138416909Y-84455469D01*
X138376455Y-84488827D01*
X138364007Y-84495307D01*
X138359874Y-84498410D01*
X138359871Y-84498412D01*
X138191687Y-84624688D01*
X138185365Y-84629435D01*
X138031029Y-84790938D01*
X137905143Y-84975480D01*
X137811088Y-85178105D01*
X137751389Y-85393370D01*
X137727651Y-85615495D01*
X137727948Y-85620648D01*
X137727948Y-85620651D01*
X137733411Y-85715390D01*
X137740510Y-85838515D01*
X137741647Y-85843561D01*
X137741648Y-85843567D01*
X137760811Y-85928596D01*
X137789622Y-86056439D01*
X137838598Y-86177054D01*
X137868756Y-86251323D01*
X137873666Y-86263416D01*
X137914830Y-86330590D01*
X137987691Y-86449488D01*
X137990387Y-86453888D01*
X138136650Y-86622738D01*
X138242955Y-86710994D01*
X138294082Y-86753440D01*
X138308526Y-86765432D01*
X138378995Y-86806611D01*
X138381845Y-86808276D01*
X138430569Y-86859914D01*
X138443640Y-86929697D01*
X138416909Y-86995469D01*
X138376455Y-87028827D01*
X138364007Y-87035307D01*
X138359874Y-87038410D01*
X138359871Y-87038412D01*
X138264718Y-87109855D01*
X138185365Y-87169435D01*
X138181793Y-87173173D01*
X138064482Y-87295932D01*
X138031029Y-87330938D01*
X138028120Y-87335203D01*
X138028114Y-87335211D01*
X137989186Y-87392277D01*
X137905143Y-87515480D01*
X137865636Y-87600590D01*
X137836139Y-87664138D01*
X137811088Y-87718105D01*
X137751389Y-87933370D01*
X137727651Y-88155495D01*
X137727948Y-88160648D01*
X137727948Y-88160651D01*
X137733411Y-88255390D01*
X137740510Y-88378515D01*
X137741647Y-88383561D01*
X137741648Y-88383567D01*
X137761519Y-88471739D01*
X137789622Y-88596439D01*
X137826607Y-88687523D01*
X137868585Y-88790902D01*
X137873666Y-88803416D01*
X137924419Y-88886238D01*
X137987691Y-88989488D01*
X137990387Y-88993888D01*
X138136650Y-89162738D01*
X138221246Y-89232971D01*
X138294082Y-89293440D01*
X138308526Y-89305432D01*
X138378995Y-89346611D01*
X138381845Y-89348276D01*
X138430569Y-89399914D01*
X138443640Y-89469697D01*
X138416909Y-89535469D01*
X138376455Y-89568827D01*
X138364007Y-89575307D01*
X138359874Y-89578410D01*
X138359871Y-89578412D01*
X138335647Y-89596600D01*
X138185365Y-89709435D01*
X138031029Y-89870938D01*
X138028120Y-89875203D01*
X138028114Y-89875211D01*
X138017987Y-89890057D01*
X137905143Y-90055480D01*
X137876430Y-90117337D01*
X137836139Y-90204138D01*
X137811088Y-90258105D01*
X137751389Y-90473370D01*
X137727651Y-90695495D01*
X137727948Y-90700648D01*
X137727948Y-90700651D01*
X137733411Y-90795390D01*
X137740510Y-90918515D01*
X137741647Y-90923561D01*
X137741648Y-90923567D01*
X137761519Y-91011739D01*
X137789622Y-91136439D01*
X137838598Y-91257054D01*
X137868756Y-91331323D01*
X137873666Y-91343416D01*
X137914830Y-91410590D01*
X137987691Y-91529488D01*
X137990387Y-91533888D01*
X138136650Y-91702738D01*
X138221246Y-91772971D01*
X138294082Y-91833440D01*
X138308526Y-91845432D01*
X138378995Y-91886611D01*
X138381845Y-91888276D01*
X138430569Y-91939914D01*
X138443640Y-92009697D01*
X138416909Y-92075469D01*
X138376455Y-92108827D01*
X138364007Y-92115307D01*
X138359874Y-92118410D01*
X138359871Y-92118412D01*
X138264718Y-92189855D01*
X138185365Y-92249435D01*
X138181793Y-92253173D01*
X138076692Y-92363155D01*
X138031029Y-92410938D01*
X138028120Y-92415203D01*
X138028114Y-92415211D01*
X137989186Y-92472277D01*
X137905143Y-92595480D01*
X137865636Y-92680590D01*
X137836139Y-92744138D01*
X137811088Y-92798105D01*
X137751389Y-93013370D01*
X137727651Y-93235495D01*
X137727948Y-93240648D01*
X137727948Y-93240651D01*
X137733411Y-93335390D01*
X137740510Y-93458515D01*
X137741647Y-93463561D01*
X137741648Y-93463567D01*
X137761519Y-93551739D01*
X137789622Y-93676439D01*
X137827861Y-93770611D01*
X137868585Y-93870902D01*
X137873666Y-93883416D01*
X137924419Y-93966238D01*
X137987691Y-94069488D01*
X137990387Y-94073888D01*
X138136650Y-94242738D01*
X138221246Y-94312971D01*
X138294082Y-94373440D01*
X138308526Y-94385432D01*
X138378995Y-94426611D01*
X138381845Y-94428276D01*
X138430569Y-94479914D01*
X138443640Y-94549697D01*
X138416909Y-94615469D01*
X138376455Y-94648827D01*
X138364007Y-94655307D01*
X138359874Y-94658410D01*
X138359871Y-94658412D01*
X138335647Y-94676600D01*
X138185365Y-94789435D01*
X138031029Y-94950938D01*
X137905143Y-95135480D01*
X137876430Y-95197337D01*
X137836139Y-95284138D01*
X137811088Y-95338105D01*
X137751389Y-95553370D01*
X137727651Y-95775495D01*
X137727948Y-95780648D01*
X137727948Y-95780651D01*
X137733277Y-95873077D01*
X137740510Y-95998515D01*
X137741647Y-96003561D01*
X137741648Y-96003567D01*
X137761519Y-96091739D01*
X137789622Y-96216439D01*
X137838598Y-96337054D01*
X137868756Y-96411323D01*
X137873666Y-96423416D01*
X137912840Y-96487343D01*
X137987691Y-96609488D01*
X137990387Y-96613888D01*
X138136650Y-96782738D01*
X138275196Y-96897761D01*
X138294082Y-96913440D01*
X138308526Y-96925432D01*
X138378995Y-96966611D01*
X138381845Y-96968276D01*
X138430569Y-97019914D01*
X138443640Y-97089697D01*
X138416909Y-97155469D01*
X138376455Y-97188827D01*
X138364007Y-97195307D01*
X138359874Y-97198410D01*
X138359871Y-97198412D01*
X138264718Y-97269855D01*
X138185365Y-97329435D01*
X138031029Y-97490938D01*
X138028120Y-97495203D01*
X138028114Y-97495211D01*
X137989186Y-97552277D01*
X137905143Y-97675480D01*
X137866708Y-97758282D01*
X137821532Y-97855606D01*
X137811088Y-97878105D01*
X137751389Y-98093370D01*
X137727651Y-98315495D01*
X137727948Y-98320648D01*
X137727948Y-98320651D01*
X137736298Y-98465466D01*
X137740510Y-98538515D01*
X137741647Y-98543561D01*
X137741648Y-98543567D01*
X137761519Y-98631739D01*
X137789622Y-98756439D01*
X137827861Y-98850611D01*
X137868756Y-98951323D01*
X137873666Y-98963416D01*
X137914830Y-99030590D01*
X137987691Y-99149488D01*
X137990387Y-99153888D01*
X138136650Y-99322738D01*
X138221246Y-99392971D01*
X138294082Y-99453440D01*
X138308526Y-99465432D01*
X138378995Y-99506611D01*
X138381845Y-99508276D01*
X138430569Y-99559914D01*
X138443640Y-99629697D01*
X138416909Y-99695469D01*
X138376455Y-99728827D01*
X138364007Y-99735307D01*
X138359874Y-99738410D01*
X138359871Y-99738412D01*
X138264718Y-99809855D01*
X138185365Y-99869435D01*
X138031029Y-100030938D01*
X138028120Y-100035203D01*
X138028114Y-100035211D01*
X137989186Y-100092277D01*
X137905143Y-100215480D01*
X137858116Y-100316792D01*
X137836139Y-100364138D01*
X137811088Y-100418105D01*
X137751389Y-100633370D01*
X137727651Y-100855495D01*
X137727948Y-100860648D01*
X137727948Y-100860651D01*
X137733411Y-100955390D01*
X137740510Y-101078515D01*
X137741647Y-101083561D01*
X137741648Y-101083567D01*
X137761519Y-101171739D01*
X137789622Y-101296439D01*
X137827861Y-101390611D01*
X137868756Y-101491323D01*
X137873666Y-101503416D01*
X137914830Y-101570590D01*
X137987691Y-101689488D01*
X137990387Y-101693888D01*
X138136650Y-101862738D01*
X138221246Y-101932971D01*
X138294082Y-101993440D01*
X138308526Y-102005432D01*
X138316679Y-102010196D01*
X138381845Y-102048276D01*
X138430569Y-102099914D01*
X138443640Y-102169697D01*
X138416909Y-102235469D01*
X138376455Y-102268827D01*
X138364007Y-102275307D01*
X138359874Y-102278410D01*
X138359871Y-102278412D01*
X138189500Y-102406330D01*
X138185365Y-102409435D01*
X138031029Y-102570938D01*
X138028120Y-102575203D01*
X138028114Y-102575211D01*
X137989186Y-102632277D01*
X137905143Y-102755480D01*
X137866463Y-102838810D01*
X137813300Y-102953340D01*
X137811088Y-102958105D01*
X137751389Y-103173370D01*
X137727651Y-103395495D01*
X137727948Y-103400648D01*
X137727948Y-103400651D01*
X137733411Y-103495390D01*
X137740510Y-103618515D01*
X137741647Y-103623561D01*
X137741648Y-103623567D01*
X137761519Y-103711739D01*
X137789622Y-103836439D01*
X137827861Y-103930611D01*
X137868585Y-104030902D01*
X137873666Y-104043416D01*
X137922898Y-104123756D01*
X137987691Y-104229488D01*
X137990387Y-104233888D01*
X138136650Y-104402738D01*
X138221246Y-104472971D01*
X138294082Y-104533440D01*
X138308526Y-104545432D01*
X138378995Y-104586611D01*
X138381845Y-104588276D01*
X138430569Y-104639914D01*
X138443640Y-104709697D01*
X138416909Y-104775469D01*
X138376455Y-104808827D01*
X138364007Y-104815307D01*
X138359874Y-104818410D01*
X138359871Y-104818412D01*
X138189500Y-104946330D01*
X138185365Y-104949435D01*
X138031029Y-105110938D01*
X138028120Y-105115203D01*
X138028114Y-105115211D01*
X137979318Y-105186744D01*
X137905143Y-105295480D01*
X137873664Y-105363296D01*
X137836139Y-105444138D01*
X137811088Y-105498105D01*
X137751389Y-105713370D01*
X137727651Y-105935495D01*
X137727948Y-105940648D01*
X137727948Y-105940651D01*
X137737356Y-106103811D01*
X137740510Y-106158515D01*
X137741647Y-106163561D01*
X137741648Y-106163567D01*
X137761519Y-106251739D01*
X137789622Y-106376439D01*
X137827861Y-106470611D01*
X137868756Y-106571323D01*
X137873666Y-106583416D01*
X137914206Y-106649571D01*
X137987691Y-106769488D01*
X137990387Y-106773888D01*
X138136650Y-106942738D01*
X138221246Y-107012971D01*
X138294082Y-107073440D01*
X138308526Y-107085432D01*
X138378995Y-107126611D01*
X138381845Y-107128276D01*
X138430569Y-107179914D01*
X138443640Y-107249697D01*
X138416909Y-107315469D01*
X138376455Y-107348827D01*
X138364007Y-107355307D01*
X138359874Y-107358410D01*
X138359871Y-107358412D01*
X138212683Y-107468924D01*
X138185365Y-107489435D01*
X138031029Y-107650938D01*
X138028120Y-107655203D01*
X138028114Y-107655211D01*
X137989186Y-107712277D01*
X137905143Y-107835480D01*
X137858116Y-107936792D01*
X137836139Y-107984138D01*
X137811088Y-108038105D01*
X137751389Y-108253370D01*
X137727651Y-108475495D01*
X118318915Y-108475495D01*
X118246114Y-108418000D01*
X118246110Y-108417998D01*
X118242059Y-108414798D01*
X118200753Y-108391996D01*
X118150784Y-108341564D01*
X118136012Y-108272121D01*
X118161128Y-108205716D01*
X118188480Y-108179109D01*
X118232303Y-108147850D01*
X118367560Y-108051373D01*
X118380875Y-108038105D01*
X118522135Y-107897337D01*
X118525796Y-107893689D01*
X118564250Y-107840175D01*
X118653135Y-107716477D01*
X118656153Y-107712277D01*
X118677020Y-107670057D01*
X118752836Y-107516653D01*
X118752837Y-107516651D01*
X118755130Y-107512011D01*
X118801797Y-107358412D01*
X118818565Y-107303223D01*
X118818565Y-107303221D01*
X118820070Y-107298269D01*
X118829263Y-107228443D01*
X125648708Y-107228443D01*
X125664845Y-107393021D01*
X125717043Y-107549934D01*
X125720690Y-107555956D01*
X125720691Y-107555958D01*
X125796672Y-107681417D01*
X125802708Y-107691384D01*
X125807597Y-107696447D01*
X125807598Y-107696448D01*
X125878145Y-107769501D01*
X125917582Y-107810339D01*
X125923474Y-107814194D01*
X125923478Y-107814198D01*
X126000562Y-107864640D01*
X126055955Y-107900888D01*
X126210951Y-107958530D01*
X126217932Y-107959461D01*
X126217934Y-107959462D01*
X126367885Y-107979470D01*
X126367889Y-107979470D01*
X126374866Y-107980401D01*
X126381878Y-107979763D01*
X126381881Y-107979763D01*
X126532534Y-107966053D01*
X126532537Y-107966052D01*
X126539552Y-107965414D01*
X126568294Y-107956075D01*
X126690130Y-107916488D01*
X126690132Y-107916487D01*
X126696826Y-107914312D01*
X126798972Y-107853421D01*
X126832818Y-107833245D01*
X126832820Y-107833244D01*
X126838870Y-107829637D01*
X126958624Y-107715597D01*
X126997008Y-107657825D01*
X127046236Y-107583731D01*
X127046237Y-107583729D01*
X127050137Y-107577859D01*
X127108860Y-107423269D01*
X127131875Y-107259511D01*
X127132164Y-107238800D01*
X127113731Y-107074463D01*
X127059347Y-106918294D01*
X126971716Y-106778055D01*
X126913208Y-106719137D01*
X126860155Y-106665712D01*
X126860151Y-106665709D01*
X126855192Y-106660715D01*
X126845056Y-106654282D01*
X126785402Y-106616425D01*
X126715568Y-106572107D01*
X126612899Y-106535548D01*
X126566416Y-106518996D01*
X126566414Y-106518995D01*
X126559782Y-106516634D01*
X126552796Y-106515801D01*
X126552792Y-106515800D01*
X126435715Y-106501840D01*
X126395578Y-106497054D01*
X126388576Y-106497790D01*
X126388574Y-106497790D01*
X126238117Y-106513604D01*
X126238115Y-106513604D01*
X126231117Y-106514340D01*
X126157195Y-106539505D01*
X126081242Y-106565361D01*
X126081239Y-106565362D01*
X126074572Y-106567632D01*
X126068573Y-106571322D01*
X126068572Y-106571323D01*
X125939725Y-106650590D01*
X125933724Y-106654282D01*
X125928691Y-106659211D01*
X125824964Y-106760788D01*
X125815574Y-106769983D01*
X125725993Y-106908986D01*
X125723584Y-106915606D01*
X125723583Y-106915607D01*
X125689154Y-107010200D01*
X125669434Y-107064380D01*
X125648708Y-107228443D01*
X118829263Y-107228443D01*
X118849229Y-107076790D01*
X118849311Y-107073440D01*
X118850774Y-107013565D01*
X118850774Y-107013561D01*
X118850856Y-107010200D01*
X118832552Y-106787561D01*
X118778131Y-106570902D01*
X118689054Y-106366040D01*
X118567714Y-106178477D01*
X118417370Y-106013251D01*
X118413319Y-106010052D01*
X118413315Y-106010048D01*
X118246114Y-105878000D01*
X118246110Y-105877998D01*
X118242059Y-105874798D01*
X118200753Y-105851996D01*
X118150784Y-105801564D01*
X118136012Y-105732121D01*
X118161128Y-105665716D01*
X118188480Y-105639109D01*
X118232303Y-105607850D01*
X118367560Y-105511373D01*
X118377729Y-105501240D01*
X118516155Y-105363296D01*
X118525796Y-105353689D01*
X118564250Y-105300175D01*
X118653135Y-105176477D01*
X118656153Y-105172277D01*
X118673500Y-105137179D01*
X118752836Y-104976653D01*
X118752837Y-104976651D01*
X118755130Y-104972011D01*
X118801797Y-104818412D01*
X118818565Y-104763223D01*
X118818565Y-104763221D01*
X118820070Y-104758269D01*
X118849229Y-104536790D01*
X118850612Y-104480202D01*
X118850774Y-104473565D01*
X118850774Y-104473561D01*
X118850856Y-104470200D01*
X118849124Y-104449134D01*
X130968017Y-104449134D01*
X130984154Y-104613712D01*
X131036352Y-104770625D01*
X131039999Y-104776647D01*
X131040000Y-104776649D01*
X131074369Y-104833398D01*
X131122017Y-104912075D01*
X131126906Y-104917138D01*
X131126907Y-104917139D01*
X131193866Y-104986476D01*
X131236891Y-105031030D01*
X131242783Y-105034885D01*
X131242787Y-105034889D01*
X131311760Y-105080023D01*
X131375264Y-105121579D01*
X131530260Y-105179221D01*
X131537241Y-105180152D01*
X131537243Y-105180153D01*
X131687194Y-105200161D01*
X131687198Y-105200161D01*
X131694175Y-105201092D01*
X131701187Y-105200454D01*
X131701190Y-105200454D01*
X131851843Y-105186744D01*
X131851846Y-105186743D01*
X131858861Y-105186105D01*
X131915696Y-105167638D01*
X132009439Y-105137179D01*
X132009441Y-105137178D01*
X132016135Y-105135003D01*
X132108365Y-105080023D01*
X132152127Y-105053936D01*
X132152129Y-105053935D01*
X132158179Y-105050328D01*
X132277933Y-104936288D01*
X132298022Y-104906052D01*
X132365545Y-104804422D01*
X132365546Y-104804420D01*
X132369446Y-104798550D01*
X132428169Y-104643960D01*
X132451184Y-104480202D01*
X132451327Y-104469973D01*
X132451418Y-104463453D01*
X132451418Y-104463448D01*
X132451473Y-104459491D01*
X132433040Y-104295154D01*
X132414719Y-104242542D01*
X132380974Y-104145642D01*
X132378656Y-104138985D01*
X132291025Y-103998746D01*
X132209331Y-103916480D01*
X132179464Y-103886403D01*
X132179460Y-103886400D01*
X132174501Y-103881406D01*
X132164365Y-103874973D01*
X132082455Y-103822992D01*
X132034877Y-103792798D01*
X131963141Y-103767254D01*
X131885725Y-103739687D01*
X131885723Y-103739686D01*
X131879091Y-103737325D01*
X131872105Y-103736492D01*
X131872101Y-103736491D01*
X131749086Y-103721823D01*
X131714887Y-103717745D01*
X131707885Y-103718481D01*
X131707883Y-103718481D01*
X131557426Y-103734295D01*
X131557424Y-103734295D01*
X131550426Y-103735031D01*
X131468140Y-103763043D01*
X131400551Y-103786052D01*
X131400548Y-103786053D01*
X131393881Y-103788323D01*
X131387882Y-103792013D01*
X131387881Y-103792014D01*
X131259034Y-103871281D01*
X131253033Y-103874973D01*
X131134883Y-103990674D01*
X131045302Y-104129677D01*
X131042893Y-104136297D01*
X131042892Y-104136298D01*
X131000517Y-104252722D01*
X130988743Y-104285071D01*
X130968017Y-104449134D01*
X118849124Y-104449134D01*
X118832552Y-104247561D01*
X118778131Y-104030902D01*
X118689054Y-103826040D01*
X118631662Y-103737325D01*
X118570522Y-103642817D01*
X118570520Y-103642814D01*
X118567714Y-103638477D01*
X118417370Y-103473251D01*
X118413319Y-103470052D01*
X118413315Y-103470048D01*
X118246114Y-103338000D01*
X118246110Y-103337998D01*
X118242059Y-103334798D01*
X118200753Y-103311996D01*
X118150784Y-103261564D01*
X118136012Y-103192121D01*
X118161128Y-103125716D01*
X118188480Y-103099109D01*
X118243968Y-103059530D01*
X118367560Y-102971373D01*
X118380875Y-102958105D01*
X118494661Y-102844715D01*
X118525796Y-102813689D01*
X118564250Y-102760175D01*
X118653135Y-102636477D01*
X118656153Y-102632277D01*
X118677020Y-102590057D01*
X118752836Y-102436653D01*
X118752837Y-102436651D01*
X118755130Y-102432011D01*
X118801797Y-102278412D01*
X118818565Y-102223223D01*
X118818565Y-102223221D01*
X118820070Y-102218269D01*
X118829263Y-102148443D01*
X129458708Y-102148443D01*
X129474845Y-102313021D01*
X129527043Y-102469934D01*
X129530690Y-102475956D01*
X129530691Y-102475958D01*
X129606672Y-102601417D01*
X129612708Y-102611384D01*
X129617597Y-102616447D01*
X129617598Y-102616448D01*
X129688145Y-102689501D01*
X129727582Y-102730339D01*
X129733474Y-102734194D01*
X129733478Y-102734198D01*
X129810562Y-102784640D01*
X129865955Y-102820888D01*
X130020951Y-102878530D01*
X130027932Y-102879461D01*
X130027934Y-102879462D01*
X130177885Y-102899470D01*
X130177889Y-102899470D01*
X130184866Y-102900401D01*
X130191878Y-102899763D01*
X130191881Y-102899763D01*
X130342534Y-102886053D01*
X130342537Y-102886052D01*
X130349552Y-102885414D01*
X130378294Y-102876075D01*
X130500130Y-102836488D01*
X130500132Y-102836487D01*
X130506826Y-102834312D01*
X130608972Y-102773421D01*
X130642818Y-102753245D01*
X130642820Y-102753244D01*
X130648870Y-102749637D01*
X130768624Y-102635597D01*
X130807008Y-102577825D01*
X130856236Y-102503731D01*
X130856237Y-102503729D01*
X130860137Y-102497859D01*
X130918860Y-102343269D01*
X130941875Y-102179511D01*
X130942164Y-102158800D01*
X130923731Y-101994463D01*
X130869347Y-101838294D01*
X130781716Y-101698055D01*
X130723208Y-101639137D01*
X130670155Y-101585712D01*
X130670151Y-101585709D01*
X130665192Y-101580715D01*
X130655056Y-101574282D01*
X130595402Y-101536425D01*
X130525568Y-101492107D01*
X130476081Y-101474485D01*
X130376416Y-101438996D01*
X130376414Y-101438995D01*
X130369782Y-101436634D01*
X130362796Y-101435801D01*
X130362792Y-101435800D01*
X130245715Y-101421840D01*
X130205578Y-101417054D01*
X130198576Y-101417790D01*
X130198574Y-101417790D01*
X130048117Y-101433604D01*
X130048115Y-101433604D01*
X130041117Y-101434340D01*
X129967195Y-101459505D01*
X129891242Y-101485361D01*
X129891239Y-101485362D01*
X129884572Y-101487632D01*
X129878573Y-101491322D01*
X129878572Y-101491323D01*
X129805260Y-101536425D01*
X129743724Y-101574282D01*
X129625574Y-101689983D01*
X129535993Y-101828986D01*
X129533584Y-101835606D01*
X129533583Y-101835607D01*
X129499154Y-101930200D01*
X129479434Y-101984380D01*
X129458708Y-102148443D01*
X118829263Y-102148443D01*
X118849229Y-101996790D01*
X118849311Y-101993440D01*
X118850774Y-101933565D01*
X118850774Y-101933561D01*
X118850856Y-101930200D01*
X118832552Y-101707561D01*
X118778131Y-101490902D01*
X118689054Y-101286040D01*
X118567714Y-101098477D01*
X118417370Y-100933251D01*
X118413319Y-100930052D01*
X118413315Y-100930048D01*
X118246114Y-100798000D01*
X118246110Y-100797998D01*
X118242059Y-100794798D01*
X118200753Y-100771996D01*
X118150784Y-100721564D01*
X118136012Y-100652121D01*
X118161128Y-100585716D01*
X118188480Y-100559109D01*
X118232303Y-100527850D01*
X118367560Y-100431373D01*
X118380875Y-100418105D01*
X118522135Y-100277337D01*
X118525796Y-100273689D01*
X118564250Y-100220175D01*
X118653135Y-100096477D01*
X118656153Y-100092277D01*
X118677020Y-100050057D01*
X118752836Y-99896653D01*
X118752837Y-99896651D01*
X118755130Y-99892011D01*
X118801797Y-99738412D01*
X118818565Y-99683223D01*
X118818565Y-99683221D01*
X118820070Y-99678269D01*
X118829263Y-99608443D01*
X128188708Y-99608443D01*
X128204845Y-99773021D01*
X128257043Y-99929934D01*
X128260690Y-99935956D01*
X128260691Y-99935958D01*
X128336672Y-100061417D01*
X128342708Y-100071384D01*
X128347597Y-100076447D01*
X128347598Y-100076448D01*
X128418145Y-100149501D01*
X128457582Y-100190339D01*
X128463474Y-100194194D01*
X128463478Y-100194198D01*
X128540562Y-100244640D01*
X128595955Y-100280888D01*
X128750951Y-100338530D01*
X128757932Y-100339461D01*
X128757934Y-100339462D01*
X128907885Y-100359470D01*
X128907889Y-100359470D01*
X128914866Y-100360401D01*
X128921878Y-100359763D01*
X128921881Y-100359763D01*
X129072534Y-100346053D01*
X129072537Y-100346052D01*
X129079552Y-100345414D01*
X129108294Y-100336075D01*
X129230130Y-100296488D01*
X129230132Y-100296487D01*
X129236826Y-100294312D01*
X129338972Y-100233421D01*
X129372818Y-100213245D01*
X129372820Y-100213244D01*
X129378870Y-100209637D01*
X129498624Y-100095597D01*
X129537008Y-100037825D01*
X129586236Y-99963731D01*
X129586237Y-99963729D01*
X129590137Y-99957859D01*
X129648860Y-99803269D01*
X129671875Y-99639511D01*
X129672164Y-99618800D01*
X129671002Y-99608443D01*
X134538708Y-99608443D01*
X134554845Y-99773021D01*
X134607043Y-99929934D01*
X134610690Y-99935956D01*
X134610691Y-99935958D01*
X134686672Y-100061417D01*
X134692708Y-100071384D01*
X134697597Y-100076447D01*
X134697598Y-100076448D01*
X134768145Y-100149501D01*
X134807582Y-100190339D01*
X134813474Y-100194194D01*
X134813478Y-100194198D01*
X134890562Y-100244640D01*
X134945955Y-100280888D01*
X135100951Y-100338530D01*
X135107932Y-100339461D01*
X135107934Y-100339462D01*
X135257885Y-100359470D01*
X135257889Y-100359470D01*
X135264866Y-100360401D01*
X135271878Y-100359763D01*
X135271881Y-100359763D01*
X135422534Y-100346053D01*
X135422537Y-100346052D01*
X135429552Y-100345414D01*
X135458294Y-100336075D01*
X135580130Y-100296488D01*
X135580132Y-100296487D01*
X135586826Y-100294312D01*
X135688972Y-100233421D01*
X135722818Y-100213245D01*
X135722820Y-100213244D01*
X135728870Y-100209637D01*
X135848624Y-100095597D01*
X135887008Y-100037825D01*
X135936236Y-99963731D01*
X135936237Y-99963729D01*
X135940137Y-99957859D01*
X135998860Y-99803269D01*
X136021875Y-99639511D01*
X136022164Y-99618800D01*
X136003731Y-99454463D01*
X135949347Y-99298294D01*
X135861716Y-99158055D01*
X135803208Y-99099137D01*
X135750155Y-99045712D01*
X135750151Y-99045709D01*
X135745192Y-99040715D01*
X135735056Y-99034282D01*
X135675402Y-98996425D01*
X135605568Y-98952107D01*
X135527191Y-98924198D01*
X135456416Y-98898996D01*
X135456414Y-98898995D01*
X135449782Y-98896634D01*
X135442796Y-98895801D01*
X135442792Y-98895800D01*
X135325715Y-98881840D01*
X135285578Y-98877054D01*
X135278576Y-98877790D01*
X135278574Y-98877790D01*
X135128117Y-98893604D01*
X135128115Y-98893604D01*
X135121117Y-98894340D01*
X135047195Y-98919505D01*
X134971242Y-98945361D01*
X134971239Y-98945362D01*
X134964572Y-98947632D01*
X134958573Y-98951322D01*
X134958572Y-98951323D01*
X134840528Y-99023944D01*
X134823724Y-99034282D01*
X134705574Y-99149983D01*
X134615993Y-99288986D01*
X134613584Y-99295606D01*
X134613583Y-99295607D01*
X134579154Y-99390200D01*
X134559434Y-99444380D01*
X134538708Y-99608443D01*
X129671002Y-99608443D01*
X129653731Y-99454463D01*
X129599347Y-99298294D01*
X129511716Y-99158055D01*
X129453208Y-99099137D01*
X129400155Y-99045712D01*
X129400151Y-99045709D01*
X129395192Y-99040715D01*
X129385056Y-99034282D01*
X129325402Y-98996425D01*
X129255568Y-98952107D01*
X129177191Y-98924198D01*
X129106416Y-98898996D01*
X129106414Y-98898995D01*
X129099782Y-98896634D01*
X129092796Y-98895801D01*
X129092792Y-98895800D01*
X128975715Y-98881840D01*
X128935578Y-98877054D01*
X128928576Y-98877790D01*
X128928574Y-98877790D01*
X128778117Y-98893604D01*
X128778115Y-98893604D01*
X128771117Y-98894340D01*
X128697195Y-98919505D01*
X128621242Y-98945361D01*
X128621239Y-98945362D01*
X128614572Y-98947632D01*
X128608573Y-98951322D01*
X128608572Y-98951323D01*
X128490528Y-99023944D01*
X128473724Y-99034282D01*
X128355574Y-99149983D01*
X128265993Y-99288986D01*
X128263584Y-99295606D01*
X128263583Y-99295607D01*
X128229154Y-99390200D01*
X128209434Y-99444380D01*
X128188708Y-99608443D01*
X118829263Y-99608443D01*
X118849229Y-99456790D01*
X118849311Y-99453440D01*
X118850774Y-99393565D01*
X118850774Y-99393561D01*
X118850856Y-99390200D01*
X118832552Y-99167561D01*
X118778131Y-98950902D01*
X118689054Y-98746040D01*
X118567714Y-98558477D01*
X118417370Y-98393251D01*
X118413319Y-98390052D01*
X118413315Y-98390048D01*
X118347972Y-98338443D01*
X121838708Y-98338443D01*
X121854845Y-98503021D01*
X121907043Y-98659934D01*
X121910690Y-98665956D01*
X121910691Y-98665958D01*
X121979899Y-98780233D01*
X121992708Y-98801384D01*
X121997597Y-98806447D01*
X121997598Y-98806448D01*
X122023731Y-98833509D01*
X122107582Y-98920339D01*
X122113474Y-98924194D01*
X122113478Y-98924198D01*
X122154930Y-98951323D01*
X122245955Y-99010888D01*
X122400951Y-99068530D01*
X122407932Y-99069461D01*
X122407934Y-99069462D01*
X122557885Y-99089470D01*
X122557889Y-99089470D01*
X122564866Y-99090401D01*
X122571878Y-99089763D01*
X122571881Y-99089763D01*
X122722534Y-99076053D01*
X122722537Y-99076052D01*
X122729552Y-99075414D01*
X122758294Y-99066075D01*
X122880130Y-99026488D01*
X122880132Y-99026487D01*
X122886826Y-99024312D01*
X122933607Y-98996425D01*
X123022818Y-98943245D01*
X123022820Y-98943244D01*
X123028870Y-98939637D01*
X123148624Y-98825597D01*
X123203507Y-98742992D01*
X123236236Y-98693731D01*
X123236237Y-98693729D01*
X123240137Y-98687859D01*
X123298860Y-98533269D01*
X123319588Y-98385787D01*
X123321324Y-98373433D01*
X123321324Y-98373430D01*
X123321875Y-98369511D01*
X123322164Y-98348800D01*
X123321002Y-98338443D01*
X130728708Y-98338443D01*
X130744845Y-98503021D01*
X130797043Y-98659934D01*
X130800690Y-98665956D01*
X130800691Y-98665958D01*
X130869899Y-98780233D01*
X130882708Y-98801384D01*
X130887597Y-98806447D01*
X130887598Y-98806448D01*
X130913731Y-98833509D01*
X130997582Y-98920339D01*
X131003474Y-98924194D01*
X131003478Y-98924198D01*
X131044930Y-98951323D01*
X131135955Y-99010888D01*
X131290951Y-99068530D01*
X131297932Y-99069461D01*
X131297934Y-99069462D01*
X131447885Y-99089470D01*
X131447889Y-99089470D01*
X131454866Y-99090401D01*
X131461878Y-99089763D01*
X131461881Y-99089763D01*
X131612534Y-99076053D01*
X131612537Y-99076052D01*
X131619552Y-99075414D01*
X131648294Y-99066075D01*
X131770130Y-99026488D01*
X131770132Y-99026487D01*
X131776826Y-99024312D01*
X131823607Y-98996425D01*
X131912818Y-98943245D01*
X131912820Y-98943244D01*
X131918870Y-98939637D01*
X132038624Y-98825597D01*
X132093507Y-98742992D01*
X132126236Y-98693731D01*
X132126237Y-98693729D01*
X132130137Y-98687859D01*
X132188860Y-98533269D01*
X132209588Y-98385787D01*
X132211324Y-98373433D01*
X132211324Y-98373430D01*
X132211875Y-98369511D01*
X132212164Y-98348800D01*
X132193731Y-98184463D01*
X132139347Y-98028294D01*
X132051716Y-97888055D01*
X131991523Y-97827440D01*
X131940155Y-97775712D01*
X131940151Y-97775709D01*
X131935192Y-97770715D01*
X131925056Y-97764282D01*
X131826271Y-97701592D01*
X131795568Y-97682107D01*
X131707895Y-97650888D01*
X131646416Y-97628996D01*
X131646414Y-97628995D01*
X131639782Y-97626634D01*
X131632796Y-97625801D01*
X131632792Y-97625800D01*
X131515715Y-97611840D01*
X131475578Y-97607054D01*
X131468576Y-97607790D01*
X131468574Y-97607790D01*
X131318117Y-97623604D01*
X131318115Y-97623604D01*
X131311117Y-97624340D01*
X131228831Y-97652352D01*
X131161242Y-97675361D01*
X131161239Y-97675362D01*
X131154572Y-97677632D01*
X131148573Y-97681322D01*
X131148572Y-97681323D01*
X131029930Y-97754312D01*
X131013724Y-97764282D01*
X130971721Y-97805414D01*
X130915770Y-97860206D01*
X130895574Y-97879983D01*
X130891759Y-97885903D01*
X130891758Y-97885904D01*
X130850784Y-97949484D01*
X130805993Y-98018986D01*
X130803584Y-98025606D01*
X130803583Y-98025607D01*
X130751843Y-98167761D01*
X130749434Y-98174380D01*
X130728708Y-98338443D01*
X123321002Y-98338443D01*
X123303731Y-98184463D01*
X123249347Y-98028294D01*
X123161716Y-97888055D01*
X123101523Y-97827440D01*
X123050155Y-97775712D01*
X123050151Y-97775709D01*
X123045192Y-97770715D01*
X123035056Y-97764282D01*
X122936271Y-97701592D01*
X122905568Y-97682107D01*
X122817895Y-97650888D01*
X122756416Y-97628996D01*
X122756414Y-97628995D01*
X122749782Y-97626634D01*
X122742796Y-97625801D01*
X122742792Y-97625800D01*
X122625715Y-97611840D01*
X122585578Y-97607054D01*
X122578576Y-97607790D01*
X122578574Y-97607790D01*
X122428117Y-97623604D01*
X122428115Y-97623604D01*
X122421117Y-97624340D01*
X122338831Y-97652352D01*
X122271242Y-97675361D01*
X122271239Y-97675362D01*
X122264572Y-97677632D01*
X122258573Y-97681322D01*
X122258572Y-97681323D01*
X122139930Y-97754312D01*
X122123724Y-97764282D01*
X122081721Y-97805414D01*
X122025770Y-97860206D01*
X122005574Y-97879983D01*
X122001759Y-97885903D01*
X122001758Y-97885904D01*
X121960784Y-97949484D01*
X121915993Y-98018986D01*
X121913584Y-98025606D01*
X121913583Y-98025607D01*
X121861843Y-98167761D01*
X121859434Y-98174380D01*
X121838708Y-98338443D01*
X118347972Y-98338443D01*
X118246114Y-98258000D01*
X118246110Y-98257998D01*
X118242059Y-98254798D01*
X118200753Y-98231996D01*
X118150784Y-98181564D01*
X118136012Y-98112121D01*
X118161128Y-98045716D01*
X118188480Y-98019109D01*
X118232303Y-97987850D01*
X118367560Y-97891373D01*
X118380875Y-97878105D01*
X118491894Y-97767473D01*
X118525796Y-97733689D01*
X118564250Y-97680175D01*
X118653135Y-97556477D01*
X118656153Y-97552277D01*
X118677020Y-97510057D01*
X118752836Y-97356653D01*
X118752837Y-97356651D01*
X118755130Y-97352011D01*
X118801797Y-97198412D01*
X118818565Y-97143223D01*
X118818565Y-97143221D01*
X118820070Y-97138269D01*
X118829263Y-97068443D01*
X124378708Y-97068443D01*
X124394845Y-97233021D01*
X124447043Y-97389934D01*
X124450690Y-97395956D01*
X124450691Y-97395958D01*
X124526672Y-97521417D01*
X124532708Y-97531384D01*
X124537597Y-97536447D01*
X124537598Y-97536448D01*
X124605782Y-97607054D01*
X124647582Y-97650339D01*
X124653474Y-97654194D01*
X124653478Y-97654198D01*
X124730562Y-97704640D01*
X124785955Y-97740888D01*
X124940951Y-97798530D01*
X124947932Y-97799461D01*
X124947934Y-97799462D01*
X125097885Y-97819470D01*
X125097889Y-97819470D01*
X125104866Y-97820401D01*
X125111878Y-97819763D01*
X125111881Y-97819763D01*
X125262534Y-97806053D01*
X125262537Y-97806052D01*
X125269552Y-97805414D01*
X125298294Y-97796075D01*
X125420130Y-97756488D01*
X125420132Y-97756487D01*
X125426826Y-97754312D01*
X125541612Y-97685886D01*
X125562818Y-97673245D01*
X125562820Y-97673244D01*
X125568870Y-97669637D01*
X125688624Y-97555597D01*
X125727008Y-97497825D01*
X125776236Y-97423731D01*
X125776237Y-97423729D01*
X125780137Y-97417859D01*
X125838860Y-97263269D01*
X125861042Y-97105438D01*
X125861324Y-97103433D01*
X125861324Y-97103430D01*
X125861875Y-97099511D01*
X125862164Y-97078800D01*
X125843731Y-96914463D01*
X125789347Y-96758294D01*
X125701716Y-96618055D01*
X125643208Y-96559137D01*
X125590155Y-96505712D01*
X125590151Y-96505709D01*
X125585192Y-96500715D01*
X125578458Y-96496441D01*
X125515402Y-96456425D01*
X125445568Y-96412107D01*
X125367191Y-96384198D01*
X125296416Y-96358996D01*
X125296414Y-96358995D01*
X125289782Y-96356634D01*
X125282796Y-96355801D01*
X125282792Y-96355800D01*
X125165715Y-96341840D01*
X125125578Y-96337054D01*
X125118576Y-96337790D01*
X125118574Y-96337790D01*
X124968117Y-96353604D01*
X124968115Y-96353604D01*
X124961117Y-96354340D01*
X124887195Y-96379505D01*
X124811242Y-96405361D01*
X124811239Y-96405362D01*
X124804572Y-96407632D01*
X124798573Y-96411322D01*
X124798572Y-96411323D01*
X124680528Y-96483944D01*
X124663724Y-96494282D01*
X124545574Y-96609983D01*
X124455993Y-96748986D01*
X124453584Y-96755606D01*
X124453583Y-96755607D01*
X124419154Y-96850200D01*
X124399434Y-96904380D01*
X124378708Y-97068443D01*
X118829263Y-97068443D01*
X118849229Y-96916790D01*
X118849336Y-96912413D01*
X118850774Y-96853565D01*
X118850774Y-96853561D01*
X118850856Y-96850200D01*
X118832552Y-96627561D01*
X118778131Y-96410902D01*
X118689054Y-96206040D01*
X118567714Y-96018477D01*
X118417370Y-95853251D01*
X118413319Y-95850052D01*
X118413315Y-95850048D01*
X118347972Y-95798443D01*
X119933708Y-95798443D01*
X119949845Y-95963021D01*
X120002043Y-96119934D01*
X120005690Y-96125956D01*
X120005691Y-96125958D01*
X120068940Y-96230394D01*
X120087708Y-96261384D01*
X120092597Y-96266447D01*
X120092598Y-96266448D01*
X120121600Y-96296480D01*
X120202582Y-96380339D01*
X120208474Y-96384194D01*
X120208478Y-96384198D01*
X120249930Y-96411323D01*
X120340955Y-96470888D01*
X120495951Y-96528530D01*
X120502932Y-96529461D01*
X120502934Y-96529462D01*
X120652885Y-96549470D01*
X120652889Y-96549470D01*
X120659866Y-96550401D01*
X120666878Y-96549763D01*
X120666881Y-96549763D01*
X120817534Y-96536053D01*
X120817537Y-96536052D01*
X120824552Y-96535414D01*
X120853294Y-96526075D01*
X120975130Y-96486488D01*
X120975132Y-96486487D01*
X120981826Y-96484312D01*
X121028607Y-96456425D01*
X121117818Y-96403245D01*
X121117820Y-96403244D01*
X121123870Y-96399637D01*
X121243624Y-96285597D01*
X121298507Y-96202992D01*
X121331236Y-96153731D01*
X121331237Y-96153729D01*
X121335137Y-96147859D01*
X121393860Y-95993269D01*
X121416875Y-95829511D01*
X121417164Y-95808800D01*
X121398731Y-95644463D01*
X121344347Y-95488294D01*
X121256716Y-95348055D01*
X121196523Y-95287440D01*
X121145155Y-95235712D01*
X121145151Y-95235709D01*
X121140192Y-95230715D01*
X121130056Y-95224282D01*
X121031271Y-95161592D01*
X121000568Y-95142107D01*
X120912895Y-95110888D01*
X120851416Y-95088996D01*
X120851414Y-95088995D01*
X120844782Y-95086634D01*
X120837796Y-95085801D01*
X120837792Y-95085800D01*
X120720715Y-95071840D01*
X120680578Y-95067054D01*
X120673576Y-95067790D01*
X120673574Y-95067790D01*
X120523117Y-95083604D01*
X120523115Y-95083604D01*
X120516117Y-95084340D01*
X120433831Y-95112352D01*
X120366242Y-95135361D01*
X120366239Y-95135362D01*
X120359572Y-95137632D01*
X120353573Y-95141322D01*
X120353572Y-95141323D01*
X120224725Y-95220590D01*
X120218724Y-95224282D01*
X120213691Y-95229211D01*
X120120770Y-95320206D01*
X120100574Y-95339983D01*
X120096759Y-95345903D01*
X120096758Y-95345904D01*
X120055784Y-95409484D01*
X120010993Y-95478986D01*
X120008584Y-95485606D01*
X120008583Y-95485607D01*
X119956843Y-95627761D01*
X119954434Y-95634380D01*
X119933708Y-95798443D01*
X118347972Y-95798443D01*
X118246114Y-95718000D01*
X118246110Y-95717998D01*
X118242059Y-95714798D01*
X118200753Y-95691996D01*
X118150784Y-95641564D01*
X118136012Y-95572121D01*
X118161128Y-95505716D01*
X118188480Y-95479109D01*
X118232303Y-95447850D01*
X118367560Y-95351373D01*
X118380875Y-95338105D01*
X118490150Y-95229211D01*
X118525796Y-95193689D01*
X118564250Y-95140175D01*
X118653135Y-95016477D01*
X118656153Y-95012277D01*
X118677020Y-94970057D01*
X118752836Y-94816653D01*
X118752837Y-94816651D01*
X118755130Y-94812011D01*
X118801797Y-94658412D01*
X118818565Y-94603223D01*
X118818565Y-94603221D01*
X118820070Y-94598269D01*
X118849229Y-94376790D01*
X118850856Y-94310200D01*
X118832552Y-94087561D01*
X118778131Y-93870902D01*
X118689054Y-93666040D01*
X118567714Y-93478477D01*
X118417370Y-93313251D01*
X118413319Y-93310052D01*
X118413315Y-93310048D01*
X118347972Y-93258443D01*
X119933708Y-93258443D01*
X119949845Y-93423021D01*
X120002043Y-93579934D01*
X120005690Y-93585956D01*
X120005691Y-93585958D01*
X120062982Y-93680556D01*
X120087708Y-93721384D01*
X120092597Y-93726447D01*
X120092598Y-93726448D01*
X120121600Y-93756480D01*
X120202582Y-93840339D01*
X120208474Y-93844194D01*
X120208478Y-93844198D01*
X120256955Y-93875920D01*
X120340955Y-93930888D01*
X120495951Y-93988530D01*
X120502932Y-93989461D01*
X120502934Y-93989462D01*
X120652885Y-94009470D01*
X120652889Y-94009470D01*
X120659866Y-94010401D01*
X120666878Y-94009763D01*
X120666881Y-94009763D01*
X120817534Y-93996053D01*
X120817537Y-93996052D01*
X120824552Y-93995414D01*
X120853294Y-93986075D01*
X120975130Y-93946488D01*
X120975132Y-93946487D01*
X120981826Y-93944312D01*
X121028607Y-93916425D01*
X121117818Y-93863245D01*
X121117820Y-93863244D01*
X121123870Y-93859637D01*
X121243624Y-93745597D01*
X121286393Y-93681225D01*
X121331236Y-93613731D01*
X121331237Y-93613729D01*
X121335137Y-93607859D01*
X121393860Y-93453269D01*
X121416875Y-93289511D01*
X121417164Y-93268800D01*
X121398731Y-93104463D01*
X121344347Y-92948294D01*
X121256716Y-92808055D01*
X121196523Y-92747440D01*
X121145155Y-92695712D01*
X121145151Y-92695709D01*
X121140192Y-92690715D01*
X121130056Y-92684282D01*
X121031271Y-92621592D01*
X121000568Y-92602107D01*
X120912895Y-92570888D01*
X120851416Y-92548996D01*
X120851414Y-92548995D01*
X120844782Y-92546634D01*
X120837796Y-92545801D01*
X120837792Y-92545800D01*
X120720715Y-92531840D01*
X120680578Y-92527054D01*
X120673576Y-92527790D01*
X120673574Y-92527790D01*
X120523117Y-92543604D01*
X120523115Y-92543604D01*
X120516117Y-92544340D01*
X120433831Y-92572352D01*
X120366242Y-92595361D01*
X120366239Y-92595362D01*
X120359572Y-92597632D01*
X120353573Y-92601322D01*
X120353572Y-92601323D01*
X120234930Y-92674312D01*
X120218724Y-92684282D01*
X120176721Y-92725414D01*
X120120770Y-92780206D01*
X120100574Y-92799983D01*
X120096759Y-92805903D01*
X120096758Y-92805904D01*
X120055784Y-92869484D01*
X120010993Y-92938986D01*
X120008584Y-92945606D01*
X120008583Y-92945607D01*
X119956843Y-93087761D01*
X119954434Y-93094380D01*
X119933708Y-93258443D01*
X118347972Y-93258443D01*
X118246114Y-93178000D01*
X118246110Y-93177998D01*
X118242059Y-93174798D01*
X118200753Y-93151996D01*
X118150784Y-93101564D01*
X118136012Y-93032121D01*
X118161128Y-92965716D01*
X118188480Y-92939109D01*
X118232303Y-92907850D01*
X118367560Y-92811373D01*
X118380875Y-92798105D01*
X118490150Y-92689211D01*
X118525796Y-92653689D01*
X118564250Y-92600175D01*
X118653135Y-92476477D01*
X118656153Y-92472277D01*
X118677020Y-92430057D01*
X118752836Y-92276653D01*
X118752837Y-92276651D01*
X118755130Y-92272011D01*
X118801797Y-92118412D01*
X118818565Y-92063223D01*
X118818565Y-92063221D01*
X118820070Y-92058269D01*
X118829263Y-91988443D01*
X133268708Y-91988443D01*
X133284845Y-92153021D01*
X133337043Y-92309934D01*
X133340690Y-92315956D01*
X133340691Y-92315958D01*
X133416672Y-92441417D01*
X133422708Y-92451384D01*
X133427597Y-92456447D01*
X133427598Y-92456448D01*
X133495782Y-92527054D01*
X133537582Y-92570339D01*
X133543474Y-92574194D01*
X133543478Y-92574198D01*
X133620562Y-92624640D01*
X133675955Y-92660888D01*
X133830951Y-92718530D01*
X133837932Y-92719461D01*
X133837934Y-92719462D01*
X133987885Y-92739470D01*
X133987889Y-92739470D01*
X133994866Y-92740401D01*
X134001878Y-92739763D01*
X134001881Y-92739763D01*
X134152534Y-92726053D01*
X134152537Y-92726052D01*
X134159552Y-92725414D01*
X134188294Y-92716075D01*
X134310130Y-92676488D01*
X134310132Y-92676487D01*
X134316826Y-92674312D01*
X134431612Y-92605886D01*
X134452818Y-92593245D01*
X134452820Y-92593244D01*
X134458870Y-92589637D01*
X134578624Y-92475597D01*
X134617008Y-92417825D01*
X134666236Y-92343731D01*
X134666237Y-92343729D01*
X134670137Y-92337859D01*
X134728860Y-92183269D01*
X134751875Y-92019511D01*
X134752164Y-91998800D01*
X134733731Y-91834463D01*
X134679347Y-91678294D01*
X134591716Y-91538055D01*
X134533208Y-91479137D01*
X134480155Y-91425712D01*
X134480151Y-91425709D01*
X134475192Y-91420715D01*
X134465056Y-91414282D01*
X134405402Y-91376425D01*
X134335568Y-91332107D01*
X134257191Y-91304198D01*
X134186416Y-91278996D01*
X134186414Y-91278995D01*
X134179782Y-91276634D01*
X134172796Y-91275801D01*
X134172792Y-91275800D01*
X134055715Y-91261840D01*
X134015578Y-91257054D01*
X134008576Y-91257790D01*
X134008574Y-91257790D01*
X133858117Y-91273604D01*
X133858115Y-91273604D01*
X133851117Y-91274340D01*
X133777195Y-91299505D01*
X133701242Y-91325361D01*
X133701239Y-91325362D01*
X133694572Y-91327632D01*
X133688573Y-91331322D01*
X133688572Y-91331323D01*
X133570528Y-91403944D01*
X133553724Y-91414282D01*
X133435574Y-91529983D01*
X133345993Y-91668986D01*
X133343584Y-91675606D01*
X133343583Y-91675607D01*
X133309154Y-91770200D01*
X133289434Y-91824380D01*
X133268708Y-91988443D01*
X118829263Y-91988443D01*
X118849229Y-91836790D01*
X118849311Y-91833440D01*
X118850774Y-91773565D01*
X118850774Y-91773561D01*
X118850856Y-91770200D01*
X118832552Y-91547561D01*
X118778131Y-91330902D01*
X118689054Y-91126040D01*
X118567714Y-90938477D01*
X118417370Y-90773251D01*
X118413319Y-90770052D01*
X118413315Y-90770048D01*
X118347972Y-90718443D01*
X119933708Y-90718443D01*
X119949845Y-90883021D01*
X120002043Y-91039934D01*
X120005690Y-91045956D01*
X120005691Y-91045958D01*
X120054191Y-91126040D01*
X120087708Y-91181384D01*
X120092597Y-91186447D01*
X120092598Y-91186448D01*
X120141764Y-91237360D01*
X120202582Y-91300339D01*
X120208474Y-91304194D01*
X120208478Y-91304198D01*
X120249930Y-91331323D01*
X120340955Y-91390888D01*
X120495951Y-91448530D01*
X120502932Y-91449461D01*
X120502934Y-91449462D01*
X120652885Y-91469470D01*
X120652889Y-91469470D01*
X120659866Y-91470401D01*
X120666878Y-91469763D01*
X120666881Y-91469763D01*
X120817534Y-91456053D01*
X120817537Y-91456052D01*
X120824552Y-91455414D01*
X120853294Y-91446075D01*
X120975130Y-91406488D01*
X120975132Y-91406487D01*
X120981826Y-91404312D01*
X121028607Y-91376425D01*
X121117818Y-91323245D01*
X121117820Y-91323244D01*
X121123870Y-91319637D01*
X121243624Y-91205597D01*
X121293326Y-91130790D01*
X121331236Y-91073731D01*
X121331237Y-91073729D01*
X121335137Y-91067859D01*
X121393860Y-90913269D01*
X121416875Y-90749511D01*
X121417164Y-90728800D01*
X121398731Y-90564463D01*
X121344347Y-90408294D01*
X121256716Y-90268055D01*
X121196523Y-90207440D01*
X121145155Y-90155712D01*
X121145151Y-90155709D01*
X121140192Y-90150715D01*
X121130056Y-90144282D01*
X121031271Y-90081592D01*
X121000568Y-90062107D01*
X120912895Y-90030888D01*
X120851416Y-90008996D01*
X120851414Y-90008995D01*
X120844782Y-90006634D01*
X120837796Y-90005801D01*
X120837792Y-90005800D01*
X120720715Y-89991840D01*
X120680578Y-89987054D01*
X120673576Y-89987790D01*
X120673574Y-89987790D01*
X120523117Y-90003604D01*
X120523115Y-90003604D01*
X120516117Y-90004340D01*
X120433831Y-90032352D01*
X120366242Y-90055361D01*
X120366239Y-90055362D01*
X120359572Y-90057632D01*
X120353573Y-90061322D01*
X120353572Y-90061323D01*
X120224725Y-90140590D01*
X120218724Y-90144282D01*
X120213691Y-90149211D01*
X120120770Y-90240206D01*
X120100574Y-90259983D01*
X120096759Y-90265903D01*
X120096758Y-90265904D01*
X120055783Y-90329485D01*
X120010993Y-90398986D01*
X120008584Y-90405606D01*
X120008583Y-90405607D01*
X119956843Y-90547761D01*
X119954434Y-90554380D01*
X119933708Y-90718443D01*
X118347972Y-90718443D01*
X118246114Y-90638000D01*
X118246110Y-90637998D01*
X118242059Y-90634798D01*
X118200753Y-90611996D01*
X118150784Y-90561564D01*
X118136012Y-90492121D01*
X118161128Y-90425716D01*
X118188480Y-90399109D01*
X118232303Y-90367850D01*
X118367560Y-90271373D01*
X118380875Y-90258105D01*
X118490150Y-90149211D01*
X118525796Y-90113689D01*
X118564250Y-90060175D01*
X118653135Y-89936477D01*
X118656153Y-89932277D01*
X118677020Y-89890057D01*
X118752836Y-89736653D01*
X118752837Y-89736651D01*
X118755130Y-89732011D01*
X118801797Y-89578412D01*
X118818565Y-89523223D01*
X118818565Y-89523221D01*
X118820070Y-89518269D01*
X118849229Y-89296790D01*
X118850856Y-89230200D01*
X118832552Y-89007561D01*
X118778131Y-88790902D01*
X118689054Y-88586040D01*
X118567714Y-88398477D01*
X118417370Y-88233251D01*
X118413319Y-88230052D01*
X118413315Y-88230048D01*
X118347972Y-88178443D01*
X119933708Y-88178443D01*
X119949845Y-88343021D01*
X120002043Y-88499934D01*
X120005690Y-88505956D01*
X120005691Y-88505958D01*
X120083331Y-88634156D01*
X120087708Y-88641384D01*
X120092597Y-88646447D01*
X120092598Y-88646448D01*
X120121600Y-88676480D01*
X120202582Y-88760339D01*
X120208474Y-88764194D01*
X120208478Y-88764198D01*
X120256955Y-88795920D01*
X120340955Y-88850888D01*
X120495951Y-88908530D01*
X120502932Y-88909461D01*
X120502934Y-88909462D01*
X120652885Y-88929470D01*
X120652889Y-88929470D01*
X120659866Y-88930401D01*
X120666878Y-88929763D01*
X120666881Y-88929763D01*
X120817534Y-88916053D01*
X120817537Y-88916052D01*
X120824552Y-88915414D01*
X120853294Y-88906075D01*
X120975130Y-88866488D01*
X120975132Y-88866487D01*
X120981826Y-88864312D01*
X121028607Y-88836425D01*
X121117818Y-88783245D01*
X121117820Y-88783244D01*
X121123870Y-88779637D01*
X121243624Y-88665597D01*
X121263713Y-88635361D01*
X121331236Y-88533731D01*
X121331237Y-88533729D01*
X121335137Y-88527859D01*
X121393860Y-88373269D01*
X121416875Y-88209511D01*
X121417164Y-88188800D01*
X121416002Y-88178443D01*
X128188708Y-88178443D01*
X128204845Y-88343021D01*
X128257043Y-88499934D01*
X128260690Y-88505956D01*
X128260691Y-88505958D01*
X128338331Y-88634156D01*
X128342708Y-88641384D01*
X128347597Y-88646447D01*
X128347598Y-88646448D01*
X128376600Y-88676480D01*
X128457582Y-88760339D01*
X128463474Y-88764194D01*
X128463478Y-88764198D01*
X128511955Y-88795920D01*
X128595955Y-88850888D01*
X128750951Y-88908530D01*
X128757932Y-88909461D01*
X128757934Y-88909462D01*
X128907885Y-88929470D01*
X128907889Y-88929470D01*
X128914866Y-88930401D01*
X128921878Y-88929763D01*
X128921881Y-88929763D01*
X129072534Y-88916053D01*
X129072537Y-88916052D01*
X129079552Y-88915414D01*
X129108294Y-88906075D01*
X129230130Y-88866488D01*
X129230132Y-88866487D01*
X129236826Y-88864312D01*
X129283607Y-88836425D01*
X129372818Y-88783245D01*
X129372820Y-88783244D01*
X129378870Y-88779637D01*
X129498624Y-88665597D01*
X129518713Y-88635361D01*
X129586236Y-88533731D01*
X129586237Y-88533729D01*
X129590137Y-88527859D01*
X129648860Y-88373269D01*
X129671875Y-88209511D01*
X129672164Y-88188800D01*
X129671002Y-88178443D01*
X130728708Y-88178443D01*
X130744845Y-88343021D01*
X130797043Y-88499934D01*
X130800690Y-88505956D01*
X130800691Y-88505958D01*
X130878331Y-88634156D01*
X130882708Y-88641384D01*
X130887597Y-88646447D01*
X130887598Y-88646448D01*
X130916600Y-88676480D01*
X130997582Y-88760339D01*
X131003474Y-88764194D01*
X131003478Y-88764198D01*
X131051955Y-88795920D01*
X131135955Y-88850888D01*
X131290951Y-88908530D01*
X131297932Y-88909461D01*
X131297934Y-88909462D01*
X131447885Y-88929470D01*
X131447889Y-88929470D01*
X131454866Y-88930401D01*
X131461878Y-88929763D01*
X131461881Y-88929763D01*
X131612534Y-88916053D01*
X131612537Y-88916052D01*
X131619552Y-88915414D01*
X131648294Y-88906075D01*
X131770130Y-88866488D01*
X131770132Y-88866487D01*
X131776826Y-88864312D01*
X131823607Y-88836425D01*
X131912818Y-88783245D01*
X131912820Y-88783244D01*
X131918870Y-88779637D01*
X132038624Y-88665597D01*
X132058713Y-88635361D01*
X132126236Y-88533731D01*
X132126237Y-88533729D01*
X132130137Y-88527859D01*
X132188860Y-88373269D01*
X132211875Y-88209511D01*
X132212164Y-88188800D01*
X132193731Y-88024463D01*
X132139347Y-87868294D01*
X132051716Y-87728055D01*
X131991523Y-87667440D01*
X131940155Y-87615712D01*
X131940151Y-87615709D01*
X131935192Y-87610715D01*
X131925056Y-87604282D01*
X131826271Y-87541592D01*
X131795568Y-87522107D01*
X131707895Y-87490888D01*
X131646416Y-87468996D01*
X131646414Y-87468995D01*
X131639782Y-87466634D01*
X131632796Y-87465801D01*
X131632792Y-87465800D01*
X131515715Y-87451840D01*
X131475578Y-87447054D01*
X131468576Y-87447790D01*
X131468574Y-87447790D01*
X131318117Y-87463604D01*
X131318115Y-87463604D01*
X131311117Y-87464340D01*
X131228831Y-87492352D01*
X131161242Y-87515361D01*
X131161239Y-87515362D01*
X131154572Y-87517632D01*
X131148573Y-87521322D01*
X131148572Y-87521323D01*
X131029930Y-87594312D01*
X131013724Y-87604282D01*
X130971721Y-87645414D01*
X130915770Y-87700206D01*
X130895574Y-87719983D01*
X130891759Y-87725903D01*
X130891758Y-87725904D01*
X130850783Y-87789485D01*
X130805993Y-87858986D01*
X130803584Y-87865606D01*
X130803583Y-87865607D01*
X130751843Y-88007761D01*
X130749434Y-88014380D01*
X130728708Y-88178443D01*
X129671002Y-88178443D01*
X129653731Y-88024463D01*
X129599347Y-87868294D01*
X129511716Y-87728055D01*
X129451523Y-87667440D01*
X129400155Y-87615712D01*
X129400151Y-87615709D01*
X129395192Y-87610715D01*
X129385056Y-87604282D01*
X129286271Y-87541592D01*
X129255568Y-87522107D01*
X129167895Y-87490888D01*
X129106416Y-87468996D01*
X129106414Y-87468995D01*
X129099782Y-87466634D01*
X129092796Y-87465801D01*
X129092792Y-87465800D01*
X128975715Y-87451840D01*
X128935578Y-87447054D01*
X128928576Y-87447790D01*
X128928574Y-87447790D01*
X128778117Y-87463604D01*
X128778115Y-87463604D01*
X128771117Y-87464340D01*
X128688831Y-87492352D01*
X128621242Y-87515361D01*
X128621239Y-87515362D01*
X128614572Y-87517632D01*
X128608573Y-87521322D01*
X128608572Y-87521323D01*
X128489930Y-87594312D01*
X128473724Y-87604282D01*
X128431721Y-87645414D01*
X128375770Y-87700206D01*
X128355574Y-87719983D01*
X128351759Y-87725903D01*
X128351758Y-87725904D01*
X128310783Y-87789485D01*
X128265993Y-87858986D01*
X128263584Y-87865606D01*
X128263583Y-87865607D01*
X128211843Y-88007761D01*
X128209434Y-88014380D01*
X128188708Y-88178443D01*
X121416002Y-88178443D01*
X121398731Y-88024463D01*
X121344347Y-87868294D01*
X121256716Y-87728055D01*
X121196523Y-87667440D01*
X121145155Y-87615712D01*
X121145151Y-87615709D01*
X121140192Y-87610715D01*
X121130056Y-87604282D01*
X121031271Y-87541592D01*
X121000568Y-87522107D01*
X120912895Y-87490888D01*
X120851416Y-87468996D01*
X120851414Y-87468995D01*
X120844782Y-87466634D01*
X120837796Y-87465801D01*
X120837792Y-87465800D01*
X120720715Y-87451840D01*
X120680578Y-87447054D01*
X120673576Y-87447790D01*
X120673574Y-87447790D01*
X120523117Y-87463604D01*
X120523115Y-87463604D01*
X120516117Y-87464340D01*
X120433831Y-87492352D01*
X120366242Y-87515361D01*
X120366239Y-87515362D01*
X120359572Y-87517632D01*
X120353573Y-87521322D01*
X120353572Y-87521323D01*
X120234930Y-87594312D01*
X120218724Y-87604282D01*
X120176721Y-87645414D01*
X120120770Y-87700206D01*
X120100574Y-87719983D01*
X120096759Y-87725903D01*
X120096758Y-87725904D01*
X120055783Y-87789485D01*
X120010993Y-87858986D01*
X120008584Y-87865606D01*
X120008583Y-87865607D01*
X119956843Y-88007761D01*
X119954434Y-88014380D01*
X119933708Y-88178443D01*
X118347972Y-88178443D01*
X118246114Y-88098000D01*
X118246110Y-88097998D01*
X118242059Y-88094798D01*
X118200753Y-88071996D01*
X118150784Y-88021564D01*
X118136012Y-87952121D01*
X118161128Y-87885716D01*
X118188480Y-87859109D01*
X118232303Y-87827850D01*
X118367560Y-87731373D01*
X118380875Y-87718105D01*
X118490150Y-87609211D01*
X118525796Y-87573689D01*
X118564250Y-87520175D01*
X118653135Y-87396477D01*
X118656153Y-87392277D01*
X118677020Y-87350057D01*
X118752836Y-87196653D01*
X118752837Y-87196651D01*
X118755130Y-87192011D01*
X118801797Y-87038412D01*
X118818565Y-86983223D01*
X118818565Y-86983221D01*
X118820070Y-86978269D01*
X118829263Y-86908443D01*
X135808708Y-86908443D01*
X135824845Y-87073021D01*
X135877043Y-87229934D01*
X135880690Y-87235956D01*
X135880691Y-87235958D01*
X135956672Y-87361417D01*
X135962708Y-87371384D01*
X135967597Y-87376447D01*
X135967598Y-87376448D01*
X136035782Y-87447054D01*
X136077582Y-87490339D01*
X136083474Y-87494194D01*
X136083478Y-87494198D01*
X136160562Y-87544640D01*
X136215955Y-87580888D01*
X136370951Y-87638530D01*
X136377932Y-87639461D01*
X136377934Y-87639462D01*
X136527885Y-87659470D01*
X136527889Y-87659470D01*
X136534866Y-87660401D01*
X136541878Y-87659763D01*
X136541881Y-87659763D01*
X136692534Y-87646053D01*
X136692537Y-87646052D01*
X136699552Y-87645414D01*
X136728294Y-87636075D01*
X136850130Y-87596488D01*
X136850132Y-87596487D01*
X136856826Y-87594312D01*
X136971612Y-87525886D01*
X136992818Y-87513245D01*
X136992820Y-87513244D01*
X136998870Y-87509637D01*
X137118624Y-87395597D01*
X137146755Y-87353257D01*
X137206236Y-87263731D01*
X137206237Y-87263729D01*
X137210137Y-87257859D01*
X137268860Y-87103269D01*
X137285389Y-86985663D01*
X137291324Y-86943433D01*
X137291324Y-86943430D01*
X137291875Y-86939511D01*
X137292164Y-86918800D01*
X137273731Y-86754463D01*
X137268718Y-86740066D01*
X137221665Y-86604951D01*
X137219347Y-86598294D01*
X137131716Y-86458055D01*
X137073208Y-86399137D01*
X137020155Y-86345712D01*
X137020151Y-86345709D01*
X137015192Y-86340715D01*
X137005056Y-86334282D01*
X136911895Y-86275161D01*
X136875568Y-86252107D01*
X136826081Y-86234485D01*
X136726416Y-86198996D01*
X136726414Y-86198995D01*
X136719782Y-86196634D01*
X136712796Y-86195801D01*
X136712792Y-86195800D01*
X136595715Y-86181840D01*
X136555578Y-86177054D01*
X136548576Y-86177790D01*
X136548574Y-86177790D01*
X136398117Y-86193604D01*
X136398115Y-86193604D01*
X136391117Y-86194340D01*
X136317195Y-86219505D01*
X136241242Y-86245361D01*
X136241239Y-86245362D01*
X136234572Y-86247632D01*
X136228573Y-86251322D01*
X136228572Y-86251323D01*
X136110528Y-86323944D01*
X136093724Y-86334282D01*
X135975574Y-86449983D01*
X135885993Y-86588986D01*
X135883584Y-86595606D01*
X135883583Y-86595607D01*
X135832773Y-86735207D01*
X135829434Y-86744380D01*
X135808708Y-86908443D01*
X118829263Y-86908443D01*
X118849229Y-86756790D01*
X118849311Y-86753440D01*
X118850774Y-86693565D01*
X118850774Y-86693561D01*
X118850856Y-86690200D01*
X118832552Y-86467561D01*
X118830165Y-86458055D01*
X118817091Y-86406007D01*
X118819895Y-86335066D01*
X118860608Y-86276903D01*
X118926303Y-86249984D01*
X118996123Y-86262855D01*
X119008288Y-86269880D01*
X119022410Y-86279121D01*
X119070955Y-86310888D01*
X119225951Y-86368530D01*
X119232932Y-86369461D01*
X119232934Y-86369462D01*
X119382885Y-86389470D01*
X119382889Y-86389470D01*
X119389866Y-86390401D01*
X119396878Y-86389763D01*
X119396881Y-86389763D01*
X119547534Y-86376053D01*
X119547537Y-86376052D01*
X119554552Y-86375414D01*
X119583294Y-86366075D01*
X119705130Y-86326488D01*
X119705132Y-86326487D01*
X119711826Y-86324312D01*
X119803137Y-86269880D01*
X119847818Y-86243245D01*
X119847820Y-86243244D01*
X119853870Y-86239637D01*
X119973624Y-86125597D01*
X119989711Y-86101384D01*
X120061236Y-85993731D01*
X120061237Y-85993729D01*
X120065137Y-85987859D01*
X120123860Y-85833269D01*
X120146875Y-85669511D01*
X120147164Y-85648800D01*
X120128731Y-85484463D01*
X120115028Y-85445112D01*
X120089661Y-85372269D01*
X120074347Y-85328294D01*
X119986716Y-85188055D01*
X119928208Y-85129137D01*
X119875155Y-85075712D01*
X119875151Y-85075709D01*
X119870192Y-85070715D01*
X119860056Y-85064282D01*
X119761271Y-85001592D01*
X119730568Y-84982107D01*
X119681081Y-84964485D01*
X119581416Y-84928996D01*
X119581414Y-84928995D01*
X119574782Y-84926634D01*
X119567796Y-84925801D01*
X119567792Y-84925800D01*
X119450715Y-84911840D01*
X119410578Y-84907054D01*
X119403576Y-84907790D01*
X119403574Y-84907790D01*
X119253117Y-84923604D01*
X119253115Y-84923604D01*
X119246117Y-84924340D01*
X119182920Y-84945854D01*
X119096242Y-84975361D01*
X119096239Y-84975362D01*
X119089572Y-84977632D01*
X119083573Y-84981322D01*
X119083572Y-84981323D01*
X119050625Y-85001592D01*
X118948724Y-85064282D01*
X118943691Y-85069211D01*
X118850770Y-85160206D01*
X118830574Y-85179983D01*
X118826759Y-85185903D01*
X118826758Y-85185904D01*
X118785783Y-85249485D01*
X118740993Y-85318986D01*
X118738584Y-85325606D01*
X118738583Y-85325607D01*
X118693549Y-85449337D01*
X118684434Y-85474380D01*
X118663708Y-85638443D01*
X118664071Y-85642141D01*
X118643508Y-85708715D01*
X118589209Y-85754454D01*
X118518801Y-85763576D01*
X118454638Y-85733184D01*
X118445279Y-85723921D01*
X118420852Y-85697076D01*
X118420842Y-85697067D01*
X118417370Y-85693251D01*
X118413319Y-85690052D01*
X118413315Y-85690048D01*
X118246114Y-85558000D01*
X118246110Y-85557998D01*
X118242059Y-85554798D01*
X118202960Y-85533214D01*
X118172979Y-85516664D01*
X118046489Y-85446838D01*
X118041620Y-85445114D01*
X118041616Y-85445112D01*
X117840787Y-85373995D01*
X117840783Y-85373994D01*
X117835912Y-85372269D01*
X117830819Y-85371362D01*
X117830816Y-85371361D01*
X117621073Y-85334000D01*
X117621067Y-85333999D01*
X117615984Y-85333094D01*
X117542152Y-85332192D01*
X117397781Y-85330428D01*
X117397779Y-85330428D01*
X117392611Y-85330365D01*
X117171791Y-85364155D01*
X116959456Y-85433557D01*
X116761307Y-85536707D01*
X116757174Y-85539810D01*
X116757171Y-85539812D01*
X116586800Y-85667730D01*
X116582665Y-85670835D01*
X116546466Y-85708715D01*
X116466240Y-85792667D01*
X116428329Y-85832338D01*
X116320901Y-85989821D01*
X116265993Y-86034821D01*
X116195468Y-86042992D01*
X116131721Y-86011738D01*
X116111024Y-85987254D01*
X116030522Y-85862817D01*
X116030520Y-85862814D01*
X116027714Y-85858477D01*
X115877370Y-85693251D01*
X115873319Y-85690052D01*
X115873315Y-85690048D01*
X115706114Y-85558000D01*
X115706110Y-85557998D01*
X115702059Y-85554798D01*
X115662960Y-85533214D01*
X115632979Y-85516664D01*
X115506489Y-85446838D01*
X115501620Y-85445114D01*
X115501616Y-85445112D01*
X115300787Y-85373995D01*
X115300783Y-85373994D01*
X115295912Y-85372269D01*
X115290819Y-85371362D01*
X115290816Y-85371361D01*
X115081073Y-85334000D01*
X115081067Y-85333999D01*
X115075984Y-85333094D01*
X115002152Y-85332192D01*
X114857781Y-85330428D01*
X114857779Y-85330428D01*
X114852611Y-85330365D01*
X114631791Y-85364155D01*
X114419456Y-85433557D01*
X114221307Y-85536707D01*
X114217174Y-85539810D01*
X114217171Y-85539812D01*
X114046800Y-85667730D01*
X114042665Y-85670835D01*
X114006466Y-85708715D01*
X113926240Y-85792667D01*
X113888329Y-85832338D01*
X113762443Y-86016880D01*
X113760265Y-86021573D01*
X113760260Y-86021581D01*
X113731139Y-86084317D01*
X113684315Y-86137684D01*
X113616072Y-86157264D01*
X113548076Y-86136840D01*
X113501917Y-86082898D01*
X113490852Y-86031040D01*
X113490931Y-85987254D01*
X113496105Y-83098443D01*
X128188708Y-83098443D01*
X128204845Y-83263021D01*
X128257043Y-83419934D01*
X128260690Y-83425956D01*
X128260691Y-83425958D01*
X128334160Y-83547269D01*
X128342708Y-83561384D01*
X128347597Y-83566447D01*
X128347598Y-83566448D01*
X128376600Y-83596480D01*
X128457582Y-83680339D01*
X128463474Y-83684194D01*
X128463478Y-83684198D01*
X128499441Y-83707731D01*
X128595955Y-83770888D01*
X128750951Y-83828530D01*
X128757932Y-83829461D01*
X128757934Y-83829462D01*
X128907885Y-83849470D01*
X128907889Y-83849470D01*
X128914866Y-83850401D01*
X128921878Y-83849763D01*
X128921881Y-83849763D01*
X129072534Y-83836053D01*
X129072537Y-83836052D01*
X129079552Y-83835414D01*
X129125612Y-83820448D01*
X129230130Y-83786488D01*
X129230132Y-83786487D01*
X129236826Y-83784312D01*
X129283607Y-83756425D01*
X129372818Y-83703245D01*
X129372820Y-83703244D01*
X129378870Y-83699637D01*
X129498624Y-83585597D01*
X129518713Y-83555361D01*
X129586236Y-83453731D01*
X129586237Y-83453729D01*
X129590137Y-83447859D01*
X129626382Y-83352443D01*
X135173708Y-83352443D01*
X135189845Y-83517021D01*
X135242043Y-83673934D01*
X135245690Y-83679956D01*
X135245691Y-83679958D01*
X135303862Y-83776009D01*
X135327708Y-83815384D01*
X135332597Y-83820447D01*
X135332598Y-83820448D01*
X135361524Y-83850401D01*
X135442582Y-83934339D01*
X135448474Y-83938194D01*
X135448478Y-83938198D01*
X135499573Y-83971633D01*
X135580955Y-84024888D01*
X135735951Y-84082530D01*
X135742932Y-84083461D01*
X135742934Y-84083462D01*
X135892885Y-84103470D01*
X135892889Y-84103470D01*
X135899866Y-84104401D01*
X135906878Y-84103763D01*
X135906881Y-84103763D01*
X136057534Y-84090053D01*
X136057537Y-84090052D01*
X136064552Y-84089414D01*
X136097123Y-84078831D01*
X136215130Y-84040488D01*
X136215132Y-84040487D01*
X136221826Y-84038312D01*
X136292911Y-83995937D01*
X136357818Y-83957245D01*
X136357820Y-83957244D01*
X136363870Y-83953637D01*
X136483624Y-83839597D01*
X136518910Y-83786488D01*
X136571236Y-83707731D01*
X136571237Y-83707729D01*
X136575137Y-83701859D01*
X136633860Y-83547269D01*
X136652695Y-83413251D01*
X136656324Y-83387433D01*
X136656324Y-83387430D01*
X136656875Y-83383511D01*
X136657164Y-83362800D01*
X136638731Y-83198463D01*
X136624343Y-83157145D01*
X136606339Y-83105446D01*
X136584347Y-83042294D01*
X136496716Y-82902055D01*
X136390357Y-82794951D01*
X136385155Y-82789712D01*
X136385151Y-82789709D01*
X136380192Y-82784715D01*
X136370056Y-82778282D01*
X136310038Y-82740194D01*
X136240568Y-82696107D01*
X136152519Y-82664754D01*
X136091416Y-82642996D01*
X136091414Y-82642995D01*
X136084782Y-82640634D01*
X136077796Y-82639801D01*
X136077792Y-82639800D01*
X135960715Y-82625840D01*
X135920578Y-82621054D01*
X135913576Y-82621790D01*
X135913574Y-82621790D01*
X135763117Y-82637604D01*
X135763115Y-82637604D01*
X135756117Y-82638340D01*
X135710031Y-82654029D01*
X135606242Y-82689361D01*
X135606239Y-82689362D01*
X135599572Y-82691632D01*
X135593573Y-82695322D01*
X135593572Y-82695323D01*
X135498592Y-82753755D01*
X135458724Y-82778282D01*
X135453691Y-82783211D01*
X135348562Y-82886161D01*
X135340574Y-82893983D01*
X135250993Y-83032986D01*
X135248584Y-83039606D01*
X135248583Y-83039607D01*
X135224616Y-83105456D01*
X135194434Y-83188380D01*
X135173708Y-83352443D01*
X129626382Y-83352443D01*
X129648860Y-83293269D01*
X129671875Y-83129511D01*
X129672164Y-83108800D01*
X129653731Y-82944463D01*
X129599347Y-82788294D01*
X129511716Y-82648055D01*
X129416670Y-82552343D01*
X129400155Y-82535712D01*
X129400151Y-82535709D01*
X129395192Y-82530715D01*
X129385056Y-82524282D01*
X129286271Y-82461592D01*
X129255568Y-82442107D01*
X129183304Y-82416375D01*
X129106416Y-82388996D01*
X129106414Y-82388995D01*
X129099782Y-82386634D01*
X129092796Y-82385801D01*
X129092792Y-82385800D01*
X128975715Y-82371840D01*
X128935578Y-82367054D01*
X128928576Y-82367790D01*
X128928574Y-82367790D01*
X128778117Y-82383604D01*
X128778115Y-82383604D01*
X128771117Y-82384340D01*
X128729925Y-82398363D01*
X128621242Y-82435361D01*
X128621239Y-82435362D01*
X128614572Y-82437632D01*
X128608573Y-82441322D01*
X128608572Y-82441323D01*
X128575625Y-82461592D01*
X128473724Y-82524282D01*
X128468691Y-82529211D01*
X128374904Y-82621054D01*
X128355574Y-82639983D01*
X128351759Y-82645903D01*
X128351758Y-82645904D01*
X128323752Y-82689361D01*
X128265993Y-82778986D01*
X128263584Y-82785606D01*
X128263583Y-82785607D01*
X128221982Y-82899904D01*
X128209434Y-82934380D01*
X128188708Y-83098443D01*
X113496105Y-83098443D01*
X113500629Y-80572165D01*
X113502928Y-79288443D01*
X123108708Y-79288443D01*
X123124845Y-79453021D01*
X123177043Y-79609934D01*
X123180690Y-79615956D01*
X123180691Y-79615958D01*
X123258890Y-79745079D01*
X123262708Y-79751384D01*
X123267597Y-79756447D01*
X123267598Y-79756448D01*
X123320135Y-79810851D01*
X123377582Y-79870339D01*
X123383474Y-79874194D01*
X123383478Y-79874198D01*
X123458733Y-79923443D01*
X123515955Y-79960888D01*
X123670951Y-80018530D01*
X123677932Y-80019461D01*
X123677934Y-80019462D01*
X123827885Y-80039470D01*
X123827889Y-80039470D01*
X123834866Y-80040401D01*
X123841878Y-80039763D01*
X123841881Y-80039763D01*
X123992534Y-80026053D01*
X123992537Y-80026052D01*
X123999552Y-80025414D01*
X124028294Y-80016075D01*
X124150130Y-79976488D01*
X124150132Y-79976487D01*
X124156826Y-79974312D01*
X124224786Y-79933800D01*
X124242160Y-79923443D01*
X126918708Y-79923443D01*
X126934845Y-80088021D01*
X126987043Y-80244934D01*
X126990690Y-80250956D01*
X126990691Y-80250958D01*
X127068890Y-80380079D01*
X127072708Y-80386384D01*
X127077597Y-80391447D01*
X127077598Y-80391448D01*
X127136390Y-80452328D01*
X127187582Y-80505339D01*
X127193474Y-80509194D01*
X127193478Y-80509198D01*
X127241544Y-80540651D01*
X127325955Y-80595888D01*
X127480951Y-80653530D01*
X127487932Y-80654461D01*
X127487934Y-80654462D01*
X127637885Y-80674470D01*
X127637889Y-80674470D01*
X127644866Y-80675401D01*
X127651878Y-80674763D01*
X127651881Y-80674763D01*
X127802534Y-80661053D01*
X127802537Y-80661052D01*
X127809552Y-80660414D01*
X127838294Y-80651075D01*
X127960130Y-80611488D01*
X127960132Y-80611487D01*
X127966826Y-80609312D01*
X128040412Y-80565446D01*
X128102818Y-80528245D01*
X128102820Y-80528244D01*
X128108870Y-80524637D01*
X128228624Y-80410597D01*
X128241347Y-80391448D01*
X128316236Y-80278731D01*
X128316237Y-80278729D01*
X128320137Y-80272859D01*
X128378860Y-80118269D01*
X128401875Y-79954511D01*
X128402164Y-79933800D01*
X128383731Y-79769463D01*
X128329347Y-79613294D01*
X128241716Y-79473055D01*
X128144809Y-79375469D01*
X128130155Y-79360712D01*
X128130151Y-79360709D01*
X128125192Y-79355715D01*
X128115056Y-79349282D01*
X128071365Y-79321555D01*
X127985568Y-79267107D01*
X127936081Y-79249485D01*
X127836416Y-79213996D01*
X127836414Y-79213995D01*
X127829782Y-79211634D01*
X127822796Y-79210801D01*
X127822792Y-79210800D01*
X127705715Y-79196840D01*
X127665578Y-79192054D01*
X127658576Y-79192790D01*
X127658574Y-79192790D01*
X127508117Y-79208604D01*
X127508115Y-79208604D01*
X127501117Y-79209340D01*
X127418831Y-79237352D01*
X127351242Y-79260361D01*
X127351239Y-79260362D01*
X127344572Y-79262632D01*
X127338573Y-79266322D01*
X127338572Y-79266323D01*
X127250744Y-79320355D01*
X127203724Y-79349282D01*
X127198691Y-79354211D01*
X127090963Y-79459706D01*
X127085574Y-79464983D01*
X127081759Y-79470903D01*
X127081758Y-79470904D01*
X127060409Y-79504031D01*
X126995993Y-79603986D01*
X126993584Y-79610606D01*
X126993583Y-79610607D01*
X126942871Y-79749937D01*
X126939434Y-79759380D01*
X126918708Y-79923443D01*
X124242160Y-79923443D01*
X124292818Y-79893245D01*
X124292820Y-79893244D01*
X124298870Y-79889637D01*
X124418624Y-79775597D01*
X124422525Y-79769726D01*
X124506236Y-79643731D01*
X124506237Y-79643729D01*
X124510137Y-79637859D01*
X124568860Y-79483269D01*
X124584011Y-79375469D01*
X124591324Y-79323433D01*
X124591324Y-79323430D01*
X124591875Y-79319511D01*
X124592164Y-79298800D01*
X124573731Y-79134463D01*
X124569716Y-79122932D01*
X124545394Y-79053090D01*
X124519347Y-78978294D01*
X124431716Y-78838055D01*
X124373208Y-78779137D01*
X124320155Y-78725712D01*
X124320151Y-78725709D01*
X124315192Y-78720715D01*
X124305056Y-78714282D01*
X124261365Y-78686555D01*
X124175568Y-78632107D01*
X124126081Y-78614485D01*
X124026416Y-78578996D01*
X124026414Y-78578995D01*
X124019782Y-78576634D01*
X124012796Y-78575801D01*
X124012792Y-78575800D01*
X123895715Y-78561840D01*
X123855578Y-78557054D01*
X123848576Y-78557790D01*
X123848574Y-78557790D01*
X123698117Y-78573604D01*
X123698115Y-78573604D01*
X123691117Y-78574340D01*
X123656831Y-78586012D01*
X123541242Y-78625361D01*
X123541239Y-78625362D01*
X123534572Y-78627632D01*
X123528573Y-78631322D01*
X123528572Y-78631323D01*
X123455260Y-78676425D01*
X123393724Y-78714282D01*
X123275574Y-78829983D01*
X123271759Y-78835903D01*
X123271758Y-78835904D01*
X123266522Y-78844029D01*
X123185993Y-78968986D01*
X123183584Y-78975606D01*
X123183583Y-78975607D01*
X123148826Y-79071100D01*
X123129434Y-79124380D01*
X123108708Y-79288443D01*
X113502928Y-79288443D01*
X113512375Y-74014503D01*
X113532499Y-73946419D01*
X113586238Y-73900022D01*
X113638504Y-73888729D01*
X114797697Y-73889913D01*
G37*
G04 #@! TD.AperFunction*
M02*
