G04 #@! TF.GenerationSoftware,KiCad,Pcbnew,(6.0.11)*
G04 #@! TF.CreationDate,2025-01-10T09:31:50+11:00*
G04 #@! TF.ProjectId,bbb,6262622e-6b69-4636-9164-5f7063625858,rev?*
G04 #@! TF.SameCoordinates,Original*
G04 #@! TF.FileFunction,Soldermask,Top*
G04 #@! TF.FilePolarity,Negative*
%FSLAX46Y46*%
G04 Gerber Fmt 4.6, Leading zero omitted, Abs format (unit mm)*
G04 Created by KiCad (PCBNEW (6.0.11)) date 2025-01-10 09:31:50*
%MOMM*%
%LPD*%
G01*
G04 APERTURE LIST*
G04 Aperture macros list*
%AMRoundRect*
0 Rectangle with rounded corners*
0 $1 Rounding radius*
0 $2 $3 $4 $5 $6 $7 $8 $9 X,Y pos of 4 corners*
0 Add a 4 corners polygon primitive as box body*
4,1,4,$2,$3,$4,$5,$6,$7,$8,$9,$2,$3,0*
0 Add four circle primitives for the rounded corners*
1,1,$1+$1,$2,$3*
1,1,$1+$1,$4,$5*
1,1,$1+$1,$6,$7*
1,1,$1+$1,$8,$9*
0 Add four rect primitives between the rounded corners*
20,1,$1+$1,$2,$3,$4,$5,0*
20,1,$1+$1,$4,$5,$6,$7,0*
20,1,$1+$1,$6,$7,$8,$9,0*
20,1,$1+$1,$8,$9,$2,$3,0*%
G04 Aperture macros list end*
%ADD10C,1.727200*%
%ADD11C,2.006600*%
%ADD12R,1.524000X5.080000*%
%ADD13RoundRect,0.249998X-0.450002X0.262502X-0.450002X-0.262502X0.450002X-0.262502X0.450002X0.262502X0*%
%ADD14RoundRect,0.218750X0.256250X-0.218750X0.256250X0.218750X-0.256250X0.218750X-0.256250X-0.218750X0*%
%ADD15O,1.700000X1.700000*%
%ADD16R,1.700000X1.700000*%
%ADD17RoundRect,0.249998X0.450002X-0.262502X0.450002X0.262502X-0.450002X0.262502X-0.450002X-0.262502X0*%
%ADD18R,1.060000X0.650000*%
%ADD19RoundRect,0.250000X0.250000X0.475000X-0.250000X0.475000X-0.250000X-0.475000X0.250000X-0.475000X0*%
%ADD20R,1.400000X0.300000*%
%ADD21R,1.400000X1.200000*%
%ADD22RoundRect,0.250000X-0.250000X-0.475000X0.250000X-0.475000X0.250000X0.475000X-0.250000X0.475000X0*%
%ADD23RoundRect,0.250000X0.475000X-0.250000X0.475000X0.250000X-0.475000X0.250000X-0.475000X-0.250000X0*%
%ADD24RoundRect,0.250000X-0.475000X0.250000X-0.475000X-0.250000X0.475000X-0.250000X0.475000X0.250000X0*%
%ADD25RoundRect,0.249998X-0.262502X-0.450002X0.262502X-0.450002X0.262502X0.450002X-0.262502X0.450002X0*%
%ADD26RoundRect,0.249998X0.262502X0.450002X-0.262502X0.450002X-0.262502X-0.450002X0.262502X-0.450002X0*%
%ADD27RoundRect,0.150000X0.825000X0.150000X-0.825000X0.150000X-0.825000X-0.150000X0.825000X-0.150000X0*%
%ADD28R,2.290000X3.000000*%
%ADD29RoundRect,0.249999X-0.450001X0.262501X-0.450001X-0.262501X0.450001X-0.262501X0.450001X0.262501X0*%
%ADD30R,2.000000X3.800000*%
%ADD31R,2.000000X1.500000*%
G04 APERTURE END LIST*
D10*
X140741400Y-126250700D03*
X145313400Y-126250700D03*
X151841200Y-101714300D03*
X151841200Y-97142300D03*
X151231600Y-120002300D03*
X151231600Y-115430300D03*
D11*
X128629400Y-65415800D03*
X133629400Y-70415800D03*
X123629400Y-70415800D03*
D12*
X154635200Y-140538200D03*
X157175200Y-140538200D03*
X159715200Y-140538200D03*
D13*
X160845500Y-75897100D03*
X160845500Y-77722100D03*
D14*
X160845500Y-81407100D03*
X160845500Y-79832100D03*
D15*
X114947700Y-86690200D03*
X117487700Y-86690200D03*
X114947700Y-89230200D03*
X117487700Y-89230200D03*
X114947700Y-91770200D03*
X117487700Y-91770200D03*
X114947700Y-94310200D03*
X117487700Y-94310200D03*
X114947700Y-96850200D03*
X117487700Y-96850200D03*
X114947700Y-99390200D03*
X117487700Y-99390200D03*
X114947700Y-101930200D03*
X117487700Y-101930200D03*
X114947700Y-104470200D03*
X117487700Y-104470200D03*
X114947700Y-107010200D03*
X117487700Y-107010200D03*
X114947700Y-109550200D03*
X117487700Y-109550200D03*
X114947700Y-112090200D03*
X117487700Y-112090200D03*
X114947700Y-114630200D03*
X117487700Y-114630200D03*
X114947700Y-117170200D03*
X117487700Y-117170200D03*
X114947700Y-119710200D03*
X117487700Y-119710200D03*
X114947700Y-122250200D03*
X117487700Y-122250200D03*
X114947700Y-124790200D03*
X117487700Y-124790200D03*
X114947700Y-127330200D03*
X117487700Y-127330200D03*
X114947700Y-129870200D03*
X117487700Y-129870200D03*
X114947700Y-132410200D03*
X117487700Y-132410200D03*
X114947700Y-134950200D03*
D16*
X117487700Y-134950200D03*
D17*
X124180600Y-108663100D03*
X124180600Y-110488100D03*
D14*
X121640600Y-108788100D03*
X121640600Y-110363100D03*
D18*
X130370400Y-105648800D03*
X130370400Y-103748800D03*
X132570400Y-103748800D03*
X132570400Y-104698800D03*
X132570400Y-105648800D03*
D19*
X134330400Y-104698800D03*
X136230400Y-104698800D03*
X126710400Y-100888800D03*
X128610400Y-100888800D03*
D20*
X151221800Y-87144100D03*
X151221800Y-86644100D03*
X151221800Y-86144100D03*
X151221800Y-85644100D03*
X151221800Y-85144100D03*
X146821800Y-85144100D03*
X146821800Y-85644100D03*
X146821800Y-86144100D03*
X146821800Y-86644100D03*
X146821800Y-87144100D03*
D21*
X147921800Y-80214100D03*
X150121800Y-80214100D03*
X150121800Y-81914100D03*
X147921800Y-81914100D03*
D22*
X126710400Y-105968800D03*
X128610400Y-105968800D03*
D19*
X155051800Y-81064100D03*
X153151800Y-81064100D03*
X122900400Y-99618800D03*
X124800400Y-99618800D03*
X121630400Y-93268800D03*
X123530400Y-93268800D03*
X123530400Y-90728800D03*
X121630400Y-90728800D03*
X121630400Y-88188800D03*
X123530400Y-88188800D03*
X120360400Y-85648800D03*
X122260400Y-85648800D03*
X123530400Y-95808800D03*
X121630400Y-95808800D03*
D23*
X131470400Y-82158800D03*
X131470400Y-84058800D03*
D24*
X134010400Y-77078800D03*
X134010400Y-78978800D03*
D25*
X130557900Y-100888800D03*
X132382900Y-100888800D03*
D26*
X128572900Y-103428800D03*
X126747900Y-103428800D03*
D25*
X136192900Y-102158800D03*
X134367900Y-102158800D03*
D17*
X131470400Y-109421300D03*
X131470400Y-107596300D03*
D25*
X153189300Y-86144100D03*
X155014300Y-86144100D03*
X155014300Y-83604100D03*
X153189300Y-83604100D03*
D26*
X134367900Y-107238800D03*
X136192900Y-107238800D03*
D17*
X134010400Y-82196300D03*
X134010400Y-84021300D03*
D13*
X131470400Y-77116300D03*
X131470400Y-78941300D03*
D27*
X131405400Y-97713800D03*
X131405400Y-96443800D03*
X131405400Y-95173800D03*
X131405400Y-93903800D03*
X131405400Y-92633800D03*
X131405400Y-91363800D03*
X131405400Y-90093800D03*
X131405400Y-88823800D03*
X126455400Y-88823800D03*
X126455400Y-90093800D03*
X126455400Y-91363800D03*
X126455400Y-92633800D03*
X126455400Y-93903800D03*
X126455400Y-95173800D03*
X126455400Y-96443800D03*
X126455400Y-97713800D03*
X126325400Y-83743800D03*
X126325400Y-82473800D03*
X126325400Y-81203800D03*
X126325400Y-79933800D03*
X121375400Y-79933800D03*
X121375400Y-81203800D03*
X121375400Y-82473800D03*
X121375400Y-83743800D03*
D28*
X123850400Y-81838800D03*
D16*
X141630400Y-111048800D03*
D15*
X139090400Y-111048800D03*
X141630400Y-108508800D03*
X139090400Y-108508800D03*
X141630400Y-105968800D03*
X139090400Y-105968800D03*
X141630400Y-103428800D03*
X139090400Y-103428800D03*
X141630400Y-100888800D03*
X139090400Y-100888800D03*
X141630400Y-98348800D03*
X139090400Y-98348800D03*
X141630400Y-95808800D03*
X139090400Y-95808800D03*
X141630400Y-93268800D03*
X139090400Y-93268800D03*
X141630400Y-90728800D03*
X139090400Y-90728800D03*
X141630400Y-88188800D03*
X139090400Y-88188800D03*
X141630400Y-85648800D03*
X139090400Y-85648800D03*
X141630400Y-83108800D03*
X139090400Y-83108800D03*
X141630400Y-80568800D03*
X139090400Y-80568800D03*
X141630400Y-78028800D03*
X139090400Y-78028800D03*
D24*
X131013200Y-128115100D03*
X131013200Y-126215100D03*
X131140200Y-132433100D03*
X131140200Y-130533100D03*
D19*
X146098300Y-116281200D03*
X144198300Y-116281200D03*
X144137300Y-113868200D03*
X146037300Y-113868200D03*
D24*
X147116800Y-104975700D03*
X147116800Y-103075700D03*
D19*
X140515300Y-116281200D03*
X142415300Y-116281200D03*
X142415300Y-113868200D03*
X140515300Y-113868200D03*
X141165500Y-122161300D03*
X143065500Y-122161300D03*
X143065500Y-119621300D03*
X141165500Y-119621300D03*
X139443500Y-122161300D03*
X137543500Y-122161300D03*
X139443500Y-119621300D03*
X137543500Y-119621300D03*
D23*
X129565400Y-121854000D03*
X129565400Y-119954000D03*
X127279400Y-121854000D03*
X127279400Y-119954000D03*
X129565400Y-118298000D03*
X129565400Y-116398000D03*
X127279400Y-116398000D03*
X127279400Y-118298000D03*
D29*
X144729200Y-104912800D03*
X144729200Y-103087800D03*
X132588000Y-113489100D03*
X132588000Y-115314100D03*
D30*
X121386200Y-129197100D03*
D31*
X127686200Y-129197100D03*
X127686200Y-126897100D03*
X127686200Y-131497100D03*
M02*
