%TF.GenerationSoftware,KiCad,Pcbnew,(6.0.11)*%
%TF.CreationDate,2025-01-10T09:32:41+11:00*%
%TF.ProjectId,bbb,6262622e-6b69-4636-9164-5f7063625858,rev?*%
%TF.SameCoordinates,Original*%
%TF.FileFunction,Drillmap*%
%TF.FilePolarity,Positive*%
%FSLAX45Y45*%
G04 Gerber Fmt 4.5, Leading zero omitted, Abs format (unit mm)*
G04 Created by KiCad (PCBNEW (6.0.11)) date 2025-01-10 09:32:41*
%MOMM*%
%LPD*%
G01*
G04 APERTURE LIST*
%ADD10C,0.002540*%
%ADD11C,0.200000*%
%ADD12C,0.025400*%
%ADD13C,0.050800*%
%ADD14C,0.100000*%
%ADD15C,0.101600*%
%ADD16C,0.149860*%
G04 APERTURE END LIST*
D10*
X16551913Y-14325585D02*
G75*
G03*
X16873213Y-14001750I0J321310D01*
G01*
X16874490Y-6083300D02*
G75*
G03*
X16629230Y-5835649I-246380J1270D01*
G01*
X11564620Y-5835650D02*
G75*
G03*
X11285220Y-6115050I0J-279400D01*
G01*
X11285220Y-13995400D02*
G75*
G03*
X11615420Y-14325600I330200J0D01*
G01*
X16629230Y-5835649D02*
X11564620Y-5835650D01*
X16551913Y-14325585D02*
X11615420Y-14325600D01*
X16873220Y-14001750D02*
X16874490Y-6083300D01*
X11285220Y-13995400D02*
X11285220Y-6115050D01*
D11*
D12*
X11927840Y-8552180D02*
X11953240Y-8577580D01*
X11953240Y-8552180D02*
X11927840Y-8577580D01*
X11991340Y-8361680D02*
X12016740Y-8387080D01*
X12016740Y-8361680D02*
X11991340Y-8387080D01*
X12024360Y-11071860D02*
X12049760Y-11097260D01*
X12049760Y-11071860D02*
X12024360Y-11097260D01*
X12054840Y-8806180D02*
X12080240Y-8831580D01*
X12080240Y-8806180D02*
X12054840Y-8831580D01*
X12054840Y-9060180D02*
X12080240Y-9085580D01*
X12080240Y-9060180D02*
X12054840Y-9085580D01*
X12054840Y-9314180D02*
X12080240Y-9339580D01*
X12080240Y-9314180D02*
X12054840Y-9339580D01*
X12054840Y-9568180D02*
X12080240Y-9593580D01*
X12080240Y-9568180D02*
X12054840Y-9593580D01*
X12245340Y-9822180D02*
X12270740Y-9847580D01*
X12270740Y-9822180D02*
X12245340Y-9847580D01*
X12372340Y-7917180D02*
X12397740Y-7942580D01*
X12397740Y-7917180D02*
X12372340Y-7942580D01*
X12499340Y-9695180D02*
X12524740Y-9720580D01*
X12524740Y-9695180D02*
X12499340Y-9720580D01*
X12532360Y-11071860D02*
X12557760Y-11097260D01*
X12557760Y-11071860D02*
X12532360Y-11097260D01*
X12626340Y-9822180D02*
X12651740Y-9847580D01*
X12651740Y-9822180D02*
X12626340Y-9847580D01*
X12626340Y-10711180D02*
X12651740Y-10736580D01*
X12651740Y-10711180D02*
X12626340Y-10736580D01*
X12711430Y-11405870D02*
X12736830Y-11431270D01*
X12736830Y-11405870D02*
X12711430Y-11431270D01*
X12753340Y-7980680D02*
X12778740Y-8006080D01*
X12778740Y-7980680D02*
X12753340Y-8006080D01*
X12880340Y-8298180D02*
X12905740Y-8323580D01*
X12905740Y-8298180D02*
X12880340Y-8323580D01*
X12880340Y-8806180D02*
X12905740Y-8831580D01*
X12905740Y-8806180D02*
X12880340Y-8831580D01*
X12880340Y-9949180D02*
X12905740Y-9974580D01*
X12905740Y-9949180D02*
X12880340Y-9974580D01*
X12880340Y-10711180D02*
X12905740Y-10736580D01*
X12905740Y-10711180D02*
X12880340Y-10736580D01*
X13007340Y-10203180D02*
X13032740Y-10228580D01*
X13032740Y-10203180D02*
X13007340Y-10228580D01*
X13134340Y-8806180D02*
X13159740Y-8831580D01*
X13159740Y-8806180D02*
X13134340Y-8831580D01*
X13134340Y-9822180D02*
X13159740Y-9847580D01*
X13159740Y-9822180D02*
X13134340Y-9847580D01*
X13158271Y-10433249D02*
X13183671Y-10458649D01*
X13183671Y-10433249D02*
X13158271Y-10458649D01*
X13388340Y-9187180D02*
X13413740Y-9212580D01*
X13413740Y-9187180D02*
X13388340Y-9212580D01*
X13515340Y-9949180D02*
X13540740Y-9974580D01*
X13540740Y-9949180D02*
X13515340Y-9974580D01*
X13578840Y-7256780D02*
X13604240Y-7282180D01*
X13604240Y-7256780D02*
X13578840Y-7282180D01*
X13578840Y-8323580D02*
X13604240Y-8348980D01*
X13604240Y-8323580D02*
X13578840Y-8348980D01*
X13606590Y-10111930D02*
X13631990Y-10137330D01*
X13631990Y-10111930D02*
X13606590Y-10137330D01*
X13642340Y-8679180D02*
X13667740Y-8704580D01*
X13667740Y-8679180D02*
X13642340Y-8704580D01*
X13656310Y-11847830D02*
X13681710Y-11873230D01*
X13681710Y-11847830D02*
X13656310Y-11873230D01*
X14508480Y-8538210D02*
X14533880Y-8563610D01*
X14533880Y-8538210D02*
X14508480Y-8563610D01*
X14683740Y-10595610D02*
X14709140Y-10621010D01*
X14709140Y-10595610D02*
X14683740Y-10621010D01*
X14814549Y-8613141D02*
X14839949Y-8638541D01*
X14839949Y-8613141D02*
X14814549Y-8638541D01*
X14825980Y-7903210D02*
X14851380Y-7928610D01*
X14851380Y-7903210D02*
X14825980Y-7928610D01*
X15110460Y-8382000D02*
X15135860Y-8407400D01*
X15135860Y-8382000D02*
X15110460Y-8407400D01*
X15143480Y-8157210D02*
X15168880Y-8182610D01*
X15168880Y-8157210D02*
X15143480Y-8182610D01*
X15143480Y-8792210D02*
X15168880Y-8817610D01*
X15168880Y-8792210D02*
X15143480Y-8817610D01*
X15333980Y-7966710D02*
X15359380Y-7992110D01*
X15359380Y-7966710D02*
X15333980Y-7992110D01*
X15587980Y-8093710D02*
X15613380Y-8119110D01*
X15613380Y-8093710D02*
X15587980Y-8119110D01*
X15587980Y-8347710D02*
X15613380Y-8373110D01*
X15613380Y-8347710D02*
X15587980Y-8373110D01*
X15587980Y-8601710D02*
X15613380Y-8627110D01*
X15613380Y-8601710D02*
X15587980Y-8627110D01*
X15706090Y-13451840D02*
X15731490Y-13477240D01*
X15731490Y-13451840D02*
X15706090Y-13477240D01*
X16071850Y-8243570D02*
X16097250Y-8268970D01*
X16097250Y-8243570D02*
X16071850Y-8268970D01*
D13*
X12553950Y-13505180D02*
G75*
G03*
X12553950Y-13505180I-25400J0D01*
G01*
X13136880Y-13512800D02*
G75*
G03*
X13136880Y-13512800I-25400J0D01*
G01*
X15477490Y-13582650D02*
G75*
G03*
X15477490Y-13582650I-25400J0D01*
G01*
X15991840Y-13564870D02*
G75*
G03*
X15991840Y-13564870I-25400J0D01*
G01*
D14*
X11494770Y-8619020D02*
X11494770Y-8719020D01*
X11444770Y-8669020D02*
X11544770Y-8669020D01*
X11494770Y-8873020D02*
X11494770Y-8973020D01*
X11444770Y-8923020D02*
X11544770Y-8923020D01*
X11494770Y-9127020D02*
X11494770Y-9227020D01*
X11444770Y-9177020D02*
X11544770Y-9177020D01*
X11494770Y-9381020D02*
X11494770Y-9481020D01*
X11444770Y-9431020D02*
X11544770Y-9431020D01*
X11494770Y-9635020D02*
X11494770Y-9735020D01*
X11444770Y-9685020D02*
X11544770Y-9685020D01*
X11494770Y-9889020D02*
X11494770Y-9989020D01*
X11444770Y-9939020D02*
X11544770Y-9939020D01*
X11494770Y-10143020D02*
X11494770Y-10243020D01*
X11444770Y-10193020D02*
X11544770Y-10193020D01*
X11494770Y-10397020D02*
X11494770Y-10497020D01*
X11444770Y-10447020D02*
X11544770Y-10447020D01*
X11494770Y-10651020D02*
X11494770Y-10751020D01*
X11444770Y-10701020D02*
X11544770Y-10701020D01*
X11494770Y-10905020D02*
X11494770Y-11005020D01*
X11444770Y-10955020D02*
X11544770Y-10955020D01*
X11494770Y-11159020D02*
X11494770Y-11259020D01*
X11444770Y-11209020D02*
X11544770Y-11209020D01*
X11494770Y-11413020D02*
X11494770Y-11513020D01*
X11444770Y-11463020D02*
X11544770Y-11463020D01*
X11494770Y-11667020D02*
X11494770Y-11767020D01*
X11444770Y-11717020D02*
X11544770Y-11717020D01*
X11494770Y-11921020D02*
X11494770Y-12021020D01*
X11444770Y-11971020D02*
X11544770Y-11971020D01*
X11494770Y-12175020D02*
X11494770Y-12275020D01*
X11444770Y-12225020D02*
X11544770Y-12225020D01*
X11494770Y-12429020D02*
X11494770Y-12529020D01*
X11444770Y-12479020D02*
X11544770Y-12479020D01*
X11494770Y-12683020D02*
X11494770Y-12783020D01*
X11444770Y-12733020D02*
X11544770Y-12733020D01*
X11494770Y-12937020D02*
X11494770Y-13037020D01*
X11444770Y-12987020D02*
X11544770Y-12987020D01*
X11494770Y-13191020D02*
X11494770Y-13291020D01*
X11444770Y-13241020D02*
X11544770Y-13241020D01*
X11494770Y-13445020D02*
X11494770Y-13545020D01*
X11444770Y-13495020D02*
X11544770Y-13495020D01*
X11748770Y-8619020D02*
X11748770Y-8719020D01*
X11698770Y-8669020D02*
X11798770Y-8669020D01*
X11748770Y-8873020D02*
X11748770Y-8973020D01*
X11698770Y-8923020D02*
X11798770Y-8923020D01*
X11748770Y-9127020D02*
X11748770Y-9227020D01*
X11698770Y-9177020D02*
X11798770Y-9177020D01*
X11748770Y-9381020D02*
X11748770Y-9481020D01*
X11698770Y-9431020D02*
X11798770Y-9431020D01*
X11748770Y-9635020D02*
X11748770Y-9735020D01*
X11698770Y-9685020D02*
X11798770Y-9685020D01*
X11748770Y-9889020D02*
X11748770Y-9989020D01*
X11698770Y-9939020D02*
X11798770Y-9939020D01*
X11748770Y-10143020D02*
X11748770Y-10243020D01*
X11698770Y-10193020D02*
X11798770Y-10193020D01*
X11748770Y-10397020D02*
X11748770Y-10497020D01*
X11698770Y-10447020D02*
X11798770Y-10447020D01*
X11748770Y-10651020D02*
X11748770Y-10751020D01*
X11698770Y-10701020D02*
X11798770Y-10701020D01*
X11748770Y-10905020D02*
X11748770Y-11005020D01*
X11698770Y-10955020D02*
X11798770Y-10955020D01*
X11748770Y-11159020D02*
X11748770Y-11259020D01*
X11698770Y-11209020D02*
X11798770Y-11209020D01*
X11748770Y-11413020D02*
X11748770Y-11513020D01*
X11698770Y-11463020D02*
X11798770Y-11463020D01*
X11748770Y-11667020D02*
X11748770Y-11767020D01*
X11698770Y-11717020D02*
X11798770Y-11717020D01*
X11748770Y-11921020D02*
X11748770Y-12021020D01*
X11698770Y-11971020D02*
X11798770Y-11971020D01*
X11748770Y-12175020D02*
X11748770Y-12275020D01*
X11698770Y-12225020D02*
X11798770Y-12225020D01*
X11748770Y-12429020D02*
X11748770Y-12529020D01*
X11698770Y-12479020D02*
X11798770Y-12479020D01*
X11748770Y-12683020D02*
X11748770Y-12783020D01*
X11698770Y-12733020D02*
X11798770Y-12733020D01*
X11748770Y-12937020D02*
X11748770Y-13037020D01*
X11698770Y-12987020D02*
X11798770Y-12987020D01*
X11748770Y-13191020D02*
X11748770Y-13291020D01*
X11698770Y-13241020D02*
X11798770Y-13241020D01*
X11748770Y-13445020D02*
X11748770Y-13545020D01*
X11698770Y-13495020D02*
X11798770Y-13495020D01*
X13909040Y-7752880D02*
X13909040Y-7852880D01*
X13859040Y-7802880D02*
X13959040Y-7802880D01*
X13909040Y-8006880D02*
X13909040Y-8106880D01*
X13859040Y-8056880D02*
X13959040Y-8056880D01*
X13909040Y-8260880D02*
X13909040Y-8360880D01*
X13859040Y-8310880D02*
X13959040Y-8310880D01*
X13909040Y-8514880D02*
X13909040Y-8614880D01*
X13859040Y-8564880D02*
X13959040Y-8564880D01*
X13909040Y-8768880D02*
X13909040Y-8868880D01*
X13859040Y-8818880D02*
X13959040Y-8818880D01*
X13909040Y-9022880D02*
X13909040Y-9122880D01*
X13859040Y-9072880D02*
X13959040Y-9072880D01*
X13909040Y-9276880D02*
X13909040Y-9376880D01*
X13859040Y-9326880D02*
X13959040Y-9326880D01*
X13909040Y-9530880D02*
X13909040Y-9630880D01*
X13859040Y-9580880D02*
X13959040Y-9580880D01*
X13909040Y-9784880D02*
X13909040Y-9884880D01*
X13859040Y-9834880D02*
X13959040Y-9834880D01*
X13909040Y-10038880D02*
X13909040Y-10138880D01*
X13859040Y-10088880D02*
X13959040Y-10088880D01*
X13909040Y-10292880D02*
X13909040Y-10392880D01*
X13859040Y-10342880D02*
X13959040Y-10342880D01*
X13909040Y-10546880D02*
X13909040Y-10646880D01*
X13859040Y-10596880D02*
X13959040Y-10596880D01*
X13909040Y-10800880D02*
X13909040Y-10900880D01*
X13859040Y-10850880D02*
X13959040Y-10850880D01*
X13909040Y-11054880D02*
X13909040Y-11154880D01*
X13859040Y-11104880D02*
X13959040Y-11104880D01*
X14163040Y-7752880D02*
X14163040Y-7852880D01*
X14113040Y-7802880D02*
X14213040Y-7802880D01*
X14163040Y-8006880D02*
X14163040Y-8106880D01*
X14113040Y-8056880D02*
X14213040Y-8056880D01*
X14163040Y-8260880D02*
X14163040Y-8360880D01*
X14113040Y-8310880D02*
X14213040Y-8310880D01*
X14163040Y-8514880D02*
X14163040Y-8614880D01*
X14113040Y-8564880D02*
X14213040Y-8564880D01*
X14163040Y-8768880D02*
X14163040Y-8868880D01*
X14113040Y-8818880D02*
X14213040Y-8818880D01*
X14163040Y-9022880D02*
X14163040Y-9122880D01*
X14113040Y-9072880D02*
X14213040Y-9072880D01*
X14163040Y-9276880D02*
X14163040Y-9376880D01*
X14113040Y-9326880D02*
X14213040Y-9326880D01*
X14163040Y-9530880D02*
X14163040Y-9630880D01*
X14113040Y-9580880D02*
X14213040Y-9580880D01*
X14163040Y-9784880D02*
X14163040Y-9884880D01*
X14113040Y-9834880D02*
X14213040Y-9834880D01*
X14163040Y-10038880D02*
X14163040Y-10138880D01*
X14113040Y-10088880D02*
X14213040Y-10088880D01*
X14163040Y-10292880D02*
X14163040Y-10392880D01*
X14113040Y-10342880D02*
X14213040Y-10342880D01*
X14163040Y-10546880D02*
X14163040Y-10646880D01*
X14113040Y-10596880D02*
X14213040Y-10596880D01*
X14163040Y-10800880D02*
X14163040Y-10900880D01*
X14113040Y-10850880D02*
X14213040Y-10850880D01*
X14163040Y-11054880D02*
X14163040Y-11154880D01*
X14113040Y-11104880D02*
X14213040Y-11104880D01*
D15*
X11584031Y-7570831D02*
X11584031Y-7498989D01*
X11512189Y-7498989D01*
X11512189Y-7570831D01*
X11584031Y-7570831D01*
X13944961Y-6022701D02*
X13944961Y-5950859D01*
X13873119Y-5950859D01*
X13873119Y-6022701D01*
X13944961Y-6022701D01*
X13944961Y-6276701D02*
X13944961Y-6204859D01*
X13873119Y-6204859D01*
X13873119Y-6276701D01*
X13944961Y-6276701D01*
X13944961Y-6518001D02*
X13944961Y-6446159D01*
X13873119Y-6446159D01*
X13873119Y-6518001D01*
X13944961Y-6518001D01*
X13944961Y-6772001D02*
X13944961Y-6700159D01*
X13873119Y-6700159D01*
X13873119Y-6772001D01*
X13944961Y-6772001D01*
X13944961Y-7026001D02*
X13944961Y-6954159D01*
X13873119Y-6954159D01*
X13873119Y-7026001D01*
X13944961Y-7026001D01*
X13944961Y-7280001D02*
X13944961Y-7208159D01*
X13873119Y-7208159D01*
X13873119Y-7280001D01*
X13944961Y-7280001D01*
X14198961Y-6022701D02*
X14198961Y-5950859D01*
X14127119Y-5950859D01*
X14127119Y-6022701D01*
X14198961Y-6022701D01*
X14198961Y-6276701D02*
X14198961Y-6204859D01*
X14127119Y-6204859D01*
X14127119Y-6276701D01*
X14198961Y-6276701D01*
X14198961Y-6518001D02*
X14198961Y-6446159D01*
X14127119Y-6446159D01*
X14127119Y-6518001D01*
X14198961Y-6518001D01*
X14198961Y-6772001D02*
X14198961Y-6700159D01*
X14127119Y-6700159D01*
X14127119Y-6772001D01*
X14198961Y-6772001D01*
X14198961Y-7026001D02*
X14198961Y-6954159D01*
X14127119Y-6954159D01*
X14127119Y-7026001D01*
X14198961Y-7026001D01*
X14198961Y-7280001D02*
X14198961Y-7208159D01*
X14127119Y-7208159D01*
X14127119Y-7280001D01*
X14198961Y-7280001D01*
X14452961Y-6022701D02*
X14452961Y-5950859D01*
X14381119Y-5950859D01*
X14381119Y-6022701D01*
X14452961Y-6022701D01*
X14452961Y-6276701D02*
X14452961Y-6204859D01*
X14381119Y-6204859D01*
X14381119Y-6276701D01*
X14452961Y-6276701D01*
X14452961Y-6518001D02*
X14452961Y-6446159D01*
X14381119Y-6446159D01*
X14381119Y-6518001D01*
X14452961Y-6518001D01*
X14452961Y-6772001D02*
X14452961Y-6700159D01*
X14381119Y-6700159D01*
X14381119Y-6772001D01*
X14452961Y-6772001D01*
X14452961Y-7026001D02*
X14452961Y-6954159D01*
X14381119Y-6954159D01*
X14381119Y-7026001D01*
X14452961Y-7026001D01*
X14452961Y-7280001D02*
X14452961Y-7208159D01*
X14381119Y-7208159D01*
X14381119Y-7280001D01*
X14452961Y-7280001D01*
X14706961Y-6022701D02*
X14706961Y-5950859D01*
X14635119Y-5950859D01*
X14635119Y-6022701D01*
X14706961Y-6022701D01*
X14706961Y-6276701D02*
X14706961Y-6204859D01*
X14635119Y-6204859D01*
X14635119Y-6276701D01*
X14706961Y-6276701D01*
X14706961Y-6518001D02*
X14706961Y-6446159D01*
X14635119Y-6446159D01*
X14635119Y-6518001D01*
X14706961Y-6518001D01*
X14706961Y-6772001D02*
X14706961Y-6700159D01*
X14635119Y-6700159D01*
X14635119Y-6772001D01*
X14706961Y-6772001D01*
X14706961Y-7026001D02*
X14706961Y-6954159D01*
X14635119Y-6954159D01*
X14635119Y-7026001D01*
X14706961Y-7026001D01*
X14706961Y-7280001D02*
X14706961Y-7208159D01*
X14635119Y-7208159D01*
X14635119Y-7280001D01*
X14706961Y-7280001D01*
X14960961Y-6022701D02*
X14960961Y-5950859D01*
X14889119Y-5950859D01*
X14889119Y-6022701D01*
X14960961Y-6022701D01*
X14960961Y-6276701D02*
X14960961Y-6204859D01*
X14889119Y-6204859D01*
X14889119Y-6276701D01*
X14960961Y-6276701D01*
X14960961Y-6518001D02*
X14960961Y-6446159D01*
X14889119Y-6446159D01*
X14889119Y-6518001D01*
X14960961Y-6518001D01*
X14960961Y-6772001D02*
X14960961Y-6700159D01*
X14889119Y-6700159D01*
X14889119Y-6772001D01*
X14960961Y-6772001D01*
X14960961Y-7026001D02*
X14960961Y-6954159D01*
X14889119Y-6954159D01*
X14889119Y-7026001D01*
X14960961Y-7026001D01*
X14960961Y-7280001D02*
X14960961Y-7208159D01*
X14889119Y-7208159D01*
X14889119Y-7280001D01*
X14960961Y-7280001D01*
X15214961Y-6022701D02*
X15214961Y-5950859D01*
X15143119Y-5950859D01*
X15143119Y-6022701D01*
X15214961Y-6022701D01*
X15214961Y-6276701D02*
X15214961Y-6204859D01*
X15143119Y-6204859D01*
X15143119Y-6276701D01*
X15214961Y-6276701D01*
X15214961Y-6518001D02*
X15214961Y-6446159D01*
X15143119Y-6446159D01*
X15143119Y-6518001D01*
X15214961Y-6518001D01*
X15214961Y-6772001D02*
X15214961Y-6700159D01*
X15143119Y-6700159D01*
X15143119Y-6772001D01*
X15214961Y-6772001D01*
X15214961Y-7026001D02*
X15214961Y-6954159D01*
X15143119Y-6954159D01*
X15143119Y-7026001D01*
X15214961Y-7026001D01*
X15214961Y-7280001D02*
X15214961Y-7208159D01*
X15143119Y-7208159D01*
X15143119Y-7280001D01*
X15214961Y-7280001D01*
X15468961Y-6022701D02*
X15468961Y-5950859D01*
X15397119Y-5950859D01*
X15397119Y-6022701D01*
X15468961Y-6022701D01*
X15468961Y-6276701D02*
X15468961Y-6204859D01*
X15397119Y-6204859D01*
X15397119Y-6276701D01*
X15468961Y-6276701D01*
X15468961Y-6518001D02*
X15468961Y-6446159D01*
X15397119Y-6446159D01*
X15397119Y-6518001D01*
X15468961Y-6518001D01*
X15468961Y-6772001D02*
X15468961Y-6700159D01*
X15397119Y-6700159D01*
X15397119Y-6772001D01*
X15468961Y-6772001D01*
X15468961Y-7026001D02*
X15468961Y-6954159D01*
X15397119Y-6954159D01*
X15397119Y-7026001D01*
X15468961Y-7026001D01*
X15468961Y-7280001D02*
X15468961Y-7208159D01*
X15397119Y-7208159D01*
X15397119Y-7280001D01*
X15468961Y-7280001D01*
X15722961Y-6022701D02*
X15722961Y-5950859D01*
X15651119Y-5950859D01*
X15651119Y-6022701D01*
X15722961Y-6022701D01*
X15722961Y-6276701D02*
X15722961Y-6204859D01*
X15651119Y-6204859D01*
X15651119Y-6276701D01*
X15722961Y-6276701D01*
X15722961Y-6518001D02*
X15722961Y-6446159D01*
X15651119Y-6446159D01*
X15651119Y-6518001D01*
X15722961Y-6518001D01*
X15722961Y-6772001D02*
X15722961Y-6700159D01*
X15651119Y-6700159D01*
X15651119Y-6772001D01*
X15722961Y-6772001D01*
X15722961Y-7026001D02*
X15722961Y-6954159D01*
X15651119Y-6954159D01*
X15651119Y-7026001D01*
X15722961Y-7026001D01*
X15722961Y-7280001D02*
X15722961Y-7208159D01*
X15651119Y-7208159D01*
X15651119Y-7280001D01*
X15722961Y-7280001D01*
X15976961Y-6022701D02*
X15976961Y-5950859D01*
X15905119Y-5950859D01*
X15905119Y-6022701D01*
X15976961Y-6022701D01*
X15976961Y-6276701D02*
X15976961Y-6204859D01*
X15905119Y-6204859D01*
X15905119Y-6276701D01*
X15976961Y-6276701D01*
X15976961Y-6518001D02*
X15976961Y-6446159D01*
X15905119Y-6446159D01*
X15905119Y-6518001D01*
X15976961Y-6518001D01*
X15976961Y-6772001D02*
X15976961Y-6700159D01*
X15905119Y-6700159D01*
X15905119Y-6772001D01*
X15976961Y-6772001D01*
X15976961Y-7026001D02*
X15976961Y-6954159D01*
X15905119Y-6954159D01*
X15905119Y-7026001D01*
X15976961Y-7026001D01*
X15976961Y-7280001D02*
X15976961Y-7208159D01*
X15905119Y-7208159D01*
X15905119Y-7280001D01*
X15976961Y-7280001D01*
X16230961Y-6022701D02*
X16230961Y-5950859D01*
X16159119Y-5950859D01*
X16159119Y-6022701D01*
X16230961Y-6022701D01*
X16230961Y-6276701D02*
X16230961Y-6204859D01*
X16159119Y-6204859D01*
X16159119Y-6276701D01*
X16230961Y-6276701D01*
X16230961Y-6518001D02*
X16230961Y-6446159D01*
X16159119Y-6446159D01*
X16159119Y-6518001D01*
X16230961Y-6518001D01*
X16230961Y-6772001D02*
X16230961Y-6700159D01*
X16159119Y-6700159D01*
X16159119Y-6772001D01*
X16230961Y-6772001D01*
X16230961Y-7026001D02*
X16230961Y-6954159D01*
X16159119Y-6954159D01*
X16159119Y-7026001D01*
X16230961Y-7026001D01*
X16230961Y-7280001D02*
X16230961Y-7208159D01*
X16159119Y-7208159D01*
X16159119Y-7280001D01*
X16230961Y-7280001D01*
X14074140Y-12675870D02*
X14124940Y-12625070D01*
X14074140Y-12574270D01*
X14023340Y-12625070D01*
X14074140Y-12675870D01*
X14531340Y-12675870D02*
X14582140Y-12625070D01*
X14531340Y-12574270D01*
X14480540Y-12625070D01*
X14531340Y-12675870D01*
X15123160Y-11593830D02*
X15173960Y-11543030D01*
X15123160Y-11492230D01*
X15072360Y-11543030D01*
X15123160Y-11593830D01*
X15123160Y-12051030D02*
X15173960Y-12000230D01*
X15123160Y-11949430D01*
X15072360Y-12000230D01*
X15123160Y-12051030D01*
X15184120Y-9765030D02*
X15234920Y-9714230D01*
X15184120Y-9663430D01*
X15133320Y-9714230D01*
X15184120Y-9765030D01*
X15184120Y-10222230D02*
X15234920Y-10171430D01*
X15184120Y-10120630D01*
X15133320Y-10171430D01*
X15184120Y-10222230D01*
D16*
X12288010Y-6966650D02*
X12437870Y-7116510D01*
X12437870Y-6966650D02*
X12288010Y-7116510D01*
X12437870Y-7041580D02*
G75*
G03*
X12437870Y-7041580I-74930J0D01*
G01*
X12788010Y-6466650D02*
X12937870Y-6616510D01*
X12937870Y-6466650D02*
X12788010Y-6616510D01*
X12937870Y-6541580D02*
G75*
G03*
X12937870Y-6541580I-74930J0D01*
G01*
X13288010Y-6966650D02*
X13437870Y-7116510D01*
X13437870Y-6966650D02*
X13288010Y-7116510D01*
X13437870Y-7041580D02*
G75*
G03*
X13437870Y-7041580I-74930J0D01*
G01*
D11*
X11542712Y-14636203D02*
X11542712Y-14436203D01*
X11590331Y-14436203D01*
X11618902Y-14445727D01*
X11637950Y-14464775D01*
X11647474Y-14483822D01*
X11656998Y-14521917D01*
X11656998Y-14550489D01*
X11647474Y-14588584D01*
X11637950Y-14607632D01*
X11618902Y-14626679D01*
X11590331Y-14636203D01*
X11542712Y-14636203D01*
X11742712Y-14636203D02*
X11742712Y-14502870D01*
X11742712Y-14540965D02*
X11752236Y-14521917D01*
X11761760Y-14512394D01*
X11780807Y-14502870D01*
X11799855Y-14502870D01*
X11866521Y-14636203D02*
X11866521Y-14502870D01*
X11866521Y-14436203D02*
X11856998Y-14445727D01*
X11866521Y-14455251D01*
X11876045Y-14445727D01*
X11866521Y-14436203D01*
X11866521Y-14455251D01*
X11990331Y-14636203D02*
X11971283Y-14626679D01*
X11961760Y-14607632D01*
X11961760Y-14436203D01*
X12095093Y-14636203D02*
X12076045Y-14626679D01*
X12066521Y-14607632D01*
X12066521Y-14436203D01*
X12323664Y-14636203D02*
X12323664Y-14436203D01*
X12390331Y-14579060D01*
X12456998Y-14436203D01*
X12456998Y-14636203D01*
X12637950Y-14636203D02*
X12637950Y-14531441D01*
X12628426Y-14512394D01*
X12609379Y-14502870D01*
X12571283Y-14502870D01*
X12552236Y-14512394D01*
X12637950Y-14626679D02*
X12618902Y-14636203D01*
X12571283Y-14636203D01*
X12552236Y-14626679D01*
X12542712Y-14607632D01*
X12542712Y-14588584D01*
X12552236Y-14569536D01*
X12571283Y-14560013D01*
X12618902Y-14560013D01*
X12637950Y-14550489D01*
X12733188Y-14502870D02*
X12733188Y-14702870D01*
X12733188Y-14512394D02*
X12752236Y-14502870D01*
X12790331Y-14502870D01*
X12809379Y-14512394D01*
X12818902Y-14521917D01*
X12828426Y-14540965D01*
X12828426Y-14598108D01*
X12818902Y-14617155D01*
X12809379Y-14626679D01*
X12790331Y-14636203D01*
X12752236Y-14636203D01*
X12733188Y-14626679D01*
X12914141Y-14617155D02*
X12923664Y-14626679D01*
X12914141Y-14636203D01*
X12904617Y-14626679D01*
X12914141Y-14617155D01*
X12914141Y-14636203D01*
X12914141Y-14512394D02*
X12923664Y-14521917D01*
X12914141Y-14531441D01*
X12904617Y-14521917D01*
X12914141Y-14512394D01*
X12914141Y-14531441D01*
D12*
X11259693Y-14953027D02*
X11285093Y-14978427D01*
X11285093Y-14953027D02*
X11259693Y-14978427D01*
D11*
X11580807Y-14856203D02*
X11599855Y-14856203D01*
X11618902Y-14865727D01*
X11628426Y-14875251D01*
X11637950Y-14894298D01*
X11647474Y-14932394D01*
X11647474Y-14980013D01*
X11637950Y-15018108D01*
X11628426Y-15037155D01*
X11618902Y-15046679D01*
X11599855Y-15056203D01*
X11580807Y-15056203D01*
X11561760Y-15046679D01*
X11552236Y-15037155D01*
X11542712Y-15018108D01*
X11533188Y-14980013D01*
X11533188Y-14932394D01*
X11542712Y-14894298D01*
X11552236Y-14875251D01*
X11561760Y-14865727D01*
X11580807Y-14856203D01*
X11733188Y-15037155D02*
X11742712Y-15046679D01*
X11733188Y-15056203D01*
X11723664Y-15046679D01*
X11733188Y-15037155D01*
X11733188Y-15056203D01*
X11818902Y-14875251D02*
X11828426Y-14865727D01*
X11847474Y-14856203D01*
X11895093Y-14856203D01*
X11914141Y-14865727D01*
X11923664Y-14875251D01*
X11933188Y-14894298D01*
X11933188Y-14913346D01*
X11923664Y-14941917D01*
X11809379Y-15056203D01*
X11933188Y-15056203D01*
X12114141Y-14856203D02*
X12018902Y-14856203D01*
X12009379Y-14951441D01*
X12018902Y-14941917D01*
X12037950Y-14932394D01*
X12085569Y-14932394D01*
X12104617Y-14941917D01*
X12114141Y-14951441D01*
X12123664Y-14970489D01*
X12123664Y-15018108D01*
X12114141Y-15037155D01*
X12104617Y-15046679D01*
X12085569Y-15056203D01*
X12037950Y-15056203D01*
X12018902Y-15046679D01*
X12009379Y-15037155D01*
X12295093Y-14922870D02*
X12295093Y-15056203D01*
X12247474Y-14846679D02*
X12199855Y-14989536D01*
X12323664Y-14989536D01*
X12399855Y-15056203D02*
X12399855Y-14922870D01*
X12399855Y-14941917D02*
X12409379Y-14932394D01*
X12428426Y-14922870D01*
X12456998Y-14922870D01*
X12476045Y-14932394D01*
X12485569Y-14951441D01*
X12485569Y-15056203D01*
X12485569Y-14951441D02*
X12495093Y-14932394D01*
X12514141Y-14922870D01*
X12542712Y-14922870D01*
X12561760Y-14932394D01*
X12571283Y-14951441D01*
X12571283Y-15056203D01*
X12666521Y-15056203D02*
X12666521Y-14922870D01*
X12666521Y-14941917D02*
X12676045Y-14932394D01*
X12695093Y-14922870D01*
X12723664Y-14922870D01*
X12742712Y-14932394D01*
X12752236Y-14951441D01*
X12752236Y-15056203D01*
X12752236Y-14951441D02*
X12761760Y-14932394D01*
X12780807Y-14922870D01*
X12809379Y-14922870D01*
X12828426Y-14932394D01*
X12837950Y-14951441D01*
X12837950Y-15056203D01*
X13228426Y-14846679D02*
X13056998Y-15103822D01*
X13485569Y-14856203D02*
X13504617Y-14856203D01*
X13523664Y-14865727D01*
X13533188Y-14875251D01*
X13542712Y-14894298D01*
X13552236Y-14932394D01*
X13552236Y-14980013D01*
X13542712Y-15018108D01*
X13533188Y-15037155D01*
X13523664Y-15046679D01*
X13504617Y-15056203D01*
X13485569Y-15056203D01*
X13466521Y-15046679D01*
X13456998Y-15037155D01*
X13447474Y-15018108D01*
X13437950Y-14980013D01*
X13437950Y-14932394D01*
X13447474Y-14894298D01*
X13456998Y-14875251D01*
X13466521Y-14865727D01*
X13485569Y-14856203D01*
X13637950Y-15037155D02*
X13647474Y-15046679D01*
X13637950Y-15056203D01*
X13628426Y-15046679D01*
X13637950Y-15037155D01*
X13637950Y-15056203D01*
X13771283Y-14856203D02*
X13790331Y-14856203D01*
X13809379Y-14865727D01*
X13818902Y-14875251D01*
X13828426Y-14894298D01*
X13837950Y-14932394D01*
X13837950Y-14980013D01*
X13828426Y-15018108D01*
X13818902Y-15037155D01*
X13809379Y-15046679D01*
X13790331Y-15056203D01*
X13771283Y-15056203D01*
X13752236Y-15046679D01*
X13742712Y-15037155D01*
X13733188Y-15018108D01*
X13723664Y-14980013D01*
X13723664Y-14932394D01*
X13733188Y-14894298D01*
X13742712Y-14875251D01*
X13752236Y-14865727D01*
X13771283Y-14856203D01*
X14028426Y-15056203D02*
X13914141Y-15056203D01*
X13971283Y-15056203D02*
X13971283Y-14856203D01*
X13952236Y-14884775D01*
X13933188Y-14903822D01*
X13914141Y-14913346D01*
X14152236Y-14856203D02*
X14171283Y-14856203D01*
X14190331Y-14865727D01*
X14199855Y-14875251D01*
X14209379Y-14894298D01*
X14218902Y-14932394D01*
X14218902Y-14980013D01*
X14209379Y-15018108D01*
X14199855Y-15037155D01*
X14190331Y-15046679D01*
X14171283Y-15056203D01*
X14152236Y-15056203D01*
X14133188Y-15046679D01*
X14123664Y-15037155D01*
X14114141Y-15018108D01*
X14104617Y-14980013D01*
X14104617Y-14932394D01*
X14114141Y-14894298D01*
X14123664Y-14875251D01*
X14133188Y-14865727D01*
X14152236Y-14856203D01*
X14342712Y-14856203D02*
X14361760Y-14856203D01*
X14380807Y-14865727D01*
X14390331Y-14875251D01*
X14399855Y-14894298D01*
X14409379Y-14932394D01*
X14409379Y-14980013D01*
X14399855Y-15018108D01*
X14390331Y-15037155D01*
X14380807Y-15046679D01*
X14361760Y-15056203D01*
X14342712Y-15056203D01*
X14323664Y-15046679D01*
X14314141Y-15037155D01*
X14304617Y-15018108D01*
X14295093Y-14980013D01*
X14295093Y-14932394D01*
X14304617Y-14894298D01*
X14314141Y-14875251D01*
X14323664Y-14865727D01*
X14342712Y-14856203D01*
X14485569Y-14856203D02*
X14485569Y-14894298D01*
X14561760Y-14856203D02*
X14561760Y-14894298D01*
X14856998Y-15132394D02*
X14847474Y-15122870D01*
X14828426Y-15094298D01*
X14818902Y-15075251D01*
X14809379Y-15046679D01*
X14799855Y-14999060D01*
X14799855Y-14960965D01*
X14809379Y-14913346D01*
X14818902Y-14884775D01*
X14828426Y-14865727D01*
X14847474Y-14837155D01*
X14856998Y-14827632D01*
X15018902Y-14922870D02*
X15018902Y-15056203D01*
X14971283Y-14846679D02*
X14923664Y-14989536D01*
X15047474Y-14989536D01*
X15104617Y-14856203D02*
X15228426Y-14856203D01*
X15161760Y-14932394D01*
X15190331Y-14932394D01*
X15209379Y-14941917D01*
X15218902Y-14951441D01*
X15228426Y-14970489D01*
X15228426Y-15018108D01*
X15218902Y-15037155D01*
X15209379Y-15046679D01*
X15190331Y-15056203D01*
X15133188Y-15056203D01*
X15114141Y-15046679D01*
X15104617Y-15037155D01*
X15466521Y-15056203D02*
X15466521Y-14856203D01*
X15552236Y-15056203D02*
X15552236Y-14951441D01*
X15542712Y-14932394D01*
X15523664Y-14922870D01*
X15495093Y-14922870D01*
X15476045Y-14932394D01*
X15466521Y-14941917D01*
X15676045Y-15056203D02*
X15656998Y-15046679D01*
X15647474Y-15037155D01*
X15637950Y-15018108D01*
X15637950Y-14960965D01*
X15647474Y-14941917D01*
X15656998Y-14932394D01*
X15676045Y-14922870D01*
X15704617Y-14922870D01*
X15723664Y-14932394D01*
X15733188Y-14941917D01*
X15742712Y-14960965D01*
X15742712Y-15018108D01*
X15733188Y-15037155D01*
X15723664Y-15046679D01*
X15704617Y-15056203D01*
X15676045Y-15056203D01*
X15856998Y-15056203D02*
X15837950Y-15046679D01*
X15828426Y-15027632D01*
X15828426Y-14856203D01*
X16009379Y-15046679D02*
X15990331Y-15056203D01*
X15952236Y-15056203D01*
X15933188Y-15046679D01*
X15923664Y-15027632D01*
X15923664Y-14951441D01*
X15933188Y-14932394D01*
X15952236Y-14922870D01*
X15990331Y-14922870D01*
X16009379Y-14932394D01*
X16018902Y-14951441D01*
X16018902Y-14970489D01*
X15923664Y-14989536D01*
X16095093Y-15046679D02*
X16114141Y-15056203D01*
X16152236Y-15056203D01*
X16171283Y-15046679D01*
X16180807Y-15027632D01*
X16180807Y-15018108D01*
X16171283Y-14999060D01*
X16152236Y-14989536D01*
X16123664Y-14989536D01*
X16104617Y-14980013D01*
X16095093Y-14960965D01*
X16095093Y-14951441D01*
X16104617Y-14932394D01*
X16123664Y-14922870D01*
X16152236Y-14922870D01*
X16171283Y-14932394D01*
X16247474Y-15132394D02*
X16256998Y-15122870D01*
X16276045Y-15094298D01*
X16285569Y-15075251D01*
X16295093Y-15046679D01*
X16304617Y-14999060D01*
X16304617Y-14960965D01*
X16295093Y-14913346D01*
X16285569Y-14884775D01*
X16276045Y-14865727D01*
X16256998Y-14837155D01*
X16247474Y-14827632D01*
D13*
X11285093Y-15229727D02*
G75*
G03*
X11285093Y-15229727I-25400J0D01*
G01*
D11*
X11580807Y-15120203D02*
X11599855Y-15120203D01*
X11618902Y-15129727D01*
X11628426Y-15139251D01*
X11637950Y-15158298D01*
X11647474Y-15196394D01*
X11647474Y-15244013D01*
X11637950Y-15282108D01*
X11628426Y-15301155D01*
X11618902Y-15310679D01*
X11599855Y-15320203D01*
X11580807Y-15320203D01*
X11561760Y-15310679D01*
X11552236Y-15301155D01*
X11542712Y-15282108D01*
X11533188Y-15244013D01*
X11533188Y-15196394D01*
X11542712Y-15158298D01*
X11552236Y-15139251D01*
X11561760Y-15129727D01*
X11580807Y-15120203D01*
X11733188Y-15301155D02*
X11742712Y-15310679D01*
X11733188Y-15320203D01*
X11723664Y-15310679D01*
X11733188Y-15301155D01*
X11733188Y-15320203D01*
X11923664Y-15120203D02*
X11828426Y-15120203D01*
X11818902Y-15215441D01*
X11828426Y-15205917D01*
X11847474Y-15196394D01*
X11895093Y-15196394D01*
X11914141Y-15205917D01*
X11923664Y-15215441D01*
X11933188Y-15234489D01*
X11933188Y-15282108D01*
X11923664Y-15301155D01*
X11914141Y-15310679D01*
X11895093Y-15320203D01*
X11847474Y-15320203D01*
X11828426Y-15310679D01*
X11818902Y-15301155D01*
X12056998Y-15120203D02*
X12076045Y-15120203D01*
X12095093Y-15129727D01*
X12104617Y-15139251D01*
X12114141Y-15158298D01*
X12123664Y-15196394D01*
X12123664Y-15244013D01*
X12114141Y-15282108D01*
X12104617Y-15301155D01*
X12095093Y-15310679D01*
X12076045Y-15320203D01*
X12056998Y-15320203D01*
X12037950Y-15310679D01*
X12028426Y-15301155D01*
X12018902Y-15282108D01*
X12009379Y-15244013D01*
X12009379Y-15196394D01*
X12018902Y-15158298D01*
X12028426Y-15139251D01*
X12037950Y-15129727D01*
X12056998Y-15120203D01*
X12237950Y-15205917D02*
X12218902Y-15196394D01*
X12209379Y-15186870D01*
X12199855Y-15167822D01*
X12199855Y-15158298D01*
X12209379Y-15139251D01*
X12218902Y-15129727D01*
X12237950Y-15120203D01*
X12276045Y-15120203D01*
X12295093Y-15129727D01*
X12304617Y-15139251D01*
X12314141Y-15158298D01*
X12314141Y-15167822D01*
X12304617Y-15186870D01*
X12295093Y-15196394D01*
X12276045Y-15205917D01*
X12237950Y-15205917D01*
X12218902Y-15215441D01*
X12209379Y-15224965D01*
X12199855Y-15244013D01*
X12199855Y-15282108D01*
X12209379Y-15301155D01*
X12218902Y-15310679D01*
X12237950Y-15320203D01*
X12276045Y-15320203D01*
X12295093Y-15310679D01*
X12304617Y-15301155D01*
X12314141Y-15282108D01*
X12314141Y-15244013D01*
X12304617Y-15224965D01*
X12295093Y-15215441D01*
X12276045Y-15205917D01*
X12399855Y-15320203D02*
X12399855Y-15186870D01*
X12399855Y-15205917D02*
X12409379Y-15196394D01*
X12428426Y-15186870D01*
X12456998Y-15186870D01*
X12476045Y-15196394D01*
X12485569Y-15215441D01*
X12485569Y-15320203D01*
X12485569Y-15215441D02*
X12495093Y-15196394D01*
X12514141Y-15186870D01*
X12542712Y-15186870D01*
X12561760Y-15196394D01*
X12571283Y-15215441D01*
X12571283Y-15320203D01*
X12666521Y-15320203D02*
X12666521Y-15186870D01*
X12666521Y-15205917D02*
X12676045Y-15196394D01*
X12695093Y-15186870D01*
X12723664Y-15186870D01*
X12742712Y-15196394D01*
X12752236Y-15215441D01*
X12752236Y-15320203D01*
X12752236Y-15215441D02*
X12761760Y-15196394D01*
X12780807Y-15186870D01*
X12809379Y-15186870D01*
X12828426Y-15196394D01*
X12837950Y-15215441D01*
X12837950Y-15320203D01*
X13228426Y-15110679D02*
X13056998Y-15367822D01*
X13485569Y-15120203D02*
X13504617Y-15120203D01*
X13523664Y-15129727D01*
X13533188Y-15139251D01*
X13542712Y-15158298D01*
X13552236Y-15196394D01*
X13552236Y-15244013D01*
X13542712Y-15282108D01*
X13533188Y-15301155D01*
X13523664Y-15310679D01*
X13504617Y-15320203D01*
X13485569Y-15320203D01*
X13466521Y-15310679D01*
X13456998Y-15301155D01*
X13447474Y-15282108D01*
X13437950Y-15244013D01*
X13437950Y-15196394D01*
X13447474Y-15158298D01*
X13456998Y-15139251D01*
X13466521Y-15129727D01*
X13485569Y-15120203D01*
X13637950Y-15301155D02*
X13647474Y-15310679D01*
X13637950Y-15320203D01*
X13628426Y-15310679D01*
X13637950Y-15301155D01*
X13637950Y-15320203D01*
X13771283Y-15120203D02*
X13790331Y-15120203D01*
X13809379Y-15129727D01*
X13818902Y-15139251D01*
X13828426Y-15158298D01*
X13837950Y-15196394D01*
X13837950Y-15244013D01*
X13828426Y-15282108D01*
X13818902Y-15301155D01*
X13809379Y-15310679D01*
X13790331Y-15320203D01*
X13771283Y-15320203D01*
X13752236Y-15310679D01*
X13742712Y-15301155D01*
X13733188Y-15282108D01*
X13723664Y-15244013D01*
X13723664Y-15196394D01*
X13733188Y-15158298D01*
X13742712Y-15139251D01*
X13752236Y-15129727D01*
X13771283Y-15120203D01*
X13914141Y-15139251D02*
X13923664Y-15129727D01*
X13942712Y-15120203D01*
X13990331Y-15120203D01*
X14009379Y-15129727D01*
X14018902Y-15139251D01*
X14028426Y-15158298D01*
X14028426Y-15177346D01*
X14018902Y-15205917D01*
X13904617Y-15320203D01*
X14028426Y-15320203D01*
X14152236Y-15120203D02*
X14171283Y-15120203D01*
X14190331Y-15129727D01*
X14199855Y-15139251D01*
X14209379Y-15158298D01*
X14218902Y-15196394D01*
X14218902Y-15244013D01*
X14209379Y-15282108D01*
X14199855Y-15301155D01*
X14190331Y-15310679D01*
X14171283Y-15320203D01*
X14152236Y-15320203D01*
X14133188Y-15310679D01*
X14123664Y-15301155D01*
X14114141Y-15282108D01*
X14104617Y-15244013D01*
X14104617Y-15196394D01*
X14114141Y-15158298D01*
X14123664Y-15139251D01*
X14133188Y-15129727D01*
X14152236Y-15120203D01*
X14342712Y-15120203D02*
X14361760Y-15120203D01*
X14380807Y-15129727D01*
X14390331Y-15139251D01*
X14399855Y-15158298D01*
X14409379Y-15196394D01*
X14409379Y-15244013D01*
X14399855Y-15282108D01*
X14390331Y-15301155D01*
X14380807Y-15310679D01*
X14361760Y-15320203D01*
X14342712Y-15320203D01*
X14323664Y-15310679D01*
X14314141Y-15301155D01*
X14304617Y-15282108D01*
X14295093Y-15244013D01*
X14295093Y-15196394D01*
X14304617Y-15158298D01*
X14314141Y-15139251D01*
X14323664Y-15129727D01*
X14342712Y-15120203D01*
X14485569Y-15120203D02*
X14485569Y-15158298D01*
X14561760Y-15120203D02*
X14561760Y-15158298D01*
X14856998Y-15396394D02*
X14847474Y-15386870D01*
X14828426Y-15358298D01*
X14818902Y-15339251D01*
X14809379Y-15310679D01*
X14799855Y-15263060D01*
X14799855Y-15224965D01*
X14809379Y-15177346D01*
X14818902Y-15148775D01*
X14828426Y-15129727D01*
X14847474Y-15101155D01*
X14856998Y-15091632D01*
X15018902Y-15186870D02*
X15018902Y-15320203D01*
X14971283Y-15110679D02*
X14923664Y-15253536D01*
X15047474Y-15253536D01*
X15276045Y-15320203D02*
X15276045Y-15120203D01*
X15361760Y-15320203D02*
X15361760Y-15215441D01*
X15352236Y-15196394D01*
X15333188Y-15186870D01*
X15304617Y-15186870D01*
X15285569Y-15196394D01*
X15276045Y-15205917D01*
X15485569Y-15320203D02*
X15466521Y-15310679D01*
X15456998Y-15301155D01*
X15447474Y-15282108D01*
X15447474Y-15224965D01*
X15456998Y-15205917D01*
X15466521Y-15196394D01*
X15485569Y-15186870D01*
X15514141Y-15186870D01*
X15533188Y-15196394D01*
X15542712Y-15205917D01*
X15552236Y-15224965D01*
X15552236Y-15282108D01*
X15542712Y-15301155D01*
X15533188Y-15310679D01*
X15514141Y-15320203D01*
X15485569Y-15320203D01*
X15666521Y-15320203D02*
X15647474Y-15310679D01*
X15637950Y-15291632D01*
X15637950Y-15120203D01*
X15818902Y-15310679D02*
X15799855Y-15320203D01*
X15761760Y-15320203D01*
X15742712Y-15310679D01*
X15733188Y-15291632D01*
X15733188Y-15215441D01*
X15742712Y-15196394D01*
X15761760Y-15186870D01*
X15799855Y-15186870D01*
X15818902Y-15196394D01*
X15828426Y-15215441D01*
X15828426Y-15234489D01*
X15733188Y-15253536D01*
X15904617Y-15310679D02*
X15923664Y-15320203D01*
X15961760Y-15320203D01*
X15980807Y-15310679D01*
X15990331Y-15291632D01*
X15990331Y-15282108D01*
X15980807Y-15263060D01*
X15961760Y-15253536D01*
X15933188Y-15253536D01*
X15914141Y-15244013D01*
X15904617Y-15224965D01*
X15904617Y-15215441D01*
X15914141Y-15196394D01*
X15933188Y-15186870D01*
X15961760Y-15186870D01*
X15980807Y-15196394D01*
X16056998Y-15396394D02*
X16066521Y-15386870D01*
X16085569Y-15358298D01*
X16095093Y-15339251D01*
X16104617Y-15310679D01*
X16114141Y-15263060D01*
X16114141Y-15224965D01*
X16104617Y-15177346D01*
X16095093Y-15148775D01*
X16085569Y-15129727D01*
X16066521Y-15101155D01*
X16056998Y-15091632D01*
D14*
X11235093Y-15443727D02*
X11235093Y-15543727D01*
X11185093Y-15493727D02*
X11285093Y-15493727D01*
D11*
X11647474Y-15584203D02*
X11533188Y-15584203D01*
X11590331Y-15584203D02*
X11590331Y-15384203D01*
X11571283Y-15412775D01*
X11552236Y-15431822D01*
X11533188Y-15441346D01*
X11733188Y-15565155D02*
X11742712Y-15574679D01*
X11733188Y-15584203D01*
X11723664Y-15574679D01*
X11733188Y-15565155D01*
X11733188Y-15584203D01*
X11866521Y-15384203D02*
X11885569Y-15384203D01*
X11904617Y-15393727D01*
X11914141Y-15403251D01*
X11923664Y-15422298D01*
X11933188Y-15460394D01*
X11933188Y-15508013D01*
X11923664Y-15546108D01*
X11914141Y-15565155D01*
X11904617Y-15574679D01*
X11885569Y-15584203D01*
X11866521Y-15584203D01*
X11847474Y-15574679D01*
X11837950Y-15565155D01*
X11828426Y-15546108D01*
X11818902Y-15508013D01*
X11818902Y-15460394D01*
X11828426Y-15422298D01*
X11837950Y-15403251D01*
X11847474Y-15393727D01*
X11866521Y-15384203D01*
X12056998Y-15384203D02*
X12076045Y-15384203D01*
X12095093Y-15393727D01*
X12104617Y-15403251D01*
X12114141Y-15422298D01*
X12123664Y-15460394D01*
X12123664Y-15508013D01*
X12114141Y-15546108D01*
X12104617Y-15565155D01*
X12095093Y-15574679D01*
X12076045Y-15584203D01*
X12056998Y-15584203D01*
X12037950Y-15574679D01*
X12028426Y-15565155D01*
X12018902Y-15546108D01*
X12009379Y-15508013D01*
X12009379Y-15460394D01*
X12018902Y-15422298D01*
X12028426Y-15403251D01*
X12037950Y-15393727D01*
X12056998Y-15384203D01*
X12247474Y-15384203D02*
X12266521Y-15384203D01*
X12285569Y-15393727D01*
X12295093Y-15403251D01*
X12304617Y-15422298D01*
X12314141Y-15460394D01*
X12314141Y-15508013D01*
X12304617Y-15546108D01*
X12295093Y-15565155D01*
X12285569Y-15574679D01*
X12266521Y-15584203D01*
X12247474Y-15584203D01*
X12228426Y-15574679D01*
X12218902Y-15565155D01*
X12209379Y-15546108D01*
X12199855Y-15508013D01*
X12199855Y-15460394D01*
X12209379Y-15422298D01*
X12218902Y-15403251D01*
X12228426Y-15393727D01*
X12247474Y-15384203D01*
X12399855Y-15584203D02*
X12399855Y-15450870D01*
X12399855Y-15469917D02*
X12409379Y-15460394D01*
X12428426Y-15450870D01*
X12456998Y-15450870D01*
X12476045Y-15460394D01*
X12485569Y-15479441D01*
X12485569Y-15584203D01*
X12485569Y-15479441D02*
X12495093Y-15460394D01*
X12514141Y-15450870D01*
X12542712Y-15450870D01*
X12561760Y-15460394D01*
X12571283Y-15479441D01*
X12571283Y-15584203D01*
X12666521Y-15584203D02*
X12666521Y-15450870D01*
X12666521Y-15469917D02*
X12676045Y-15460394D01*
X12695093Y-15450870D01*
X12723664Y-15450870D01*
X12742712Y-15460394D01*
X12752236Y-15479441D01*
X12752236Y-15584203D01*
X12752236Y-15479441D02*
X12761760Y-15460394D01*
X12780807Y-15450870D01*
X12809379Y-15450870D01*
X12828426Y-15460394D01*
X12837950Y-15479441D01*
X12837950Y-15584203D01*
X13228426Y-15374679D02*
X13056998Y-15631822D01*
X13485569Y-15384203D02*
X13504617Y-15384203D01*
X13523664Y-15393727D01*
X13533188Y-15403251D01*
X13542712Y-15422298D01*
X13552236Y-15460394D01*
X13552236Y-15508013D01*
X13542712Y-15546108D01*
X13533188Y-15565155D01*
X13523664Y-15574679D01*
X13504617Y-15584203D01*
X13485569Y-15584203D01*
X13466521Y-15574679D01*
X13456998Y-15565155D01*
X13447474Y-15546108D01*
X13437950Y-15508013D01*
X13437950Y-15460394D01*
X13447474Y-15422298D01*
X13456998Y-15403251D01*
X13466521Y-15393727D01*
X13485569Y-15384203D01*
X13637950Y-15565155D02*
X13647474Y-15574679D01*
X13637950Y-15584203D01*
X13628426Y-15574679D01*
X13637950Y-15565155D01*
X13637950Y-15584203D01*
X13771283Y-15384203D02*
X13790331Y-15384203D01*
X13809379Y-15393727D01*
X13818902Y-15403251D01*
X13828426Y-15422298D01*
X13837950Y-15460394D01*
X13837950Y-15508013D01*
X13828426Y-15546108D01*
X13818902Y-15565155D01*
X13809379Y-15574679D01*
X13790331Y-15584203D01*
X13771283Y-15584203D01*
X13752236Y-15574679D01*
X13742712Y-15565155D01*
X13733188Y-15546108D01*
X13723664Y-15508013D01*
X13723664Y-15460394D01*
X13733188Y-15422298D01*
X13742712Y-15403251D01*
X13752236Y-15393727D01*
X13771283Y-15384203D01*
X13904617Y-15384203D02*
X14028426Y-15384203D01*
X13961760Y-15460394D01*
X13990331Y-15460394D01*
X14009379Y-15469917D01*
X14018902Y-15479441D01*
X14028426Y-15498489D01*
X14028426Y-15546108D01*
X14018902Y-15565155D01*
X14009379Y-15574679D01*
X13990331Y-15584203D01*
X13933188Y-15584203D01*
X13914141Y-15574679D01*
X13904617Y-15565155D01*
X14123664Y-15584203D02*
X14161760Y-15584203D01*
X14180807Y-15574679D01*
X14190331Y-15565155D01*
X14209379Y-15536584D01*
X14218902Y-15498489D01*
X14218902Y-15422298D01*
X14209379Y-15403251D01*
X14199855Y-15393727D01*
X14180807Y-15384203D01*
X14142712Y-15384203D01*
X14123664Y-15393727D01*
X14114141Y-15403251D01*
X14104617Y-15422298D01*
X14104617Y-15469917D01*
X14114141Y-15488965D01*
X14123664Y-15498489D01*
X14142712Y-15508013D01*
X14180807Y-15508013D01*
X14199855Y-15498489D01*
X14209379Y-15488965D01*
X14218902Y-15469917D01*
X14390331Y-15450870D02*
X14390331Y-15584203D01*
X14342712Y-15374679D02*
X14295093Y-15517536D01*
X14418902Y-15517536D01*
X14485569Y-15384203D02*
X14485569Y-15422298D01*
X14561760Y-15384203D02*
X14561760Y-15422298D01*
X14856998Y-15660394D02*
X14847474Y-15650870D01*
X14828426Y-15622298D01*
X14818902Y-15603251D01*
X14809379Y-15574679D01*
X14799855Y-15527060D01*
X14799855Y-15488965D01*
X14809379Y-15441346D01*
X14818902Y-15412775D01*
X14828426Y-15393727D01*
X14847474Y-15365155D01*
X14856998Y-15355632D01*
X15018902Y-15384203D02*
X14980807Y-15384203D01*
X14961760Y-15393727D01*
X14952236Y-15403251D01*
X14933188Y-15431822D01*
X14923664Y-15469917D01*
X14923664Y-15546108D01*
X14933188Y-15565155D01*
X14942712Y-15574679D01*
X14961760Y-15584203D01*
X14999855Y-15584203D01*
X15018902Y-15574679D01*
X15028426Y-15565155D01*
X15037950Y-15546108D01*
X15037950Y-15498489D01*
X15028426Y-15479441D01*
X15018902Y-15469917D01*
X14999855Y-15460394D01*
X14961760Y-15460394D01*
X14942712Y-15469917D01*
X14933188Y-15479441D01*
X14923664Y-15498489D01*
X15152236Y-15469917D02*
X15133188Y-15460394D01*
X15123664Y-15450870D01*
X15114141Y-15431822D01*
X15114141Y-15422298D01*
X15123664Y-15403251D01*
X15133188Y-15393727D01*
X15152236Y-15384203D01*
X15190331Y-15384203D01*
X15209379Y-15393727D01*
X15218902Y-15403251D01*
X15228426Y-15422298D01*
X15228426Y-15431822D01*
X15218902Y-15450870D01*
X15209379Y-15460394D01*
X15190331Y-15469917D01*
X15152236Y-15469917D01*
X15133188Y-15479441D01*
X15123664Y-15488965D01*
X15114141Y-15508013D01*
X15114141Y-15546108D01*
X15123664Y-15565155D01*
X15133188Y-15574679D01*
X15152236Y-15584203D01*
X15190331Y-15584203D01*
X15209379Y-15574679D01*
X15218902Y-15565155D01*
X15228426Y-15546108D01*
X15228426Y-15508013D01*
X15218902Y-15488965D01*
X15209379Y-15479441D01*
X15190331Y-15469917D01*
X15466521Y-15584203D02*
X15466521Y-15384203D01*
X15552236Y-15584203D02*
X15552236Y-15479441D01*
X15542712Y-15460394D01*
X15523664Y-15450870D01*
X15495093Y-15450870D01*
X15476045Y-15460394D01*
X15466521Y-15469917D01*
X15676045Y-15584203D02*
X15656998Y-15574679D01*
X15647474Y-15565155D01*
X15637950Y-15546108D01*
X15637950Y-15488965D01*
X15647474Y-15469917D01*
X15656998Y-15460394D01*
X15676045Y-15450870D01*
X15704617Y-15450870D01*
X15723664Y-15460394D01*
X15733188Y-15469917D01*
X15742712Y-15488965D01*
X15742712Y-15546108D01*
X15733188Y-15565155D01*
X15723664Y-15574679D01*
X15704617Y-15584203D01*
X15676045Y-15584203D01*
X15856998Y-15584203D02*
X15837950Y-15574679D01*
X15828426Y-15555632D01*
X15828426Y-15384203D01*
X16009379Y-15574679D02*
X15990331Y-15584203D01*
X15952236Y-15584203D01*
X15933188Y-15574679D01*
X15923664Y-15555632D01*
X15923664Y-15479441D01*
X15933188Y-15460394D01*
X15952236Y-15450870D01*
X15990331Y-15450870D01*
X16009379Y-15460394D01*
X16018902Y-15479441D01*
X16018902Y-15498489D01*
X15923664Y-15517536D01*
X16095093Y-15574679D02*
X16114141Y-15584203D01*
X16152236Y-15584203D01*
X16171283Y-15574679D01*
X16180807Y-15555632D01*
X16180807Y-15546108D01*
X16171283Y-15527060D01*
X16152236Y-15517536D01*
X16123664Y-15517536D01*
X16104617Y-15508013D01*
X16095093Y-15488965D01*
X16095093Y-15479441D01*
X16104617Y-15460394D01*
X16123664Y-15450870D01*
X16152236Y-15450870D01*
X16171283Y-15460394D01*
X16247474Y-15660394D02*
X16256998Y-15650870D01*
X16276045Y-15622298D01*
X16285569Y-15603251D01*
X16295093Y-15574679D01*
X16304617Y-15527060D01*
X16304617Y-15488965D01*
X16295093Y-15441346D01*
X16285569Y-15412775D01*
X16276045Y-15393727D01*
X16256998Y-15365155D01*
X16247474Y-15355632D01*
D15*
X11270214Y-15793648D02*
X11270214Y-15721806D01*
X11198372Y-15721806D01*
X11198372Y-15793648D01*
X11270214Y-15793648D01*
D11*
X11647474Y-15848203D02*
X11533188Y-15848203D01*
X11590331Y-15848203D02*
X11590331Y-15648203D01*
X11571283Y-15676775D01*
X11552236Y-15695822D01*
X11533188Y-15705346D01*
X11733188Y-15829155D02*
X11742712Y-15838679D01*
X11733188Y-15848203D01*
X11723664Y-15838679D01*
X11733188Y-15829155D01*
X11733188Y-15848203D01*
X11866521Y-15648203D02*
X11885569Y-15648203D01*
X11904617Y-15657727D01*
X11914141Y-15667251D01*
X11923664Y-15686298D01*
X11933188Y-15724394D01*
X11933188Y-15772013D01*
X11923664Y-15810108D01*
X11914141Y-15829155D01*
X11904617Y-15838679D01*
X11885569Y-15848203D01*
X11866521Y-15848203D01*
X11847474Y-15838679D01*
X11837950Y-15829155D01*
X11828426Y-15810108D01*
X11818902Y-15772013D01*
X11818902Y-15724394D01*
X11828426Y-15686298D01*
X11837950Y-15667251D01*
X11847474Y-15657727D01*
X11866521Y-15648203D01*
X12123664Y-15848203D02*
X12009379Y-15848203D01*
X12066521Y-15848203D02*
X12066521Y-15648203D01*
X12047474Y-15676775D01*
X12028426Y-15695822D01*
X12009379Y-15705346D01*
X12295093Y-15648203D02*
X12256998Y-15648203D01*
X12237950Y-15657727D01*
X12228426Y-15667251D01*
X12209379Y-15695822D01*
X12199855Y-15733917D01*
X12199855Y-15810108D01*
X12209379Y-15829155D01*
X12218902Y-15838679D01*
X12237950Y-15848203D01*
X12276045Y-15848203D01*
X12295093Y-15838679D01*
X12304617Y-15829155D01*
X12314141Y-15810108D01*
X12314141Y-15762489D01*
X12304617Y-15743441D01*
X12295093Y-15733917D01*
X12276045Y-15724394D01*
X12237950Y-15724394D01*
X12218902Y-15733917D01*
X12209379Y-15743441D01*
X12199855Y-15762489D01*
X12399855Y-15848203D02*
X12399855Y-15714870D01*
X12399855Y-15733917D02*
X12409379Y-15724394D01*
X12428426Y-15714870D01*
X12456998Y-15714870D01*
X12476045Y-15724394D01*
X12485569Y-15743441D01*
X12485569Y-15848203D01*
X12485569Y-15743441D02*
X12495093Y-15724394D01*
X12514141Y-15714870D01*
X12542712Y-15714870D01*
X12561760Y-15724394D01*
X12571283Y-15743441D01*
X12571283Y-15848203D01*
X12666521Y-15848203D02*
X12666521Y-15714870D01*
X12666521Y-15733917D02*
X12676045Y-15724394D01*
X12695093Y-15714870D01*
X12723664Y-15714870D01*
X12742712Y-15724394D01*
X12752236Y-15743441D01*
X12752236Y-15848203D01*
X12752236Y-15743441D02*
X12761760Y-15724394D01*
X12780807Y-15714870D01*
X12809379Y-15714870D01*
X12828426Y-15724394D01*
X12837950Y-15743441D01*
X12837950Y-15848203D01*
X13228426Y-15638679D02*
X13056998Y-15895822D01*
X13485569Y-15648203D02*
X13504617Y-15648203D01*
X13523664Y-15657727D01*
X13533188Y-15667251D01*
X13542712Y-15686298D01*
X13552236Y-15724394D01*
X13552236Y-15772013D01*
X13542712Y-15810108D01*
X13533188Y-15829155D01*
X13523664Y-15838679D01*
X13504617Y-15848203D01*
X13485569Y-15848203D01*
X13466521Y-15838679D01*
X13456998Y-15829155D01*
X13447474Y-15810108D01*
X13437950Y-15772013D01*
X13437950Y-15724394D01*
X13447474Y-15686298D01*
X13456998Y-15667251D01*
X13466521Y-15657727D01*
X13485569Y-15648203D01*
X13637950Y-15829155D02*
X13647474Y-15838679D01*
X13637950Y-15848203D01*
X13628426Y-15838679D01*
X13637950Y-15829155D01*
X13637950Y-15848203D01*
X13771283Y-15648203D02*
X13790331Y-15648203D01*
X13809379Y-15657727D01*
X13818902Y-15667251D01*
X13828426Y-15686298D01*
X13837950Y-15724394D01*
X13837950Y-15772013D01*
X13828426Y-15810108D01*
X13818902Y-15829155D01*
X13809379Y-15838679D01*
X13790331Y-15848203D01*
X13771283Y-15848203D01*
X13752236Y-15838679D01*
X13742712Y-15829155D01*
X13733188Y-15810108D01*
X13723664Y-15772013D01*
X13723664Y-15724394D01*
X13733188Y-15686298D01*
X13742712Y-15667251D01*
X13752236Y-15657727D01*
X13771283Y-15648203D01*
X14009379Y-15714870D02*
X14009379Y-15848203D01*
X13961760Y-15638679D02*
X13914141Y-15781536D01*
X14037950Y-15781536D01*
X14152236Y-15648203D02*
X14171283Y-15648203D01*
X14190331Y-15657727D01*
X14199855Y-15667251D01*
X14209379Y-15686298D01*
X14218902Y-15724394D01*
X14218902Y-15772013D01*
X14209379Y-15810108D01*
X14199855Y-15829155D01*
X14190331Y-15838679D01*
X14171283Y-15848203D01*
X14152236Y-15848203D01*
X14133188Y-15838679D01*
X14123664Y-15829155D01*
X14114141Y-15810108D01*
X14104617Y-15772013D01*
X14104617Y-15724394D01*
X14114141Y-15686298D01*
X14123664Y-15667251D01*
X14133188Y-15657727D01*
X14152236Y-15648203D01*
X14342712Y-15648203D02*
X14361760Y-15648203D01*
X14380807Y-15657727D01*
X14390331Y-15667251D01*
X14399855Y-15686298D01*
X14409379Y-15724394D01*
X14409379Y-15772013D01*
X14399855Y-15810108D01*
X14390331Y-15829155D01*
X14380807Y-15838679D01*
X14361760Y-15848203D01*
X14342712Y-15848203D01*
X14323664Y-15838679D01*
X14314141Y-15829155D01*
X14304617Y-15810108D01*
X14295093Y-15772013D01*
X14295093Y-15724394D01*
X14304617Y-15686298D01*
X14314141Y-15667251D01*
X14323664Y-15657727D01*
X14342712Y-15648203D01*
X14485569Y-15648203D02*
X14485569Y-15686298D01*
X14561760Y-15648203D02*
X14561760Y-15686298D01*
X14856998Y-15924394D02*
X14847474Y-15914870D01*
X14828426Y-15886298D01*
X14818902Y-15867251D01*
X14809379Y-15838679D01*
X14799855Y-15791060D01*
X14799855Y-15752965D01*
X14809379Y-15705346D01*
X14818902Y-15676775D01*
X14828426Y-15657727D01*
X14847474Y-15629155D01*
X14856998Y-15619632D01*
X15018902Y-15648203D02*
X14980807Y-15648203D01*
X14961760Y-15657727D01*
X14952236Y-15667251D01*
X14933188Y-15695822D01*
X14923664Y-15733917D01*
X14923664Y-15810108D01*
X14933188Y-15829155D01*
X14942712Y-15838679D01*
X14961760Y-15848203D01*
X14999855Y-15848203D01*
X15018902Y-15838679D01*
X15028426Y-15829155D01*
X15037950Y-15810108D01*
X15037950Y-15762489D01*
X15028426Y-15743441D01*
X15018902Y-15733917D01*
X14999855Y-15724394D01*
X14961760Y-15724394D01*
X14942712Y-15733917D01*
X14933188Y-15743441D01*
X14923664Y-15762489D01*
X15228426Y-15848203D02*
X15114141Y-15848203D01*
X15171283Y-15848203D02*
X15171283Y-15648203D01*
X15152236Y-15676775D01*
X15133188Y-15695822D01*
X15114141Y-15705346D01*
X15466521Y-15848203D02*
X15466521Y-15648203D01*
X15552236Y-15848203D02*
X15552236Y-15743441D01*
X15542712Y-15724394D01*
X15523664Y-15714870D01*
X15495093Y-15714870D01*
X15476045Y-15724394D01*
X15466521Y-15733917D01*
X15676045Y-15848203D02*
X15656998Y-15838679D01*
X15647474Y-15829155D01*
X15637950Y-15810108D01*
X15637950Y-15752965D01*
X15647474Y-15733917D01*
X15656998Y-15724394D01*
X15676045Y-15714870D01*
X15704617Y-15714870D01*
X15723664Y-15724394D01*
X15733188Y-15733917D01*
X15742712Y-15752965D01*
X15742712Y-15810108D01*
X15733188Y-15829155D01*
X15723664Y-15838679D01*
X15704617Y-15848203D01*
X15676045Y-15848203D01*
X15856998Y-15848203D02*
X15837950Y-15838679D01*
X15828426Y-15819632D01*
X15828426Y-15648203D01*
X16009379Y-15838679D02*
X15990331Y-15848203D01*
X15952236Y-15848203D01*
X15933188Y-15838679D01*
X15923664Y-15819632D01*
X15923664Y-15743441D01*
X15933188Y-15724394D01*
X15952236Y-15714870D01*
X15990331Y-15714870D01*
X16009379Y-15724394D01*
X16018902Y-15743441D01*
X16018902Y-15762489D01*
X15923664Y-15781536D01*
X16095093Y-15838679D02*
X16114141Y-15848203D01*
X16152236Y-15848203D01*
X16171283Y-15838679D01*
X16180807Y-15819632D01*
X16180807Y-15810108D01*
X16171283Y-15791060D01*
X16152236Y-15781536D01*
X16123664Y-15781536D01*
X16104617Y-15772013D01*
X16095093Y-15752965D01*
X16095093Y-15743441D01*
X16104617Y-15724394D01*
X16123664Y-15714870D01*
X16152236Y-15714870D01*
X16171283Y-15724394D01*
X16247474Y-15924394D02*
X16256998Y-15914870D01*
X16276045Y-15886298D01*
X16285569Y-15867251D01*
X16295093Y-15838679D01*
X16304617Y-15791060D01*
X16304617Y-15752965D01*
X16295093Y-15705346D01*
X16285569Y-15676775D01*
X16276045Y-15657727D01*
X16256998Y-15629155D01*
X16247474Y-15619632D01*
D15*
X11234293Y-16072527D02*
X11285093Y-16021727D01*
X11234293Y-15970927D01*
X11183493Y-16021727D01*
X11234293Y-16072527D01*
D11*
X11647474Y-16112203D02*
X11533188Y-16112203D01*
X11590331Y-16112203D02*
X11590331Y-15912203D01*
X11571283Y-15940775D01*
X11552236Y-15959822D01*
X11533188Y-15969346D01*
X11733188Y-16093155D02*
X11742712Y-16102679D01*
X11733188Y-16112203D01*
X11723664Y-16102679D01*
X11733188Y-16093155D01*
X11733188Y-16112203D01*
X11866521Y-15912203D02*
X11885569Y-15912203D01*
X11904617Y-15921727D01*
X11914141Y-15931251D01*
X11923664Y-15950298D01*
X11933188Y-15988394D01*
X11933188Y-16036013D01*
X11923664Y-16074108D01*
X11914141Y-16093155D01*
X11904617Y-16102679D01*
X11885569Y-16112203D01*
X11866521Y-16112203D01*
X11847474Y-16102679D01*
X11837950Y-16093155D01*
X11828426Y-16074108D01*
X11818902Y-16036013D01*
X11818902Y-15988394D01*
X11828426Y-15950298D01*
X11837950Y-15931251D01*
X11847474Y-15921727D01*
X11866521Y-15912203D01*
X12123664Y-16112203D02*
X12009379Y-16112203D01*
X12066521Y-16112203D02*
X12066521Y-15912203D01*
X12047474Y-15940775D01*
X12028426Y-15959822D01*
X12009379Y-15969346D01*
X12295093Y-15912203D02*
X12256998Y-15912203D01*
X12237950Y-15921727D01*
X12228426Y-15931251D01*
X12209379Y-15959822D01*
X12199855Y-15997917D01*
X12199855Y-16074108D01*
X12209379Y-16093155D01*
X12218902Y-16102679D01*
X12237950Y-16112203D01*
X12276045Y-16112203D01*
X12295093Y-16102679D01*
X12304617Y-16093155D01*
X12314141Y-16074108D01*
X12314141Y-16026489D01*
X12304617Y-16007441D01*
X12295093Y-15997917D01*
X12276045Y-15988394D01*
X12237950Y-15988394D01*
X12218902Y-15997917D01*
X12209379Y-16007441D01*
X12199855Y-16026489D01*
X12399855Y-16112203D02*
X12399855Y-15978870D01*
X12399855Y-15997917D02*
X12409379Y-15988394D01*
X12428426Y-15978870D01*
X12456998Y-15978870D01*
X12476045Y-15988394D01*
X12485569Y-16007441D01*
X12485569Y-16112203D01*
X12485569Y-16007441D02*
X12495093Y-15988394D01*
X12514141Y-15978870D01*
X12542712Y-15978870D01*
X12561760Y-15988394D01*
X12571283Y-16007441D01*
X12571283Y-16112203D01*
X12666521Y-16112203D02*
X12666521Y-15978870D01*
X12666521Y-15997917D02*
X12676045Y-15988394D01*
X12695093Y-15978870D01*
X12723664Y-15978870D01*
X12742712Y-15988394D01*
X12752236Y-16007441D01*
X12752236Y-16112203D01*
X12752236Y-16007441D02*
X12761760Y-15988394D01*
X12780807Y-15978870D01*
X12809379Y-15978870D01*
X12828426Y-15988394D01*
X12837950Y-16007441D01*
X12837950Y-16112203D01*
X13228426Y-15902679D02*
X13056998Y-16159822D01*
X13485569Y-15912203D02*
X13504617Y-15912203D01*
X13523664Y-15921727D01*
X13533188Y-15931251D01*
X13542712Y-15950298D01*
X13552236Y-15988394D01*
X13552236Y-16036013D01*
X13542712Y-16074108D01*
X13533188Y-16093155D01*
X13523664Y-16102679D01*
X13504617Y-16112203D01*
X13485569Y-16112203D01*
X13466521Y-16102679D01*
X13456998Y-16093155D01*
X13447474Y-16074108D01*
X13437950Y-16036013D01*
X13437950Y-15988394D01*
X13447474Y-15950298D01*
X13456998Y-15931251D01*
X13466521Y-15921727D01*
X13485569Y-15912203D01*
X13637950Y-16093155D02*
X13647474Y-16102679D01*
X13637950Y-16112203D01*
X13628426Y-16102679D01*
X13637950Y-16093155D01*
X13637950Y-16112203D01*
X13771283Y-15912203D02*
X13790331Y-15912203D01*
X13809379Y-15921727D01*
X13818902Y-15931251D01*
X13828426Y-15950298D01*
X13837950Y-15988394D01*
X13837950Y-16036013D01*
X13828426Y-16074108D01*
X13818902Y-16093155D01*
X13809379Y-16102679D01*
X13790331Y-16112203D01*
X13771283Y-16112203D01*
X13752236Y-16102679D01*
X13742712Y-16093155D01*
X13733188Y-16074108D01*
X13723664Y-16036013D01*
X13723664Y-15988394D01*
X13733188Y-15950298D01*
X13742712Y-15931251D01*
X13752236Y-15921727D01*
X13771283Y-15912203D01*
X14009379Y-15978870D02*
X14009379Y-16112203D01*
X13961760Y-15902679D02*
X13914141Y-16045536D01*
X14037950Y-16045536D01*
X14152236Y-15912203D02*
X14171283Y-15912203D01*
X14190331Y-15921727D01*
X14199855Y-15931251D01*
X14209379Y-15950298D01*
X14218902Y-15988394D01*
X14218902Y-16036013D01*
X14209379Y-16074108D01*
X14199855Y-16093155D01*
X14190331Y-16102679D01*
X14171283Y-16112203D01*
X14152236Y-16112203D01*
X14133188Y-16102679D01*
X14123664Y-16093155D01*
X14114141Y-16074108D01*
X14104617Y-16036013D01*
X14104617Y-15988394D01*
X14114141Y-15950298D01*
X14123664Y-15931251D01*
X14133188Y-15921727D01*
X14152236Y-15912203D01*
X14342712Y-15912203D02*
X14361760Y-15912203D01*
X14380807Y-15921727D01*
X14390331Y-15931251D01*
X14399855Y-15950298D01*
X14409379Y-15988394D01*
X14409379Y-16036013D01*
X14399855Y-16074108D01*
X14390331Y-16093155D01*
X14380807Y-16102679D01*
X14361760Y-16112203D01*
X14342712Y-16112203D01*
X14323664Y-16102679D01*
X14314141Y-16093155D01*
X14304617Y-16074108D01*
X14295093Y-16036013D01*
X14295093Y-15988394D01*
X14304617Y-15950298D01*
X14314141Y-15931251D01*
X14323664Y-15921727D01*
X14342712Y-15912203D01*
X14485569Y-15912203D02*
X14485569Y-15950298D01*
X14561760Y-15912203D02*
X14561760Y-15950298D01*
X14856998Y-16188394D02*
X14847474Y-16178870D01*
X14828426Y-16150298D01*
X14818902Y-16131251D01*
X14809379Y-16102679D01*
X14799855Y-16055060D01*
X14799855Y-16016965D01*
X14809379Y-15969346D01*
X14818902Y-15940775D01*
X14828426Y-15921727D01*
X14847474Y-15893155D01*
X14856998Y-15883632D01*
X15018902Y-15912203D02*
X14980807Y-15912203D01*
X14961760Y-15921727D01*
X14952236Y-15931251D01*
X14933188Y-15959822D01*
X14923664Y-15997917D01*
X14923664Y-16074108D01*
X14933188Y-16093155D01*
X14942712Y-16102679D01*
X14961760Y-16112203D01*
X14999855Y-16112203D01*
X15018902Y-16102679D01*
X15028426Y-16093155D01*
X15037950Y-16074108D01*
X15037950Y-16026489D01*
X15028426Y-16007441D01*
X15018902Y-15997917D01*
X14999855Y-15988394D01*
X14961760Y-15988394D01*
X14942712Y-15997917D01*
X14933188Y-16007441D01*
X14923664Y-16026489D01*
X15276045Y-16112203D02*
X15276045Y-15912203D01*
X15361760Y-16112203D02*
X15361760Y-16007441D01*
X15352236Y-15988394D01*
X15333188Y-15978870D01*
X15304617Y-15978870D01*
X15285569Y-15988394D01*
X15276045Y-15997917D01*
X15485569Y-16112203D02*
X15466521Y-16102679D01*
X15456998Y-16093155D01*
X15447474Y-16074108D01*
X15447474Y-16016965D01*
X15456998Y-15997917D01*
X15466521Y-15988394D01*
X15485569Y-15978870D01*
X15514141Y-15978870D01*
X15533188Y-15988394D01*
X15542712Y-15997917D01*
X15552236Y-16016965D01*
X15552236Y-16074108D01*
X15542712Y-16093155D01*
X15533188Y-16102679D01*
X15514141Y-16112203D01*
X15485569Y-16112203D01*
X15666521Y-16112203D02*
X15647474Y-16102679D01*
X15637950Y-16083632D01*
X15637950Y-15912203D01*
X15818902Y-16102679D02*
X15799855Y-16112203D01*
X15761760Y-16112203D01*
X15742712Y-16102679D01*
X15733188Y-16083632D01*
X15733188Y-16007441D01*
X15742712Y-15988394D01*
X15761760Y-15978870D01*
X15799855Y-15978870D01*
X15818902Y-15988394D01*
X15828426Y-16007441D01*
X15828426Y-16026489D01*
X15733188Y-16045536D01*
X15904617Y-16102679D02*
X15923664Y-16112203D01*
X15961760Y-16112203D01*
X15980807Y-16102679D01*
X15990331Y-16083632D01*
X15990331Y-16074108D01*
X15980807Y-16055060D01*
X15961760Y-16045536D01*
X15933188Y-16045536D01*
X15914141Y-16036013D01*
X15904617Y-16016965D01*
X15904617Y-16007441D01*
X15914141Y-15988394D01*
X15933188Y-15978870D01*
X15961760Y-15978870D01*
X15980807Y-15988394D01*
X16056998Y-16188394D02*
X16066521Y-16178870D01*
X16085569Y-16150298D01*
X16095093Y-16131251D01*
X16104617Y-16102679D01*
X16114141Y-16055060D01*
X16114141Y-16016965D01*
X16104617Y-15969346D01*
X16095093Y-15940775D01*
X16085569Y-15921727D01*
X16066521Y-15893155D01*
X16056998Y-15883632D01*
D16*
X11135233Y-16210797D02*
X11285093Y-16360657D01*
X11285093Y-16210797D02*
X11135233Y-16360657D01*
X11285093Y-16285727D02*
G75*
G03*
X11285093Y-16285727I-74930J0D01*
G01*
D11*
X11647474Y-16376203D02*
X11533188Y-16376203D01*
X11590331Y-16376203D02*
X11590331Y-16176203D01*
X11571283Y-16204775D01*
X11552236Y-16223822D01*
X11533188Y-16233346D01*
X11733188Y-16357155D02*
X11742712Y-16366679D01*
X11733188Y-16376203D01*
X11723664Y-16366679D01*
X11733188Y-16357155D01*
X11733188Y-16376203D01*
X11914141Y-16242870D02*
X11914141Y-16376203D01*
X11866521Y-16166679D02*
X11818902Y-16309536D01*
X11942712Y-16309536D01*
X12028426Y-16376203D02*
X12066521Y-16376203D01*
X12085569Y-16366679D01*
X12095093Y-16357155D01*
X12114141Y-16328584D01*
X12123664Y-16290489D01*
X12123664Y-16214298D01*
X12114141Y-16195251D01*
X12104617Y-16185727D01*
X12085569Y-16176203D01*
X12047474Y-16176203D01*
X12028426Y-16185727D01*
X12018902Y-16195251D01*
X12009379Y-16214298D01*
X12009379Y-16261917D01*
X12018902Y-16280965D01*
X12028426Y-16290489D01*
X12047474Y-16300013D01*
X12085569Y-16300013D01*
X12104617Y-16290489D01*
X12114141Y-16280965D01*
X12123664Y-16261917D01*
X12218902Y-16376203D02*
X12256998Y-16376203D01*
X12276045Y-16366679D01*
X12285569Y-16357155D01*
X12304617Y-16328584D01*
X12314141Y-16290489D01*
X12314141Y-16214298D01*
X12304617Y-16195251D01*
X12295093Y-16185727D01*
X12276045Y-16176203D01*
X12237950Y-16176203D01*
X12218902Y-16185727D01*
X12209379Y-16195251D01*
X12199855Y-16214298D01*
X12199855Y-16261917D01*
X12209379Y-16280965D01*
X12218902Y-16290489D01*
X12237950Y-16300013D01*
X12276045Y-16300013D01*
X12295093Y-16290489D01*
X12304617Y-16280965D01*
X12314141Y-16261917D01*
X12399855Y-16376203D02*
X12399855Y-16242870D01*
X12399855Y-16261917D02*
X12409379Y-16252394D01*
X12428426Y-16242870D01*
X12456998Y-16242870D01*
X12476045Y-16252394D01*
X12485569Y-16271441D01*
X12485569Y-16376203D01*
X12485569Y-16271441D02*
X12495093Y-16252394D01*
X12514141Y-16242870D01*
X12542712Y-16242870D01*
X12561760Y-16252394D01*
X12571283Y-16271441D01*
X12571283Y-16376203D01*
X12666521Y-16376203D02*
X12666521Y-16242870D01*
X12666521Y-16261917D02*
X12676045Y-16252394D01*
X12695093Y-16242870D01*
X12723664Y-16242870D01*
X12742712Y-16252394D01*
X12752236Y-16271441D01*
X12752236Y-16376203D01*
X12752236Y-16271441D02*
X12761760Y-16252394D01*
X12780807Y-16242870D01*
X12809379Y-16242870D01*
X12828426Y-16252394D01*
X12837950Y-16271441D01*
X12837950Y-16376203D01*
X13228426Y-16166679D02*
X13056998Y-16423822D01*
X13485569Y-16176203D02*
X13504617Y-16176203D01*
X13523664Y-16185727D01*
X13533188Y-16195251D01*
X13542712Y-16214298D01*
X13552236Y-16252394D01*
X13552236Y-16300013D01*
X13542712Y-16338108D01*
X13533188Y-16357155D01*
X13523664Y-16366679D01*
X13504617Y-16376203D01*
X13485569Y-16376203D01*
X13466521Y-16366679D01*
X13456998Y-16357155D01*
X13447474Y-16338108D01*
X13437950Y-16300013D01*
X13437950Y-16252394D01*
X13447474Y-16214298D01*
X13456998Y-16195251D01*
X13466521Y-16185727D01*
X13485569Y-16176203D01*
X13637950Y-16357155D02*
X13647474Y-16366679D01*
X13637950Y-16376203D01*
X13628426Y-16366679D01*
X13637950Y-16357155D01*
X13637950Y-16376203D01*
X13771283Y-16176203D02*
X13790331Y-16176203D01*
X13809379Y-16185727D01*
X13818902Y-16195251D01*
X13828426Y-16214298D01*
X13837950Y-16252394D01*
X13837950Y-16300013D01*
X13828426Y-16338108D01*
X13818902Y-16357155D01*
X13809379Y-16366679D01*
X13790331Y-16376203D01*
X13771283Y-16376203D01*
X13752236Y-16366679D01*
X13742712Y-16357155D01*
X13733188Y-16338108D01*
X13723664Y-16300013D01*
X13723664Y-16252394D01*
X13733188Y-16214298D01*
X13742712Y-16195251D01*
X13752236Y-16185727D01*
X13771283Y-16176203D01*
X14018902Y-16176203D02*
X13923664Y-16176203D01*
X13914141Y-16271441D01*
X13923664Y-16261917D01*
X13942712Y-16252394D01*
X13990331Y-16252394D01*
X14009379Y-16261917D01*
X14018902Y-16271441D01*
X14028426Y-16290489D01*
X14028426Y-16338108D01*
X14018902Y-16357155D01*
X14009379Y-16366679D01*
X13990331Y-16376203D01*
X13942712Y-16376203D01*
X13923664Y-16366679D01*
X13914141Y-16357155D01*
X14123664Y-16376203D02*
X14161760Y-16376203D01*
X14180807Y-16366679D01*
X14190331Y-16357155D01*
X14209379Y-16328584D01*
X14218902Y-16290489D01*
X14218902Y-16214298D01*
X14209379Y-16195251D01*
X14199855Y-16185727D01*
X14180807Y-16176203D01*
X14142712Y-16176203D01*
X14123664Y-16185727D01*
X14114141Y-16195251D01*
X14104617Y-16214298D01*
X14104617Y-16261917D01*
X14114141Y-16280965D01*
X14123664Y-16290489D01*
X14142712Y-16300013D01*
X14180807Y-16300013D01*
X14199855Y-16290489D01*
X14209379Y-16280965D01*
X14218902Y-16261917D01*
X14342712Y-16176203D02*
X14361760Y-16176203D01*
X14380807Y-16185727D01*
X14390331Y-16195251D01*
X14399855Y-16214298D01*
X14409379Y-16252394D01*
X14409379Y-16300013D01*
X14399855Y-16338108D01*
X14390331Y-16357155D01*
X14380807Y-16366679D01*
X14361760Y-16376203D01*
X14342712Y-16376203D01*
X14323664Y-16366679D01*
X14314141Y-16357155D01*
X14304617Y-16338108D01*
X14295093Y-16300013D01*
X14295093Y-16252394D01*
X14304617Y-16214298D01*
X14314141Y-16195251D01*
X14323664Y-16185727D01*
X14342712Y-16176203D01*
X14485569Y-16176203D02*
X14485569Y-16214298D01*
X14561760Y-16176203D02*
X14561760Y-16214298D01*
X14856998Y-16452394D02*
X14847474Y-16442870D01*
X14828426Y-16414298D01*
X14818902Y-16395251D01*
X14809379Y-16366679D01*
X14799855Y-16319060D01*
X14799855Y-16280965D01*
X14809379Y-16233346D01*
X14818902Y-16204775D01*
X14828426Y-16185727D01*
X14847474Y-16157155D01*
X14856998Y-16147632D01*
X14914141Y-16176203D02*
X15037950Y-16176203D01*
X14971283Y-16252394D01*
X14999855Y-16252394D01*
X15018902Y-16261917D01*
X15028426Y-16271441D01*
X15037950Y-16290489D01*
X15037950Y-16338108D01*
X15028426Y-16357155D01*
X15018902Y-16366679D01*
X14999855Y-16376203D01*
X14942712Y-16376203D01*
X14923664Y-16366679D01*
X14914141Y-16357155D01*
X15276045Y-16376203D02*
X15276045Y-16176203D01*
X15361760Y-16376203D02*
X15361760Y-16271441D01*
X15352236Y-16252394D01*
X15333188Y-16242870D01*
X15304617Y-16242870D01*
X15285569Y-16252394D01*
X15276045Y-16261917D01*
X15485569Y-16376203D02*
X15466521Y-16366679D01*
X15456998Y-16357155D01*
X15447474Y-16338108D01*
X15447474Y-16280965D01*
X15456998Y-16261917D01*
X15466521Y-16252394D01*
X15485569Y-16242870D01*
X15514141Y-16242870D01*
X15533188Y-16252394D01*
X15542712Y-16261917D01*
X15552236Y-16280965D01*
X15552236Y-16338108D01*
X15542712Y-16357155D01*
X15533188Y-16366679D01*
X15514141Y-16376203D01*
X15485569Y-16376203D01*
X15666521Y-16376203D02*
X15647474Y-16366679D01*
X15637950Y-16347632D01*
X15637950Y-16176203D01*
X15818902Y-16366679D02*
X15799855Y-16376203D01*
X15761760Y-16376203D01*
X15742712Y-16366679D01*
X15733188Y-16347632D01*
X15733188Y-16271441D01*
X15742712Y-16252394D01*
X15761760Y-16242870D01*
X15799855Y-16242870D01*
X15818902Y-16252394D01*
X15828426Y-16271441D01*
X15828426Y-16290489D01*
X15733188Y-16309536D01*
X15904617Y-16366679D02*
X15923664Y-16376203D01*
X15961760Y-16376203D01*
X15980807Y-16366679D01*
X15990331Y-16347632D01*
X15990331Y-16338108D01*
X15980807Y-16319060D01*
X15961760Y-16309536D01*
X15933188Y-16309536D01*
X15914141Y-16300013D01*
X15904617Y-16280965D01*
X15904617Y-16271441D01*
X15914141Y-16252394D01*
X15933188Y-16242870D01*
X15961760Y-16242870D01*
X15980807Y-16252394D01*
X16056998Y-16452394D02*
X16066521Y-16442870D01*
X16085569Y-16414298D01*
X16095093Y-16395251D01*
X16104617Y-16366679D01*
X16114141Y-16319060D01*
X16114141Y-16280965D01*
X16104617Y-16233346D01*
X16095093Y-16204775D01*
X16085569Y-16185727D01*
X16066521Y-16157155D01*
X16056998Y-16147632D01*
M02*
