M48
; DRILL file {KiCad (6.0.11)} date Fri Jan 10 09:32:29 2025
; FORMAT={-:-/ absolute / metric / decimal}
; #@! TF.CreationDate,2025-01-10T09:32:29+11:00
; #@! TF.GenerationSoftware,Kicad,Pcbnew,(6.0.11)
; #@! TF.FileFunction,Plated,1,4,PTH
FMAT,2
METRIC
; #@! TA.AperFunction,Plated,PTH,ViaDrill
T1C0.254
; #@! TA.AperFunction,Plated,PTH,ViaDrill
T2C0.508
; #@! TA.AperFunction,Plated,PTH,ComponentDrill
T3C1.000
; #@! TA.AperFunction,Plated,PTH,ViaDrill
T4C1.016
; #@! TA.AperFunction,Plated,PTH,ComponentDrill
T5C1.016
; #@! TA.AperFunction,Plated,PTH,ComponentDrill
T6C1.499
%
G90
G05
T1
X119.405Y-85.649
X120.04Y-83.744
X120.371Y-110.846
X120.675Y-88.189
X120.675Y-90.729
X120.675Y-93.269
X120.675Y-95.809
X122.58Y-98.349
X123.85Y-79.299
X125.12Y-97.079
X125.451Y-110.846
X126.39Y-98.349
X126.39Y-107.239
X127.241Y-114.186
X127.66Y-79.934
X128.93Y-83.109
X128.93Y-88.189
X128.93Y-99.619
X128.93Y-107.239
X130.2Y-102.159
X131.47Y-88.189
X131.47Y-98.349
X131.71Y-104.459
X134.01Y-91.999
X135.28Y-99.619
X135.915Y-72.695
X135.915Y-83.363
X136.193Y-101.246
X136.55Y-86.919
X136.69Y-118.605
X145.212Y-85.509
X146.964Y-106.083
X148.272Y-86.258
X148.387Y-79.159
X151.232Y-83.947
X151.562Y-81.699
X151.562Y-88.049
X153.467Y-79.794
X156.007Y-81.064
X156.007Y-83.604
X156.007Y-86.144
X157.188Y-134.645
X160.845Y-82.563
T2
X125.285Y-135.052
X131.115Y-135.128
X154.521Y-135.826
X159.664Y-135.649
T3
X114.948Y-86.69
X114.948Y-89.23
X114.948Y-91.77
X114.948Y-94.31
X114.948Y-96.85
X114.948Y-99.39
X114.948Y-101.93
X114.948Y-104.47
X114.948Y-107.01
X114.948Y-109.55
X114.948Y-112.09
X114.948Y-114.63
X114.948Y-117.17
X114.948Y-119.71
X114.948Y-122.25
X114.948Y-124.79
X114.948Y-127.33
X114.948Y-129.87
X114.948Y-132.41
X114.948Y-134.95
X117.488Y-86.69
X117.488Y-89.23
X117.488Y-91.77
X117.488Y-94.31
X117.488Y-96.85
X117.488Y-99.39
X117.488Y-101.93
X117.488Y-104.47
X117.488Y-107.01
X117.488Y-109.55
X117.488Y-112.09
X117.488Y-114.63
X117.488Y-117.17
X117.488Y-119.71
X117.488Y-122.25
X117.488Y-124.79
X117.488Y-127.33
X117.488Y-129.87
X117.488Y-132.41
X117.488Y-134.95
X139.09Y-78.029
X139.09Y-80.569
X139.09Y-83.109
X139.09Y-85.649
X139.09Y-88.189
X139.09Y-90.729
X139.09Y-93.269
X139.09Y-95.809
X139.09Y-98.349
X139.09Y-100.889
X139.09Y-103.429
X139.09Y-105.969
X139.09Y-108.509
X139.09Y-111.049
X141.63Y-78.029
X141.63Y-80.569
X141.63Y-83.109
X141.63Y-85.649
X141.63Y-88.189
X141.63Y-90.729
X141.63Y-93.269
X141.63Y-95.809
X141.63Y-98.349
X141.63Y-100.889
X141.63Y-103.429
X141.63Y-105.969
X141.63Y-108.509
X141.63Y-111.049
T4
X115.481Y-75.349
X139.09Y-59.868
X139.09Y-62.408
X139.09Y-64.821
X139.09Y-67.361
X139.09Y-69.901
X139.09Y-72.441
X141.63Y-59.868
X141.63Y-62.408
X141.63Y-64.821
X141.63Y-67.361
X141.63Y-69.901
X141.63Y-72.441
X144.17Y-59.868
X144.17Y-62.408
X144.17Y-64.821
X144.17Y-67.361
X144.17Y-69.901
X144.17Y-72.441
X146.71Y-59.868
X146.71Y-62.408
X146.71Y-64.821
X146.71Y-67.361
X146.71Y-69.901
X146.71Y-72.441
X149.25Y-59.868
X149.25Y-62.408
X149.25Y-64.821
X149.25Y-67.361
X149.25Y-69.901
X149.25Y-72.441
X151.79Y-59.868
X151.79Y-62.408
X151.79Y-64.821
X151.79Y-67.361
X151.79Y-69.901
X151.79Y-72.441
X154.33Y-59.868
X154.33Y-62.408
X154.33Y-64.821
X154.33Y-67.361
X154.33Y-69.901
X154.33Y-72.441
X156.87Y-59.868
X156.87Y-62.408
X156.87Y-64.821
X156.87Y-67.361
X156.87Y-69.901
X156.87Y-72.441
X159.41Y-59.868
X159.41Y-62.408
X159.41Y-64.821
X159.41Y-67.361
X159.41Y-69.901
X159.41Y-72.441
X161.95Y-59.868
X161.95Y-62.408
X161.95Y-64.821
X161.95Y-67.361
X161.95Y-69.901
X161.95Y-72.441
T5
X140.741Y-126.251
X145.313Y-126.251
X151.232Y-115.43
X151.232Y-120.002
X151.841Y-97.142
X151.841Y-101.714
T6
X123.629Y-70.416
X128.629Y-65.416
X133.629Y-70.416
T0
M30
