G04 #@! TF.GenerationSoftware,KiCad,Pcbnew,(6.0.11)*
G04 #@! TF.CreationDate,2025-01-10T09:31:50+11:00*
G04 #@! TF.ProjectId,bbb,6262622e-6b69-4636-9164-5f7063625858,rev?*
G04 #@! TF.SameCoordinates,Original*
G04 #@! TF.FileFunction,Copper,L4,Bot*
G04 #@! TF.FilePolarity,Positive*
%FSLAX46Y46*%
G04 Gerber Fmt 4.6, Leading zero omitted, Abs format (unit mm)*
G04 Created by KiCad (PCBNEW (6.0.11)) date 2025-01-10 09:31:50*
%MOMM*%
%LPD*%
G01*
G04 APERTURE LIST*
G04 #@! TA.AperFunction,ComponentPad*
%ADD10C,1.727200*%
G04 #@! TD*
G04 #@! TA.AperFunction,ComponentPad*
%ADD11C,2.006600*%
G04 #@! TD*
G04 #@! TA.AperFunction,ComponentPad*
%ADD12O,1.700000X1.700000*%
G04 #@! TD*
G04 #@! TA.AperFunction,ComponentPad*
%ADD13R,1.700000X1.700000*%
G04 #@! TD*
G04 #@! TA.AperFunction,ViaPad*
%ADD14C,1.727200*%
G04 #@! TD*
G04 #@! TA.AperFunction,ViaPad*
%ADD15C,0.457200*%
G04 #@! TD*
G04 #@! TA.AperFunction,Conductor*
%ADD16C,0.127000*%
G04 #@! TD*
G04 #@! TA.AperFunction,Conductor*
%ADD17C,0.254000*%
G04 #@! TD*
G04 #@! TA.AperFunction,Conductor*
%ADD18C,0.152400*%
G04 #@! TD*
G04 APERTURE END LIST*
D10*
X140741400Y-126250700D03*
X145313400Y-126250700D03*
X151841200Y-101714300D03*
X151841200Y-97142300D03*
X151231600Y-120002300D03*
X151231600Y-115430300D03*
D11*
X128629400Y-65415800D03*
X133629400Y-70415800D03*
X123629400Y-70415800D03*
D12*
X114947700Y-86690200D03*
X117487700Y-86690200D03*
X114947700Y-89230200D03*
X117487700Y-89230200D03*
X114947700Y-91770200D03*
X117487700Y-91770200D03*
X114947700Y-94310200D03*
X117487700Y-94310200D03*
X114947700Y-96850200D03*
X117487700Y-96850200D03*
X114947700Y-99390200D03*
X117487700Y-99390200D03*
X114947700Y-101930200D03*
X117487700Y-101930200D03*
X114947700Y-104470200D03*
X117487700Y-104470200D03*
X114947700Y-107010200D03*
X117487700Y-107010200D03*
X114947700Y-109550200D03*
X117487700Y-109550200D03*
X114947700Y-112090200D03*
X117487700Y-112090200D03*
X114947700Y-114630200D03*
X117487700Y-114630200D03*
X114947700Y-117170200D03*
X117487700Y-117170200D03*
X114947700Y-119710200D03*
X117487700Y-119710200D03*
X114947700Y-122250200D03*
X117487700Y-122250200D03*
X114947700Y-124790200D03*
X117487700Y-124790200D03*
X114947700Y-127330200D03*
X117487700Y-127330200D03*
X114947700Y-129870200D03*
X117487700Y-129870200D03*
X114947700Y-132410200D03*
X117487700Y-132410200D03*
X114947700Y-134950200D03*
D13*
X117487700Y-134950200D03*
X141630400Y-111048800D03*
D12*
X139090400Y-111048800D03*
X141630400Y-108508800D03*
X139090400Y-108508800D03*
X141630400Y-105968800D03*
X139090400Y-105968800D03*
X141630400Y-103428800D03*
X139090400Y-103428800D03*
X141630400Y-100888800D03*
X139090400Y-100888800D03*
X141630400Y-98348800D03*
X139090400Y-98348800D03*
X141630400Y-95808800D03*
X139090400Y-95808800D03*
X141630400Y-93268800D03*
X139090400Y-93268800D03*
X141630400Y-90728800D03*
X139090400Y-90728800D03*
X141630400Y-88188800D03*
X139090400Y-88188800D03*
X141630400Y-85648800D03*
X139090400Y-85648800D03*
X141630400Y-83108800D03*
X139090400Y-83108800D03*
X141630400Y-80568800D03*
X139090400Y-80568800D03*
X141630400Y-78028800D03*
X139090400Y-78028800D03*
D14*
X151790400Y-72440800D03*
X154330400Y-72440800D03*
X141630400Y-72440800D03*
X154330400Y-64820800D03*
X149250400Y-67360800D03*
X151790400Y-69900800D03*
X144170400Y-72440800D03*
X151790400Y-64820800D03*
X159410400Y-64820800D03*
X154330400Y-69900800D03*
X156870400Y-67360800D03*
X154330400Y-67360800D03*
X144170400Y-64820800D03*
X159410400Y-72440800D03*
X146710400Y-64820800D03*
X144170400Y-69900800D03*
X149250400Y-69900800D03*
X156870400Y-69900800D03*
X156870400Y-72440800D03*
X144170400Y-67360800D03*
X159410400Y-67360800D03*
X159410400Y-69900800D03*
X161950400Y-69900800D03*
X151790400Y-67360800D03*
X141630400Y-64820800D03*
X141630400Y-67360800D03*
X161950400Y-64820800D03*
X161950400Y-67360800D03*
X139090400Y-69900800D03*
X139090400Y-64820800D03*
X146710400Y-72440800D03*
X146710400Y-69900800D03*
X146710400Y-67360800D03*
X156870400Y-64820800D03*
X139090400Y-72440800D03*
X139090400Y-67360800D03*
X141630400Y-69900800D03*
X149250400Y-64820800D03*
X149250400Y-59867800D03*
X159410400Y-59867800D03*
X139090400Y-59867800D03*
X144170400Y-62407800D03*
X149250400Y-62407800D03*
X156870400Y-62407800D03*
X141630400Y-62407800D03*
X151790400Y-59867800D03*
X161950400Y-62407800D03*
X141630400Y-59867800D03*
X146710400Y-59867800D03*
X161950400Y-59867800D03*
X156870400Y-59867800D03*
X139090400Y-62407800D03*
X159410400Y-62407800D03*
X154330400Y-62407800D03*
X151790400Y-62407800D03*
X146710400Y-62407800D03*
X144170400Y-59867800D03*
X154330400Y-59867800D03*
X149250400Y-72440800D03*
X125285500Y-135051800D03*
D15*
X128930400Y-107238800D03*
X125450600Y-110845600D03*
X136192900Y-101246300D03*
X126390400Y-98348800D03*
X120040400Y-83743800D03*
X156006800Y-86144100D03*
X156006800Y-83604100D03*
X156006800Y-81064100D03*
X151561800Y-88049100D03*
X145211800Y-85509100D03*
X160845500Y-82562700D03*
D14*
X131114800Y-135128000D03*
D15*
X126390400Y-107238800D03*
X131709709Y-104459491D03*
X130200400Y-102158800D03*
X128930400Y-99618800D03*
X131470400Y-98348800D03*
X131470400Y-88188800D03*
X125120400Y-97078800D03*
X122580400Y-98348800D03*
X120370600Y-110845600D03*
X119405400Y-85648800D03*
X120675400Y-88188800D03*
X120675400Y-90728800D03*
X120675400Y-93268800D03*
X120675400Y-95808800D03*
X127660400Y-79933800D03*
X153466800Y-79794100D03*
X151561800Y-81699100D03*
X148386800Y-79159100D03*
X148272490Y-86258410D03*
X127241300Y-114185700D03*
X146964400Y-106083100D03*
X136690100Y-118605300D03*
D14*
X115481100Y-75349100D03*
X154520900Y-135826500D03*
X159664400Y-135648700D03*
D15*
X123850400Y-79298800D03*
X135915400Y-83362800D03*
X135915400Y-72694800D03*
X128930400Y-88188800D03*
X135280400Y-99618800D03*
X151231600Y-83947000D03*
X134010400Y-91998800D03*
X136550400Y-86918800D03*
X128930400Y-83108800D03*
D14*
X161950400Y-72440800D03*
D15*
X157187900Y-134645400D03*
D16*
X137745100Y-106947598D02*
X137745100Y-100182400D01*
X119195100Y-128162800D02*
X119195100Y-125497598D01*
X137745100Y-100182400D02*
X138370100Y-99557400D01*
X138370100Y-99557400D02*
X140421800Y-99557400D01*
X117487700Y-129870200D02*
X119195100Y-128162800D01*
X119195100Y-125497598D02*
X137745100Y-106947598D01*
X140421800Y-99557400D02*
X141630400Y-98348800D01*
X138703100Y-107232400D02*
X119900700Y-126034800D01*
X119900700Y-129997200D02*
X117487700Y-132410200D01*
X139814550Y-107232400D02*
X138703100Y-107232400D01*
X119900700Y-126034800D02*
X119900700Y-129997200D01*
X140320100Y-106726850D02*
X139814550Y-107232400D01*
X140320100Y-102199100D02*
X140320100Y-106726850D01*
X141630400Y-100888800D02*
X140320100Y-102199100D01*
X138320100Y-86982400D02*
X134010400Y-91292100D01*
X140424000Y-86982400D02*
X138320100Y-86982400D01*
X141630400Y-88188800D02*
X140424000Y-86982400D01*
X134010400Y-91292100D02*
X134010400Y-91998800D01*
X130200400Y-84378800D02*
X135898700Y-84378800D01*
X128930400Y-83108800D02*
X130200400Y-84378800D01*
X135898700Y-84378800D02*
X139090400Y-81187100D01*
X139090400Y-81187100D02*
X139090400Y-80568800D01*
X140356800Y-84382400D02*
X141630400Y-83108800D01*
X138763511Y-84382400D02*
X140356800Y-84382400D01*
X136550400Y-86918800D02*
X136550400Y-86595511D01*
X136550400Y-86595511D02*
X138763511Y-84382400D01*
D17*
X139090400Y-108508800D02*
X141630400Y-105968800D01*
D18*
X153145100Y-85207400D02*
X151884700Y-83947000D01*
X153145100Y-91647400D02*
X153145100Y-85207400D01*
X140978629Y-99632400D02*
X145160100Y-99632400D01*
X139722229Y-100888800D02*
X140978629Y-99632400D01*
X151884700Y-83947000D02*
X151231600Y-83947000D01*
X139090400Y-100888800D02*
X139722229Y-100888800D01*
X145160100Y-99632400D02*
X153145100Y-91647400D01*
D16*
X130200400Y-85648800D02*
X123850400Y-79298800D01*
X136550400Y-85648800D02*
X130200400Y-85648800D01*
X139090400Y-83108800D02*
X136550400Y-85648800D01*
X135915400Y-83362800D02*
X135915400Y-72694800D01*
X133565899Y-92824299D02*
X128930400Y-88188800D01*
X133565899Y-97904299D02*
X133565899Y-92824299D01*
X135280400Y-99618800D02*
X133565899Y-97904299D01*
D17*
X141630400Y-108508800D02*
X144995900Y-111874300D01*
X144995900Y-111874300D02*
X144995900Y-121488200D01*
X157187900Y-133680200D02*
X144995900Y-121488200D01*
X157187900Y-134645400D02*
X157187900Y-133680200D01*
M02*
