G04 #@! TF.GenerationSoftware,KiCad,Pcbnew,(6.0.11)*
G04 #@! TF.CreationDate,2025-01-10T09:31:50+11:00*
G04 #@! TF.ProjectId,bbb,6262622e-6b69-4636-9164-5f7063625858,rev?*
G04 #@! TF.SameCoordinates,Original*
G04 #@! TF.FileFunction,Legend,Bot*
G04 #@! TF.FilePolarity,Positive*
%FSLAX46Y46*%
G04 Gerber Fmt 4.6, Leading zero omitted, Abs format (unit mm)*
G04 Created by KiCad (PCBNEW (6.0.11)) date 2025-01-10 09:31:50*
%MOMM*%
%LPD*%
G01*
G04 APERTURE LIST*
%ADD10C,0.120000*%
%ADD11C,1.727200*%
%ADD12C,2.006600*%
%ADD13O,1.700000X1.700000*%
%ADD14R,1.700000X1.700000*%
G04 APERTURE END LIST*
D10*
X134010400Y-58903800D02*
G75*
G03*
X134010400Y-58903800I-381000J0D01*
G01*
%LPC*%
D11*
X140741400Y-126250700D03*
X145313400Y-126250700D03*
X151841200Y-101714300D03*
X151841200Y-97142300D03*
X151231600Y-120002300D03*
X151231600Y-115430300D03*
D12*
X128629400Y-65415800D03*
X133629400Y-70415800D03*
X123629400Y-70415800D03*
D13*
X114947700Y-86690200D03*
X117487700Y-86690200D03*
X114947700Y-89230200D03*
X117487700Y-89230200D03*
X114947700Y-91770200D03*
X117487700Y-91770200D03*
X114947700Y-94310200D03*
X117487700Y-94310200D03*
X114947700Y-96850200D03*
X117487700Y-96850200D03*
X114947700Y-99390200D03*
X117487700Y-99390200D03*
X114947700Y-101930200D03*
X117487700Y-101930200D03*
X114947700Y-104470200D03*
X117487700Y-104470200D03*
X114947700Y-107010200D03*
X117487700Y-107010200D03*
X114947700Y-109550200D03*
X117487700Y-109550200D03*
X114947700Y-112090200D03*
X117487700Y-112090200D03*
X114947700Y-114630200D03*
X117487700Y-114630200D03*
X114947700Y-117170200D03*
X117487700Y-117170200D03*
X114947700Y-119710200D03*
X117487700Y-119710200D03*
X114947700Y-122250200D03*
X117487700Y-122250200D03*
X114947700Y-124790200D03*
X117487700Y-124790200D03*
X114947700Y-127330200D03*
X117487700Y-127330200D03*
X114947700Y-129870200D03*
X117487700Y-129870200D03*
X114947700Y-132410200D03*
X117487700Y-132410200D03*
X114947700Y-134950200D03*
D14*
X117487700Y-134950200D03*
X141630400Y-111048800D03*
D13*
X139090400Y-111048800D03*
X141630400Y-108508800D03*
X139090400Y-108508800D03*
X141630400Y-105968800D03*
X139090400Y-105968800D03*
X141630400Y-103428800D03*
X139090400Y-103428800D03*
X141630400Y-100888800D03*
X139090400Y-100888800D03*
X141630400Y-98348800D03*
X139090400Y-98348800D03*
X141630400Y-95808800D03*
X139090400Y-95808800D03*
X141630400Y-93268800D03*
X139090400Y-93268800D03*
X141630400Y-90728800D03*
X139090400Y-90728800D03*
X141630400Y-88188800D03*
X139090400Y-88188800D03*
X141630400Y-85648800D03*
X139090400Y-85648800D03*
X141630400Y-83108800D03*
X139090400Y-83108800D03*
X141630400Y-80568800D03*
X139090400Y-80568800D03*
X141630400Y-78028800D03*
X139090400Y-78028800D03*
M02*
