%TF.GenerationSoftware,KiCad,Pcbnew,5.1.9-73d0e3b20d~88~ubuntu18.04.1*%
%TF.CreationDate,2021-02-18T19:04:08+11:00*%
%TF.ProjectId,bbb,6262622e-6b69-4636-9164-5f7063625858,rev?*%
%TF.SameCoordinates,Original*%
%TF.FileFunction,Copper,L2,Inr*%
%TF.FilePolarity,Positive*%
%FSLAX46Y46*%
G04 Gerber Fmt 4.6, Leading zero omitted, Abs format (unit mm)*
G04 Created by KiCad (PCBNEW 5.1.9-73d0e3b20d~88~ubuntu18.04.1) date 2021-02-18 19:04:08*
%MOMM*%
%LPD*%
G01*
G04 APERTURE LIST*
%TA.AperFunction,ComponentPad*%
%ADD10R,1.727200X1.727200*%
%TD*%
%TA.AperFunction,ComponentPad*%
%ADD11O,1.727200X1.727200*%
%TD*%
%TA.AperFunction,ComponentPad*%
%ADD12R,1.700000X1.700000*%
%TD*%
%TA.AperFunction,ComponentPad*%
%ADD13O,1.700000X1.700000*%
%TD*%
%TA.AperFunction,ViaPad*%
%ADD14C,1.727200*%
%TD*%
%TA.AperFunction,ViaPad*%
%ADD15C,0.457200*%
%TD*%
%TA.AperFunction,Conductor*%
%ADD16C,0.762000*%
%TD*%
%TA.AperFunction,Conductor*%
%ADD17C,0.254000*%
%TD*%
%TA.AperFunction,Conductor*%
%ADD18C,0.100000*%
%TD*%
G04 APERTURE END LIST*
D10*
%TO.N,GND*%
%TO.C,P1*%
X164630100Y-62382400D03*
D11*
X167170100Y-62382400D03*
%TO.N,Net-(P1-Pad3)*%
X164630100Y-64922400D03*
%TO.N,Net-(P1-Pad4)*%
X167170100Y-64922400D03*
%TO.N,Net-(P1-Pad5)*%
X164630100Y-67462400D03*
%TO.N,Net-(P1-Pad6)*%
X167170100Y-67462400D03*
%TO.N,Net-(P1-Pad7)*%
X164630100Y-70002400D03*
%TO.N,Net-(P1-Pad8)*%
X167170100Y-70002400D03*
%TO.N,Net-(P1-Pad9)*%
X164630100Y-72542400D03*
%TO.N,Net-(P1-Pad10)*%
X167170100Y-72542400D03*
%TO.N,Net-(P1-Pad11)*%
X164630100Y-75082400D03*
%TO.N,Net-(P1-Pad12)*%
X167170100Y-75082400D03*
%TO.N,Net-(P1-Pad13)*%
X164630100Y-77622400D03*
%TO.N,Net-(P1-Pad14)*%
X167170100Y-77622400D03*
%TO.N,Net-(P1-Pad15)*%
X164630100Y-80162400D03*
%TO.N,Net-(P1-Pad16)*%
X167170100Y-80162400D03*
%TO.N,Net-(P1-Pad17)*%
X164630100Y-82702400D03*
%TO.N,Net-(P1-Pad18)*%
X167170100Y-82702400D03*
%TO.N,Net-(P1-Pad19)*%
X164630100Y-85242400D03*
%TO.N,Net-(P1-Pad20)*%
X167170100Y-85242400D03*
%TO.N,Net-(P1-Pad21)*%
X164630100Y-87782400D03*
%TO.N,Net-(P1-Pad22)*%
X167170100Y-87782400D03*
%TO.N,Net-(P1-Pad23)*%
X164630100Y-90322400D03*
%TO.N,Net-(P1-Pad24)*%
X167170100Y-90322400D03*
%TO.N,Net-(P1-Pad25)*%
X164630100Y-92862400D03*
%TO.N,Net-(P1-Pad26)*%
X167170100Y-92862400D03*
%TO.N,Net-(P1-Pad27)*%
X164630100Y-95402400D03*
%TO.N,Net-(P1-Pad28)*%
X167170100Y-95402400D03*
%TO.N,Net-(P1-Pad29)*%
X164630100Y-97942400D03*
%TO.N,Net-(P1-Pad30)*%
X167170100Y-97942400D03*
%TO.N,Net-(P1-Pad31)*%
X164630100Y-100482400D03*
%TO.N,Net-(P1-Pad32)*%
X167170100Y-100482400D03*
%TO.N,Net-(P1-Pad33)*%
X164630100Y-103022400D03*
%TO.N,Net-(P1-Pad34)*%
X167170100Y-103022400D03*
%TO.N,Net-(P1-Pad35)*%
X164630100Y-105562400D03*
%TO.N,Net-(P1-Pad36)*%
X167170100Y-105562400D03*
%TO.N,Net-(P1-Pad37)*%
X164630100Y-108102400D03*
%TO.N,Net-(P1-Pad38)*%
X167170100Y-108102400D03*
%TO.N,Net-(P1-Pad39)*%
X164630100Y-110642400D03*
%TO.N,Net-(P1-Pad40)*%
X167170100Y-110642400D03*
%TO.N,Net-(P1-Pad41)*%
X164630100Y-113182400D03*
%TO.N,Net-(P1-Pad42)*%
X167170100Y-113182400D03*
%TO.N,Net-(P1-Pad43)*%
X164630100Y-115722400D03*
%TO.N,Net-(P1-Pad44)*%
X167170100Y-115722400D03*
%TO.N,Net-(P1-Pad45)*%
X164630100Y-118262400D03*
%TO.N,Net-(P1-Pad46)*%
X167170100Y-118262400D03*
%TD*%
D10*
%TO.N,GND*%
%TO.C,P2*%
X116370100Y-62382400D03*
D11*
X118910100Y-62382400D03*
%TO.N,+3V3*%
X116370100Y-64922400D03*
X118910100Y-64922400D03*
%TO.N,+5V*%
X116370100Y-67462400D03*
X118910100Y-67462400D03*
%TO.N,SYS_5V*%
X116370100Y-70002400D03*
X118910100Y-70002400D03*
%TO.N,PWR_BUT*%
X116370100Y-72542400D03*
%TO.N,SYS_RESETN*%
X118910100Y-72542400D03*
%TO.N,Net-(P2-Pad11)*%
X116370100Y-75082400D03*
%TO.N,Net-(P2-Pad12)*%
X118910100Y-75082400D03*
%TO.N,Net-(P2-Pad13)*%
X116370100Y-77622400D03*
%TO.N,Net-(P2-Pad14)*%
X118910100Y-77622400D03*
%TO.N,Net-(P2-Pad15)*%
X116370100Y-80162400D03*
%TO.N,Net-(P2-Pad16)*%
X118910100Y-80162400D03*
%TO.N,Net-(P2-Pad17)*%
X116370100Y-82702400D03*
%TO.N,Net-(P2-Pad18)*%
X118910100Y-82702400D03*
%TO.N,Net-(P2-Pad19)*%
X116370100Y-85242400D03*
%TO.N,Net-(P2-Pad20)*%
X118910100Y-85242400D03*
%TO.N,Net-(P2-Pad21)*%
X116370100Y-87782400D03*
%TO.N,Net-(P2-Pad22)*%
X118910100Y-87782400D03*
%TO.N,Net-(P2-Pad23)*%
X116370100Y-90322400D03*
%TO.N,Net-(P2-Pad24)*%
X118910100Y-90322400D03*
%TO.N,Net-(P2-Pad25)*%
X116370100Y-92862400D03*
%TO.N,Net-(P2-Pad26)*%
X118910100Y-92862400D03*
%TO.N,Net-(P2-Pad27)*%
X116370100Y-95402400D03*
%TO.N,Net-(P2-Pad28)*%
X118910100Y-95402400D03*
%TO.N,Net-(P2-Pad29)*%
X116370100Y-97942400D03*
%TO.N,Net-(P2-Pad30)*%
X118910100Y-97942400D03*
%TO.N,Net-(P2-Pad31)*%
X116370100Y-100482400D03*
%TO.N,VDD_ADC*%
X118910100Y-100482400D03*
%TO.N,Net-(P2-Pad33)*%
X116370100Y-103022400D03*
%TO.N,GNDA_ADC*%
X118910100Y-103022400D03*
%TO.N,Net-(P2-Pad35)*%
X116370100Y-105562400D03*
%TO.N,Net-(P2-Pad36)*%
X118910100Y-105562400D03*
%TO.N,Net-(P2-Pad37)*%
X116370100Y-108102400D03*
%TO.N,Net-(P2-Pad38)*%
X118910100Y-108102400D03*
%TO.N,Net-(P2-Pad39)*%
X116370100Y-110642400D03*
%TO.N,Net-(P2-Pad40)*%
X118910100Y-110642400D03*
%TO.N,Net-(P2-Pad41)*%
X116370100Y-113182400D03*
%TO.N,Net-(P2-Pad42)*%
X118910100Y-113182400D03*
%TO.N,GND*%
X116370100Y-115722400D03*
X118910100Y-115722400D03*
X116370100Y-118262400D03*
X118910100Y-118262400D03*
%TD*%
D12*
%TO.N,GND*%
%TO.C,J1*%
X123990100Y-62382400D03*
D13*
%TO.N,+3V3*%
X126530100Y-62382400D03*
%TO.N,RFIN*%
X123990100Y-64922400D03*
%TO.N,RFOUT*%
X126530100Y-64922400D03*
%TO.N,P5_MIXIN*%
X123990100Y-67462400D03*
%TO.N,MIXIN*%
X126530100Y-67462400D03*
%TO.N,P7_SCL*%
X123990100Y-70002400D03*
%TO.N,I2C_SCL*%
X126530100Y-70002400D03*
%TO.N,P9_SDA*%
X123990100Y-72542400D03*
%TO.N,I2C_SDA*%
X126530100Y-72542400D03*
%TO.N,CLK0*%
X123990100Y-75082400D03*
%TO.N,MIXCLK0*%
X126530100Y-75082400D03*
%TO.N,CLK1*%
X123990100Y-77622400D03*
%TO.N,MIXCLK90*%
X126530100Y-77622400D03*
%TO.N,CLK2*%
X123990100Y-80162400D03*
%TO.N,GND*%
X126530100Y-80162400D03*
%TO.N,MIXI+*%
X123990100Y-82702400D03*
%TO.N,I+*%
X126530100Y-82702400D03*
%TO.N,MIXI-*%
X123990100Y-85242400D03*
%TO.N,I-*%
X126530100Y-85242400D03*
%TO.N,MIXQ+*%
X123990100Y-87782400D03*
%TO.N,Q+*%
X126530100Y-87782400D03*
%TO.N,MIXQ-*%
X123990100Y-90322400D03*
%TO.N,Q-*%
X126530100Y-90322400D03*
%TO.N,P21_Iout*%
X123990100Y-92862400D03*
%TO.N,Iout*%
X126530100Y-92862400D03*
%TO.N,P23_Qout*%
X123990100Y-95402400D03*
%TO.N,Qout*%
X126530100Y-95402400D03*
%TD*%
D14*
%TO.N,*%
X122720100Y-100482400D03*
X125260100Y-100482400D03*
X130340100Y-100482400D03*
X127800100Y-100482400D03*
X137960100Y-100482400D03*
X140500100Y-100482400D03*
X132880100Y-100482400D03*
X150660100Y-100482400D03*
X145580100Y-100482400D03*
X143040100Y-100482400D03*
X148120100Y-100482400D03*
X158280100Y-100482400D03*
X160820100Y-100482400D03*
X155740100Y-100482400D03*
X153200100Y-100482400D03*
X153200100Y-103022400D03*
X127800100Y-103022400D03*
X155740100Y-103022400D03*
X160820100Y-103022400D03*
X158280100Y-103022400D03*
X130340100Y-103022400D03*
X148120100Y-103022400D03*
X140500100Y-103022400D03*
X150660100Y-103022400D03*
X135420100Y-103022400D03*
X145580100Y-103022400D03*
X132880100Y-103022400D03*
X125260100Y-103022400D03*
X143040100Y-103022400D03*
X122720100Y-103022400D03*
X137960100Y-103022400D03*
X122720100Y-105562400D03*
X145580100Y-105562400D03*
X160820100Y-105562400D03*
X148120100Y-105562400D03*
X150660100Y-105562400D03*
X140500100Y-105562400D03*
X137960100Y-105562400D03*
X127800100Y-105562400D03*
X143040100Y-105562400D03*
X130340100Y-105562400D03*
X125260100Y-105562400D03*
X155740100Y-105562400D03*
X158280100Y-105562400D03*
X132880100Y-105562400D03*
X153200100Y-105562400D03*
X135420100Y-105562400D03*
X135420100Y-108102400D03*
X155740100Y-108102400D03*
X145580100Y-108102400D03*
X132880100Y-108102400D03*
X148120100Y-108102400D03*
X158280100Y-108102400D03*
X153200100Y-108102400D03*
X137960100Y-108102400D03*
X150660100Y-108102400D03*
X127800100Y-108102400D03*
X130340100Y-108102400D03*
X143040100Y-108102400D03*
X122720100Y-108102400D03*
X160820100Y-108102400D03*
X140500100Y-108102400D03*
X125260100Y-108102400D03*
X145580100Y-110642400D03*
X127800100Y-110642400D03*
X135420100Y-110642400D03*
X158280100Y-110642400D03*
X140500100Y-110642400D03*
X137960100Y-110642400D03*
X125260100Y-110642400D03*
X150660100Y-110642400D03*
X132880100Y-110642400D03*
X143040100Y-110642400D03*
X155740100Y-110642400D03*
X160820100Y-110642400D03*
X130340100Y-110642400D03*
X122720100Y-110642400D03*
X148120100Y-110642400D03*
X153200100Y-110642400D03*
X125260100Y-113182400D03*
X155740100Y-113182400D03*
X150660100Y-113182400D03*
X130340100Y-113182400D03*
X127800100Y-113182400D03*
X140500100Y-113182400D03*
X160820100Y-113182400D03*
X143040100Y-113182400D03*
X132880100Y-113182400D03*
X158280100Y-113182400D03*
X135420100Y-113182400D03*
X122720100Y-113182400D03*
X145580100Y-113182400D03*
X153200100Y-113182400D03*
X148120100Y-113182400D03*
X137960100Y-113182400D03*
X135420100Y-115722400D03*
X148120100Y-115722400D03*
X155740100Y-115722400D03*
X137960100Y-115722400D03*
X143040100Y-115722400D03*
X122720100Y-115722400D03*
X130340100Y-115722400D03*
X140500100Y-115722400D03*
X160820100Y-115722400D03*
X150660100Y-115722400D03*
X132880100Y-115722400D03*
X127800100Y-115722400D03*
X153200100Y-115722400D03*
X145580100Y-115722400D03*
X125260100Y-115722400D03*
X158280100Y-115722400D03*
X125260100Y-118262400D03*
X122720100Y-118262400D03*
X160820100Y-118262400D03*
X158280100Y-118262400D03*
X153200100Y-118262400D03*
X150660100Y-118262400D03*
X132880100Y-118262400D03*
X148120100Y-118262400D03*
X135420100Y-118262400D03*
X130340100Y-118262400D03*
X145580100Y-118262400D03*
X155740100Y-118262400D03*
X143040100Y-118262400D03*
X140500100Y-118262400D03*
X137960100Y-118262400D03*
X127800100Y-118262400D03*
X155740100Y-120802400D03*
X143040100Y-120802400D03*
X137960100Y-120802400D03*
X153200100Y-120802400D03*
X130340100Y-120802400D03*
X150660100Y-120802400D03*
X140500100Y-120802400D03*
X135420100Y-120802400D03*
X145580100Y-120802400D03*
X160820100Y-120802400D03*
X158280100Y-120802400D03*
X122720100Y-120802400D03*
X127800100Y-120802400D03*
X125260100Y-120802400D03*
X148120100Y-120802400D03*
X132880100Y-120802400D03*
X125260100Y-123342400D03*
X148120100Y-123342400D03*
X153200100Y-123342400D03*
X158280100Y-123342400D03*
X140500100Y-123342400D03*
X150660100Y-123342400D03*
X130340100Y-123342400D03*
X127800100Y-123342400D03*
X135420100Y-123342400D03*
X160820100Y-123342400D03*
X122720100Y-123342400D03*
X143040100Y-123342400D03*
X137960100Y-123342400D03*
X155740100Y-123342400D03*
X132880100Y-123342400D03*
X145580100Y-123342400D03*
X145580100Y-125882400D03*
X150660100Y-125882400D03*
X143040100Y-125882400D03*
X153200100Y-125882400D03*
X155740100Y-125882400D03*
X140500100Y-125882400D03*
X148120100Y-125882400D03*
X130340100Y-125882400D03*
X125260100Y-125882400D03*
X127800100Y-125882400D03*
X132880100Y-125882400D03*
X135420100Y-125882400D03*
X158280100Y-125882400D03*
X137960100Y-125882400D03*
%TO.N,+3V3*%
X118910100Y-49174400D03*
D15*
X136690100Y-66192400D03*
X140500100Y-67462400D03*
X129070100Y-72542400D03*
X139230100Y-75082400D03*
X145580100Y-89687400D03*
X132245100Y-54762400D03*
X132245100Y-52222400D03*
X132245100Y-49682400D03*
X127800100Y-56667400D03*
X121450100Y-54127400D03*
D14*
%TO.N,GND*%
X117640100Y-55270400D03*
D15*
X139230100Y-66192400D03*
X133910791Y-68971709D03*
X135420100Y-71272400D03*
X136690100Y-73812400D03*
X134150100Y-75082400D03*
X134150100Y-85242400D03*
X140500100Y-76352400D03*
X143040100Y-75082400D03*
X145580100Y-67462400D03*
X146215100Y-87782400D03*
X144945100Y-85242400D03*
X144945100Y-82702400D03*
X144945100Y-80162400D03*
X144945100Y-77622400D03*
X144945100Y-96672400D03*
X137960100Y-93497400D03*
X129705100Y-48412400D03*
X127800100Y-50317400D03*
X124625100Y-47777400D03*
X124510790Y-54876710D03*
%TO.N,Q+*%
X141770100Y-94132400D03*
%TO.N,Iout*%
X129070100Y-90322400D03*
%TO.N,MIXIN*%
X136690100Y-85242400D03*
X130340100Y-73812400D03*
%TO.N,I2C_SCL*%
X127800100Y-59842400D03*
%TO.N,I2C_SDA*%
X127800100Y-52222400D03*
%TO.N,CLK2*%
X120815100Y-52857400D03*
%TO.N,MIXI+*%
X131610100Y-81432400D03*
%TO.N,MIXQ+*%
X129070100Y-86512400D03*
%TO.N,MIXQ-*%
X129070100Y-82702400D03*
%TO.N,Q-*%
X136690100Y-90322400D03*
D14*
%TO.N,LED_IN*%
X135420100Y-100482400D03*
%TD*%
D16*
%TO.N,GND*%
X116370100Y-62382400D02*
X118910100Y-62382400D01*
X118910100Y-62382400D02*
X123990100Y-62382400D01*
X126530100Y-80162400D02*
X129070100Y-80162400D01*
X116370100Y-62382400D02*
X116370100Y-59842400D01*
X118910100Y-62382400D02*
X118910100Y-61112400D01*
X118910100Y-115722400D02*
X116370100Y-115722400D01*
X116370100Y-118262400D02*
X118910100Y-118262400D01*
X116370100Y-118262400D02*
X116370100Y-115722400D01*
X164630100Y-62382400D02*
X167170100Y-62382400D01*
X164630100Y-62382400D02*
X163360100Y-62382400D01*
X163360100Y-62382400D02*
X159550100Y-66192400D01*
%TD*%
D17*
%TO.N,GND*%
X134023100Y-64922400D02*
X134025540Y-64947176D01*
X134032767Y-64971001D01*
X134044503Y-64992957D01*
X134060297Y-65012203D01*
X134079543Y-65027997D01*
X134101499Y-65039733D01*
X134125324Y-65046960D01*
X134150100Y-65049400D01*
X160693100Y-65049400D01*
X160693100Y-97815400D01*
X120408700Y-97815400D01*
X120408700Y-97794801D01*
X120351110Y-97505275D01*
X120307100Y-97399026D01*
X120307100Y-95945774D01*
X120351110Y-95839525D01*
X120408700Y-95549999D01*
X120408700Y-95254801D01*
X120351110Y-94965275D01*
X120307100Y-94859026D01*
X120307100Y-93405774D01*
X120351110Y-93299525D01*
X120408700Y-93009999D01*
X120408700Y-92714801D01*
X120351110Y-92425275D01*
X120307100Y-92319026D01*
X120307100Y-90865774D01*
X120351110Y-90759525D01*
X120408700Y-90469999D01*
X120408700Y-90174801D01*
X120351110Y-89885275D01*
X120307100Y-89779026D01*
X120307100Y-88325774D01*
X120351110Y-88219525D01*
X120408700Y-87929999D01*
X120408700Y-87634801D01*
X120351110Y-87345275D01*
X120307100Y-87239026D01*
X120307100Y-85785774D01*
X120351110Y-85679525D01*
X120408700Y-85389999D01*
X120408700Y-85094801D01*
X120351110Y-84805275D01*
X120307100Y-84699026D01*
X120307100Y-83245774D01*
X120351110Y-83139525D01*
X120408700Y-82849999D01*
X120408700Y-82554801D01*
X120351110Y-82265275D01*
X120307100Y-82159026D01*
X120307100Y-80705774D01*
X120351110Y-80599525D01*
X120408700Y-80309999D01*
X120408700Y-80014801D01*
X120351110Y-79725275D01*
X120307100Y-79619026D01*
X120307100Y-78165774D01*
X120351110Y-78059525D01*
X120408700Y-77769999D01*
X120408700Y-77474801D01*
X120351110Y-77185275D01*
X120307100Y-77079026D01*
X120307100Y-75625774D01*
X120351110Y-75519525D01*
X120408700Y-75229999D01*
X120408700Y-74934801D01*
X120351110Y-74645275D01*
X120307100Y-74539026D01*
X120307100Y-73085774D01*
X120351110Y-72979525D01*
X120408700Y-72689999D01*
X120408700Y-72394801D01*
X120351110Y-72105275D01*
X120307100Y-71999026D01*
X120307100Y-70545774D01*
X120351110Y-70439525D01*
X120408700Y-70149999D01*
X120408700Y-69854801D01*
X120351110Y-69565275D01*
X120307100Y-69459026D01*
X120307100Y-68005774D01*
X120351110Y-67899525D01*
X120408700Y-67609999D01*
X120408700Y-67314801D01*
X120351110Y-67025275D01*
X120307100Y-66919026D01*
X120307100Y-65465774D01*
X120351110Y-65359525D01*
X120408700Y-65069999D01*
X120408700Y-64774801D01*
X120351110Y-64485275D01*
X120307100Y-64379026D01*
X120307100Y-63232400D01*
X122502028Y-63232400D01*
X122514288Y-63356882D01*
X122550598Y-63476580D01*
X122609563Y-63586894D01*
X122688915Y-63683585D01*
X122785606Y-63762937D01*
X122895920Y-63821902D01*
X122968480Y-63843913D01*
X122836625Y-63975768D01*
X122674110Y-64218989D01*
X122562168Y-64489242D01*
X122505100Y-64776140D01*
X122505100Y-65068660D01*
X122562168Y-65355558D01*
X122674110Y-65625811D01*
X122836625Y-65869032D01*
X123043468Y-66075875D01*
X123217860Y-66192400D01*
X123043468Y-66308925D01*
X122836625Y-66515768D01*
X122674110Y-66758989D01*
X122562168Y-67029242D01*
X122505100Y-67316140D01*
X122505100Y-67608660D01*
X122562168Y-67895558D01*
X122674110Y-68165811D01*
X122836625Y-68409032D01*
X123043468Y-68615875D01*
X123217860Y-68732400D01*
X123043468Y-68848925D01*
X122836625Y-69055768D01*
X122674110Y-69298989D01*
X122562168Y-69569242D01*
X122505100Y-69856140D01*
X122505100Y-70148660D01*
X122562168Y-70435558D01*
X122674110Y-70705811D01*
X122836625Y-70949032D01*
X123043468Y-71155875D01*
X123217860Y-71272400D01*
X123043468Y-71388925D01*
X122836625Y-71595768D01*
X122674110Y-71838989D01*
X122562168Y-72109242D01*
X122505100Y-72396140D01*
X122505100Y-72688660D01*
X122562168Y-72975558D01*
X122674110Y-73245811D01*
X122836625Y-73489032D01*
X123043468Y-73695875D01*
X123217860Y-73812400D01*
X123043468Y-73928925D01*
X122836625Y-74135768D01*
X122674110Y-74378989D01*
X122562168Y-74649242D01*
X122505100Y-74936140D01*
X122505100Y-75228660D01*
X122562168Y-75515558D01*
X122674110Y-75785811D01*
X122836625Y-76029032D01*
X123043468Y-76235875D01*
X123217860Y-76352400D01*
X123043468Y-76468925D01*
X122836625Y-76675768D01*
X122674110Y-76918989D01*
X122562168Y-77189242D01*
X122505100Y-77476140D01*
X122505100Y-77768660D01*
X122562168Y-78055558D01*
X122674110Y-78325811D01*
X122836625Y-78569032D01*
X123043468Y-78775875D01*
X123217860Y-78892400D01*
X123043468Y-79008925D01*
X122836625Y-79215768D01*
X122674110Y-79458989D01*
X122562168Y-79729242D01*
X122505100Y-80016140D01*
X122505100Y-80308660D01*
X122562168Y-80595558D01*
X122674110Y-80865811D01*
X122836625Y-81109032D01*
X123043468Y-81315875D01*
X123217860Y-81432400D01*
X123043468Y-81548925D01*
X122836625Y-81755768D01*
X122674110Y-81998989D01*
X122562168Y-82269242D01*
X122505100Y-82556140D01*
X122505100Y-82848660D01*
X122562168Y-83135558D01*
X122674110Y-83405811D01*
X122836625Y-83649032D01*
X123043468Y-83855875D01*
X123217860Y-83972400D01*
X123043468Y-84088925D01*
X122836625Y-84295768D01*
X122674110Y-84538989D01*
X122562168Y-84809242D01*
X122505100Y-85096140D01*
X122505100Y-85388660D01*
X122562168Y-85675558D01*
X122674110Y-85945811D01*
X122836625Y-86189032D01*
X123043468Y-86395875D01*
X123217860Y-86512400D01*
X123043468Y-86628925D01*
X122836625Y-86835768D01*
X122674110Y-87078989D01*
X122562168Y-87349242D01*
X122505100Y-87636140D01*
X122505100Y-87928660D01*
X122562168Y-88215558D01*
X122674110Y-88485811D01*
X122836625Y-88729032D01*
X123043468Y-88935875D01*
X123217860Y-89052400D01*
X123043468Y-89168925D01*
X122836625Y-89375768D01*
X122674110Y-89618989D01*
X122562168Y-89889242D01*
X122505100Y-90176140D01*
X122505100Y-90468660D01*
X122562168Y-90755558D01*
X122674110Y-91025811D01*
X122836625Y-91269032D01*
X123043468Y-91475875D01*
X123217860Y-91592400D01*
X123043468Y-91708925D01*
X122836625Y-91915768D01*
X122674110Y-92158989D01*
X122562168Y-92429242D01*
X122505100Y-92716140D01*
X122505100Y-93008660D01*
X122562168Y-93295558D01*
X122674110Y-93565811D01*
X122836625Y-93809032D01*
X123043468Y-94015875D01*
X123217860Y-94132400D01*
X123043468Y-94248925D01*
X122836625Y-94455768D01*
X122674110Y-94698989D01*
X122562168Y-94969242D01*
X122505100Y-95256140D01*
X122505100Y-95548660D01*
X122562168Y-95835558D01*
X122674110Y-96105811D01*
X122836625Y-96349032D01*
X123043468Y-96555875D01*
X123286689Y-96718390D01*
X123556942Y-96830332D01*
X123843840Y-96887400D01*
X124136360Y-96887400D01*
X124423258Y-96830332D01*
X124693511Y-96718390D01*
X124936732Y-96555875D01*
X125143575Y-96349032D01*
X125260100Y-96174640D01*
X125376625Y-96349032D01*
X125583468Y-96555875D01*
X125826689Y-96718390D01*
X126096942Y-96830332D01*
X126383840Y-96887400D01*
X126676360Y-96887400D01*
X126963258Y-96830332D01*
X127233511Y-96718390D01*
X127476732Y-96555875D01*
X127683575Y-96349032D01*
X127846090Y-96105811D01*
X127958032Y-95835558D01*
X128015100Y-95548660D01*
X128015100Y-95256140D01*
X127958032Y-94969242D01*
X127846090Y-94698989D01*
X127683575Y-94455768D01*
X127476732Y-94248925D01*
X127302340Y-94132400D01*
X127429636Y-94047343D01*
X140906500Y-94047343D01*
X140906500Y-94217457D01*
X140939687Y-94384303D01*
X141004787Y-94541468D01*
X141099298Y-94682913D01*
X141219587Y-94803202D01*
X141361032Y-94897713D01*
X141518197Y-94962813D01*
X141685043Y-94996000D01*
X141855157Y-94996000D01*
X142022003Y-94962813D01*
X142179168Y-94897713D01*
X142320613Y-94803202D01*
X142440902Y-94682913D01*
X142535413Y-94541468D01*
X142600513Y-94384303D01*
X142633700Y-94217457D01*
X142633700Y-94047343D01*
X142600513Y-93880497D01*
X142535413Y-93723332D01*
X142440902Y-93581887D01*
X142320613Y-93461598D01*
X142179168Y-93367087D01*
X142022003Y-93301987D01*
X141855157Y-93268800D01*
X141685043Y-93268800D01*
X141518197Y-93301987D01*
X141361032Y-93367087D01*
X141219587Y-93461598D01*
X141099298Y-93581887D01*
X141004787Y-93723332D01*
X140939687Y-93880497D01*
X140906500Y-94047343D01*
X127429636Y-94047343D01*
X127476732Y-94015875D01*
X127683575Y-93809032D01*
X127846090Y-93565811D01*
X127958032Y-93295558D01*
X128015100Y-93008660D01*
X128015100Y-92716140D01*
X127958032Y-92429242D01*
X127846090Y-92158989D01*
X127683575Y-91915768D01*
X127476732Y-91708925D01*
X127302340Y-91592400D01*
X127476732Y-91475875D01*
X127683575Y-91269032D01*
X127846090Y-91025811D01*
X127958032Y-90755558D01*
X128015100Y-90468660D01*
X128015100Y-90237343D01*
X128206500Y-90237343D01*
X128206500Y-90407457D01*
X128239687Y-90574303D01*
X128304787Y-90731468D01*
X128399298Y-90872913D01*
X128519587Y-90993202D01*
X128661032Y-91087713D01*
X128818197Y-91152813D01*
X128985043Y-91186000D01*
X129155157Y-91186000D01*
X129322003Y-91152813D01*
X129479168Y-91087713D01*
X129620613Y-90993202D01*
X129740902Y-90872913D01*
X129835413Y-90731468D01*
X129900513Y-90574303D01*
X129933700Y-90407457D01*
X129933700Y-90237343D01*
X135826500Y-90237343D01*
X135826500Y-90407457D01*
X135859687Y-90574303D01*
X135924787Y-90731468D01*
X136019298Y-90872913D01*
X136139587Y-90993202D01*
X136281032Y-91087713D01*
X136438197Y-91152813D01*
X136605043Y-91186000D01*
X136775157Y-91186000D01*
X136942003Y-91152813D01*
X137099168Y-91087713D01*
X137240613Y-90993202D01*
X137360902Y-90872913D01*
X137455413Y-90731468D01*
X137520513Y-90574303D01*
X137553700Y-90407457D01*
X137553700Y-90237343D01*
X137520513Y-90070497D01*
X137455413Y-89913332D01*
X137360902Y-89771887D01*
X137240613Y-89651598D01*
X137166899Y-89602343D01*
X144716500Y-89602343D01*
X144716500Y-89772457D01*
X144749687Y-89939303D01*
X144814787Y-90096468D01*
X144909298Y-90237913D01*
X145029587Y-90358202D01*
X145171032Y-90452713D01*
X145328197Y-90517813D01*
X145495043Y-90551000D01*
X145665157Y-90551000D01*
X145832003Y-90517813D01*
X145989168Y-90452713D01*
X146130613Y-90358202D01*
X146250902Y-90237913D01*
X146345413Y-90096468D01*
X146410513Y-89939303D01*
X146443700Y-89772457D01*
X146443700Y-89602343D01*
X146410513Y-89435497D01*
X146345413Y-89278332D01*
X146250902Y-89136887D01*
X146130613Y-89016598D01*
X145989168Y-88922087D01*
X145832003Y-88856987D01*
X145665157Y-88823800D01*
X145495043Y-88823800D01*
X145328197Y-88856987D01*
X145171032Y-88922087D01*
X145029587Y-89016598D01*
X144909298Y-89136887D01*
X144814787Y-89278332D01*
X144749687Y-89435497D01*
X144716500Y-89602343D01*
X137166899Y-89602343D01*
X137099168Y-89557087D01*
X136942003Y-89491987D01*
X136775157Y-89458800D01*
X136605043Y-89458800D01*
X136438197Y-89491987D01*
X136281032Y-89557087D01*
X136139587Y-89651598D01*
X136019298Y-89771887D01*
X135924787Y-89913332D01*
X135859687Y-90070497D01*
X135826500Y-90237343D01*
X129933700Y-90237343D01*
X129900513Y-90070497D01*
X129835413Y-89913332D01*
X129740902Y-89771887D01*
X129620613Y-89651598D01*
X129479168Y-89557087D01*
X129322003Y-89491987D01*
X129155157Y-89458800D01*
X128985043Y-89458800D01*
X128818197Y-89491987D01*
X128661032Y-89557087D01*
X128519587Y-89651598D01*
X128399298Y-89771887D01*
X128304787Y-89913332D01*
X128239687Y-90070497D01*
X128206500Y-90237343D01*
X128015100Y-90237343D01*
X128015100Y-90176140D01*
X127958032Y-89889242D01*
X127846090Y-89618989D01*
X127683575Y-89375768D01*
X127476732Y-89168925D01*
X127302340Y-89052400D01*
X127476732Y-88935875D01*
X127683575Y-88729032D01*
X127846090Y-88485811D01*
X127958032Y-88215558D01*
X128015100Y-87928660D01*
X128015100Y-87636140D01*
X127958032Y-87349242D01*
X127846090Y-87078989D01*
X127683575Y-86835768D01*
X127476732Y-86628925D01*
X127302340Y-86512400D01*
X127429636Y-86427343D01*
X128206500Y-86427343D01*
X128206500Y-86597457D01*
X128239687Y-86764303D01*
X128304787Y-86921468D01*
X128399298Y-87062913D01*
X128519587Y-87183202D01*
X128661032Y-87277713D01*
X128818197Y-87342813D01*
X128985043Y-87376000D01*
X129155157Y-87376000D01*
X129322003Y-87342813D01*
X129479168Y-87277713D01*
X129620613Y-87183202D01*
X129740902Y-87062913D01*
X129835413Y-86921468D01*
X129900513Y-86764303D01*
X129933700Y-86597457D01*
X129933700Y-86427343D01*
X129900513Y-86260497D01*
X129835413Y-86103332D01*
X129740902Y-85961887D01*
X129620613Y-85841598D01*
X129479168Y-85747087D01*
X129322003Y-85681987D01*
X129155157Y-85648800D01*
X128985043Y-85648800D01*
X128818197Y-85681987D01*
X128661032Y-85747087D01*
X128519587Y-85841598D01*
X128399298Y-85961887D01*
X128304787Y-86103332D01*
X128239687Y-86260497D01*
X128206500Y-86427343D01*
X127429636Y-86427343D01*
X127476732Y-86395875D01*
X127683575Y-86189032D01*
X127846090Y-85945811D01*
X127958032Y-85675558D01*
X128015100Y-85388660D01*
X128015100Y-85157343D01*
X135826500Y-85157343D01*
X135826500Y-85327457D01*
X135859687Y-85494303D01*
X135924787Y-85651468D01*
X136019298Y-85792913D01*
X136139587Y-85913202D01*
X136281032Y-86007713D01*
X136438197Y-86072813D01*
X136605043Y-86106000D01*
X136775157Y-86106000D01*
X136942003Y-86072813D01*
X137099168Y-86007713D01*
X137240613Y-85913202D01*
X137360902Y-85792913D01*
X137455413Y-85651468D01*
X137520513Y-85494303D01*
X137553700Y-85327457D01*
X137553700Y-85157343D01*
X137520513Y-84990497D01*
X137455413Y-84833332D01*
X137360902Y-84691887D01*
X137240613Y-84571598D01*
X137099168Y-84477087D01*
X136942003Y-84411987D01*
X136775157Y-84378800D01*
X136605043Y-84378800D01*
X136438197Y-84411987D01*
X136281032Y-84477087D01*
X136139587Y-84571598D01*
X136019298Y-84691887D01*
X135924787Y-84833332D01*
X135859687Y-84990497D01*
X135826500Y-85157343D01*
X128015100Y-85157343D01*
X128015100Y-85096140D01*
X127958032Y-84809242D01*
X127846090Y-84538989D01*
X127683575Y-84295768D01*
X127476732Y-84088925D01*
X127302340Y-83972400D01*
X127476732Y-83855875D01*
X127683575Y-83649032D01*
X127846090Y-83405811D01*
X127958032Y-83135558D01*
X128015100Y-82848660D01*
X128015100Y-82617343D01*
X128206500Y-82617343D01*
X128206500Y-82787457D01*
X128239687Y-82954303D01*
X128304787Y-83111468D01*
X128399298Y-83252913D01*
X128519587Y-83373202D01*
X128661032Y-83467713D01*
X128818197Y-83532813D01*
X128985043Y-83566000D01*
X129155157Y-83566000D01*
X129322003Y-83532813D01*
X129479168Y-83467713D01*
X129620613Y-83373202D01*
X129740902Y-83252913D01*
X129835413Y-83111468D01*
X129900513Y-82954303D01*
X129933700Y-82787457D01*
X129933700Y-82617343D01*
X129900513Y-82450497D01*
X129835413Y-82293332D01*
X129740902Y-82151887D01*
X129620613Y-82031598D01*
X129479168Y-81937087D01*
X129322003Y-81871987D01*
X129155157Y-81838800D01*
X128985043Y-81838800D01*
X128818197Y-81871987D01*
X128661032Y-81937087D01*
X128519587Y-82031598D01*
X128399298Y-82151887D01*
X128304787Y-82293332D01*
X128239687Y-82450497D01*
X128206500Y-82617343D01*
X128015100Y-82617343D01*
X128015100Y-82556140D01*
X127958032Y-82269242D01*
X127846090Y-81998989D01*
X127683575Y-81755768D01*
X127476732Y-81548925D01*
X127294566Y-81427205D01*
X127411455Y-81357578D01*
X127422809Y-81347343D01*
X130746500Y-81347343D01*
X130746500Y-81517457D01*
X130779687Y-81684303D01*
X130844787Y-81841468D01*
X130939298Y-81982913D01*
X131059587Y-82103202D01*
X131201032Y-82197713D01*
X131358197Y-82262813D01*
X131525043Y-82296000D01*
X131695157Y-82296000D01*
X131862003Y-82262813D01*
X132019168Y-82197713D01*
X132160613Y-82103202D01*
X132280902Y-81982913D01*
X132375413Y-81841468D01*
X132440513Y-81684303D01*
X132473700Y-81517457D01*
X132473700Y-81347343D01*
X132440513Y-81180497D01*
X132375413Y-81023332D01*
X132280902Y-80881887D01*
X132160613Y-80761598D01*
X132019168Y-80667087D01*
X131862003Y-80601987D01*
X131695157Y-80568800D01*
X131525043Y-80568800D01*
X131358197Y-80601987D01*
X131201032Y-80667087D01*
X131059587Y-80761598D01*
X130939298Y-80881887D01*
X130844787Y-81023332D01*
X130779687Y-81180497D01*
X130746500Y-81347343D01*
X127422809Y-81347343D01*
X127627688Y-81162669D01*
X127801741Y-80929320D01*
X127926925Y-80666499D01*
X127971576Y-80519290D01*
X127850255Y-80289400D01*
X126657100Y-80289400D01*
X126657100Y-80309400D01*
X126403100Y-80309400D01*
X126403100Y-80289400D01*
X126383100Y-80289400D01*
X126383100Y-80035400D01*
X126403100Y-80035400D01*
X126403100Y-80015400D01*
X126657100Y-80015400D01*
X126657100Y-80035400D01*
X127850255Y-80035400D01*
X127971576Y-79805510D01*
X127926925Y-79658301D01*
X127801741Y-79395480D01*
X127627688Y-79162131D01*
X127411455Y-78967222D01*
X127294566Y-78897595D01*
X127476732Y-78775875D01*
X127683575Y-78569032D01*
X127846090Y-78325811D01*
X127958032Y-78055558D01*
X128015100Y-77768660D01*
X128015100Y-77476140D01*
X127958032Y-77189242D01*
X127846090Y-76918989D01*
X127683575Y-76675768D01*
X127476732Y-76468925D01*
X127302340Y-76352400D01*
X127476732Y-76235875D01*
X127683575Y-76029032D01*
X127846090Y-75785811D01*
X127958032Y-75515558D01*
X128015100Y-75228660D01*
X128015100Y-74997343D01*
X138366500Y-74997343D01*
X138366500Y-75167457D01*
X138399687Y-75334303D01*
X138464787Y-75491468D01*
X138559298Y-75632913D01*
X138679587Y-75753202D01*
X138821032Y-75847713D01*
X138978197Y-75912813D01*
X139145043Y-75946000D01*
X139315157Y-75946000D01*
X139482003Y-75912813D01*
X139639168Y-75847713D01*
X139780613Y-75753202D01*
X139900902Y-75632913D01*
X139995413Y-75491468D01*
X140060513Y-75334303D01*
X140093700Y-75167457D01*
X140093700Y-74997343D01*
X140060513Y-74830497D01*
X139995413Y-74673332D01*
X139900902Y-74531887D01*
X139780613Y-74411598D01*
X139639168Y-74317087D01*
X139482003Y-74251987D01*
X139315157Y-74218800D01*
X139145043Y-74218800D01*
X138978197Y-74251987D01*
X138821032Y-74317087D01*
X138679587Y-74411598D01*
X138559298Y-74531887D01*
X138464787Y-74673332D01*
X138399687Y-74830497D01*
X138366500Y-74997343D01*
X128015100Y-74997343D01*
X128015100Y-74936140D01*
X127958032Y-74649242D01*
X127846090Y-74378989D01*
X127683575Y-74135768D01*
X127476732Y-73928925D01*
X127302340Y-73812400D01*
X127429636Y-73727343D01*
X129476500Y-73727343D01*
X129476500Y-73897457D01*
X129509687Y-74064303D01*
X129574787Y-74221468D01*
X129669298Y-74362913D01*
X129789587Y-74483202D01*
X129931032Y-74577713D01*
X130088197Y-74642813D01*
X130255043Y-74676000D01*
X130425157Y-74676000D01*
X130592003Y-74642813D01*
X130749168Y-74577713D01*
X130890613Y-74483202D01*
X131010902Y-74362913D01*
X131105413Y-74221468D01*
X131170513Y-74064303D01*
X131203700Y-73897457D01*
X131203700Y-73727343D01*
X131170513Y-73560497D01*
X131105413Y-73403332D01*
X131010902Y-73261887D01*
X130890613Y-73141598D01*
X130749168Y-73047087D01*
X130592003Y-72981987D01*
X130425157Y-72948800D01*
X130255043Y-72948800D01*
X130088197Y-72981987D01*
X129931032Y-73047087D01*
X129789587Y-73141598D01*
X129669298Y-73261887D01*
X129574787Y-73403332D01*
X129509687Y-73560497D01*
X129476500Y-73727343D01*
X127429636Y-73727343D01*
X127476732Y-73695875D01*
X127683575Y-73489032D01*
X127846090Y-73245811D01*
X127958032Y-72975558D01*
X128015100Y-72688660D01*
X128015100Y-72457343D01*
X128206500Y-72457343D01*
X128206500Y-72627457D01*
X128239687Y-72794303D01*
X128304787Y-72951468D01*
X128399298Y-73092913D01*
X128519587Y-73213202D01*
X128661032Y-73307713D01*
X128818197Y-73372813D01*
X128985043Y-73406000D01*
X129155157Y-73406000D01*
X129322003Y-73372813D01*
X129479168Y-73307713D01*
X129620613Y-73213202D01*
X129740902Y-73092913D01*
X129835413Y-72951468D01*
X129900513Y-72794303D01*
X129933700Y-72627457D01*
X129933700Y-72457343D01*
X129900513Y-72290497D01*
X129835413Y-72133332D01*
X129740902Y-71991887D01*
X129620613Y-71871598D01*
X129479168Y-71777087D01*
X129322003Y-71711987D01*
X129155157Y-71678800D01*
X128985043Y-71678800D01*
X128818197Y-71711987D01*
X128661032Y-71777087D01*
X128519587Y-71871598D01*
X128399298Y-71991887D01*
X128304787Y-72133332D01*
X128239687Y-72290497D01*
X128206500Y-72457343D01*
X128015100Y-72457343D01*
X128015100Y-72396140D01*
X127958032Y-72109242D01*
X127846090Y-71838989D01*
X127683575Y-71595768D01*
X127476732Y-71388925D01*
X127302340Y-71272400D01*
X127476732Y-71155875D01*
X127683575Y-70949032D01*
X127846090Y-70705811D01*
X127958032Y-70435558D01*
X128015100Y-70148660D01*
X128015100Y-69856140D01*
X127958032Y-69569242D01*
X127846090Y-69298989D01*
X127683575Y-69055768D01*
X127476732Y-68848925D01*
X127302340Y-68732400D01*
X127476732Y-68615875D01*
X127683575Y-68409032D01*
X127846090Y-68165811D01*
X127958032Y-67895558D01*
X128015100Y-67608660D01*
X128015100Y-67377343D01*
X139636500Y-67377343D01*
X139636500Y-67547457D01*
X139669687Y-67714303D01*
X139734787Y-67871468D01*
X139829298Y-68012913D01*
X139949587Y-68133202D01*
X140091032Y-68227713D01*
X140248197Y-68292813D01*
X140415043Y-68326000D01*
X140585157Y-68326000D01*
X140752003Y-68292813D01*
X140909168Y-68227713D01*
X141050613Y-68133202D01*
X141170902Y-68012913D01*
X141265413Y-67871468D01*
X141330513Y-67714303D01*
X141363700Y-67547457D01*
X141363700Y-67377343D01*
X141330513Y-67210497D01*
X141265413Y-67053332D01*
X141170902Y-66911887D01*
X141050613Y-66791598D01*
X140909168Y-66697087D01*
X140752003Y-66631987D01*
X140585157Y-66598800D01*
X140415043Y-66598800D01*
X140248197Y-66631987D01*
X140091032Y-66697087D01*
X139949587Y-66791598D01*
X139829298Y-66911887D01*
X139734787Y-67053332D01*
X139669687Y-67210497D01*
X139636500Y-67377343D01*
X128015100Y-67377343D01*
X128015100Y-67316140D01*
X127958032Y-67029242D01*
X127846090Y-66758989D01*
X127683575Y-66515768D01*
X127476732Y-66308925D01*
X127302340Y-66192400D01*
X127429636Y-66107343D01*
X135826500Y-66107343D01*
X135826500Y-66277457D01*
X135859687Y-66444303D01*
X135924787Y-66601468D01*
X136019298Y-66742913D01*
X136139587Y-66863202D01*
X136281032Y-66957713D01*
X136438197Y-67022813D01*
X136605043Y-67056000D01*
X136775157Y-67056000D01*
X136942003Y-67022813D01*
X137099168Y-66957713D01*
X137240613Y-66863202D01*
X137360902Y-66742913D01*
X137455413Y-66601468D01*
X137520513Y-66444303D01*
X137553700Y-66277457D01*
X137553700Y-66107343D01*
X137520513Y-65940497D01*
X137455413Y-65783332D01*
X137360902Y-65641887D01*
X137240613Y-65521598D01*
X137099168Y-65427087D01*
X136942003Y-65361987D01*
X136775157Y-65328800D01*
X136605043Y-65328800D01*
X136438197Y-65361987D01*
X136281032Y-65427087D01*
X136139587Y-65521598D01*
X136019298Y-65641887D01*
X135924787Y-65783332D01*
X135859687Y-65940497D01*
X135826500Y-66107343D01*
X127429636Y-66107343D01*
X127476732Y-66075875D01*
X127683575Y-65869032D01*
X127846090Y-65625811D01*
X127958032Y-65355558D01*
X128015100Y-65068660D01*
X128015100Y-64776140D01*
X127958032Y-64489242D01*
X127846090Y-64218989D01*
X127683575Y-63975768D01*
X127476732Y-63768925D01*
X127302340Y-63652400D01*
X127476732Y-63535875D01*
X127683575Y-63329032D01*
X127846090Y-63085811D01*
X127958032Y-62815558D01*
X128015100Y-62528660D01*
X128015100Y-62236140D01*
X127958032Y-61949242D01*
X127846090Y-61678989D01*
X127683575Y-61435768D01*
X127476732Y-61228925D01*
X127233511Y-61066410D01*
X126963258Y-60954468D01*
X126676360Y-60897400D01*
X126383840Y-60897400D01*
X126096942Y-60954468D01*
X125826689Y-61066410D01*
X125583468Y-61228925D01*
X125451613Y-61360780D01*
X125429602Y-61288220D01*
X125370637Y-61177906D01*
X125291285Y-61081215D01*
X125194594Y-61001863D01*
X125084280Y-60942898D01*
X124964582Y-60906588D01*
X124840100Y-60894328D01*
X124275850Y-60897400D01*
X124117100Y-61056150D01*
X124117100Y-62255400D01*
X124137100Y-62255400D01*
X124137100Y-62509400D01*
X124117100Y-62509400D01*
X124117100Y-62529400D01*
X123863100Y-62529400D01*
X123863100Y-62509400D01*
X122663850Y-62509400D01*
X122505100Y-62668150D01*
X122502028Y-63232400D01*
X120307100Y-63232400D01*
X120307100Y-62917822D01*
X120319322Y-62892214D01*
X120365058Y-62741426D01*
X120307100Y-62630417D01*
X120307100Y-62134383D01*
X120365058Y-62023374D01*
X120319322Y-61872586D01*
X120307100Y-61846978D01*
X120307100Y-61532400D01*
X122502028Y-61532400D01*
X122505100Y-62096650D01*
X122663850Y-62255400D01*
X123863100Y-62255400D01*
X123863100Y-61056150D01*
X123704350Y-60897400D01*
X123140100Y-60894328D01*
X123015618Y-60906588D01*
X122895920Y-60942898D01*
X122785606Y-61001863D01*
X122688915Y-61081215D01*
X122609563Y-61177906D01*
X122550598Y-61288220D01*
X122514288Y-61407918D01*
X122502028Y-61532400D01*
X120307100Y-61532400D01*
X120307100Y-61112400D01*
X120304660Y-61087624D01*
X120297433Y-61063799D01*
X120285697Y-61041843D01*
X120269903Y-61022597D01*
X120250657Y-61006803D01*
X120228701Y-60995067D01*
X120204876Y-60987840D01*
X120180100Y-60985400D01*
X119432934Y-60985400D01*
X119269127Y-60927437D01*
X119157516Y-60985400D01*
X118662684Y-60985400D01*
X118551073Y-60927437D01*
X118387266Y-60985400D01*
X117582838Y-60985400D01*
X117477880Y-60929298D01*
X117358182Y-60892988D01*
X117233700Y-60880728D01*
X116655850Y-60883800D01*
X116554250Y-60985400D01*
X116185950Y-60985400D01*
X116084350Y-60883800D01*
X115506500Y-60880728D01*
X115382018Y-60892988D01*
X115262320Y-60929298D01*
X115227100Y-60948124D01*
X115227100Y-59757343D01*
X126936500Y-59757343D01*
X126936500Y-59927457D01*
X126969687Y-60094303D01*
X127034787Y-60251468D01*
X127129298Y-60392913D01*
X127249587Y-60513202D01*
X127391032Y-60607713D01*
X127548197Y-60672813D01*
X127715043Y-60706000D01*
X127885157Y-60706000D01*
X128052003Y-60672813D01*
X128209168Y-60607713D01*
X128350613Y-60513202D01*
X128470902Y-60392913D01*
X128565413Y-60251468D01*
X128630513Y-60094303D01*
X128663700Y-59927457D01*
X128663700Y-59757343D01*
X128630513Y-59590497D01*
X128565413Y-59433332D01*
X128470902Y-59291887D01*
X128350613Y-59171598D01*
X128209168Y-59077087D01*
X128052003Y-59011987D01*
X127885157Y-58978800D01*
X127715043Y-58978800D01*
X127548197Y-59011987D01*
X127391032Y-59077087D01*
X127249587Y-59171598D01*
X127129298Y-59291887D01*
X127034787Y-59433332D01*
X126969687Y-59590497D01*
X126936500Y-59757343D01*
X115227100Y-59757343D01*
X115227100Y-56582343D01*
X126936500Y-56582343D01*
X126936500Y-56752457D01*
X126969687Y-56919303D01*
X127034787Y-57076468D01*
X127129298Y-57217913D01*
X127249587Y-57338202D01*
X127391032Y-57432713D01*
X127548197Y-57497813D01*
X127715043Y-57531000D01*
X127885157Y-57531000D01*
X128052003Y-57497813D01*
X128209168Y-57432713D01*
X128350613Y-57338202D01*
X128470902Y-57217913D01*
X128565413Y-57076468D01*
X128630513Y-56919303D01*
X128663700Y-56752457D01*
X128663700Y-56582343D01*
X128630513Y-56415497D01*
X128565413Y-56258332D01*
X128470902Y-56116887D01*
X128350613Y-55996598D01*
X128209168Y-55902087D01*
X128052003Y-55836987D01*
X127885157Y-55803800D01*
X127715043Y-55803800D01*
X127548197Y-55836987D01*
X127391032Y-55902087D01*
X127249587Y-55996598D01*
X127129298Y-56116887D01*
X127034787Y-56258332D01*
X126969687Y-56415497D01*
X126936500Y-56582343D01*
X115227100Y-56582343D01*
X115227100Y-52772343D01*
X119951500Y-52772343D01*
X119951500Y-52942457D01*
X119984687Y-53109303D01*
X120049787Y-53266468D01*
X120144298Y-53407913D01*
X120264587Y-53528202D01*
X120406032Y-53622713D01*
X120563197Y-53687813D01*
X120688523Y-53712741D01*
X120684787Y-53718332D01*
X120619687Y-53875497D01*
X120586500Y-54042343D01*
X120586500Y-54212457D01*
X120619687Y-54379303D01*
X120684787Y-54536468D01*
X120779298Y-54677913D01*
X120899587Y-54798202D01*
X121041032Y-54892713D01*
X121198197Y-54957813D01*
X121365043Y-54991000D01*
X121535157Y-54991000D01*
X121702003Y-54957813D01*
X121859168Y-54892713D01*
X122000613Y-54798202D01*
X122120902Y-54677913D01*
X122121282Y-54677343D01*
X131381500Y-54677343D01*
X131381500Y-54847457D01*
X131414687Y-55014303D01*
X131479787Y-55171468D01*
X131574298Y-55312913D01*
X131694587Y-55433202D01*
X131836032Y-55527713D01*
X131993197Y-55592813D01*
X132160043Y-55626000D01*
X132330157Y-55626000D01*
X132497003Y-55592813D01*
X132654168Y-55527713D01*
X132795613Y-55433202D01*
X132915902Y-55312913D01*
X133010413Y-55171468D01*
X133075513Y-55014303D01*
X133108700Y-54847457D01*
X133108700Y-54677343D01*
X133075513Y-54510497D01*
X133010413Y-54353332D01*
X132915902Y-54211887D01*
X132795613Y-54091598D01*
X132654168Y-53997087D01*
X132497003Y-53931987D01*
X132330157Y-53898800D01*
X132160043Y-53898800D01*
X131993197Y-53931987D01*
X131836032Y-53997087D01*
X131694587Y-54091598D01*
X131574298Y-54211887D01*
X131479787Y-54353332D01*
X131414687Y-54510497D01*
X131381500Y-54677343D01*
X122121282Y-54677343D01*
X122215413Y-54536468D01*
X122280513Y-54379303D01*
X122313700Y-54212457D01*
X122313700Y-54042343D01*
X122280513Y-53875497D01*
X122215413Y-53718332D01*
X122120902Y-53576887D01*
X122000613Y-53456598D01*
X121859168Y-53362087D01*
X121702003Y-53296987D01*
X121576677Y-53272059D01*
X121580413Y-53266468D01*
X121645513Y-53109303D01*
X121678700Y-52942457D01*
X121678700Y-52772343D01*
X121645513Y-52605497D01*
X121580413Y-52448332D01*
X121485902Y-52306887D01*
X121365613Y-52186598D01*
X121291899Y-52137343D01*
X126936500Y-52137343D01*
X126936500Y-52307457D01*
X126969687Y-52474303D01*
X127034787Y-52631468D01*
X127129298Y-52772913D01*
X127249587Y-52893202D01*
X127391032Y-52987713D01*
X127548197Y-53052813D01*
X127715043Y-53086000D01*
X127885157Y-53086000D01*
X128052003Y-53052813D01*
X128209168Y-52987713D01*
X128350613Y-52893202D01*
X128470902Y-52772913D01*
X128565413Y-52631468D01*
X128630513Y-52474303D01*
X128663700Y-52307457D01*
X128663700Y-52137343D01*
X131381500Y-52137343D01*
X131381500Y-52307457D01*
X131414687Y-52474303D01*
X131479787Y-52631468D01*
X131574298Y-52772913D01*
X131694587Y-52893202D01*
X131836032Y-52987713D01*
X131993197Y-53052813D01*
X132160043Y-53086000D01*
X132330157Y-53086000D01*
X132497003Y-53052813D01*
X132654168Y-52987713D01*
X132795613Y-52893202D01*
X132915902Y-52772913D01*
X133010413Y-52631468D01*
X133075513Y-52474303D01*
X133108700Y-52307457D01*
X133108700Y-52137343D01*
X133075513Y-51970497D01*
X133010413Y-51813332D01*
X132915902Y-51671887D01*
X132795613Y-51551598D01*
X132654168Y-51457087D01*
X132497003Y-51391987D01*
X132330157Y-51358800D01*
X132160043Y-51358800D01*
X131993197Y-51391987D01*
X131836032Y-51457087D01*
X131694587Y-51551598D01*
X131574298Y-51671887D01*
X131479787Y-51813332D01*
X131414687Y-51970497D01*
X131381500Y-52137343D01*
X128663700Y-52137343D01*
X128630513Y-51970497D01*
X128565413Y-51813332D01*
X128470902Y-51671887D01*
X128350613Y-51551598D01*
X128209168Y-51457087D01*
X128052003Y-51391987D01*
X127885157Y-51358800D01*
X127715043Y-51358800D01*
X127548197Y-51391987D01*
X127391032Y-51457087D01*
X127249587Y-51551598D01*
X127129298Y-51671887D01*
X127034787Y-51813332D01*
X126969687Y-51970497D01*
X126936500Y-52137343D01*
X121291899Y-52137343D01*
X121224168Y-52092087D01*
X121067003Y-52026987D01*
X120900157Y-51993800D01*
X120730043Y-51993800D01*
X120563197Y-52026987D01*
X120406032Y-52092087D01*
X120264587Y-52186598D01*
X120144298Y-52306887D01*
X120049787Y-52448332D01*
X119984687Y-52605497D01*
X119951500Y-52772343D01*
X115227100Y-52772343D01*
X115227100Y-49026801D01*
X117411500Y-49026801D01*
X117411500Y-49321999D01*
X117469090Y-49611525D01*
X117582058Y-49884253D01*
X117746061Y-50129702D01*
X117954798Y-50338439D01*
X118200247Y-50502442D01*
X118472975Y-50615410D01*
X118762501Y-50673000D01*
X119057699Y-50673000D01*
X119347225Y-50615410D01*
X119619953Y-50502442D01*
X119865402Y-50338439D01*
X120074139Y-50129702D01*
X120238142Y-49884253D01*
X120351110Y-49611525D01*
X120353930Y-49597343D01*
X131381500Y-49597343D01*
X131381500Y-49767457D01*
X131414687Y-49934303D01*
X131479787Y-50091468D01*
X131574298Y-50232913D01*
X131694587Y-50353202D01*
X131836032Y-50447713D01*
X131993197Y-50512813D01*
X132160043Y-50546000D01*
X132330157Y-50546000D01*
X132497003Y-50512813D01*
X132654168Y-50447713D01*
X132795613Y-50353202D01*
X132915902Y-50232913D01*
X133010413Y-50091468D01*
X133075513Y-49934303D01*
X133108700Y-49767457D01*
X133108700Y-49597343D01*
X133075513Y-49430497D01*
X133010413Y-49273332D01*
X132915902Y-49131887D01*
X132795613Y-49011598D01*
X132654168Y-48917087D01*
X132497003Y-48851987D01*
X132330157Y-48818800D01*
X132160043Y-48818800D01*
X131993197Y-48851987D01*
X131836032Y-48917087D01*
X131694587Y-49011598D01*
X131574298Y-49131887D01*
X131479787Y-49273332D01*
X131414687Y-49430497D01*
X131381500Y-49597343D01*
X120353930Y-49597343D01*
X120408700Y-49321999D01*
X120408700Y-49026801D01*
X120351110Y-48737275D01*
X120238142Y-48464547D01*
X120074139Y-48219098D01*
X119865402Y-48010361D01*
X119619953Y-47846358D01*
X119347225Y-47733390D01*
X119057699Y-47675800D01*
X118762501Y-47675800D01*
X118472975Y-47733390D01*
X118200247Y-47846358D01*
X117954798Y-48010361D01*
X117746061Y-48219098D01*
X117582058Y-48464547D01*
X117469090Y-48737275D01*
X117411500Y-49026801D01*
X115227100Y-49026801D01*
X115227100Y-48465006D01*
X120232706Y-43459400D01*
X134023100Y-43459400D01*
X134023100Y-64922400D01*
%TA.AperFunction,Conductor*%
D18*
G36*
X134023100Y-64922400D02*
G01*
X134025540Y-64947176D01*
X134032767Y-64971001D01*
X134044503Y-64992957D01*
X134060297Y-65012203D01*
X134079543Y-65027997D01*
X134101499Y-65039733D01*
X134125324Y-65046960D01*
X134150100Y-65049400D01*
X160693100Y-65049400D01*
X160693100Y-97815400D01*
X120408700Y-97815400D01*
X120408700Y-97794801D01*
X120351110Y-97505275D01*
X120307100Y-97399026D01*
X120307100Y-95945774D01*
X120351110Y-95839525D01*
X120408700Y-95549999D01*
X120408700Y-95254801D01*
X120351110Y-94965275D01*
X120307100Y-94859026D01*
X120307100Y-93405774D01*
X120351110Y-93299525D01*
X120408700Y-93009999D01*
X120408700Y-92714801D01*
X120351110Y-92425275D01*
X120307100Y-92319026D01*
X120307100Y-90865774D01*
X120351110Y-90759525D01*
X120408700Y-90469999D01*
X120408700Y-90174801D01*
X120351110Y-89885275D01*
X120307100Y-89779026D01*
X120307100Y-88325774D01*
X120351110Y-88219525D01*
X120408700Y-87929999D01*
X120408700Y-87634801D01*
X120351110Y-87345275D01*
X120307100Y-87239026D01*
X120307100Y-85785774D01*
X120351110Y-85679525D01*
X120408700Y-85389999D01*
X120408700Y-85094801D01*
X120351110Y-84805275D01*
X120307100Y-84699026D01*
X120307100Y-83245774D01*
X120351110Y-83139525D01*
X120408700Y-82849999D01*
X120408700Y-82554801D01*
X120351110Y-82265275D01*
X120307100Y-82159026D01*
X120307100Y-80705774D01*
X120351110Y-80599525D01*
X120408700Y-80309999D01*
X120408700Y-80014801D01*
X120351110Y-79725275D01*
X120307100Y-79619026D01*
X120307100Y-78165774D01*
X120351110Y-78059525D01*
X120408700Y-77769999D01*
X120408700Y-77474801D01*
X120351110Y-77185275D01*
X120307100Y-77079026D01*
X120307100Y-75625774D01*
X120351110Y-75519525D01*
X120408700Y-75229999D01*
X120408700Y-74934801D01*
X120351110Y-74645275D01*
X120307100Y-74539026D01*
X120307100Y-73085774D01*
X120351110Y-72979525D01*
X120408700Y-72689999D01*
X120408700Y-72394801D01*
X120351110Y-72105275D01*
X120307100Y-71999026D01*
X120307100Y-70545774D01*
X120351110Y-70439525D01*
X120408700Y-70149999D01*
X120408700Y-69854801D01*
X120351110Y-69565275D01*
X120307100Y-69459026D01*
X120307100Y-68005774D01*
X120351110Y-67899525D01*
X120408700Y-67609999D01*
X120408700Y-67314801D01*
X120351110Y-67025275D01*
X120307100Y-66919026D01*
X120307100Y-65465774D01*
X120351110Y-65359525D01*
X120408700Y-65069999D01*
X120408700Y-64774801D01*
X120351110Y-64485275D01*
X120307100Y-64379026D01*
X120307100Y-63232400D01*
X122502028Y-63232400D01*
X122514288Y-63356882D01*
X122550598Y-63476580D01*
X122609563Y-63586894D01*
X122688915Y-63683585D01*
X122785606Y-63762937D01*
X122895920Y-63821902D01*
X122968480Y-63843913D01*
X122836625Y-63975768D01*
X122674110Y-64218989D01*
X122562168Y-64489242D01*
X122505100Y-64776140D01*
X122505100Y-65068660D01*
X122562168Y-65355558D01*
X122674110Y-65625811D01*
X122836625Y-65869032D01*
X123043468Y-66075875D01*
X123217860Y-66192400D01*
X123043468Y-66308925D01*
X122836625Y-66515768D01*
X122674110Y-66758989D01*
X122562168Y-67029242D01*
X122505100Y-67316140D01*
X122505100Y-67608660D01*
X122562168Y-67895558D01*
X122674110Y-68165811D01*
X122836625Y-68409032D01*
X123043468Y-68615875D01*
X123217860Y-68732400D01*
X123043468Y-68848925D01*
X122836625Y-69055768D01*
X122674110Y-69298989D01*
X122562168Y-69569242D01*
X122505100Y-69856140D01*
X122505100Y-70148660D01*
X122562168Y-70435558D01*
X122674110Y-70705811D01*
X122836625Y-70949032D01*
X123043468Y-71155875D01*
X123217860Y-71272400D01*
X123043468Y-71388925D01*
X122836625Y-71595768D01*
X122674110Y-71838989D01*
X122562168Y-72109242D01*
X122505100Y-72396140D01*
X122505100Y-72688660D01*
X122562168Y-72975558D01*
X122674110Y-73245811D01*
X122836625Y-73489032D01*
X123043468Y-73695875D01*
X123217860Y-73812400D01*
X123043468Y-73928925D01*
X122836625Y-74135768D01*
X122674110Y-74378989D01*
X122562168Y-74649242D01*
X122505100Y-74936140D01*
X122505100Y-75228660D01*
X122562168Y-75515558D01*
X122674110Y-75785811D01*
X122836625Y-76029032D01*
X123043468Y-76235875D01*
X123217860Y-76352400D01*
X123043468Y-76468925D01*
X122836625Y-76675768D01*
X122674110Y-76918989D01*
X122562168Y-77189242D01*
X122505100Y-77476140D01*
X122505100Y-77768660D01*
X122562168Y-78055558D01*
X122674110Y-78325811D01*
X122836625Y-78569032D01*
X123043468Y-78775875D01*
X123217860Y-78892400D01*
X123043468Y-79008925D01*
X122836625Y-79215768D01*
X122674110Y-79458989D01*
X122562168Y-79729242D01*
X122505100Y-80016140D01*
X122505100Y-80308660D01*
X122562168Y-80595558D01*
X122674110Y-80865811D01*
X122836625Y-81109032D01*
X123043468Y-81315875D01*
X123217860Y-81432400D01*
X123043468Y-81548925D01*
X122836625Y-81755768D01*
X122674110Y-81998989D01*
X122562168Y-82269242D01*
X122505100Y-82556140D01*
X122505100Y-82848660D01*
X122562168Y-83135558D01*
X122674110Y-83405811D01*
X122836625Y-83649032D01*
X123043468Y-83855875D01*
X123217860Y-83972400D01*
X123043468Y-84088925D01*
X122836625Y-84295768D01*
X122674110Y-84538989D01*
X122562168Y-84809242D01*
X122505100Y-85096140D01*
X122505100Y-85388660D01*
X122562168Y-85675558D01*
X122674110Y-85945811D01*
X122836625Y-86189032D01*
X123043468Y-86395875D01*
X123217860Y-86512400D01*
X123043468Y-86628925D01*
X122836625Y-86835768D01*
X122674110Y-87078989D01*
X122562168Y-87349242D01*
X122505100Y-87636140D01*
X122505100Y-87928660D01*
X122562168Y-88215558D01*
X122674110Y-88485811D01*
X122836625Y-88729032D01*
X123043468Y-88935875D01*
X123217860Y-89052400D01*
X123043468Y-89168925D01*
X122836625Y-89375768D01*
X122674110Y-89618989D01*
X122562168Y-89889242D01*
X122505100Y-90176140D01*
X122505100Y-90468660D01*
X122562168Y-90755558D01*
X122674110Y-91025811D01*
X122836625Y-91269032D01*
X123043468Y-91475875D01*
X123217860Y-91592400D01*
X123043468Y-91708925D01*
X122836625Y-91915768D01*
X122674110Y-92158989D01*
X122562168Y-92429242D01*
X122505100Y-92716140D01*
X122505100Y-93008660D01*
X122562168Y-93295558D01*
X122674110Y-93565811D01*
X122836625Y-93809032D01*
X123043468Y-94015875D01*
X123217860Y-94132400D01*
X123043468Y-94248925D01*
X122836625Y-94455768D01*
X122674110Y-94698989D01*
X122562168Y-94969242D01*
X122505100Y-95256140D01*
X122505100Y-95548660D01*
X122562168Y-95835558D01*
X122674110Y-96105811D01*
X122836625Y-96349032D01*
X123043468Y-96555875D01*
X123286689Y-96718390D01*
X123556942Y-96830332D01*
X123843840Y-96887400D01*
X124136360Y-96887400D01*
X124423258Y-96830332D01*
X124693511Y-96718390D01*
X124936732Y-96555875D01*
X125143575Y-96349032D01*
X125260100Y-96174640D01*
X125376625Y-96349032D01*
X125583468Y-96555875D01*
X125826689Y-96718390D01*
X126096942Y-96830332D01*
X126383840Y-96887400D01*
X126676360Y-96887400D01*
X126963258Y-96830332D01*
X127233511Y-96718390D01*
X127476732Y-96555875D01*
X127683575Y-96349032D01*
X127846090Y-96105811D01*
X127958032Y-95835558D01*
X128015100Y-95548660D01*
X128015100Y-95256140D01*
X127958032Y-94969242D01*
X127846090Y-94698989D01*
X127683575Y-94455768D01*
X127476732Y-94248925D01*
X127302340Y-94132400D01*
X127429636Y-94047343D01*
X140906500Y-94047343D01*
X140906500Y-94217457D01*
X140939687Y-94384303D01*
X141004787Y-94541468D01*
X141099298Y-94682913D01*
X141219587Y-94803202D01*
X141361032Y-94897713D01*
X141518197Y-94962813D01*
X141685043Y-94996000D01*
X141855157Y-94996000D01*
X142022003Y-94962813D01*
X142179168Y-94897713D01*
X142320613Y-94803202D01*
X142440902Y-94682913D01*
X142535413Y-94541468D01*
X142600513Y-94384303D01*
X142633700Y-94217457D01*
X142633700Y-94047343D01*
X142600513Y-93880497D01*
X142535413Y-93723332D01*
X142440902Y-93581887D01*
X142320613Y-93461598D01*
X142179168Y-93367087D01*
X142022003Y-93301987D01*
X141855157Y-93268800D01*
X141685043Y-93268800D01*
X141518197Y-93301987D01*
X141361032Y-93367087D01*
X141219587Y-93461598D01*
X141099298Y-93581887D01*
X141004787Y-93723332D01*
X140939687Y-93880497D01*
X140906500Y-94047343D01*
X127429636Y-94047343D01*
X127476732Y-94015875D01*
X127683575Y-93809032D01*
X127846090Y-93565811D01*
X127958032Y-93295558D01*
X128015100Y-93008660D01*
X128015100Y-92716140D01*
X127958032Y-92429242D01*
X127846090Y-92158989D01*
X127683575Y-91915768D01*
X127476732Y-91708925D01*
X127302340Y-91592400D01*
X127476732Y-91475875D01*
X127683575Y-91269032D01*
X127846090Y-91025811D01*
X127958032Y-90755558D01*
X128015100Y-90468660D01*
X128015100Y-90237343D01*
X128206500Y-90237343D01*
X128206500Y-90407457D01*
X128239687Y-90574303D01*
X128304787Y-90731468D01*
X128399298Y-90872913D01*
X128519587Y-90993202D01*
X128661032Y-91087713D01*
X128818197Y-91152813D01*
X128985043Y-91186000D01*
X129155157Y-91186000D01*
X129322003Y-91152813D01*
X129479168Y-91087713D01*
X129620613Y-90993202D01*
X129740902Y-90872913D01*
X129835413Y-90731468D01*
X129900513Y-90574303D01*
X129933700Y-90407457D01*
X129933700Y-90237343D01*
X135826500Y-90237343D01*
X135826500Y-90407457D01*
X135859687Y-90574303D01*
X135924787Y-90731468D01*
X136019298Y-90872913D01*
X136139587Y-90993202D01*
X136281032Y-91087713D01*
X136438197Y-91152813D01*
X136605043Y-91186000D01*
X136775157Y-91186000D01*
X136942003Y-91152813D01*
X137099168Y-91087713D01*
X137240613Y-90993202D01*
X137360902Y-90872913D01*
X137455413Y-90731468D01*
X137520513Y-90574303D01*
X137553700Y-90407457D01*
X137553700Y-90237343D01*
X137520513Y-90070497D01*
X137455413Y-89913332D01*
X137360902Y-89771887D01*
X137240613Y-89651598D01*
X137166899Y-89602343D01*
X144716500Y-89602343D01*
X144716500Y-89772457D01*
X144749687Y-89939303D01*
X144814787Y-90096468D01*
X144909298Y-90237913D01*
X145029587Y-90358202D01*
X145171032Y-90452713D01*
X145328197Y-90517813D01*
X145495043Y-90551000D01*
X145665157Y-90551000D01*
X145832003Y-90517813D01*
X145989168Y-90452713D01*
X146130613Y-90358202D01*
X146250902Y-90237913D01*
X146345413Y-90096468D01*
X146410513Y-89939303D01*
X146443700Y-89772457D01*
X146443700Y-89602343D01*
X146410513Y-89435497D01*
X146345413Y-89278332D01*
X146250902Y-89136887D01*
X146130613Y-89016598D01*
X145989168Y-88922087D01*
X145832003Y-88856987D01*
X145665157Y-88823800D01*
X145495043Y-88823800D01*
X145328197Y-88856987D01*
X145171032Y-88922087D01*
X145029587Y-89016598D01*
X144909298Y-89136887D01*
X144814787Y-89278332D01*
X144749687Y-89435497D01*
X144716500Y-89602343D01*
X137166899Y-89602343D01*
X137099168Y-89557087D01*
X136942003Y-89491987D01*
X136775157Y-89458800D01*
X136605043Y-89458800D01*
X136438197Y-89491987D01*
X136281032Y-89557087D01*
X136139587Y-89651598D01*
X136019298Y-89771887D01*
X135924787Y-89913332D01*
X135859687Y-90070497D01*
X135826500Y-90237343D01*
X129933700Y-90237343D01*
X129900513Y-90070497D01*
X129835413Y-89913332D01*
X129740902Y-89771887D01*
X129620613Y-89651598D01*
X129479168Y-89557087D01*
X129322003Y-89491987D01*
X129155157Y-89458800D01*
X128985043Y-89458800D01*
X128818197Y-89491987D01*
X128661032Y-89557087D01*
X128519587Y-89651598D01*
X128399298Y-89771887D01*
X128304787Y-89913332D01*
X128239687Y-90070497D01*
X128206500Y-90237343D01*
X128015100Y-90237343D01*
X128015100Y-90176140D01*
X127958032Y-89889242D01*
X127846090Y-89618989D01*
X127683575Y-89375768D01*
X127476732Y-89168925D01*
X127302340Y-89052400D01*
X127476732Y-88935875D01*
X127683575Y-88729032D01*
X127846090Y-88485811D01*
X127958032Y-88215558D01*
X128015100Y-87928660D01*
X128015100Y-87636140D01*
X127958032Y-87349242D01*
X127846090Y-87078989D01*
X127683575Y-86835768D01*
X127476732Y-86628925D01*
X127302340Y-86512400D01*
X127429636Y-86427343D01*
X128206500Y-86427343D01*
X128206500Y-86597457D01*
X128239687Y-86764303D01*
X128304787Y-86921468D01*
X128399298Y-87062913D01*
X128519587Y-87183202D01*
X128661032Y-87277713D01*
X128818197Y-87342813D01*
X128985043Y-87376000D01*
X129155157Y-87376000D01*
X129322003Y-87342813D01*
X129479168Y-87277713D01*
X129620613Y-87183202D01*
X129740902Y-87062913D01*
X129835413Y-86921468D01*
X129900513Y-86764303D01*
X129933700Y-86597457D01*
X129933700Y-86427343D01*
X129900513Y-86260497D01*
X129835413Y-86103332D01*
X129740902Y-85961887D01*
X129620613Y-85841598D01*
X129479168Y-85747087D01*
X129322003Y-85681987D01*
X129155157Y-85648800D01*
X128985043Y-85648800D01*
X128818197Y-85681987D01*
X128661032Y-85747087D01*
X128519587Y-85841598D01*
X128399298Y-85961887D01*
X128304787Y-86103332D01*
X128239687Y-86260497D01*
X128206500Y-86427343D01*
X127429636Y-86427343D01*
X127476732Y-86395875D01*
X127683575Y-86189032D01*
X127846090Y-85945811D01*
X127958032Y-85675558D01*
X128015100Y-85388660D01*
X128015100Y-85157343D01*
X135826500Y-85157343D01*
X135826500Y-85327457D01*
X135859687Y-85494303D01*
X135924787Y-85651468D01*
X136019298Y-85792913D01*
X136139587Y-85913202D01*
X136281032Y-86007713D01*
X136438197Y-86072813D01*
X136605043Y-86106000D01*
X136775157Y-86106000D01*
X136942003Y-86072813D01*
X137099168Y-86007713D01*
X137240613Y-85913202D01*
X137360902Y-85792913D01*
X137455413Y-85651468D01*
X137520513Y-85494303D01*
X137553700Y-85327457D01*
X137553700Y-85157343D01*
X137520513Y-84990497D01*
X137455413Y-84833332D01*
X137360902Y-84691887D01*
X137240613Y-84571598D01*
X137099168Y-84477087D01*
X136942003Y-84411987D01*
X136775157Y-84378800D01*
X136605043Y-84378800D01*
X136438197Y-84411987D01*
X136281032Y-84477087D01*
X136139587Y-84571598D01*
X136019298Y-84691887D01*
X135924787Y-84833332D01*
X135859687Y-84990497D01*
X135826500Y-85157343D01*
X128015100Y-85157343D01*
X128015100Y-85096140D01*
X127958032Y-84809242D01*
X127846090Y-84538989D01*
X127683575Y-84295768D01*
X127476732Y-84088925D01*
X127302340Y-83972400D01*
X127476732Y-83855875D01*
X127683575Y-83649032D01*
X127846090Y-83405811D01*
X127958032Y-83135558D01*
X128015100Y-82848660D01*
X128015100Y-82617343D01*
X128206500Y-82617343D01*
X128206500Y-82787457D01*
X128239687Y-82954303D01*
X128304787Y-83111468D01*
X128399298Y-83252913D01*
X128519587Y-83373202D01*
X128661032Y-83467713D01*
X128818197Y-83532813D01*
X128985043Y-83566000D01*
X129155157Y-83566000D01*
X129322003Y-83532813D01*
X129479168Y-83467713D01*
X129620613Y-83373202D01*
X129740902Y-83252913D01*
X129835413Y-83111468D01*
X129900513Y-82954303D01*
X129933700Y-82787457D01*
X129933700Y-82617343D01*
X129900513Y-82450497D01*
X129835413Y-82293332D01*
X129740902Y-82151887D01*
X129620613Y-82031598D01*
X129479168Y-81937087D01*
X129322003Y-81871987D01*
X129155157Y-81838800D01*
X128985043Y-81838800D01*
X128818197Y-81871987D01*
X128661032Y-81937087D01*
X128519587Y-82031598D01*
X128399298Y-82151887D01*
X128304787Y-82293332D01*
X128239687Y-82450497D01*
X128206500Y-82617343D01*
X128015100Y-82617343D01*
X128015100Y-82556140D01*
X127958032Y-82269242D01*
X127846090Y-81998989D01*
X127683575Y-81755768D01*
X127476732Y-81548925D01*
X127294566Y-81427205D01*
X127411455Y-81357578D01*
X127422809Y-81347343D01*
X130746500Y-81347343D01*
X130746500Y-81517457D01*
X130779687Y-81684303D01*
X130844787Y-81841468D01*
X130939298Y-81982913D01*
X131059587Y-82103202D01*
X131201032Y-82197713D01*
X131358197Y-82262813D01*
X131525043Y-82296000D01*
X131695157Y-82296000D01*
X131862003Y-82262813D01*
X132019168Y-82197713D01*
X132160613Y-82103202D01*
X132280902Y-81982913D01*
X132375413Y-81841468D01*
X132440513Y-81684303D01*
X132473700Y-81517457D01*
X132473700Y-81347343D01*
X132440513Y-81180497D01*
X132375413Y-81023332D01*
X132280902Y-80881887D01*
X132160613Y-80761598D01*
X132019168Y-80667087D01*
X131862003Y-80601987D01*
X131695157Y-80568800D01*
X131525043Y-80568800D01*
X131358197Y-80601987D01*
X131201032Y-80667087D01*
X131059587Y-80761598D01*
X130939298Y-80881887D01*
X130844787Y-81023332D01*
X130779687Y-81180497D01*
X130746500Y-81347343D01*
X127422809Y-81347343D01*
X127627688Y-81162669D01*
X127801741Y-80929320D01*
X127926925Y-80666499D01*
X127971576Y-80519290D01*
X127850255Y-80289400D01*
X126657100Y-80289400D01*
X126657100Y-80309400D01*
X126403100Y-80309400D01*
X126403100Y-80289400D01*
X126383100Y-80289400D01*
X126383100Y-80035400D01*
X126403100Y-80035400D01*
X126403100Y-80015400D01*
X126657100Y-80015400D01*
X126657100Y-80035400D01*
X127850255Y-80035400D01*
X127971576Y-79805510D01*
X127926925Y-79658301D01*
X127801741Y-79395480D01*
X127627688Y-79162131D01*
X127411455Y-78967222D01*
X127294566Y-78897595D01*
X127476732Y-78775875D01*
X127683575Y-78569032D01*
X127846090Y-78325811D01*
X127958032Y-78055558D01*
X128015100Y-77768660D01*
X128015100Y-77476140D01*
X127958032Y-77189242D01*
X127846090Y-76918989D01*
X127683575Y-76675768D01*
X127476732Y-76468925D01*
X127302340Y-76352400D01*
X127476732Y-76235875D01*
X127683575Y-76029032D01*
X127846090Y-75785811D01*
X127958032Y-75515558D01*
X128015100Y-75228660D01*
X128015100Y-74997343D01*
X138366500Y-74997343D01*
X138366500Y-75167457D01*
X138399687Y-75334303D01*
X138464787Y-75491468D01*
X138559298Y-75632913D01*
X138679587Y-75753202D01*
X138821032Y-75847713D01*
X138978197Y-75912813D01*
X139145043Y-75946000D01*
X139315157Y-75946000D01*
X139482003Y-75912813D01*
X139639168Y-75847713D01*
X139780613Y-75753202D01*
X139900902Y-75632913D01*
X139995413Y-75491468D01*
X140060513Y-75334303D01*
X140093700Y-75167457D01*
X140093700Y-74997343D01*
X140060513Y-74830497D01*
X139995413Y-74673332D01*
X139900902Y-74531887D01*
X139780613Y-74411598D01*
X139639168Y-74317087D01*
X139482003Y-74251987D01*
X139315157Y-74218800D01*
X139145043Y-74218800D01*
X138978197Y-74251987D01*
X138821032Y-74317087D01*
X138679587Y-74411598D01*
X138559298Y-74531887D01*
X138464787Y-74673332D01*
X138399687Y-74830497D01*
X138366500Y-74997343D01*
X128015100Y-74997343D01*
X128015100Y-74936140D01*
X127958032Y-74649242D01*
X127846090Y-74378989D01*
X127683575Y-74135768D01*
X127476732Y-73928925D01*
X127302340Y-73812400D01*
X127429636Y-73727343D01*
X129476500Y-73727343D01*
X129476500Y-73897457D01*
X129509687Y-74064303D01*
X129574787Y-74221468D01*
X129669298Y-74362913D01*
X129789587Y-74483202D01*
X129931032Y-74577713D01*
X130088197Y-74642813D01*
X130255043Y-74676000D01*
X130425157Y-74676000D01*
X130592003Y-74642813D01*
X130749168Y-74577713D01*
X130890613Y-74483202D01*
X131010902Y-74362913D01*
X131105413Y-74221468D01*
X131170513Y-74064303D01*
X131203700Y-73897457D01*
X131203700Y-73727343D01*
X131170513Y-73560497D01*
X131105413Y-73403332D01*
X131010902Y-73261887D01*
X130890613Y-73141598D01*
X130749168Y-73047087D01*
X130592003Y-72981987D01*
X130425157Y-72948800D01*
X130255043Y-72948800D01*
X130088197Y-72981987D01*
X129931032Y-73047087D01*
X129789587Y-73141598D01*
X129669298Y-73261887D01*
X129574787Y-73403332D01*
X129509687Y-73560497D01*
X129476500Y-73727343D01*
X127429636Y-73727343D01*
X127476732Y-73695875D01*
X127683575Y-73489032D01*
X127846090Y-73245811D01*
X127958032Y-72975558D01*
X128015100Y-72688660D01*
X128015100Y-72457343D01*
X128206500Y-72457343D01*
X128206500Y-72627457D01*
X128239687Y-72794303D01*
X128304787Y-72951468D01*
X128399298Y-73092913D01*
X128519587Y-73213202D01*
X128661032Y-73307713D01*
X128818197Y-73372813D01*
X128985043Y-73406000D01*
X129155157Y-73406000D01*
X129322003Y-73372813D01*
X129479168Y-73307713D01*
X129620613Y-73213202D01*
X129740902Y-73092913D01*
X129835413Y-72951468D01*
X129900513Y-72794303D01*
X129933700Y-72627457D01*
X129933700Y-72457343D01*
X129900513Y-72290497D01*
X129835413Y-72133332D01*
X129740902Y-71991887D01*
X129620613Y-71871598D01*
X129479168Y-71777087D01*
X129322003Y-71711987D01*
X129155157Y-71678800D01*
X128985043Y-71678800D01*
X128818197Y-71711987D01*
X128661032Y-71777087D01*
X128519587Y-71871598D01*
X128399298Y-71991887D01*
X128304787Y-72133332D01*
X128239687Y-72290497D01*
X128206500Y-72457343D01*
X128015100Y-72457343D01*
X128015100Y-72396140D01*
X127958032Y-72109242D01*
X127846090Y-71838989D01*
X127683575Y-71595768D01*
X127476732Y-71388925D01*
X127302340Y-71272400D01*
X127476732Y-71155875D01*
X127683575Y-70949032D01*
X127846090Y-70705811D01*
X127958032Y-70435558D01*
X128015100Y-70148660D01*
X128015100Y-69856140D01*
X127958032Y-69569242D01*
X127846090Y-69298989D01*
X127683575Y-69055768D01*
X127476732Y-68848925D01*
X127302340Y-68732400D01*
X127476732Y-68615875D01*
X127683575Y-68409032D01*
X127846090Y-68165811D01*
X127958032Y-67895558D01*
X128015100Y-67608660D01*
X128015100Y-67377343D01*
X139636500Y-67377343D01*
X139636500Y-67547457D01*
X139669687Y-67714303D01*
X139734787Y-67871468D01*
X139829298Y-68012913D01*
X139949587Y-68133202D01*
X140091032Y-68227713D01*
X140248197Y-68292813D01*
X140415043Y-68326000D01*
X140585157Y-68326000D01*
X140752003Y-68292813D01*
X140909168Y-68227713D01*
X141050613Y-68133202D01*
X141170902Y-68012913D01*
X141265413Y-67871468D01*
X141330513Y-67714303D01*
X141363700Y-67547457D01*
X141363700Y-67377343D01*
X141330513Y-67210497D01*
X141265413Y-67053332D01*
X141170902Y-66911887D01*
X141050613Y-66791598D01*
X140909168Y-66697087D01*
X140752003Y-66631987D01*
X140585157Y-66598800D01*
X140415043Y-66598800D01*
X140248197Y-66631987D01*
X140091032Y-66697087D01*
X139949587Y-66791598D01*
X139829298Y-66911887D01*
X139734787Y-67053332D01*
X139669687Y-67210497D01*
X139636500Y-67377343D01*
X128015100Y-67377343D01*
X128015100Y-67316140D01*
X127958032Y-67029242D01*
X127846090Y-66758989D01*
X127683575Y-66515768D01*
X127476732Y-66308925D01*
X127302340Y-66192400D01*
X127429636Y-66107343D01*
X135826500Y-66107343D01*
X135826500Y-66277457D01*
X135859687Y-66444303D01*
X135924787Y-66601468D01*
X136019298Y-66742913D01*
X136139587Y-66863202D01*
X136281032Y-66957713D01*
X136438197Y-67022813D01*
X136605043Y-67056000D01*
X136775157Y-67056000D01*
X136942003Y-67022813D01*
X137099168Y-66957713D01*
X137240613Y-66863202D01*
X137360902Y-66742913D01*
X137455413Y-66601468D01*
X137520513Y-66444303D01*
X137553700Y-66277457D01*
X137553700Y-66107343D01*
X137520513Y-65940497D01*
X137455413Y-65783332D01*
X137360902Y-65641887D01*
X137240613Y-65521598D01*
X137099168Y-65427087D01*
X136942003Y-65361987D01*
X136775157Y-65328800D01*
X136605043Y-65328800D01*
X136438197Y-65361987D01*
X136281032Y-65427087D01*
X136139587Y-65521598D01*
X136019298Y-65641887D01*
X135924787Y-65783332D01*
X135859687Y-65940497D01*
X135826500Y-66107343D01*
X127429636Y-66107343D01*
X127476732Y-66075875D01*
X127683575Y-65869032D01*
X127846090Y-65625811D01*
X127958032Y-65355558D01*
X128015100Y-65068660D01*
X128015100Y-64776140D01*
X127958032Y-64489242D01*
X127846090Y-64218989D01*
X127683575Y-63975768D01*
X127476732Y-63768925D01*
X127302340Y-63652400D01*
X127476732Y-63535875D01*
X127683575Y-63329032D01*
X127846090Y-63085811D01*
X127958032Y-62815558D01*
X128015100Y-62528660D01*
X128015100Y-62236140D01*
X127958032Y-61949242D01*
X127846090Y-61678989D01*
X127683575Y-61435768D01*
X127476732Y-61228925D01*
X127233511Y-61066410D01*
X126963258Y-60954468D01*
X126676360Y-60897400D01*
X126383840Y-60897400D01*
X126096942Y-60954468D01*
X125826689Y-61066410D01*
X125583468Y-61228925D01*
X125451613Y-61360780D01*
X125429602Y-61288220D01*
X125370637Y-61177906D01*
X125291285Y-61081215D01*
X125194594Y-61001863D01*
X125084280Y-60942898D01*
X124964582Y-60906588D01*
X124840100Y-60894328D01*
X124275850Y-60897400D01*
X124117100Y-61056150D01*
X124117100Y-62255400D01*
X124137100Y-62255400D01*
X124137100Y-62509400D01*
X124117100Y-62509400D01*
X124117100Y-62529400D01*
X123863100Y-62529400D01*
X123863100Y-62509400D01*
X122663850Y-62509400D01*
X122505100Y-62668150D01*
X122502028Y-63232400D01*
X120307100Y-63232400D01*
X120307100Y-62917822D01*
X120319322Y-62892214D01*
X120365058Y-62741426D01*
X120307100Y-62630417D01*
X120307100Y-62134383D01*
X120365058Y-62023374D01*
X120319322Y-61872586D01*
X120307100Y-61846978D01*
X120307100Y-61532400D01*
X122502028Y-61532400D01*
X122505100Y-62096650D01*
X122663850Y-62255400D01*
X123863100Y-62255400D01*
X123863100Y-61056150D01*
X123704350Y-60897400D01*
X123140100Y-60894328D01*
X123015618Y-60906588D01*
X122895920Y-60942898D01*
X122785606Y-61001863D01*
X122688915Y-61081215D01*
X122609563Y-61177906D01*
X122550598Y-61288220D01*
X122514288Y-61407918D01*
X122502028Y-61532400D01*
X120307100Y-61532400D01*
X120307100Y-61112400D01*
X120304660Y-61087624D01*
X120297433Y-61063799D01*
X120285697Y-61041843D01*
X120269903Y-61022597D01*
X120250657Y-61006803D01*
X120228701Y-60995067D01*
X120204876Y-60987840D01*
X120180100Y-60985400D01*
X119432934Y-60985400D01*
X119269127Y-60927437D01*
X119157516Y-60985400D01*
X118662684Y-60985400D01*
X118551073Y-60927437D01*
X118387266Y-60985400D01*
X117582838Y-60985400D01*
X117477880Y-60929298D01*
X117358182Y-60892988D01*
X117233700Y-60880728D01*
X116655850Y-60883800D01*
X116554250Y-60985400D01*
X116185950Y-60985400D01*
X116084350Y-60883800D01*
X115506500Y-60880728D01*
X115382018Y-60892988D01*
X115262320Y-60929298D01*
X115227100Y-60948124D01*
X115227100Y-59757343D01*
X126936500Y-59757343D01*
X126936500Y-59927457D01*
X126969687Y-60094303D01*
X127034787Y-60251468D01*
X127129298Y-60392913D01*
X127249587Y-60513202D01*
X127391032Y-60607713D01*
X127548197Y-60672813D01*
X127715043Y-60706000D01*
X127885157Y-60706000D01*
X128052003Y-60672813D01*
X128209168Y-60607713D01*
X128350613Y-60513202D01*
X128470902Y-60392913D01*
X128565413Y-60251468D01*
X128630513Y-60094303D01*
X128663700Y-59927457D01*
X128663700Y-59757343D01*
X128630513Y-59590497D01*
X128565413Y-59433332D01*
X128470902Y-59291887D01*
X128350613Y-59171598D01*
X128209168Y-59077087D01*
X128052003Y-59011987D01*
X127885157Y-58978800D01*
X127715043Y-58978800D01*
X127548197Y-59011987D01*
X127391032Y-59077087D01*
X127249587Y-59171598D01*
X127129298Y-59291887D01*
X127034787Y-59433332D01*
X126969687Y-59590497D01*
X126936500Y-59757343D01*
X115227100Y-59757343D01*
X115227100Y-56582343D01*
X126936500Y-56582343D01*
X126936500Y-56752457D01*
X126969687Y-56919303D01*
X127034787Y-57076468D01*
X127129298Y-57217913D01*
X127249587Y-57338202D01*
X127391032Y-57432713D01*
X127548197Y-57497813D01*
X127715043Y-57531000D01*
X127885157Y-57531000D01*
X128052003Y-57497813D01*
X128209168Y-57432713D01*
X128350613Y-57338202D01*
X128470902Y-57217913D01*
X128565413Y-57076468D01*
X128630513Y-56919303D01*
X128663700Y-56752457D01*
X128663700Y-56582343D01*
X128630513Y-56415497D01*
X128565413Y-56258332D01*
X128470902Y-56116887D01*
X128350613Y-55996598D01*
X128209168Y-55902087D01*
X128052003Y-55836987D01*
X127885157Y-55803800D01*
X127715043Y-55803800D01*
X127548197Y-55836987D01*
X127391032Y-55902087D01*
X127249587Y-55996598D01*
X127129298Y-56116887D01*
X127034787Y-56258332D01*
X126969687Y-56415497D01*
X126936500Y-56582343D01*
X115227100Y-56582343D01*
X115227100Y-52772343D01*
X119951500Y-52772343D01*
X119951500Y-52942457D01*
X119984687Y-53109303D01*
X120049787Y-53266468D01*
X120144298Y-53407913D01*
X120264587Y-53528202D01*
X120406032Y-53622713D01*
X120563197Y-53687813D01*
X120688523Y-53712741D01*
X120684787Y-53718332D01*
X120619687Y-53875497D01*
X120586500Y-54042343D01*
X120586500Y-54212457D01*
X120619687Y-54379303D01*
X120684787Y-54536468D01*
X120779298Y-54677913D01*
X120899587Y-54798202D01*
X121041032Y-54892713D01*
X121198197Y-54957813D01*
X121365043Y-54991000D01*
X121535157Y-54991000D01*
X121702003Y-54957813D01*
X121859168Y-54892713D01*
X122000613Y-54798202D01*
X122120902Y-54677913D01*
X122121282Y-54677343D01*
X131381500Y-54677343D01*
X131381500Y-54847457D01*
X131414687Y-55014303D01*
X131479787Y-55171468D01*
X131574298Y-55312913D01*
X131694587Y-55433202D01*
X131836032Y-55527713D01*
X131993197Y-55592813D01*
X132160043Y-55626000D01*
X132330157Y-55626000D01*
X132497003Y-55592813D01*
X132654168Y-55527713D01*
X132795613Y-55433202D01*
X132915902Y-55312913D01*
X133010413Y-55171468D01*
X133075513Y-55014303D01*
X133108700Y-54847457D01*
X133108700Y-54677343D01*
X133075513Y-54510497D01*
X133010413Y-54353332D01*
X132915902Y-54211887D01*
X132795613Y-54091598D01*
X132654168Y-53997087D01*
X132497003Y-53931987D01*
X132330157Y-53898800D01*
X132160043Y-53898800D01*
X131993197Y-53931987D01*
X131836032Y-53997087D01*
X131694587Y-54091598D01*
X131574298Y-54211887D01*
X131479787Y-54353332D01*
X131414687Y-54510497D01*
X131381500Y-54677343D01*
X122121282Y-54677343D01*
X122215413Y-54536468D01*
X122280513Y-54379303D01*
X122313700Y-54212457D01*
X122313700Y-54042343D01*
X122280513Y-53875497D01*
X122215413Y-53718332D01*
X122120902Y-53576887D01*
X122000613Y-53456598D01*
X121859168Y-53362087D01*
X121702003Y-53296987D01*
X121576677Y-53272059D01*
X121580413Y-53266468D01*
X121645513Y-53109303D01*
X121678700Y-52942457D01*
X121678700Y-52772343D01*
X121645513Y-52605497D01*
X121580413Y-52448332D01*
X121485902Y-52306887D01*
X121365613Y-52186598D01*
X121291899Y-52137343D01*
X126936500Y-52137343D01*
X126936500Y-52307457D01*
X126969687Y-52474303D01*
X127034787Y-52631468D01*
X127129298Y-52772913D01*
X127249587Y-52893202D01*
X127391032Y-52987713D01*
X127548197Y-53052813D01*
X127715043Y-53086000D01*
X127885157Y-53086000D01*
X128052003Y-53052813D01*
X128209168Y-52987713D01*
X128350613Y-52893202D01*
X128470902Y-52772913D01*
X128565413Y-52631468D01*
X128630513Y-52474303D01*
X128663700Y-52307457D01*
X128663700Y-52137343D01*
X131381500Y-52137343D01*
X131381500Y-52307457D01*
X131414687Y-52474303D01*
X131479787Y-52631468D01*
X131574298Y-52772913D01*
X131694587Y-52893202D01*
X131836032Y-52987713D01*
X131993197Y-53052813D01*
X132160043Y-53086000D01*
X132330157Y-53086000D01*
X132497003Y-53052813D01*
X132654168Y-52987713D01*
X132795613Y-52893202D01*
X132915902Y-52772913D01*
X133010413Y-52631468D01*
X133075513Y-52474303D01*
X133108700Y-52307457D01*
X133108700Y-52137343D01*
X133075513Y-51970497D01*
X133010413Y-51813332D01*
X132915902Y-51671887D01*
X132795613Y-51551598D01*
X132654168Y-51457087D01*
X132497003Y-51391987D01*
X132330157Y-51358800D01*
X132160043Y-51358800D01*
X131993197Y-51391987D01*
X131836032Y-51457087D01*
X131694587Y-51551598D01*
X131574298Y-51671887D01*
X131479787Y-51813332D01*
X131414687Y-51970497D01*
X131381500Y-52137343D01*
X128663700Y-52137343D01*
X128630513Y-51970497D01*
X128565413Y-51813332D01*
X128470902Y-51671887D01*
X128350613Y-51551598D01*
X128209168Y-51457087D01*
X128052003Y-51391987D01*
X127885157Y-51358800D01*
X127715043Y-51358800D01*
X127548197Y-51391987D01*
X127391032Y-51457087D01*
X127249587Y-51551598D01*
X127129298Y-51671887D01*
X127034787Y-51813332D01*
X126969687Y-51970497D01*
X126936500Y-52137343D01*
X121291899Y-52137343D01*
X121224168Y-52092087D01*
X121067003Y-52026987D01*
X120900157Y-51993800D01*
X120730043Y-51993800D01*
X120563197Y-52026987D01*
X120406032Y-52092087D01*
X120264587Y-52186598D01*
X120144298Y-52306887D01*
X120049787Y-52448332D01*
X119984687Y-52605497D01*
X119951500Y-52772343D01*
X115227100Y-52772343D01*
X115227100Y-49026801D01*
X117411500Y-49026801D01*
X117411500Y-49321999D01*
X117469090Y-49611525D01*
X117582058Y-49884253D01*
X117746061Y-50129702D01*
X117954798Y-50338439D01*
X118200247Y-50502442D01*
X118472975Y-50615410D01*
X118762501Y-50673000D01*
X119057699Y-50673000D01*
X119347225Y-50615410D01*
X119619953Y-50502442D01*
X119865402Y-50338439D01*
X120074139Y-50129702D01*
X120238142Y-49884253D01*
X120351110Y-49611525D01*
X120353930Y-49597343D01*
X131381500Y-49597343D01*
X131381500Y-49767457D01*
X131414687Y-49934303D01*
X131479787Y-50091468D01*
X131574298Y-50232913D01*
X131694587Y-50353202D01*
X131836032Y-50447713D01*
X131993197Y-50512813D01*
X132160043Y-50546000D01*
X132330157Y-50546000D01*
X132497003Y-50512813D01*
X132654168Y-50447713D01*
X132795613Y-50353202D01*
X132915902Y-50232913D01*
X133010413Y-50091468D01*
X133075513Y-49934303D01*
X133108700Y-49767457D01*
X133108700Y-49597343D01*
X133075513Y-49430497D01*
X133010413Y-49273332D01*
X132915902Y-49131887D01*
X132795613Y-49011598D01*
X132654168Y-48917087D01*
X132497003Y-48851987D01*
X132330157Y-48818800D01*
X132160043Y-48818800D01*
X131993197Y-48851987D01*
X131836032Y-48917087D01*
X131694587Y-49011598D01*
X131574298Y-49131887D01*
X131479787Y-49273332D01*
X131414687Y-49430497D01*
X131381500Y-49597343D01*
X120353930Y-49597343D01*
X120408700Y-49321999D01*
X120408700Y-49026801D01*
X120351110Y-48737275D01*
X120238142Y-48464547D01*
X120074139Y-48219098D01*
X119865402Y-48010361D01*
X119619953Y-47846358D01*
X119347225Y-47733390D01*
X119057699Y-47675800D01*
X118762501Y-47675800D01*
X118472975Y-47733390D01*
X118200247Y-47846358D01*
X117954798Y-48010361D01*
X117746061Y-48219098D01*
X117582058Y-48464547D01*
X117469090Y-48737275D01*
X117411500Y-49026801D01*
X115227100Y-49026801D01*
X115227100Y-48465006D01*
X120232706Y-43459400D01*
X134023100Y-43459400D01*
X134023100Y-64922400D01*
G37*
%TD.AperFunction*%
%TD*%
M02*
