%TF.GenerationSoftware,KiCad,Pcbnew,5.1.9-73d0e3b20d~88~ubuntu18.04.1*%
%TF.CreationDate,2021-02-18T19:04:08+11:00*%
%TF.ProjectId,bbb,6262622e-6b69-4636-9164-5f7063625858,rev?*%
%TF.SameCoordinates,Original*%
%TF.FileFunction,Soldermask,Top*%
%TF.FilePolarity,Negative*%
%FSLAX46Y46*%
G04 Gerber Fmt 4.6, Leading zero omitted, Abs format (unit mm)*
G04 Created by KiCad (PCBNEW 5.1.9-73d0e3b20d~88~ubuntu18.04.1) date 2021-02-18 19:04:08*
%MOMM*%
%LPD*%
G01*
G04 APERTURE LIST*
%ADD10R,1.060000X0.650000*%
%ADD11R,1.400000X0.300000*%
%ADD12R,1.400000X1.200000*%
%ADD13R,1.727200X1.727200*%
%ADD14O,1.727200X1.727200*%
%ADD15R,2.290000X3.000000*%
%ADD16R,1.700000X1.700000*%
%ADD17O,1.700000X1.700000*%
G04 APERTURE END LIST*
%TO.C,C13*%
G36*
G01*
X117165100Y-52672400D02*
X118115100Y-52672400D01*
G75*
G02*
X118365100Y-52922400I0J-250000D01*
G01*
X118365100Y-53422400D01*
G75*
G02*
X118115100Y-53672400I-250000J0D01*
G01*
X117165100Y-53672400D01*
G75*
G02*
X116915100Y-53422400I0J250000D01*
G01*
X116915100Y-52922400D01*
G75*
G02*
X117165100Y-52672400I250000J0D01*
G01*
G37*
G36*
G01*
X117165100Y-50772400D02*
X118115100Y-50772400D01*
G75*
G02*
X118365100Y-51022400I0J-250000D01*
G01*
X118365100Y-51522400D01*
G75*
G02*
X118115100Y-51772400I-250000J0D01*
G01*
X117165100Y-51772400D01*
G75*
G02*
X116915100Y-51522400I0J250000D01*
G01*
X116915100Y-51022400D01*
G75*
G02*
X117165100Y-50772400I250000J0D01*
G01*
G37*
%TD*%
%TO.C,R11*%
G36*
G01*
X139630100Y-97122402D02*
X139630100Y-96222398D01*
G75*
G02*
X139880098Y-95972400I249998J0D01*
G01*
X140405102Y-95972400D01*
G75*
G02*
X140655100Y-96222398I0J-249998D01*
G01*
X140655100Y-97122402D01*
G75*
G02*
X140405102Y-97372400I-249998J0D01*
G01*
X139880098Y-97372400D01*
G75*
G02*
X139630100Y-97122402I0J249998D01*
G01*
G37*
G36*
G01*
X137805100Y-97122402D02*
X137805100Y-96222398D01*
G75*
G02*
X138055098Y-95972400I249998J0D01*
G01*
X138580102Y-95972400D01*
G75*
G02*
X138830100Y-96222398I0J-249998D01*
G01*
X138830100Y-97122402D01*
G75*
G02*
X138580102Y-97372400I-249998J0D01*
G01*
X138055098Y-97372400D01*
G75*
G02*
X137805100Y-97122402I0J249998D01*
G01*
G37*
%TD*%
%TO.C,R10*%
G36*
G01*
X141320098Y-69132400D02*
X142220102Y-69132400D01*
G75*
G02*
X142470100Y-69382398I0J-249998D01*
G01*
X142470100Y-69907402D01*
G75*
G02*
X142220102Y-70157400I-249998J0D01*
G01*
X141320098Y-70157400D01*
G75*
G02*
X141070100Y-69907402I0J249998D01*
G01*
X141070100Y-69382398D01*
G75*
G02*
X141320098Y-69132400I249998J0D01*
G01*
G37*
G36*
G01*
X141320098Y-67307400D02*
X142220102Y-67307400D01*
G75*
G02*
X142470100Y-67557398I0J-249998D01*
G01*
X142470100Y-68082402D01*
G75*
G02*
X142220102Y-68332400I-249998J0D01*
G01*
X141320098Y-68332400D01*
G75*
G02*
X141070100Y-68082402I0J249998D01*
G01*
X141070100Y-67557398D01*
G75*
G02*
X141320098Y-67307400I249998J0D01*
G01*
G37*
%TD*%
%TO.C,D2*%
G36*
G01*
X142690100Y-96416150D02*
X142690100Y-96928650D01*
G75*
G02*
X142471350Y-97147400I-218750J0D01*
G01*
X142033850Y-97147400D01*
G75*
G02*
X141815100Y-96928650I0J218750D01*
G01*
X141815100Y-96416150D01*
G75*
G02*
X142033850Y-96197400I218750J0D01*
G01*
X142471350Y-96197400D01*
G75*
G02*
X142690100Y-96416150I0J-218750D01*
G01*
G37*
G36*
G01*
X144265100Y-96416150D02*
X144265100Y-96928650D01*
G75*
G02*
X144046350Y-97147400I-218750J0D01*
G01*
X143608850Y-97147400D01*
G75*
G02*
X143390100Y-96928650I0J218750D01*
G01*
X143390100Y-96416150D01*
G75*
G02*
X143608850Y-96197400I218750J0D01*
G01*
X144046350Y-96197400D01*
G75*
G02*
X144265100Y-96416150I0J-218750D01*
G01*
G37*
%TD*%
%TO.C,D1*%
G36*
G01*
X144053850Y-69082400D02*
X144566350Y-69082400D01*
G75*
G02*
X144785100Y-69301150I0J-218750D01*
G01*
X144785100Y-69738650D01*
G75*
G02*
X144566350Y-69957400I-218750J0D01*
G01*
X144053850Y-69957400D01*
G75*
G02*
X143835100Y-69738650I0J218750D01*
G01*
X143835100Y-69301150D01*
G75*
G02*
X144053850Y-69082400I218750J0D01*
G01*
G37*
G36*
G01*
X144053850Y-67507400D02*
X144566350Y-67507400D01*
G75*
G02*
X144785100Y-67726150I0J-218750D01*
G01*
X144785100Y-68163650D01*
G75*
G02*
X144566350Y-68382400I-218750J0D01*
G01*
X144053850Y-68382400D01*
G75*
G02*
X143835100Y-68163650I0J218750D01*
G01*
X143835100Y-67726150D01*
G75*
G02*
X144053850Y-67507400I218750J0D01*
G01*
G37*
%TD*%
D10*
%TO.C,U1*%
X135250100Y-67782400D03*
X135250100Y-69682400D03*
X133050100Y-69682400D03*
X133050100Y-68732400D03*
X133050100Y-67782400D03*
%TD*%
%TO.C,C2*%
G36*
G01*
X130790100Y-69207400D02*
X130790100Y-68257400D01*
G75*
G02*
X131040100Y-68007400I250000J0D01*
G01*
X131540100Y-68007400D01*
G75*
G02*
X131790100Y-68257400I0J-250000D01*
G01*
X131790100Y-69207400D01*
G75*
G02*
X131540100Y-69457400I-250000J0D01*
G01*
X131040100Y-69457400D01*
G75*
G02*
X130790100Y-69207400I0J250000D01*
G01*
G37*
G36*
G01*
X128890100Y-69207400D02*
X128890100Y-68257400D01*
G75*
G02*
X129140100Y-68007400I250000J0D01*
G01*
X129640100Y-68007400D01*
G75*
G02*
X129890100Y-68257400I0J-250000D01*
G01*
X129890100Y-69207400D01*
G75*
G02*
X129640100Y-69457400I-250000J0D01*
G01*
X129140100Y-69457400D01*
G75*
G02*
X128890100Y-69207400I0J250000D01*
G01*
G37*
%TD*%
%TO.C,C1*%
G36*
G01*
X138410100Y-73017400D02*
X138410100Y-72067400D01*
G75*
G02*
X138660100Y-71817400I250000J0D01*
G01*
X139160100Y-71817400D01*
G75*
G02*
X139410100Y-72067400I0J-250000D01*
G01*
X139410100Y-73017400D01*
G75*
G02*
X139160100Y-73267400I-250000J0D01*
G01*
X138660100Y-73267400D01*
G75*
G02*
X138410100Y-73017400I0J250000D01*
G01*
G37*
G36*
G01*
X136510100Y-73017400D02*
X136510100Y-72067400D01*
G75*
G02*
X136760100Y-71817400I250000J0D01*
G01*
X137260100Y-71817400D01*
G75*
G02*
X137510100Y-72067400I0J-250000D01*
G01*
X137510100Y-73017400D01*
G75*
G02*
X137260100Y-73267400I-250000J0D01*
G01*
X136760100Y-73267400D01*
G75*
G02*
X136510100Y-73017400I0J250000D01*
G01*
G37*
%TD*%
D11*
%TO.C,U2*%
X127460100Y-55762400D03*
X127460100Y-55262400D03*
X127460100Y-54762400D03*
X127460100Y-54262400D03*
X127460100Y-53762400D03*
X123060100Y-53762400D03*
X123060100Y-54262400D03*
X123060100Y-54762400D03*
X123060100Y-55262400D03*
X123060100Y-55762400D03*
%TD*%
D12*
%TO.C,Y1*%
X124160100Y-48832400D03*
X126360100Y-48832400D03*
X126360100Y-50532400D03*
X124160100Y-50532400D03*
%TD*%
D13*
%TO.C,P1*%
X164630100Y-62382400D03*
D14*
X167170100Y-62382400D03*
X164630100Y-64922400D03*
X167170100Y-64922400D03*
X164630100Y-67462400D03*
X167170100Y-67462400D03*
X164630100Y-70002400D03*
X167170100Y-70002400D03*
X164630100Y-72542400D03*
X167170100Y-72542400D03*
X164630100Y-75082400D03*
X167170100Y-75082400D03*
X164630100Y-77622400D03*
X167170100Y-77622400D03*
X164630100Y-80162400D03*
X167170100Y-80162400D03*
X164630100Y-82702400D03*
X167170100Y-82702400D03*
X164630100Y-85242400D03*
X167170100Y-85242400D03*
X164630100Y-87782400D03*
X167170100Y-87782400D03*
X164630100Y-90322400D03*
X167170100Y-90322400D03*
X164630100Y-92862400D03*
X167170100Y-92862400D03*
X164630100Y-95402400D03*
X167170100Y-95402400D03*
X164630100Y-97942400D03*
X167170100Y-97942400D03*
X164630100Y-100482400D03*
X167170100Y-100482400D03*
X164630100Y-103022400D03*
X167170100Y-103022400D03*
X164630100Y-105562400D03*
X167170100Y-105562400D03*
X164630100Y-108102400D03*
X167170100Y-108102400D03*
X164630100Y-110642400D03*
X167170100Y-110642400D03*
X164630100Y-113182400D03*
X167170100Y-113182400D03*
X164630100Y-115722400D03*
X167170100Y-115722400D03*
X164630100Y-118262400D03*
X167170100Y-118262400D03*
%TD*%
D13*
%TO.C,P2*%
X116370100Y-62382400D03*
D14*
X118910100Y-62382400D03*
X116370100Y-64922400D03*
X118910100Y-64922400D03*
X116370100Y-67462400D03*
X118910100Y-67462400D03*
X116370100Y-70002400D03*
X118910100Y-70002400D03*
X116370100Y-72542400D03*
X118910100Y-72542400D03*
X116370100Y-75082400D03*
X118910100Y-75082400D03*
X116370100Y-77622400D03*
X118910100Y-77622400D03*
X116370100Y-80162400D03*
X118910100Y-80162400D03*
X116370100Y-82702400D03*
X118910100Y-82702400D03*
X116370100Y-85242400D03*
X118910100Y-85242400D03*
X116370100Y-87782400D03*
X118910100Y-87782400D03*
X116370100Y-90322400D03*
X118910100Y-90322400D03*
X116370100Y-92862400D03*
X118910100Y-92862400D03*
X116370100Y-95402400D03*
X118910100Y-95402400D03*
X116370100Y-97942400D03*
X118910100Y-97942400D03*
X116370100Y-100482400D03*
X118910100Y-100482400D03*
X116370100Y-103022400D03*
X118910100Y-103022400D03*
X116370100Y-105562400D03*
X118910100Y-105562400D03*
X116370100Y-108102400D03*
X118910100Y-108102400D03*
X116370100Y-110642400D03*
X118910100Y-110642400D03*
X116370100Y-113182400D03*
X118910100Y-113182400D03*
X116370100Y-115722400D03*
X118910100Y-115722400D03*
X116370100Y-118262400D03*
X118910100Y-118262400D03*
%TD*%
%TO.C,C3*%
G36*
G01*
X139410100Y-66987400D02*
X139410100Y-67937400D01*
G75*
G02*
X139160100Y-68187400I-250000J0D01*
G01*
X138660100Y-68187400D01*
G75*
G02*
X138410100Y-67937400I0J250000D01*
G01*
X138410100Y-66987400D01*
G75*
G02*
X138660100Y-66737400I250000J0D01*
G01*
X139160100Y-66737400D01*
G75*
G02*
X139410100Y-66987400I0J-250000D01*
G01*
G37*
G36*
G01*
X137510100Y-66987400D02*
X137510100Y-67937400D01*
G75*
G02*
X137260100Y-68187400I-250000J0D01*
G01*
X136760100Y-68187400D01*
G75*
G02*
X136510100Y-67937400I0J250000D01*
G01*
X136510100Y-66987400D01*
G75*
G02*
X136760100Y-66737400I250000J0D01*
G01*
X137260100Y-66737400D01*
G75*
G02*
X137510100Y-66987400I0J-250000D01*
G01*
G37*
%TD*%
%TO.C,C4*%
G36*
G01*
X131790100Y-49207400D02*
X131790100Y-50157400D01*
G75*
G02*
X131540100Y-50407400I-250000J0D01*
G01*
X131040100Y-50407400D01*
G75*
G02*
X130790100Y-50157400I0J250000D01*
G01*
X130790100Y-49207400D01*
G75*
G02*
X131040100Y-48957400I250000J0D01*
G01*
X131540100Y-48957400D01*
G75*
G02*
X131790100Y-49207400I0J-250000D01*
G01*
G37*
G36*
G01*
X129890100Y-49207400D02*
X129890100Y-50157400D01*
G75*
G02*
X129640100Y-50407400I-250000J0D01*
G01*
X129140100Y-50407400D01*
G75*
G02*
X128890100Y-50157400I0J250000D01*
G01*
X128890100Y-49207400D01*
G75*
G02*
X129140100Y-48957400I250000J0D01*
G01*
X129640100Y-48957400D01*
G75*
G02*
X129890100Y-49207400I0J-250000D01*
G01*
G37*
%TD*%
%TO.C,C5*%
G36*
G01*
X142220100Y-74287400D02*
X142220100Y-73337400D01*
G75*
G02*
X142470100Y-73087400I250000J0D01*
G01*
X142970100Y-73087400D01*
G75*
G02*
X143220100Y-73337400I0J-250000D01*
G01*
X143220100Y-74287400D01*
G75*
G02*
X142970100Y-74537400I-250000J0D01*
G01*
X142470100Y-74537400D01*
G75*
G02*
X142220100Y-74287400I0J250000D01*
G01*
G37*
G36*
G01*
X140320100Y-74287400D02*
X140320100Y-73337400D01*
G75*
G02*
X140570100Y-73087400I250000J0D01*
G01*
X141070100Y-73087400D01*
G75*
G02*
X141320100Y-73337400I0J-250000D01*
G01*
X141320100Y-74287400D01*
G75*
G02*
X141070100Y-74537400I-250000J0D01*
G01*
X140570100Y-74537400D01*
G75*
G02*
X140320100Y-74287400I0J250000D01*
G01*
G37*
%TD*%
%TO.C,C6*%
G36*
G01*
X143490100Y-80637400D02*
X143490100Y-79687400D01*
G75*
G02*
X143740100Y-79437400I250000J0D01*
G01*
X144240100Y-79437400D01*
G75*
G02*
X144490100Y-79687400I0J-250000D01*
G01*
X144490100Y-80637400D01*
G75*
G02*
X144240100Y-80887400I-250000J0D01*
G01*
X143740100Y-80887400D01*
G75*
G02*
X143490100Y-80637400I0J250000D01*
G01*
G37*
G36*
G01*
X141590100Y-80637400D02*
X141590100Y-79687400D01*
G75*
G02*
X141840100Y-79437400I250000J0D01*
G01*
X142340100Y-79437400D01*
G75*
G02*
X142590100Y-79687400I0J-250000D01*
G01*
X142590100Y-80637400D01*
G75*
G02*
X142340100Y-80887400I-250000J0D01*
G01*
X141840100Y-80887400D01*
G75*
G02*
X141590100Y-80637400I0J250000D01*
G01*
G37*
%TD*%
%TO.C,C7*%
G36*
G01*
X141590100Y-83177400D02*
X141590100Y-82227400D01*
G75*
G02*
X141840100Y-81977400I250000J0D01*
G01*
X142340100Y-81977400D01*
G75*
G02*
X142590100Y-82227400I0J-250000D01*
G01*
X142590100Y-83177400D01*
G75*
G02*
X142340100Y-83427400I-250000J0D01*
G01*
X141840100Y-83427400D01*
G75*
G02*
X141590100Y-83177400I0J250000D01*
G01*
G37*
G36*
G01*
X143490100Y-83177400D02*
X143490100Y-82227400D01*
G75*
G02*
X143740100Y-81977400I250000J0D01*
G01*
X144240100Y-81977400D01*
G75*
G02*
X144490100Y-82227400I0J-250000D01*
G01*
X144490100Y-83177400D01*
G75*
G02*
X144240100Y-83427400I-250000J0D01*
G01*
X143740100Y-83427400D01*
G75*
G02*
X143490100Y-83177400I0J250000D01*
G01*
G37*
%TD*%
%TO.C,C8*%
G36*
G01*
X143490100Y-85717400D02*
X143490100Y-84767400D01*
G75*
G02*
X143740100Y-84517400I250000J0D01*
G01*
X144240100Y-84517400D01*
G75*
G02*
X144490100Y-84767400I0J-250000D01*
G01*
X144490100Y-85717400D01*
G75*
G02*
X144240100Y-85967400I-250000J0D01*
G01*
X143740100Y-85967400D01*
G75*
G02*
X143490100Y-85717400I0J250000D01*
G01*
G37*
G36*
G01*
X141590100Y-85717400D02*
X141590100Y-84767400D01*
G75*
G02*
X141840100Y-84517400I250000J0D01*
G01*
X142340100Y-84517400D01*
G75*
G02*
X142590100Y-84767400I0J-250000D01*
G01*
X142590100Y-85717400D01*
G75*
G02*
X142340100Y-85967400I-250000J0D01*
G01*
X141840100Y-85967400D01*
G75*
G02*
X141590100Y-85717400I0J250000D01*
G01*
G37*
%TD*%
%TO.C,C9*%
G36*
G01*
X144760100Y-88257400D02*
X144760100Y-87307400D01*
G75*
G02*
X145010100Y-87057400I250000J0D01*
G01*
X145510100Y-87057400D01*
G75*
G02*
X145760100Y-87307400I0J-250000D01*
G01*
X145760100Y-88257400D01*
G75*
G02*
X145510100Y-88507400I-250000J0D01*
G01*
X145010100Y-88507400D01*
G75*
G02*
X144760100Y-88257400I0J250000D01*
G01*
G37*
G36*
G01*
X142860100Y-88257400D02*
X142860100Y-87307400D01*
G75*
G02*
X143110100Y-87057400I250000J0D01*
G01*
X143610100Y-87057400D01*
G75*
G02*
X143860100Y-87307400I0J-250000D01*
G01*
X143860100Y-88257400D01*
G75*
G02*
X143610100Y-88507400I-250000J0D01*
G01*
X143110100Y-88507400D01*
G75*
G02*
X142860100Y-88257400I0J250000D01*
G01*
G37*
%TD*%
%TO.C,C10*%
G36*
G01*
X141590100Y-78097400D02*
X141590100Y-77147400D01*
G75*
G02*
X141840100Y-76897400I250000J0D01*
G01*
X142340100Y-76897400D01*
G75*
G02*
X142590100Y-77147400I0J-250000D01*
G01*
X142590100Y-78097400D01*
G75*
G02*
X142340100Y-78347400I-250000J0D01*
G01*
X141840100Y-78347400D01*
G75*
G02*
X141590100Y-78097400I0J250000D01*
G01*
G37*
G36*
G01*
X143490100Y-78097400D02*
X143490100Y-77147400D01*
G75*
G02*
X143740100Y-76897400I250000J0D01*
G01*
X144240100Y-76897400D01*
G75*
G02*
X144490100Y-77147400I0J-250000D01*
G01*
X144490100Y-78097400D01*
G75*
G02*
X144240100Y-78347400I-250000J0D01*
G01*
X143740100Y-78347400D01*
G75*
G02*
X143490100Y-78097400I0J250000D01*
G01*
G37*
%TD*%
%TO.C,C11*%
G36*
G01*
X133675100Y-90772400D02*
X134625100Y-90772400D01*
G75*
G02*
X134875100Y-91022400I0J-250000D01*
G01*
X134875100Y-91522400D01*
G75*
G02*
X134625100Y-91772400I-250000J0D01*
G01*
X133675100Y-91772400D01*
G75*
G02*
X133425100Y-91522400I0J250000D01*
G01*
X133425100Y-91022400D01*
G75*
G02*
X133675100Y-90772400I250000J0D01*
G01*
G37*
G36*
G01*
X133675100Y-88872400D02*
X134625100Y-88872400D01*
G75*
G02*
X134875100Y-89122400I0J-250000D01*
G01*
X134875100Y-89622400D01*
G75*
G02*
X134625100Y-89872400I-250000J0D01*
G01*
X133675100Y-89872400D01*
G75*
G02*
X133425100Y-89622400I0J250000D01*
G01*
X133425100Y-89122400D01*
G75*
G02*
X133675100Y-88872400I250000J0D01*
G01*
G37*
%TD*%
%TO.C,C12*%
G36*
G01*
X132085100Y-96852400D02*
X131135100Y-96852400D01*
G75*
G02*
X130885100Y-96602400I0J250000D01*
G01*
X130885100Y-96102400D01*
G75*
G02*
X131135100Y-95852400I250000J0D01*
G01*
X132085100Y-95852400D01*
G75*
G02*
X132335100Y-96102400I0J-250000D01*
G01*
X132335100Y-96602400D01*
G75*
G02*
X132085100Y-96852400I-250000J0D01*
G01*
G37*
G36*
G01*
X132085100Y-94952400D02*
X131135100Y-94952400D01*
G75*
G02*
X130885100Y-94702400I0J250000D01*
G01*
X130885100Y-94202400D01*
G75*
G02*
X131135100Y-93952400I250000J0D01*
G01*
X132085100Y-93952400D01*
G75*
G02*
X132335100Y-94202400I0J-250000D01*
G01*
X132335100Y-94702400D01*
G75*
G02*
X132085100Y-94952400I-250000J0D01*
G01*
G37*
%TD*%
%TO.C,R1*%
G36*
G01*
X135575100Y-72092398D02*
X135575100Y-72992402D01*
G75*
G02*
X135325102Y-73242400I-249998J0D01*
G01*
X134800098Y-73242400D01*
G75*
G02*
X134550100Y-72992402I0J249998D01*
G01*
X134550100Y-72092398D01*
G75*
G02*
X134800098Y-71842400I249998J0D01*
G01*
X135325102Y-71842400D01*
G75*
G02*
X135575100Y-72092398I0J-249998D01*
G01*
G37*
G36*
G01*
X133750100Y-72092398D02*
X133750100Y-72992402D01*
G75*
G02*
X133500102Y-73242400I-249998J0D01*
G01*
X132975098Y-73242400D01*
G75*
G02*
X132725100Y-72992402I0J249998D01*
G01*
X132725100Y-72092398D01*
G75*
G02*
X132975098Y-71842400I249998J0D01*
G01*
X133500102Y-71842400D01*
G75*
G02*
X133750100Y-72092398I0J-249998D01*
G01*
G37*
%TD*%
%TO.C,R2*%
G36*
G01*
X136535100Y-70452402D02*
X136535100Y-69552398D01*
G75*
G02*
X136785098Y-69302400I249998J0D01*
G01*
X137310102Y-69302400D01*
G75*
G02*
X137560100Y-69552398I0J-249998D01*
G01*
X137560100Y-70452402D01*
G75*
G02*
X137310102Y-70702400I-249998J0D01*
G01*
X136785098Y-70702400D01*
G75*
G02*
X136535100Y-70452402I0J249998D01*
G01*
G37*
G36*
G01*
X138360100Y-70452402D02*
X138360100Y-69552398D01*
G75*
G02*
X138610098Y-69302400I249998J0D01*
G01*
X139135102Y-69302400D01*
G75*
G02*
X139385100Y-69552398I0J-249998D01*
G01*
X139385100Y-70452402D01*
G75*
G02*
X139135102Y-70702400I-249998J0D01*
G01*
X138610098Y-70702400D01*
G75*
G02*
X138360100Y-70452402I0J249998D01*
G01*
G37*
%TD*%
%TO.C,R3*%
G36*
G01*
X129940100Y-70822398D02*
X129940100Y-71722402D01*
G75*
G02*
X129690102Y-71972400I-249998J0D01*
G01*
X129165098Y-71972400D01*
G75*
G02*
X128915100Y-71722402I0J249998D01*
G01*
X128915100Y-70822398D01*
G75*
G02*
X129165098Y-70572400I249998J0D01*
G01*
X129690102Y-70572400D01*
G75*
G02*
X129940100Y-70822398I0J-249998D01*
G01*
G37*
G36*
G01*
X131765100Y-70822398D02*
X131765100Y-71722402D01*
G75*
G02*
X131515102Y-71972400I-249998J0D01*
G01*
X130990098Y-71972400D01*
G75*
G02*
X130740100Y-71722402I0J249998D01*
G01*
X130740100Y-70822398D01*
G75*
G02*
X130990098Y-70572400I249998J0D01*
G01*
X131515102Y-70572400D01*
G75*
G02*
X131765100Y-70822398I0J-249998D01*
G01*
G37*
%TD*%
%TO.C,R4*%
G36*
G01*
X133700098Y-63497400D02*
X134600102Y-63497400D01*
G75*
G02*
X134850100Y-63747398I0J-249998D01*
G01*
X134850100Y-64272402D01*
G75*
G02*
X134600102Y-64522400I-249998J0D01*
G01*
X133700098Y-64522400D01*
G75*
G02*
X133450100Y-64272402I0J249998D01*
G01*
X133450100Y-63747398D01*
G75*
G02*
X133700098Y-63497400I249998J0D01*
G01*
G37*
G36*
G01*
X133700098Y-65322400D02*
X134600102Y-65322400D01*
G75*
G02*
X134850100Y-65572398I0J-249998D01*
G01*
X134850100Y-66097402D01*
G75*
G02*
X134600102Y-66347400I-249998J0D01*
G01*
X133700098Y-66347400D01*
G75*
G02*
X133450100Y-66097402I0J249998D01*
G01*
X133450100Y-65572398D01*
G75*
G02*
X133700098Y-65322400I249998J0D01*
G01*
G37*
%TD*%
%TO.C,R5*%
G36*
G01*
X128915100Y-55212402D02*
X128915100Y-54312398D01*
G75*
G02*
X129165098Y-54062400I249998J0D01*
G01*
X129690102Y-54062400D01*
G75*
G02*
X129940100Y-54312398I0J-249998D01*
G01*
X129940100Y-55212402D01*
G75*
G02*
X129690102Y-55462400I-249998J0D01*
G01*
X129165098Y-55462400D01*
G75*
G02*
X128915100Y-55212402I0J249998D01*
G01*
G37*
G36*
G01*
X130740100Y-55212402D02*
X130740100Y-54312398D01*
G75*
G02*
X130990098Y-54062400I249998J0D01*
G01*
X131515102Y-54062400D01*
G75*
G02*
X131765100Y-54312398I0J-249998D01*
G01*
X131765100Y-55212402D01*
G75*
G02*
X131515102Y-55462400I-249998J0D01*
G01*
X130990098Y-55462400D01*
G75*
G02*
X130740100Y-55212402I0J249998D01*
G01*
G37*
%TD*%
%TO.C,R6*%
G36*
G01*
X130740100Y-52672402D02*
X130740100Y-51772398D01*
G75*
G02*
X130990098Y-51522400I249998J0D01*
G01*
X131515102Y-51522400D01*
G75*
G02*
X131765100Y-51772398I0J-249998D01*
G01*
X131765100Y-52672402D01*
G75*
G02*
X131515102Y-52922400I-249998J0D01*
G01*
X130990098Y-52922400D01*
G75*
G02*
X130740100Y-52672402I0J249998D01*
G01*
G37*
G36*
G01*
X128915100Y-52672402D02*
X128915100Y-51772398D01*
G75*
G02*
X129165098Y-51522400I249998J0D01*
G01*
X129690102Y-51522400D01*
G75*
G02*
X129940100Y-51772398I0J-249998D01*
G01*
X129940100Y-52672402D01*
G75*
G02*
X129690102Y-52922400I-249998J0D01*
G01*
X129165098Y-52922400D01*
G75*
G02*
X128915100Y-52672402I0J249998D01*
G01*
G37*
%TD*%
%TO.C,R7*%
G36*
G01*
X130740100Y-66642402D02*
X130740100Y-65742398D01*
G75*
G02*
X130990098Y-65492400I249998J0D01*
G01*
X131515102Y-65492400D01*
G75*
G02*
X131765100Y-65742398I0J-249998D01*
G01*
X131765100Y-66642402D01*
G75*
G02*
X131515102Y-66892400I-249998J0D01*
G01*
X130990098Y-66892400D01*
G75*
G02*
X130740100Y-66642402I0J249998D01*
G01*
G37*
G36*
G01*
X128915100Y-66642402D02*
X128915100Y-65742398D01*
G75*
G02*
X129165098Y-65492400I249998J0D01*
G01*
X129690102Y-65492400D01*
G75*
G02*
X129940100Y-65742398I0J-249998D01*
G01*
X129940100Y-66642402D01*
G75*
G02*
X129690102Y-66892400I-249998J0D01*
G01*
X129165098Y-66892400D01*
G75*
G02*
X128915100Y-66642402I0J249998D01*
G01*
G37*
%TD*%
%TO.C,R8*%
G36*
G01*
X131160098Y-90722400D02*
X132060102Y-90722400D01*
G75*
G02*
X132310100Y-90972398I0J-249998D01*
G01*
X132310100Y-91497402D01*
G75*
G02*
X132060102Y-91747400I-249998J0D01*
G01*
X131160098Y-91747400D01*
G75*
G02*
X130910100Y-91497402I0J249998D01*
G01*
X130910100Y-90972398D01*
G75*
G02*
X131160098Y-90722400I249998J0D01*
G01*
G37*
G36*
G01*
X131160098Y-88897400D02*
X132060102Y-88897400D01*
G75*
G02*
X132310100Y-89147398I0J-249998D01*
G01*
X132310100Y-89672402D01*
G75*
G02*
X132060102Y-89922400I-249998J0D01*
G01*
X131160098Y-89922400D01*
G75*
G02*
X130910100Y-89672402I0J249998D01*
G01*
X130910100Y-89147398D01*
G75*
G02*
X131160098Y-88897400I249998J0D01*
G01*
G37*
%TD*%
%TO.C,R9*%
G36*
G01*
X134600102Y-96827400D02*
X133700098Y-96827400D01*
G75*
G02*
X133450100Y-96577402I0J249998D01*
G01*
X133450100Y-96052398D01*
G75*
G02*
X133700098Y-95802400I249998J0D01*
G01*
X134600102Y-95802400D01*
G75*
G02*
X134850100Y-96052398I0J-249998D01*
G01*
X134850100Y-96577402D01*
G75*
G02*
X134600102Y-96827400I-249998J0D01*
G01*
G37*
G36*
G01*
X134600102Y-95002400D02*
X133700098Y-95002400D01*
G75*
G02*
X133450100Y-94752402I0J249998D01*
G01*
X133450100Y-94227398D01*
G75*
G02*
X133700098Y-93977400I249998J0D01*
G01*
X134600102Y-93977400D01*
G75*
G02*
X134850100Y-94227398I0J-249998D01*
G01*
X134850100Y-94752402D01*
G75*
G02*
X134600102Y-95002400I-249998J0D01*
G01*
G37*
%TD*%
%TO.C,U3*%
G36*
G01*
X133240100Y-75867400D02*
X133240100Y-75567400D01*
G75*
G02*
X133390100Y-75417400I150000J0D01*
G01*
X135040100Y-75417400D01*
G75*
G02*
X135190100Y-75567400I0J-150000D01*
G01*
X135190100Y-75867400D01*
G75*
G02*
X135040100Y-76017400I-150000J0D01*
G01*
X133390100Y-76017400D01*
G75*
G02*
X133240100Y-75867400I0J150000D01*
G01*
G37*
G36*
G01*
X133240100Y-77137400D02*
X133240100Y-76837400D01*
G75*
G02*
X133390100Y-76687400I150000J0D01*
G01*
X135040100Y-76687400D01*
G75*
G02*
X135190100Y-76837400I0J-150000D01*
G01*
X135190100Y-77137400D01*
G75*
G02*
X135040100Y-77287400I-150000J0D01*
G01*
X133390100Y-77287400D01*
G75*
G02*
X133240100Y-77137400I0J150000D01*
G01*
G37*
G36*
G01*
X133240100Y-78407400D02*
X133240100Y-78107400D01*
G75*
G02*
X133390100Y-77957400I150000J0D01*
G01*
X135040100Y-77957400D01*
G75*
G02*
X135190100Y-78107400I0J-150000D01*
G01*
X135190100Y-78407400D01*
G75*
G02*
X135040100Y-78557400I-150000J0D01*
G01*
X133390100Y-78557400D01*
G75*
G02*
X133240100Y-78407400I0J150000D01*
G01*
G37*
G36*
G01*
X133240100Y-79677400D02*
X133240100Y-79377400D01*
G75*
G02*
X133390100Y-79227400I150000J0D01*
G01*
X135040100Y-79227400D01*
G75*
G02*
X135190100Y-79377400I0J-150000D01*
G01*
X135190100Y-79677400D01*
G75*
G02*
X135040100Y-79827400I-150000J0D01*
G01*
X133390100Y-79827400D01*
G75*
G02*
X133240100Y-79677400I0J150000D01*
G01*
G37*
G36*
G01*
X133240100Y-80947400D02*
X133240100Y-80647400D01*
G75*
G02*
X133390100Y-80497400I150000J0D01*
G01*
X135040100Y-80497400D01*
G75*
G02*
X135190100Y-80647400I0J-150000D01*
G01*
X135190100Y-80947400D01*
G75*
G02*
X135040100Y-81097400I-150000J0D01*
G01*
X133390100Y-81097400D01*
G75*
G02*
X133240100Y-80947400I0J150000D01*
G01*
G37*
G36*
G01*
X133240100Y-82217400D02*
X133240100Y-81917400D01*
G75*
G02*
X133390100Y-81767400I150000J0D01*
G01*
X135040100Y-81767400D01*
G75*
G02*
X135190100Y-81917400I0J-150000D01*
G01*
X135190100Y-82217400D01*
G75*
G02*
X135040100Y-82367400I-150000J0D01*
G01*
X133390100Y-82367400D01*
G75*
G02*
X133240100Y-82217400I0J150000D01*
G01*
G37*
G36*
G01*
X133240100Y-83487400D02*
X133240100Y-83187400D01*
G75*
G02*
X133390100Y-83037400I150000J0D01*
G01*
X135040100Y-83037400D01*
G75*
G02*
X135190100Y-83187400I0J-150000D01*
G01*
X135190100Y-83487400D01*
G75*
G02*
X135040100Y-83637400I-150000J0D01*
G01*
X133390100Y-83637400D01*
G75*
G02*
X133240100Y-83487400I0J150000D01*
G01*
G37*
G36*
G01*
X133240100Y-84757400D02*
X133240100Y-84457400D01*
G75*
G02*
X133390100Y-84307400I150000J0D01*
G01*
X135040100Y-84307400D01*
G75*
G02*
X135190100Y-84457400I0J-150000D01*
G01*
X135190100Y-84757400D01*
G75*
G02*
X135040100Y-84907400I-150000J0D01*
G01*
X133390100Y-84907400D01*
G75*
G02*
X133240100Y-84757400I0J150000D01*
G01*
G37*
G36*
G01*
X138190100Y-84757400D02*
X138190100Y-84457400D01*
G75*
G02*
X138340100Y-84307400I150000J0D01*
G01*
X139990100Y-84307400D01*
G75*
G02*
X140140100Y-84457400I0J-150000D01*
G01*
X140140100Y-84757400D01*
G75*
G02*
X139990100Y-84907400I-150000J0D01*
G01*
X138340100Y-84907400D01*
G75*
G02*
X138190100Y-84757400I0J150000D01*
G01*
G37*
G36*
G01*
X138190100Y-83487400D02*
X138190100Y-83187400D01*
G75*
G02*
X138340100Y-83037400I150000J0D01*
G01*
X139990100Y-83037400D01*
G75*
G02*
X140140100Y-83187400I0J-150000D01*
G01*
X140140100Y-83487400D01*
G75*
G02*
X139990100Y-83637400I-150000J0D01*
G01*
X138340100Y-83637400D01*
G75*
G02*
X138190100Y-83487400I0J150000D01*
G01*
G37*
G36*
G01*
X138190100Y-82217400D02*
X138190100Y-81917400D01*
G75*
G02*
X138340100Y-81767400I150000J0D01*
G01*
X139990100Y-81767400D01*
G75*
G02*
X140140100Y-81917400I0J-150000D01*
G01*
X140140100Y-82217400D01*
G75*
G02*
X139990100Y-82367400I-150000J0D01*
G01*
X138340100Y-82367400D01*
G75*
G02*
X138190100Y-82217400I0J150000D01*
G01*
G37*
G36*
G01*
X138190100Y-80947400D02*
X138190100Y-80647400D01*
G75*
G02*
X138340100Y-80497400I150000J0D01*
G01*
X139990100Y-80497400D01*
G75*
G02*
X140140100Y-80647400I0J-150000D01*
G01*
X140140100Y-80947400D01*
G75*
G02*
X139990100Y-81097400I-150000J0D01*
G01*
X138340100Y-81097400D01*
G75*
G02*
X138190100Y-80947400I0J150000D01*
G01*
G37*
G36*
G01*
X138190100Y-79677400D02*
X138190100Y-79377400D01*
G75*
G02*
X138340100Y-79227400I150000J0D01*
G01*
X139990100Y-79227400D01*
G75*
G02*
X140140100Y-79377400I0J-150000D01*
G01*
X140140100Y-79677400D01*
G75*
G02*
X139990100Y-79827400I-150000J0D01*
G01*
X138340100Y-79827400D01*
G75*
G02*
X138190100Y-79677400I0J150000D01*
G01*
G37*
G36*
G01*
X138190100Y-78407400D02*
X138190100Y-78107400D01*
G75*
G02*
X138340100Y-77957400I150000J0D01*
G01*
X139990100Y-77957400D01*
G75*
G02*
X140140100Y-78107400I0J-150000D01*
G01*
X140140100Y-78407400D01*
G75*
G02*
X139990100Y-78557400I-150000J0D01*
G01*
X138340100Y-78557400D01*
G75*
G02*
X138190100Y-78407400I0J150000D01*
G01*
G37*
G36*
G01*
X138190100Y-77137400D02*
X138190100Y-76837400D01*
G75*
G02*
X138340100Y-76687400I150000J0D01*
G01*
X139990100Y-76687400D01*
G75*
G02*
X140140100Y-76837400I0J-150000D01*
G01*
X140140100Y-77137400D01*
G75*
G02*
X139990100Y-77287400I-150000J0D01*
G01*
X138340100Y-77287400D01*
G75*
G02*
X138190100Y-77137400I0J150000D01*
G01*
G37*
G36*
G01*
X138190100Y-75867400D02*
X138190100Y-75567400D01*
G75*
G02*
X138340100Y-75417400I150000J0D01*
G01*
X139990100Y-75417400D01*
G75*
G02*
X140140100Y-75567400I0J-150000D01*
G01*
X140140100Y-75867400D01*
G75*
G02*
X139990100Y-76017400I-150000J0D01*
G01*
X138340100Y-76017400D01*
G75*
G02*
X138190100Y-75867400I0J150000D01*
G01*
G37*
%TD*%
%TO.C,U4*%
G36*
G01*
X138320100Y-89837400D02*
X138320100Y-89537400D01*
G75*
G02*
X138470100Y-89387400I150000J0D01*
G01*
X140120100Y-89387400D01*
G75*
G02*
X140270100Y-89537400I0J-150000D01*
G01*
X140270100Y-89837400D01*
G75*
G02*
X140120100Y-89987400I-150000J0D01*
G01*
X138470100Y-89987400D01*
G75*
G02*
X138320100Y-89837400I0J150000D01*
G01*
G37*
G36*
G01*
X138320100Y-91107400D02*
X138320100Y-90807400D01*
G75*
G02*
X138470100Y-90657400I150000J0D01*
G01*
X140120100Y-90657400D01*
G75*
G02*
X140270100Y-90807400I0J-150000D01*
G01*
X140270100Y-91107400D01*
G75*
G02*
X140120100Y-91257400I-150000J0D01*
G01*
X138470100Y-91257400D01*
G75*
G02*
X138320100Y-91107400I0J150000D01*
G01*
G37*
G36*
G01*
X138320100Y-92377400D02*
X138320100Y-92077400D01*
G75*
G02*
X138470100Y-91927400I150000J0D01*
G01*
X140120100Y-91927400D01*
G75*
G02*
X140270100Y-92077400I0J-150000D01*
G01*
X140270100Y-92377400D01*
G75*
G02*
X140120100Y-92527400I-150000J0D01*
G01*
X138470100Y-92527400D01*
G75*
G02*
X138320100Y-92377400I0J150000D01*
G01*
G37*
G36*
G01*
X138320100Y-93647400D02*
X138320100Y-93347400D01*
G75*
G02*
X138470100Y-93197400I150000J0D01*
G01*
X140120100Y-93197400D01*
G75*
G02*
X140270100Y-93347400I0J-150000D01*
G01*
X140270100Y-93647400D01*
G75*
G02*
X140120100Y-93797400I-150000J0D01*
G01*
X138470100Y-93797400D01*
G75*
G02*
X138320100Y-93647400I0J150000D01*
G01*
G37*
G36*
G01*
X143270100Y-93647400D02*
X143270100Y-93347400D01*
G75*
G02*
X143420100Y-93197400I150000J0D01*
G01*
X145070100Y-93197400D01*
G75*
G02*
X145220100Y-93347400I0J-150000D01*
G01*
X145220100Y-93647400D01*
G75*
G02*
X145070100Y-93797400I-150000J0D01*
G01*
X143420100Y-93797400D01*
G75*
G02*
X143270100Y-93647400I0J150000D01*
G01*
G37*
G36*
G01*
X143270100Y-92377400D02*
X143270100Y-92077400D01*
G75*
G02*
X143420100Y-91927400I150000J0D01*
G01*
X145070100Y-91927400D01*
G75*
G02*
X145220100Y-92077400I0J-150000D01*
G01*
X145220100Y-92377400D01*
G75*
G02*
X145070100Y-92527400I-150000J0D01*
G01*
X143420100Y-92527400D01*
G75*
G02*
X143270100Y-92377400I0J150000D01*
G01*
G37*
G36*
G01*
X143270100Y-91107400D02*
X143270100Y-90807400D01*
G75*
G02*
X143420100Y-90657400I150000J0D01*
G01*
X145070100Y-90657400D01*
G75*
G02*
X145220100Y-90807400I0J-150000D01*
G01*
X145220100Y-91107400D01*
G75*
G02*
X145070100Y-91257400I-150000J0D01*
G01*
X143420100Y-91257400D01*
G75*
G02*
X143270100Y-91107400I0J150000D01*
G01*
G37*
G36*
G01*
X143270100Y-89837400D02*
X143270100Y-89537400D01*
G75*
G02*
X143420100Y-89387400I150000J0D01*
G01*
X145070100Y-89387400D01*
G75*
G02*
X145220100Y-89537400I0J-150000D01*
G01*
X145220100Y-89837400D01*
G75*
G02*
X145070100Y-89987400I-150000J0D01*
G01*
X143420100Y-89987400D01*
G75*
G02*
X143270100Y-89837400I0J150000D01*
G01*
G37*
D15*
X141770100Y-91592400D03*
%TD*%
D16*
%TO.C,J1*%
X123990100Y-62382400D03*
D17*
X126530100Y-62382400D03*
X123990100Y-64922400D03*
X126530100Y-64922400D03*
X123990100Y-67462400D03*
X126530100Y-67462400D03*
X123990100Y-70002400D03*
X126530100Y-70002400D03*
X123990100Y-72542400D03*
X126530100Y-72542400D03*
X123990100Y-75082400D03*
X126530100Y-75082400D03*
X123990100Y-77622400D03*
X126530100Y-77622400D03*
X123990100Y-80162400D03*
X126530100Y-80162400D03*
X123990100Y-82702400D03*
X126530100Y-82702400D03*
X123990100Y-85242400D03*
X126530100Y-85242400D03*
X123990100Y-87782400D03*
X126530100Y-87782400D03*
X123990100Y-90322400D03*
X126530100Y-90322400D03*
X123990100Y-92862400D03*
X126530100Y-92862400D03*
X123990100Y-95402400D03*
X126530100Y-95402400D03*
%TD*%
M02*
