M48
; DRILL file {KiCad 5.1.9-73d0e3b20d~88~ubuntu18.04.1} date Thu Feb 18 19:14:28 2021
; FORMAT={-:-/ absolute / inch / decimal}
; #@! TF.CreationDate,2021-02-18T19:14:28+11:00
; #@! TF.GenerationSoftware,Kicad,Pcbnew,5.1.9-73d0e3b20d~88~ubuntu18.04.1
FMAT,2
INCH
T1C0.0100
T2C0.0200
T3C0.0394
T4C0.0400
%
G90
G05
T1
X4.7565Y-2.081
X4.7815Y-2.131
X4.902Y-2.1605
X4.9065Y-1.881
X5.0315Y-1.981
X5.0315Y-2.056
X5.0315Y-2.231
X5.0315Y-2.356
X5.0815Y-2.856
X5.0815Y-3.256
X5.0815Y-3.406
X5.0815Y-3.556
X5.1065Y-1.906
X5.1315Y-2.906
X5.1815Y-3.206
X5.2065Y-1.956
X5.2065Y-2.056
X5.2065Y-2.156
X5.2721Y-2.7154
X5.2815Y-2.956
X5.2815Y-3.356
X5.3315Y-2.806
X5.3815Y-2.606
X5.3815Y-2.906
X5.3815Y-3.356
X5.3815Y-3.556
X5.4315Y-3.681
X5.4815Y-2.606
X5.4815Y-2.956
X5.5315Y-2.656
X5.5315Y-3.006
X5.5815Y-3.706
X5.6315Y-2.956
X5.7065Y-3.056
X5.7065Y-3.156
X5.7065Y-3.256
X5.7065Y-3.356
X5.7065Y-3.806
X5.7315Y-2.656
X5.7315Y-3.531
X5.7565Y-3.456
T2
X4.6315Y-2.176
X4.6815Y-1.936
T3
X4.8815Y-2.456
X4.8815Y-2.556
X4.8815Y-2.656
X4.8815Y-2.756
X4.8815Y-2.856
X4.8815Y-2.956
X4.8815Y-3.056
X4.8815Y-3.156
X4.8815Y-3.256
X4.8815Y-3.356
X4.8815Y-3.456
X4.8815Y-3.556
X4.8815Y-3.656
X4.8815Y-3.756
X4.9815Y-2.456
X4.9815Y-2.556
X4.9815Y-2.656
X4.9815Y-2.756
X4.9815Y-2.856
X4.9815Y-2.956
X4.9815Y-3.056
X4.9815Y-3.156
X4.9815Y-3.256
X4.9815Y-3.356
X4.9815Y-3.456
X4.9815Y-3.556
X4.9815Y-3.656
X4.9815Y-3.756
T4
X4.5815Y-2.456
X4.5815Y-2.556
X4.5815Y-2.656
X4.5815Y-2.756
X4.5815Y-2.856
X4.5815Y-2.956
X4.5815Y-3.056
X4.5815Y-3.156
X4.5815Y-3.256
X4.5815Y-3.356
X4.5815Y-3.456
X4.5815Y-3.556
X4.5815Y-3.656
X4.5815Y-3.756
X4.5815Y-3.856
X4.5815Y-3.956
X4.5815Y-4.056
X4.5815Y-4.156
X4.5815Y-4.256
X4.5815Y-4.356
X4.5815Y-4.456
X4.5815Y-4.556
X4.5815Y-4.656
X4.6815Y-2.456
X4.6815Y-2.556
X4.6815Y-2.656
X4.6815Y-2.756
X4.6815Y-2.856
X4.6815Y-2.956
X4.6815Y-3.056
X4.6815Y-3.156
X4.6815Y-3.256
X4.6815Y-3.356
X4.6815Y-3.456
X4.6815Y-3.556
X4.6815Y-3.656
X4.6815Y-3.756
X4.6815Y-3.856
X4.6815Y-3.956
X4.6815Y-4.056
X4.6815Y-4.156
X4.6815Y-4.256
X4.6815Y-4.356
X4.6815Y-4.456
X4.6815Y-4.556
X4.6815Y-4.656
X4.8315Y-3.956
X4.8315Y-4.056
X4.8315Y-4.156
X4.8315Y-4.256
X4.8315Y-4.356
X4.8315Y-4.456
X4.8315Y-4.556
X4.8315Y-4.656
X4.8315Y-4.756
X4.8315Y-4.856
X4.9315Y-3.956
X4.9315Y-4.056
X4.9315Y-4.156
X4.9315Y-4.256
X4.9315Y-4.356
X4.9315Y-4.456
X4.9315Y-4.556
X4.9315Y-4.656
X4.9315Y-4.756
X4.9315Y-4.856
X4.9315Y-4.956
X5.0315Y-3.956
X5.0315Y-4.056
X5.0315Y-4.156
X5.0315Y-4.256
X5.0315Y-4.356
X5.0315Y-4.456
X5.0315Y-4.556
X5.0315Y-4.656
X5.0315Y-4.756
X5.0315Y-4.856
X5.0315Y-4.956
X5.1315Y-3.956
X5.1315Y-4.056
X5.1315Y-4.156
X5.1315Y-4.256
X5.1315Y-4.356
X5.1315Y-4.456
X5.1315Y-4.556
X5.1315Y-4.656
X5.1315Y-4.756
X5.1315Y-4.856
X5.1315Y-4.956
X5.2315Y-3.956
X5.2315Y-4.056
X5.2315Y-4.156
X5.2315Y-4.256
X5.2315Y-4.356
X5.2315Y-4.456
X5.2315Y-4.556
X5.2315Y-4.656
X5.2315Y-4.756
X5.2315Y-4.856
X5.2315Y-4.956
X5.3315Y-3.956
X5.3315Y-4.056
X5.3315Y-4.156
X5.3315Y-4.256
X5.3315Y-4.356
X5.3315Y-4.456
X5.3315Y-4.556
X5.3315Y-4.656
X5.3315Y-4.756
X5.3315Y-4.856
X5.3315Y-4.956
X5.4315Y-3.956
X5.4315Y-4.056
X5.4315Y-4.156
X5.4315Y-4.256
X5.4315Y-4.356
X5.4315Y-4.456
X5.4315Y-4.556
X5.4315Y-4.656
X5.4315Y-4.756
X5.4315Y-4.856
X5.4315Y-4.956
X5.5315Y-3.956
X5.5315Y-4.056
X5.5315Y-4.156
X5.5315Y-4.256
X5.5315Y-4.356
X5.5315Y-4.456
X5.5315Y-4.556
X5.5315Y-4.656
X5.5315Y-4.756
X5.5315Y-4.856
X5.5315Y-4.956
X5.6315Y-3.956
X5.6315Y-4.056
X5.6315Y-4.156
X5.6315Y-4.256
X5.6315Y-4.356
X5.6315Y-4.456
X5.6315Y-4.556
X5.6315Y-4.656
X5.6315Y-4.756
X5.6315Y-4.856
X5.6315Y-4.956
X5.7315Y-3.956
X5.7315Y-4.056
X5.7315Y-4.156
X5.7315Y-4.256
X5.7315Y-4.356
X5.7315Y-4.456
X5.7315Y-4.556
X5.7315Y-4.656
X5.7315Y-4.756
X5.7315Y-4.856
X5.7315Y-4.956
X5.8315Y-3.956
X5.8315Y-4.056
X5.8315Y-4.156
X5.8315Y-4.256
X5.8315Y-4.356
X5.8315Y-4.456
X5.8315Y-4.556
X5.8315Y-4.656
X5.8315Y-4.756
X5.8315Y-4.856
X5.8315Y-4.956
X5.9315Y-3.956
X5.9315Y-4.056
X5.9315Y-4.156
X5.9315Y-4.256
X5.9315Y-4.356
X5.9315Y-4.456
X5.9315Y-4.556
X5.9315Y-4.656
X5.9315Y-4.756
X5.9315Y-4.856
X5.9315Y-4.956
X6.0315Y-3.956
X6.0315Y-4.056
X6.0315Y-4.156
X6.0315Y-4.256
X6.0315Y-4.356
X6.0315Y-4.456
X6.0315Y-4.556
X6.0315Y-4.656
X6.0315Y-4.756
X6.0315Y-4.856
X6.0315Y-4.956
X6.1315Y-3.956
X6.1315Y-4.056
X6.1315Y-4.156
X6.1315Y-4.256
X6.1315Y-4.356
X6.1315Y-4.456
X6.1315Y-4.556
X6.1315Y-4.656
X6.1315Y-4.756
X6.1315Y-4.856
X6.1315Y-4.956
X6.2315Y-3.956
X6.2315Y-4.056
X6.2315Y-4.156
X6.2315Y-4.256
X6.2315Y-4.356
X6.2315Y-4.456
X6.2315Y-4.556
X6.2315Y-4.656
X6.2315Y-4.756
X6.2315Y-4.856
X6.2315Y-4.956
X6.3315Y-3.956
X6.3315Y-4.056
X6.3315Y-4.156
X6.3315Y-4.256
X6.3315Y-4.356
X6.3315Y-4.456
X6.3315Y-4.556
X6.3315Y-4.656
X6.3315Y-4.756
X6.3315Y-4.856
X6.4815Y-2.456
X6.4815Y-2.556
X6.4815Y-2.656
X6.4815Y-2.756
X6.4815Y-2.856
X6.4815Y-2.956
X6.4815Y-3.056
X6.4815Y-3.156
X6.4815Y-3.256
X6.4815Y-3.356
X6.4815Y-3.456
X6.4815Y-3.556
X6.4815Y-3.656
X6.4815Y-3.756
X6.4815Y-3.856
X6.4815Y-3.956
X6.4815Y-4.056
X6.4815Y-4.156
X6.4815Y-4.256
X6.4815Y-4.356
X6.4815Y-4.456
X6.4815Y-4.556
X6.4815Y-4.656
X6.5815Y-2.456
X6.5815Y-2.556
X6.5815Y-2.656
X6.5815Y-2.756
X6.5815Y-2.856
X6.5815Y-2.956
X6.5815Y-3.056
X6.5815Y-3.156
X6.5815Y-3.256
X6.5815Y-3.356
X6.5815Y-3.456
X6.5815Y-3.556
X6.5815Y-3.656
X6.5815Y-3.756
X6.5815Y-3.856
X6.5815Y-3.956
X6.5815Y-4.056
X6.5815Y-4.156
X6.5815Y-4.256
X6.5815Y-4.356
X6.5815Y-4.456
X6.5815Y-4.556
X6.5815Y-4.656
T0
M30
