%TF.GenerationSoftware,KiCad,Pcbnew,5.1.12-84ad8e8a86~92~ubuntu18.04.1*%
%TF.CreationDate,2022-01-27T22:07:28+11:00*%
%TF.ProjectId,bbb,6262622e-6b69-4636-9164-5f7063625858,rev?*%
%TF.SameCoordinates,Original*%
%TF.FileFunction,Copper,L4,Bot*%
%TF.FilePolarity,Positive*%
%FSLAX46Y46*%
G04 Gerber Fmt 4.6, Leading zero omitted, Abs format (unit mm)*
G04 Created by KiCad (PCBNEW 5.1.12-84ad8e8a86~92~ubuntu18.04.1) date 2022-01-27 22:07:28*
%MOMM*%
%LPD*%
G01*
G04 APERTURE LIST*
%TA.AperFunction,ComponentPad*%
%ADD10C,1.727200*%
%TD*%
%TA.AperFunction,ComponentPad*%
%ADD11C,2.006600*%
%TD*%
%TA.AperFunction,ComponentPad*%
%ADD12O,1.700000X1.700000*%
%TD*%
%TA.AperFunction,ComponentPad*%
%ADD13R,1.700000X1.700000*%
%TD*%
%TA.AperFunction,ViaPad*%
%ADD14C,1.727200*%
%TD*%
%TA.AperFunction,ViaPad*%
%ADD15C,0.457200*%
%TD*%
%TA.AperFunction,Conductor*%
%ADD16C,0.127000*%
%TD*%
%TA.AperFunction,Conductor*%
%ADD17C,0.254000*%
%TD*%
G04 APERTURE END LIST*
D10*
%TO.P,L3,2*%
%TO.N,Net-(C29-Pad1)*%
X140741400Y-126250700D03*
%TO.P,L3,1*%
%TO.N,Net-(C25-Pad2)*%
X145313400Y-126250700D03*
%TD*%
%TO.P,L1,2*%
%TO.N,Net-(C20-Pad1)*%
X151841200Y-101714300D03*
%TO.P,L1,1*%
%TO.N,Net-(C22-Pad1)*%
X151841200Y-97142300D03*
%TD*%
%TO.P,L2,2*%
%TO.N,Net-(C25-Pad1)*%
X151231600Y-120002300D03*
%TO.P,L2,1*%
%TO.N,Net-(C20-Pad2)*%
X151231600Y-115430300D03*
%TD*%
D11*
%TO.P,J3,1*%
%TO.N,GND*%
X128629400Y-65415800D03*
%TO.P,J3,3*%
%TO.N,Iout*%
X133629400Y-70415800D03*
%TO.P,J3,2*%
%TO.N,Qout*%
X123629400Y-70415800D03*
%TD*%
D12*
%TO.P,J2,40*%
%TO.N,Net-(J2-Pad40)*%
X114947700Y-86690200D03*
%TO.P,J2,39*%
%TO.N,GND*%
X117487700Y-86690200D03*
%TO.P,J2,38*%
%TO.N,Net-(J2-Pad38)*%
X114947700Y-89230200D03*
%TO.P,J2,37*%
%TO.N,Net-(J2-Pad37)*%
X117487700Y-89230200D03*
%TO.P,J2,36*%
%TO.N,Net-(J2-Pad36)*%
X114947700Y-91770200D03*
%TO.P,J2,35*%
%TO.N,Net-(J2-Pad35)*%
X117487700Y-91770200D03*
%TO.P,J2,34*%
%TO.N,GND*%
X114947700Y-94310200D03*
%TO.P,J2,33*%
%TO.N,Net-(J2-Pad33)*%
X117487700Y-94310200D03*
%TO.P,J2,32*%
%TO.N,Net-(J2-Pad32)*%
X114947700Y-96850200D03*
%TO.P,J2,31*%
%TO.N,Net-(J2-Pad31)*%
X117487700Y-96850200D03*
%TO.P,J2,30*%
%TO.N,Net-(J2-Pad30)*%
X114947700Y-99390200D03*
%TO.P,J2,29*%
%TO.N,Net-(J2-Pad29)*%
X117487700Y-99390200D03*
%TO.P,J2,28*%
%TO.N,Net-(J2-Pad28)*%
X114947700Y-101930200D03*
%TO.P,J2,27*%
%TO.N,Net-(J2-Pad27)*%
X117487700Y-101930200D03*
%TO.P,J2,26*%
%TO.N,Net-(J2-Pad26)*%
X114947700Y-104470200D03*
%TO.P,J2,25*%
%TO.N,GND*%
X117487700Y-104470200D03*
%TO.P,J2,24*%
%TO.N,Net-(J2-Pad24)*%
X114947700Y-107010200D03*
%TO.P,J2,23*%
%TO.N,Net-(J2-Pad23)*%
X117487700Y-107010200D03*
%TO.P,J2,22*%
%TO.N,Net-(J2-Pad22)*%
X114947700Y-109550200D03*
%TO.P,J2,21*%
%TO.N,Net-(J2-Pad21)*%
X117487700Y-109550200D03*
%TO.P,J2,20*%
%TO.N,GND*%
X114947700Y-112090200D03*
%TO.P,J2,19*%
%TO.N,Net-(J2-Pad19)*%
X117487700Y-112090200D03*
%TO.P,J2,18*%
%TO.N,Net-(J2-Pad18)*%
X114947700Y-114630200D03*
%TO.P,J2,17*%
%TO.N,Net-(J2-Pad17)*%
X117487700Y-114630200D03*
%TO.P,J2,16*%
%TO.N,Net-(J2-Pad16)*%
X114947700Y-117170200D03*
%TO.P,J2,15*%
%TO.N,Net-(J2-Pad15)*%
X117487700Y-117170200D03*
%TO.P,J2,14*%
%TO.N,GND*%
X114947700Y-119710200D03*
%TO.P,J2,13*%
%TO.N,Net-(J2-Pad13)*%
X117487700Y-119710200D03*
%TO.P,J2,12*%
%TO.N,Net-(J2-Pad12)*%
X114947700Y-122250200D03*
%TO.P,J2,11*%
%TO.N,Net-(J2-Pad11)*%
X117487700Y-122250200D03*
%TO.P,J2,10*%
%TO.N,Net-(J2-Pad10)*%
X114947700Y-124790200D03*
%TO.P,J2,9*%
%TO.N,GND*%
X117487700Y-124790200D03*
%TO.P,J2,8*%
%TO.N,Net-(J2-Pad8)*%
X114947700Y-127330200D03*
%TO.P,J2,7*%
%TO.N,P5_SCL*%
X117487700Y-127330200D03*
%TO.P,J2,6*%
%TO.N,GND*%
X114947700Y-129870200D03*
%TO.P,J2,5*%
%TO.N,P3_SDA*%
X117487700Y-129870200D03*
%TO.P,J2,4*%
%TO.N,Net-(C13-Pad1)*%
X114947700Y-132410200D03*
%TO.P,J2,3*%
%TO.N,Net-(J2-Pad3)*%
X117487700Y-132410200D03*
%TO.P,J2,2*%
%TO.N,Net-(C13-Pad1)*%
X114947700Y-134950200D03*
D13*
%TO.P,J2,1*%
%TO.N,Net-(J2-Pad1)*%
X117487700Y-134950200D03*
%TD*%
%TO.P,J1,1*%
%TO.N,GND*%
X141630400Y-111048800D03*
D12*
%TO.P,J1,2*%
%TO.N,+3V3*%
X139090400Y-111048800D03*
%TO.P,J1,3*%
%TO.N,BPFIN*%
X141630400Y-108508800D03*
%TO.P,J1,4*%
%TO.N,BPFOUT*%
X139090400Y-108508800D03*
%TO.P,J1,5*%
%TO.N,RFOUT*%
X141630400Y-105968800D03*
%TO.P,J1,6*%
%TO.N,RFIN*%
X139090400Y-105968800D03*
%TO.P,J1,7*%
%TO.N,RFOUT*%
X141630400Y-103428800D03*
%TO.P,J1,8*%
%TO.N,MIXIN*%
X139090400Y-103428800D03*
%TO.P,J1,9*%
%TO.N,P3_SDA*%
X141630400Y-100888800D03*
%TO.P,J1,10*%
%TO.N,I2C_SCL*%
X139090400Y-100888800D03*
%TO.P,J1,11*%
%TO.N,P5_SCL*%
X141630400Y-98348800D03*
%TO.P,J1,12*%
%TO.N,I2C_SDA*%
X139090400Y-98348800D03*
%TO.P,J1,13*%
%TO.N,CLK0*%
X141630400Y-95808800D03*
%TO.P,J1,14*%
%TO.N,MIXCLK0*%
X139090400Y-95808800D03*
%TO.P,J1,15*%
%TO.N,CLK1*%
X141630400Y-93268800D03*
%TO.P,J1,16*%
%TO.N,MIXCLK90*%
X139090400Y-93268800D03*
%TO.P,J1,17*%
%TO.N,CLK2*%
X141630400Y-90728800D03*
%TO.P,J1,18*%
%TO.N,GND*%
X139090400Y-90728800D03*
%TO.P,J1,19*%
%TO.N,MIXI+*%
X141630400Y-88188800D03*
%TO.P,J1,20*%
%TO.N,I+*%
X139090400Y-88188800D03*
%TO.P,J1,21*%
%TO.N,MIXI-*%
X141630400Y-85648800D03*
%TO.P,J1,22*%
%TO.N,I-*%
X139090400Y-85648800D03*
%TO.P,J1,23*%
%TO.N,MIXQ+*%
X141630400Y-83108800D03*
%TO.P,J1,24*%
%TO.N,Q+*%
X139090400Y-83108800D03*
%TO.P,J1,25*%
%TO.N,MIXQ-*%
X141630400Y-80568800D03*
%TO.P,J1,26*%
%TO.N,Q-*%
X139090400Y-80568800D03*
%TO.P,J1,27*%
%TO.N,Net-(J1-Pad27)*%
X141630400Y-78028800D03*
%TO.P,J1,28*%
%TO.N,Net-(J1-Pad28)*%
X139090400Y-78028800D03*
%TD*%
D14*
%TO.N,*%
X151790400Y-72440800D03*
X154330400Y-72440800D03*
X141630400Y-72440800D03*
X154330400Y-64820800D03*
X149250400Y-67360800D03*
X151790400Y-69900800D03*
X144170400Y-72440800D03*
X151790400Y-64820800D03*
X159410400Y-64820800D03*
X154330400Y-69900800D03*
X156870400Y-67360800D03*
X154330400Y-67360800D03*
X144170400Y-64820800D03*
X159410400Y-72440800D03*
X146710400Y-64820800D03*
X144170400Y-69900800D03*
X149250400Y-69900800D03*
X156870400Y-69900800D03*
X156870400Y-72440800D03*
X144170400Y-67360800D03*
X159410400Y-67360800D03*
X159410400Y-69900800D03*
X161950400Y-69900800D03*
X151790400Y-67360800D03*
X141630400Y-64820800D03*
X141630400Y-67360800D03*
X161950400Y-64820800D03*
X161950400Y-67360800D03*
X139090400Y-69900800D03*
X139090400Y-64820800D03*
X146710400Y-72440800D03*
X146710400Y-69900800D03*
X146710400Y-67360800D03*
X156870400Y-64820800D03*
X139090400Y-72440800D03*
X139090400Y-67360800D03*
X141630400Y-69900800D03*
X149250400Y-64820800D03*
X149250400Y-59867800D03*
X159410400Y-59867800D03*
X139090400Y-59867800D03*
X144170400Y-62407800D03*
X149250400Y-62407800D03*
X156870400Y-62407800D03*
X141630400Y-62407800D03*
X151790400Y-59867800D03*
X161950400Y-62407800D03*
X141630400Y-59867800D03*
X146710400Y-59867800D03*
X161950400Y-59867800D03*
X156870400Y-59867800D03*
X139090400Y-62407800D03*
X159410400Y-62407800D03*
X154330400Y-62407800D03*
X151790400Y-62407800D03*
X146710400Y-62407800D03*
X144170400Y-59867800D03*
X154330400Y-59867800D03*
X149250400Y-72440800D03*
%TO.N,+3V3*%
X125285500Y-135051800D03*
D15*
X128930400Y-107238800D03*
X125450600Y-110845600D03*
X136550400Y-100888800D03*
X126390400Y-98348800D03*
X120040400Y-83743800D03*
X156006800Y-86144100D03*
X156006800Y-83604100D03*
X156006800Y-81064100D03*
X151561800Y-88049100D03*
X145211800Y-85509100D03*
%TO.N,GND*%
X160845500Y-82562700D03*
D14*
X131114800Y-135128000D03*
D15*
X126390400Y-107238800D03*
X131709709Y-104459491D03*
X130200400Y-102158800D03*
X128930400Y-99618800D03*
X131470400Y-98348800D03*
X131470400Y-88188800D03*
X125120400Y-97078800D03*
X122580400Y-98348800D03*
X120370600Y-110845600D03*
X119405400Y-85648800D03*
X120675400Y-88188800D03*
X120675400Y-90728800D03*
X120675400Y-93268800D03*
X120675400Y-95808800D03*
X127660400Y-79933800D03*
X153466800Y-79794100D03*
X151561800Y-81699100D03*
X148386800Y-79159100D03*
X148272490Y-86258410D03*
X127241300Y-114185700D03*
X146964400Y-106083100D03*
X136690100Y-118605300D03*
D14*
X115481100Y-75349100D03*
X154520900Y-135826500D03*
X159664400Y-135648700D03*
D15*
%TO.N,Q+*%
X123850400Y-79298800D03*
%TO.N,Iout*%
X135915400Y-83362800D03*
X135915400Y-72694800D03*
%TO.N,MIXIN*%
X128930400Y-88188800D03*
X135280400Y-99618800D03*
%TO.N,I2C_SDA*%
X151231600Y-83947000D03*
%TO.N,MIXI+*%
X134010400Y-91998800D03*
%TO.N,MIXQ+*%
X136550400Y-86918800D03*
%TO.N,Q-*%
X128930400Y-83108800D03*
D14*
%TO.N,LED_IN*%
X161950400Y-72440800D03*
D15*
%TO.N,BPFIN*%
X157187900Y-134645400D03*
%TD*%
D16*
%TO.N,Q+*%
X130200400Y-85648800D02*
X123850400Y-79298800D01*
X136550400Y-85648800D02*
X130200400Y-85648800D01*
X139090400Y-83108800D02*
X136550400Y-85648800D01*
%TO.N,Iout*%
X135915400Y-83362800D02*
X135915400Y-72694800D01*
%TO.N,MIXIN*%
X133565899Y-92824299D02*
X128930400Y-88188800D01*
X133565899Y-97904299D02*
X133565899Y-92824299D01*
X135280400Y-99618800D02*
X133565899Y-97904299D01*
%TO.N,I2C_SDA*%
X140156301Y-97282899D02*
X139090400Y-98348800D01*
X151231600Y-83947000D02*
X148615400Y-83947000D01*
X148615400Y-83947000D02*
X143573500Y-88988900D01*
X140156301Y-95327099D02*
X140156301Y-97282899D01*
X140740501Y-94742899D02*
X140156301Y-95327099D01*
X143573500Y-92903234D02*
X141733835Y-94742899D01*
X141733835Y-94742899D02*
X140740501Y-94742899D01*
X143573500Y-88988900D02*
X143573500Y-92903234D01*
%TO.N,MIXI+*%
X134010400Y-91691266D02*
X134010400Y-91998800D01*
X138578767Y-87122899D02*
X134010400Y-91691266D01*
X140564499Y-87122899D02*
X138578767Y-87122899D01*
X141630400Y-88188800D02*
X140564499Y-87122899D01*
%TO.N,MIXQ+*%
X140564499Y-84174701D02*
X141630400Y-83108800D01*
X138971210Y-84174701D02*
X140564499Y-84174701D01*
X136550400Y-86595511D02*
X138971210Y-84174701D01*
X136550400Y-86918800D02*
X136550400Y-86595511D01*
%TO.N,Q-*%
X130200400Y-84378800D02*
X128930400Y-83108800D01*
X139090400Y-80845662D02*
X139090400Y-80568800D01*
X135557262Y-84378800D02*
X139090400Y-80845662D01*
X130200400Y-84378800D02*
X135557262Y-84378800D01*
%TO.N,P3_SDA*%
X118553601Y-128804299D02*
X117487700Y-129870200D01*
X118553601Y-127468065D02*
X118553601Y-128804299D01*
X138578767Y-107442899D02*
X118553601Y-127468065D01*
X139193835Y-107442899D02*
X138578767Y-107442899D01*
X140564499Y-106072235D02*
X139193835Y-107442899D01*
X140564499Y-101954701D02*
X140564499Y-106072235D01*
X141630400Y-100888800D02*
X140564499Y-101954701D01*
%TO.N,P5_SCL*%
X140564499Y-99414701D02*
X141630400Y-98348800D01*
X138986965Y-99414701D02*
X140564499Y-99414701D01*
X138024499Y-100377167D02*
X138986965Y-99414701D01*
X138024499Y-106793401D02*
X138024499Y-100377167D01*
X117487700Y-127330200D02*
X138024499Y-106793401D01*
D17*
%TO.N,BPFIN*%
X141630400Y-108508800D02*
X144995900Y-111874300D01*
X144995900Y-111874300D02*
X144995900Y-121488200D01*
X157187900Y-133680200D02*
X144995900Y-121488200D01*
X157187900Y-134645400D02*
X157187900Y-133680200D01*
%TD*%
M02*
