%TF.GenerationSoftware,KiCad,Pcbnew,5.1.12-84ad8e8a86~92~ubuntu18.04.1*%
%TF.CreationDate,2022-01-27T22:07:28+11:00*%
%TF.ProjectId,bbb,6262622e-6b69-4636-9164-5f7063625858,rev?*%
%TF.SameCoordinates,Original*%
%TF.FileFunction,Copper,L1,Top*%
%TF.FilePolarity,Positive*%
%FSLAX46Y46*%
G04 Gerber Fmt 4.6, Leading zero omitted, Abs format (unit mm)*
G04 Created by KiCad (PCBNEW 5.1.12-84ad8e8a86~92~ubuntu18.04.1) date 2022-01-27 22:07:28*
%MOMM*%
%LPD*%
G01*
G04 APERTURE LIST*
%TA.AperFunction,ComponentPad*%
%ADD10C,1.727200*%
%TD*%
%TA.AperFunction,ComponentPad*%
%ADD11C,2.006600*%
%TD*%
%TA.AperFunction,SMDPad,CuDef*%
%ADD12R,1.524000X5.080000*%
%TD*%
%TA.AperFunction,ComponentPad*%
%ADD13O,1.700000X1.700000*%
%TD*%
%TA.AperFunction,ComponentPad*%
%ADD14R,1.700000X1.700000*%
%TD*%
%TA.AperFunction,SMDPad,CuDef*%
%ADD15R,1.060000X0.650000*%
%TD*%
%TA.AperFunction,SMDPad,CuDef*%
%ADD16R,1.400000X0.300000*%
%TD*%
%TA.AperFunction,SMDPad,CuDef*%
%ADD17R,1.400000X1.200000*%
%TD*%
%TA.AperFunction,SMDPad,CuDef*%
%ADD18R,2.290000X3.000000*%
%TD*%
%TA.AperFunction,SMDPad,CuDef*%
%ADD19R,2.000000X3.800000*%
%TD*%
%TA.AperFunction,SMDPad,CuDef*%
%ADD20R,2.000000X1.500000*%
%TD*%
%TA.AperFunction,ViaPad*%
%ADD21C,1.727200*%
%TD*%
%TA.AperFunction,ViaPad*%
%ADD22C,0.457200*%
%TD*%
%TA.AperFunction,Conductor*%
%ADD23C,0.254000*%
%TD*%
%TA.AperFunction,Conductor*%
%ADD24C,0.762000*%
%TD*%
%TA.AperFunction,Conductor*%
%ADD25C,0.508000*%
%TD*%
%TA.AperFunction,Conductor*%
%ADD26C,0.127000*%
%TD*%
%TA.AperFunction,Conductor*%
%ADD27C,0.250000*%
%TD*%
%TA.AperFunction,Conductor*%
%ADD28C,0.152400*%
%TD*%
G04 APERTURE END LIST*
D10*
%TO.P,L3,2*%
%TO.N,Net-(C29-Pad1)*%
X140741400Y-126250700D03*
%TO.P,L3,1*%
%TO.N,Net-(C25-Pad2)*%
X145313400Y-126250700D03*
%TD*%
%TO.P,L1,2*%
%TO.N,Net-(C20-Pad1)*%
X151841200Y-101714300D03*
%TO.P,L1,1*%
%TO.N,Net-(C22-Pad1)*%
X151841200Y-97142300D03*
%TD*%
%TO.P,L2,2*%
%TO.N,Net-(C25-Pad1)*%
X151231600Y-120002300D03*
%TO.P,L2,1*%
%TO.N,Net-(C20-Pad2)*%
X151231600Y-115430300D03*
%TD*%
D11*
%TO.P,J3,1*%
%TO.N,GND*%
X128629400Y-65415800D03*
%TO.P,J3,3*%
%TO.N,Iout*%
X133629400Y-70415800D03*
%TO.P,J3,2*%
%TO.N,Qout*%
X123629400Y-70415800D03*
%TD*%
D12*
%TO.P,U6,3*%
%TO.N,GND*%
X154635200Y-140538200D03*
%TO.P,U6,5*%
%TO.N,BPFIN*%
X157175200Y-140538200D03*
%TO.P,U6,2*%
%TO.N,GND*%
X159715200Y-140538200D03*
%TD*%
%TO.P,R11,1*%
%TO.N,LED_IN*%
%TA.AperFunction,SMDPad,CuDef*%
G36*
G01*
X160395498Y-75384600D02*
X161295502Y-75384600D01*
G75*
G02*
X161545500Y-75634598I0J-249998D01*
G01*
X161545500Y-76159602D01*
G75*
G02*
X161295502Y-76409600I-249998J0D01*
G01*
X160395498Y-76409600D01*
G75*
G02*
X160145500Y-76159602I0J249998D01*
G01*
X160145500Y-75634598D01*
G75*
G02*
X160395498Y-75384600I249998J0D01*
G01*
G37*
%TD.AperFunction*%
%TO.P,R11,2*%
%TO.N,Net-(D2-Pad2)*%
%TA.AperFunction,SMDPad,CuDef*%
G36*
G01*
X160395498Y-77209600D02*
X161295502Y-77209600D01*
G75*
G02*
X161545500Y-77459598I0J-249998D01*
G01*
X161545500Y-77984602D01*
G75*
G02*
X161295502Y-78234600I-249998J0D01*
G01*
X160395498Y-78234600D01*
G75*
G02*
X160145500Y-77984602I0J249998D01*
G01*
X160145500Y-77459598D01*
G75*
G02*
X160395498Y-77209600I249998J0D01*
G01*
G37*
%TD.AperFunction*%
%TD*%
%TO.P,D2,1*%
%TO.N,GND*%
%TA.AperFunction,SMDPad,CuDef*%
G36*
G01*
X161101750Y-81844600D02*
X160589250Y-81844600D01*
G75*
G02*
X160370500Y-81625850I0J218750D01*
G01*
X160370500Y-81188350D01*
G75*
G02*
X160589250Y-80969600I218750J0D01*
G01*
X161101750Y-80969600D01*
G75*
G02*
X161320500Y-81188350I0J-218750D01*
G01*
X161320500Y-81625850D01*
G75*
G02*
X161101750Y-81844600I-218750J0D01*
G01*
G37*
%TD.AperFunction*%
%TO.P,D2,2*%
%TO.N,Net-(D2-Pad2)*%
%TA.AperFunction,SMDPad,CuDef*%
G36*
G01*
X161101750Y-80269600D02*
X160589250Y-80269600D01*
G75*
G02*
X160370500Y-80050850I0J218750D01*
G01*
X160370500Y-79613350D01*
G75*
G02*
X160589250Y-79394600I218750J0D01*
G01*
X161101750Y-79394600D01*
G75*
G02*
X161320500Y-79613350I0J-218750D01*
G01*
X161320500Y-80050850D01*
G75*
G02*
X161101750Y-80269600I-218750J0D01*
G01*
G37*
%TD.AperFunction*%
%TD*%
D13*
%TO.P,J2,40*%
%TO.N,Net-(J2-Pad40)*%
X114947700Y-86690200D03*
%TO.P,J2,39*%
%TO.N,GND*%
X117487700Y-86690200D03*
%TO.P,J2,38*%
%TO.N,Net-(J2-Pad38)*%
X114947700Y-89230200D03*
%TO.P,J2,37*%
%TO.N,Net-(J2-Pad37)*%
X117487700Y-89230200D03*
%TO.P,J2,36*%
%TO.N,Net-(J2-Pad36)*%
X114947700Y-91770200D03*
%TO.P,J2,35*%
%TO.N,Net-(J2-Pad35)*%
X117487700Y-91770200D03*
%TO.P,J2,34*%
%TO.N,GND*%
X114947700Y-94310200D03*
%TO.P,J2,33*%
%TO.N,Net-(J2-Pad33)*%
X117487700Y-94310200D03*
%TO.P,J2,32*%
%TO.N,Net-(J2-Pad32)*%
X114947700Y-96850200D03*
%TO.P,J2,31*%
%TO.N,Net-(J2-Pad31)*%
X117487700Y-96850200D03*
%TO.P,J2,30*%
%TO.N,Net-(J2-Pad30)*%
X114947700Y-99390200D03*
%TO.P,J2,29*%
%TO.N,Net-(J2-Pad29)*%
X117487700Y-99390200D03*
%TO.P,J2,28*%
%TO.N,Net-(J2-Pad28)*%
X114947700Y-101930200D03*
%TO.P,J2,27*%
%TO.N,Net-(J2-Pad27)*%
X117487700Y-101930200D03*
%TO.P,J2,26*%
%TO.N,Net-(J2-Pad26)*%
X114947700Y-104470200D03*
%TO.P,J2,25*%
%TO.N,GND*%
X117487700Y-104470200D03*
%TO.P,J2,24*%
%TO.N,Net-(J2-Pad24)*%
X114947700Y-107010200D03*
%TO.P,J2,23*%
%TO.N,Net-(J2-Pad23)*%
X117487700Y-107010200D03*
%TO.P,J2,22*%
%TO.N,Net-(J2-Pad22)*%
X114947700Y-109550200D03*
%TO.P,J2,21*%
%TO.N,Net-(J2-Pad21)*%
X117487700Y-109550200D03*
%TO.P,J2,20*%
%TO.N,GND*%
X114947700Y-112090200D03*
%TO.P,J2,19*%
%TO.N,Net-(J2-Pad19)*%
X117487700Y-112090200D03*
%TO.P,J2,18*%
%TO.N,Net-(J2-Pad18)*%
X114947700Y-114630200D03*
%TO.P,J2,17*%
%TO.N,Net-(J2-Pad17)*%
X117487700Y-114630200D03*
%TO.P,J2,16*%
%TO.N,Net-(J2-Pad16)*%
X114947700Y-117170200D03*
%TO.P,J2,15*%
%TO.N,Net-(J2-Pad15)*%
X117487700Y-117170200D03*
%TO.P,J2,14*%
%TO.N,GND*%
X114947700Y-119710200D03*
%TO.P,J2,13*%
%TO.N,Net-(J2-Pad13)*%
X117487700Y-119710200D03*
%TO.P,J2,12*%
%TO.N,Net-(J2-Pad12)*%
X114947700Y-122250200D03*
%TO.P,J2,11*%
%TO.N,Net-(J2-Pad11)*%
X117487700Y-122250200D03*
%TO.P,J2,10*%
%TO.N,Net-(J2-Pad10)*%
X114947700Y-124790200D03*
%TO.P,J2,9*%
%TO.N,GND*%
X117487700Y-124790200D03*
%TO.P,J2,8*%
%TO.N,Net-(J2-Pad8)*%
X114947700Y-127330200D03*
%TO.P,J2,7*%
%TO.N,P5_SCL*%
X117487700Y-127330200D03*
%TO.P,J2,6*%
%TO.N,GND*%
X114947700Y-129870200D03*
%TO.P,J2,5*%
%TO.N,P3_SDA*%
X117487700Y-129870200D03*
%TO.P,J2,4*%
%TO.N,Net-(C13-Pad1)*%
X114947700Y-132410200D03*
%TO.P,J2,3*%
%TO.N,Net-(J2-Pad3)*%
X117487700Y-132410200D03*
%TO.P,J2,2*%
%TO.N,Net-(C13-Pad1)*%
X114947700Y-134950200D03*
D14*
%TO.P,J2,1*%
%TO.N,Net-(J2-Pad1)*%
X117487700Y-134950200D03*
%TD*%
%TO.P,R10,2*%
%TO.N,Net-(D1-Pad2)*%
%TA.AperFunction,SMDPad,CuDef*%
G36*
G01*
X124630602Y-109175600D02*
X123730598Y-109175600D01*
G75*
G02*
X123480600Y-108925602I0J249998D01*
G01*
X123480600Y-108400598D01*
G75*
G02*
X123730598Y-108150600I249998J0D01*
G01*
X124630602Y-108150600D01*
G75*
G02*
X124880600Y-108400598I0J-249998D01*
G01*
X124880600Y-108925602D01*
G75*
G02*
X124630602Y-109175600I-249998J0D01*
G01*
G37*
%TD.AperFunction*%
%TO.P,R10,1*%
%TO.N,+3V3*%
%TA.AperFunction,SMDPad,CuDef*%
G36*
G01*
X124630602Y-111000600D02*
X123730598Y-111000600D01*
G75*
G02*
X123480600Y-110750602I0J249998D01*
G01*
X123480600Y-110225598D01*
G75*
G02*
X123730598Y-109975600I249998J0D01*
G01*
X124630602Y-109975600D01*
G75*
G02*
X124880600Y-110225598I0J-249998D01*
G01*
X124880600Y-110750602D01*
G75*
G02*
X124630602Y-111000600I-249998J0D01*
G01*
G37*
%TD.AperFunction*%
%TD*%
%TO.P,D1,2*%
%TO.N,Net-(D1-Pad2)*%
%TA.AperFunction,SMDPad,CuDef*%
G36*
G01*
X121896850Y-109225600D02*
X121384350Y-109225600D01*
G75*
G02*
X121165600Y-109006850I0J218750D01*
G01*
X121165600Y-108569350D01*
G75*
G02*
X121384350Y-108350600I218750J0D01*
G01*
X121896850Y-108350600D01*
G75*
G02*
X122115600Y-108569350I0J-218750D01*
G01*
X122115600Y-109006850D01*
G75*
G02*
X121896850Y-109225600I-218750J0D01*
G01*
G37*
%TD.AperFunction*%
%TO.P,D1,1*%
%TO.N,GND*%
%TA.AperFunction,SMDPad,CuDef*%
G36*
G01*
X121896850Y-110800600D02*
X121384350Y-110800600D01*
G75*
G02*
X121165600Y-110581850I0J218750D01*
G01*
X121165600Y-110144350D01*
G75*
G02*
X121384350Y-109925600I218750J0D01*
G01*
X121896850Y-109925600D01*
G75*
G02*
X122115600Y-110144350I0J-218750D01*
G01*
X122115600Y-110581850D01*
G75*
G02*
X121896850Y-110800600I-218750J0D01*
G01*
G37*
%TD.AperFunction*%
%TD*%
D15*
%TO.P,U1,5*%
%TO.N,+3V3*%
X130370400Y-105648800D03*
%TO.P,U1,4*%
%TO.N,Net-(R2-Pad1)*%
X130370400Y-103748800D03*
%TO.P,U1,3*%
%TO.N,Net-(C2-Pad2)*%
X132570400Y-103748800D03*
%TO.P,U1,2*%
%TO.N,GND*%
X132570400Y-104698800D03*
%TO.P,U1,1*%
%TO.N,Net-(R4-Pad1)*%
X132570400Y-105648800D03*
%TD*%
%TO.P,C2,2*%
%TO.N,Net-(C2-Pad2)*%
%TA.AperFunction,SMDPad,CuDef*%
G36*
G01*
X134830400Y-104223800D02*
X134830400Y-105173800D01*
G75*
G02*
X134580400Y-105423800I-250000J0D01*
G01*
X134080400Y-105423800D01*
G75*
G02*
X133830400Y-105173800I0J250000D01*
G01*
X133830400Y-104223800D01*
G75*
G02*
X134080400Y-103973800I250000J0D01*
G01*
X134580400Y-103973800D01*
G75*
G02*
X134830400Y-104223800I0J-250000D01*
G01*
G37*
%TD.AperFunction*%
%TO.P,C2,1*%
%TO.N,RFIN*%
%TA.AperFunction,SMDPad,CuDef*%
G36*
G01*
X136730400Y-104223800D02*
X136730400Y-105173800D01*
G75*
G02*
X136480400Y-105423800I-250000J0D01*
G01*
X135980400Y-105423800D01*
G75*
G02*
X135730400Y-105173800I0J250000D01*
G01*
X135730400Y-104223800D01*
G75*
G02*
X135980400Y-103973800I250000J0D01*
G01*
X136480400Y-103973800D01*
G75*
G02*
X136730400Y-104223800I0J-250000D01*
G01*
G37*
%TD.AperFunction*%
%TD*%
%TO.P,C1,2*%
%TO.N,Net-(C1-Pad2)*%
%TA.AperFunction,SMDPad,CuDef*%
G36*
G01*
X127210400Y-100413800D02*
X127210400Y-101363800D01*
G75*
G02*
X126960400Y-101613800I-250000J0D01*
G01*
X126460400Y-101613800D01*
G75*
G02*
X126210400Y-101363800I0J250000D01*
G01*
X126210400Y-100413800D01*
G75*
G02*
X126460400Y-100163800I250000J0D01*
G01*
X126960400Y-100163800D01*
G75*
G02*
X127210400Y-100413800I0J-250000D01*
G01*
G37*
%TD.AperFunction*%
%TO.P,C1,1*%
%TO.N,GND*%
%TA.AperFunction,SMDPad,CuDef*%
G36*
G01*
X129110400Y-100413800D02*
X129110400Y-101363800D01*
G75*
G02*
X128860400Y-101613800I-250000J0D01*
G01*
X128360400Y-101613800D01*
G75*
G02*
X128110400Y-101363800I0J250000D01*
G01*
X128110400Y-100413800D01*
G75*
G02*
X128360400Y-100163800I250000J0D01*
G01*
X128860400Y-100163800D01*
G75*
G02*
X129110400Y-100413800I0J-250000D01*
G01*
G37*
%TD.AperFunction*%
%TD*%
D16*
%TO.P,U2,1*%
%TO.N,+3V3*%
X151221800Y-87144100D03*
%TO.P,U2,2*%
%TO.N,Net-(U2-Pad2)*%
X151221800Y-86644100D03*
%TO.P,U2,3*%
%TO.N,Net-(U2-Pad3)*%
X151221800Y-86144100D03*
%TO.P,U2,4*%
%TO.N,I2C_SCL*%
X151221800Y-85644100D03*
%TO.P,U2,5*%
%TO.N,I2C_SDA*%
X151221800Y-85144100D03*
%TO.P,U2,6*%
%TO.N,CLK2*%
X146821800Y-85144100D03*
%TO.P,U2,7*%
%TO.N,+3V3*%
X146821800Y-85644100D03*
%TO.P,U2,8*%
%TO.N,GND*%
X146821800Y-86144100D03*
%TO.P,U2,9*%
%TO.N,CLK1*%
X146821800Y-86644100D03*
%TO.P,U2,10*%
%TO.N,CLK0*%
X146821800Y-87144100D03*
%TD*%
D17*
%TO.P,Y1,4*%
%TO.N,GND*%
X147921800Y-80214100D03*
%TO.P,Y1,3*%
%TO.N,Net-(U2-Pad3)*%
X150121800Y-80214100D03*
%TO.P,Y1,2*%
%TO.N,GND*%
X150121800Y-81914100D03*
%TO.P,Y1,1*%
%TO.N,Net-(U2-Pad2)*%
X147921800Y-81914100D03*
%TD*%
%TO.P,C3,1*%
%TO.N,GND*%
%TA.AperFunction,SMDPad,CuDef*%
G36*
G01*
X126210400Y-106443800D02*
X126210400Y-105493800D01*
G75*
G02*
X126460400Y-105243800I250000J0D01*
G01*
X126960400Y-105243800D01*
G75*
G02*
X127210400Y-105493800I0J-250000D01*
G01*
X127210400Y-106443800D01*
G75*
G02*
X126960400Y-106693800I-250000J0D01*
G01*
X126460400Y-106693800D01*
G75*
G02*
X126210400Y-106443800I0J250000D01*
G01*
G37*
%TD.AperFunction*%
%TO.P,C3,2*%
%TO.N,+3V3*%
%TA.AperFunction,SMDPad,CuDef*%
G36*
G01*
X128110400Y-106443800D02*
X128110400Y-105493800D01*
G75*
G02*
X128360400Y-105243800I250000J0D01*
G01*
X128860400Y-105243800D01*
G75*
G02*
X129110400Y-105493800I0J-250000D01*
G01*
X129110400Y-106443800D01*
G75*
G02*
X128860400Y-106693800I-250000J0D01*
G01*
X128360400Y-106693800D01*
G75*
G02*
X128110400Y-106443800I0J250000D01*
G01*
G37*
%TD.AperFunction*%
%TD*%
%TO.P,C4,1*%
%TO.N,+3V3*%
%TA.AperFunction,SMDPad,CuDef*%
G36*
G01*
X155551800Y-80589100D02*
X155551800Y-81539100D01*
G75*
G02*
X155301800Y-81789100I-250000J0D01*
G01*
X154801800Y-81789100D01*
G75*
G02*
X154551800Y-81539100I0J250000D01*
G01*
X154551800Y-80589100D01*
G75*
G02*
X154801800Y-80339100I250000J0D01*
G01*
X155301800Y-80339100D01*
G75*
G02*
X155551800Y-80589100I0J-250000D01*
G01*
G37*
%TD.AperFunction*%
%TO.P,C4,2*%
%TO.N,GND*%
%TA.AperFunction,SMDPad,CuDef*%
G36*
G01*
X153651800Y-80589100D02*
X153651800Y-81539100D01*
G75*
G02*
X153401800Y-81789100I-250000J0D01*
G01*
X152901800Y-81789100D01*
G75*
G02*
X152651800Y-81539100I0J250000D01*
G01*
X152651800Y-80589100D01*
G75*
G02*
X152901800Y-80339100I250000J0D01*
G01*
X153401800Y-80339100D01*
G75*
G02*
X153651800Y-80589100I0J-250000D01*
G01*
G37*
%TD.AperFunction*%
%TD*%
%TO.P,C5,2*%
%TO.N,GND*%
%TA.AperFunction,SMDPad,CuDef*%
G36*
G01*
X123400400Y-99143800D02*
X123400400Y-100093800D01*
G75*
G02*
X123150400Y-100343800I-250000J0D01*
G01*
X122650400Y-100343800D01*
G75*
G02*
X122400400Y-100093800I0J250000D01*
G01*
X122400400Y-99143800D01*
G75*
G02*
X122650400Y-98893800I250000J0D01*
G01*
X123150400Y-98893800D01*
G75*
G02*
X123400400Y-99143800I0J-250000D01*
G01*
G37*
%TD.AperFunction*%
%TO.P,C5,1*%
%TO.N,+3V3*%
%TA.AperFunction,SMDPad,CuDef*%
G36*
G01*
X125300400Y-99143800D02*
X125300400Y-100093800D01*
G75*
G02*
X125050400Y-100343800I-250000J0D01*
G01*
X124550400Y-100343800D01*
G75*
G02*
X124300400Y-100093800I0J250000D01*
G01*
X124300400Y-99143800D01*
G75*
G02*
X124550400Y-98893800I250000J0D01*
G01*
X125050400Y-98893800D01*
G75*
G02*
X125300400Y-99143800I0J-250000D01*
G01*
G37*
%TD.AperFunction*%
%TD*%
%TO.P,C6,2*%
%TO.N,GND*%
%TA.AperFunction,SMDPad,CuDef*%
G36*
G01*
X122130400Y-92793800D02*
X122130400Y-93743800D01*
G75*
G02*
X121880400Y-93993800I-250000J0D01*
G01*
X121380400Y-93993800D01*
G75*
G02*
X121130400Y-93743800I0J250000D01*
G01*
X121130400Y-92793800D01*
G75*
G02*
X121380400Y-92543800I250000J0D01*
G01*
X121880400Y-92543800D01*
G75*
G02*
X122130400Y-92793800I0J-250000D01*
G01*
G37*
%TD.AperFunction*%
%TO.P,C6,1*%
%TO.N,MIXQ-*%
%TA.AperFunction,SMDPad,CuDef*%
G36*
G01*
X124030400Y-92793800D02*
X124030400Y-93743800D01*
G75*
G02*
X123780400Y-93993800I-250000J0D01*
G01*
X123280400Y-93993800D01*
G75*
G02*
X123030400Y-93743800I0J250000D01*
G01*
X123030400Y-92793800D01*
G75*
G02*
X123280400Y-92543800I250000J0D01*
G01*
X123780400Y-92543800D01*
G75*
G02*
X124030400Y-92793800I0J-250000D01*
G01*
G37*
%TD.AperFunction*%
%TD*%
%TO.P,C7,1*%
%TO.N,MIXI+*%
%TA.AperFunction,SMDPad,CuDef*%
G36*
G01*
X124030400Y-90253800D02*
X124030400Y-91203800D01*
G75*
G02*
X123780400Y-91453800I-250000J0D01*
G01*
X123280400Y-91453800D01*
G75*
G02*
X123030400Y-91203800I0J250000D01*
G01*
X123030400Y-90253800D01*
G75*
G02*
X123280400Y-90003800I250000J0D01*
G01*
X123780400Y-90003800D01*
G75*
G02*
X124030400Y-90253800I0J-250000D01*
G01*
G37*
%TD.AperFunction*%
%TO.P,C7,2*%
%TO.N,GND*%
%TA.AperFunction,SMDPad,CuDef*%
G36*
G01*
X122130400Y-90253800D02*
X122130400Y-91203800D01*
G75*
G02*
X121880400Y-91453800I-250000J0D01*
G01*
X121380400Y-91453800D01*
G75*
G02*
X121130400Y-91203800I0J250000D01*
G01*
X121130400Y-90253800D01*
G75*
G02*
X121380400Y-90003800I250000J0D01*
G01*
X121880400Y-90003800D01*
G75*
G02*
X122130400Y-90253800I0J-250000D01*
G01*
G37*
%TD.AperFunction*%
%TD*%
%TO.P,C8,2*%
%TO.N,GND*%
%TA.AperFunction,SMDPad,CuDef*%
G36*
G01*
X122130400Y-87713800D02*
X122130400Y-88663800D01*
G75*
G02*
X121880400Y-88913800I-250000J0D01*
G01*
X121380400Y-88913800D01*
G75*
G02*
X121130400Y-88663800I0J250000D01*
G01*
X121130400Y-87713800D01*
G75*
G02*
X121380400Y-87463800I250000J0D01*
G01*
X121880400Y-87463800D01*
G75*
G02*
X122130400Y-87713800I0J-250000D01*
G01*
G37*
%TD.AperFunction*%
%TO.P,C8,1*%
%TO.N,MIXQ+*%
%TA.AperFunction,SMDPad,CuDef*%
G36*
G01*
X124030400Y-87713800D02*
X124030400Y-88663800D01*
G75*
G02*
X123780400Y-88913800I-250000J0D01*
G01*
X123280400Y-88913800D01*
G75*
G02*
X123030400Y-88663800I0J250000D01*
G01*
X123030400Y-87713800D01*
G75*
G02*
X123280400Y-87463800I250000J0D01*
G01*
X123780400Y-87463800D01*
G75*
G02*
X124030400Y-87713800I0J-250000D01*
G01*
G37*
%TD.AperFunction*%
%TD*%
%TO.P,C9,2*%
%TO.N,GND*%
%TA.AperFunction,SMDPad,CuDef*%
G36*
G01*
X120860400Y-85173800D02*
X120860400Y-86123800D01*
G75*
G02*
X120610400Y-86373800I-250000J0D01*
G01*
X120110400Y-86373800D01*
G75*
G02*
X119860400Y-86123800I0J250000D01*
G01*
X119860400Y-85173800D01*
G75*
G02*
X120110400Y-84923800I250000J0D01*
G01*
X120610400Y-84923800D01*
G75*
G02*
X120860400Y-85173800I0J-250000D01*
G01*
G37*
%TD.AperFunction*%
%TO.P,C9,1*%
%TO.N,+3V3*%
%TA.AperFunction,SMDPad,CuDef*%
G36*
G01*
X122760400Y-85173800D02*
X122760400Y-86123800D01*
G75*
G02*
X122510400Y-86373800I-250000J0D01*
G01*
X122010400Y-86373800D01*
G75*
G02*
X121760400Y-86123800I0J250000D01*
G01*
X121760400Y-85173800D01*
G75*
G02*
X122010400Y-84923800I250000J0D01*
G01*
X122510400Y-84923800D01*
G75*
G02*
X122760400Y-85173800I0J-250000D01*
G01*
G37*
%TD.AperFunction*%
%TD*%
%TO.P,C10,1*%
%TO.N,MIXI-*%
%TA.AperFunction,SMDPad,CuDef*%
G36*
G01*
X124030400Y-95333800D02*
X124030400Y-96283800D01*
G75*
G02*
X123780400Y-96533800I-250000J0D01*
G01*
X123280400Y-96533800D01*
G75*
G02*
X123030400Y-96283800I0J250000D01*
G01*
X123030400Y-95333800D01*
G75*
G02*
X123280400Y-95083800I250000J0D01*
G01*
X123780400Y-95083800D01*
G75*
G02*
X124030400Y-95333800I0J-250000D01*
G01*
G37*
%TD.AperFunction*%
%TO.P,C10,2*%
%TO.N,GND*%
%TA.AperFunction,SMDPad,CuDef*%
G36*
G01*
X122130400Y-95333800D02*
X122130400Y-96283800D01*
G75*
G02*
X121880400Y-96533800I-250000J0D01*
G01*
X121380400Y-96533800D01*
G75*
G02*
X121130400Y-96283800I0J250000D01*
G01*
X121130400Y-95333800D01*
G75*
G02*
X121380400Y-95083800I250000J0D01*
G01*
X121880400Y-95083800D01*
G75*
G02*
X122130400Y-95333800I0J-250000D01*
G01*
G37*
%TD.AperFunction*%
%TD*%
%TO.P,C11,2*%
%TO.N,I+*%
%TA.AperFunction,SMDPad,CuDef*%
G36*
G01*
X131945400Y-82658800D02*
X130995400Y-82658800D01*
G75*
G02*
X130745400Y-82408800I0J250000D01*
G01*
X130745400Y-81908800D01*
G75*
G02*
X130995400Y-81658800I250000J0D01*
G01*
X131945400Y-81658800D01*
G75*
G02*
X132195400Y-81908800I0J-250000D01*
G01*
X132195400Y-82408800D01*
G75*
G02*
X131945400Y-82658800I-250000J0D01*
G01*
G37*
%TD.AperFunction*%
%TO.P,C11,1*%
%TO.N,Iout*%
%TA.AperFunction,SMDPad,CuDef*%
G36*
G01*
X131945400Y-84558800D02*
X130995400Y-84558800D01*
G75*
G02*
X130745400Y-84308800I0J250000D01*
G01*
X130745400Y-83808800D01*
G75*
G02*
X130995400Y-83558800I250000J0D01*
G01*
X131945400Y-83558800D01*
G75*
G02*
X132195400Y-83808800I0J-250000D01*
G01*
X132195400Y-84308800D01*
G75*
G02*
X131945400Y-84558800I-250000J0D01*
G01*
G37*
%TD.AperFunction*%
%TD*%
%TO.P,C12,1*%
%TO.N,Qout*%
%TA.AperFunction,SMDPad,CuDef*%
G36*
G01*
X133535400Y-76578800D02*
X134485400Y-76578800D01*
G75*
G02*
X134735400Y-76828800I0J-250000D01*
G01*
X134735400Y-77328800D01*
G75*
G02*
X134485400Y-77578800I-250000J0D01*
G01*
X133535400Y-77578800D01*
G75*
G02*
X133285400Y-77328800I0J250000D01*
G01*
X133285400Y-76828800D01*
G75*
G02*
X133535400Y-76578800I250000J0D01*
G01*
G37*
%TD.AperFunction*%
%TO.P,C12,2*%
%TO.N,I-*%
%TA.AperFunction,SMDPad,CuDef*%
G36*
G01*
X133535400Y-78478800D02*
X134485400Y-78478800D01*
G75*
G02*
X134735400Y-78728800I0J-250000D01*
G01*
X134735400Y-79228800D01*
G75*
G02*
X134485400Y-79478800I-250000J0D01*
G01*
X133535400Y-79478800D01*
G75*
G02*
X133285400Y-79228800I0J250000D01*
G01*
X133285400Y-78728800D01*
G75*
G02*
X133535400Y-78478800I250000J0D01*
G01*
G37*
%TD.AperFunction*%
%TD*%
%TO.P,R1,1*%
%TO.N,GND*%
%TA.AperFunction,SMDPad,CuDef*%
G36*
G01*
X130045400Y-101338802D02*
X130045400Y-100438798D01*
G75*
G02*
X130295398Y-100188800I249998J0D01*
G01*
X130820402Y-100188800D01*
G75*
G02*
X131070400Y-100438798I0J-249998D01*
G01*
X131070400Y-101338802D01*
G75*
G02*
X130820402Y-101588800I-249998J0D01*
G01*
X130295398Y-101588800D01*
G75*
G02*
X130045400Y-101338802I0J249998D01*
G01*
G37*
%TD.AperFunction*%
%TO.P,R1,2*%
%TO.N,Net-(C2-Pad2)*%
%TA.AperFunction,SMDPad,CuDef*%
G36*
G01*
X131870400Y-101338802D02*
X131870400Y-100438798D01*
G75*
G02*
X132120398Y-100188800I249998J0D01*
G01*
X132645402Y-100188800D01*
G75*
G02*
X132895400Y-100438798I0J-249998D01*
G01*
X132895400Y-101338802D01*
G75*
G02*
X132645402Y-101588800I-249998J0D01*
G01*
X132120398Y-101588800D01*
G75*
G02*
X131870400Y-101338802I0J249998D01*
G01*
G37*
%TD.AperFunction*%
%TD*%
%TO.P,R2,1*%
%TO.N,Net-(R2-Pad1)*%
%TA.AperFunction,SMDPad,CuDef*%
G36*
G01*
X129085400Y-102978798D02*
X129085400Y-103878802D01*
G75*
G02*
X128835402Y-104128800I-249998J0D01*
G01*
X128310398Y-104128800D01*
G75*
G02*
X128060400Y-103878802I0J249998D01*
G01*
X128060400Y-102978798D01*
G75*
G02*
X128310398Y-102728800I249998J0D01*
G01*
X128835402Y-102728800D01*
G75*
G02*
X129085400Y-102978798I0J-249998D01*
G01*
G37*
%TD.AperFunction*%
%TO.P,R2,2*%
%TO.N,Net-(C1-Pad2)*%
%TA.AperFunction,SMDPad,CuDef*%
G36*
G01*
X127260400Y-102978798D02*
X127260400Y-103878802D01*
G75*
G02*
X127010402Y-104128800I-249998J0D01*
G01*
X126485398Y-104128800D01*
G75*
G02*
X126235400Y-103878802I0J249998D01*
G01*
X126235400Y-102978798D01*
G75*
G02*
X126485398Y-102728800I249998J0D01*
G01*
X127010402Y-102728800D01*
G75*
G02*
X127260400Y-102978798I0J-249998D01*
G01*
G37*
%TD.AperFunction*%
%TD*%
%TO.P,R3,2*%
%TO.N,+3V3*%
%TA.AperFunction,SMDPad,CuDef*%
G36*
G01*
X135680400Y-102608802D02*
X135680400Y-101708798D01*
G75*
G02*
X135930398Y-101458800I249998J0D01*
G01*
X136455402Y-101458800D01*
G75*
G02*
X136705400Y-101708798I0J-249998D01*
G01*
X136705400Y-102608802D01*
G75*
G02*
X136455402Y-102858800I-249998J0D01*
G01*
X135930398Y-102858800D01*
G75*
G02*
X135680400Y-102608802I0J249998D01*
G01*
G37*
%TD.AperFunction*%
%TO.P,R3,1*%
%TO.N,Net-(C2-Pad2)*%
%TA.AperFunction,SMDPad,CuDef*%
G36*
G01*
X133855400Y-102608802D02*
X133855400Y-101708798D01*
G75*
G02*
X134105398Y-101458800I249998J0D01*
G01*
X134630402Y-101458800D01*
G75*
G02*
X134880400Y-101708798I0J-249998D01*
G01*
X134880400Y-102608802D01*
G75*
G02*
X134630402Y-102858800I-249998J0D01*
G01*
X134105398Y-102858800D01*
G75*
G02*
X133855400Y-102608802I0J249998D01*
G01*
G37*
%TD.AperFunction*%
%TD*%
%TO.P,R4,1*%
%TO.N,Net-(R4-Pad1)*%
%TA.AperFunction,SMDPad,CuDef*%
G36*
G01*
X131920402Y-109933800D02*
X131020398Y-109933800D01*
G75*
G02*
X130770400Y-109683802I0J249998D01*
G01*
X130770400Y-109158798D01*
G75*
G02*
X131020398Y-108908800I249998J0D01*
G01*
X131920402Y-108908800D01*
G75*
G02*
X132170400Y-109158798I0J-249998D01*
G01*
X132170400Y-109683802D01*
G75*
G02*
X131920402Y-109933800I-249998J0D01*
G01*
G37*
%TD.AperFunction*%
%TO.P,R4,2*%
%TO.N,Net-(R2-Pad1)*%
%TA.AperFunction,SMDPad,CuDef*%
G36*
G01*
X131920402Y-108108800D02*
X131020398Y-108108800D01*
G75*
G02*
X130770400Y-107858802I0J249998D01*
G01*
X130770400Y-107333798D01*
G75*
G02*
X131020398Y-107083800I249998J0D01*
G01*
X131920402Y-107083800D01*
G75*
G02*
X132170400Y-107333798I0J-249998D01*
G01*
X132170400Y-107858802D01*
G75*
G02*
X131920402Y-108108800I-249998J0D01*
G01*
G37*
%TD.AperFunction*%
%TD*%
%TO.P,R5,1*%
%TO.N,I2C_SCL*%
%TA.AperFunction,SMDPad,CuDef*%
G36*
G01*
X152676800Y-86594102D02*
X152676800Y-85694098D01*
G75*
G02*
X152926798Y-85444100I249998J0D01*
G01*
X153451802Y-85444100D01*
G75*
G02*
X153701800Y-85694098I0J-249998D01*
G01*
X153701800Y-86594102D01*
G75*
G02*
X153451802Y-86844100I-249998J0D01*
G01*
X152926798Y-86844100D01*
G75*
G02*
X152676800Y-86594102I0J249998D01*
G01*
G37*
%TD.AperFunction*%
%TO.P,R5,2*%
%TO.N,+3V3*%
%TA.AperFunction,SMDPad,CuDef*%
G36*
G01*
X154501800Y-86594102D02*
X154501800Y-85694098D01*
G75*
G02*
X154751798Y-85444100I249998J0D01*
G01*
X155276802Y-85444100D01*
G75*
G02*
X155526800Y-85694098I0J-249998D01*
G01*
X155526800Y-86594102D01*
G75*
G02*
X155276802Y-86844100I-249998J0D01*
G01*
X154751798Y-86844100D01*
G75*
G02*
X154501800Y-86594102I0J249998D01*
G01*
G37*
%TD.AperFunction*%
%TD*%
%TO.P,R6,2*%
%TO.N,+3V3*%
%TA.AperFunction,SMDPad,CuDef*%
G36*
G01*
X154501800Y-84054102D02*
X154501800Y-83154098D01*
G75*
G02*
X154751798Y-82904100I249998J0D01*
G01*
X155276802Y-82904100D01*
G75*
G02*
X155526800Y-83154098I0J-249998D01*
G01*
X155526800Y-84054102D01*
G75*
G02*
X155276802Y-84304100I-249998J0D01*
G01*
X154751798Y-84304100D01*
G75*
G02*
X154501800Y-84054102I0J249998D01*
G01*
G37*
%TD.AperFunction*%
%TO.P,R6,1*%
%TO.N,I2C_SDA*%
%TA.AperFunction,SMDPad,CuDef*%
G36*
G01*
X152676800Y-84054102D02*
X152676800Y-83154098D01*
G75*
G02*
X152926798Y-82904100I249998J0D01*
G01*
X153451802Y-82904100D01*
G75*
G02*
X153701800Y-83154098I0J-249998D01*
G01*
X153701800Y-84054102D01*
G75*
G02*
X153451802Y-84304100I-249998J0D01*
G01*
X152926798Y-84304100D01*
G75*
G02*
X152676800Y-84054102I0J249998D01*
G01*
G37*
%TD.AperFunction*%
%TD*%
%TO.P,R7,2*%
%TO.N,Net-(R4-Pad1)*%
%TA.AperFunction,SMDPad,CuDef*%
G36*
G01*
X134880400Y-106788798D02*
X134880400Y-107688802D01*
G75*
G02*
X134630402Y-107938800I-249998J0D01*
G01*
X134105398Y-107938800D01*
G75*
G02*
X133855400Y-107688802I0J249998D01*
G01*
X133855400Y-106788798D01*
G75*
G02*
X134105398Y-106538800I249998J0D01*
G01*
X134630402Y-106538800D01*
G75*
G02*
X134880400Y-106788798I0J-249998D01*
G01*
G37*
%TD.AperFunction*%
%TO.P,R7,1*%
%TO.N,RFOUT*%
%TA.AperFunction,SMDPad,CuDef*%
G36*
G01*
X136705400Y-106788798D02*
X136705400Y-107688802D01*
G75*
G02*
X136455402Y-107938800I-249998J0D01*
G01*
X135930398Y-107938800D01*
G75*
G02*
X135680400Y-107688802I0J249998D01*
G01*
X135680400Y-106788798D01*
G75*
G02*
X135930398Y-106538800I249998J0D01*
G01*
X136455402Y-106538800D01*
G75*
G02*
X136705400Y-106788798I0J-249998D01*
G01*
G37*
%TD.AperFunction*%
%TD*%
%TO.P,R8,2*%
%TO.N,I+*%
%TA.AperFunction,SMDPad,CuDef*%
G36*
G01*
X134460402Y-82708800D02*
X133560398Y-82708800D01*
G75*
G02*
X133310400Y-82458802I0J249998D01*
G01*
X133310400Y-81933798D01*
G75*
G02*
X133560398Y-81683800I249998J0D01*
G01*
X134460402Y-81683800D01*
G75*
G02*
X134710400Y-81933798I0J-249998D01*
G01*
X134710400Y-82458802D01*
G75*
G02*
X134460402Y-82708800I-249998J0D01*
G01*
G37*
%TD.AperFunction*%
%TO.P,R8,1*%
%TO.N,Iout*%
%TA.AperFunction,SMDPad,CuDef*%
G36*
G01*
X134460402Y-84533800D02*
X133560398Y-84533800D01*
G75*
G02*
X133310400Y-84283802I0J249998D01*
G01*
X133310400Y-83758798D01*
G75*
G02*
X133560398Y-83508800I249998J0D01*
G01*
X134460402Y-83508800D01*
G75*
G02*
X134710400Y-83758798I0J-249998D01*
G01*
X134710400Y-84283802D01*
G75*
G02*
X134460402Y-84533800I-249998J0D01*
G01*
G37*
%TD.AperFunction*%
%TD*%
%TO.P,R9,1*%
%TO.N,Qout*%
%TA.AperFunction,SMDPad,CuDef*%
G36*
G01*
X131020398Y-76603800D02*
X131920402Y-76603800D01*
G75*
G02*
X132170400Y-76853798I0J-249998D01*
G01*
X132170400Y-77378802D01*
G75*
G02*
X131920402Y-77628800I-249998J0D01*
G01*
X131020398Y-77628800D01*
G75*
G02*
X130770400Y-77378802I0J249998D01*
G01*
X130770400Y-76853798D01*
G75*
G02*
X131020398Y-76603800I249998J0D01*
G01*
G37*
%TD.AperFunction*%
%TO.P,R9,2*%
%TO.N,I-*%
%TA.AperFunction,SMDPad,CuDef*%
G36*
G01*
X131020398Y-78428800D02*
X131920402Y-78428800D01*
G75*
G02*
X132170400Y-78678798I0J-249998D01*
G01*
X132170400Y-79203802D01*
G75*
G02*
X131920402Y-79453800I-249998J0D01*
G01*
X131020398Y-79453800D01*
G75*
G02*
X130770400Y-79203802I0J249998D01*
G01*
X130770400Y-78678798D01*
G75*
G02*
X131020398Y-78428800I249998J0D01*
G01*
G37*
%TD.AperFunction*%
%TD*%
%TO.P,U3,1*%
%TO.N,GND*%
%TA.AperFunction,SMDPad,CuDef*%
G36*
G01*
X132380400Y-97563800D02*
X132380400Y-97863800D01*
G75*
G02*
X132230400Y-98013800I-150000J0D01*
G01*
X130580400Y-98013800D01*
G75*
G02*
X130430400Y-97863800I0J150000D01*
G01*
X130430400Y-97563800D01*
G75*
G02*
X130580400Y-97413800I150000J0D01*
G01*
X132230400Y-97413800D01*
G75*
G02*
X132380400Y-97563800I0J-150000D01*
G01*
G37*
%TD.AperFunction*%
%TO.P,U3,2*%
%TO.N,MIXCLK90*%
%TA.AperFunction,SMDPad,CuDef*%
G36*
G01*
X132380400Y-96293800D02*
X132380400Y-96593800D01*
G75*
G02*
X132230400Y-96743800I-150000J0D01*
G01*
X130580400Y-96743800D01*
G75*
G02*
X130430400Y-96593800I0J150000D01*
G01*
X130430400Y-96293800D01*
G75*
G02*
X130580400Y-96143800I150000J0D01*
G01*
X132230400Y-96143800D01*
G75*
G02*
X132380400Y-96293800I0J-150000D01*
G01*
G37*
%TD.AperFunction*%
%TO.P,U3,3*%
%TO.N,MIXI-*%
%TA.AperFunction,SMDPad,CuDef*%
G36*
G01*
X132380400Y-95023800D02*
X132380400Y-95323800D01*
G75*
G02*
X132230400Y-95473800I-150000J0D01*
G01*
X130580400Y-95473800D01*
G75*
G02*
X130430400Y-95323800I0J150000D01*
G01*
X130430400Y-95023800D01*
G75*
G02*
X130580400Y-94873800I150000J0D01*
G01*
X132230400Y-94873800D01*
G75*
G02*
X132380400Y-95023800I0J-150000D01*
G01*
G37*
%TD.AperFunction*%
%TO.P,U3,4*%
%TO.N,MIXQ-*%
%TA.AperFunction,SMDPad,CuDef*%
G36*
G01*
X132380400Y-93753800D02*
X132380400Y-94053800D01*
G75*
G02*
X132230400Y-94203800I-150000J0D01*
G01*
X130580400Y-94203800D01*
G75*
G02*
X130430400Y-94053800I0J150000D01*
G01*
X130430400Y-93753800D01*
G75*
G02*
X130580400Y-93603800I150000J0D01*
G01*
X132230400Y-93603800D01*
G75*
G02*
X132380400Y-93753800I0J-150000D01*
G01*
G37*
%TD.AperFunction*%
%TO.P,U3,5*%
%TO.N,MIXI+*%
%TA.AperFunction,SMDPad,CuDef*%
G36*
G01*
X132380400Y-92483800D02*
X132380400Y-92783800D01*
G75*
G02*
X132230400Y-92933800I-150000J0D01*
G01*
X130580400Y-92933800D01*
G75*
G02*
X130430400Y-92783800I0J150000D01*
G01*
X130430400Y-92483800D01*
G75*
G02*
X130580400Y-92333800I150000J0D01*
G01*
X132230400Y-92333800D01*
G75*
G02*
X132380400Y-92483800I0J-150000D01*
G01*
G37*
%TD.AperFunction*%
%TO.P,U3,6*%
%TO.N,MIXQ+*%
%TA.AperFunction,SMDPad,CuDef*%
G36*
G01*
X132380400Y-91213800D02*
X132380400Y-91513800D01*
G75*
G02*
X132230400Y-91663800I-150000J0D01*
G01*
X130580400Y-91663800D01*
G75*
G02*
X130430400Y-91513800I0J150000D01*
G01*
X130430400Y-91213800D01*
G75*
G02*
X130580400Y-91063800I150000J0D01*
G01*
X132230400Y-91063800D01*
G75*
G02*
X132380400Y-91213800I0J-150000D01*
G01*
G37*
%TD.AperFunction*%
%TO.P,U3,7*%
%TO.N,MIXIN*%
%TA.AperFunction,SMDPad,CuDef*%
G36*
G01*
X132380400Y-89943800D02*
X132380400Y-90243800D01*
G75*
G02*
X132230400Y-90393800I-150000J0D01*
G01*
X130580400Y-90393800D01*
G75*
G02*
X130430400Y-90243800I0J150000D01*
G01*
X130430400Y-89943800D01*
G75*
G02*
X130580400Y-89793800I150000J0D01*
G01*
X132230400Y-89793800D01*
G75*
G02*
X132380400Y-89943800I0J-150000D01*
G01*
G37*
%TD.AperFunction*%
%TO.P,U3,8*%
%TO.N,GND*%
%TA.AperFunction,SMDPad,CuDef*%
G36*
G01*
X132380400Y-88673800D02*
X132380400Y-88973800D01*
G75*
G02*
X132230400Y-89123800I-150000J0D01*
G01*
X130580400Y-89123800D01*
G75*
G02*
X130430400Y-88973800I0J150000D01*
G01*
X130430400Y-88673800D01*
G75*
G02*
X130580400Y-88523800I150000J0D01*
G01*
X132230400Y-88523800D01*
G75*
G02*
X132380400Y-88673800I0J-150000D01*
G01*
G37*
%TD.AperFunction*%
%TO.P,U3,9*%
%TO.N,MIXIN*%
%TA.AperFunction,SMDPad,CuDef*%
G36*
G01*
X127430400Y-88673800D02*
X127430400Y-88973800D01*
G75*
G02*
X127280400Y-89123800I-150000J0D01*
G01*
X125630400Y-89123800D01*
G75*
G02*
X125480400Y-88973800I0J150000D01*
G01*
X125480400Y-88673800D01*
G75*
G02*
X125630400Y-88523800I150000J0D01*
G01*
X127280400Y-88523800D01*
G75*
G02*
X127430400Y-88673800I0J-150000D01*
G01*
G37*
%TD.AperFunction*%
%TO.P,U3,10*%
%TO.N,MIXQ+*%
%TA.AperFunction,SMDPad,CuDef*%
G36*
G01*
X127430400Y-89943800D02*
X127430400Y-90243800D01*
G75*
G02*
X127280400Y-90393800I-150000J0D01*
G01*
X125630400Y-90393800D01*
G75*
G02*
X125480400Y-90243800I0J150000D01*
G01*
X125480400Y-89943800D01*
G75*
G02*
X125630400Y-89793800I150000J0D01*
G01*
X127280400Y-89793800D01*
G75*
G02*
X127430400Y-89943800I0J-150000D01*
G01*
G37*
%TD.AperFunction*%
%TO.P,U3,11*%
%TO.N,MIXI+*%
%TA.AperFunction,SMDPad,CuDef*%
G36*
G01*
X127430400Y-91213800D02*
X127430400Y-91513800D01*
G75*
G02*
X127280400Y-91663800I-150000J0D01*
G01*
X125630400Y-91663800D01*
G75*
G02*
X125480400Y-91513800I0J150000D01*
G01*
X125480400Y-91213800D01*
G75*
G02*
X125630400Y-91063800I150000J0D01*
G01*
X127280400Y-91063800D01*
G75*
G02*
X127430400Y-91213800I0J-150000D01*
G01*
G37*
%TD.AperFunction*%
%TO.P,U3,12*%
%TO.N,MIXQ-*%
%TA.AperFunction,SMDPad,CuDef*%
G36*
G01*
X127430400Y-92483800D02*
X127430400Y-92783800D01*
G75*
G02*
X127280400Y-92933800I-150000J0D01*
G01*
X125630400Y-92933800D01*
G75*
G02*
X125480400Y-92783800I0J150000D01*
G01*
X125480400Y-92483800D01*
G75*
G02*
X125630400Y-92333800I150000J0D01*
G01*
X127280400Y-92333800D01*
G75*
G02*
X127430400Y-92483800I0J-150000D01*
G01*
G37*
%TD.AperFunction*%
%TO.P,U3,13*%
%TO.N,MIXI-*%
%TA.AperFunction,SMDPad,CuDef*%
G36*
G01*
X127430400Y-93753800D02*
X127430400Y-94053800D01*
G75*
G02*
X127280400Y-94203800I-150000J0D01*
G01*
X125630400Y-94203800D01*
G75*
G02*
X125480400Y-94053800I0J150000D01*
G01*
X125480400Y-93753800D01*
G75*
G02*
X125630400Y-93603800I150000J0D01*
G01*
X127280400Y-93603800D01*
G75*
G02*
X127430400Y-93753800I0J-150000D01*
G01*
G37*
%TD.AperFunction*%
%TO.P,U3,14*%
%TO.N,MIXCLK0*%
%TA.AperFunction,SMDPad,CuDef*%
G36*
G01*
X127430400Y-95023800D02*
X127430400Y-95323800D01*
G75*
G02*
X127280400Y-95473800I-150000J0D01*
G01*
X125630400Y-95473800D01*
G75*
G02*
X125480400Y-95323800I0J150000D01*
G01*
X125480400Y-95023800D01*
G75*
G02*
X125630400Y-94873800I150000J0D01*
G01*
X127280400Y-94873800D01*
G75*
G02*
X127430400Y-95023800I0J-150000D01*
G01*
G37*
%TD.AperFunction*%
%TO.P,U3,15*%
%TO.N,GND*%
%TA.AperFunction,SMDPad,CuDef*%
G36*
G01*
X127430400Y-96293800D02*
X127430400Y-96593800D01*
G75*
G02*
X127280400Y-96743800I-150000J0D01*
G01*
X125630400Y-96743800D01*
G75*
G02*
X125480400Y-96593800I0J150000D01*
G01*
X125480400Y-96293800D01*
G75*
G02*
X125630400Y-96143800I150000J0D01*
G01*
X127280400Y-96143800D01*
G75*
G02*
X127430400Y-96293800I0J-150000D01*
G01*
G37*
%TD.AperFunction*%
%TO.P,U3,16*%
%TO.N,+3V3*%
%TA.AperFunction,SMDPad,CuDef*%
G36*
G01*
X127430400Y-97563800D02*
X127430400Y-97863800D01*
G75*
G02*
X127280400Y-98013800I-150000J0D01*
G01*
X125630400Y-98013800D01*
G75*
G02*
X125480400Y-97863800I0J150000D01*
G01*
X125480400Y-97563800D01*
G75*
G02*
X125630400Y-97413800I150000J0D01*
G01*
X127280400Y-97413800D01*
G75*
G02*
X127430400Y-97563800I0J-150000D01*
G01*
G37*
%TD.AperFunction*%
%TD*%
%TO.P,U4,1*%
%TO.N,Iout*%
%TA.AperFunction,SMDPad,CuDef*%
G36*
G01*
X127300400Y-83593800D02*
X127300400Y-83893800D01*
G75*
G02*
X127150400Y-84043800I-150000J0D01*
G01*
X125500400Y-84043800D01*
G75*
G02*
X125350400Y-83893800I0J150000D01*
G01*
X125350400Y-83593800D01*
G75*
G02*
X125500400Y-83443800I150000J0D01*
G01*
X127150400Y-83443800D01*
G75*
G02*
X127300400Y-83593800I0J-150000D01*
G01*
G37*
%TD.AperFunction*%
%TO.P,U4,2*%
%TO.N,Q-*%
%TA.AperFunction,SMDPad,CuDef*%
G36*
G01*
X127300400Y-82323800D02*
X127300400Y-82623800D01*
G75*
G02*
X127150400Y-82773800I-150000J0D01*
G01*
X125500400Y-82773800D01*
G75*
G02*
X125350400Y-82623800I0J150000D01*
G01*
X125350400Y-82323800D01*
G75*
G02*
X125500400Y-82173800I150000J0D01*
G01*
X127150400Y-82173800D01*
G75*
G02*
X127300400Y-82323800I0J-150000D01*
G01*
G37*
%TD.AperFunction*%
%TO.P,U4,3*%
%TO.N,I+*%
%TA.AperFunction,SMDPad,CuDef*%
G36*
G01*
X127300400Y-81053800D02*
X127300400Y-81353800D01*
G75*
G02*
X127150400Y-81503800I-150000J0D01*
G01*
X125500400Y-81503800D01*
G75*
G02*
X125350400Y-81353800I0J150000D01*
G01*
X125350400Y-81053800D01*
G75*
G02*
X125500400Y-80903800I150000J0D01*
G01*
X127150400Y-80903800D01*
G75*
G02*
X127300400Y-81053800I0J-150000D01*
G01*
G37*
%TD.AperFunction*%
%TO.P,U4,4*%
%TO.N,GND*%
%TA.AperFunction,SMDPad,CuDef*%
G36*
G01*
X127300400Y-79783800D02*
X127300400Y-80083800D01*
G75*
G02*
X127150400Y-80233800I-150000J0D01*
G01*
X125500400Y-80233800D01*
G75*
G02*
X125350400Y-80083800I0J150000D01*
G01*
X125350400Y-79783800D01*
G75*
G02*
X125500400Y-79633800I150000J0D01*
G01*
X127150400Y-79633800D01*
G75*
G02*
X127300400Y-79783800I0J-150000D01*
G01*
G37*
%TD.AperFunction*%
%TO.P,U4,5*%
%TO.N,Q+*%
%TA.AperFunction,SMDPad,CuDef*%
G36*
G01*
X122350400Y-79783800D02*
X122350400Y-80083800D01*
G75*
G02*
X122200400Y-80233800I-150000J0D01*
G01*
X120550400Y-80233800D01*
G75*
G02*
X120400400Y-80083800I0J150000D01*
G01*
X120400400Y-79783800D01*
G75*
G02*
X120550400Y-79633800I150000J0D01*
G01*
X122200400Y-79633800D01*
G75*
G02*
X122350400Y-79783800I0J-150000D01*
G01*
G37*
%TD.AperFunction*%
%TO.P,U4,6*%
%TO.N,I-*%
%TA.AperFunction,SMDPad,CuDef*%
G36*
G01*
X122350400Y-81053800D02*
X122350400Y-81353800D01*
G75*
G02*
X122200400Y-81503800I-150000J0D01*
G01*
X120550400Y-81503800D01*
G75*
G02*
X120400400Y-81353800I0J150000D01*
G01*
X120400400Y-81053800D01*
G75*
G02*
X120550400Y-80903800I150000J0D01*
G01*
X122200400Y-80903800D01*
G75*
G02*
X122350400Y-81053800I0J-150000D01*
G01*
G37*
%TD.AperFunction*%
%TO.P,U4,7*%
%TO.N,Qout*%
%TA.AperFunction,SMDPad,CuDef*%
G36*
G01*
X122350400Y-82323800D02*
X122350400Y-82623800D01*
G75*
G02*
X122200400Y-82773800I-150000J0D01*
G01*
X120550400Y-82773800D01*
G75*
G02*
X120400400Y-82623800I0J150000D01*
G01*
X120400400Y-82323800D01*
G75*
G02*
X120550400Y-82173800I150000J0D01*
G01*
X122200400Y-82173800D01*
G75*
G02*
X122350400Y-82323800I0J-150000D01*
G01*
G37*
%TD.AperFunction*%
%TO.P,U4,8*%
%TO.N,+3V3*%
%TA.AperFunction,SMDPad,CuDef*%
G36*
G01*
X122350400Y-83593800D02*
X122350400Y-83893800D01*
G75*
G02*
X122200400Y-84043800I-150000J0D01*
G01*
X120550400Y-84043800D01*
G75*
G02*
X120400400Y-83893800I0J150000D01*
G01*
X120400400Y-83593800D01*
G75*
G02*
X120550400Y-83443800I150000J0D01*
G01*
X122200400Y-83443800D01*
G75*
G02*
X122350400Y-83593800I0J-150000D01*
G01*
G37*
%TD.AperFunction*%
D18*
%TO.P,U4,9*%
%TO.N,N/C*%
X123850400Y-81838800D03*
%TD*%
D14*
%TO.P,J1,1*%
%TO.N,GND*%
X141630400Y-111048800D03*
D13*
%TO.P,J1,2*%
%TO.N,+3V3*%
X139090400Y-111048800D03*
%TO.P,J1,3*%
%TO.N,BPFIN*%
X141630400Y-108508800D03*
%TO.P,J1,4*%
%TO.N,BPFOUT*%
X139090400Y-108508800D03*
%TO.P,J1,5*%
%TO.N,RFOUT*%
X141630400Y-105968800D03*
%TO.P,J1,6*%
%TO.N,RFIN*%
X139090400Y-105968800D03*
%TO.P,J1,7*%
%TO.N,RFOUT*%
X141630400Y-103428800D03*
%TO.P,J1,8*%
%TO.N,MIXIN*%
X139090400Y-103428800D03*
%TO.P,J1,9*%
%TO.N,P3_SDA*%
X141630400Y-100888800D03*
%TO.P,J1,10*%
%TO.N,I2C_SCL*%
X139090400Y-100888800D03*
%TO.P,J1,11*%
%TO.N,P5_SCL*%
X141630400Y-98348800D03*
%TO.P,J1,12*%
%TO.N,I2C_SDA*%
X139090400Y-98348800D03*
%TO.P,J1,13*%
%TO.N,CLK0*%
X141630400Y-95808800D03*
%TO.P,J1,14*%
%TO.N,MIXCLK0*%
X139090400Y-95808800D03*
%TO.P,J1,15*%
%TO.N,CLK1*%
X141630400Y-93268800D03*
%TO.P,J1,16*%
%TO.N,MIXCLK90*%
X139090400Y-93268800D03*
%TO.P,J1,17*%
%TO.N,CLK2*%
X141630400Y-90728800D03*
%TO.P,J1,18*%
%TO.N,GND*%
X139090400Y-90728800D03*
%TO.P,J1,19*%
%TO.N,MIXI+*%
X141630400Y-88188800D03*
%TO.P,J1,20*%
%TO.N,I+*%
X139090400Y-88188800D03*
%TO.P,J1,21*%
%TO.N,MIXI-*%
X141630400Y-85648800D03*
%TO.P,J1,22*%
%TO.N,I-*%
X139090400Y-85648800D03*
%TO.P,J1,23*%
%TO.N,MIXQ+*%
X141630400Y-83108800D03*
%TO.P,J1,24*%
%TO.N,Q+*%
X139090400Y-83108800D03*
%TO.P,J1,25*%
%TO.N,MIXQ-*%
X141630400Y-80568800D03*
%TO.P,J1,26*%
%TO.N,Q-*%
X139090400Y-80568800D03*
%TO.P,J1,27*%
%TO.N,Net-(J1-Pad27)*%
X141630400Y-78028800D03*
%TO.P,J1,28*%
%TO.N,Net-(J1-Pad28)*%
X139090400Y-78028800D03*
%TD*%
%TO.P,C13,2*%
%TO.N,GND*%
%TA.AperFunction,SMDPad,CuDef*%
G36*
G01*
X130538200Y-127615100D02*
X131488200Y-127615100D01*
G75*
G02*
X131738200Y-127865100I0J-250000D01*
G01*
X131738200Y-128365100D01*
G75*
G02*
X131488200Y-128615100I-250000J0D01*
G01*
X130538200Y-128615100D01*
G75*
G02*
X130288200Y-128365100I0J250000D01*
G01*
X130288200Y-127865100D01*
G75*
G02*
X130538200Y-127615100I250000J0D01*
G01*
G37*
%TD.AperFunction*%
%TO.P,C13,1*%
%TO.N,Net-(C13-Pad1)*%
%TA.AperFunction,SMDPad,CuDef*%
G36*
G01*
X130538200Y-125715100D02*
X131488200Y-125715100D01*
G75*
G02*
X131738200Y-125965100I0J-250000D01*
G01*
X131738200Y-126465100D01*
G75*
G02*
X131488200Y-126715100I-250000J0D01*
G01*
X130538200Y-126715100D01*
G75*
G02*
X130288200Y-126465100I0J250000D01*
G01*
X130288200Y-125965100D01*
G75*
G02*
X130538200Y-125715100I250000J0D01*
G01*
G37*
%TD.AperFunction*%
%TD*%
%TO.P,C14,2*%
%TO.N,GND*%
%TA.AperFunction,SMDPad,CuDef*%
G36*
G01*
X130665200Y-131933100D02*
X131615200Y-131933100D01*
G75*
G02*
X131865200Y-132183100I0J-250000D01*
G01*
X131865200Y-132683100D01*
G75*
G02*
X131615200Y-132933100I-250000J0D01*
G01*
X130665200Y-132933100D01*
G75*
G02*
X130415200Y-132683100I0J250000D01*
G01*
X130415200Y-132183100D01*
G75*
G02*
X130665200Y-131933100I250000J0D01*
G01*
G37*
%TD.AperFunction*%
%TO.P,C14,1*%
%TO.N,+3V3*%
%TA.AperFunction,SMDPad,CuDef*%
G36*
G01*
X130665200Y-130033100D02*
X131615200Y-130033100D01*
G75*
G02*
X131865200Y-130283100I0J-250000D01*
G01*
X131865200Y-130783100D01*
G75*
G02*
X131615200Y-131033100I-250000J0D01*
G01*
X130665200Y-131033100D01*
G75*
G02*
X130415200Y-130783100I0J250000D01*
G01*
X130415200Y-130283100D01*
G75*
G02*
X130665200Y-130033100I250000J0D01*
G01*
G37*
%TD.AperFunction*%
%TD*%
%TO.P,C20,1*%
%TO.N,Net-(C20-Pad1)*%
%TA.AperFunction,SMDPad,CuDef*%
G36*
G01*
X146598300Y-115806200D02*
X146598300Y-116756200D01*
G75*
G02*
X146348300Y-117006200I-250000J0D01*
G01*
X145848300Y-117006200D01*
G75*
G02*
X145598300Y-116756200I0J250000D01*
G01*
X145598300Y-115806200D01*
G75*
G02*
X145848300Y-115556200I250000J0D01*
G01*
X146348300Y-115556200D01*
G75*
G02*
X146598300Y-115806200I0J-250000D01*
G01*
G37*
%TD.AperFunction*%
%TO.P,C20,2*%
%TO.N,Net-(C20-Pad2)*%
%TA.AperFunction,SMDPad,CuDef*%
G36*
G01*
X144698300Y-115806200D02*
X144698300Y-116756200D01*
G75*
G02*
X144448300Y-117006200I-250000J0D01*
G01*
X143948300Y-117006200D01*
G75*
G02*
X143698300Y-116756200I0J250000D01*
G01*
X143698300Y-115806200D01*
G75*
G02*
X143948300Y-115556200I250000J0D01*
G01*
X144448300Y-115556200D01*
G75*
G02*
X144698300Y-115806200I0J-250000D01*
G01*
G37*
%TD.AperFunction*%
%TD*%
%TO.P,C21,2*%
%TO.N,Net-(C20-Pad2)*%
%TA.AperFunction,SMDPad,CuDef*%
G36*
G01*
X144637300Y-113393200D02*
X144637300Y-114343200D01*
G75*
G02*
X144387300Y-114593200I-250000J0D01*
G01*
X143887300Y-114593200D01*
G75*
G02*
X143637300Y-114343200I0J250000D01*
G01*
X143637300Y-113393200D01*
G75*
G02*
X143887300Y-113143200I250000J0D01*
G01*
X144387300Y-113143200D01*
G75*
G02*
X144637300Y-113393200I0J-250000D01*
G01*
G37*
%TD.AperFunction*%
%TO.P,C21,1*%
%TO.N,Net-(C20-Pad1)*%
%TA.AperFunction,SMDPad,CuDef*%
G36*
G01*
X146537300Y-113393200D02*
X146537300Y-114343200D01*
G75*
G02*
X146287300Y-114593200I-250000J0D01*
G01*
X145787300Y-114593200D01*
G75*
G02*
X145537300Y-114343200I0J250000D01*
G01*
X145537300Y-113393200D01*
G75*
G02*
X145787300Y-113143200I250000J0D01*
G01*
X146287300Y-113143200D01*
G75*
G02*
X146537300Y-113393200I0J-250000D01*
G01*
G37*
%TD.AperFunction*%
%TD*%
%TO.P,C22,2*%
%TO.N,GND*%
%TA.AperFunction,SMDPad,CuDef*%
G36*
G01*
X146641800Y-104475700D02*
X147591800Y-104475700D01*
G75*
G02*
X147841800Y-104725700I0J-250000D01*
G01*
X147841800Y-105225700D01*
G75*
G02*
X147591800Y-105475700I-250000J0D01*
G01*
X146641800Y-105475700D01*
G75*
G02*
X146391800Y-105225700I0J250000D01*
G01*
X146391800Y-104725700D01*
G75*
G02*
X146641800Y-104475700I250000J0D01*
G01*
G37*
%TD.AperFunction*%
%TO.P,C22,1*%
%TO.N,Net-(C22-Pad1)*%
%TA.AperFunction,SMDPad,CuDef*%
G36*
G01*
X146641800Y-102575700D02*
X147591800Y-102575700D01*
G75*
G02*
X147841800Y-102825700I0J-250000D01*
G01*
X147841800Y-103325700D01*
G75*
G02*
X147591800Y-103575700I-250000J0D01*
G01*
X146641800Y-103575700D01*
G75*
G02*
X146391800Y-103325700I0J250000D01*
G01*
X146391800Y-102825700D01*
G75*
G02*
X146641800Y-102575700I250000J0D01*
G01*
G37*
%TD.AperFunction*%
%TD*%
%TO.P,C23,2*%
%TO.N,GND*%
%TA.AperFunction,SMDPad,CuDef*%
G36*
G01*
X141015300Y-115806200D02*
X141015300Y-116756200D01*
G75*
G02*
X140765300Y-117006200I-250000J0D01*
G01*
X140265300Y-117006200D01*
G75*
G02*
X140015300Y-116756200I0J250000D01*
G01*
X140015300Y-115806200D01*
G75*
G02*
X140265300Y-115556200I250000J0D01*
G01*
X140765300Y-115556200D01*
G75*
G02*
X141015300Y-115806200I0J-250000D01*
G01*
G37*
%TD.AperFunction*%
%TO.P,C23,1*%
%TO.N,Net-(C20-Pad2)*%
%TA.AperFunction,SMDPad,CuDef*%
G36*
G01*
X142915300Y-115806200D02*
X142915300Y-116756200D01*
G75*
G02*
X142665300Y-117006200I-250000J0D01*
G01*
X142165300Y-117006200D01*
G75*
G02*
X141915300Y-116756200I0J250000D01*
G01*
X141915300Y-115806200D01*
G75*
G02*
X142165300Y-115556200I250000J0D01*
G01*
X142665300Y-115556200D01*
G75*
G02*
X142915300Y-115806200I0J-250000D01*
G01*
G37*
%TD.AperFunction*%
%TD*%
%TO.P,C24,1*%
%TO.N,Net-(C20-Pad2)*%
%TA.AperFunction,SMDPad,CuDef*%
G36*
G01*
X142915300Y-113393200D02*
X142915300Y-114343200D01*
G75*
G02*
X142665300Y-114593200I-250000J0D01*
G01*
X142165300Y-114593200D01*
G75*
G02*
X141915300Y-114343200I0J250000D01*
G01*
X141915300Y-113393200D01*
G75*
G02*
X142165300Y-113143200I250000J0D01*
G01*
X142665300Y-113143200D01*
G75*
G02*
X142915300Y-113393200I0J-250000D01*
G01*
G37*
%TD.AperFunction*%
%TO.P,C24,2*%
%TO.N,GND*%
%TA.AperFunction,SMDPad,CuDef*%
G36*
G01*
X141015300Y-113393200D02*
X141015300Y-114343200D01*
G75*
G02*
X140765300Y-114593200I-250000J0D01*
G01*
X140265300Y-114593200D01*
G75*
G02*
X140015300Y-114343200I0J250000D01*
G01*
X140015300Y-113393200D01*
G75*
G02*
X140265300Y-113143200I250000J0D01*
G01*
X140765300Y-113143200D01*
G75*
G02*
X141015300Y-113393200I0J-250000D01*
G01*
G37*
%TD.AperFunction*%
%TD*%
%TO.P,C25,2*%
%TO.N,Net-(C25-Pad2)*%
%TA.AperFunction,SMDPad,CuDef*%
G36*
G01*
X141665500Y-121686300D02*
X141665500Y-122636300D01*
G75*
G02*
X141415500Y-122886300I-250000J0D01*
G01*
X140915500Y-122886300D01*
G75*
G02*
X140665500Y-122636300I0J250000D01*
G01*
X140665500Y-121686300D01*
G75*
G02*
X140915500Y-121436300I250000J0D01*
G01*
X141415500Y-121436300D01*
G75*
G02*
X141665500Y-121686300I0J-250000D01*
G01*
G37*
%TD.AperFunction*%
%TO.P,C25,1*%
%TO.N,Net-(C25-Pad1)*%
%TA.AperFunction,SMDPad,CuDef*%
G36*
G01*
X143565500Y-121686300D02*
X143565500Y-122636300D01*
G75*
G02*
X143315500Y-122886300I-250000J0D01*
G01*
X142815500Y-122886300D01*
G75*
G02*
X142565500Y-122636300I0J250000D01*
G01*
X142565500Y-121686300D01*
G75*
G02*
X142815500Y-121436300I250000J0D01*
G01*
X143315500Y-121436300D01*
G75*
G02*
X143565500Y-121686300I0J-250000D01*
G01*
G37*
%TD.AperFunction*%
%TD*%
%TO.P,C26,1*%
%TO.N,Net-(C25-Pad1)*%
%TA.AperFunction,SMDPad,CuDef*%
G36*
G01*
X143565500Y-119146300D02*
X143565500Y-120096300D01*
G75*
G02*
X143315500Y-120346300I-250000J0D01*
G01*
X142815500Y-120346300D01*
G75*
G02*
X142565500Y-120096300I0J250000D01*
G01*
X142565500Y-119146300D01*
G75*
G02*
X142815500Y-118896300I250000J0D01*
G01*
X143315500Y-118896300D01*
G75*
G02*
X143565500Y-119146300I0J-250000D01*
G01*
G37*
%TD.AperFunction*%
%TO.P,C26,2*%
%TO.N,Net-(C25-Pad2)*%
%TA.AperFunction,SMDPad,CuDef*%
G36*
G01*
X141665500Y-119146300D02*
X141665500Y-120096300D01*
G75*
G02*
X141415500Y-120346300I-250000J0D01*
G01*
X140915500Y-120346300D01*
G75*
G02*
X140665500Y-120096300I0J250000D01*
G01*
X140665500Y-119146300D01*
G75*
G02*
X140915500Y-118896300I250000J0D01*
G01*
X141415500Y-118896300D01*
G75*
G02*
X141665500Y-119146300I0J-250000D01*
G01*
G37*
%TD.AperFunction*%
%TD*%
%TO.P,C27,1*%
%TO.N,Net-(C25-Pad2)*%
%TA.AperFunction,SMDPad,CuDef*%
G36*
G01*
X139943500Y-121686300D02*
X139943500Y-122636300D01*
G75*
G02*
X139693500Y-122886300I-250000J0D01*
G01*
X139193500Y-122886300D01*
G75*
G02*
X138943500Y-122636300I0J250000D01*
G01*
X138943500Y-121686300D01*
G75*
G02*
X139193500Y-121436300I250000J0D01*
G01*
X139693500Y-121436300D01*
G75*
G02*
X139943500Y-121686300I0J-250000D01*
G01*
G37*
%TD.AperFunction*%
%TO.P,C27,2*%
%TO.N,GND*%
%TA.AperFunction,SMDPad,CuDef*%
G36*
G01*
X138043500Y-121686300D02*
X138043500Y-122636300D01*
G75*
G02*
X137793500Y-122886300I-250000J0D01*
G01*
X137293500Y-122886300D01*
G75*
G02*
X137043500Y-122636300I0J250000D01*
G01*
X137043500Y-121686300D01*
G75*
G02*
X137293500Y-121436300I250000J0D01*
G01*
X137793500Y-121436300D01*
G75*
G02*
X138043500Y-121686300I0J-250000D01*
G01*
G37*
%TD.AperFunction*%
%TD*%
%TO.P,C28,1*%
%TO.N,Net-(C25-Pad2)*%
%TA.AperFunction,SMDPad,CuDef*%
G36*
G01*
X139943500Y-119146300D02*
X139943500Y-120096300D01*
G75*
G02*
X139693500Y-120346300I-250000J0D01*
G01*
X139193500Y-120346300D01*
G75*
G02*
X138943500Y-120096300I0J250000D01*
G01*
X138943500Y-119146300D01*
G75*
G02*
X139193500Y-118896300I250000J0D01*
G01*
X139693500Y-118896300D01*
G75*
G02*
X139943500Y-119146300I0J-250000D01*
G01*
G37*
%TD.AperFunction*%
%TO.P,C28,2*%
%TO.N,GND*%
%TA.AperFunction,SMDPad,CuDef*%
G36*
G01*
X138043500Y-119146300D02*
X138043500Y-120096300D01*
G75*
G02*
X137793500Y-120346300I-250000J0D01*
G01*
X137293500Y-120346300D01*
G75*
G02*
X137043500Y-120096300I0J250000D01*
G01*
X137043500Y-119146300D01*
G75*
G02*
X137293500Y-118896300I250000J0D01*
G01*
X137793500Y-118896300D01*
G75*
G02*
X138043500Y-119146300I0J-250000D01*
G01*
G37*
%TD.AperFunction*%
%TD*%
%TO.P,C29,1*%
%TO.N,Net-(C29-Pad1)*%
%TA.AperFunction,SMDPad,CuDef*%
G36*
G01*
X130040400Y-122354000D02*
X129090400Y-122354000D01*
G75*
G02*
X128840400Y-122104000I0J250000D01*
G01*
X128840400Y-121604000D01*
G75*
G02*
X129090400Y-121354000I250000J0D01*
G01*
X130040400Y-121354000D01*
G75*
G02*
X130290400Y-121604000I0J-250000D01*
G01*
X130290400Y-122104000D01*
G75*
G02*
X130040400Y-122354000I-250000J0D01*
G01*
G37*
%TD.AperFunction*%
%TO.P,C29,2*%
%TO.N,BPFOUT*%
%TA.AperFunction,SMDPad,CuDef*%
G36*
G01*
X130040400Y-120454000D02*
X129090400Y-120454000D01*
G75*
G02*
X128840400Y-120204000I0J250000D01*
G01*
X128840400Y-119704000D01*
G75*
G02*
X129090400Y-119454000I250000J0D01*
G01*
X130040400Y-119454000D01*
G75*
G02*
X130290400Y-119704000I0J-250000D01*
G01*
X130290400Y-120204000D01*
G75*
G02*
X130040400Y-120454000I-250000J0D01*
G01*
G37*
%TD.AperFunction*%
%TD*%
%TO.P,C30,1*%
%TO.N,Net-(C29-Pad1)*%
%TA.AperFunction,SMDPad,CuDef*%
G36*
G01*
X127754400Y-122354000D02*
X126804400Y-122354000D01*
G75*
G02*
X126554400Y-122104000I0J250000D01*
G01*
X126554400Y-121604000D01*
G75*
G02*
X126804400Y-121354000I250000J0D01*
G01*
X127754400Y-121354000D01*
G75*
G02*
X128004400Y-121604000I0J-250000D01*
G01*
X128004400Y-122104000D01*
G75*
G02*
X127754400Y-122354000I-250000J0D01*
G01*
G37*
%TD.AperFunction*%
%TO.P,C30,2*%
%TO.N,BPFOUT*%
%TA.AperFunction,SMDPad,CuDef*%
G36*
G01*
X127754400Y-120454000D02*
X126804400Y-120454000D01*
G75*
G02*
X126554400Y-120204000I0J250000D01*
G01*
X126554400Y-119704000D01*
G75*
G02*
X126804400Y-119454000I250000J0D01*
G01*
X127754400Y-119454000D01*
G75*
G02*
X128004400Y-119704000I0J-250000D01*
G01*
X128004400Y-120204000D01*
G75*
G02*
X127754400Y-120454000I-250000J0D01*
G01*
G37*
%TD.AperFunction*%
%TD*%
%TO.P,C31,1*%
%TO.N,BPFOUT*%
%TA.AperFunction,SMDPad,CuDef*%
G36*
G01*
X130040400Y-118798000D02*
X129090400Y-118798000D01*
G75*
G02*
X128840400Y-118548000I0J250000D01*
G01*
X128840400Y-118048000D01*
G75*
G02*
X129090400Y-117798000I250000J0D01*
G01*
X130040400Y-117798000D01*
G75*
G02*
X130290400Y-118048000I0J-250000D01*
G01*
X130290400Y-118548000D01*
G75*
G02*
X130040400Y-118798000I-250000J0D01*
G01*
G37*
%TD.AperFunction*%
%TO.P,C31,2*%
%TO.N,GND*%
%TA.AperFunction,SMDPad,CuDef*%
G36*
G01*
X130040400Y-116898000D02*
X129090400Y-116898000D01*
G75*
G02*
X128840400Y-116648000I0J250000D01*
G01*
X128840400Y-116148000D01*
G75*
G02*
X129090400Y-115898000I250000J0D01*
G01*
X130040400Y-115898000D01*
G75*
G02*
X130290400Y-116148000I0J-250000D01*
G01*
X130290400Y-116648000D01*
G75*
G02*
X130040400Y-116898000I-250000J0D01*
G01*
G37*
%TD.AperFunction*%
%TD*%
%TO.P,C32,2*%
%TO.N,GND*%
%TA.AperFunction,SMDPad,CuDef*%
G36*
G01*
X127754400Y-116898000D02*
X126804400Y-116898000D01*
G75*
G02*
X126554400Y-116648000I0J250000D01*
G01*
X126554400Y-116148000D01*
G75*
G02*
X126804400Y-115898000I250000J0D01*
G01*
X127754400Y-115898000D01*
G75*
G02*
X128004400Y-116148000I0J-250000D01*
G01*
X128004400Y-116648000D01*
G75*
G02*
X127754400Y-116898000I-250000J0D01*
G01*
G37*
%TD.AperFunction*%
%TO.P,C32,1*%
%TO.N,BPFOUT*%
%TA.AperFunction,SMDPad,CuDef*%
G36*
G01*
X127754400Y-118798000D02*
X126804400Y-118798000D01*
G75*
G02*
X126554400Y-118548000I0J250000D01*
G01*
X126554400Y-118048000D01*
G75*
G02*
X126804400Y-117798000I250000J0D01*
G01*
X127754400Y-117798000D01*
G75*
G02*
X128004400Y-118048000I0J-250000D01*
G01*
X128004400Y-118548000D01*
G75*
G02*
X127754400Y-118798000I-250000J0D01*
G01*
G37*
%TD.AperFunction*%
%TD*%
%TO.P,R20,2*%
%TO.N,BPFIN*%
%TA.AperFunction,SMDPad,CuDef*%
G36*
G01*
X144279199Y-104400300D02*
X145179201Y-104400300D01*
G75*
G02*
X145429200Y-104650299I0J-249999D01*
G01*
X145429200Y-105175301D01*
G75*
G02*
X145179201Y-105425300I-249999J0D01*
G01*
X144279199Y-105425300D01*
G75*
G02*
X144029200Y-105175301I0J249999D01*
G01*
X144029200Y-104650299D01*
G75*
G02*
X144279199Y-104400300I249999J0D01*
G01*
G37*
%TD.AperFunction*%
%TO.P,R20,1*%
%TO.N,Net-(C22-Pad1)*%
%TA.AperFunction,SMDPad,CuDef*%
G36*
G01*
X144279199Y-102575300D02*
X145179201Y-102575300D01*
G75*
G02*
X145429200Y-102825299I0J-249999D01*
G01*
X145429200Y-103350301D01*
G75*
G02*
X145179201Y-103600300I-249999J0D01*
G01*
X144279199Y-103600300D01*
G75*
G02*
X144029200Y-103350301I0J249999D01*
G01*
X144029200Y-102825299D01*
G75*
G02*
X144279199Y-102575300I249999J0D01*
G01*
G37*
%TD.AperFunction*%
%TD*%
%TO.P,R21,1*%
%TO.N,GND*%
%TA.AperFunction,SMDPad,CuDef*%
G36*
G01*
X132137999Y-112976600D02*
X133038001Y-112976600D01*
G75*
G02*
X133288000Y-113226599I0J-249999D01*
G01*
X133288000Y-113751601D01*
G75*
G02*
X133038001Y-114001600I-249999J0D01*
G01*
X132137999Y-114001600D01*
G75*
G02*
X131888000Y-113751601I0J249999D01*
G01*
X131888000Y-113226599D01*
G75*
G02*
X132137999Y-112976600I249999J0D01*
G01*
G37*
%TD.AperFunction*%
%TO.P,R21,2*%
%TO.N,BPFOUT*%
%TA.AperFunction,SMDPad,CuDef*%
G36*
G01*
X132137999Y-114801600D02*
X133038001Y-114801600D01*
G75*
G02*
X133288000Y-115051599I0J-249999D01*
G01*
X133288000Y-115576601D01*
G75*
G02*
X133038001Y-115826600I-249999J0D01*
G01*
X132137999Y-115826600D01*
G75*
G02*
X131888000Y-115576601I0J249999D01*
G01*
X131888000Y-115051599D01*
G75*
G02*
X132137999Y-114801600I249999J0D01*
G01*
G37*
%TD.AperFunction*%
%TD*%
D19*
%TO.P,U5,2*%
%TO.N,+3V3*%
X121386200Y-129197100D03*
D20*
X127686200Y-129197100D03*
%TO.P,U5,3*%
%TO.N,Net-(C13-Pad1)*%
X127686200Y-126897100D03*
%TO.P,U5,1*%
%TO.N,GND*%
X127686200Y-131497100D03*
%TD*%
D21*
%TO.N,*%
X151790400Y-72440800D03*
X154330400Y-72440800D03*
X141630400Y-72440800D03*
X154330400Y-64820800D03*
X149250400Y-67360800D03*
X151790400Y-69900800D03*
X144170400Y-72440800D03*
X151790400Y-64820800D03*
X159410400Y-64820800D03*
X154330400Y-69900800D03*
X156870400Y-67360800D03*
X154330400Y-67360800D03*
X144170400Y-64820800D03*
X159410400Y-72440800D03*
X146710400Y-64820800D03*
X144170400Y-69900800D03*
X149250400Y-69900800D03*
X156870400Y-69900800D03*
X156870400Y-72440800D03*
X144170400Y-67360800D03*
X159410400Y-67360800D03*
X159410400Y-69900800D03*
X161950400Y-69900800D03*
X151790400Y-67360800D03*
X141630400Y-64820800D03*
X141630400Y-67360800D03*
X161950400Y-64820800D03*
X161950400Y-67360800D03*
X139090400Y-69900800D03*
X139090400Y-64820800D03*
X146710400Y-72440800D03*
X146710400Y-69900800D03*
X146710400Y-67360800D03*
X156870400Y-64820800D03*
X139090400Y-72440800D03*
X139090400Y-67360800D03*
X141630400Y-69900800D03*
X149250400Y-64820800D03*
X149250400Y-59867800D03*
X159410400Y-59867800D03*
X139090400Y-59867800D03*
X144170400Y-62407800D03*
X149250400Y-62407800D03*
X156870400Y-62407800D03*
X141630400Y-62407800D03*
X151790400Y-59867800D03*
X161950400Y-62407800D03*
X141630400Y-59867800D03*
X146710400Y-59867800D03*
X161950400Y-59867800D03*
X156870400Y-59867800D03*
X139090400Y-62407800D03*
X159410400Y-62407800D03*
X154330400Y-62407800D03*
X151790400Y-62407800D03*
X146710400Y-62407800D03*
X144170400Y-59867800D03*
X154330400Y-59867800D03*
X149250400Y-72440800D03*
%TO.N,+3V3*%
X125285500Y-135051800D03*
D22*
X128930400Y-107238800D03*
X125450600Y-110845600D03*
X136550400Y-100888800D03*
X126390400Y-98348800D03*
X120040400Y-83743800D03*
X156006800Y-86144100D03*
X156006800Y-83604100D03*
X156006800Y-81064100D03*
X151561800Y-88049100D03*
X145211800Y-85509100D03*
%TO.N,GND*%
X160845500Y-82562700D03*
D21*
X131114800Y-135128000D03*
D22*
X126390400Y-107238800D03*
X131709709Y-104459491D03*
X130200400Y-102158800D03*
X128930400Y-99618800D03*
X131470400Y-98348800D03*
X131470400Y-88188800D03*
X125120400Y-97078800D03*
X122580400Y-98348800D03*
X120370600Y-110845600D03*
X119405400Y-85648800D03*
X120675400Y-88188800D03*
X120675400Y-90728800D03*
X120675400Y-93268800D03*
X120675400Y-95808800D03*
X127660400Y-79933800D03*
X153466800Y-79794100D03*
X151561800Y-81699100D03*
X148386800Y-79159100D03*
X148272490Y-86258410D03*
X127241300Y-114185700D03*
X146964400Y-106083100D03*
X136690100Y-118605300D03*
D21*
X115481100Y-75349100D03*
X154520900Y-135826500D03*
X159664400Y-135648700D03*
D22*
%TO.N,Q+*%
X123850400Y-79298800D03*
%TO.N,Iout*%
X135915400Y-83362800D03*
X135915400Y-72694800D03*
%TO.N,MIXIN*%
X128930400Y-88188800D03*
X135280400Y-99618800D03*
%TO.N,I2C_SDA*%
X151231600Y-83947000D03*
%TO.N,MIXI+*%
X134010400Y-91998800D03*
%TO.N,MIXQ+*%
X136550400Y-86918800D03*
%TO.N,Q-*%
X128930400Y-83108800D03*
D21*
%TO.N,LED_IN*%
X161950400Y-72440800D03*
D22*
%TO.N,BPFIN*%
X157187900Y-134645400D03*
%TD*%
D23*
%TO.N,+3V3*%
X122260400Y-84628800D02*
X121375400Y-83743800D01*
X122260400Y-85648800D02*
X122260400Y-84628800D01*
X128610400Y-105968800D02*
X128610400Y-106918800D01*
X128610400Y-106918800D02*
X128930400Y-107238800D01*
X128930400Y-105648800D02*
X128610400Y-105968800D01*
X130370400Y-105648800D02*
X128930400Y-105648800D01*
X124180600Y-110488100D02*
X125093100Y-110488100D01*
X125093100Y-110488100D02*
X125450600Y-110845600D01*
X136192900Y-102158800D02*
X136192900Y-101246300D01*
X136192900Y-101246300D02*
X136550400Y-100888800D01*
X126455400Y-97713800D02*
X126455400Y-98283800D01*
X126455400Y-98283800D02*
X126390400Y-98348800D01*
X125120400Y-99618800D02*
X126390400Y-98348800D01*
X124800400Y-99618800D02*
X125120400Y-99618800D01*
X121375400Y-83743800D02*
X120040400Y-83743800D01*
X155014300Y-86144100D02*
X156006800Y-86144100D01*
X155014300Y-83604100D02*
X156006800Y-83604100D01*
X155051800Y-81064100D02*
X156006800Y-81064100D01*
X151221800Y-87144100D02*
X151221800Y-87709100D01*
X151221800Y-87709100D02*
X151561800Y-88049100D01*
X146821800Y-85644100D02*
X145346800Y-85644100D01*
X145346800Y-85644100D02*
X145211800Y-85509100D01*
D24*
X131201200Y-130594100D02*
X131140200Y-130533100D01*
D25*
X121386200Y-129197100D02*
X125298200Y-129197100D01*
X125298200Y-129197100D02*
X127686200Y-129197100D01*
X129804200Y-129197100D02*
X131140200Y-130533100D01*
X127686200Y-129197100D02*
X129804200Y-129197100D01*
X125285500Y-129209800D02*
X125298200Y-129197100D01*
X125285500Y-135051800D02*
X125285500Y-129209800D01*
D23*
%TO.N,GND*%
X160845500Y-81407100D02*
X160845500Y-82524600D01*
X128967900Y-101246300D02*
X128610400Y-100888800D01*
X126710400Y-105501300D02*
X126710400Y-105968800D01*
X126710400Y-105968800D02*
X126710400Y-106918800D01*
X126710400Y-106918800D02*
X126390400Y-107238800D01*
X132570400Y-104698800D02*
X131949018Y-104698800D01*
X131949018Y-104698800D02*
X131709709Y-104459491D01*
X130557900Y-100888800D02*
X130557900Y-101801300D01*
X130557900Y-101801300D02*
X130200400Y-102158800D01*
X128610400Y-100888800D02*
X128610400Y-99938800D01*
X128610400Y-99938800D02*
X128930400Y-99618800D01*
X131405400Y-97713800D02*
X131405400Y-98283800D01*
X131405400Y-98283800D02*
X131470400Y-98348800D01*
X131405400Y-88823800D02*
X131405400Y-88253800D01*
X131405400Y-88253800D02*
X131470400Y-88188800D01*
X126455400Y-96443800D02*
X125755400Y-96443800D01*
X125755400Y-96443800D02*
X125120400Y-97078800D01*
X122900400Y-99618800D02*
X122900400Y-98668800D01*
X122900400Y-98668800D02*
X122580400Y-98348800D01*
X121640600Y-110363100D02*
X120853100Y-110363100D01*
X120853100Y-110363100D02*
X120370600Y-110845600D01*
X120360400Y-85648800D02*
X119405400Y-85648800D01*
X121630400Y-88188800D02*
X120675400Y-88188800D01*
X121630400Y-90728800D02*
X120675400Y-90728800D01*
X121630400Y-93268800D02*
X120675400Y-93268800D01*
X121630400Y-95808800D02*
X120675400Y-95808800D01*
X126325400Y-79933800D02*
X127660400Y-79933800D01*
X153151800Y-81064100D02*
X153151800Y-80109100D01*
X153151800Y-80109100D02*
X153466800Y-79794100D01*
X150121800Y-81914100D02*
X151346800Y-81914100D01*
X151346800Y-81914100D02*
X151561800Y-81699100D01*
X147921800Y-80214100D02*
X147921800Y-79624100D01*
X147921800Y-79624100D02*
X148386800Y-79159100D01*
X146821800Y-86144100D02*
X148158180Y-86144100D01*
X148158180Y-86144100D02*
X148272490Y-86258410D01*
X140515300Y-113868200D02*
X140515300Y-116281200D01*
X140261300Y-116535200D02*
X140515300Y-116281200D01*
X137543500Y-122161300D02*
X137543500Y-119621300D01*
X127279400Y-116398000D02*
X129565400Y-116398000D01*
X140637300Y-113868200D02*
X140515300Y-113868200D01*
X137289500Y-119875300D02*
X137543500Y-119621300D01*
D25*
X130204200Y-131497100D02*
X131140200Y-132433100D01*
X127686200Y-131497100D02*
X130204200Y-131497100D01*
X131013200Y-128115100D02*
X132689600Y-129791500D01*
X132689600Y-129791500D02*
X132689600Y-131622800D01*
X131879300Y-132433100D02*
X131140200Y-132433100D01*
X132689600Y-131622800D02*
X131879300Y-132433100D01*
X131140200Y-135102600D02*
X131114800Y-135128000D01*
X131140200Y-132433100D02*
X131140200Y-135102600D01*
D23*
X132474300Y-113489100D02*
X129565400Y-116398000D01*
X132588000Y-113489100D02*
X132474300Y-113489100D01*
X127279400Y-114223800D02*
X127241300Y-114185700D01*
X127279400Y-116398000D02*
X127279400Y-114223800D01*
X140515300Y-116649500D02*
X140515300Y-116281200D01*
X137543500Y-119621300D02*
X140515300Y-116649500D01*
X147116800Y-104975700D02*
X147116800Y-105930700D01*
X147116800Y-105930700D02*
X146964400Y-106083100D01*
X137543500Y-119621300D02*
X137543500Y-119458700D01*
X137543500Y-119458700D02*
X136690100Y-118605300D01*
D25*
X159715200Y-135699500D02*
X159664400Y-135648700D01*
X159715200Y-140538200D02*
X159715200Y-135699500D01*
X154635200Y-135940800D02*
X154520900Y-135826500D01*
X154635200Y-140538200D02*
X154635200Y-135940800D01*
D26*
%TO.N,Net-(C1-Pad2)*%
X126747900Y-100926300D02*
X126710400Y-100888800D01*
D23*
X126747900Y-103428800D02*
X126747900Y-100926300D01*
%TO.N,Net-(C2-Pad2)*%
X134330400Y-104698800D02*
X134330400Y-102196300D01*
X133097900Y-100888800D02*
X134367900Y-102158800D01*
X132382900Y-100888800D02*
X133097900Y-100888800D01*
X132777900Y-103748800D02*
X134367900Y-102158800D01*
X132570400Y-103748800D02*
X132777900Y-103748800D01*
%TO.N,RFIN*%
X137820400Y-104698800D02*
X139090400Y-105968800D01*
X136230400Y-104698800D02*
X137820400Y-104698800D01*
D26*
%TO.N,Q+*%
X121375400Y-79933800D02*
X122010400Y-79298800D01*
X122010400Y-79298800D02*
X123850400Y-79298800D01*
%TO.N,I+*%
X131507900Y-82196300D02*
X131470400Y-82158800D01*
X134010400Y-82196300D02*
X131507900Y-82196300D01*
X130515400Y-81203800D02*
X126325400Y-81203800D01*
X131470400Y-82158800D02*
X130515400Y-81203800D01*
X138024499Y-87122899D02*
X139090400Y-88188800D01*
X135406762Y-82196300D02*
X138024499Y-84814037D01*
X138024499Y-84814037D02*
X138024499Y-87122899D01*
X134010400Y-82196300D02*
X135406762Y-82196300D01*
%TO.N,Iout*%
X131507900Y-84021300D02*
X131470400Y-84058800D01*
X134010400Y-84021300D02*
X131507900Y-84021300D01*
X126640400Y-84058800D02*
X126325400Y-83743800D01*
X131470400Y-84058800D02*
X126640400Y-84058800D01*
X134010400Y-84021300D02*
X135256900Y-84021300D01*
X135256900Y-84021300D02*
X135915400Y-83362800D01*
X133636400Y-70415800D02*
X133629400Y-70415800D01*
X135915400Y-72694800D02*
X133636400Y-70415800D01*
%TO.N,Qout*%
X131470400Y-77116300D02*
X133972900Y-77116300D01*
X130329900Y-77116300D02*
X123629400Y-70415800D01*
X131470400Y-77116300D02*
X130329900Y-77116300D01*
X120400400Y-82473800D02*
X118262400Y-80335800D01*
X121375400Y-82473800D02*
X120400400Y-82473800D01*
X118262400Y-75782800D02*
X123629400Y-70415800D01*
X118262400Y-80335800D02*
X118262400Y-75782800D01*
D23*
%TO.N,RFOUT*%
X140360400Y-107238800D02*
X141630400Y-105968800D01*
X136192900Y-107238800D02*
X140360400Y-107238800D01*
X141630400Y-103428800D02*
X141630400Y-105968800D01*
D26*
%TO.N,MIXIN*%
X128700400Y-90093800D02*
X131405400Y-90093800D01*
X127430400Y-88823800D02*
X128700400Y-90093800D01*
X126455400Y-88823800D02*
X127430400Y-88823800D01*
X127090400Y-88188800D02*
X126455400Y-88823800D01*
X128930400Y-88188800D02*
X127090400Y-88188800D01*
X139090400Y-102770938D02*
X139090400Y-103428800D01*
X135938262Y-99618800D02*
X139090400Y-102770938D01*
X135280400Y-99618800D02*
X135938262Y-99618800D01*
%TO.N,I2C_SCL*%
X152689300Y-85644100D02*
X153189300Y-86144100D01*
X151221800Y-85644100D02*
X152689300Y-85644100D01*
X153189300Y-88367434D02*
X153189300Y-86144100D01*
X141733835Y-99822899D02*
X153189300Y-88367434D01*
X140156301Y-99822899D02*
X141733835Y-99822899D01*
X139090400Y-100888800D02*
X140156301Y-99822899D01*
D27*
%TO.N,I2C_SDA*%
X151221800Y-85144100D02*
X151649300Y-85144100D01*
D26*
X152831800Y-83604100D02*
X153010550Y-83782850D01*
X153189300Y-83604100D02*
X151561800Y-83604100D01*
X151221800Y-85144100D02*
X151221800Y-83944100D01*
X151561800Y-83604100D02*
X151221800Y-83944100D01*
X151218900Y-83947000D02*
X151221800Y-83944100D01*
%TO.N,CLK0*%
X146821800Y-90617400D02*
X141630400Y-95808800D01*
X146821800Y-87144100D02*
X146821800Y-90617400D01*
%TO.N,MIXCLK0*%
X127025400Y-95173800D02*
X126455400Y-95173800D01*
X130835400Y-98983800D02*
X127025400Y-95173800D01*
X135915400Y-98983800D02*
X130835400Y-98983800D01*
X139090400Y-95808800D02*
X135915400Y-98983800D01*
%TO.N,CLK1*%
X141630400Y-93268800D02*
X143586200Y-91313000D01*
X145994800Y-86644100D02*
X146821800Y-86644100D01*
X143586200Y-89052700D02*
X145994800Y-86644100D01*
X143586200Y-91313000D02*
X143586200Y-89052700D01*
%TO.N,MIXCLK90*%
X135915400Y-96443800D02*
X139090400Y-93268800D01*
X131405400Y-96443800D02*
X135915400Y-96443800D01*
D28*
%TO.N,CLK2*%
X146821800Y-85144100D02*
X146624800Y-85144100D01*
D26*
X141630400Y-90728800D02*
X143103600Y-89255600D01*
X146742299Y-85064599D02*
X146821800Y-85144100D01*
X146821800Y-85144100D02*
X146323200Y-84645500D01*
X146323200Y-84645500D02*
X144970500Y-84645500D01*
X143103600Y-86512400D02*
X143103600Y-89255600D01*
X144970500Y-84645500D02*
X143103600Y-86512400D01*
%TO.N,MIXI+*%
X126455400Y-91363800D02*
X125435400Y-91363800D01*
X124800400Y-90728800D02*
X125435400Y-91363800D01*
X123530400Y-90728800D02*
X124800400Y-90728800D01*
X128700400Y-92633800D02*
X131405400Y-92633800D01*
X127430400Y-91363800D02*
X128700400Y-92633800D01*
X126455400Y-91363800D02*
X127430400Y-91363800D01*
X131405400Y-92633800D02*
X133375400Y-92633800D01*
X133375400Y-92633800D02*
X134010400Y-91998800D01*
%TO.N,MIXI-*%
X128700400Y-95173800D02*
X131405400Y-95173800D01*
X127430400Y-93903800D02*
X128700400Y-95173800D01*
X126455400Y-93903800D02*
X127430400Y-93903800D01*
X125435400Y-93903800D02*
X123530400Y-95808800D01*
X126455400Y-93903800D02*
X125435400Y-93903800D01*
X142696301Y-86714701D02*
X141630400Y-85648800D01*
X142142033Y-89254701D02*
X142696301Y-88700433D01*
X141516999Y-89254701D02*
X142142033Y-89254701D01*
X140564499Y-90207201D02*
X141516999Y-89254701D01*
X140564499Y-90893001D02*
X140564499Y-90207201D01*
X139662799Y-91794701D02*
X140564499Y-90893001D01*
X138986965Y-91794701D02*
X139662799Y-91794701D01*
X135607866Y-95173800D02*
X138986965Y-91794701D01*
X142696301Y-88700433D02*
X142696301Y-86714701D01*
X131405400Y-95173800D02*
X135607866Y-95173800D01*
%TO.N,MIXQ+*%
X128700400Y-91363800D02*
X131405400Y-91363800D01*
X127430400Y-90093800D02*
X128700400Y-91363800D01*
X126455400Y-90093800D02*
X127430400Y-90093800D01*
X131405400Y-91363800D02*
X132105400Y-91363800D01*
X132105400Y-91363800D02*
X136550400Y-86918800D01*
X125435400Y-90093800D02*
X126455400Y-90093800D01*
X123530400Y-88188800D02*
X125435400Y-90093800D01*
%TO.N,MIXQ-*%
X128700400Y-93903800D02*
X131405400Y-93903800D01*
X127430400Y-92633800D02*
X128700400Y-93903800D01*
X126455400Y-92633800D02*
X127430400Y-92633800D01*
X124165400Y-92633800D02*
X123530400Y-93268800D01*
X126455400Y-92633800D02*
X124165400Y-92633800D01*
X140564499Y-81634701D02*
X141630400Y-80568800D01*
X140564499Y-88292235D02*
X140564499Y-81634701D01*
X139602033Y-89254701D02*
X140564499Y-88292235D01*
X138278499Y-89254701D02*
X139602033Y-89254701D01*
X138278499Y-89254701D02*
X133629400Y-93903800D01*
X131405400Y-93903800D02*
X133629400Y-93903800D01*
D23*
%TO.N,Net-(R2-Pad1)*%
X128892900Y-103748800D02*
X128572900Y-103428800D01*
X130370400Y-103748800D02*
X128892900Y-103748800D01*
D26*
X130370400Y-103767747D02*
X130370400Y-103748800D01*
D23*
X131470400Y-107596300D02*
X131470400Y-105333800D01*
X130370400Y-103748800D02*
X130370400Y-104233800D01*
X131470400Y-105333800D02*
X130370400Y-104233800D01*
%TO.N,Net-(R4-Pad1)*%
X132777900Y-105648800D02*
X134367900Y-107238800D01*
X132570400Y-105648800D02*
X132777900Y-105648800D01*
X133652900Y-107238800D02*
X131470400Y-109421300D01*
X134367900Y-107238800D02*
X133652900Y-107238800D01*
%TO.N,Net-(U2-Pad2)*%
X147921800Y-81914100D02*
X147921800Y-84790100D01*
X149775800Y-86644100D02*
X151221800Y-86644100D01*
X147921800Y-84790100D02*
X149775800Y-86644100D01*
%TO.N,Net-(U2-Pad3)*%
X150271800Y-86144100D02*
X151221800Y-86144100D01*
X149021800Y-84894100D02*
X150271800Y-86144100D01*
D26*
X150121800Y-80214100D02*
X149871800Y-80214100D01*
D23*
X149021800Y-81064100D02*
X149021800Y-84894100D01*
X149871800Y-80214100D02*
X149021800Y-81064100D01*
D26*
%TO.N,I-*%
X131507900Y-78978800D02*
X131470400Y-78941300D01*
X120040400Y-80843800D02*
X120040400Y-79298800D01*
X120400400Y-81203800D02*
X120040400Y-80843800D01*
X121375400Y-81203800D02*
X120400400Y-81203800D01*
X131383399Y-78854299D02*
X120484901Y-78854299D01*
X120484901Y-78854299D02*
X120040400Y-79298800D01*
X131470400Y-78941300D02*
X131383399Y-78854299D01*
X134010400Y-78978800D02*
X131507900Y-78978800D01*
X139090400Y-84686334D02*
X134010400Y-79606334D01*
X134010400Y-79606334D02*
X134010400Y-78978800D01*
X139090400Y-85648800D02*
X139090400Y-84686334D01*
%TO.N,Q-*%
X128295400Y-82473800D02*
X126325400Y-82473800D01*
X128930400Y-83108800D02*
X128295400Y-82473800D01*
%TO.N,Net-(D1-Pad2)*%
X121765600Y-108663100D02*
X121640600Y-108788100D01*
X124180600Y-108663100D02*
X121765600Y-108663100D01*
%TO.N,Net-(D2-Pad2)*%
X160845500Y-77722100D02*
X160845500Y-79832100D01*
%TO.N,LED_IN*%
X160869000Y-75920600D02*
X160845500Y-75897100D01*
X160845500Y-73545700D02*
X161950400Y-72440800D01*
X160845500Y-75897100D02*
X160845500Y-73545700D01*
D25*
%TO.N,Net-(C13-Pad1)*%
X127725200Y-126897100D02*
X128407200Y-126215100D01*
X128407200Y-126215100D02*
X131013200Y-126215100D01*
X131015700Y-126212600D02*
X131013200Y-126215100D01*
X114947700Y-132410200D02*
X114947700Y-134950200D01*
X126823900Y-126034800D02*
X127686200Y-126897100D01*
X126315900Y-125526800D02*
X126823900Y-126034800D01*
X114947700Y-132410200D02*
X116204101Y-131153799D01*
X118090773Y-131153799D02*
X118744101Y-130500471D01*
X118744101Y-130500471D02*
X118744101Y-127127899D01*
X118744101Y-127127899D02*
X120345200Y-125526800D01*
X116204101Y-131153799D02*
X118090773Y-131153799D01*
X120345200Y-125526800D02*
X126315900Y-125526800D01*
D26*
%TO.N,Net-(C20-Pad1)*%
X146037300Y-116220200D02*
X146098300Y-116281200D01*
D23*
X146037300Y-113868200D02*
X146037300Y-116220200D01*
X146037300Y-113868200D02*
X146037300Y-112128300D01*
X146037300Y-112128300D02*
X151853900Y-106311700D01*
X151841200Y-106299000D02*
X151853900Y-106311700D01*
X151841200Y-101714300D02*
X151841200Y-106299000D01*
%TO.N,Net-(C20-Pad2)*%
X144137300Y-113868200D02*
X142415300Y-113868200D01*
X144198300Y-116281200D02*
X142415300Y-116281200D01*
X142415300Y-113868200D02*
X142415300Y-116281200D01*
X144198300Y-116281200D02*
X145900100Y-117983000D01*
X145900100Y-117983000D02*
X148678900Y-117983000D01*
X151231600Y-115430300D02*
X148678900Y-117983000D01*
%TO.N,Net-(C22-Pad1)*%
X147304800Y-103263700D02*
X147116800Y-103075700D01*
X147104700Y-103087800D02*
X147116800Y-103075700D01*
X144729200Y-103087800D02*
X147104700Y-103087800D01*
X147116800Y-102158800D02*
X147116800Y-103075700D01*
X147116800Y-101866700D02*
X147116800Y-102158800D01*
X151841200Y-97142300D02*
X147116800Y-101866700D01*
%TO.N,Net-(C25-Pad2)*%
X141165500Y-119621300D02*
X139443500Y-119621300D01*
X141165500Y-119621300D02*
X141165500Y-122161300D01*
X139443500Y-122161300D02*
X141165500Y-122161300D01*
X141224000Y-122161300D02*
X141165500Y-122161300D01*
X145254900Y-126250700D02*
X145313400Y-126250700D01*
X141165500Y-122161300D02*
X145254900Y-126250700D01*
D26*
%TO.N,Net-(C25-Pad1)*%
X143192500Y-119748300D02*
X143065500Y-119621300D01*
D23*
X143065500Y-122161300D02*
X143065500Y-119621300D01*
X150850600Y-119621300D02*
X151231600Y-120002300D01*
X143065500Y-119621300D02*
X150850600Y-119621300D01*
%TO.N,Net-(C29-Pad1)*%
X127279400Y-121854000D02*
X129565400Y-121854000D01*
X129565400Y-121854000D02*
X131887000Y-121854000D01*
X131887000Y-121854000D02*
X136283700Y-126250700D01*
X140741400Y-126250700D02*
X136283700Y-126250700D01*
%TO.N,BPFOUT*%
X129565400Y-119954000D02*
X129565400Y-118298000D01*
X129565400Y-119954000D02*
X127279400Y-119954000D01*
X127279400Y-118298000D02*
X127279400Y-119954000D01*
X132549300Y-115314100D02*
X132588000Y-115314100D01*
X129565400Y-118298000D02*
X132549300Y-115314100D01*
X132588000Y-115011200D02*
X132588000Y-115314100D01*
X139090400Y-108508800D02*
X132588000Y-115011200D01*
%TO.N,BPFIN*%
X144729200Y-105410000D02*
X144729200Y-104912800D01*
X141630400Y-108508800D02*
X144729200Y-105410000D01*
X157175200Y-134658100D02*
X157187900Y-134645400D01*
X157175200Y-140538200D02*
X157175200Y-134658100D01*
%TD*%
M02*
