M48
; DRILL file {KiCad 5.1.12-84ad8e8a86~92~ubuntu18.04.1} date Thu 27 Jan 2022 22:51:22 AEDT
; FORMAT={-:-/ absolute / inch / decimal}
; #@! TF.CreationDate,2022-01-27T22:51:22+11:00
; #@! TF.GenerationSoftware,Kicad,Pcbnew,5.1.12-84ad8e8a86~92~ubuntu18.04.1
FMAT,2
INCH
T1C0.0100
T2C0.0200
T3C0.0394
T4C0.0400
T5C0.0590
T6C0.1083
%
G90
G05
T1
X4.701Y-3.372
X4.726Y-3.297
X4.739Y-4.364
X4.751Y-3.472
X4.751Y-3.572
X4.751Y-3.672
X4.751Y-3.772
X4.826Y-3.872
X4.876Y-3.122
X4.926Y-3.822
X4.939Y-4.364
X4.976Y-3.872
X4.976Y-4.222
X5.0095Y-4.4955
X5.026Y-3.147
X5.076Y-3.272
X5.076Y-3.472
X5.076Y-3.922
X5.076Y-4.222
X5.126Y-4.022
X5.176Y-3.472
X5.176Y-3.872
X5.1854Y-4.1126
X5.276Y-3.622
X5.326Y-3.922
X5.351Y-2.862
X5.351Y-3.282
X5.376Y-3.422
X5.376Y-3.972
X5.3815Y-4.6695
X5.717Y-3.3665
X5.786Y-4.1765
X5.8375Y-3.396
X5.842Y-3.1165
X5.954Y-3.305
X5.967Y-3.2165
X5.967Y-3.4665
X6.042Y-3.1415
X6.142Y-3.1915
X6.142Y-3.2915
X6.142Y-3.3915
X6.1885Y-5.301
X6.3325Y-3.2505
T2
X4.9325Y-5.317
X5.162Y-5.32
X6.0835Y-5.3475
X6.286Y-5.3405
T3
X4.5255Y-3.413
X4.5255Y-3.513
X4.5255Y-3.613
X4.5255Y-3.713
X4.5255Y-3.813
X4.5255Y-3.913
X4.5255Y-4.013
X4.5255Y-4.113
X4.5255Y-4.213
X4.5255Y-4.313
X4.5255Y-4.413
X4.5255Y-4.513
X4.5255Y-4.613
X4.5255Y-4.713
X4.5255Y-4.813
X4.5255Y-4.913
X4.5255Y-5.013
X4.5255Y-5.113
X4.5255Y-5.213
X4.5255Y-5.313
X4.6255Y-3.413
X4.6255Y-3.513
X4.6255Y-3.613
X4.6255Y-3.713
X4.6255Y-3.813
X4.6255Y-3.913
X4.6255Y-4.013
X4.6255Y-4.113
X4.6255Y-4.213
X4.6255Y-4.313
X4.6255Y-4.413
X4.6255Y-4.513
X4.6255Y-4.613
X4.6255Y-4.713
X4.6255Y-4.813
X4.6255Y-4.913
X4.6255Y-5.013
X4.6255Y-5.113
X4.6255Y-5.213
X4.6255Y-5.313
X5.476Y-3.072
X5.476Y-3.172
X5.476Y-3.272
X5.476Y-3.372
X5.476Y-3.472
X5.476Y-3.572
X5.476Y-3.672
X5.476Y-3.772
X5.476Y-3.872
X5.476Y-3.972
X5.476Y-4.072
X5.476Y-4.172
X5.476Y-4.272
X5.476Y-4.372
X5.576Y-3.072
X5.576Y-3.172
X5.576Y-3.272
X5.576Y-3.372
X5.576Y-3.472
X5.576Y-3.572
X5.576Y-3.672
X5.576Y-3.772
X5.576Y-3.872
X5.576Y-3.972
X5.576Y-4.072
X5.576Y-4.172
X5.576Y-4.272
X5.576Y-4.372
T4
X4.5465Y-2.9665
X5.476Y-2.357
X5.476Y-2.457
X5.476Y-2.552
X5.476Y-2.652
X5.476Y-2.752
X5.476Y-2.852
X5.541Y-4.9705
X5.576Y-2.357
X5.576Y-2.457
X5.576Y-2.552
X5.576Y-2.652
X5.576Y-2.752
X5.576Y-2.852
X5.676Y-2.357
X5.676Y-2.457
X5.676Y-2.552
X5.676Y-2.652
X5.676Y-2.752
X5.676Y-2.852
X5.721Y-4.9705
X5.776Y-2.357
X5.776Y-2.457
X5.776Y-2.552
X5.776Y-2.652
X5.776Y-2.752
X5.776Y-2.852
X5.876Y-2.357
X5.876Y-2.457
X5.876Y-2.552
X5.876Y-2.652
X5.876Y-2.752
X5.876Y-2.852
X5.954Y-4.5445
X5.954Y-4.7245
X5.976Y-2.357
X5.976Y-2.457
X5.976Y-2.552
X5.976Y-2.652
X5.976Y-2.752
X5.976Y-2.852
X5.978Y-3.8245
X5.978Y-4.0045
X6.076Y-2.357
X6.076Y-2.457
X6.076Y-2.552
X6.076Y-2.652
X6.076Y-2.752
X6.076Y-2.852
X6.176Y-2.357
X6.176Y-2.457
X6.176Y-2.552
X6.176Y-2.652
X6.176Y-2.752
X6.176Y-2.852
X6.276Y-2.357
X6.276Y-2.457
X6.276Y-2.552
X6.276Y-2.652
X6.276Y-2.752
X6.276Y-2.852
X6.376Y-2.357
X6.376Y-2.457
X6.376Y-2.552
X6.376Y-2.652
X6.376Y-2.752
X6.376Y-2.852
T5
X4.8673Y-2.7723
X5.0641Y-2.5754
X5.261Y-2.7723
T6
X4.575Y-3.2218
X4.575Y-5.5052
X6.5041Y-3.2218
X6.5041Y-5.5052
T0
M30
