M48
; DRILL file {KiCad 8.0.8} date 2026-01-12T15:15:05+1100
; FORMAT={-:-/ absolute / metric / decimal}
; #@! TF.CreationDate,2026-01-12T15:15:05+11:00
; #@! TF.GenerationSoftware,Kicad,Pcbnew,8.0.8
; #@! TF.FileFunction,Plated,1,4,PTH
FMAT,2
METRIC
; #@! TA.AperFunction,Plated,PTH,ViaDrill
T1C0.254
; #@! TA.AperFunction,Plated,PTH,ViaDrill
T2C0.508
; #@! TA.AperFunction,Plated,PTH,ComponentDrill
T3C1.000
; #@! TA.AperFunction,Plated,PTH,ViaDrill
T4C1.016
; #@! TA.AperFunction,Plated,PTH,ComponentDrill
T5C1.100
; #@! TA.AperFunction,Plated,PTH,ComponentDrill
T6C1.300
; #@! TA.AperFunction,Plated,PTH,ComponentDrill
T7C1.499
; #@! TA.AperFunction,Plated,PTH,ViaDrill
T8C3.000
%
G90
G05
T1
X119.67Y-85.649
X120.04Y-83.744
X120.675Y-88.189
X120.675Y-90.729
X120.675Y-93.269
X120.675Y-95.809
X122.719Y-137.633
X122.949Y-101.573
X122.97Y-98.382
X123.85Y-79.299
X124.018Y-108.731
X125.12Y-97.079
X125.939Y-98.473
X126.71Y-107.179
X127.66Y-79.934
X128.57Y-107.282
X128.61Y-99.939
X130.57Y-102.182
X131.405Y-98.284
X131.47Y-88.189
X131.851Y-104.601
X131.929Y-115.233
X132.37Y-89.882
X134.27Y-82.482
X134.27Y-84.021
X135.28Y-99.619
X135.328Y-88.141
X135.37Y-90.282
X135.57Y-105.382
X136.193Y-101.382
X139.509Y-121.183
X139.689Y-115.063
X140.457Y-118.323
X140.484Y-123.846
X146.47Y-84.382
X147.57Y-109.852
X148.259Y-84.863
X149.136Y-95.082
X154.049Y-89.323
X156.07Y-83.882
X157.188Y-134.645
X157.319Y-90.333
X159.87Y-86.382
X160.845Y-82.563
T2
X122.789Y-127.923
X131.759Y-128.383
X154.521Y-135.826
X159.664Y-135.649
T3
X114.948Y-86.69
X114.948Y-89.23
X114.948Y-91.77
X114.948Y-94.31
X114.948Y-96.85
X114.948Y-99.39
X114.948Y-101.93
X114.948Y-104.47
X114.948Y-107.01
X114.948Y-109.55
X114.948Y-112.09
X114.948Y-114.63
X114.948Y-117.17
X114.948Y-119.71
X114.948Y-122.25
X114.948Y-124.79
X114.948Y-127.33
X114.948Y-129.87
X114.948Y-132.41
X114.948Y-134.95
X117.132Y-64.922
X117.132Y-70.256
X117.488Y-86.69
X117.488Y-89.23
X117.488Y-91.77
X117.488Y-94.31
X117.488Y-96.85
X117.488Y-99.39
X117.488Y-101.93
X117.488Y-104.47
X117.488Y-107.01
X117.488Y-109.55
X117.488Y-112.09
X117.488Y-114.63
X117.488Y-117.17
X117.488Y-119.71
X117.488Y-122.25
X117.488Y-124.79
X117.488Y-127.33
X117.488Y-129.87
X117.488Y-132.41
X117.488Y-134.95
X127.77Y-111.882
X139.09Y-78.029
X139.09Y-80.569
X139.09Y-83.109
X139.09Y-85.649
X139.09Y-88.189
X139.09Y-90.729
X139.09Y-93.269
X139.09Y-95.809
X139.09Y-98.349
X139.09Y-100.889
X139.09Y-103.429
X139.09Y-105.969
X139.09Y-108.509
X139.09Y-111.049
X141.63Y-78.029
X141.63Y-80.569
X141.63Y-83.109
X141.63Y-85.649
X141.63Y-88.189
X141.63Y-90.729
X141.63Y-93.269
X141.63Y-95.809
X141.63Y-98.349
X141.63Y-100.889
X141.63Y-103.429
X141.63Y-105.969
X141.63Y-108.509
X141.63Y-111.049
X146.17Y-86.766
X146.17Y-91.782
X146.17Y-96.482
X146.27Y-101.782
X156.17Y-93.882
X161.37Y-91.082
T4
X115.349Y-75.593
X139.09Y-59.868
X139.09Y-62.408
X139.09Y-64.821
X139.09Y-67.361
X139.09Y-69.901
X139.09Y-72.441
X141.63Y-59.868
X141.63Y-62.408
X141.63Y-64.821
X141.63Y-67.361
X141.63Y-69.901
X141.63Y-72.441
X144.17Y-59.868
X144.17Y-62.408
X144.17Y-64.821
X144.17Y-67.361
X144.17Y-69.901
X144.17Y-72.441
X146.71Y-59.868
X146.71Y-62.408
X146.71Y-64.821
X146.71Y-67.361
X146.71Y-69.901
X146.71Y-72.441
X149.25Y-59.868
X149.25Y-62.408
X149.25Y-64.821
X149.25Y-67.361
X149.25Y-69.901
X149.25Y-72.441
X151.79Y-59.868
X151.79Y-62.408
X151.79Y-64.821
X151.79Y-67.361
X151.79Y-69.901
X151.79Y-72.441
X154.33Y-59.868
X154.33Y-62.408
X154.33Y-64.821
X154.33Y-67.361
X154.33Y-69.901
X154.33Y-72.441
X156.87Y-59.868
X156.87Y-62.408
X156.87Y-64.821
X156.87Y-67.361
X156.87Y-69.901
X156.87Y-72.441
X159.41Y-59.868
X159.41Y-62.408
X159.41Y-64.821
X159.41Y-67.361
X159.41Y-69.901
X159.41Y-72.441
X161.95Y-59.868
X161.95Y-62.408
X161.95Y-64.821
X161.95Y-67.361
X161.95Y-69.901
X161.95Y-72.441
T5
X141.63Y-128.582
X144.17Y-128.582
X154.17Y-98.812
X154.17Y-101.352
X154.17Y-117.212
X154.17Y-119.752
T6
X147.77Y-77.782
X155.39Y-77.782
T7
X123.629Y-70.416
X128.629Y-65.416
X133.629Y-70.416
T8
X116.316Y-81.756
X116.316Y-139.756
X165.316Y-81.756
X165.316Y-139.756
M30
