%TF.GenerationSoftware,KiCad,Pcbnew,8.0.8*%
%TF.CreationDate,2026-01-12T15:14:53+11:00*%
%TF.ProjectId,bbb,6262622e-6b69-4636-9164-5f7063625858,rev?*%
%TF.SameCoordinates,Original*%
%TF.FileFunction,Drillmap*%
%TF.FilePolarity,Positive*%
%FSLAX45Y45*%
G04 Gerber Fmt 4.5, Leading zero omitted, Abs format (unit mm)*
G04 Created by KiCad (PCBNEW 8.0.8) date 2026-01-12 15:14:53*
%MOMM*%
%LPD*%
G01*
G04 APERTURE LIST*
%ADD10C,0.002540*%
%ADD11C,0.200000*%
%ADD12C,0.110000*%
G04 APERTURE END LIST*
D10*
X16551913Y-14325585D02*
X11615420Y-14325600D01*
X16629230Y-5835649D02*
X11564620Y-5835650D01*
X11285220Y-6115050D02*
G75*
G02*
X11564620Y-5835650I279400J0D01*
G01*
X16873220Y-14001750D02*
X16874490Y-6083300D01*
X16873213Y-14001750D02*
G75*
G02*
X16551913Y-14325583I-321303J-2520D01*
G01*
X11615420Y-14325600D02*
G75*
G02*
X11285220Y-13995400I0J330200D01*
G01*
X11285220Y-13995400D02*
X11285220Y-6115050D01*
X16629230Y-5835649D02*
G75*
G02*
X16874490Y-6083300I-1120J-246381D01*
G01*
D11*
D12*
X14108010Y-13057240D02*
X14218010Y-13167240D01*
X14218010Y-13057240D02*
X14108010Y-13167240D01*
X14362010Y-13057240D02*
X14472010Y-13167240D01*
X14472010Y-13057240D02*
X14362010Y-13167240D01*
X15616010Y-9826240D02*
X15726010Y-9936240D01*
X15726010Y-9826240D02*
X15616010Y-9936240D01*
X15616010Y-10080240D02*
X15726010Y-10190240D01*
X15726010Y-10080240D02*
X15616010Y-10190240D01*
X15616010Y-11666240D02*
X15726010Y-11776240D01*
X15726010Y-11666240D02*
X15616010Y-11776240D01*
X15616010Y-11920240D02*
X15726010Y-12030240D01*
X15726010Y-11920240D02*
X15616010Y-12030240D01*
D11*
X11545870Y-14637211D02*
X11545870Y-14437211D01*
X11545870Y-14437211D02*
X11593489Y-14437211D01*
X11593489Y-14437211D02*
X11622060Y-14446735D01*
X11622060Y-14446735D02*
X11641108Y-14465782D01*
X11641108Y-14465782D02*
X11650632Y-14484830D01*
X11650632Y-14484830D02*
X11660155Y-14522925D01*
X11660155Y-14522925D02*
X11660155Y-14551496D01*
X11660155Y-14551496D02*
X11650632Y-14589592D01*
X11650632Y-14589592D02*
X11641108Y-14608639D01*
X11641108Y-14608639D02*
X11622060Y-14627687D01*
X11622060Y-14627687D02*
X11593489Y-14637211D01*
X11593489Y-14637211D02*
X11545870Y-14637211D01*
X11745870Y-14637211D02*
X11745870Y-14503877D01*
X11745870Y-14541973D02*
X11755394Y-14522925D01*
X11755394Y-14522925D02*
X11764917Y-14513401D01*
X11764917Y-14513401D02*
X11783965Y-14503877D01*
X11783965Y-14503877D02*
X11803013Y-14503877D01*
X11869679Y-14637211D02*
X11869679Y-14503877D01*
X11869679Y-14437211D02*
X11860155Y-14446735D01*
X11860155Y-14446735D02*
X11869679Y-14456258D01*
X11869679Y-14456258D02*
X11879203Y-14446735D01*
X11879203Y-14446735D02*
X11869679Y-14437211D01*
X11869679Y-14437211D02*
X11869679Y-14456258D01*
X11993489Y-14637211D02*
X11974441Y-14627687D01*
X11974441Y-14627687D02*
X11964917Y-14608639D01*
X11964917Y-14608639D02*
X11964917Y-14437211D01*
X12098251Y-14637211D02*
X12079203Y-14627687D01*
X12079203Y-14627687D02*
X12069679Y-14608639D01*
X12069679Y-14608639D02*
X12069679Y-14437211D01*
X12326822Y-14637211D02*
X12326822Y-14437211D01*
X12326822Y-14437211D02*
X12393489Y-14580068D01*
X12393489Y-14580068D02*
X12460155Y-14437211D01*
X12460155Y-14437211D02*
X12460155Y-14637211D01*
X12641108Y-14637211D02*
X12641108Y-14532449D01*
X12641108Y-14532449D02*
X12631584Y-14513401D01*
X12631584Y-14513401D02*
X12612536Y-14503877D01*
X12612536Y-14503877D02*
X12574441Y-14503877D01*
X12574441Y-14503877D02*
X12555394Y-14513401D01*
X12641108Y-14627687D02*
X12622060Y-14637211D01*
X12622060Y-14637211D02*
X12574441Y-14637211D01*
X12574441Y-14637211D02*
X12555394Y-14627687D01*
X12555394Y-14627687D02*
X12545870Y-14608639D01*
X12545870Y-14608639D02*
X12545870Y-14589592D01*
X12545870Y-14589592D02*
X12555394Y-14570544D01*
X12555394Y-14570544D02*
X12574441Y-14561020D01*
X12574441Y-14561020D02*
X12622060Y-14561020D01*
X12622060Y-14561020D02*
X12641108Y-14551496D01*
X12736346Y-14503877D02*
X12736346Y-14703877D01*
X12736346Y-14513401D02*
X12755394Y-14503877D01*
X12755394Y-14503877D02*
X12793489Y-14503877D01*
X12793489Y-14503877D02*
X12812536Y-14513401D01*
X12812536Y-14513401D02*
X12822060Y-14522925D01*
X12822060Y-14522925D02*
X12831584Y-14541973D01*
X12831584Y-14541973D02*
X12831584Y-14599115D01*
X12831584Y-14599115D02*
X12822060Y-14618163D01*
X12822060Y-14618163D02*
X12812536Y-14627687D01*
X12812536Y-14627687D02*
X12793489Y-14637211D01*
X12793489Y-14637211D02*
X12755394Y-14637211D01*
X12755394Y-14637211D02*
X12736346Y-14627687D01*
X12917298Y-14618163D02*
X12926822Y-14627687D01*
X12926822Y-14627687D02*
X12917298Y-14637211D01*
X12917298Y-14637211D02*
X12907775Y-14627687D01*
X12907775Y-14627687D02*
X12917298Y-14618163D01*
X12917298Y-14618163D02*
X12917298Y-14637211D01*
X12917298Y-14513401D02*
X12926822Y-14522925D01*
X12926822Y-14522925D02*
X12917298Y-14532449D01*
X12917298Y-14532449D02*
X12907775Y-14522925D01*
X12907775Y-14522925D02*
X12917298Y-14513401D01*
X12917298Y-14513401D02*
X12917298Y-14532449D01*
D12*
X11175093Y-14910727D02*
X11285093Y-15020727D01*
X11285093Y-14910727D02*
X11175093Y-15020727D01*
D11*
X11650632Y-15057211D02*
X11536346Y-15057211D01*
X11593489Y-15057211D02*
X11593489Y-14857211D01*
X11593489Y-14857211D02*
X11574441Y-14885782D01*
X11574441Y-14885782D02*
X11555394Y-14904830D01*
X11555394Y-14904830D02*
X11536346Y-14914354D01*
X11736346Y-15038163D02*
X11745870Y-15047687D01*
X11745870Y-15047687D02*
X11736346Y-15057211D01*
X11736346Y-15057211D02*
X11726822Y-15047687D01*
X11726822Y-15047687D02*
X11736346Y-15038163D01*
X11736346Y-15038163D02*
X11736346Y-15057211D01*
X11936346Y-15057211D02*
X11822060Y-15057211D01*
X11879203Y-15057211D02*
X11879203Y-14857211D01*
X11879203Y-14857211D02*
X11860155Y-14885782D01*
X11860155Y-14885782D02*
X11841108Y-14904830D01*
X11841108Y-14904830D02*
X11822060Y-14914354D01*
X12060155Y-14857211D02*
X12079203Y-14857211D01*
X12079203Y-14857211D02*
X12098251Y-14866735D01*
X12098251Y-14866735D02*
X12107775Y-14876258D01*
X12107775Y-14876258D02*
X12117298Y-14895306D01*
X12117298Y-14895306D02*
X12126822Y-14933401D01*
X12126822Y-14933401D02*
X12126822Y-14981020D01*
X12126822Y-14981020D02*
X12117298Y-15019115D01*
X12117298Y-15019115D02*
X12107775Y-15038163D01*
X12107775Y-15038163D02*
X12098251Y-15047687D01*
X12098251Y-15047687D02*
X12079203Y-15057211D01*
X12079203Y-15057211D02*
X12060155Y-15057211D01*
X12060155Y-15057211D02*
X12041108Y-15047687D01*
X12041108Y-15047687D02*
X12031584Y-15038163D01*
X12031584Y-15038163D02*
X12022060Y-15019115D01*
X12022060Y-15019115D02*
X12012536Y-14981020D01*
X12012536Y-14981020D02*
X12012536Y-14933401D01*
X12012536Y-14933401D02*
X12022060Y-14895306D01*
X12022060Y-14895306D02*
X12031584Y-14876258D01*
X12031584Y-14876258D02*
X12041108Y-14866735D01*
X12041108Y-14866735D02*
X12060155Y-14857211D01*
X12250632Y-14857211D02*
X12269679Y-14857211D01*
X12269679Y-14857211D02*
X12288727Y-14866735D01*
X12288727Y-14866735D02*
X12298251Y-14876258D01*
X12298251Y-14876258D02*
X12307775Y-14895306D01*
X12307775Y-14895306D02*
X12317298Y-14933401D01*
X12317298Y-14933401D02*
X12317298Y-14981020D01*
X12317298Y-14981020D02*
X12307775Y-15019115D01*
X12307775Y-15019115D02*
X12298251Y-15038163D01*
X12298251Y-15038163D02*
X12288727Y-15047687D01*
X12288727Y-15047687D02*
X12269679Y-15057211D01*
X12269679Y-15057211D02*
X12250632Y-15057211D01*
X12250632Y-15057211D02*
X12231584Y-15047687D01*
X12231584Y-15047687D02*
X12222060Y-15038163D01*
X12222060Y-15038163D02*
X12212536Y-15019115D01*
X12212536Y-15019115D02*
X12203013Y-14981020D01*
X12203013Y-14981020D02*
X12203013Y-14933401D01*
X12203013Y-14933401D02*
X12212536Y-14895306D01*
X12212536Y-14895306D02*
X12222060Y-14876258D01*
X12222060Y-14876258D02*
X12231584Y-14866735D01*
X12231584Y-14866735D02*
X12250632Y-14857211D01*
X12403013Y-15057211D02*
X12403013Y-14923877D01*
X12403013Y-14942925D02*
X12412536Y-14933401D01*
X12412536Y-14933401D02*
X12431584Y-14923877D01*
X12431584Y-14923877D02*
X12460156Y-14923877D01*
X12460156Y-14923877D02*
X12479203Y-14933401D01*
X12479203Y-14933401D02*
X12488727Y-14952449D01*
X12488727Y-14952449D02*
X12488727Y-15057211D01*
X12488727Y-14952449D02*
X12498251Y-14933401D01*
X12498251Y-14933401D02*
X12517298Y-14923877D01*
X12517298Y-14923877D02*
X12545870Y-14923877D01*
X12545870Y-14923877D02*
X12564917Y-14933401D01*
X12564917Y-14933401D02*
X12574441Y-14952449D01*
X12574441Y-14952449D02*
X12574441Y-15057211D01*
X12669679Y-15057211D02*
X12669679Y-14923877D01*
X12669679Y-14942925D02*
X12679203Y-14933401D01*
X12679203Y-14933401D02*
X12698251Y-14923877D01*
X12698251Y-14923877D02*
X12726822Y-14923877D01*
X12726822Y-14923877D02*
X12745870Y-14933401D01*
X12745870Y-14933401D02*
X12755394Y-14952449D01*
X12755394Y-14952449D02*
X12755394Y-15057211D01*
X12755394Y-14952449D02*
X12764917Y-14933401D01*
X12764917Y-14933401D02*
X12783965Y-14923877D01*
X12783965Y-14923877D02*
X12812536Y-14923877D01*
X12812536Y-14923877D02*
X12831584Y-14933401D01*
X12831584Y-14933401D02*
X12841108Y-14952449D01*
X12841108Y-14952449D02*
X12841108Y-15057211D01*
X13231584Y-14847687D02*
X13060156Y-15104830D01*
X13488727Y-14857211D02*
X13507775Y-14857211D01*
X13507775Y-14857211D02*
X13526822Y-14866735D01*
X13526822Y-14866735D02*
X13536346Y-14876258D01*
X13536346Y-14876258D02*
X13545870Y-14895306D01*
X13545870Y-14895306D02*
X13555394Y-14933401D01*
X13555394Y-14933401D02*
X13555394Y-14981020D01*
X13555394Y-14981020D02*
X13545870Y-15019115D01*
X13545870Y-15019115D02*
X13536346Y-15038163D01*
X13536346Y-15038163D02*
X13526822Y-15047687D01*
X13526822Y-15047687D02*
X13507775Y-15057211D01*
X13507775Y-15057211D02*
X13488727Y-15057211D01*
X13488727Y-15057211D02*
X13469679Y-15047687D01*
X13469679Y-15047687D02*
X13460156Y-15038163D01*
X13460156Y-15038163D02*
X13450632Y-15019115D01*
X13450632Y-15019115D02*
X13441108Y-14981020D01*
X13441108Y-14981020D02*
X13441108Y-14933401D01*
X13441108Y-14933401D02*
X13450632Y-14895306D01*
X13450632Y-14895306D02*
X13460156Y-14876258D01*
X13460156Y-14876258D02*
X13469679Y-14866735D01*
X13469679Y-14866735D02*
X13488727Y-14857211D01*
X13641108Y-15038163D02*
X13650632Y-15047687D01*
X13650632Y-15047687D02*
X13641108Y-15057211D01*
X13641108Y-15057211D02*
X13631584Y-15047687D01*
X13631584Y-15047687D02*
X13641108Y-15038163D01*
X13641108Y-15038163D02*
X13641108Y-15057211D01*
X13774441Y-14857211D02*
X13793489Y-14857211D01*
X13793489Y-14857211D02*
X13812537Y-14866735D01*
X13812537Y-14866735D02*
X13822060Y-14876258D01*
X13822060Y-14876258D02*
X13831584Y-14895306D01*
X13831584Y-14895306D02*
X13841108Y-14933401D01*
X13841108Y-14933401D02*
X13841108Y-14981020D01*
X13841108Y-14981020D02*
X13831584Y-15019115D01*
X13831584Y-15019115D02*
X13822060Y-15038163D01*
X13822060Y-15038163D02*
X13812537Y-15047687D01*
X13812537Y-15047687D02*
X13793489Y-15057211D01*
X13793489Y-15057211D02*
X13774441Y-15057211D01*
X13774441Y-15057211D02*
X13755394Y-15047687D01*
X13755394Y-15047687D02*
X13745870Y-15038163D01*
X13745870Y-15038163D02*
X13736346Y-15019115D01*
X13736346Y-15019115D02*
X13726822Y-14981020D01*
X13726822Y-14981020D02*
X13726822Y-14933401D01*
X13726822Y-14933401D02*
X13736346Y-14895306D01*
X13736346Y-14895306D02*
X13745870Y-14876258D01*
X13745870Y-14876258D02*
X13755394Y-14866735D01*
X13755394Y-14866735D02*
X13774441Y-14857211D01*
X14012537Y-14923877D02*
X14012537Y-15057211D01*
X13964918Y-14847687D02*
X13917299Y-14990544D01*
X13917299Y-14990544D02*
X14041108Y-14990544D01*
X14098251Y-14857211D02*
X14222060Y-14857211D01*
X14222060Y-14857211D02*
X14155394Y-14933401D01*
X14155394Y-14933401D02*
X14183965Y-14933401D01*
X14183965Y-14933401D02*
X14203013Y-14942925D01*
X14203013Y-14942925D02*
X14212537Y-14952449D01*
X14212537Y-14952449D02*
X14222060Y-14971496D01*
X14222060Y-14971496D02*
X14222060Y-15019115D01*
X14222060Y-15019115D02*
X14212537Y-15038163D01*
X14212537Y-15038163D02*
X14203013Y-15047687D01*
X14203013Y-15047687D02*
X14183965Y-15057211D01*
X14183965Y-15057211D02*
X14126822Y-15057211D01*
X14126822Y-15057211D02*
X14107775Y-15047687D01*
X14107775Y-15047687D02*
X14098251Y-15038163D01*
X14288727Y-14857211D02*
X14412537Y-14857211D01*
X14412537Y-14857211D02*
X14345870Y-14933401D01*
X14345870Y-14933401D02*
X14374441Y-14933401D01*
X14374441Y-14933401D02*
X14393489Y-14942925D01*
X14393489Y-14942925D02*
X14403013Y-14952449D01*
X14403013Y-14952449D02*
X14412537Y-14971496D01*
X14412537Y-14971496D02*
X14412537Y-15019115D01*
X14412537Y-15019115D02*
X14403013Y-15038163D01*
X14403013Y-15038163D02*
X14393489Y-15047687D01*
X14393489Y-15047687D02*
X14374441Y-15057211D01*
X14374441Y-15057211D02*
X14317299Y-15057211D01*
X14317299Y-15057211D02*
X14298251Y-15047687D01*
X14298251Y-15047687D02*
X14288727Y-15038163D01*
X14488727Y-14857211D02*
X14488727Y-14895306D01*
X14564918Y-14857211D02*
X14564918Y-14895306D01*
X14860156Y-15133401D02*
X14850632Y-15123877D01*
X14850632Y-15123877D02*
X14831584Y-15095306D01*
X14831584Y-15095306D02*
X14822061Y-15076258D01*
X14822061Y-15076258D02*
X14812537Y-15047687D01*
X14812537Y-15047687D02*
X14803013Y-15000068D01*
X14803013Y-15000068D02*
X14803013Y-14961973D01*
X14803013Y-14961973D02*
X14812537Y-14914354D01*
X14812537Y-14914354D02*
X14822061Y-14885782D01*
X14822061Y-14885782D02*
X14831584Y-14866735D01*
X14831584Y-14866735D02*
X14850632Y-14838163D01*
X14850632Y-14838163D02*
X14860156Y-14828639D01*
X15022061Y-14857211D02*
X14983965Y-14857211D01*
X14983965Y-14857211D02*
X14964918Y-14866735D01*
X14964918Y-14866735D02*
X14955394Y-14876258D01*
X14955394Y-14876258D02*
X14936346Y-14904830D01*
X14936346Y-14904830D02*
X14926822Y-14942925D01*
X14926822Y-14942925D02*
X14926822Y-15019115D01*
X14926822Y-15019115D02*
X14936346Y-15038163D01*
X14936346Y-15038163D02*
X14945870Y-15047687D01*
X14945870Y-15047687D02*
X14964918Y-15057211D01*
X14964918Y-15057211D02*
X15003013Y-15057211D01*
X15003013Y-15057211D02*
X15022061Y-15047687D01*
X15022061Y-15047687D02*
X15031584Y-15038163D01*
X15031584Y-15038163D02*
X15041108Y-15019115D01*
X15041108Y-15019115D02*
X15041108Y-14971496D01*
X15041108Y-14971496D02*
X15031584Y-14952449D01*
X15031584Y-14952449D02*
X15022061Y-14942925D01*
X15022061Y-14942925D02*
X15003013Y-14933401D01*
X15003013Y-14933401D02*
X14964918Y-14933401D01*
X14964918Y-14933401D02*
X14945870Y-14942925D01*
X14945870Y-14942925D02*
X14936346Y-14952449D01*
X14936346Y-14952449D02*
X14926822Y-14971496D01*
X15279203Y-15057211D02*
X15279203Y-14857211D01*
X15364918Y-15057211D02*
X15364918Y-14952449D01*
X15364918Y-14952449D02*
X15355394Y-14933401D01*
X15355394Y-14933401D02*
X15336346Y-14923877D01*
X15336346Y-14923877D02*
X15307775Y-14923877D01*
X15307775Y-14923877D02*
X15288727Y-14933401D01*
X15288727Y-14933401D02*
X15279203Y-14942925D01*
X15488727Y-15057211D02*
X15469680Y-15047687D01*
X15469680Y-15047687D02*
X15460156Y-15038163D01*
X15460156Y-15038163D02*
X15450632Y-15019115D01*
X15450632Y-15019115D02*
X15450632Y-14961973D01*
X15450632Y-14961973D02*
X15460156Y-14942925D01*
X15460156Y-14942925D02*
X15469680Y-14933401D01*
X15469680Y-14933401D02*
X15488727Y-14923877D01*
X15488727Y-14923877D02*
X15517299Y-14923877D01*
X15517299Y-14923877D02*
X15536346Y-14933401D01*
X15536346Y-14933401D02*
X15545870Y-14942925D01*
X15545870Y-14942925D02*
X15555394Y-14961973D01*
X15555394Y-14961973D02*
X15555394Y-15019115D01*
X15555394Y-15019115D02*
X15545870Y-15038163D01*
X15545870Y-15038163D02*
X15536346Y-15047687D01*
X15536346Y-15047687D02*
X15517299Y-15057211D01*
X15517299Y-15057211D02*
X15488727Y-15057211D01*
X15669680Y-15057211D02*
X15650632Y-15047687D01*
X15650632Y-15047687D02*
X15641108Y-15028639D01*
X15641108Y-15028639D02*
X15641108Y-14857211D01*
X15822061Y-15047687D02*
X15803013Y-15057211D01*
X15803013Y-15057211D02*
X15764918Y-15057211D01*
X15764918Y-15057211D02*
X15745870Y-15047687D01*
X15745870Y-15047687D02*
X15736346Y-15028639D01*
X15736346Y-15028639D02*
X15736346Y-14952449D01*
X15736346Y-14952449D02*
X15745870Y-14933401D01*
X15745870Y-14933401D02*
X15764918Y-14923877D01*
X15764918Y-14923877D02*
X15803013Y-14923877D01*
X15803013Y-14923877D02*
X15822061Y-14933401D01*
X15822061Y-14933401D02*
X15831584Y-14952449D01*
X15831584Y-14952449D02*
X15831584Y-14971496D01*
X15831584Y-14971496D02*
X15736346Y-14990544D01*
X15907775Y-15047687D02*
X15926823Y-15057211D01*
X15926823Y-15057211D02*
X15964918Y-15057211D01*
X15964918Y-15057211D02*
X15983965Y-15047687D01*
X15983965Y-15047687D02*
X15993489Y-15028639D01*
X15993489Y-15028639D02*
X15993489Y-15019115D01*
X15993489Y-15019115D02*
X15983965Y-15000068D01*
X15983965Y-15000068D02*
X15964918Y-14990544D01*
X15964918Y-14990544D02*
X15936346Y-14990544D01*
X15936346Y-14990544D02*
X15917299Y-14981020D01*
X15917299Y-14981020D02*
X15907775Y-14961973D01*
X15907775Y-14961973D02*
X15907775Y-14952449D01*
X15907775Y-14952449D02*
X15917299Y-14933401D01*
X15917299Y-14933401D02*
X15936346Y-14923877D01*
X15936346Y-14923877D02*
X15964918Y-14923877D01*
X15964918Y-14923877D02*
X15983965Y-14933401D01*
X16060156Y-15133401D02*
X16069680Y-15123877D01*
X16069680Y-15123877D02*
X16088727Y-15095306D01*
X16088727Y-15095306D02*
X16098251Y-15076258D01*
X16098251Y-15076258D02*
X16107775Y-15047687D01*
X16107775Y-15047687D02*
X16117299Y-15000068D01*
X16117299Y-15000068D02*
X16117299Y-14961973D01*
X16117299Y-14961973D02*
X16107775Y-14914354D01*
X16107775Y-14914354D02*
X16098251Y-14885782D01*
X16098251Y-14885782D02*
X16088727Y-14866735D01*
X16088727Y-14866735D02*
X16069680Y-14838163D01*
X16069680Y-14838163D02*
X16060156Y-14828639D01*
X16422061Y-15133401D02*
X16412537Y-15123877D01*
X16412537Y-15123877D02*
X16393489Y-15095306D01*
X16393489Y-15095306D02*
X16383965Y-15076258D01*
X16383965Y-15076258D02*
X16374442Y-15047687D01*
X16374442Y-15047687D02*
X16364918Y-15000068D01*
X16364918Y-15000068D02*
X16364918Y-14961973D01*
X16364918Y-14961973D02*
X16374442Y-14914354D01*
X16374442Y-14914354D02*
X16383965Y-14885782D01*
X16383965Y-14885782D02*
X16393489Y-14866735D01*
X16393489Y-14866735D02*
X16412537Y-14838163D01*
X16412537Y-14838163D02*
X16422061Y-14828639D01*
X16498251Y-14923877D02*
X16498251Y-15057211D01*
X16498251Y-14942925D02*
X16507775Y-14933401D01*
X16507775Y-14933401D02*
X16526823Y-14923877D01*
X16526823Y-14923877D02*
X16555394Y-14923877D01*
X16555394Y-14923877D02*
X16574442Y-14933401D01*
X16574442Y-14933401D02*
X16583965Y-14952449D01*
X16583965Y-14952449D02*
X16583965Y-15057211D01*
X16707775Y-15057211D02*
X16688727Y-15047687D01*
X16688727Y-15047687D02*
X16679204Y-15038163D01*
X16679204Y-15038163D02*
X16669680Y-15019115D01*
X16669680Y-15019115D02*
X16669680Y-14961973D01*
X16669680Y-14961973D02*
X16679204Y-14942925D01*
X16679204Y-14942925D02*
X16688727Y-14933401D01*
X16688727Y-14933401D02*
X16707775Y-14923877D01*
X16707775Y-14923877D02*
X16736346Y-14923877D01*
X16736346Y-14923877D02*
X16755394Y-14933401D01*
X16755394Y-14933401D02*
X16764918Y-14942925D01*
X16764918Y-14942925D02*
X16774442Y-14961973D01*
X16774442Y-14961973D02*
X16774442Y-15019115D01*
X16774442Y-15019115D02*
X16764918Y-15038163D01*
X16764918Y-15038163D02*
X16755394Y-15047687D01*
X16755394Y-15047687D02*
X16736346Y-15057211D01*
X16736346Y-15057211D02*
X16707775Y-15057211D01*
X16831585Y-14923877D02*
X16907775Y-14923877D01*
X16860156Y-14857211D02*
X16860156Y-15028639D01*
X16860156Y-15028639D02*
X16869680Y-15047687D01*
X16869680Y-15047687D02*
X16888727Y-15057211D01*
X16888727Y-15057211D02*
X16907775Y-15057211D01*
X17126823Y-14923877D02*
X17126823Y-15123877D01*
X17126823Y-14933401D02*
X17145870Y-14923877D01*
X17145870Y-14923877D02*
X17183966Y-14923877D01*
X17183966Y-14923877D02*
X17203013Y-14933401D01*
X17203013Y-14933401D02*
X17212537Y-14942925D01*
X17212537Y-14942925D02*
X17222061Y-14961973D01*
X17222061Y-14961973D02*
X17222061Y-15019115D01*
X17222061Y-15019115D02*
X17212537Y-15038163D01*
X17212537Y-15038163D02*
X17203013Y-15047687D01*
X17203013Y-15047687D02*
X17183966Y-15057211D01*
X17183966Y-15057211D02*
X17145870Y-15057211D01*
X17145870Y-15057211D02*
X17126823Y-15047687D01*
X17336347Y-15057211D02*
X17317299Y-15047687D01*
X17317299Y-15047687D02*
X17307775Y-15028639D01*
X17307775Y-15028639D02*
X17307775Y-14857211D01*
X17498251Y-15057211D02*
X17498251Y-14952449D01*
X17498251Y-14952449D02*
X17488728Y-14933401D01*
X17488728Y-14933401D02*
X17469680Y-14923877D01*
X17469680Y-14923877D02*
X17431585Y-14923877D01*
X17431585Y-14923877D02*
X17412537Y-14933401D01*
X17498251Y-15047687D02*
X17479204Y-15057211D01*
X17479204Y-15057211D02*
X17431585Y-15057211D01*
X17431585Y-15057211D02*
X17412537Y-15047687D01*
X17412537Y-15047687D02*
X17403013Y-15028639D01*
X17403013Y-15028639D02*
X17403013Y-15009592D01*
X17403013Y-15009592D02*
X17412537Y-14990544D01*
X17412537Y-14990544D02*
X17431585Y-14981020D01*
X17431585Y-14981020D02*
X17479204Y-14981020D01*
X17479204Y-14981020D02*
X17498251Y-14971496D01*
X17564918Y-14923877D02*
X17641108Y-14923877D01*
X17593489Y-14857211D02*
X17593489Y-15028639D01*
X17593489Y-15028639D02*
X17603013Y-15047687D01*
X17603013Y-15047687D02*
X17622061Y-15057211D01*
X17622061Y-15057211D02*
X17641108Y-15057211D01*
X17783966Y-15047687D02*
X17764918Y-15057211D01*
X17764918Y-15057211D02*
X17726823Y-15057211D01*
X17726823Y-15057211D02*
X17707775Y-15047687D01*
X17707775Y-15047687D02*
X17698251Y-15028639D01*
X17698251Y-15028639D02*
X17698251Y-14952449D01*
X17698251Y-14952449D02*
X17707775Y-14933401D01*
X17707775Y-14933401D02*
X17726823Y-14923877D01*
X17726823Y-14923877D02*
X17764918Y-14923877D01*
X17764918Y-14923877D02*
X17783966Y-14933401D01*
X17783966Y-14933401D02*
X17793489Y-14952449D01*
X17793489Y-14952449D02*
X17793489Y-14971496D01*
X17793489Y-14971496D02*
X17698251Y-14990544D01*
X17964918Y-15057211D02*
X17964918Y-14857211D01*
X17964918Y-15047687D02*
X17945870Y-15057211D01*
X17945870Y-15057211D02*
X17907775Y-15057211D01*
X17907775Y-15057211D02*
X17888728Y-15047687D01*
X17888728Y-15047687D02*
X17879204Y-15038163D01*
X17879204Y-15038163D02*
X17869680Y-15019115D01*
X17869680Y-15019115D02*
X17869680Y-14961973D01*
X17869680Y-14961973D02*
X17879204Y-14942925D01*
X17879204Y-14942925D02*
X17888728Y-14933401D01*
X17888728Y-14933401D02*
X17907775Y-14923877D01*
X17907775Y-14923877D02*
X17945870Y-14923877D01*
X17945870Y-14923877D02*
X17964918Y-14933401D01*
X18041109Y-15133401D02*
X18050632Y-15123877D01*
X18050632Y-15123877D02*
X18069680Y-15095306D01*
X18069680Y-15095306D02*
X18079204Y-15076258D01*
X18079204Y-15076258D02*
X18088728Y-15047687D01*
X18088728Y-15047687D02*
X18098251Y-15000068D01*
X18098251Y-15000068D02*
X18098251Y-14961973D01*
X18098251Y-14961973D02*
X18088728Y-14914354D01*
X18088728Y-14914354D02*
X18079204Y-14885782D01*
X18079204Y-14885782D02*
X18069680Y-14866735D01*
X18069680Y-14866735D02*
X18050632Y-14838163D01*
X18050632Y-14838163D02*
X18041109Y-14828639D01*
M02*
