G04 #@! TF.GenerationSoftware,KiCad,Pcbnew,8.0.8*
G04 #@! TF.CreationDate,2026-01-12T15:14:08+11:00*
G04 #@! TF.ProjectId,bbb,6262622e-6b69-4636-9164-5f7063625858,rev?*
G04 #@! TF.SameCoordinates,Original*
G04 #@! TF.FileFunction,Copper,L4,Bot*
G04 #@! TF.FilePolarity,Positive*
%FSLAX46Y46*%
G04 Gerber Fmt 4.6, Leading zero omitted, Abs format (unit mm)*
G04 Created by KiCad (PCBNEW 8.0.8) date 2026-01-12 15:14:08*
%MOMM*%
%LPD*%
G01*
G04 APERTURE LIST*
G04 #@! TA.AperFunction,Conductor*
%ADD10C,0.200000*%
G04 #@! TD*
G04 #@! TA.AperFunction,ComponentPad*
%ADD11R,1.700000X1.700000*%
G04 #@! TD*
G04 #@! TA.AperFunction,ComponentPad*
%ADD12O,1.700000X1.700000*%
G04 #@! TD*
G04 #@! TA.AperFunction,ComponentPad*
%ADD13C,2.006600*%
G04 #@! TD*
G04 #@! TA.AperFunction,SMDPad,CuDef*
%ADD14R,1.600000X5.080000*%
G04 #@! TD*
G04 #@! TA.AperFunction,ComponentPad*
%ADD15R,2.200000X2.200000*%
G04 #@! TD*
G04 #@! TA.AperFunction,ComponentPad*
%ADD16C,2.200000*%
G04 #@! TD*
G04 #@! TA.AperFunction,ComponentPad*
%ADD17C,2.000000*%
G04 #@! TD*
G04 #@! TA.AperFunction,ComponentPad*
%ADD18C,2.600000*%
G04 #@! TD*
G04 #@! TA.AperFunction,ViaPad*
%ADD19C,1.727200*%
G04 #@! TD*
G04 #@! TA.AperFunction,ViaPad*
%ADD20C,4.000000*%
G04 #@! TD*
G04 #@! TA.AperFunction,ViaPad*
%ADD21C,1.000000*%
G04 #@! TD*
G04 #@! TA.AperFunction,ViaPad*
%ADD22C,0.508000*%
G04 #@! TD*
G04 #@! TA.AperFunction,ViaPad*
%ADD23C,0.762000*%
G04 #@! TD*
G04 #@! TA.AperFunction,ViaPad*
%ADD24C,0.457200*%
G04 #@! TD*
G04 #@! TA.AperFunction,Conductor*
%ADD25C,0.762000*%
G04 #@! TD*
G04 #@! TA.AperFunction,Conductor*
%ADD26C,0.508000*%
G04 #@! TD*
G04 #@! TA.AperFunction,Conductor*
%ADD27C,1.000000*%
G04 #@! TD*
G04 #@! TA.AperFunction,Conductor*
%ADD28C,0.254000*%
G04 #@! TD*
G04 #@! TA.AperFunction,Conductor*
%ADD29C,0.152400*%
G04 #@! TD*
G04 #@! TA.AperFunction,Conductor*
%ADD30C,0.127000*%
G04 #@! TD*
G04 APERTURE END LIST*
D10*
X141670100Y-103382400D02*
X146170100Y-101682400D01*
D11*
X141630400Y-111048800D03*
D12*
X139090400Y-111048800D03*
X141630400Y-108508800D03*
X139090400Y-108508800D03*
X141630400Y-105968800D03*
X139090400Y-105968800D03*
X141630400Y-103428800D03*
X139090400Y-103428800D03*
X141630400Y-100888800D03*
X139090400Y-100888800D03*
X141630400Y-98348800D03*
X139090400Y-98348800D03*
X141630400Y-95808800D03*
X139090400Y-95808800D03*
X141630400Y-93268800D03*
X139090400Y-93268800D03*
X141630400Y-90728800D03*
X139090400Y-90728800D03*
X141630400Y-88188800D03*
X139090400Y-88188800D03*
X141630400Y-85648800D03*
X139090400Y-85648800D03*
X141630400Y-83108800D03*
X139090400Y-83108800D03*
X141630400Y-80568800D03*
X139090400Y-80568800D03*
X141630400Y-78028800D03*
X139090400Y-78028800D03*
D11*
X117487700Y-134950200D03*
D12*
X114947700Y-134950200D03*
X117487700Y-132410200D03*
X114947700Y-132410200D03*
X117487700Y-129870200D03*
X114947700Y-129870200D03*
X117487700Y-127330200D03*
X114947700Y-127330200D03*
X117487700Y-124790200D03*
X114947700Y-124790200D03*
X117487700Y-122250200D03*
X114947700Y-122250200D03*
X117487700Y-119710200D03*
X114947700Y-119710200D03*
X117487700Y-117170200D03*
X114947700Y-117170200D03*
X117487700Y-114630200D03*
X114947700Y-114630200D03*
X117487700Y-112090200D03*
X114947700Y-112090200D03*
X117487700Y-109550200D03*
X114947700Y-109550200D03*
X117487700Y-107010200D03*
X114947700Y-107010200D03*
X117487700Y-104470200D03*
X114947700Y-104470200D03*
X117487700Y-101930200D03*
X114947700Y-101930200D03*
X117487700Y-99390200D03*
X114947700Y-99390200D03*
X117487700Y-96850200D03*
X114947700Y-96850200D03*
X117487700Y-94310200D03*
X114947700Y-94310200D03*
X117487700Y-91770200D03*
X114947700Y-91770200D03*
X117487700Y-89230200D03*
X114947700Y-89230200D03*
X117487700Y-86690200D03*
X114947700Y-86690200D03*
D13*
X128629400Y-65415800D03*
X123629400Y-70415800D03*
X133629400Y-70415800D03*
D14*
X154720100Y-140082400D03*
X159820100Y-140082400D03*
D15*
X141630100Y-128582400D03*
D16*
X144170100Y-128582400D03*
D17*
X146270100Y-101782400D03*
X146170100Y-86766400D03*
X117132100Y-70256400D03*
D15*
X154170100Y-101352400D03*
D16*
X154170100Y-98812400D03*
D18*
X147770100Y-77782400D03*
X155390100Y-77782400D03*
D17*
X127770100Y-111882400D03*
X156170100Y-93882400D03*
X161370100Y-91082400D03*
X146170100Y-96482400D03*
D15*
X154170100Y-119752400D03*
D16*
X154170100Y-117212400D03*
D17*
X117132100Y-64922400D03*
X146170100Y-91782400D03*
D19*
X151790400Y-72440800D03*
X154330400Y-72440800D03*
X141630400Y-72440800D03*
X154330400Y-64820800D03*
X149250400Y-67360800D03*
X151790400Y-69900800D03*
X144170400Y-72440800D03*
X151790400Y-64820800D03*
X159410400Y-64820800D03*
X154330400Y-69900800D03*
X156870400Y-67360800D03*
X154330400Y-67360800D03*
X144170400Y-64820800D03*
X159410400Y-72440800D03*
X146710400Y-64820800D03*
X144170400Y-69900800D03*
X149250400Y-69900800D03*
X156870400Y-69900800D03*
X156870400Y-72440800D03*
X144170400Y-67360800D03*
X159410400Y-67360800D03*
X159410400Y-69900800D03*
X161950400Y-69900800D03*
X151790400Y-67360800D03*
X141630400Y-64820800D03*
X141630400Y-67360800D03*
X161950400Y-64820800D03*
X161950400Y-67360800D03*
X139090400Y-69900800D03*
X139090400Y-64820800D03*
X146710400Y-72440800D03*
X146710400Y-69900800D03*
X146710400Y-67360800D03*
X156870400Y-64820800D03*
X139090400Y-72440800D03*
X139090400Y-67360800D03*
X141630400Y-69900800D03*
X149250400Y-64820800D03*
X149250400Y-72440800D03*
X149250400Y-59867800D03*
X159410400Y-59867800D03*
X139090400Y-59867800D03*
X144170400Y-62407800D03*
X149250400Y-62407800D03*
X156870400Y-62407800D03*
X141630400Y-62407800D03*
X151790400Y-59867800D03*
X161950400Y-62407800D03*
X141630400Y-59867800D03*
X146710400Y-59867800D03*
X161950400Y-59867800D03*
X156870400Y-59867800D03*
X139090400Y-62407800D03*
X159410400Y-62407800D03*
X154330400Y-62407800D03*
X151790400Y-62407800D03*
X146710400Y-62407800D03*
X144170400Y-59867800D03*
X154330400Y-59867800D03*
D20*
X116315700Y-81756000D03*
X116315700Y-139756000D03*
X165315700Y-81756000D03*
X165315700Y-139756000D03*
D21*
X124018250Y-108730550D03*
X128570100Y-107282400D03*
D22*
X136192900Y-101382400D03*
X125939050Y-98473250D03*
D19*
X131759050Y-128383250D03*
D23*
X154049050Y-89323250D03*
X149136100Y-95082400D03*
D22*
X120040400Y-83743800D03*
X148259050Y-84863250D03*
X160845500Y-82562700D03*
D19*
X115349050Y-75593250D03*
D21*
X139509050Y-121183250D03*
D23*
X128610400Y-99938800D03*
D22*
X156070100Y-83882400D03*
X120675400Y-88188800D03*
D19*
X154520900Y-135826500D03*
D21*
X122949050Y-101573250D03*
D22*
X131851359Y-104601141D03*
D23*
X119670100Y-85648800D03*
X120675400Y-93268800D03*
D21*
X147570100Y-109852200D03*
D22*
X131405400Y-98283800D03*
D21*
X140457050Y-118323250D03*
X126710400Y-107179100D03*
D19*
X122719050Y-137633250D03*
D22*
X146470100Y-84382400D03*
D19*
X122789050Y-127923250D03*
D23*
X127660400Y-79933800D03*
X120675400Y-95808800D03*
D21*
X131929050Y-115233250D03*
X157319050Y-90333250D03*
D19*
X159664400Y-135648700D03*
D22*
X122970100Y-98382400D03*
D21*
X140483650Y-123845600D03*
X139689050Y-115063250D03*
X159870100Y-86382400D03*
D22*
X125120400Y-97078800D03*
D23*
X130570100Y-102182400D03*
D22*
X120675400Y-90728800D03*
X131470400Y-88188800D03*
X135570100Y-105382400D03*
D24*
X123850400Y-79298800D03*
D22*
X134270100Y-84021300D03*
X132370100Y-89882400D03*
X135280400Y-99618800D03*
X135370100Y-90282400D03*
D24*
X134270100Y-82482400D03*
D19*
X161950400Y-72440800D03*
D24*
X157187900Y-134645400D03*
X135328450Y-88140750D03*
D25*
X154670100Y-135975700D02*
X154720100Y-136025700D01*
D26*
X154520900Y-135826500D02*
X154670100Y-135975700D01*
X159670100Y-140032400D02*
X159820100Y-140182400D01*
X159664400Y-135648700D02*
X159670100Y-135654400D01*
D27*
X154720100Y-136025700D02*
X154720100Y-140082400D01*
D26*
X154670100Y-140132400D02*
X154720100Y-140182400D01*
D25*
X154720100Y-140082400D02*
X154670100Y-140132400D01*
D27*
X159670100Y-135654400D02*
X159670100Y-140032400D01*
D28*
X135570100Y-105382400D02*
X134470100Y-105382400D01*
X128170100Y-112282400D02*
X128170100Y-112782400D01*
X134470100Y-105382400D02*
X127970100Y-111882400D01*
D29*
X130200400Y-85648800D02*
X123850400Y-79298800D01*
X137043700Y-83108800D02*
X134503700Y-85648800D01*
X134503700Y-85648800D02*
X130200400Y-85648800D01*
X139090400Y-83108800D02*
X137043700Y-83108800D01*
X117132100Y-64922400D02*
X118402100Y-63652400D01*
D30*
X133470100Y-70575100D02*
X133629400Y-70415800D01*
D29*
X118402100Y-63652400D02*
X132118100Y-63652400D01*
X132118100Y-63652400D02*
X133629400Y-65163700D01*
D30*
X134270100Y-84021300D02*
X133470100Y-83221300D01*
D29*
X133470100Y-83221300D02*
X133470100Y-70575100D01*
X133629400Y-65163700D02*
X133629400Y-70415800D01*
D28*
X123470000Y-70256400D02*
X123629400Y-70415800D01*
D29*
X117132100Y-70256400D02*
X123470000Y-70256400D01*
X132370100Y-89882400D02*
X133565899Y-91078199D01*
X133565899Y-97904299D02*
X135280400Y-99618800D01*
X133565899Y-91078199D02*
X133565899Y-97904299D01*
X142710329Y-97082400D02*
X145910329Y-93882400D01*
D30*
X156170100Y-94382400D02*
X155970100Y-94582400D01*
D29*
X139090400Y-98348800D02*
X140356800Y-97082400D01*
X140356800Y-97082400D02*
X142710329Y-97082400D01*
X145910329Y-93882400D02*
X156170100Y-93882400D01*
D30*
X140424000Y-86982400D02*
X141630400Y-88188800D01*
X135370100Y-89932400D02*
X138320100Y-86982400D01*
X135370100Y-90282400D02*
X135370100Y-89932400D01*
X138320100Y-86982400D02*
X140424000Y-86982400D01*
D29*
X134570100Y-82482400D02*
X136483700Y-80568800D01*
X134270100Y-82482400D02*
X134570100Y-82482400D01*
X136483700Y-80568800D02*
X139090400Y-80568800D01*
X137449050Y-108153250D02*
X138379050Y-107223250D01*
X120479050Y-129573250D02*
X120479050Y-128543250D01*
X120479050Y-128543250D02*
X137449050Y-111573250D01*
X138379050Y-107223250D02*
X139699050Y-107223250D01*
X139699050Y-107223250D02*
X140359050Y-106563250D01*
X140359050Y-102160150D02*
X141630400Y-100888800D01*
X140359050Y-106563250D02*
X140359050Y-102160150D01*
X137449050Y-111573250D02*
X137449050Y-108153250D01*
X117642100Y-132410200D02*
X120479050Y-129573250D01*
X117487700Y-132410200D02*
X117642100Y-132410200D01*
X138345100Y-99582400D02*
X140396800Y-99582400D01*
X117487700Y-129870200D02*
X122670100Y-124687800D01*
X122670100Y-121382400D02*
X136870100Y-107182400D01*
X140396800Y-99582400D02*
X141630400Y-98348800D01*
X122670100Y-124687800D02*
X122670100Y-121382400D01*
X136870100Y-107182400D02*
X136870100Y-101057400D01*
X136870100Y-101057400D02*
X138345100Y-99582400D01*
X139090400Y-108508800D02*
X141630400Y-105968800D01*
D28*
X157187900Y-134222100D02*
X157187900Y-134645400D01*
X141630400Y-108508800D02*
X144174600Y-108508800D01*
X147909450Y-124943650D02*
X157187900Y-134222100D01*
X147909450Y-112243650D02*
X147909450Y-124943650D01*
X144174600Y-108508800D02*
X147909450Y-112243650D01*
D29*
X140356800Y-84382400D02*
X141630400Y-83108800D01*
X138070100Y-84382400D02*
X140356800Y-84382400D01*
X135328450Y-88140750D02*
X135328450Y-87124050D01*
X135328450Y-87124050D02*
X138070100Y-84382400D01*
M02*
