G04 #@! TF.GenerationSoftware,KiCad,Pcbnew,8.0.8*
G04 #@! TF.CreationDate,2026-01-12T15:14:07+11:00*
G04 #@! TF.ProjectId,bbb,6262622e-6b69-4636-9164-5f7063625858,rev?*
G04 #@! TF.SameCoordinates,Original*
G04 #@! TF.FileFunction,Copper,L1,Top*
G04 #@! TF.FilePolarity,Positive*
%FSLAX46Y46*%
G04 Gerber Fmt 4.6, Leading zero omitted, Abs format (unit mm)*
G04 Created by KiCad (PCBNEW 8.0.8) date 2026-01-12 15:14:07*
%MOMM*%
%LPD*%
G01*
G04 APERTURE LIST*
G04 Aperture macros list*
%AMRoundRect*
0 Rectangle with rounded corners*
0 $1 Rounding radius*
0 $2 $3 $4 $5 $6 $7 $8 $9 X,Y pos of 4 corners*
0 Add a 4 corners polygon primitive as box body*
4,1,4,$2,$3,$4,$5,$6,$7,$8,$9,$2,$3,0*
0 Add four circle primitives for the rounded corners*
1,1,$1+$1,$2,$3*
1,1,$1+$1,$4,$5*
1,1,$1+$1,$6,$7*
1,1,$1+$1,$8,$9*
0 Add four rect primitives between the rounded corners*
20,1,$1+$1,$2,$3,$4,$5,0*
20,1,$1+$1,$4,$5,$6,$7,0*
20,1,$1+$1,$6,$7,$8,$9,0*
20,1,$1+$1,$8,$9,$2,$3,0*%
G04 Aperture macros list end*
G04 #@! TA.AperFunction,SMDPad,CuDef*
%ADD10RoundRect,0.250000X-0.250000X-0.475000X0.250000X-0.475000X0.250000X0.475000X-0.250000X0.475000X0*%
G04 #@! TD*
G04 #@! TA.AperFunction,SMDPad,CuDef*
%ADD11RoundRect,0.250000X0.250000X0.475000X-0.250000X0.475000X-0.250000X-0.475000X0.250000X-0.475000X0*%
G04 #@! TD*
G04 #@! TA.AperFunction,SMDPad,CuDef*
%ADD12RoundRect,0.249998X-0.450002X0.262502X-0.450002X-0.262502X0.450002X-0.262502X0.450002X0.262502X0*%
G04 #@! TD*
G04 #@! TA.AperFunction,SMDPad,CuDef*
%ADD13R,1.400000X0.300000*%
G04 #@! TD*
G04 #@! TA.AperFunction,SMDPad,CuDef*
%ADD14RoundRect,0.150000X0.825000X0.150000X-0.825000X0.150000X-0.825000X-0.150000X0.825000X-0.150000X0*%
G04 #@! TD*
G04 #@! TA.AperFunction,SMDPad,CuDef*
%ADD15RoundRect,0.250000X0.475000X-0.250000X0.475000X0.250000X-0.475000X0.250000X-0.475000X-0.250000X0*%
G04 #@! TD*
G04 #@! TA.AperFunction,SMDPad,CuDef*
%ADD16R,2.290000X3.000000*%
G04 #@! TD*
G04 #@! TA.AperFunction,SMDPad,CuDef*
%ADD17RoundRect,0.249998X0.450002X-0.262502X0.450002X0.262502X-0.450002X0.262502X-0.450002X-0.262502X0*%
G04 #@! TD*
G04 #@! TA.AperFunction,SMDPad,CuDef*
%ADD18RoundRect,0.249998X-0.262502X-0.450002X0.262502X-0.450002X0.262502X0.450002X-0.262502X0.450002X0*%
G04 #@! TD*
G04 #@! TA.AperFunction,SMDPad,CuDef*
%ADD19R,1.400000X1.200000*%
G04 #@! TD*
G04 #@! TA.AperFunction,SMDPad,CuDef*
%ADD20RoundRect,0.250000X-0.475000X0.250000X-0.475000X-0.250000X0.475000X-0.250000X0.475000X0.250000X0*%
G04 #@! TD*
G04 #@! TA.AperFunction,ComponentPad*
%ADD21R,1.700000X1.700000*%
G04 #@! TD*
G04 #@! TA.AperFunction,ComponentPad*
%ADD22O,1.700000X1.700000*%
G04 #@! TD*
G04 #@! TA.AperFunction,SMDPad,CuDef*
%ADD23RoundRect,0.249998X0.262502X0.450002X-0.262502X0.450002X-0.262502X-0.450002X0.262502X-0.450002X0*%
G04 #@! TD*
G04 #@! TA.AperFunction,SMDPad,CuDef*
%ADD24R,1.060000X0.650000*%
G04 #@! TD*
G04 #@! TA.AperFunction,SMDPad,CuDef*
%ADD25RoundRect,0.218750X-0.256250X0.218750X-0.256250X-0.218750X0.256250X-0.218750X0.256250X0.218750X0*%
G04 #@! TD*
G04 #@! TA.AperFunction,ComponentPad*
%ADD26C,2.006600*%
G04 #@! TD*
G04 #@! TA.AperFunction,SMDPad,CuDef*
%ADD27RoundRect,0.218750X0.256250X-0.218750X0.256250X0.218750X-0.256250X0.218750X-0.256250X-0.218750X0*%
G04 #@! TD*
G04 #@! TA.AperFunction,SMDPad,CuDef*
%ADD28RoundRect,0.249999X-0.450001X0.262501X-0.450001X-0.262501X0.450001X-0.262501X0.450001X0.262501X0*%
G04 #@! TD*
G04 #@! TA.AperFunction,SMDPad,CuDef*
%ADD29R,2.000000X1.500000*%
G04 #@! TD*
G04 #@! TA.AperFunction,SMDPad,CuDef*
%ADD30R,2.000000X3.800000*%
G04 #@! TD*
G04 #@! TA.AperFunction,SMDPad,CuDef*
%ADD31R,1.600000X5.080000*%
G04 #@! TD*
G04 #@! TA.AperFunction,ComponentPad*
%ADD32R,2.200000X2.200000*%
G04 #@! TD*
G04 #@! TA.AperFunction,ComponentPad*
%ADD33C,2.200000*%
G04 #@! TD*
G04 #@! TA.AperFunction,ComponentPad*
%ADD34C,2.000000*%
G04 #@! TD*
G04 #@! TA.AperFunction,ComponentPad*
%ADD35C,2.600000*%
G04 #@! TD*
G04 #@! TA.AperFunction,ViaPad*
%ADD36C,1.727200*%
G04 #@! TD*
G04 #@! TA.AperFunction,ViaPad*
%ADD37C,4.000000*%
G04 #@! TD*
G04 #@! TA.AperFunction,ViaPad*
%ADD38C,1.000000*%
G04 #@! TD*
G04 #@! TA.AperFunction,ViaPad*
%ADD39C,0.508000*%
G04 #@! TD*
G04 #@! TA.AperFunction,ViaPad*
%ADD40C,0.762000*%
G04 #@! TD*
G04 #@! TA.AperFunction,ViaPad*
%ADD41C,0.457200*%
G04 #@! TD*
G04 #@! TA.AperFunction,Conductor*
%ADD42C,0.762000*%
G04 #@! TD*
G04 #@! TA.AperFunction,Conductor*
%ADD43C,0.508000*%
G04 #@! TD*
G04 #@! TA.AperFunction,Conductor*
%ADD44C,0.254000*%
G04 #@! TD*
G04 #@! TA.AperFunction,Conductor*
%ADD45C,1.000000*%
G04 #@! TD*
G04 #@! TA.AperFunction,Conductor*
%ADD46C,0.862000*%
G04 #@! TD*
G04 #@! TA.AperFunction,Conductor*
%ADD47C,0.900000*%
G04 #@! TD*
G04 #@! TA.AperFunction,Conductor*
%ADD48C,0.152400*%
G04 #@! TD*
G04 #@! TA.AperFunction,Conductor*
%ADD49C,0.127000*%
G04 #@! TD*
G04 #@! TA.AperFunction,Conductor*
%ADD50C,0.154200*%
G04 #@! TD*
G04 APERTURE END LIST*
D10*
X155269050Y-88843250D03*
X157169050Y-88843250D03*
D11*
X123530400Y-93268800D03*
X121630400Y-93268800D03*
X123530400Y-90728800D03*
X121630400Y-90728800D03*
X122260400Y-85648800D03*
X120360400Y-85648800D03*
X123530400Y-95808800D03*
X121630400Y-95808800D03*
D12*
X150139050Y-92410750D03*
X150139050Y-94235750D03*
D13*
X153876100Y-86619300D03*
X153876100Y-86119300D03*
X153876100Y-85619300D03*
X153876100Y-85119300D03*
X153876100Y-84619300D03*
X149476100Y-84619300D03*
X149476100Y-85119300D03*
X149476100Y-85619300D03*
X149476100Y-86119300D03*
X149476100Y-86619300D03*
D14*
X131405400Y-97713800D03*
X131405400Y-96443800D03*
X131405400Y-95173800D03*
X131405400Y-93903800D03*
X131405400Y-92633800D03*
X131405400Y-91363800D03*
X131405400Y-90093800D03*
X131405400Y-88823800D03*
X126455400Y-88823800D03*
X126455400Y-90093800D03*
X126455400Y-91363800D03*
X126455400Y-92633800D03*
X126455400Y-93903800D03*
X126455400Y-95173800D03*
X126455400Y-96443800D03*
X126455400Y-97713800D03*
D15*
X129630100Y-84312400D03*
X129630100Y-82412400D03*
D14*
X126325400Y-83743800D03*
X126325400Y-82473800D03*
X126325400Y-81203800D03*
X126325400Y-79933800D03*
X121375400Y-79933800D03*
X121375400Y-81203800D03*
X121375400Y-82473800D03*
X121375400Y-83743800D03*
D16*
X123850400Y-81838800D03*
D17*
X132170100Y-84294900D03*
X132170100Y-82469900D03*
D18*
X152494333Y-91188867D03*
X154319333Y-91188867D03*
D19*
X156672100Y-86215300D03*
X158872100Y-86215300D03*
X158872100Y-84515300D03*
X156672100Y-84515300D03*
D11*
X124800400Y-99618800D03*
X122900400Y-99618800D03*
D12*
X131470400Y-77116300D03*
X131470400Y-78941300D03*
D20*
X134010400Y-77078800D03*
X134010400Y-78978800D03*
D21*
X141630400Y-111048800D03*
D22*
X139090400Y-111048800D03*
X141630400Y-108508800D03*
X139090400Y-108508800D03*
X141630400Y-105968800D03*
X139090400Y-105968800D03*
X141630400Y-103428800D03*
X139090400Y-103428800D03*
X141630400Y-100888800D03*
X139090400Y-100888800D03*
X141630400Y-98348800D03*
X139090400Y-98348800D03*
X141630400Y-95808800D03*
X139090400Y-95808800D03*
X141630400Y-93268800D03*
X139090400Y-93268800D03*
X141630400Y-90728800D03*
X139090400Y-90728800D03*
X141630400Y-88188800D03*
X139090400Y-88188800D03*
X141630400Y-85648800D03*
X139090400Y-85648800D03*
X141630400Y-83108800D03*
X139090400Y-83108800D03*
X141630400Y-80568800D03*
X139090400Y-80568800D03*
X141630400Y-78028800D03*
X139090400Y-78028800D03*
D10*
X126710400Y-105968800D03*
X128610400Y-105968800D03*
D23*
X128572900Y-103428800D03*
X126747900Y-103428800D03*
D11*
X128610400Y-100888800D03*
X126710400Y-100888800D03*
D24*
X132570400Y-105648800D03*
X132570400Y-104698800D03*
X132570400Y-103748800D03*
X130370400Y-103748800D03*
X130370400Y-105648800D03*
D18*
X134367900Y-102158800D03*
X136192900Y-102158800D03*
D23*
X136192900Y-107238800D03*
X134367900Y-107238800D03*
D11*
X136230400Y-104698800D03*
X134330400Y-104698800D03*
D18*
X130557900Y-100888800D03*
X132382900Y-100888800D03*
D17*
X131470400Y-109421300D03*
X131470400Y-107596300D03*
D25*
X123039050Y-102975750D03*
X123039050Y-104550750D03*
D17*
X123070100Y-108694900D03*
X123070100Y-106869900D03*
D11*
X123530400Y-88188800D03*
X121630400Y-88188800D03*
D21*
X117487700Y-134950200D03*
D22*
X114947700Y-134950200D03*
X117487700Y-132410200D03*
X114947700Y-132410200D03*
X117487700Y-129870200D03*
X114947700Y-129870200D03*
X117487700Y-127330200D03*
X114947700Y-127330200D03*
X117487700Y-124790200D03*
X114947700Y-124790200D03*
X117487700Y-122250200D03*
X114947700Y-122250200D03*
X117487700Y-119710200D03*
X114947700Y-119710200D03*
X117487700Y-117170200D03*
X114947700Y-117170200D03*
X117487700Y-114630200D03*
X114947700Y-114630200D03*
X117487700Y-112090200D03*
X114947700Y-112090200D03*
X117487700Y-109550200D03*
X114947700Y-109550200D03*
X117487700Y-107010200D03*
X114947700Y-107010200D03*
X117487700Y-104470200D03*
X114947700Y-104470200D03*
X117487700Y-101930200D03*
X114947700Y-101930200D03*
X117487700Y-99390200D03*
X114947700Y-99390200D03*
X117487700Y-96850200D03*
X114947700Y-96850200D03*
X117487700Y-94310200D03*
X114947700Y-94310200D03*
X117487700Y-91770200D03*
X114947700Y-91770200D03*
X117487700Y-89230200D03*
X114947700Y-89230200D03*
X117487700Y-86690200D03*
X114947700Y-86690200D03*
D26*
X128629400Y-65415800D03*
X123629400Y-70415800D03*
X133629400Y-70415800D03*
D27*
X160845500Y-81407100D03*
X160845500Y-79832100D03*
D12*
X160845500Y-75897100D03*
X160845500Y-77722100D03*
D20*
X122729050Y-134023250D03*
X122729050Y-135923250D03*
D15*
X122789050Y-131533250D03*
X122789050Y-129633250D03*
D11*
X146098300Y-116281200D03*
X144198300Y-116281200D03*
X146037300Y-113868200D03*
X144137300Y-113868200D03*
D20*
X148070100Y-106832400D03*
X148070100Y-108732400D03*
D11*
X142415300Y-116281200D03*
X140515300Y-116281200D03*
X142415300Y-113868200D03*
X140515300Y-113868200D03*
X145979050Y-122824500D03*
X144079050Y-122824500D03*
X145979050Y-120284500D03*
X144079050Y-120284500D03*
X142357050Y-122824500D03*
X140457050Y-122824500D03*
X142357050Y-120284500D03*
X140457050Y-120284500D03*
D15*
X130770100Y-121854000D03*
X130770100Y-119954000D03*
X128484100Y-121854000D03*
X128484100Y-119954000D03*
X130770100Y-118298000D03*
X130770100Y-116398000D03*
X128484100Y-118298000D03*
X128484100Y-116398000D03*
D28*
X145370100Y-106849900D03*
X145370100Y-108674900D03*
X133874800Y-116369900D03*
X133874800Y-118194900D03*
D29*
X125419050Y-129443250D03*
X125419050Y-131743250D03*
D30*
X131719050Y-131743250D03*
D29*
X125419050Y-134043250D03*
D31*
X154720100Y-140082400D03*
X159820100Y-140082400D03*
X157270100Y-140082400D03*
D32*
X141630100Y-128582400D03*
D33*
X144170100Y-128582400D03*
D34*
X146270100Y-101782400D03*
X146170100Y-86766400D03*
X117132100Y-70256400D03*
D32*
X154170100Y-101352400D03*
D33*
X154170100Y-98812400D03*
D35*
X147770100Y-77782400D03*
X155390100Y-77782400D03*
D34*
X127770100Y-111882400D03*
X156170100Y-93882400D03*
X161370100Y-91082400D03*
X146170100Y-96482400D03*
D32*
X154170100Y-119752400D03*
D33*
X154170100Y-117212400D03*
D34*
X117132100Y-64922400D03*
X146170100Y-91782400D03*
D36*
X151790400Y-72440800D03*
X154330400Y-72440800D03*
X141630400Y-72440800D03*
X154330400Y-64820800D03*
X149250400Y-67360800D03*
X151790400Y-69900800D03*
X144170400Y-72440800D03*
X151790400Y-64820800D03*
X159410400Y-64820800D03*
X154330400Y-69900800D03*
X156870400Y-67360800D03*
X154330400Y-67360800D03*
X144170400Y-64820800D03*
X159410400Y-72440800D03*
X146710400Y-64820800D03*
X144170400Y-69900800D03*
X149250400Y-69900800D03*
X156870400Y-69900800D03*
X156870400Y-72440800D03*
X144170400Y-67360800D03*
X159410400Y-67360800D03*
X159410400Y-69900800D03*
X161950400Y-69900800D03*
X151790400Y-67360800D03*
X141630400Y-64820800D03*
X141630400Y-67360800D03*
X161950400Y-64820800D03*
X161950400Y-67360800D03*
X139090400Y-69900800D03*
X139090400Y-64820800D03*
X146710400Y-72440800D03*
X146710400Y-69900800D03*
X146710400Y-67360800D03*
X156870400Y-64820800D03*
X139090400Y-72440800D03*
X139090400Y-67360800D03*
X141630400Y-69900800D03*
X149250400Y-64820800D03*
X149250400Y-72440800D03*
X149250400Y-59867800D03*
X159410400Y-59867800D03*
X139090400Y-59867800D03*
X144170400Y-62407800D03*
X149250400Y-62407800D03*
X156870400Y-62407800D03*
X141630400Y-62407800D03*
X151790400Y-59867800D03*
X161950400Y-62407800D03*
X141630400Y-59867800D03*
X146710400Y-59867800D03*
X161950400Y-59867800D03*
X156870400Y-59867800D03*
X139090400Y-62407800D03*
X159410400Y-62407800D03*
X154330400Y-62407800D03*
X151790400Y-62407800D03*
X146710400Y-62407800D03*
X144170400Y-59867800D03*
X154330400Y-59867800D03*
D37*
X116315700Y-81756000D03*
X116315700Y-139756000D03*
X165315700Y-81756000D03*
X165315700Y-139756000D03*
D38*
X124018250Y-108730550D03*
X128570100Y-107282400D03*
D39*
X136192900Y-101382400D03*
X125939050Y-98473250D03*
D36*
X131759050Y-128383250D03*
D40*
X154049050Y-89323250D03*
X149136100Y-95082400D03*
D39*
X120040400Y-83743800D03*
X148259050Y-84863250D03*
X160845500Y-82562700D03*
D36*
X115349050Y-75593250D03*
D38*
X139509050Y-121183250D03*
D40*
X128610400Y-99938800D03*
D39*
X156070100Y-83882400D03*
X120675400Y-88188800D03*
D36*
X154520900Y-135826500D03*
D38*
X122949050Y-101573250D03*
D39*
X131851359Y-104601141D03*
D40*
X119670100Y-85648800D03*
X120675400Y-93268800D03*
D38*
X147570100Y-109852200D03*
D39*
X131405400Y-98283800D03*
D38*
X140457050Y-118323250D03*
X126710400Y-107179100D03*
D36*
X122719050Y-137633250D03*
D39*
X146470100Y-84382400D03*
D36*
X122789050Y-127923250D03*
D40*
X127660400Y-79933800D03*
X120675400Y-95808800D03*
D38*
X131929050Y-115233250D03*
X157319050Y-90333250D03*
D36*
X159664400Y-135648700D03*
D39*
X122970100Y-98382400D03*
D38*
X140483650Y-123845600D03*
X139689050Y-115063250D03*
X159870100Y-86382400D03*
D39*
X125120400Y-97078800D03*
D40*
X130570100Y-102182400D03*
D39*
X120675400Y-90728800D03*
X131470400Y-88188800D03*
X135570100Y-105382400D03*
D41*
X123850400Y-79298800D03*
D39*
X134270100Y-84021300D03*
X132370100Y-89882400D03*
X135280400Y-99618800D03*
X135370100Y-90282400D03*
D41*
X134270100Y-82482400D03*
D36*
X161950400Y-72440800D03*
D41*
X157187900Y-134645400D03*
X135328450Y-88140750D03*
D42*
X149292400Y-95082400D02*
X150139050Y-94235750D01*
D43*
X131759050Y-131703250D02*
X131719050Y-131743250D01*
D44*
X126455400Y-97956900D02*
X126455400Y-97713800D01*
X148515100Y-85119300D02*
X149476100Y-85119300D01*
X128570100Y-107282400D02*
X128610400Y-107242100D01*
X153876100Y-87450300D02*
X155269050Y-88843250D01*
D43*
X130370400Y-105648800D02*
X128930400Y-105648800D01*
D42*
X154359050Y-91149150D02*
X154319333Y-91188867D01*
D43*
X122260400Y-85648800D02*
X122260400Y-84628800D01*
D44*
X125939050Y-98480150D02*
X124800400Y-99618800D01*
X125939050Y-98473250D02*
X125939050Y-98480150D01*
X128930400Y-105648800D02*
X128610400Y-105968800D01*
D45*
X125419050Y-131743250D02*
X131719050Y-131743250D01*
D42*
X149136100Y-95082400D02*
X149292400Y-95082400D01*
D46*
X155269050Y-88843250D02*
X154359050Y-89753250D01*
X154359050Y-89753250D02*
X154359050Y-91149150D01*
D44*
X153876100Y-86619300D02*
X153876100Y-87450300D01*
D43*
X125209050Y-131533250D02*
X125419050Y-131743250D01*
D44*
X148259050Y-84863250D02*
X148515100Y-85119300D01*
X154049050Y-89323250D02*
X154235150Y-89323250D01*
X136192900Y-101382400D02*
X136192900Y-102158800D01*
D43*
X122260400Y-84628800D02*
X121375400Y-83743800D01*
D45*
X128610400Y-107242100D02*
X128610400Y-105968800D01*
D42*
X131759050Y-128383250D02*
X131759050Y-131703250D01*
D44*
X123105750Y-108730550D02*
X123070100Y-108694900D01*
D45*
X124018250Y-108730550D02*
X123105750Y-108730550D01*
D44*
X125939050Y-98473250D02*
X126455400Y-97956900D01*
D43*
X121375400Y-83743800D02*
X120040400Y-83743800D01*
D45*
X122789050Y-131533250D02*
X125209050Y-131533250D01*
D44*
X128967900Y-101246300D02*
X128610400Y-100888800D01*
X156672100Y-84515300D02*
X156918100Y-84515300D01*
D43*
X131405400Y-98283800D02*
X131405400Y-97713800D01*
X140515300Y-113868200D02*
X140515300Y-113177000D01*
X126325400Y-79933800D02*
X127660400Y-79933800D01*
D44*
X131851359Y-104601141D02*
X131949018Y-104698800D01*
X131949018Y-104698800D02*
X132570400Y-104698800D01*
D45*
X122789050Y-127923250D02*
X122789050Y-129633250D01*
D42*
X139509050Y-121183250D02*
X140407800Y-120284500D01*
D45*
X147570100Y-109852200D02*
X147570100Y-109232400D01*
D42*
X131929050Y-115233250D02*
X131929050Y-115239050D01*
D44*
X140261300Y-116535200D02*
X140515300Y-116281200D01*
D43*
X122979050Y-129443250D02*
X122789050Y-129633250D01*
D47*
X140457050Y-120284500D02*
X140457050Y-116339450D01*
D42*
X121630400Y-95808800D02*
X120675400Y-95808800D01*
X140457050Y-123819000D02*
X140457050Y-122824500D01*
D45*
X159870100Y-86382400D02*
X159039200Y-86382400D01*
D43*
X122719050Y-137633250D02*
X122729050Y-137623250D01*
D44*
X140203050Y-120538500D02*
X140457050Y-120284500D01*
D42*
X140515300Y-114237000D02*
X140515300Y-113868200D01*
X140483650Y-123845600D02*
X140457050Y-123819000D01*
D44*
X122970100Y-98382400D02*
X122900400Y-98452100D01*
D47*
X140457050Y-122824500D02*
X140457050Y-122013250D01*
D42*
X128610400Y-99938800D02*
X128610400Y-100888800D01*
D43*
X156672100Y-84515300D02*
X156672100Y-84484400D01*
D42*
X140457050Y-116339450D02*
X140515300Y-116281200D01*
X131929050Y-115239050D02*
X130798200Y-116369900D01*
D45*
X128610400Y-100888800D02*
X130557900Y-100888800D01*
D44*
X126710400Y-105501300D02*
X126710400Y-105968800D01*
D48*
X146470100Y-84382400D02*
X147707000Y-85619300D01*
D42*
X122900400Y-99618800D02*
X122900400Y-101524600D01*
D44*
X126455400Y-96443800D02*
X125755400Y-96443800D01*
D43*
X140457050Y-118323250D02*
X140457050Y-120119000D01*
X141630400Y-112061900D02*
X141630400Y-111048800D01*
D42*
X157319050Y-90333250D02*
X157270100Y-90284300D01*
D45*
X128484100Y-116398000D02*
X130770100Y-116398000D01*
D44*
X125755400Y-96443800D02*
X125120400Y-97078800D01*
D42*
X139689050Y-115063250D02*
X140515300Y-114237000D01*
D43*
X159715200Y-135699500D02*
X159664400Y-135648700D01*
D45*
X125419050Y-129443250D02*
X122979050Y-129443250D01*
D44*
X158618100Y-86215300D02*
X158872100Y-86215300D01*
D42*
X157270100Y-90284300D02*
X157270100Y-88993300D01*
D44*
X131405400Y-88823800D02*
X131405400Y-88253800D01*
D47*
X140457050Y-122013250D02*
X140457050Y-120284500D01*
D45*
X133874800Y-116369900D02*
X130798200Y-116369900D01*
D43*
X130557900Y-102170200D02*
X130557900Y-100888800D01*
X140515300Y-113177000D02*
X141630400Y-112061900D01*
D45*
X160845500Y-81407100D02*
X160845500Y-82524600D01*
X140515300Y-113868200D02*
X140515300Y-116281200D01*
X159715200Y-140538200D02*
X159715200Y-135699500D01*
D48*
X147707000Y-85619300D02*
X149476100Y-85619300D01*
D45*
X126710400Y-107179100D02*
X126710400Y-105968800D01*
X122729050Y-137623250D02*
X122729050Y-135923250D01*
D44*
X157270100Y-88993300D02*
X157198100Y-88921300D01*
D42*
X140370100Y-116426400D02*
X140515300Y-116281200D01*
D44*
X140457050Y-120119000D02*
X140457050Y-120284500D01*
D45*
X154635200Y-140538200D02*
X154635200Y-135940800D01*
D44*
X130570100Y-102182400D02*
X130557900Y-102170200D01*
D42*
X122949050Y-102885750D02*
X123039050Y-102975750D01*
X121630400Y-90728800D02*
X120675400Y-90728800D01*
D45*
X147570100Y-109232400D02*
X148070100Y-108732400D01*
D43*
X156672100Y-84484400D02*
X156070100Y-83882400D01*
D44*
X131405400Y-88253800D02*
X131470400Y-88188800D01*
D42*
X122900400Y-98452100D02*
X122900400Y-99618800D01*
X120360400Y-85648800D02*
X119670100Y-85648800D01*
X121630400Y-88188800D02*
X120675400Y-88188800D01*
X122949050Y-101573250D02*
X122949050Y-102885750D01*
D43*
X154635200Y-135940800D02*
X154520900Y-135826500D01*
D44*
X130798200Y-116369900D02*
X130770100Y-116398000D01*
D42*
X121630400Y-93268800D02*
X120675400Y-93268800D01*
X122900400Y-101524600D02*
X122949050Y-101573250D01*
D44*
X140637300Y-113868200D02*
X140515300Y-113868200D01*
D42*
X140407800Y-120284500D02*
X140457050Y-120284500D01*
D49*
X126747900Y-100926300D02*
X126710400Y-100888800D01*
D44*
X126747900Y-103428800D02*
X126747900Y-100926300D01*
X132382900Y-100888800D02*
X133097900Y-100888800D01*
X134330400Y-104698800D02*
X134330400Y-102196300D01*
X133097900Y-100888800D02*
X134367900Y-102158800D01*
X132777900Y-103748800D02*
X134367900Y-102158800D01*
X132570400Y-103748800D02*
X132777900Y-103748800D01*
X137820400Y-104698800D02*
X139090400Y-105968800D01*
X136230400Y-104698800D02*
X137820400Y-104698800D01*
X135570100Y-105359100D02*
X136230400Y-104698800D01*
X135570100Y-105382400D02*
X135570100Y-105359100D01*
D48*
X122010400Y-79298800D02*
X123850400Y-79298800D01*
X121375400Y-79933800D02*
X122010400Y-79298800D01*
X137170100Y-84382400D02*
X137170100Y-86268500D01*
X126325400Y-81203800D02*
X133991500Y-81203800D01*
X137170100Y-86268500D02*
X139090400Y-88188800D01*
X133991500Y-81203800D02*
X137170100Y-84382400D01*
X126664000Y-84082400D02*
X126325400Y-83743800D01*
X131446800Y-84082400D02*
X126664000Y-84082400D01*
D49*
X133636400Y-70415800D02*
X133629400Y-70415800D01*
D48*
X131507900Y-84021300D02*
X131446800Y-84082400D01*
X134270100Y-84021300D02*
X131507900Y-84021300D01*
X119070100Y-74975100D02*
X123629400Y-70415800D01*
X121375400Y-82473800D02*
X120400400Y-82473800D01*
X131470400Y-77116300D02*
X130304000Y-77116300D01*
X120400400Y-82473800D02*
X119070100Y-81143500D01*
X131470400Y-77116300D02*
X133972900Y-77116300D01*
X119070100Y-81143500D02*
X119070100Y-74975100D01*
X130304000Y-77116300D02*
X123629400Y-70441700D01*
X123629400Y-70441700D02*
X123629400Y-70415800D01*
X141630400Y-103722100D02*
X140370100Y-104982400D01*
X140370100Y-106557400D02*
X139688700Y-107238800D01*
X139688700Y-107238800D02*
X136192900Y-107238800D01*
X141630400Y-103428800D02*
X141630400Y-103722100D01*
X140370100Y-104982400D02*
X140370100Y-106557400D01*
D49*
X132370100Y-89882400D02*
X131616800Y-89882400D01*
D48*
X135280400Y-99618800D02*
X135793764Y-99618800D01*
X128700400Y-90093800D02*
X131405400Y-90093800D01*
X135793764Y-99618800D02*
X139090400Y-102915436D01*
X126455400Y-88823800D02*
X127430400Y-88823800D01*
D49*
X131616800Y-89882400D02*
X131405400Y-90093800D01*
D48*
X139090400Y-102915436D02*
X139090400Y-103428800D01*
X127430400Y-88823800D02*
X128700400Y-90093800D01*
X153876100Y-85119300D02*
X152973700Y-85119300D01*
X152438100Y-85654900D02*
X152438100Y-91132634D01*
X152973700Y-85119300D02*
X152438100Y-85654900D01*
X152438100Y-91132634D02*
X152494333Y-91188867D01*
D44*
X155187866Y-93882400D02*
X156170100Y-93882400D01*
D48*
X152494333Y-91963867D02*
X154412866Y-93882400D01*
X154412866Y-93882400D02*
X155187866Y-93882400D01*
X152494333Y-91188867D02*
X152494333Y-91963867D01*
X153876100Y-84619300D02*
X152045200Y-84619300D01*
X151219333Y-88747167D02*
X150139050Y-89827450D01*
X142870100Y-99582400D02*
X140396800Y-99582400D01*
X152045200Y-84619300D02*
X151219333Y-85445167D01*
X140396800Y-99582400D02*
X139090400Y-100888800D01*
X149061550Y-92410750D02*
X145970100Y-95502200D01*
X150139050Y-89827450D02*
X150139050Y-92410750D01*
X151219333Y-85445167D02*
X151219333Y-88747167D01*
X145970100Y-95502200D02*
X145970100Y-96482400D01*
X150139050Y-92410750D02*
X149061550Y-92410750D01*
X145970100Y-96482400D02*
X142870100Y-99582400D01*
D49*
X146342100Y-91097100D02*
X146342100Y-91310400D01*
X141630400Y-95796100D02*
X141630400Y-95808800D01*
X146342100Y-91310400D02*
X145870100Y-91782400D01*
D48*
X149476100Y-86619300D02*
X149476100Y-88204400D01*
D49*
X145870100Y-91782400D02*
X145644100Y-91782400D01*
D48*
X149476100Y-88204400D02*
X145834100Y-91846400D01*
X145644100Y-91782400D02*
X141630400Y-95796100D01*
X127025400Y-95173800D02*
X126455400Y-95173800D01*
X139090400Y-95808800D02*
X135915400Y-98983800D01*
X135915400Y-98983800D02*
X130835400Y-98983800D01*
X130835400Y-98983800D02*
X127025400Y-95173800D01*
X146170100Y-86766400D02*
X146170100Y-88729100D01*
X149476100Y-86119300D02*
X146817200Y-86119300D01*
X146170100Y-88729100D02*
X141630400Y-93268800D01*
D49*
X146817200Y-86119300D02*
X146170100Y-86766400D01*
D48*
X131405400Y-96443800D02*
X135915400Y-96443800D01*
X135915400Y-96443800D02*
X139090400Y-93268800D01*
X142623700Y-90728800D02*
X141630400Y-90728800D01*
X149476100Y-84619300D02*
X148539200Y-83682400D01*
X143970100Y-84582400D02*
X143970100Y-89382400D01*
X143970100Y-89382400D02*
X142623700Y-90728800D01*
X144870100Y-83682400D02*
X143970100Y-84582400D01*
X148539200Y-83682400D02*
X144870100Y-83682400D01*
X135370100Y-90282400D02*
X133018700Y-92633800D01*
X123530400Y-90728800D02*
X124800400Y-90728800D01*
X126455400Y-91363800D02*
X127430400Y-91363800D01*
X127430400Y-91363800D02*
X128700400Y-92633800D01*
X126455400Y-91363800D02*
X125435400Y-91363800D01*
X128700400Y-92633800D02*
X131405400Y-92633800D01*
X133018700Y-92633800D02*
X131405400Y-92633800D01*
X124800400Y-90728800D02*
X125435400Y-91363800D01*
X140395100Y-91682400D02*
X140395100Y-90107400D01*
X135078700Y-95173800D02*
X138270100Y-91982400D01*
X143045100Y-88857400D02*
X143045100Y-87063500D01*
X142420100Y-89482400D02*
X143045100Y-88857400D01*
X140395100Y-90107400D02*
X141020100Y-89482400D01*
X138270100Y-91982400D02*
X140095100Y-91982400D01*
X131405400Y-95173800D02*
X135078700Y-95173800D01*
X125435400Y-93903800D02*
X123530400Y-95808800D01*
X126455400Y-93903800D02*
X125435400Y-93903800D01*
X126455400Y-93903800D02*
X127430400Y-93903800D01*
X127430400Y-93903800D02*
X128700400Y-95173800D01*
X128700400Y-95173800D02*
X131405400Y-95173800D01*
X140095100Y-91982400D02*
X140395100Y-91682400D01*
X141020100Y-89482400D02*
X142420100Y-89482400D01*
X143045100Y-87063500D02*
X141630400Y-85648800D01*
X124165400Y-92633800D02*
X123530400Y-93268800D01*
X128700400Y-93903800D02*
X131405400Y-93903800D01*
X133629400Y-93903800D02*
X138025800Y-89507400D01*
X126455400Y-92633800D02*
X124165400Y-92633800D01*
X127430400Y-92633800D02*
X128700400Y-93903800D01*
X140320100Y-81879100D02*
X141630400Y-80568800D01*
X131405400Y-93903800D02*
X133629400Y-93903800D01*
X126455400Y-92633800D02*
X127430400Y-92633800D01*
X138025800Y-89507400D02*
X139895100Y-89507400D01*
X139895100Y-89507400D02*
X140320100Y-89082400D01*
X140320100Y-89082400D02*
X140320100Y-81879100D01*
D43*
X115739050Y-136713250D02*
X119369050Y-136713250D01*
X119369050Y-136713250D02*
X122059050Y-134023250D01*
X122059050Y-134023250D02*
X122729050Y-134023250D01*
X114947700Y-135921900D02*
X115739050Y-136713250D01*
X125419050Y-134043250D02*
X122749050Y-134043250D01*
X114947700Y-134950200D02*
X114947700Y-135921900D01*
X122749050Y-134043250D02*
X122729050Y-134023250D01*
X114947700Y-132410200D02*
X114947700Y-134950200D01*
D44*
X123039050Y-104550750D02*
X123039050Y-106838850D01*
X123039050Y-106838850D02*
X123070100Y-106869900D01*
D48*
X160845500Y-77722100D02*
X160845500Y-79832100D01*
X131036500Y-78507400D02*
X120831800Y-78507400D01*
X139090400Y-85202700D02*
X134010400Y-80122700D01*
X134010400Y-78978800D02*
X131507900Y-78978800D01*
X134010400Y-80122700D02*
X134010400Y-78978800D01*
X120831800Y-78507400D02*
X120040400Y-79298800D01*
X139090400Y-85648800D02*
X139090400Y-85202700D01*
X120040400Y-79298800D02*
X120040400Y-80843800D01*
D49*
X131507900Y-78978800D02*
X131470400Y-78941300D01*
D48*
X120040400Y-80843800D02*
X120400400Y-81203800D01*
X131470400Y-78941300D02*
X131036500Y-78507400D01*
X120400400Y-81203800D02*
X121375400Y-81203800D01*
X134270100Y-82482400D02*
X134257600Y-82469900D01*
X129630100Y-82412400D02*
X132112600Y-82412400D01*
X126325400Y-82473800D02*
X129568700Y-82473800D01*
X134257600Y-82469900D02*
X132170100Y-82469900D01*
X132112600Y-82412400D02*
X132170100Y-82469900D01*
X129568700Y-82473800D02*
X129630100Y-82412400D01*
X160845500Y-75897100D02*
X160845500Y-73545700D01*
D49*
X160869000Y-75920600D02*
X160845500Y-75897100D01*
D48*
X160845500Y-73545700D02*
X161950400Y-72440800D01*
D49*
X130370400Y-103767747D02*
X130370400Y-103748800D01*
D44*
X130370400Y-103748800D02*
X128892900Y-103748800D01*
X128892900Y-103748800D02*
X128572900Y-103428800D01*
X131470400Y-105333800D02*
X130370400Y-104233800D01*
X131470400Y-107596300D02*
X131470400Y-105333800D01*
X130370400Y-103748800D02*
X130370400Y-104233800D01*
X134367900Y-107238800D02*
X134367900Y-107804400D01*
X132777900Y-105648800D02*
X134367900Y-107238800D01*
X132570400Y-105648800D02*
X132777900Y-105648800D01*
X134367900Y-107804400D02*
X132751000Y-109421300D01*
X132751000Y-109421300D02*
X131470400Y-109421300D01*
X161370100Y-90913300D02*
X161370100Y-91082400D01*
X153876100Y-86119300D02*
X156576100Y-86119300D01*
X156576100Y-86119300D02*
X156672100Y-86215300D01*
D50*
X156672100Y-86215300D02*
X161370100Y-90913300D01*
D44*
X161370100Y-91082400D02*
X161582100Y-90870400D01*
X128484100Y-118298000D02*
X128484100Y-119954000D01*
X136970100Y-115682400D02*
X136970100Y-110629100D01*
X130770100Y-119954000D02*
X130770100Y-118298000D01*
X130770100Y-119954000D02*
X128484100Y-119954000D01*
X133771700Y-118298000D02*
X133874800Y-118194900D01*
X133874800Y-118194900D02*
X134457600Y-118194900D01*
X134457600Y-118194900D02*
X136970100Y-115682400D01*
X130770100Y-118298000D02*
X133771700Y-118298000D01*
X136970100Y-110629100D02*
X139090400Y-108508800D01*
X145370100Y-108674900D02*
X141796500Y-108674900D01*
X157175200Y-140538200D02*
X157175200Y-134658100D01*
X157175200Y-134658100D02*
X157187900Y-134645400D01*
D48*
X141796500Y-108674900D02*
X141630400Y-108508800D01*
D44*
X155270100Y-83682400D02*
X155670100Y-83282400D01*
X158872100Y-84199850D02*
X158872100Y-84515300D01*
X154906650Y-85619300D02*
X155270100Y-85255850D01*
X155270100Y-85255850D02*
X155270100Y-83682400D01*
X155670100Y-83282400D02*
X157954650Y-83282400D01*
X153876100Y-85619300D02*
X154906650Y-85619300D01*
X157954650Y-83282400D02*
X158872100Y-84199850D01*
X153099900Y-98582400D02*
X154370100Y-98582400D01*
X148070100Y-106832400D02*
X148070100Y-103612200D01*
X145370100Y-106849900D02*
X148052600Y-106849900D01*
X148070100Y-103612200D02*
X153099900Y-98582400D01*
D48*
X148052600Y-106849900D02*
X148070100Y-106832400D01*
X146342150Y-120647600D02*
X145979050Y-120284500D01*
D44*
X146511150Y-119752400D02*
X154170100Y-119752400D01*
X145979050Y-122824500D02*
X145979050Y-120284500D01*
X145979050Y-120284500D02*
X146511150Y-119752400D01*
D49*
X146106050Y-120411500D02*
X145979050Y-120284500D01*
D44*
X154370100Y-105535400D02*
X146037300Y-113868200D01*
X146037300Y-113868200D02*
X146037300Y-116220200D01*
D49*
X146037300Y-116220200D02*
X146098300Y-116281200D01*
D44*
X154370100Y-102082400D02*
X154370100Y-105535400D01*
X144137300Y-113868200D02*
X142415300Y-113868200D01*
X144198300Y-116710600D02*
X144198300Y-116281200D01*
X142415300Y-113868200D02*
X142415300Y-116281200D01*
X153500100Y-117882400D02*
X145370100Y-117882400D01*
X144198300Y-116281200D02*
X142415300Y-116281200D01*
X145370100Y-117882400D02*
X144198300Y-116710600D01*
X154216100Y-117166400D02*
X153500100Y-117882400D01*
X128484100Y-121854000D02*
X130770100Y-121854000D01*
X130770100Y-121854000D02*
X132946400Y-121854000D01*
X139674800Y-128582400D02*
X141630100Y-128582400D01*
X131741700Y-121854000D02*
X132946400Y-121854000D01*
X132946400Y-121854000D02*
X139674800Y-128582400D01*
X144099050Y-122823250D02*
X143776650Y-123145650D01*
X144157550Y-122823250D02*
X144099050Y-122823250D01*
D48*
X144079050Y-128491350D02*
X144170100Y-128582400D01*
D44*
X144099050Y-120283250D02*
X144099050Y-122823250D01*
X144079050Y-122824500D02*
X144079050Y-128491350D01*
X144170100Y-128248400D02*
X144170100Y-128582400D01*
X144099050Y-120283250D02*
X142377050Y-120283250D01*
X142377050Y-122823250D02*
X144099050Y-122823250D01*
D48*
X123530400Y-88188800D02*
X125435400Y-90093800D01*
X135328450Y-88140750D02*
X135328450Y-88579750D01*
X128700400Y-91363800D02*
X131405400Y-91363800D01*
X127430400Y-90093800D02*
X128700400Y-91363800D01*
X126455400Y-90093800D02*
X127430400Y-90093800D01*
X132544400Y-91363800D02*
X131405400Y-91363800D01*
X135328450Y-88579750D02*
X132544400Y-91363800D01*
X125435400Y-90093800D02*
X126455400Y-90093800D01*
M02*
